<svg width="6" height="8" viewBox="0 0 6 8" fill="none" xmlns="http://www.w3.org/2000/svg">
	<path d="M5.56273 2.81023L5.43773 6.59383C5.41546 7.26766 4.86195 7.80163 4.18773 7.79933H1.81273C1.13929 7.80167 0.58543 7.26847 0.56273 6.59503L0.43773 2.81023C0.434996 2.72742 0.465464 2.64695 0.522105 2.5864C0.578746 2.52585 0.656875 2.4903 0.740075 2.48757C0.912345 2.48171 1.05687 2.61726 1.06273 2.78991L1.18773 6.57431C1.20063 6.90986 1.47679 7.17548 1.81273 7.17509H4.18773C4.52406 7.17548 4.80062 6.90907 4.81274 6.57275L4.93774 2.78955V2.78994C4.94359 2.61728 5.08812 2.48174 5.26039 2.4876C5.43305 2.49346 5.56859 2.63799 5.56274 2.81026L5.56273 2.81023ZM5.97601 1.55123C5.97601 1.63404 5.9432 1.71373 5.8846 1.77232C5.82601 1.83091 5.74671 1.86372 5.66351 1.86372H0.336914C0.164644 1.86372 0.0244141 1.72388 0.0244141 1.55122C0.0244141 1.37856 0.164644 1.23872 0.336914 1.23872H1.30566C1.51113 1.23951 1.683 1.08403 1.70371 0.880135C1.75137 0.401225 2.15488 0.0367751 2.63613 0.0383351H3.36425C3.8455 0.0367727 4.24902 0.401225 4.29667 0.880135C4.31738 1.08404 4.48925 1.23951 4.69472 1.23872H5.66347C5.83574 1.23872 5.97597 1.37856 5.97597 1.55122L5.97601 1.55123ZM2.24591 1.23873H3.75491C3.71389 1.14498 3.68694 1.04537 3.67522 0.943809C3.65921 0.784429 3.52483 0.662559 3.36467 0.662559H2.63655C2.476 0.662559 2.34202 0.784439 2.326 0.943809C2.31389 1.04576 2.28694 1.14498 2.24592 1.23873H2.24591ZM2.56075 5.97353V3.31263C2.56075 3.13997 2.42091 3.00013 2.24825 3.00013C2.07559 3.00013 1.93575 3.13997 1.93575 3.31263V5.97473C1.93575 6.14739 2.07559 6.28723 2.24825 6.28723C2.42091 6.28723 2.56075 6.14739 2.56075 5.97473V5.97353ZM4.06505 5.97353V3.31263C4.06505 3.13997 3.92521 3.00013 3.75255 3.00013C3.58028 3.00013 3.44005 3.13997 3.44005 3.31263V5.97473C3.44005 6.14739 3.58028 6.28723 3.75255 6.28723C3.92521 6.28723 4.06505 6.14739 4.06505 5.97473V5.97353Z" fill="#3E4244" />
</svg>
