<svg width="25" height="25" viewBox="0 0 25 25" fill="none" xmlns="http://www.w3.org/2000/svg">
	<g style="mix-blend-mode:multiply">
		<path d="M18.3586 19.8556C19.2991 20.7964 19.3098 22.3466 18.1978 23.0769C17.5839 23.4801 16.9319 23.8257 16.25 24.1082C14.8242 24.6988 13.2957 25.0019 11.7524 25C5.26115 25 0 19.7388 0 13.2476C0 7.87675 3.60167 3.34804 8.52178 1.94468C10.2593 1.44909 11.7524 2.95988 11.7524 4.76668V9.97608C11.7524 11.7829 13.2171 13.2476 15.0239 13.2476H15.96C17.464 13.2476 18.7318 14.5111 18.1562 15.9006C18.1168 15.9956 18.0754 16.0897 18.0319 16.1827C17.4674 17.39 17.4164 18.9131 18.3586 19.8556Z" fill="#4ACBD3" />
		<path d="M15.7645 12.2334C17.4201 12.2334 18.9656 13.599 18.6467 15.2235C18.5088 15.926 18.228 16.5734 17.6671 17.1346C16.3675 18.4346 14.6048 19.1652 12.7666 19.1656C8.9387 19.1656 5.83564 16.0634 5.83564 12.2346C5.83564 9.54098 7.37089 7.20698 9.61453 6.05979C11.2232 5.23725 12.7666 6.76837 12.7666 8.57518V9.23547C12.7666 10.8912 14.1088 12.2334 15.7645 12.2334Z" fill="#4B40D1" />
		<path d="M24.9047 8.16759C25.4003 9.9051 23.8895 11.3982 22.0827 11.3982H16.8733C15.0665 11.3982 13.6018 9.93352 13.6018 8.12671V2.91732C13.6018 1.11051 15.0949 -0.400271 16.8324 0.0953175C20.7261 1.20591 23.7941 4.27389 24.9047 8.16759Z" fill="#1E55A9" />
		<path d="M22.11 12.7405C23.4397 12.7405 24.5431 13.8285 24.2737 15.1306C24.1247 15.8506 23.908 16.5568 23.6253 17.2394C23.3312 17.9496 22.7723 18.7264 22.1503 19.462C21.2337 20.5459 19.542 20.3718 18.738 19.2019C18.1171 18.2985 18.2696 17.0958 18.8075 16.1406C18.9431 15.8998 19.0644 15.6506 19.1706 15.3942C19.2101 15.2988 19.2474 15.2027 19.2825 15.106C19.7367 13.8533 20.7775 12.7405 22.11 12.7405Z" fill="#4ACBD3" />
	</g>
</svg>
