<svg width="12" height="12" viewBox="0 0 12 12" fill="none" xmlns="http://www.w3.org/2000/svg">
	<path d="M2.0573 0.5L1.94792 0.828125L0.979172 3.5H0.963547V3.53125L0.463547 4.90625V5.5H1.46355V5.07812L1.66667 4.5H3.26042L3.46355 5.07812V5.5H4.46355V4.90625L3.96355 3.53125V3.5H3.94792L2.97917 0.828125L2.8698 0.5H2.0573ZM8.96355 0.5V9.84375L7.66667 8.54688L6.96355 9.25L9.10417 11.4062L9.46355 11.75L9.82292 11.4062L11.9635 9.25L11.2604 8.54688L9.96355 9.84375V0.5H8.96355ZM2.46355 2.32812L2.88542 3.5H2.04167L2.46355 2.32812ZM0.463547 6.5V7.5H3.2448L0.604172 10.1406L0.463547 10.2969V11.5H4.46355V10.5H1.6823L4.32292 7.85938L4.46355 7.70312V6.5H0.463547Z" fill="#3E4244" />
</svg>
