<?xml version="1.0" encoding="UTF-8"?><svg id="a" xmlns="http://www.w3.org/2000/svg" viewBox="0 0 10 10"><defs><style>.b{fill:#bdc8da;}</style></defs><path class="b" d="M4.93,.73C2.53,.73,.58,2.67,.58,5.07s1.95,4.35,4.35,4.35,4.35-1.95,4.35-4.35S7.33,.73,4.93,.73Zm0,7.96c-2,0-3.62-1.62-3.62-3.62S2.93,1.46,4.93,1.46s3.62,1.62,3.62,3.62-1.62,3.62-3.62,3.62Z"/><path class="b" d="M6.78,6.08l-.47-.28,.43-.11c.06,0,.08-.06,.07-.11l-.05-.18c0-.06-.06-.08-.11-.07l-.78,.2-.68-.4,.68-.4,.79,.21c.06,.02,.1,0,.11-.07l.05-.18c.02-.06,0-.1-.07-.11l-.44-.1,.47-.28c.06-.03,.07-.09,.04-.13l-.1-.17c-.03-.06-.09-.07-.13-.04l-.46,.27,.11-.41c.02-.06,0-.1-.07-.11l-.18-.05c-.06-.02-.1,0-.11,.07l-.19,.77-.68,.4v-.77l.58-.58s.04-.1,0-.13l-.13-.14s-.1-.04-.13,0l-.31,.31v-.53c0-.06-.04-.1-.1-.1h-.19c-.06,0-.1,.04-.1,.1v.53l-.31-.31s-.1-.04-.13,0l-.13,.13s-.04,.1,0,.13l.58,.58v.78l-.68-.4-.2-.78c0-.06-.06-.08-.11-.07l-.18,.05c-.06,0-.08,.06-.07,.11l.11,.42-.44-.26s-.1,0-.13,.04l-.1,.16s0,.1,.04,.13l.46,.28-.44,.11c-.06,0-.08,.06-.07,.11l.05,.18c0,.06,.06,.08,.11,.07l.79-.21,.67,.39-.68,.4-.77-.2c-.06-.02-.1,0-.11,.07l-.05,.18c-.02,.06,0,.1,.07,.11l.42,.11-.45,.27c-.06,.03-.07,.09-.04,.13l.1,.16c.03,.06,.09,.07,.13,.04l.48-.28-.11,.44c-.02,.06,0,.1,.07,.11l.18,.05c.06,.02,.1,0,.11-.07l.2-.8,.67-.39v.78l-.58,.58s-.04,.1,0,.13l.13,.13s.1,.04,.13,0l.31-.31v.53c0,.06,.04,.1,.1,.1h.19c.06,0,.1-.04,.1-.1v-.53l.31,.31s.1,.04,.13,0l.13-.13s.04-.1,0-.13l-.58-.58v-.78l.66,.39,.21,.79c0,.06,.06,.08,.11,.07l.18-.05c.06,0,.08-.06,.07-.11l-.11-.43,.47,.27s.1,0,.13-.04l.1-.16s0-.11-.04-.14h0Z"/></svg>