<svg width="26" height="26" viewBox="0 0 26 26" fill="none" xmlns="http://www.w3.org/2000/svg">
<path d="M25.722 4.98783L24.7348 6.60675L22.0059 4.94317L22.9931 3.32425L25.722 4.98783Z" fill="url(#paint0_linear_1537_6845)"/>
<path d="M21.3965 5.95868L16.5753 13.8663L16.5215 17.0087L19.284 15.5462L24.159 7.6375L21.3965 5.95868Z" fill="url(#paint1_linear_1537_6845)"/>
<path d="M20.1504 16.4663L15.2754 19.0125L15.384 13.5413L18.8504 7.85381H0.704188C0.433008 7.85381 0.270508 8.07013 0.270508 8.28749L0.271524 22.2087C0.271524 22.4798 0.487851 22.6423 0.705204 22.6423H21.0177C21.2889 22.6423 21.4514 22.426 21.4514 22.2087L21.4504 14.3L20.1504 16.4663ZM3.25038 12.7837H6.5542V16.25H3.25038V12.7837ZM6.5542 20.7462H3.25038C2.92538 20.7462 2.6542 20.475 2.6542 20.15C2.6542 19.825 2.92538 19.5538 3.25038 19.5538H6.5542C6.8792 19.5538 7.15038 19.825 7.15038 20.15C7.15038 20.475 6.8792 20.7462 6.5542 20.7462ZM12.5129 20.7462H9.20905C8.88405 20.7462 8.61288 20.475 8.61288 20.15C8.61288 19.825 8.88405 19.5538 9.20905 19.5538H12.5129C12.8379 19.5538 13.1091 19.825 13.1091 20.15C13.1091 20.475 12.8379 20.7462 12.5129 20.7462ZM18.5254 20.7462H15.1667C14.8417 20.7462 14.5705 20.475 14.5705 20.15C14.5705 19.825 14.8417 19.5538 15.1667 19.5538H18.4705C18.7955 19.5538 19.0667 19.825 19.0667 20.15C19.0667 20.475 18.8504 20.7462 18.5254 20.7462V20.7462Z" fill="url(#paint2_linear_1537_6845)"/>
<defs>
<linearGradient id="paint0_linear_1537_6845" x1="21.9597" y1="4.95891" x2="25.7215" y2="4.95891" gradientUnits="userSpaceOnUse">
<stop stop-color="#1E55A9"/>
<stop offset="0.98" stop-color="#2BBFC7"/>
</linearGradient>
<linearGradient id="paint1_linear_1537_6845" x1="16.4266" y1="11.4615" x2="24.1579" y2="11.4615" gradientUnits="userSpaceOnUse">
<stop stop-color="#1E55A9"/>
<stop offset="0.98" stop-color="#2BBFC7"/>
</linearGradient>
<linearGradient id="paint2_linear_1537_6845" x1="0.00726703" y1="15.2184" x2="21.4484" y2="15.2184" gradientUnits="userSpaceOnUse">
<stop stop-color="#1E55A9"/>
<stop offset="0.98" stop-color="#2BBFC7"/>
</linearGradient>
</defs>
</svg>
