<svg width="22" height="22" viewBox="0 0 22 22" fill="none" xmlns="http://www.w3.org/2000/svg">
<path d="M19.3178 7.54269H18.8555V17.2854H19.3178C19.9314 17.2854 20.4273 16.7887 20.4273 16.1759V8.65215C20.4273 8.03941 19.9314 7.54269 19.3178 7.54269V7.54269Z" fill="url(#paint0_linear_1537_6836)"/>
<path d="M7.22762 6.59999C7.05403 6.59999 6.91309 6.74093 6.91309 6.91453V7.54274C6.91309 7.71633 7.05402 7.85727 7.22762 7.85727C7.40121 7.85727 7.54215 7.71633 7.54215 7.54274V6.91453C7.54215 6.74093 7.40122 6.59999 7.22762 6.59999V6.59999Z" fill="url(#paint1_linear_1537_6836)"/>
<path d="M5.97176 6.59999C5.79817 6.59999 5.65723 6.74093 5.65723 6.91453V7.54274C5.65723 7.71633 5.79816 7.85727 5.97176 7.85727C6.14535 7.85727 6.28629 7.71633 6.28629 7.54274V6.91453C6.28543 6.74093 6.1445 6.59999 5.97176 6.59999V6.59999Z" fill="url(#paint2_linear_1537_6836)"/>
<path d="M4.71395 6.59999C4.54036 6.59999 4.39941 6.74093 4.39941 6.91453V7.54274C4.39941 7.71633 4.54035 7.85727 4.71395 7.85727C4.88754 7.85727 5.02848 7.71633 5.02848 7.54274V6.91453C5.02762 6.74093 4.88755 6.59999 4.71395 6.59999V6.59999Z" fill="url(#paint3_linear_1537_6836)"/>
<path d="M8.48446 6.59999C8.31086 6.59999 8.16992 6.74093 8.16992 6.91453V7.54274C8.16992 7.71633 8.31086 7.85727 8.48446 7.85727C8.65805 7.85727 8.79899 7.71633 8.79899 7.54274V6.91453C8.79899 6.74093 8.65805 6.59999 8.48446 6.59999V6.59999Z" fill="url(#paint4_linear_1537_6836)"/>
<path d="M15.4619 17.2854H18.2273V7.54269H15.4619V17.2854ZM16.971 15.7145C16.971 15.8881 16.83 16.029 16.6564 16.029C16.4829 16.029 16.3419 15.8881 16.3419 15.7145V15.0863C16.3419 14.9127 16.4828 14.7717 16.6564 14.7717C16.83 14.7717 16.971 14.9127 16.971 15.0863V15.7145ZM16.971 13.829C16.971 14.0026 16.83 14.1435 16.6564 14.1435C16.4829 14.1435 16.3419 14.0026 16.3419 13.829V13.2008C16.3419 13.0272 16.4828 12.8863 16.6564 12.8863C16.83 12.8863 16.971 13.0272 16.971 13.2008V13.829ZM15.7137 9.74272C15.7137 9.22451 16.1383 8.79997 16.6565 8.79997C17.1747 8.79997 17.5992 9.22451 17.5992 9.74272C17.5992 9.84928 17.5803 9.9567 17.5425 10.0573C17.5803 10.1578 17.5992 10.2644 17.5992 10.3718C17.5992 10.8934 17.1747 11.3145 16.6565 11.3145C16.1383 11.3145 15.7137 10.8934 15.7137 10.3718C15.7137 10.2652 15.7326 10.1578 15.7704 10.0573C15.7326 9.9567 15.7137 9.84928 15.7137 9.74272Z" fill="url(#paint5_linear_1537_6836)"/>
<path d="M14.5195 3.4573H6.28491V1.2573C6.28491 1.08456 6.14312 0.942764 5.97038 0.942764H3.45578C3.28304 0.942764 3.14124 1.08456 3.14124 1.2573V3.4573H1.88485C1.71211 3.4573 1.57031 3.59909 1.57031 3.77183V20.7437C1.57031 20.9165 1.71211 21.0583 1.88485 21.0583H14.5194C14.6922 21.0583 14.834 20.9165 14.834 20.7437V3.77183C14.834 3.59824 14.6922 3.4573 14.5194 3.4573H14.5195ZM6.22221 18.4019C6.22221 18.5781 6.08042 18.7164 5.90768 18.7164H4.26369C4.09095 18.7164 3.94915 18.5781 3.94915 18.4019V16.922C3.94915 16.7493 4.09095 16.6075 4.26369 16.6075H5.90768C6.08041 16.6075 6.22221 16.7493 6.22221 16.922V18.4019ZM6.22221 15.5135C6.22221 15.6863 6.08042 15.8281 5.90768 15.8281H4.26369C4.09095 15.8281 3.94915 15.6863 3.94915 15.5135V14.0302C3.94915 13.8575 4.09095 13.7157 4.26369 13.7157H5.90768C6.08041 13.7157 6.22221 13.8575 6.22221 14.0302V15.5135ZM6.22221 12.6216C6.22221 12.7944 6.08042 12.9362 5.90768 12.9362H4.26369C4.09095 12.9362 3.94915 12.7944 3.94915 12.6216V11.1409C3.94915 10.9682 4.09095 10.8264 4.26369 10.8264H5.90768C6.08041 10.8264 6.22221 10.9682 6.22221 11.1409V12.6216ZM9.17065 18.4017C9.17065 18.5778 9.03229 18.7162 8.85612 18.7162H7.21213C7.03939 18.7162 6.89759 18.5778 6.89759 18.4017V16.9218C6.89759 16.7491 7.03939 16.6073 7.21213 16.6073H8.85612C9.03229 16.6073 9.17065 16.7491 9.17065 16.9218V18.4017ZM9.17065 15.5133C9.17065 15.686 9.03229 15.8278 8.85612 15.8278H7.21213C7.03939 15.8278 6.89759 15.686 6.89759 15.5133V14.03C6.89759 13.8573 7.03939 13.7155 7.21213 13.7155H8.85612C9.03229 13.7155 9.17065 13.8573 9.17065 14.03V15.5133ZM9.17065 12.6214C9.17065 12.7941 9.03229 12.9359 8.85612 12.9359H7.21213C7.03939 12.9359 6.89759 12.7941 6.89759 12.6214V11.1407C6.89759 10.968 7.03939 10.8262 7.21213 10.8262H8.85612C9.03229 10.8262 9.17065 10.9679 9.17065 11.1407V12.6214ZM12.1217 18.4015C12.1217 18.5776 11.9799 18.716 11.8072 18.716H10.1632C9.98703 18.716 9.84867 18.5776 9.84867 18.4015V16.9216C9.84867 16.7489 9.98703 16.6071 10.1632 16.6071H11.8072C11.9799 16.6071 12.1217 16.7489 12.1217 16.9216V18.4015ZM12.1217 15.5131C12.1217 15.6858 11.9799 15.8276 11.8072 15.8276H10.1632C9.98703 15.8276 9.84867 15.6858 9.84867 15.5131V14.0298C9.84867 13.8571 9.98703 13.7153 10.1632 13.7153H11.8072C11.9799 13.7153 12.1217 13.8571 12.1217 14.0298V15.5131ZM12.1217 12.6212C12.1217 12.7939 11.9799 12.9357 11.8072 12.9357H10.1632C9.98703 12.9357 9.84867 12.7939 9.84867 12.6212V11.1405C9.84867 10.9677 9.98703 10.8259 10.1632 10.8259H11.8072C11.9799 10.8259 12.1217 10.9677 12.1217 11.1405V12.6212ZM13.5139 8.79956C13.5139 8.97229 13.3721 9.11409 13.1994 9.11409H3.14208C2.96935 9.11409 2.82755 8.9723 2.82755 8.79956V5.65686C2.82755 5.48412 2.96934 5.34232 3.14208 5.34232H13.1994C13.3721 5.34232 13.5139 5.48412 13.5139 5.65686V8.79956Z" fill="url(#paint6_linear_1537_6836)"/>
<defs>
<linearGradient id="paint0_linear_1537_6836" x1="18.8359" y1="12.3945" x2="20.4271" y2="12.3945" gradientUnits="userSpaceOnUse">
<stop stop-color="#1E55A9"/>
<stop offset="0.98" stop-color="#2BBFC7"/>
</linearGradient>
<linearGradient id="paint1_linear_1537_6836" x1="6.90527" y1="7.22611" x2="7.54207" y2="7.22611" gradientUnits="userSpaceOnUse">
<stop stop-color="#1E55A9"/>
<stop offset="0.98" stop-color="#2BBFC7"/>
</linearGradient>
<linearGradient id="paint2_linear_1537_6836" x1="5.64941" y1="7.22611" x2="6.28621" y2="7.22611" gradientUnits="userSpaceOnUse">
<stop stop-color="#1E55A9"/>
<stop offset="0.98" stop-color="#2BBFC7"/>
</linearGradient>
<linearGradient id="paint3_linear_1537_6836" x1="4.3916" y1="7.22611" x2="5.0284" y2="7.22611" gradientUnits="userSpaceOnUse">
<stop stop-color="#1E55A9"/>
<stop offset="0.98" stop-color="#2BBFC7"/>
</linearGradient>
<linearGradient id="paint4_linear_1537_6836" x1="8.1621" y1="7.22611" x2="8.7989" y2="7.22611" gradientUnits="userSpaceOnUse">
<stop stop-color="#1E55A9"/>
<stop offset="0.98" stop-color="#2BBFC7"/>
</linearGradient>
<linearGradient id="paint5_linear_1537_6836" x1="15.4275" y1="12.3945" x2="18.2269" y2="12.3945" gradientUnits="userSpaceOnUse">
<stop stop-color="#1E55A9"/>
<stop offset="0.98" stop-color="#2BBFC7"/>
</linearGradient>
<linearGradient id="paint6_linear_1537_6836" x1="1.40547" y1="10.9601" x2="14.8321" y2="10.9601" gradientUnits="userSpaceOnUse">
<stop stop-color="#1E55A9"/>
<stop offset="0.98" stop-color="#2BBFC7"/>
</linearGradient>
</defs>
</svg>
