<svg width="26" height="18" viewBox="0 0 26 18" fill="none" xmlns="http://www.w3.org/2000/svg">
<path d="M22.1927 4.77754C19.7527 2.34378 16.4464 0.977539 13 0.977539C9.55363 0.977539 6.24739 2.34378 3.80739 4.77754L0.292512 8.29242C-0.097504 8.68368 -0.097504 9.31616 0.292512 9.70743L3.80739 13.2223C6.24739 15.6561 9.55363 17.0223 13 17.0223C16.4464 17.0223 19.7527 15.6561 22.1927 13.2223L25.7076 9.70743C26.0976 9.31616 26.0976 8.68368 25.7076 8.29242L22.1927 4.77754ZM20.7789 11.8076H20.7777C18.7139 13.8676 15.9165 15.0252 13.0001 15.0252C10.0836 15.0252 7.28646 13.8677 5.22246 11.8076L2.41373 9.00013L5.22122 6.19264H5.22247C7.28621 4.13264 10.0836 2.97504 13.0001 2.97504C15.9165 2.97504 18.7137 4.13255 20.7777 6.19264L23.5864 9.00013L20.7789 11.8076Z" fill="url(#paint0_linear_2457_8523)"/>
<path d="M13 4C11.6738 4 10.4025 4.52624 9.46499 5.46499C8.52624 6.4025 8 7.67373 8 9.00003C8 10.3263 8.52624 11.5975 9.46499 12.5351C10.4025 13.4738 11.6737 14.0001 13 14.0001C14.3263 14.0001 15.5975 13.4738 16.5351 12.5351C17.4738 11.5976 18.0001 10.3263 18.0001 9.00003C17.9988 7.67504 17.4713 6.40378 16.5338 5.46627C15.5963 4.52877 14.3251 4.00128 13.0001 4.00003L13 4ZM13 12C11.7863 12 10.6925 11.2687 10.2288 10.1475C9.76378 9.02749 10.0213 7.73622 10.8788 6.87869C11.7363 6.02118 13.0275 5.76368 14.1476 6.2287C15.2688 6.69245 16.0001 7.78621 16.0001 8.99997C16.0001 10.6562 14.6563 12 13.0001 12L13 12Z" fill="url(#paint1_linear_2457_8523)"/>
<defs>
<linearGradient id="paint0_linear_2457_8523" x1="-0.323135" y1="8.96773" x2="25.9965" y2="8.96773" gradientUnits="userSpaceOnUse">
<stop stop-color="#1E55A9"/>
<stop offset="0.98" stop-color="#2BBFC7"/>
</linearGradient>
<linearGradient id="paint1_linear_2457_8523" x1="7.87572" y1="8.97996" x2="17.9987" y2="8.97996" gradientUnits="userSpaceOnUse">
<stop stop-color="#1E55A9"/>
<stop offset="0.98" stop-color="#2BBFC7"/>
</linearGradient>
</defs>
</svg>
