<svg width="21" height="20" viewBox="0 0 21 20" fill="none" xmlns="http://www.w3.org/2000/svg">
<path d="M17.6513 13.3836C16.117 13.3836 14.8427 14.4116 14.4327 15.7817H11.5152V2.41997H6.5682C6.17914 1.02807 4.88288 0 3.3487 0C1.51231 0 0 1.47721 0 3.31913C0 5.1393 1.49036 6.63826 3.3487 6.63826C4.88296 6.63826 6.15728 5.61023 6.56733 4.24013H9.67795V17.6019H14.4089C14.8207 18.972 16.117 20 17.6513 20C19.4877 20 21 18.5228 21 16.6809C20.9781 14.8607 19.4877 13.3836 17.6513 13.3836ZM3.34848 4.81809C2.50625 4.81809 1.83617 4.15392 1.83617 3.31913C1.83617 2.48434 2.50625 1.82017 3.34848 1.82017C4.19071 1.82017 4.8608 2.48434 4.8608 3.31913C4.88274 4.15392 4.19155 4.81809 3.34848 4.81809ZM17.6513 18.1798C16.8091 18.1798 16.139 17.5157 16.139 16.6809C16.139 15.8461 16.8091 15.1819 17.6513 15.1819C18.4935 15.1819 19.1636 15.8461 19.1636 16.6809C19.1636 17.5165 18.4716 18.1798 17.6513 18.1798Z" fill="url(#paint0_linear_2457_8351)"/>
<defs>
<linearGradient id="paint0_linear_2457_8351" x1="-0.260993" y1="9.95987" x2="20.9971" y2="9.95987" gradientUnits="userSpaceOnUse">
<stop stop-color="#1E55A9"/>
<stop offset="0.98" stop-color="#2BBFC7"/>
</linearGradient>
</defs>
</svg>
