<svg width="14" height="14" viewBox="0 0 14 14" fill="none" xmlns="http://www.w3.org/2000/svg">
<path d="M4.8125 1.53125C4.8125 1.24141 4.69711 0.963046 4.49203 0.757974C4.28695 0.552902 4.00859 0.4375 3.71875 0.4375H1.53125C0.926954 0.4375 0.4375 0.926954 0.4375 1.53125C0.4375 2.13555 0.926954 2.625 1.53125 2.625H3.71875C4.00859 2.625 4.28695 2.50961 4.49203 2.30453C4.6971 2.09945 4.8125 1.82109 4.8125 1.53125ZM1.3125 1.53125C1.3125 1.41039 1.41039 1.3125 1.53125 1.3125H3.71875C3.83961 1.3125 3.9375 1.41039 3.9375 1.53125C3.9375 1.65211 3.83961 1.75 3.71875 1.75H1.53125C1.41039 1.75 1.3125 1.65211 1.3125 1.53125Z" fill="#1E55A9"/>
<path d="M4.59372 11.375C4.15129 11.375 3.75263 11.6413 3.58309 12.0504C3.41411 12.4589 3.50762 12.9292 3.82043 13.242C4.13324 13.5549 4.60356 13.6484 5.01207 13.4794C5.42113 13.3099 5.68745 12.9112 5.68745 12.4688C5.68745 12.1789 5.57206 11.9005 5.36698 11.6955C5.16191 11.4904 4.88355 11.375 4.5937 11.375L4.59372 11.375ZM4.59372 12.6875C4.50513 12.6875 4.42528 12.6345 4.39138 12.5524C4.35802 12.471 4.37661 12.3769 4.43895 12.314C4.50185 12.2517 4.59591 12.2331 4.67739 12.2664C4.75942 12.3003 4.81247 12.3802 4.81247 12.4688C4.81247 12.5267 4.7895 12.5825 4.74848 12.6235C4.70747 12.6646 4.65168 12.6875 4.59371 12.6875L4.59372 12.6875Z" fill="#1E55A9"/>
<path d="M9.40622 11.375C8.96379 11.375 8.56513 11.6413 8.39559 12.0504C8.22661 12.4589 8.32012 12.9292 8.63293 13.242C8.94575 13.5549 9.41606 13.6484 9.82457 13.4794C10.2336 13.3099 10.5 12.9112 10.5 12.4688C10.5 12.1789 10.3846 11.9005 10.1795 11.6955C9.97441 11.4904 9.69605 11.375 9.4062 11.375L9.40622 11.375ZM9.40622 12.6875C9.31763 12.6875 9.23779 12.6345 9.20388 12.5524C9.17052 12.471 9.18911 12.3769 9.25146 12.314C9.31435 12.2517 9.40841 12.2331 9.48989 12.2664C9.57192 12.3003 9.62497 12.3802 9.62497 12.4688C9.62497 12.5267 9.602 12.5825 9.56098 12.6235C9.51997 12.6646 9.46418 12.6875 9.40621 12.6875L9.40622 12.6875Z" fill="#1E55A9"/>
<path d="M13.2957 3.61352C13.048 3.26571 12.6466 3.06009 12.2195 3.06227H3.96816C3.22003 3.07212 2.62012 3.68352 2.62503 4.43164V9.56796C2.62011 10.3161 3.22003 10.9275 3.96816 10.9373H10.5568C11.142 10.9357 11.6588 10.5551 11.8343 9.9967L13.4925 4.86486C13.6325 4.44049 13.5592 3.97454 13.2956 3.61361L13.2957 3.61352ZM12.6614 4.59352L11.0032 9.72536C10.9436 9.9195 10.7686 10.0546 10.5657 10.0622H3.9682C3.84078 10.0589 3.71938 10.0048 3.63188 9.91184C3.54383 9.81942 3.4968 9.69528 3.50008 9.56786V4.43154C3.4968 4.30412 3.54383 4.17998 3.63188 4.08756C3.71938 3.99459 3.84079 3.94045 3.9682 3.93717H12.2195C12.3672 3.93827 12.505 4.00991 12.5914 4.12968C12.6882 4.26366 12.7144 4.43647 12.6614 4.59342L12.6614 4.59352Z" fill="#1E55A9"/>
<path d="M9.1875 6.5625H7.875V5.25C7.875 5.00828 7.67922 4.8125 7.4375 4.8125C7.19578 4.8125 7 5.00828 7 5.25V6.5625H5.6875C5.44578 6.5625 5.25 6.75828 5.25 7C5.25 7.24172 5.44578 7.4375 5.6875 7.4375H7V8.75C7 8.99172 7.19578 9.1875 7.4375 9.1875C7.67922 9.1875 7.875 8.99172 7.875 8.75V7.4375H9.1875C9.42922 7.4375 9.625 7.24172 9.625 7C9.625 6.75828 9.42922 6.5625 9.1875 6.5625Z" fill="#1E55A9"/>
</svg>
