<svg width="11" height="11" viewBox="0 0 11 11" fill="none" xmlns="http://www.w3.org/2000/svg">
	<path d="M5.82703 3.97852H5.17305V5.17301H3.97856V5.82699H5.17305V7.02148H5.82703V5.82699H7.02152V5.17301H5.82703V3.97852Z" fill="#2B2B2B" />
	<path d="M7.45547 0.611084H3.54442C2.76669 0.611943 2.02114 0.921317 1.47114 1.47132C0.921141 2.02132 0.611767 2.76679 0.610909 3.5446V7.45565C0.611768 8.23338 0.921141 8.97892 1.47114 9.52892C2.02114 10.0789 2.76661 10.3883 3.54442 10.3892H7.45547C8.2332 10.3883 8.97875 10.0789 9.52875 9.52892C10.0787 8.97892 10.3881 8.23346 10.389 7.45565V3.5446C10.3881 2.76686 10.0787 2.02132 9.52875 1.47132C8.97875 0.921317 8.23328 0.611942 7.45547 0.611084ZM9.73797 7.45561C9.73711 8.06061 9.49649 8.64064 9.06852 9.06865C8.64055 9.49666 8.06047 9.73724 7.45548 9.7381H3.54443C2.93943 9.73724 2.3594 9.49662 1.93139 9.06865C1.50338 8.64069 1.2628 8.0606 1.26194 7.45561V3.54456C1.2628 2.93956 1.50343 2.35953 1.93139 1.93152C2.35936 1.50351 2.93944 1.26293 3.54443 1.26207H7.45548C8.06048 1.26293 8.64051 1.50356 9.06852 1.93152C9.49653 2.35949 9.73711 2.93957 9.73797 3.54456V7.45561Z" fill="#2B2B2B" />
</svg>
