<svg width="17" height="16" viewBox="0 0 17 16" fill="none" xmlns="http://www.w3.org/2000/svg">
	<path d="M8.10696 1.34314C4.38144 1.34314 1.36108 4.32378 1.36108 7.99994C1.36108 11.6761 4.38161 14.6574 8.10696 14.6574C11.8323 14.6574 14.8535 11.6767 14.8535 7.99994C14.8528 4.32362 11.8323 1.34314 8.10696 1.34314ZM10.9527 8.73258H8.78211V10.9726C8.78211 11.3482 8.47367 11.6526 8.09301 11.6526C7.71235 11.6526 7.40391 11.3482 7.40391 10.9726L7.40328 8.73258H5.29042C4.90976 8.73258 4.60132 8.42821 4.60132 8.05258C4.60132 7.67695 4.90976 7.37258 5.29042 7.37258H7.40328V5.38378C7.40328 5.00815 7.71172 4.70378 8.09238 4.70378C8.47304 4.70378 8.78211 5.00815 8.78148 5.38378V7.3713H10.9521C11.3327 7.3713 11.6418 7.67567 11.6412 8.0513C11.6424 8.42818 11.3333 8.73255 10.9527 8.73255L10.9527 8.73258Z" fill="white" />
</svg>
