<svg width="16" height="16" viewBox="0 0 16 16" fill="none" xmlns="http://www.w3.org/2000/svg">
	<path d="M7.99957 1.34312C4.32325 1.34312 1.34277 4.32376 1.34277 7.99992C1.34277 11.6761 4.32341 14.6574 7.99957 14.6574C11.6757 14.6574 14.657 11.6767 14.657 7.99992C14.6564 4.3236 11.6757 1.34312 7.99957 1.34312V1.34312ZM10.8077 8.73256H8.66581V10.9726C8.66581 11.3482 8.36144 11.6526 7.98581 11.6526C7.61018 11.6526 7.30581 11.3482 7.30581 10.9726L7.30519 8.73256H5.22023C4.8446 8.73256 4.54023 8.42819 4.54023 8.05256C4.54023 7.67692 4.8446 7.37256 5.22023 7.37256H7.30519V5.38376C7.30519 5.00812 7.60956 4.70376 7.98519 4.70376C8.36082 4.70376 8.66581 5.00812 8.66519 5.38376V7.37128H10.8071C11.1827 7.37128 11.4877 7.67564 11.4871 8.05128C11.4884 8.42816 11.1834 8.73252 10.8077 8.73252L10.8077 8.73256Z" fill="#3E4244" />
</svg>
