<svg width="26" height="25" viewBox="0 0 26 25" fill="none" xmlns="http://www.w3.org/2000/svg">
	<path d="M5.41632 7.292C4.81811 7.292 4.33366 7.75782 4.33366 8.33302V18.75C4.33366 19.3252 4.81811 19.792 5.41632 19.792H20.5837C21.1819 19.792 21.6664 19.3252 21.6664 18.75V8.33302C21.6664 7.75782 21.1819 7.292 20.5837 7.292H5.41632ZM5.41632 5.20802H20.5837C22.3783 5.20802 23.8337 6.60745 23.8337 8.33302V18.75C23.8337 20.4756 22.3783 21.875 20.5837 21.875H5.41632C3.62172 21.875 2.16632 20.4756 2.16632 18.75V8.33302C2.16632 6.60745 3.62172 5.20802 5.41632 5.20802V5.20802Z" fill="#CAD4E3" />
	<path d="M11.9163 4.167C11.9163 3.5918 12.4018 3.125 13 3.125C13.5982 3.125 14.0837 3.5918 14.0837 4.167V8.333C14.0837 8.9082 13.5982 9.375 13 9.375C12.4018 9.375 11.9163 8.9082 11.9163 8.333V4.167Z" fill="#CAD4E3" />
	<path d="M7.58368 4.167C7.58368 3.5918 8.06814 3.125 8.66634 3.125C9.26455 3.125 9.75002 3.5918 9.75002 4.167V8.333C9.75002 8.9082 9.26455 9.375 8.66634 9.375C8.06814 9.375 7.58368 8.9082 7.58368 8.333V4.167Z" fill="#CAD4E3" />
	<path d="M16.25 4.167C16.25 3.5918 16.7355 3.125 17.3337 3.125C17.9319 3.125 18.4163 3.5918 18.4163 4.167V8.333C18.4163 8.9082 17.9319 9.375 17.3337 9.375C16.7355 9.375 16.25 8.9082 16.25 8.333V4.167Z" fill="#CAD4E3" />
	<path d="M3.25 12.5V10.417H22.75V12.5H3.25Z" fill="#CAD4E3" />
</svg>
