<svg width="26" height="26" viewBox="0 0 26 26" fill="none" xmlns="http://www.w3.org/2000/svg">
	<path d="M2.93359 3.6499C2.93359 2.40726 3.94095 1.3999 5.18359 1.3999H5.78708C7.02972 1.3999 8.03707 2.40726 8.03707 3.6499V4.25338C8.03707 5.49602 7.02972 6.50338 5.78707 6.50338H5.18359C3.94095 6.50338 2.93359 5.49602 2.93359 4.25338V3.6499Z" stroke="#3E4244" stroke-width="1.5" />
	<path d="M11.31 1.6899C11.31 1.11553 11.7756 0.649902 12.35 0.649902H22.8017C23.3761 0.649902 23.8417 1.11553 23.8417 1.6899C23.8417 2.26428 23.3761 2.7299 22.8017 2.7299H12.35C11.7756 2.7299 11.31 2.26428 11.31 1.6899Z" fill="#3E4244" />
	<path d="M11.31 6.21334C11.31 5.63896 11.7756 5.17334 12.35 5.17334H20.28C20.8544 5.17334 21.32 5.63896 21.32 6.21334C21.32 6.78771 20.8544 7.25334 20.28 7.25334H12.35C11.7756 7.25334 11.31 6.78771 11.31 6.21334Z" fill="#3E4244" />
	<path d="M2.93359 12.6982C2.93359 11.4556 3.94095 10.4482 5.18359 10.4482H5.78708C7.02972 10.4482 8.03707 11.4556 8.03707 12.6982V13.3017C8.03707 14.5444 7.02972 15.5517 5.78707 15.5517H5.18359C3.94095 15.5517 2.93359 14.5444 2.93359 13.3017V12.6982Z" stroke="#3E4244" stroke-width="1.5" />
	<path d="M11.31 12.7382C11.31 12.1639 11.7756 11.6982 12.35 11.6982H22.8017C23.3761 11.6982 23.8417 12.1639 23.8417 12.7382C23.8417 13.3126 23.3761 13.7782 22.8017 13.7782H12.35C11.7756 13.7782 11.31 13.3126 11.31 12.7382Z" fill="#3E4244" />
	<path d="M2.93359 21.7466C2.93359 20.5039 3.94095 19.4966 5.18359 19.4966H5.78708C7.02972 19.4966 8.03707 20.5039 8.03707 21.7466V22.3501C8.03707 23.5927 7.02972 24.6001 5.78707 24.6001H5.18359C3.94095 24.6001 2.93359 23.5927 2.93359 22.3501V21.7466Z" stroke="#3E4244" stroke-width="1.5" />
	<path d="M11.31 19.7866C11.31 19.2122 11.7756 18.7466 12.35 18.7466H22.8017C23.3761 18.7466 23.8417 19.2122 23.8417 19.7866C23.8417 20.361 23.3761 20.8266 22.8017 20.8266H12.35C11.7756 20.8266 11.31 20.361 11.31 19.7866Z" fill="#3E4244" />
	<path d="M11.31 24.31C11.31 23.7356 11.7756 23.27 12.35 23.27H20.28C20.8544 23.27 21.32 23.7356 21.32 24.31C21.32 24.8844 20.8544 25.35 20.28 25.35H12.35C11.7756 25.35 11.31 24.8844 11.31 24.31Z" fill="#3E4244" />
</svg>
