<svg width="689" height="900" viewBox="0 0 689 900" fill="none" xmlns="http://www.w3.org/2000/svg">
	<g opacity="0.2">
		<path d="M158.48 363.197C135.928 381.578 114.08 402.146 100.352 428.095C80.1641 466.245 80.4754 514.235 101.193 549.61C118.734 579.603 148.315 599.133 173.621 622.301C204.801 650.833 230.027 685.605 253.901 720.965C266.73 739.957 279.666 759.653 298.403 772.373C324.42 790.03 359.495 791.776 390.126 780.44C420.757 769.103 446.978 745.701 465.806 717.888C475.826 703.088 484.115 686.362 485.31 668.769C486.575 650.154 479.832 632.16 481.232 613.545C482.529 596.295 490.738 579.979 500.332 565.311C512.858 546.159 528.021 528.868 545.373 513.949C565.041 497.059 587.191 483.584 606.922 466.831C626.653 450.078 644.513 428.867 650.69 403.632C656.5 379.91 651.394 355.587 645.196 332.734C635.105 295.392 621.991 258.935 605.984 223.722C595.237 200.124 582.964 176.85 564.99 158.785C530.629 124.24 475.917 112.887 428.667 130.49C389.52 145.075 357.908 176.73 330.685 209.864C305.861 240.079 283.215 278.513 251.032 300.939C220.326 322.314 187.938 339.198 158.48 363.197Z" fill="white" />
		<path d="M158.48 363.197C135.928 381.578 114.08 402.146 100.352 428.095C80.1641 466.245 80.4754 514.235 101.193 549.61C118.734 579.603 148.315 599.133 173.621 622.301C204.801 650.833 230.027 685.605 253.901 720.965C266.73 739.957 279.666 759.653 298.403 772.373C324.42 790.03 359.495 791.776 390.126 780.44C420.757 769.103 446.978 745.701 465.806 717.888C475.826 703.088 484.115 686.362 485.31 668.769C486.575 650.154 479.832 632.16 481.232 613.545C482.529 596.295 490.738 579.979 500.332 565.311C512.858 546.159 528.021 528.868 545.373 513.949C565.041 497.059 587.191 483.584 606.922 466.831C626.653 450.078 644.513 428.867 650.69 403.632C656.5 379.91 651.394 355.587 645.196 332.734C635.105 295.392 621.991 258.935 605.984 223.722C595.237 200.124 582.964 176.85 564.99 158.785C530.629 124.24 475.917 112.887 428.667 130.49C389.52 145.075 357.908 176.73 330.685 209.864C305.861 240.079 283.215 278.513 251.032 300.939C220.326 322.314 187.938 339.198 158.48 363.197Z" fill="#4DD5DE" fill-opacity="0.08" />
	</g>
	<g opacity="0.2">
		<path d="M906.691 584.228C942.944 561.413 978.563 535.275 1003.28 499.818C1039.63 447.689 1047.79 377.503 1023.86 322.092C1003.61 275.116 963.892 241.271 931.07 202.875C890.629 155.587 860.008 100.249 831.466 44.2948C816.129 14.2394 800.761 -16.8626 775.664 -38.8119C740.815 -69.2815 689.874 -78.1244 643.078 -67.0524C596.283 -55.9804 553.767 -26.4849 521.26 10.7811C503.963 30.612 488.848 53.5672 483.944 79.0624C478.754 106.038 485.379 133.544 479.991 160.495C475 185.47 460.076 207.841 443.424 227.555C421.681 253.295 396.421 275.843 368.386 294.533C336.615 315.686 301.83 331.406 269.989 352.349C238.149 373.291 208.244 401.084 194.688 436.852C181.941 470.476 185.037 506.937 189.992 541.443C198.036 597.822 210.656 653.451 227.726 707.78C239.195 744.192 252.952 780.405 275.974 810.028C319.986 866.673 397.898 893.076 470.103 875.829C529.926 861.536 581.801 820.948 627.529 777.411C669.228 737.71 709.218 685.607 760.271 658.608C808.979 632.879 859.338 614.015 906.691 584.228Z" fill="white" />
		<path d="M906.691 584.228C942.944 561.413 978.563 535.275 1003.28 499.818C1039.63 447.689 1047.79 377.503 1023.86 322.092C1003.61 275.116 963.892 241.271 931.07 202.875C890.629 155.587 860.008 100.249 831.466 44.2948C816.129 14.2394 800.761 -16.8626 775.664 -38.8119C740.815 -69.2815 689.874 -78.1244 643.078 -67.0524C596.283 -55.9804 553.767 -26.4849 521.26 10.7811C503.963 30.612 488.848 53.5672 483.944 79.0624C478.754 106.038 485.379 133.544 479.991 160.495C475 185.47 460.076 207.841 443.424 227.555C421.681 253.295 396.421 275.843 368.386 294.533C336.615 315.686 301.83 331.406 269.989 352.349C238.149 373.291 208.244 401.084 194.688 436.852C181.941 470.476 185.037 506.937 189.992 541.443C198.036 597.822 210.656 653.451 227.726 707.78C239.195 744.192 252.952 780.405 275.974 810.028C319.986 866.673 397.898 893.076 470.103 875.829C529.926 861.536 581.801 820.948 627.529 777.411C669.228 737.71 709.218 685.607 760.271 658.608C808.979 632.879 859.338 614.015 906.691 584.228Z" fill="#4DD5DE" fill-opacity="0.08" />
	</g>
	<path d="M386 595.78V620H393L391.645 594L386 595.78Z" fill="#AAABB0" />
	<path d="M286 591.78V616H293L291.646 590L286 591.78Z" fill="#AAABB0" />
	<rect x="394" y="553" width="9" height="42" rx="4.5" fill="#AAABB0" />
	<rect x="283" y="544" width="9" height="52" rx="4.5" fill="#AAABB0" />
	<path d="M415 300.63C415 300.63 423.727 296.962 425.036 300.63C426.345 304.299 427 336 427 336H418.705L415 300.63Z" fill="#AAABB0" />
	<path d="M319 300.63C319 300.63 310.272 296.962 308.963 300.63C307.654 304.299 307 336 307 336H315.29L319 300.63Z" fill="#AAABB0" />
	<path d="M320.333 268.672L319 296H325V268L320.333 268.672Z" fill="#AAABB0" />
	<path d="M315 337L316.744 298.421C316.744 298.421 316.091 289.872 336.773 292.503C357.456 295.133 418 300.393 418 300.393V337H315Z" fill="#33323D" />
	<path d="M398 537.732L394.713 595.883C394.713 595.883 346.504 622.26 288 597.18L293.259 536L398 537.732Z" fill="#33323D" />
	<path d="M352 307.171L353.091 345H421L417.057 295L352 307.171Z" fill="#444053" />
	<rect x="296" y="513" width="63" height="80" fill="#3E4244" />
	<path d="M336.025 545.445C336.025 545.445 345.248 538.227 346.783 540.412C348.318 542.597 341.302 552.007 338.442 550.912C335.583 549.816 336.025 545.445 336.025 545.445Z" fill="#ECA0A0" />
	<g filter="url(#filter0_d_131_10192)">
		<rect x="172" y="334" width="417" height="208" rx="4" fill="white" />
		<rect x="172" y="334" width="417" height="208" rx="4" fill="#4E4CD6" fill-opacity="0.07" />
	</g>
	<path d="M315.447 266.523C315.447 266.523 312.191 236.097 315.447 232.407C318.703 228.717 373.407 193.721 423.988 234.793C423.988 234.793 428.761 235.015 427.895 245.876C427.384 252.75 427.419 259.654 427.999 266.523C427.999 266.523 319.14 274.346 315.447 266.523Z" fill="#33323D" />
	<path opacity="0.1" d="M315.447 266.523C315.447 266.523 312.191 236.097 315.447 232.407C318.703 228.717 373.407 193.721 423.988 234.793C423.988 234.793 428.761 235.015 427.895 245.876C427.384 252.75 427.419 259.654 427.999 266.523C427.999 266.523 319.14 274.346 315.447 266.523Z" fill="black" />
	<path d="M315.447 271.523C315.447 271.523 312.191 241.097 315.447 237.407C318.703 233.717 373.407 198.721 423.988 239.793C423.988 239.793 428.761 240.015 427.895 250.876C427.384 257.75 427.419 264.654 427.999 271.523C427.999 271.523 319.14 279.346 315.447 271.523Z" fill="#33323D" />
	<path d="M430.364 257C430.364 257 433.885 270.089 432.788 272.268C431.692 274.447 431.89 280.559 431.89 280.559C431.89 280.559 432.128 284.486 430.364 284.918C428.6 285.35 427.06 285.572 428.487 286.881C429.914 288.19 428.487 290.153 428.487 290.153C428.487 290.153 427.714 293.21 428.487 295.173C429.26 297.136 423.969 297.954 424.418 300.408C424.867 302.862 426.347 309.786 424.418 310.009C422.489 310.231 425.078 318.732 423.341 318.732C421.603 318.732 420.368 334 420.368 334C420.368 334 408.146 323.752 400 326.585C400 326.585 400.661 318.078 403.303 315.022C405.946 311.965 405.147 304.119 405.147 304.119L418.254 265.069L430.364 257Z" fill="#ECA0A0" />
	<path d="M365.453 436.615C362.684 439.703 359.697 423.213 359.697 423.213C359.697 423.213 351.812 434.172 346.696 426.868C343.153 421.807 345.947 407.471 347.975 399.148C348.883 395.448 349.65 392.934 349.65 392.934L361.162 391C361.162 391 361.2 393.527 361.456 396.595C361.801 400.741 362.549 405.885 364.142 407.116C366.949 409.25 368.228 433.501 365.453 436.615Z" fill="white" />
	<path d="M365.453 436.615C362.684 439.703 359.697 423.213 359.697 423.213C359.697 423.213 351.812 434.172 346.696 426.868C343.153 421.807 345.947 407.471 347.975 399.148C348.883 395.448 349.65 392.934 349.65 392.934L361.162 391C361.162 391 361.2 393.527 361.456 396.595C361.801 400.741 362.549 405.885 364.142 407.116C366.949 409.25 368.228 433.501 365.453 436.615Z" fill="#F2DEB7" fill-opacity="0.25" />
	<path opacity="0.1" d="M358.796 242.063C358.796 242.063 338.313 241.848 333.307 252.673C328.3 263.498 328.078 267.189 326.117 268.917C324.156 270.646 347.463 279.749 347.463 279.749L348.555 317C348.555 317 353.13 312.393 360.535 314.479C367.94 316.565 377.312 314.479 377.312 314.479C377.312 314.479 376.874 313.693 382.979 314.479C389.083 315.265 408.468 305.09 408.468 305.09C408.468 305.09 408.789 288.794 408.357 285.324C407.926 281.854 422.187 256.358 422.187 256.358C422.187 256.358 433.298 245.747 421.756 242.063C421.756 242.063 417.671 235.942 407.161 236C396.652 236.059 358.796 242.063 358.796 242.063Z" fill="black" />
	<path d="M359.761 241.063C359.761 241.063 339.3 240.848 334.299 251.673C329.298 262.498 329.076 266.189 327.117 267.917C325.158 269.646 348.44 278.749 348.44 278.749L349.53 316C349.53 316 354.101 311.393 361.498 313.479C368.895 315.565 378.257 313.479 378.257 313.479C378.257 313.479 377.82 312.693 383.918 313.479C390.016 314.265 409.38 304.09 409.38 304.09C409.38 304.09 416.993 291.744 416.562 288.281C416.131 284.818 431.794 258.606 431.794 258.606C431.794 258.606 434.19 244.747 422.653 241.063C422.653 241.063 418.573 234.942 408.074 235C397.576 235.059 359.761 241.063 359.761 241.063Z" fill="#ECA0A0" />
	<path opacity="0.1" d="M361 396.468C356.763 395.114 350.115 398.101 348 399C348.876 395.367 349.616 392.899 349.616 392.899L360.716 391C360.716 391 360.735 393.481 361 396.468Z" fill="black" />
	<path d="M333.885 268H327.58C327.58 268 326.275 281.298 327.58 285.221C328.886 289.144 329.538 288.575 329.101 291.478C328.664 294.38 332.149 298.826 332.149 298.826C332.149 298.826 332.58 309.784 334.76 313.863C336.94 317.943 332.365 336.236 332.365 336.236C333.612 339.394 335.459 342.28 337.802 344.735C341.502 348.436 343.461 362.165 342.371 367.396C341.281 372.626 345.419 374.587 345.419 374.587C345.419 374.587 347.161 399 347.814 399C348.467 399 361.084 392.462 365 398.124L361.952 375.679L362.174 332.313C362.174 332.313 358.036 326.861 360.216 322.069C362.396 317.276 358.473 305.939 358.473 305.939L352.814 280.664L333.885 268Z" fill="#ECA0A0" />
	<path d="M293.608 611.872C293.608 611.872 284.471 609.91 284.255 611.872C284.04 613.833 273.375 633.886 286.651 639.771C299.927 645.655 335.382 658.293 393.042 641.948C393.042 641.948 396.736 643.255 395.868 635.194C395 627.132 395 618.194 395 618.194C395 618.194 386.293 615.795 379.766 616.671C373.239 617.547 316.453 629.094 293.608 611.872Z" fill="#33323D" />
	<path opacity="0.1" d="M293.608 611.872C293.608 611.872 284.471 609.91 284.255 611.872C284.04 613.833 273.375 633.886 286.651 639.771C299.927 645.655 335.382 658.293 393.042 641.948C393.042 641.948 396.736 643.255 395.868 635.194C395 627.132 395 618.194 395 618.194C395 618.194 386.293 615.795 379.766 616.671C373.239 617.547 316.453 629.094 293.608 611.872Z" fill="black" />
	<path d="M293.608 608.872C293.608 608.872 284.471 606.91 284.255 608.872C284.04 610.833 273.375 630.886 286.651 636.771C299.927 642.655 335.382 655.293 393.042 638.948C393.042 638.948 396.736 640.255 395.868 632.194C395 624.132 395 615.194 395 615.194C395 615.194 386.293 612.795 379.766 613.671C373.239 614.547 316.453 626.094 293.608 608.872Z" fill="#33323D" />
	<path d="M347.049 276.298C346.488 279.47 345.216 282.519 345.02 285.73C344.824 288.942 346.071 292.594 349.053 293.853C349.885 294.1 350.691 294.426 351.461 294.826C352.61 295.598 353.08 297.051 353.321 298.414C353.642 300.173 353.718 301.967 353.549 303.746C353.386 305.537 353.001 307.464 353.889 309.027C355.449 311.797 359.514 311.389 362.608 310.61L361.544 318.804C361.459 319.453 361.407 320.186 361.883 320.627C362.338 320.945 362.903 321.067 363.449 320.964C366.138 320.796 368.905 320.426 371.209 319.018C373.513 317.61 375.229 314.989 374.792 312.349C374.283 309.287 371.098 306.854 371.529 303.779C371.862 301.398 374.204 299.886 375.745 298.057C378.531 294.709 378.681 289.623 376.495 285.834C374.309 282.046 370.086 279.697 365.74 279.269C363.332 279.029 360.826 279.321 358.561 278.49C356.964 277.908 355.733 276.617 355.233 275" fill="#444053" />
	<path d="M272 565.902L274.255 560.805C274.255 560.805 286.429 549.035 289.227 548.21C292.025 547.385 303.443 543.791 305.168 543.791C306.893 543.791 338.343 542 338.343 542L342 550.947L302.532 559.94L289.227 570L272 565.902Z" fill="#ECA0A0" />
	<path d="M368 432.463L365.908 448.514L365.101 454.692L355.703 456C355.703 456 354.687 453.829 353.25 450.495C348.889 440.374 340.678 419.504 345.439 415.902C351.768 411.103 353.309 427.017 353.309 427.017L360.524 423.525L368 432.463Z" fill="white" />
	<path d="M368 432.463L365.908 448.514L365.101 454.692L355.703 456C355.703 456 354.687 453.829 353.25 450.495C348.889 440.374 340.678 419.504 345.439 415.902C351.768 411.103 353.309 427.017 353.309 427.017L360.524 423.525L368 432.463Z" fill="#F2DEB7" fill-opacity="0.25" />
	<rect x="319" y="462" width="47" height="71" fill="white" />
	<rect opacity="0.5" x="319" y="462" width="47" height="71" fill="#4B40D1" />
	<path d="M340.156 459.09L386.864 465.993L376.432 536.529L329.723 529.626L340.156 459.09Z" fill="white" />
	<path d="M344.552 465.817L368.594 469.37L363.225 505.674L339.183 502.12L344.552 465.817Z" fill="#4B40D1" />
	<path d="M336.605 512.452L365.733 516.756L364.567 524.64L335.439 520.336L336.605 512.452Z" fill="#4B40D1" />
	<path opacity="0.1" d="M378 282C392.912 282 405 269.912 405 255C405 240.088 392.912 228 378 228C363.088 228 351 240.088 351 255C351 269.912 363.088 282 378 282Z" fill="black" />
	<path d="M378 281C392.912 281 405 268.912 405 254C405 239.088 392.912 227 378 227C363.088 227 351 239.088 351 254C351 268.912 363.088 281 378 281Z" fill="white" />
	<path d="M378 281C392.912 281 405 268.912 405 254C405 239.088 392.912 227 378 227C363.088 227 351 239.088 351 254C351 268.912 363.088 281 378 281Z" fill="#F2DEB7" fill-opacity="0.25" />
	<path d="M355.665 274.753C355.478 274.045 355.546 273.295 355.856 272.632C356.904 270.459 359.887 270.269 362.304 270.38C367.988 270.643 374.225 270.676 378.671 267.097C380.515 265.627 382.577 261.931 385.257 262.633C387.641 263.257 388.636 266.48 391.119 267.196C392.917 267.715 394.781 266.887 396.612 266.539C399.246 266.021 401.947 266.454 404.621 266.474C407.295 266.493 410.199 265.988 412.023 264.038C414.487 261.412 414.085 257.309 413.868 253.711C413.597 249.063 413.914 244.401 414.809 239.832C415.705 235.289 417.082 230.207 414.566 226.314C412.168 222.605 407.202 221.587 403.81 218.744C400.636 216.118 398.956 211.91 395.604 209.474C391.382 206.408 385.646 206.848 380.456 207.38L369.194 208.575C366.289 208.883 363.266 209.231 360.875 210.958C356.561 214.07 355.968 220.536 351.885 223.944C350.067 225.454 347.742 226.202 345.668 227.332C343.593 228.461 341.591 230.247 341.354 232.584C341.156 234.553 342.223 236.372 342.743 238.269C343.975 242.799 342.052 247.461 340.82 252.024C339.589 256.586 339.352 262.128 342.928 265.154C343.652 265.771 344.495 266.244 345.2 266.887C347.617 269.087 347.946 272.796 347.387 276" fill="#444053" />
	<path d="M380.5 288C380.776 288 381 287.105 381 286C381 284.895 380.776 284 380.5 284C380.224 284 380 284.895 380 286C380 287.105 380.224 288 380.5 288Z" fill="#444053" />
	<path d="M380.5 296C380.776 296 381 295.105 381 294C381 292.895 380.776 292 380.5 292C380.224 292 380 292.895 380 294C380 295.105 380.224 296 380.5 296Z" fill="#444053" />
	<path d="M366.53 437.554C367.248 436.737 367.725 434.638 368 431.869L360 422C360 422 363.389 441.133 366.53 437.554Z" fill="white" />
	<path d="M366.53 437.554C367.248 436.737 367.725 434.638 368 431.869L360 422C360 422 363.389 441.133 366.53 437.554Z" fill="#F2DEB7" fill-opacity="0.25" />
	<path opacity="0.1" d="M375.076 597.336C375.076 597.336 362.268 616.943 322.251 614.842C284.553 612.897 266.152 594.529 267.03 588.045C267.907 581.562 264.627 565.78 272.701 561.242C277.383 558.616 283.545 560.172 287.893 561.948C290.959 563.181 294.468 562.558 296.91 560.347C300.884 556.8 308.297 552.806 319.999 555.951C321.504 556.348 323.093 556.319 324.582 555.866C329.454 554.395 341.051 551.84 349.466 557.513C352.181 559.366 355.732 559.5 358.581 557.857L358.699 557.786C362.628 555.406 380.963 577.885 380.963 577.885C380.963 577.885 381.84 595.177 375.076 597.336Z" fill="black" />
	<path d="M375.076 598.336C375.076 598.336 362.268 617.943 322.251 615.842C284.553 613.897 266.152 595.529 267.03 589.045C267.907 582.562 264.627 566.78 272.701 562.242C277.383 559.616 283.545 561.172 287.893 562.948C290.959 564.181 294.468 563.558 296.91 561.347C300.884 557.8 308.297 553.806 319.999 556.951C321.504 557.348 323.093 557.319 324.582 556.866C329.454 555.395 341.051 552.84 349.466 558.513C352.181 560.366 355.732 560.5 358.581 558.857L358.699 558.786C362.628 556.406 380.963 578.885 380.963 578.885C380.963 578.885 381.84 596.177 375.076 598.336Z" fill="#ECA0A0" />
	<path opacity="0.1" d="M322 605C336.359 605 348 593.359 348 579C348 564.641 336.359 553 322 553C307.641 553 296 564.641 296 579C296 593.359 307.641 605 322 605Z" fill="black" />
	<path d="M322 606C336.359 606 348 594.359 348 580C348 565.641 336.359 554 322 554C307.641 554 296 565.641 296 580C296 594.359 307.641 606 322 606Z" fill="white" />
	<path d="M322 606C336.359 606 348 594.359 348 580C348 565.641 336.359 554 322 554C307.641 554 296 565.641 296 580C296 594.359 307.641 606 322 606Z" fill="#F2DEB7" fill-opacity="0.25" />
	<path d="M314.679 557.616C311.921 558.354 309.203 559.764 307.857 562.081C307.045 563.478 306.762 565.155 305.587 566.317C303.925 567.969 301.121 568.001 298.871 568.928C296.621 569.855 295.137 573.119 297.34 574.15C295.044 574.268 293.342 576.363 293.059 578.445C292.775 580.527 293.573 582.603 294.345 584.588C296.865 591.011 299.577 597.714 305.132 602.283C314.184 609.738 327.827 609.392 339.987 608.602C340.98 608.635 341.965 608.41 342.843 607.949C344.163 607.088 344.328 605.436 344.546 603.987C345.463 597.799 348.854 592.179 351.07 586.272C353.287 580.364 354.198 573.426 350.463 568.197C344.968 560.443 323.928 555.136 314.679 557.616Z" fill="#3E4244" />
	<path opacity="0.1" d="M365 448.367L364.235 454.667L355.325 456C355.325 456 354.362 453.787 353 450.387L364.857 448L365 448.367Z" fill="black" />
	<path d="M374.649 585L379.989 578.688L378.92 543.875C379.446 541.363 379.803 538.818 379.989 536.257C380.2 532.556 377.319 524.292 377.319 524.292C377.766 522.637 378.373 521.032 379.131 519.5C380.412 516.889 377.325 511.014 377.325 511.014C377.325 511.014 372.728 495.785 374.649 488.167C376.57 480.549 374.181 476.201 374.181 476.201C374.181 476.201 372.305 467.715 372.516 464.236C372.728 460.757 368.245 457.486 368.245 457.486L364.832 449L351.174 451.611V480.986C351.174 480.986 352.025 509.056 351.174 514.5C350.322 519.944 352.877 525.16 352.877 525.16C352.877 525.16 351.385 533.209 352.666 536.257C353.946 539.305 356.508 546.701 356.508 546.701C356.032 549.345 356.179 552.065 356.937 554.639C358.218 558.451 356.937 560.625 356.937 560.625L374.649 585Z" fill="#ECA0A0" />
	<g opacity="0.1">
		<path d="M414.421 238.406C413.682 242.169 413.351 245.998 413.432 249.829C413.488 246.643 413.828 243.469 414.447 240.341C415.024 237.486 415.758 234.414 415.6 231.566C415.359 233.868 414.965 236.153 414.421 238.406Z" fill="black" />
		<path d="M345.176 264.943C344.475 264.3 343.636 263.85 342.916 263.239C341.002 261.639 340.197 259.318 340.039 256.811C339.849 260.025 340.518 263.136 342.916 265.168C343.636 265.779 344.475 266.241 345.176 266.871C346.641 268.294 347.491 270.217 347.548 272.239C347.738 269.539 347.181 266.73 345.176 264.943Z" fill="black" />
		<path d="M343.086 240.939C343.201 239.581 343.081 238.214 342.732 236.895C342.352 235.519 341.671 234.176 341.422 232.794C341.422 232.941 341.369 233.096 341.35 233.256C341.16 235.185 342.221 236.966 342.732 238.824C342.92 239.516 343.039 240.224 343.086 240.939Z" fill="black" />
		<path d="M411.65 262.108C409.835 264.036 406.946 264.512 404.286 264.493C401.626 264.474 398.933 264.049 396.319 264.564C394.497 264.924 392.643 265.727 390.855 265.206C388.385 264.506 387.395 261.349 385.03 260.739C382.337 260.044 380.287 263.664 378.478 265.104C374.056 268.575 367.851 268.543 362.197 268.318C359.793 268.209 356.825 268.395 355.79 270.529C355.474 271.176 355.406 271.914 355.6 272.606L347.594 273.84C347.563 274.487 347.491 275.131 347.377 275.769L355.6 274.483C355.406 273.791 355.474 273.054 355.79 272.406C356.825 270.272 359.793 270.086 362.197 270.195C367.851 270.452 374.056 270.484 378.478 266.981C380.313 265.541 382.364 261.921 385.03 262.616C387.395 263.22 388.385 266.383 390.855 267.084C392.643 267.585 394.497 266.781 396.319 266.441C398.939 265.926 401.626 266.351 404.286 266.37C406.946 266.389 409.835 265.894 411.65 263.985C413.465 262.076 413.727 259.228 413.615 256.451C413.537 258.604 413.085 260.597 411.65 262.108Z" fill="black" />
	</g>
	<g opacity="0.1">
		<path d="M350.688 292.221C349.926 291.811 349.126 291.479 348.3 291.23C346.896 290.579 345.781 289.415 345.175 287.968C345.66 290.246 346.89 292.32 348.947 293.211C349.773 293.461 350.573 293.792 351.335 294.202C351.822 294.553 352.216 295.023 352.48 295.569C352.221 294.275 351.749 292.954 350.688 292.221Z" fill="black" />
		<path d="M361.74 308.288C358.757 309.06 354.861 309.463 353.224 306.881C353.275 307.503 353.451 308.108 353.742 308.658C355.14 311.2 358.556 311.114 361.461 310.487L361.74 308.288Z" fill="black" />
		<path d="M373.827 310.097C374.241 312.778 372.532 315.453 370.268 316.859C368.003 318.266 365.24 318.656 362.574 318.841C362.15 318.897 361.72 318.847 361.319 318.695C361.071 319.266 361.177 319.932 361.589 320.393C362.001 320.854 362.642 321.022 363.221 320.822C365.887 320.65 368.631 320.274 370.915 318.841C373.199 317.408 374.907 314.74 374.467 312.052C374.343 311.373 374.127 310.716 373.827 310.097V310.097Z" fill="black" />
		<path d="M376.7 286.192C377.5 289.445 376.784 292.894 374.758 295.536C373.231 297.425 370.908 298.937 370.578 301.36C370.468 302.475 370.694 303.597 371.225 304.576C371.167 304.167 371.167 303.751 371.225 303.342C371.555 300.918 373.878 299.379 375.405 297.517C377.916 294.42 378.265 289.857 376.7 286.192Z" fill="black" />
	</g>
	<g opacity="0.1">
		<path d="M299.444 569.686C301.661 568.772 304.433 568.739 306.083 567.092C307.244 565.937 307.524 564.27 308.326 562.889C309.63 560.579 312.337 559.185 315.063 558.452C324.194 555.987 345.011 561.254 350.437 568.889C352.027 571.198 352.894 573.925 352.928 576.724C353.137 573.493 352.263 570.283 350.444 567.598C345.017 559.963 324.22 554.696 315.07 557.161C312.344 557.894 309.657 559.289 308.333 561.598C307.53 562.979 307.25 564.646 306.089 565.801C304.439 567.442 301.667 567.475 299.45 568.396C297.761 569.09 296.509 571.139 296.965 572.515C297.333 571.256 298.24 570.221 299.444 569.686Z" fill="black" />
		<path d="M293.704 579.111C293.978 577.036 295.661 574.96 297.937 574.843C297.453 574.643 297.086 574.235 296.939 573.734C295.175 574.386 293.919 575.957 293.678 577.814C293.616 578.342 293.616 578.875 293.678 579.403C293.704 579.306 293.704 579.209 293.704 579.111Z" fill="black" />
	</g>
	<rect x="372" y="344" width="60" height="77" fill="white" />
	<rect opacity="0.5" x="372" y="344" width="60" height="77" fill="#4B40D1" />
	<path d="M395.469 357.758L453.981 347.697L467.106 423.97L408.594 434.031L395.469 357.758Z" fill="white" />
	<path d="M409.65 409.753L423.398 407.39L426.481 425.309L412.734 427.673L409.65 409.753Z" fill="#4B40D1" />
	<path d="M428.673 406.479L442.421 404.115L445.504 422.035L431.757 424.398L428.673 406.479Z" fill="#4B40D1" />
	<path d="M407.653 386.137L455.863 377.862L458.956 395.862L410.745 404.138L407.653 386.137Z" fill="#4B40D1" />
	<path d="M403.634 364.653L451.845 356.378L452.535 360.394L404.324 368.669L403.634 364.653Z" fill="#4B40D1" />
	<path d="M405.215 372.04L453.426 363.765L454.116 367.781L405.905 376.056L405.215 372.04Z" fill="#4B40D1" />
	<path d="M405.052 322C405.052 322 378.365 349.86 391.763 356.938C405.161 364.016 413.882 333.39 413.882 333.39L416 326.425L405.052 322Z" fill="white" />
	<path d="M405.052 322C405.052 322 378.365 349.86 391.763 356.938C405.161 364.016 413.882 333.39 413.882 333.39L416 326.425L405.052 322Z" fill="#F2DEB7" fill-opacity="0.25" />
	<path opacity="0.1" d="M403.354 319.992L400 327.539C400 327.539 416.542 329.905 420 335L417.95 321.684L415.517 316L403.354 319.992Z" fill="black" />
	<path d="M403.354 318.992L400 326.539C400 326.539 416.542 328.905 420 334L417.95 320.684L415.517 315L403.354 318.992Z" fill="white" />
	<path d="M403.354 318.992L400 326.539C400 326.539 416.542 328.905 420 334L417.95 320.684L415.517 315L403.354 318.992Z" fill="#FF808B" fill-opacity="0.08" />
	<path d="M504.327 456.14L504 456.52L504.452 456.86L504.94 456.79L505 456.22L504.327 456.14Z" fill="#464A5F" />
	<path opacity="0.1" d="M504.327 456.14L504 456.52L504.452 456.86L504.94 456.79L505 456.22L504.327 456.14Z" fill="black" />
	<path d="M505 456.66L504.44 457L504 456.491L504.27 456.075L504.52 456L505 456.66Z" fill="#9C9CA1" />
	<path opacity="0.1" d="M505 456.66L504.44 457L504 456.491L504.27 456.075L504.52 456L505 456.66Z" fill="black" />
	<path d="M568 410.99L541.307 372.379C540.829 371.683 540.095 371.206 539.266 371.053C538.436 370.9 537.58 371.083 536.886 371.563L477.384 412.466C475.935 413.462 475.564 415.446 476.556 416.899L503.177 456L568 410.99Z" fill="#9C9CA1" />
	<path opacity="0.1" d="M568 410.99L541.307 372.379C540.829 371.683 540.095 371.206 539.266 371.053C538.436 370.9 537.58 371.083 536.886 371.563L477.384 412.466C475.935 413.462 475.564 415.446 476.556 416.899L503.177 456L568 410.99Z" fill="black" />
	<path d="M569 410.969L542.307 372.379C541.829 371.683 541.093 371.206 540.263 371.053C539.432 370.9 538.575 371.083 537.88 371.563L478.386 412.47C476.938 413.466 476.565 415.446 477.551 416.901L504.172 456L569 410.969Z" fill="#9C9CA1" />
	<path d="M591.487 418.191L569.451 411L505 456.39L527.387 463.831C528.403 464.167 529.515 463.996 530.388 463.371L591.669 419.409C591.904 419.275 592.033 419.007 591.993 418.736C591.952 418.465 591.751 418.248 591.487 418.191Z" fill="#464A5F" />
	<path opacity="0.1" d="M591.487 418.191L569.451 411L505 456.39L527.387 463.831C528.403 464.167 529.515 463.996 530.388 463.371L591.669 419.409C591.904 419.275 592.033 419.007 591.993 418.736C591.952 418.465 591.751 418.248 591.487 418.191Z" fill="black" />
	<path d="M591.503 418.199L569.463 411L505 456.398L527.391 463.827C528.406 464.168 529.52 463.999 530.392 463.372L591.685 419.404C591.911 419.266 592.032 419.004 591.993 418.739C591.953 418.475 591.759 418.261 591.503 418.199Z" fill="#464A5F" />
	<g opacity="0.1">
		<path d="M558.448 409.688L556.816 407.346C556.612 407.063 556.223 406.992 555.932 407.183L553.508 408.803C553.225 409.003 553.148 409.389 553.332 409.681L554.834 411.991C555.029 412.278 555.415 412.361 555.711 412.18L558.266 410.573C558.554 410.375 558.635 409.984 558.448 409.688Z" fill="black" />
		<path d="M554.093 412.707L552.455 410.371C552.251 410.089 551.861 410.017 551.571 410.208L549.153 411.841C548.868 412.039 548.788 412.425 548.971 412.72L550.472 415.029C550.665 415.319 551.052 415.405 551.35 415.225L553.911 413.618C554.057 413.522 554.158 413.372 554.193 413.2C554.227 413.029 554.191 412.851 554.093 412.707Z" fill="black" />
		<path d="M549.516 415.875L547.878 413.539C547.675 413.257 547.285 413.186 546.994 413.377L544.57 415.01C544.284 415.21 544.206 415.6 544.394 415.895L545.896 418.204C546.091 418.492 546.478 418.575 546.773 418.393L549.328 416.786C549.475 416.692 549.578 416.542 549.614 416.37C549.649 416.199 549.614 416.02 549.516 415.875Z" fill="black" />
		<path d="M544.882 419.089L543.244 416.747C543.041 416.469 542.656 416.397 542.366 416.584L539.942 418.224C539.659 418.423 539.582 418.809 539.766 419.102L541.268 421.412C541.461 421.698 541.843 421.783 542.139 421.607L544.7 419.993C544.844 419.898 544.945 419.749 544.979 419.579C545.013 419.409 544.978 419.233 544.882 419.089Z" fill="black" />
		<path d="M540.254 422.297L538.616 419.961C538.412 419.679 538.023 419.607 537.732 419.798L535.314 421.431C535.029 421.629 534.949 422.015 535.132 422.31L536.634 424.619C536.827 424.909 537.214 424.995 537.511 424.814L540.072 423.201C540.216 423.105 540.317 422.956 540.351 422.787C540.385 422.617 540.35 422.441 540.254 422.297Z" fill="black" />
		<path d="M535.827 425.797L533.793 422.895C533.749 422.83 533.682 422.785 533.605 422.77C533.528 422.756 533.448 422.772 533.383 422.817L530.406 424.827C530.34 424.87 530.294 424.937 530.278 425.015C530.262 425.092 530.278 425.172 530.322 425.237L532.187 428.106C532.276 428.244 532.459 428.284 532.597 428.198L535.743 426.246C535.819 426.202 535.873 426.127 535.889 426.041C535.905 425.954 535.883 425.865 535.827 425.797Z" fill="black" />
		<path d="M531.2 429.004L529.152 426.103C529.107 426.037 529.038 425.992 528.96 425.977C528.882 425.963 528.802 425.98 528.736 426.025L525.759 428.035C525.626 428.128 525.592 428.31 525.681 428.445L527.547 431.314C527.587 431.383 527.654 431.432 527.731 431.449C527.809 431.466 527.891 431.45 527.956 431.405L531.096 429.453C531.177 429.415 531.236 429.342 531.257 429.254C531.277 429.166 531.256 429.074 531.2 429.004Z" fill="black" />
		<path d="M527.098 431.847L525.064 428.972C524.969 428.841 524.787 428.81 524.654 428.9L521.677 430.904C521.541 430.997 521.504 431.182 521.593 431.32L523.458 434.19C523.549 434.324 523.728 434.364 523.868 434.281L527.014 432.329C527.101 432.287 527.163 432.206 527.18 432.11C527.197 432.014 527.166 431.916 527.098 431.847Z" fill="black" />
		<path d="M522.509 435.022L520.474 432.121C520.38 431.99 520.198 431.959 520.065 432.049L517.088 434.053C517.021 434.097 516.975 434.165 516.959 434.244C516.943 434.322 516.959 434.403 517.003 434.469L518.869 437.339C518.96 437.473 519.139 437.513 519.278 437.43L522.424 435.478C522.501 435.433 522.555 435.357 522.571 435.269C522.587 435.182 522.565 435.092 522.509 435.022Z" fill="black" />
		<path d="M518.063 438.08L516.028 435.179C515.985 435.113 515.917 435.068 515.84 435.054C515.763 435.039 515.683 435.056 515.619 435.1L512.642 437.111C512.576 437.153 512.53 437.221 512.514 437.298C512.498 437.375 512.514 437.455 512.557 437.521L514.423 440.39C514.512 440.527 514.694 440.568 514.832 440.481L517.978 438.529C518.055 438.486 518.108 438.411 518.125 438.324C518.141 438.238 518.118 438.149 518.063 438.08Z" fill="black" />
		<path d="M513.617 441.19L511.602 438.282C511.507 438.151 511.326 438.12 511.193 438.21L508.216 440.214C508.149 440.258 508.103 440.327 508.087 440.405C508.071 440.483 508.087 440.564 508.131 440.631L509.997 443.5C510.087 443.634 510.267 443.674 510.406 443.591L513.552 441.639C513.625 441.592 513.675 441.516 513.687 441.429C513.7 441.343 513.674 441.256 513.617 441.19Z" fill="black" />
		<path d="M509.171 444.267L507.137 441.366C507.093 441.301 507.025 441.256 506.948 441.241C506.871 441.226 506.791 441.243 506.727 441.288L503.75 443.285C503.684 443.328 503.638 443.395 503.622 443.472C503.606 443.549 503.622 443.63 503.666 443.695L505.531 446.564C505.62 446.701 505.802 446.742 505.941 446.655L509.087 444.703C509.159 444.66 509.209 444.587 509.225 444.504C509.242 444.421 509.222 444.335 509.171 444.267Z" fill="black" />
		<path d="M555.523 405.453L553.885 403.11C553.681 402.828 553.291 402.756 553.001 402.948L550.602 404.587C550.317 404.785 550.237 405.171 550.42 405.466L551.922 407.775C552.117 408.063 552.503 408.146 552.799 407.964L555.36 406.357C555.654 406.152 555.727 405.747 555.523 405.453Z" fill="black" />
		<path d="M549.12 396.194L547.482 393.839C547.279 393.561 546.894 393.49 546.605 393.677L544.18 395.31C543.895 395.507 543.815 395.893 543.998 396.188L545.5 398.498C545.693 398.787 546.079 398.873 546.377 398.693L548.938 397.086C549.231 396.888 549.311 396.492 549.12 396.194Z" fill="black" />
		<path d="M551.161 408.471L549.523 406.136C549.32 405.857 548.935 405.786 548.646 405.973L546.221 407.606C545.938 407.805 545.861 408.191 546.046 408.484L547.541 410.794C547.734 411.084 548.12 411.17 548.418 410.989L550.979 409.382C551.125 409.287 551.227 409.136 551.261 408.965C551.295 408.794 551.259 408.616 551.161 408.471Z" fill="black" />
		<path d="M546.585 411.64L544.947 409.304C544.743 409.022 544.354 408.95 544.063 409.141L541.645 410.755C541.356 410.953 541.276 411.344 541.463 411.64L542.965 413.949C543.16 414.237 543.546 414.32 543.842 414.138L546.403 412.531C546.696 412.333 546.776 411.937 546.585 411.64Z" fill="black" />
		<path d="M541.95 414.854L540.319 412.512C540.115 412.229 539.726 412.158 539.435 412.349L537.01 414.008C536.728 414.207 536.651 414.593 536.835 414.886L538.336 417.196C538.532 417.483 538.918 417.566 539.214 417.385L541.768 415.778C541.918 415.682 542.023 415.529 542.057 415.355C542.091 415.18 542.053 414.999 541.95 414.854Z" fill="black" />
		<path d="M544.863 399.363L543.225 397.027C543.021 396.749 542.636 396.677 542.347 396.865L539.923 398.498C539.638 398.695 539.558 399.081 539.741 399.376L541.242 401.686C541.435 401.975 541.822 402.061 542.12 401.881L544.681 400.274C544.827 400.178 544.928 400.028 544.963 399.857C544.997 399.685 544.961 399.507 544.863 399.363Z" fill="black" />
		<path d="M540.287 402.538L538.649 400.196C538.445 399.913 538.055 399.842 537.765 400.033L535.347 401.646C535.062 401.844 534.982 402.23 535.165 402.525L536.666 404.834C536.861 405.122 537.248 405.205 537.544 405.023L540.105 403.416C540.389 403.219 540.469 402.832 540.287 402.538Z" fill="black" />
		<path d="M535.652 405.745L534.014 403.41C533.813 403.129 533.427 403.055 533.137 403.24L530.712 404.899C530.429 405.099 530.352 405.485 530.537 405.778L532.038 408.087C532.231 408.377 532.618 408.463 532.916 408.283L535.47 406.669C535.62 406.574 535.724 406.421 535.759 406.246C535.793 406.072 535.754 405.891 535.652 405.745Z" fill="black" />
		<path d="M537.323 418.061L535.685 415.726C535.483 415.445 535.098 415.371 534.807 415.556L532.402 417.196C532.119 417.395 532.042 417.781 532.227 418.074L533.702 420.384C533.895 420.67 534.277 420.755 534.573 420.579L537.134 418.966C537.279 418.871 537.381 418.722 537.417 418.553C537.452 418.383 537.418 418.206 537.323 418.061Z" fill="black" />
		<path d="M532.694 421.269L531.056 418.933C530.853 418.651 530.463 418.579 530.172 418.77L527.754 420.403C527.47 420.601 527.39 420.987 527.572 421.282L529.074 423.591C529.267 423.881 529.654 423.967 529.951 423.786L532.512 422.179C532.659 422.084 532.76 421.934 532.795 421.762C532.829 421.591 532.793 421.413 532.694 421.269Z" fill="black" />
		<path d="M528.268 424.769L526.234 421.867C526.19 421.802 526.122 421.757 526.045 421.742C525.968 421.728 525.889 421.745 525.824 421.789L522.847 423.799C522.781 423.842 522.735 423.91 522.719 423.987C522.703 424.064 522.719 424.144 522.763 424.209L524.628 427.079C524.67 427.146 524.736 427.194 524.814 427.211C524.891 427.228 524.971 427.213 525.038 427.17L528.184 425.218C528.26 425.174 528.313 425.099 528.33 425.013C528.346 424.926 528.323 424.837 528.268 424.769Z" fill="black" />
		<path d="M524.167 427.612L522.132 424.704C522.037 424.573 521.856 424.542 521.723 424.632L518.752 426.636C518.616 426.729 518.579 426.914 518.668 427.053L520.533 429.922C520.624 430.056 520.804 430.096 520.943 430.013L524.089 428.061C524.168 428.02 524.223 427.944 524.239 427.856C524.254 427.768 524.227 427.678 524.167 427.612Z" fill="black" />
		<path d="M519.577 430.787L517.543 427.885C517.448 427.755 517.267 427.723 517.133 427.814L514.156 429.818C514.09 429.86 514.044 429.928 514.028 430.005C514.012 430.082 514.028 430.162 514.072 430.227L515.937 433.103C516.028 433.237 516.208 433.277 516.347 433.194L519.493 431.242C519.57 431.198 519.623 431.122 519.639 431.034C519.656 430.947 519.633 430.856 519.577 430.787Z" fill="black" />
		<path d="M515.132 433.871L513.097 430.969C513.054 430.904 512.986 430.859 512.909 430.844C512.832 430.83 512.752 430.846 512.688 430.891L509.711 432.875C509.644 432.918 509.598 432.985 509.582 433.063C509.566 433.14 509.582 433.22 509.626 433.285L511.492 436.154C511.58 436.292 511.763 436.332 511.901 436.246L515.047 434.294C515.116 434.25 515.163 434.18 515.179 434.1C515.195 434.02 515.178 433.938 515.132 433.871Z" fill="black" />
		<path d="M543.537 407.235L541.899 404.899C541.695 404.621 541.31 404.55 541.021 404.737L538.597 406.376C538.314 406.576 538.237 406.962 538.421 407.255L539.923 409.564C540.117 409.848 540.499 409.931 540.794 409.753L543.355 408.146C543.501 408.05 543.602 407.9 543.637 407.729C543.671 407.557 543.635 407.38 543.537 407.235Z" fill="black" />
		<path d="M538.902 410.449L537.264 408.107C537.06 407.825 536.671 407.753 536.38 407.944L533.962 409.584C533.677 409.781 533.597 410.168 533.78 410.462L535.282 412.772C535.475 413.061 535.861 413.147 536.159 412.967L538.72 411.353C538.864 411.258 538.965 411.109 538.999 410.939C539.033 410.769 538.998 410.593 538.902 410.449Z" fill="black" />
		<path d="M534.281 413.657L532.643 411.321C532.439 411.039 532.049 410.967 531.759 411.158L529.334 412.791C529.051 412.991 528.974 413.377 529.159 413.67L530.66 415.979C530.853 416.269 531.24 416.355 531.538 416.174L534.092 414.561C534.237 414.467 534.339 414.318 534.375 414.148C534.41 413.978 534.376 413.801 534.281 413.657Z" fill="black" />
		<path d="M529.646 416.864L528.008 414.528C527.805 414.25 527.42 414.179 527.131 414.366L524.706 415.999C524.423 416.198 524.346 416.584 524.531 416.877L526.032 419.213C526.225 419.499 526.607 419.584 526.903 419.408L529.464 417.801C529.618 417.705 529.725 417.55 529.759 417.372C529.794 417.194 529.753 417.01 529.646 416.864Z" fill="black" />
		<path d="M525.252 420.364L523.218 417.463C523.174 417.397 523.106 417.352 523.029 417.338C522.952 417.323 522.872 417.34 522.808 417.385L519.831 419.395C519.696 419.486 519.659 419.668 519.747 419.805L521.612 422.68C521.655 422.747 521.722 422.793 521.799 422.809C521.876 422.825 521.956 422.809 522.022 422.765L525.168 420.813C525.244 420.77 525.297 420.695 525.314 420.608C525.33 420.522 525.307 420.433 525.252 420.364Z" fill="black" />
		<path d="M521.124 423.207L519.09 420.299C518.993 420.168 518.809 420.136 518.674 420.228L515.703 422.232C515.568 422.325 515.53 422.509 515.619 422.648L517.484 425.517C517.573 425.654 517.756 425.695 517.894 425.608L521.04 423.656C521.116 423.613 521.17 423.538 521.186 423.452C521.202 423.365 521.18 423.276 521.124 423.207Z" fill="black" />
		<path d="M516.536 426.369L514.501 423.461C514.404 423.33 514.221 423.298 514.085 423.39L511.108 425.393C510.975 425.489 510.939 425.67 511.024 425.81L512.896 428.679C512.984 428.816 513.167 428.857 513.305 428.77L516.445 426.818C516.524 426.778 516.58 426.703 516.598 426.616C516.616 426.528 516.593 426.438 516.536 426.369Z" fill="black" />
		<path d="M512.089 429.466L510.055 426.565C510.01 426.499 509.941 426.454 509.863 426.439C509.785 426.425 509.704 426.442 509.639 426.486L506.662 428.497C506.529 428.59 506.495 428.771 506.584 428.907L508.449 431.776C508.49 431.845 508.557 431.894 508.634 431.911C508.712 431.928 508.793 431.912 508.859 431.867L511.998 429.915C512.078 429.875 512.134 429.8 512.152 429.713C512.17 429.625 512.147 429.535 512.089 429.466Z" fill="black" />
		<path d="M510.686 436.948L508.651 434.046C508.556 433.916 508.375 433.884 508.242 433.975L505.265 435.979C505.198 436.021 505.152 436.089 505.136 436.166C505.12 436.243 505.136 436.323 505.18 436.389L507.046 439.264C507.136 439.399 507.316 439.438 507.455 439.355L510.601 437.404C510.678 437.359 510.731 437.283 510.748 437.195C510.764 437.108 510.741 437.018 510.686 436.948Z" fill="black" />
		<path d="M506.239 440.032L504.205 437.13C504.161 437.065 504.094 437.02 504.017 437.005C503.94 436.991 503.86 437.008 503.795 437.052L500.818 439.063C500.752 439.105 500.706 439.173 500.69 439.25C500.674 439.327 500.69 439.407 500.734 439.473L502.599 442.342C502.688 442.479 502.871 442.519 503.009 442.433L506.155 440.481C506.231 440.437 506.285 440.363 506.301 440.276C506.317 440.19 506.295 440.1 506.239 440.032Z" fill="black" />
		<path d="M513.22 421.594L511.27 418.861C511.143 418.685 510.898 418.642 510.718 418.764L507.91 420.657C507.822 420.715 507.76 420.807 507.74 420.911C507.719 421.014 507.74 421.122 507.799 421.21L509.554 423.91C509.609 424 509.698 424.064 509.801 424.088C509.904 424.111 510.012 424.091 510.1 424.034L513.071 422.166C513.17 422.113 513.242 422.022 513.271 421.913C513.299 421.804 513.281 421.689 513.22 421.594Z" fill="black" />
		<path d="M508.775 424.678L506.857 421.945C506.798 421.858 506.706 421.798 506.602 421.778C506.499 421.759 506.392 421.781 506.305 421.841L503.497 423.767C503.409 423.824 503.347 423.914 503.327 424.017C503.306 424.12 503.327 424.227 503.386 424.313L505.141 427.02C505.26 427.202 505.501 427.256 505.687 427.144L508.658 425.276C508.759 425.218 508.83 425.119 508.853 425.004C508.875 424.889 508.847 424.77 508.775 424.678Z" fill="black" />
		<path d="M504.328 427.762L502.411 425.023C502.283 424.846 502.039 424.803 501.858 424.925L499.05 426.818C498.962 426.877 498.901 426.968 498.88 427.072C498.859 427.176 498.881 427.283 498.94 427.371L500.695 430.071C500.75 430.161 500.839 430.225 500.942 430.249C501.045 430.272 501.153 430.253 501.241 430.195L504.211 428.328C504.305 428.27 504.37 428.177 504.392 428.07C504.414 427.963 504.391 427.851 504.328 427.762Z" fill="black" />
		<path d="M499.941 430.924L497.907 428.015C497.812 427.885 497.63 427.853 497.497 427.944L494.52 429.948C494.384 430.041 494.347 430.225 494.436 430.364L496.301 433.233C496.392 433.367 496.571 433.407 496.711 433.324L499.857 431.372C499.937 431.333 499.994 431.257 500.01 431.169C500.027 431.081 500.001 430.99 499.941 430.924Z" fill="black" />
		<path d="M552.552 400.898L550.791 398.393C550.585 398.113 550.196 398.045 549.907 398.237L543.03 403.058C542.753 403.259 542.679 403.64 542.861 403.93L544.518 406.493C544.614 406.637 544.764 406.736 544.933 406.769C545.103 406.802 545.279 406.766 545.422 406.669L552.403 401.783C552.68 401.575 552.746 401.186 552.552 400.898Z" fill="black" />
		<path d="M507.631 432.453L505.473 429.401C505.428 429.335 505.358 429.29 505.28 429.277C505.201 429.263 505.121 429.282 505.057 429.33L497.634 434.534C497.502 434.625 497.467 434.805 497.556 434.938L499.584 438.08C499.627 438.149 499.697 438.197 499.777 438.212C499.856 438.228 499.939 438.211 500.006 438.165L507.553 432.875C507.69 432.78 507.725 432.591 507.631 432.453Z" fill="black" />
		<path d="M531.245 409.115L529.256 406.201C529.163 406.068 528.982 406.033 528.847 406.123L512.363 417.261C512.228 417.352 512.19 417.534 512.278 417.671L514.313 420.794C514.356 420.862 514.426 420.91 514.506 420.926C514.586 420.942 514.668 420.925 514.735 420.878L531.167 409.532C531.233 409.487 531.278 409.418 531.292 409.34C531.307 409.262 531.29 409.181 531.245 409.115Z" fill="black" />
	</g>
	<path d="M558.897 409.5L557.36 407.258C557.169 406.988 556.804 406.919 556.531 407.102L554.263 408.672C553.995 408.861 553.92 409.23 554.092 409.512L555.501 411.723C555.682 412 556.045 412.083 556.324 411.91L558.726 410.365C558.862 410.274 558.956 410.131 558.988 409.969C559.02 409.806 558.987 409.638 558.897 409.5Z" fill="#464A5F" />
	<path d="M553.894 412.495L552.359 410.256C552.168 409.989 551.807 409.92 551.536 410.1L549.263 411.666C548.995 411.855 548.92 412.225 549.092 412.508L550.5 414.722C550.681 415 551.043 415.083 551.322 414.91L553.724 413.369C553.861 413.277 553.956 413.133 553.988 412.969C554.02 412.804 553.986 412.634 553.894 412.495Z" fill="#464A5F" />
	<path d="M549.894 415.496L548.359 413.258C548.168 412.988 547.802 412.919 547.53 413.103L545.263 414.673C544.995 414.862 544.92 415.232 545.092 415.515L546.5 417.727C546.683 418.002 547.045 418.082 547.322 417.908L549.724 416.368C549.861 416.277 549.956 416.133 549.988 415.969C550.02 415.805 549.986 415.634 549.894 415.496Z" fill="#464A5F" />
	<path d="M544.881 419.483L543.351 417.254C543.161 416.989 542.802 416.921 542.531 417.099L540.267 418.659C540.132 418.752 540.04 418.896 540.01 419.059C539.981 419.222 540.016 419.39 540.109 419.526L541.511 421.725C541.692 422 542.053 422.082 542.331 421.91L544.717 420.375C544.86 420.283 544.958 420.134 544.99 419.965C545.021 419.796 544.981 419.621 544.881 419.483Z" fill="#464A5F" />
	<path d="M540.897 421.495L539.359 419.256C539.168 418.989 538.807 418.92 538.535 419.1L536.259 420.666C535.993 420.857 535.921 421.227 536.094 421.508L537.498 423.722C537.679 424 538.042 424.083 538.322 423.91L540.726 422.363C540.862 422.271 540.956 422.128 540.988 421.965C541.02 421.803 540.987 421.633 540.897 421.495Z" fill="#464A5F" />
	<path d="M536.941 425.767L535.131 423.119C535.092 423.059 535.032 423.018 534.964 423.005C534.895 422.991 534.824 423.007 534.767 423.047L532.12 424.882C532.061 424.921 532.02 424.983 532.005 425.053C531.991 425.124 532.005 425.197 532.044 425.256L533.703 427.875C533.782 428 533.944 428.038 534.068 427.958L536.865 426.177C536.933 426.137 536.981 426.069 536.995 425.99C537.01 425.911 536.99 425.83 536.941 425.767Z" fill="#464A5F" />
	<path d="M530.943 428.765L529.133 426.119C529.093 426.059 529.032 426.018 528.962 426.005C528.893 425.991 528.821 426.007 528.763 426.048L526.12 427.881C526.061 427.92 526.02 427.981 526.005 428.052C525.991 428.122 526.005 428.195 526.044 428.255L527.704 430.877C527.742 430.938 527.802 430.98 527.871 430.994C527.939 431.009 528.011 430.995 528.069 430.954L530.868 429.175C530.935 429.134 530.981 429.065 530.995 428.987C531.01 428.909 530.991 428.828 530.943 428.765Z" fill="#464A5F" />
	<path d="M527.952 431.781L526.138 429.113C526.053 428.993 525.892 428.964 525.773 429.047L523.118 430.862C522.997 430.948 522.964 431.117 523.043 431.244L524.706 433.877C524.787 434 524.948 434.037 525.072 433.96L527.877 432.169C527.938 432.129 527.981 432.065 527.995 431.992C528.009 431.919 527.994 431.843 527.952 431.781Z" fill="#464A5F" />
	<path d="M522.927 434.744L521.123 432.112C521.039 431.993 520.878 431.964 520.76 432.047L518.12 433.877C518.061 433.917 518.019 433.98 518.005 434.051C517.991 434.122 518.005 434.197 518.045 434.257L519.699 436.877C519.779 437 519.939 437.036 520.062 436.961L522.852 435.178C522.928 435.14 522.981 435.066 522.996 434.981C523.011 434.895 522.985 434.807 522.927 434.744Z" fill="#464A5F" />
	<path d="M517.941 437.766L516.131 435.119C516.092 435.059 516.032 435.018 515.964 435.005C515.895 434.991 515.824 435.007 515.767 435.047L513.12 436.882C513.061 436.92 513.02 436.982 513.005 437.052C512.991 437.123 513.005 437.196 513.044 437.255L514.703 439.873C514.74 439.935 514.8 439.978 514.868 439.994C514.937 440.009 515.009 439.996 515.068 439.956L517.865 438.175C517.933 438.136 517.981 438.067 517.995 437.989C518.01 437.91 517.99 437.828 517.941 437.766Z" fill="#464A5F" />
	<path d="M512.94 440.768L511.131 438.112C511.046 437.993 510.885 437.964 510.766 438.047L508.118 439.877C507.997 439.962 507.964 440.13 508.043 440.257L509.702 442.877C509.783 443 509.943 443.036 510.067 442.961L512.865 441.178C512.933 441.138 512.981 441.07 512.995 440.991C513.01 440.912 512.99 440.831 512.94 440.768Z" fill="#464A5F" />
	<path d="M508.941 444.766L507.131 442.119C507.092 442.059 507.032 442.018 506.964 442.005C506.895 441.991 506.824 442.007 506.767 442.047L504.12 443.882C504.061 443.92 504.02 443.982 504.005 444.052C503.991 444.123 504.005 444.196 504.044 444.255L505.703 446.873C505.74 446.935 505.8 446.978 505.868 446.994C505.937 447.009 506.009 446.996 506.068 446.956L508.865 445.175C508.933 445.136 508.981 445.067 508.995 444.989C509.01 444.91 508.99 444.828 508.941 444.766Z" fill="#464A5F" />
	<path d="M555.897 404.498L554.359 402.256C554.168 401.989 553.807 401.921 553.535 402.1L551.259 403.67C550.993 403.861 550.921 404.23 551.094 404.511L552.498 406.723C552.679 407 553.042 407.083 553.322 406.91L555.726 405.365C555.862 405.273 555.956 405.13 555.988 404.968C556.02 404.805 555.987 404.636 555.897 404.498Z" fill="#464A5F" />
	<path d="M549.894 395.497L548.357 393.256C548.166 392.989 547.805 392.92 547.534 393.1L545.259 394.667C544.993 394.858 544.921 395.228 545.094 395.509L546.503 397.725C546.684 397.999 547.042 398.081 547.32 397.912L549.723 396.371C549.861 396.279 549.956 396.135 549.988 395.97C550.02 395.806 549.986 395.635 549.894 395.497Z" fill="#464A5F" />
	<path d="M551.9 408.509L550.361 406.256C550.17 405.989 549.808 405.92 549.537 406.1L547.259 407.667C546.993 407.858 546.921 408.228 547.094 408.509L548.505 410.725C548.686 410.999 549.045 411.081 549.323 410.912L551.729 409.371C552.007 409.18 552.084 408.796 551.9 408.509Z" fill="#464A5F" />
	<path d="M546.886 411.494L545.369 409.256C545.178 408.989 544.816 408.921 544.543 409.1L542.262 410.665C541.992 410.857 541.919 411.231 542.097 411.513L543.504 413.727C543.687 414.002 544.051 414.082 544.329 413.908L546.739 412.368C546.873 412.272 546.964 412.126 546.991 411.962C547.019 411.798 546.981 411.63 546.886 411.494Z" fill="#464A5F" />
	<path d="M542.897 414.5L541.36 412.258C541.169 411.988 540.804 411.919 540.531 412.102L538.263 413.672C537.995 413.861 537.92 414.23 538.092 414.512L539.501 416.723C539.682 417 540.045 417.083 540.324 416.91L542.726 415.365C542.862 415.274 542.956 415.131 542.988 414.969C543.02 414.806 542.987 414.638 542.897 414.5Z" fill="#464A5F" />
	<path d="M544.9 398.509L543.361 396.256C543.17 395.989 542.808 395.92 542.537 396.1L540.259 397.667C539.993 397.858 539.921 398.228 540.094 398.509L541.505 400.725C541.686 400.999 542.045 401.081 542.323 400.912L544.729 399.371C545.007 399.18 545.084 398.796 544.9 398.509Z" fill="#464A5F" />
	<path d="M540.897 402.498L539.36 400.256C539.17 399.989 538.809 399.921 538.537 400.1L536.263 401.67C535.995 401.859 535.92 402.229 536.092 402.511L537.501 404.723C537.682 405 538.045 405.083 538.324 404.91L540.726 403.365C540.862 403.273 540.956 403.13 540.988 402.968C541.02 402.805 540.987 402.636 540.897 402.498Z" fill="#464A5F" />
	<path d="M536.896 405.494L535.36 403.258C535.169 402.988 534.803 402.919 534.531 403.102L532.263 404.665C531.995 404.854 531.92 405.224 532.092 405.506L533.5 407.723C533.681 408 534.044 408.083 534.323 407.91L536.719 406.365C536.857 406.275 536.954 406.132 536.987 405.968C537.021 405.803 536.988 405.633 536.896 405.494Z" fill="#464A5F" />
	<path d="M536.902 417.503L535.363 415.257C535.172 414.989 534.81 414.92 534.538 415.1L532.259 416.658C531.993 416.85 531.921 417.221 532.094 417.503L533.505 419.724C533.687 419.999 534.046 420.082 534.324 419.912L536.731 418.36C537.006 418.17 537.082 417.789 536.902 417.503Z" fill="#464A5F" />
	<path d="M532.88 420.48L531.349 418.254C531.159 417.989 530.799 417.921 530.528 418.099L528.262 419.686C527.995 419.874 527.921 420.243 528.092 420.523L529.495 422.724C529.676 423 530.037 423.082 530.316 422.91L532.71 421.379C532.855 421.288 532.957 421.139 532.989 420.968C533.021 420.797 532.982 420.62 532.88 420.48Z" fill="#464A5F" />
	<path d="M528.935 424.766L527.119 422.119C527.08 422.059 527.02 422.018 526.951 422.005C526.882 421.991 526.811 422.007 526.754 422.047L524.12 423.882C524.061 423.92 524.02 423.982 524.005 424.052C523.991 424.123 524.005 424.196 524.045 424.255L525.71 426.873C525.747 426.935 525.806 426.978 525.875 426.994C525.944 427.009 526.016 426.996 526.075 426.956L528.883 425.175C528.946 425.131 528.988 425.061 528.998 424.983C529.008 424.905 528.985 424.826 528.935 424.766Z" fill="#464A5F" />
	<path d="M523.939 427.767L522.131 425.113C522.045 424.993 521.882 424.964 521.761 425.048L519.116 426.877C518.998 426.963 518.965 427.129 519.041 427.257L520.704 429.875C520.783 430 520.945 430.038 521.068 429.958L523.858 428.177C523.929 428.14 523.979 428.072 523.995 427.992C524.011 427.912 523.99 427.83 523.939 427.767Z" fill="#464A5F" />
	<path d="M519.934 429.768L518.126 427.112C518.042 426.993 517.881 426.964 517.763 427.047L515.118 428.877C514.997 428.962 514.964 429.13 515.043 429.257L516.7 431.877C516.781 432 516.94 432.036 517.064 431.961L519.859 430.178C519.93 430.142 519.981 430.073 519.996 429.992C520.01 429.912 519.988 429.829 519.934 429.768Z" fill="#464A5F" />
	<path d="M514.931 433.767L513.136 431.119C513.097 431.059 513.036 431.018 512.968 431.005C512.899 430.991 512.828 431.007 512.771 431.047L510.118 432.882C509.997 432.965 509.964 433.132 510.042 433.256L511.705 435.875C511.784 436 511.946 436.038 512.07 435.958L514.873 434.177C514.941 434.136 514.986 434.066 514.997 433.986C515.009 433.907 514.984 433.826 514.931 433.767Z" fill="#464A5F" />
	<path d="M543.897 406.502L542.365 404.258C542.174 403.988 541.808 403.919 541.535 404.103L539.259 405.673C538.993 405.864 538.921 406.234 539.094 406.515L540.504 408.727C540.687 409.002 541.05 409.082 541.328 408.908L543.726 407.368C543.862 407.277 543.956 407.134 543.988 406.972C544.02 406.809 543.987 406.64 543.897 406.502Z" fill="#464A5F" />
	<path d="M538.897 410.499L537.359 408.26C537.17 407.991 536.808 407.92 536.535 408.098L534.259 409.669C533.993 409.861 533.921 410.231 534.094 410.511L535.504 412.725C535.685 412.999 536.043 413.081 536.322 412.912L538.726 411.366C538.862 411.274 538.956 411.131 538.988 410.969C539.02 410.806 538.987 410.637 538.897 410.499Z" fill="#464A5F" />
	<path d="M534.884 413.494L533.323 411.259C533.132 410.988 532.765 410.919 532.491 411.103L530.264 412.663C529.995 412.853 529.92 413.224 530.092 413.506L531.506 415.722C531.688 416 532.052 416.083 532.332 415.91L534.743 414.368C534.876 414.271 534.965 414.125 534.992 413.96C535.018 413.796 534.979 413.628 534.884 413.494Z" fill="#464A5F" />
	<path d="M529.894 416.497L528.357 414.256C528.166 413.989 527.805 413.92 527.534 414.1L525.259 415.667C524.993 415.858 524.921 416.228 525.094 416.509L526.503 418.725C526.684 418.999 527.042 419.081 527.32 418.912L529.723 417.371C529.861 417.279 529.956 417.135 529.988 416.97C530.02 416.806 529.986 416.635 529.894 416.497Z" fill="#464A5F" />
	<path d="M525.942 420.765L524.134 418.119C524.094 418.059 524.032 418.018 523.963 418.005C523.894 417.991 523.822 418.007 523.764 418.048L521.117 419.881C520.997 419.964 520.964 420.13 521.042 420.255L522.701 422.877C522.739 422.938 522.8 422.98 522.87 422.995C522.939 423.009 523.011 422.994 523.07 422.954L525.861 421.174C525.93 421.136 525.979 421.068 525.995 420.989C526.01 420.91 525.991 420.828 525.942 420.765Z" fill="#464A5F" />
	<path d="M520.935 422.768L519.12 420.119C519.082 420.059 519.021 420.018 518.952 420.005C518.884 419.991 518.813 420.007 518.755 420.047L516.118 421.877C515.997 421.962 515.964 422.131 516.043 422.257L517.706 424.877C517.787 425 517.947 425.036 518.071 424.961L520.877 423.178C520.942 423.136 520.986 423.066 520.997 422.987C521.008 422.908 520.985 422.828 520.935 422.768Z" fill="#464A5F" />
	<path d="M516.94 426.767L515.131 424.113C515.044 423.993 514.881 423.964 514.76 424.048L512.118 425.877C511.997 425.962 511.964 426.13 512.043 426.257L513.702 428.875C513.781 429 513.943 429.038 514.067 428.958L516.865 427.177C516.933 427.137 516.981 427.069 516.995 426.99C517.01 426.911 516.99 426.83 516.94 426.767Z" fill="#464A5F" />
	<path d="M512.943 428.765L511.133 426.119C511.093 426.059 511.032 426.018 510.962 426.005C510.893 425.991 510.821 426.007 510.763 426.048L508.12 427.881C508.061 427.92 508.02 427.981 508.005 428.052C507.991 428.122 508.005 428.195 508.044 428.255L509.704 430.877C509.742 430.938 509.802 430.98 509.871 430.994C509.939 431.009 510.011 430.995 510.069 430.954L512.868 429.175C512.935 429.134 512.981 429.065 512.995 428.987C513.01 428.909 512.991 428.828 512.943 428.765Z" fill="#464A5F" />
	<path d="M510.939 436.768L509.132 434.113C509.045 433.993 508.883 433.964 508.762 434.048L506.118 435.877C505.997 435.963 505.964 436.131 506.043 436.258L507.7 438.877C507.78 439 507.94 439.036 508.064 438.961L510.858 437.178C510.929 437.141 510.979 437.073 510.995 436.993C511.011 436.914 510.99 436.831 510.939 436.768Z" fill="#464A5F" />
	<path d="M505.939 439.766L504.132 437.119C504.092 437.059 504.031 437.018 503.961 437.005C503.892 436.991 503.82 437.007 503.762 437.048L501.117 438.882C500.997 438.965 500.964 439.131 501.042 439.256L502.7 441.873C502.737 441.934 502.798 441.978 502.867 441.994C502.937 442.009 503.01 441.996 503.069 441.956L505.858 440.175C505.929 440.138 505.979 440.07 505.995 439.991C506.011 439.911 505.99 439.828 505.939 439.766Z" fill="#464A5F" />
	<path d="M512.94 420.689L511.209 418.155C511.094 417.991 510.873 417.951 510.711 418.064L508.159 419.816C507.995 419.931 507.951 420.158 508.059 420.328L509.643 422.833C509.753 423.003 509.974 423.051 510.142 422.941L512.817 421.213C512.904 421.163 512.967 421.078 512.99 420.979C513.013 420.88 512.995 420.775 512.94 420.689Z" fill="#464A5F" />
	<path d="M508.935 424.689L507.2 422.161C507.146 422.08 507.063 422.024 506.969 422.006C506.876 421.988 506.779 422.009 506.7 422.065L504.159 423.822C503.996 423.934 503.951 424.159 504.059 424.327L505.647 426.831C505.757 427 505.977 427.05 506.147 426.945L508.835 425.218C508.918 425.162 508.974 425.074 508.993 424.975C509.012 424.875 508.991 424.772 508.935 424.689Z" fill="#464A5F" />
	<path d="M504.942 427.689L503.185 425.154C503.073 424.991 502.854 424.951 502.693 425.064L500.158 426.816C499.995 426.931 499.951 427.158 500.059 427.328L501.64 429.833C501.749 430.003 501.97 430.051 502.137 429.941L504.813 428.213C504.901 428.164 504.965 428.08 504.989 427.98C505.014 427.881 504.996 427.775 504.942 427.689Z" fill="#464A5F" />
	<path d="M499.941 430.767L498.131 428.113C498.045 427.993 497.882 427.964 497.761 428.048L495.114 429.877C494.995 429.964 494.965 430.131 495.044 430.257L496.703 432.875C496.782 433 496.944 433.038 497.068 432.958L499.865 431.177C499.933 431.137 499.981 431.069 499.995 430.99C500.01 430.911 499.99 430.83 499.941 430.767Z" fill="#464A5F" />
	<path d="M553.895 400.888L552.143 398.276C551.936 397.985 551.543 397.913 551.251 398.114L544.271 403.128C543.992 403.337 543.917 403.733 544.1 404.035L545.78 406.701C545.877 406.85 546.028 406.953 546.199 406.988C546.37 407.022 546.547 406.985 546.692 406.884L553.731 401.802C554.012 401.59 554.084 401.189 553.895 400.888Z" fill="#464A5F" />
	<path d="M507.946 432.199L505.826 429.13C505.782 429.063 505.714 429.018 505.637 429.004C505.559 428.991 505.48 429.01 505.417 429.058L498.125 434.294C497.995 434.387 497.961 434.57 498.049 434.706L500.047 437.861C500.09 437.93 500.159 437.978 500.237 437.994C500.315 438.01 500.397 437.993 500.462 437.946L507.876 432.625C508.008 432.526 508.04 432.337 507.946 432.199Z" fill="#464A5F" />
	<path d="M531.936 409.06L529.99 406.134C529.897 405.997 529.714 405.959 529.575 406.048L513.134 417.291C513.068 417.334 513.022 417.402 513.006 417.48C512.99 417.558 513.006 417.639 513.05 417.705L515.073 420.86C515.117 420.93 515.187 420.978 515.266 420.994C515.346 421.01 515.428 420.993 515.495 420.946L531.891 409.48C532.016 409.376 532.037 409.189 531.936 409.06Z" fill="#464A5F" />
	<path opacity="0.1" d="M532.706 398.62L523.738 385.716C523.222 384.97 522.194 384.776 521.436 385.281L496.734 401.703C496.367 401.949 496.114 402.33 496.03 402.761C495.946 403.192 496.039 403.639 496.289 404.002L505.43 417.275C505.678 417.639 506.063 417.89 506.499 417.971C506.935 418.053 507.386 417.959 507.751 417.709L532.28 400.906C532.643 400.659 532.893 400.28 532.973 399.851C533.052 399.422 532.956 398.979 532.706 398.62Z" fill="black" />
	<path d="M532.701 398.619L523.728 385.714C523.209 384.971 522.184 384.777 521.425 385.279L496.742 401.715C496.372 401.959 496.116 402.339 496.031 402.771C495.946 403.203 496.039 403.65 496.289 404.014L505.409 417.275C505.658 417.639 506.043 417.89 506.479 417.971C506.915 418.053 507.367 417.959 507.732 417.709L532.289 400.905C532.65 400.656 532.897 400.275 532.974 399.846C533.052 399.418 532.953 398.976 532.701 398.619Z" fill="#939498" />
	<path d="M586.509 419.253L567.849 413L508 454.768L526.523 460.832C527.536 461.164 528.645 460.999 529.518 460.386L586.679 420.453C586.907 420.318 587.031 420.059 586.993 419.796C586.956 419.534 586.765 419.319 586.509 419.253Z" fill="white" />
	<defs>
		<filter id="filter0_d_131_10192" x="164" y="330" width="433" height="224" filterUnits="userSpaceOnUse" color-interpolation-filters="sRGB">
			<feFlood flood-opacity="0" result="BackgroundImageFix" />
			<feColorMatrix in="SourceAlpha" type="matrix" values="0 0 0 0 0 0 0 0 0 0 0 0 0 0 0 0 0 0 127 0" result="hardAlpha" />
			<feOffset dy="4" />
			<feGaussianBlur stdDeviation="4" />
			<feComposite in2="hardAlpha" operator="out" />
			<feColorMatrix type="matrix" values="0 0 0 0 0 0 0 0 0 0 0 0 0 0 0 0 0 0 0.1 0" />
			<feBlend mode="normal" in2="BackgroundImageFix" result="effect1_dropShadow_131_10192" />
			<feBlend mode="normal" in="SourceGraphic" in2="effect1_dropShadow_131_10192" result="shape" />
		</filter>
	</defs>
</svg>
