<?xml version="1.0" encoding="utf-8"?>
<!-- Generator: Adobe Illustrator 23.0.1, SVG Export Plug-In . SVG Version: 6.00 Build 0)  -->
<svg version="1.1" id="Layer_1" xmlns="http://www.w3.org/2000/svg" xmlns:xlink="http://www.w3.org/1999/xlink" x="0px" y="0px"
	 viewBox="0 0 716.8 900" style="enable-background:new 0 0 716.8 900;" xml:space="preserve">
<style type="text/css">
	.st0{opacity:0.2;}
	.st1{fill:#FFFFFF;}
	.st2{fill:#4DD5DE;fill-opacity:8.000000e-02;}
	.st3{fill:none;stroke:#FFFFFF;stroke-width:2;}
	.st4{fill:#ECA0A0;}
	.st5{fill:#1E55A9;}
	.st6{fill:url(#SVGID_1_);}
	.st7{fill:#F7F7FD;}
	.st8{fill:#E2E2EC;}
	.st9{fill-rule:evenodd;clip-rule:evenodd;fill:#E2E2EC;}
	.st10{fill:#4B40D1;}
	.st11{fill-rule:evenodd;clip-rule:evenodd;fill:url(#SVGID_2_);}
	.st12{fill:#F2DEB7;fill-opacity:0.25;}
	.st13{opacity:0.1;enable-background:new    ;}
	.st14{fill:#2E3037;}
	.st15{fill:#474463;}
	.st16{opacity:5.000000e-02;enable-background:new    ;}
	.st17{fill:#472727;}
</style>
<g>
	<g class="st0">
		<path class="st1" d="M716.8,49v456.7c-25.8,22.3-58.6,37.5-90.6,47.8c-16.1,5.2-32.2,9.5-48.4,13.6c-0.4,0.1-0.7,0.2-1.1,0.3
			c0,0-0.1,0-0.2,0c-8.9,2.3-17.8,4.5-26.7,6.8c-9.4,2.5-18.9,5.1-28.3,8c-0.3,0.1-0.6,0.2-0.9,0.3c-1.5,0.5-3,0.9-4.5,1.4
			c-1.2,0.4-2.4,0.8-3.6,1.1c-0.2,0.1-0.4,0.1-0.6,0.2c-5.5,1.8-10.9,3.7-16.3,5.7c-0.1,0-0.2,0.1-0.3,0.1c-0.1,0-0.2,0.1-0.3,0.1
			c-1.2,0.4-2.3,0.9-3.5,1.3h0c-14.1,5.4-27.9,11.6-41.5,18.4c-0.2,0.1-0.4,0.2-0.6,0.3s-0.4,0.2-0.6,0.3s-0.4,0.2-0.6,0.3
			c-0.2,0.1-0.4,0.2-0.6,0.3c-4.7,2.4-9.4,4.9-14,7.5c-0.1,0-0.2,0.1-0.3,0.2c-0.1,0.1-0.2,0.1-0.3,0.2c-0.1,0-0.2,0.1-0.3,0.2
			c-0.1,0.1-0.2,0.1-0.3,0.2c-5.4,3-10.7,6.1-16,9.3c-16.2,9.9-32.2,21.1-45.4,34.2c-0.1,0.1-0.2,0.2-0.3,0.3
			c-0.1,0.1-0.2,0.2-0.3,0.3c0,0,0,0,0,0c-0.1,0.1-0.2,0.2-0.3,0.3c-0.2,0.2-0.4,0.4-0.6,0.6c-0.1,0.1-0.2,0.2-0.3,0.3
			c-5.1,5.3-9.8,10.8-13.9,16.7c-4.9,7-8.7,14.2-12.2,21.6c-0.8,1.6-1.5,3.2-2.2,4.8c-7,15.5-12.9,31.4-23,46
			c-15,21.9-38.3,39.4-62.3,53.7c-4.9,2.9-9.9,5.7-15,8.4c-41.2,22-86.2,36.1-128.3,36.3c-47.2,0.2-89.9-18.3-109-53
			c-1.2-2.2-2.3-4.4-3.3-6.7V284.2c6.3-5.6,12.9-10.9,19.7-15.8c37.2-26.8,80.5-42.9,123-55.8c55.5-17,109.2-23.4,164.2-36.5
			c57.7-13.7,115.7-52.2,170.2-79.3C536.8,67.2,600.9,41.4,661.3,41C680.9,40.9,699.6,43.7,716.8,49z"/>
		<path class="st2" d="M716.8,49v456.7c-25.8,22.3-58.6,37.5-90.6,47.8c-16.1,5.2-32.2,9.5-48.4,13.6c-0.4,0.1-0.7,0.2-1.1,0.3
			c0,0-0.1,0-0.2,0c-8.9,2.3-17.8,4.5-26.7,6.8c-9.4,2.5-18.9,5.1-28.3,8c-0.3,0.1-0.6,0.2-0.9,0.3c-1.5,0.5-3,0.9-4.5,1.4
			c-1.2,0.4-2.4,0.8-3.6,1.1c-0.2,0.1-0.4,0.1-0.6,0.2c-5.5,1.8-10.9,3.7-16.3,5.7c-0.1,0-0.2,0.1-0.3,0.1c-0.1,0-0.2,0.1-0.3,0.1
			c-1.2,0.4-2.3,0.9-3.5,1.3h0c-14.1,5.4-27.9,11.6-41.5,18.4c-0.2,0.1-0.4,0.2-0.6,0.3s-0.4,0.2-0.6,0.3s-0.4,0.2-0.6,0.3
			c-0.2,0.1-0.4,0.2-0.6,0.3c-4.7,2.4-9.4,4.9-14,7.5c-0.1,0-0.2,0.1-0.3,0.2c-0.1,0.1-0.2,0.1-0.3,0.2c-0.1,0-0.2,0.1-0.3,0.2
			c-0.1,0.1-0.2,0.1-0.3,0.2c-5.4,3-10.7,6.1-16,9.3c-16.2,9.9-32.2,21.1-45.4,34.2c-0.1,0.1-0.2,0.2-0.3,0.3
			c-0.1,0.1-0.2,0.2-0.3,0.3c0,0,0,0,0,0c-0.1,0.1-0.2,0.2-0.3,0.3c-0.2,0.2-0.4,0.4-0.6,0.6c-0.1,0.1-0.2,0.2-0.3,0.3
			c-5.1,5.3-9.8,10.8-13.9,16.7c-4.9,7-8.7,14.2-12.2,21.6c-0.8,1.6-1.5,3.2-2.2,4.8c-7,15.5-12.9,31.4-23,46
			c-15,21.9-38.3,39.4-62.3,53.7c-4.9,2.9-9.9,5.7-15,8.4c-41.2,22-86.2,36.1-128.3,36.3c-47.2,0.2-89.9-18.3-109-53
			c-1.2-2.2-2.3-4.4-3.3-6.7V284.2c6.3-5.6,12.9-10.9,19.7-15.8c37.2-26.8,80.5-42.9,123-55.8c55.5-17,109.2-23.4,164.2-36.5
			c57.7-13.7,115.7-52.2,170.2-79.3C536.8,67.2,600.9,41.4,661.3,41C680.9,40.9,699.6,43.7,716.8,49z"/>
	</g>
	<g class="st0">
		<path class="st1" d="M121.1,426.4c-22.6,18.4-44.4,39-58.1,64.9c-20.2,38.1-19.9,86.1,0.8,121.5c17.5,30,47.1,49.5,72.4,72.7
			c31.2,28.5,56.4,63.3,80.3,98.7c12.8,19,25.8,38.7,44.5,51.4c26,17.7,61.1,19.4,91.7,8.1c30.6-11.3,56.9-34.7,75.7-62.6
			c10-14.8,18.3-31.5,19.5-49.1c1.3-18.6-5.5-36.6-4.1-55.2c1.3-17.3,9.5-33.6,19.1-48.2c12.5-19.2,27.7-36.4,45-51.4
			c19.7-16.9,41.8-30.4,61.5-47.1c19.7-16.8,37.6-38,43.8-63.2c5.8-23.7,0.7-48-5.5-70.9c-10.1-37.3-23.2-73.8-39.2-109
			c-10.7-23.6-23-46.9-41-64.9c-34.4-34.5-89.1-45.9-136.3-28.3c-39.1,14.6-70.8,46.2-98,79.4c-24.8,30.2-47.5,68.6-79.7,91.1
			C182.9,385.5,150.6,402.4,121.1,426.4z"/>
		<path class="st2" d="M121.1,426.4c-22.6,18.4-44.4,39-58.1,64.9c-20.2,38.1-19.9,86.1,0.8,121.5c17.5,30,47.1,49.5,72.4,72.7
			c31.2,28.5,56.4,63.3,80.3,98.7c12.8,19,25.8,38.7,44.5,51.4c26,17.7,61.1,19.4,91.7,8.1c30.6-11.3,56.9-34.7,75.7-62.6
			c10-14.8,18.3-31.5,19.5-49.1c1.3-18.6-5.5-36.6-4.1-55.2c1.3-17.3,9.5-33.6,19.1-48.2c12.5-19.2,27.7-36.4,45-51.4
			c19.7-16.9,41.8-30.4,61.5-47.1c19.7-16.8,37.6-38,43.8-63.2c5.8-23.7,0.7-48-5.5-70.9c-10.1-37.3-23.2-73.8-39.2-109
			c-10.7-23.6-23-46.9-41-64.9c-34.4-34.5-89.1-45.9-136.3-28.3c-39.1,14.6-70.8,46.2-98,79.4c-24.8,30.2-47.5,68.6-79.7,91.1
			C182.9,385.5,150.6,402.4,121.1,426.4z"/>
	</g>
	<path class="st3" d="M454.5,467.6c0,0,62.7-52.5,76.6-79c13.9-26.5,31.7-49.3,31.7-49.3"/>
	<path class="st4" d="M554.6,398.5l-27.1-6.1C527.5,392.4,533.9,421,554.6,398.5z"/>
	<path class="st5" d="M513.2,369.3l15.6,23.4C528.8,392.7,498.3,394.9,513.2,369.3z"/>
	<path class="st4" d="M565.2,376.5l-24.8-4.3C540.5,372.2,556,395.9,565.2,376.5z"/>
	<path class="st5" d="M528.6,355.7l12.2,16C540.8,371.6,519.2,373.7,528.6,355.7z"/>
	<path class="st5" d="M553.3,352.5c0,0,21.1,1,23.6,3c2.5,2-3.1,13.8-11.2,11.9C557.7,365.5,553.3,352.5,553.3,352.5z"/>
	<path class="st5" d="M544.9,333.6c0,0,8.6,15.7,8.3,18.7c-0.3,3-13.1,6.3-15.7-5S544.9,333.6,544.9,333.6z"/>
	<path class="st5" d="M571.7,345.6c1-3.1-0.7-6.4-3.8-7.4c-3.1-1-6.4,0.7-7.4,3.8c-1,3.1,0.7,6.4,3.8,7.4
		C567.4,350.4,570.7,348.7,571.7,345.6z"/>
	<path class="st5" d="M562.5,339.6c1-3.1-0.7-6.4-3.8-7.4c-3.1-1-6.4,0.7-7.4,3.8s0.7,6.4,3.8,7.4
		C558.2,344.4,561.5,342.7,562.5,339.6z"/>
	<path class="st5" d="M259.1,673.4c0,0,10.1-29.9-53.7-66c0,0-64.7-18.9-58.1-83.7c0,0-74.6,54.7-24.1,124.3
		c50.5,69.6,94.1,54.4,94.1,54.4L259.1,673.4z"/>
	<path class="st3" d="M239.6,686.9c0,0-31.1-33.6-60.9-46.6c-6-2.7-11.4-6.3-16.2-10.8c-19-17.4-27.3-43.6-22.4-68.9l7.2-36.9"/>
	
		<linearGradient id="SVGID_1_" gradientUnits="userSpaceOnUse" x1="339.0608" y1="191.1354" x2="339.0608" y2="602.2194" gradientTransform="matrix(1 0 0 -1 0 900)">
		<stop  offset="0" style="stop-color:#808080;stop-opacity:0.25"/>
		<stop  offset="0.54" style="stop-color:#808080;stop-opacity:0.12"/>
		<stop  offset="1" style="stop-color:#808080;stop-opacity:0.1"/>
	</linearGradient>
	<rect x="162" y="297.8" class="st6" width="354" height="411.1"/>
	<rect x="166.2" y="302.6" class="st7" width="345.8" height="401.5"/>
	<rect x="187" y="347.8" class="st8" width="87.4" height="7"/>
	<rect x="187" y="364.8" class="st8" width="149.3" height="7"/>
	<rect x="433.4" y="341.2" class="st1" width="62" height="53.5"/>
	<path class="st9" d="M433,340.9V395h62.7v-54.2H433z M495.1,394.4h-61.4v-52.9h61.4V394.4z"/>
	<rect x="370.7" y="341.2" class="st1" width="62" height="53.5"/>
	<path class="st9" d="M370.4,340.9V395H433v-54.2H370.4z M432.4,394.4H371v-52.9h61.4V394.4z"/>
	<rect x="433.4" y="395.3" class="st1" width="62" height="53.5"/>
	<path class="st9" d="M433,395v54.1h62.7V395H433z M495.1,448.5h-61.4v-52.9h61.4V448.5z"/>
	<rect x="370.7" y="395.3" class="st1" width="62" height="53.5"/>
	<path class="st9" d="M370.4,395v54.1H433V395H370.4z M432.4,448.5H371v-52.9h61.4V448.5z"/>
	<rect x="308" y="395.3" class="st1" width="62" height="53.5"/>
	<path class="st9" d="M307.7,395v54.1h62.7V395H307.7z M369.8,448.5h-61.4v-52.9h61.4V448.5z"/>
	<rect x="245.4" y="395.3" class="st1" width="62" height="53.5"/>
	<path class="st9" d="M245.1,395v54.1h62.7V395H245.1z M307.1,448.5h-61.4v-52.9h61.4V448.5z"/>
	<rect x="182.7" y="395.3" class="st1" width="62" height="53.5"/>
	<path class="st9" d="M182.4,395v54.1h62.7V395H182.4z M244.4,448.5H183v-52.9h61.4V448.5z"/>
	<rect x="433.4" y="449.5" class="st1" width="62" height="53.5"/>
	<path class="st9" d="M433,449.2v54.2h62.7v-54.2H433z M433.6,449.8h61.4v52.9h-61.4V449.8z"/>
	<rect x="370.7" y="449.5" class="st1" width="62" height="53.5"/>
	<path class="st9" d="M370.4,449.2v54.2H433v-54.2H370.4z M371,449.8h61.4v52.9H371V449.8z"/>
	<rect x="308" y="449.5" class="st1" width="62" height="53.5"/>
	<path class="st9" d="M307.7,449.2v54.2h62.7v-54.2H307.7z M308.3,449.8h61.4v52.9h-61.4V449.8z"/>
	<rect x="245.4" y="449.5" class="st1" width="62" height="53.5"/>
	<path class="st9" d="M245.1,449.2v54.2h62.7v-54.2H245.1z M245.7,449.8h61.4v52.9h-61.4V449.8z"/>
	<rect x="182.7" y="449.5" class="st1" width="62" height="53.5"/>
	<path class="st9" d="M182.4,449.2v54.2h62.7v-54.2H182.4z M183,449.8h61.4v52.9H183V449.8z"/>
	<rect x="433.4" y="503.6" class="st1" width="62" height="53.5"/>
	<path class="st9" d="M433,503.3v54.1h62.7v-54.1H433z M495.1,556.8h-61.4v-52.9h61.4V556.8z"/>
	<rect x="370.7" y="503.6" class="st1" width="62" height="53.5"/>
	<path class="st9" d="M370.4,503.3v54.1H433v-54.1H370.4z M432.4,556.8H371v-52.9h61.4V556.8z"/>
	<rect x="308" y="503.6" class="st1" width="62" height="53.5"/>
	<path class="st9" d="M307.7,503.3v54.1h62.7v-54.1H307.7z M369.8,556.8h-61.4v-52.9h61.4V556.8z"/>
	<rect x="245.4" y="503.6" class="st1" width="62" height="53.5"/>
	<path class="st9" d="M245.1,503.3v54.1h62.7v-54.1H245.1z M307.1,556.8h-61.4v-52.9h61.4V556.8z"/>
	<rect x="182.7" y="503.6" class="st1" width="62" height="53.5"/>
	<path class="st9" d="M182.4,503.3v54.1h62.7v-54.1H182.4z M244.4,556.8H183v-52.9h61.4V556.8z"/>
	<rect x="433.4" y="557.8" class="st1" width="62" height="53.5"/>
	<path class="st9" d="M433,557.5v54.2h62.7v-54.2H433z M495.1,611h-61.4v-52.9h61.4V611z"/>
	<rect x="370.7" y="557.8" class="st1" width="62" height="53.5"/>
	<path class="st9" d="M370.4,557.5v54.2H433v-54.2H370.4z M432.4,611H371v-52.9h61.4V611z"/>
	<rect x="308" y="557.8" class="st1" width="62" height="53.5"/>
	<path class="st9" d="M307.7,557.5v54.2h62.7v-54.2H307.7z M369.8,611h-61.4v-52.9h61.4V611z"/>
	<rect x="245.4" y="557.8" class="st1" width="62" height="53.5"/>
	<path class="st9" d="M245.1,557.5v54.2h62.7v-54.2H245.1z M307.1,611h-61.4v-52.9h61.4V611z"/>
	<rect x="182.7" y="557.8" class="st1" width="62" height="53.5"/>
	<path class="st9" d="M182.4,557.5v54.2h62.7v-54.2H182.4z M244.4,611H183v-52.9h61.4V611z"/>
	<rect x="433.4" y="611.9" class="st1" width="62" height="53.5"/>
	<path class="st9" d="M433,611.6v54.2h62.7v-54.2H433z M495.1,665.2h-61.4v-52.9h61.4V665.2z"/>
	<rect x="370.7" y="611.9" class="st1" width="62" height="53.5"/>
	<path class="st9" d="M370.4,611.6v54.2H433v-54.2H370.4z M432.4,665.2H371v-52.9h61.4V665.2z"/>
	<rect x="308" y="611.9" class="st1" width="62" height="53.5"/>
	<path class="st9" d="M307.7,611.6v54.2h62.7v-54.2H307.7z M369.8,665.2h-61.4v-52.9h61.4V665.2z"/>
	<rect x="245.4" y="611.9" class="st1" width="62" height="53.5"/>
	<path class="st9" d="M245.1,611.6v54.2h62.7v-54.2H245.1z M307.1,665.2h-61.4v-52.9h61.4V665.2z"/>
	<rect x="182.7" y="611.9" class="st1" width="62" height="53.5"/>
	<path class="st9" d="M182.4,611.6v54.2h62.7v-54.2H182.4z M244.4,665.2H183v-52.9h61.4V665.2z"/>
	<path class="st5" d="M313,714.5c1.8-1.3,3.4-2.9,4-4.9c0.5-2.1-0.7-4.3-2.8-5c-2.5-0.8-5.2,0.6-7.3,2.1c-2.1,1.5-4.4,3.1-7.1,2.8
		c2.8-2,4.1-5.3,3.3-8.3c-0.1-0.6-0.5-1.2-0.9-1.7c-1.4-1.2-4-0.7-5.7,0.3c-5.4,3.1-6.9,9-6.9,14.4c-0.5-1.9-0.1-3.9-0.1-5.9
		c0-2-0.7-4.2-2.7-5.2c-1.3-0.6-2.7-0.8-4.2-0.8c-2.4-0.1-5.1,0.1-6.7,1.6c-2,1.8-1.5,4.8,0.3,6.8s4.5,3.2,7,4.6
		c1.9,1,3.8,2.2,5,3.9c0.1,0.2,0.3,0.5,0.4,0.7h15.1C307,718.5,310.1,716.7,313,714.5z"/>
	<path class="st4" d="M190.9,407c2,0,3.5-1.6,3.5-3.5c0-2-1.6-3.5-3.5-3.5c-2,0-3.5,1.6-3.5,3.5C187.4,405.4,188.9,407,190.9,407z"
		/>
	<path class="st10" d="M199.7,407c2,0,3.5-1.6,3.5-3.5c0-2-1.6-3.5-3.5-3.5c-2,0-3.5,1.6-3.5,3.5C196.2,405.4,197.8,407,199.7,407z"
		/>
	<path class="st4" d="M315.8,459.4c2,0,3.5-1.6,3.5-3.5s-1.6-3.5-3.5-3.5s-3.5,1.6-3.5,3.5S313.8,459.4,315.8,459.4z"/>
	<path class="st4" d="M324.6,459.4c2,0,3.5-1.6,3.5-3.5s-1.6-3.5-3.5-3.5s-3.5,1.6-3.5,3.5S322.7,459.4,324.6,459.4z"/>
	<path class="st4" d="M504.9,560.8c2,0,3.5-1.6,3.5-3.5c0-2-1.6-3.5-3.5-3.5c-2,0-3.5,1.6-3.5,3.5
		C501.4,559.2,502.9,560.8,504.9,560.8z"/>
	<path class="st4" d="M506.7,556.6c2,0,3.5-1.6,3.5-3.5c0-2-1.6-3.5-3.5-3.5s-3.5,1.6-3.5,3.5C503.1,555.1,504.7,556.6,506.7,556.6z
		"/>
	<path class="st4" d="M508.4,553.1c2,0,3.5-1.6,3.5-3.5s-1.6-3.5-3.5-3.5s-3.5,1.6-3.5,3.5S506.5,553.1,508.4,553.1z"/>
	<path class="st4" d="M442.4,407c2,0,3.5-1.6,3.5-3.5c0-2-1.6-3.5-3.5-3.5c-2,0-3.5,1.6-3.5,3.5C438.9,405.4,440.5,407,442.4,407z"
		/>
	<path class="st4" d="M451.3,407c2,0,3.5-1.6,3.5-3.5c0-2-1.6-3.5-3.5-3.5c-2,0-3.5,1.6-3.5,3.5C447.7,405.4,449.3,407,451.3,407z"
		/>
	<path class="st4" d="M460.1,407c2,0,3.5-1.6,3.5-3.5c0-2-1.6-3.5-3.5-3.5c-2,0-3.5,1.6-3.5,3.5C456.6,405.4,458.2,407,460.1,407z"
		/>
	<path class="st4" d="M469,407c2,0,3.5-1.6,3.5-3.5c0-2-1.6-3.5-3.5-3.5c-2,0-3.5,1.6-3.5,3.5C465.4,405.4,467,407,469,407z"/>
	<path class="st4" d="M442.4,516.6c2,0,3.5-1.6,3.5-3.5c0-2-1.6-3.5-3.5-3.5c-2,0-3.5,1.6-3.5,3.5
		C438.9,515,440.5,516.6,442.4,516.6z"/>
	<path class="st4" d="M451.3,516.6c2,0,3.5-1.6,3.5-3.5c0-2-1.6-3.5-3.5-3.5c-2,0-3.5,1.6-3.5,3.5
		C447.7,515,449.3,516.6,451.3,516.6z"/>
	<path class="st4" d="M460.1,516.6c2,0,3.5-1.6,3.5-3.5c0-2-1.6-3.5-3.5-3.5c-2,0-3.5,1.6-3.5,3.5
		C456.6,515,458.2,516.6,460.1,516.6z"/>
	<path class="st4" d="M469,516.6c2,0,3.5-1.6,3.5-3.5c0-2-1.6-3.5-3.5-3.5c-2,0-3.5,1.6-3.5,3.5C465.4,515,467,516.6,469,516.6z"/>
	<path class="st10" d="M253.3,459.4c2,0,3.5-1.6,3.5-3.5s-1.6-3.5-3.5-3.5c-2,0-3.5,1.6-3.5,3.5S251.4,459.4,253.3,459.4z"/>
	<path class="st4" d="M190.9,513c2,0,3.5-1.6,3.5-3.5s-1.6-3.5-3.5-3.5c-2,0-3.5,1.6-3.5,3.5S188.9,513,190.9,513z"/>
	
		<linearGradient id="SVGID_2_" gradientUnits="userSpaceOnUse" x1="547.6706" y1="152.9534" x2="547.6706" y2="532.6057" gradientTransform="matrix(1 0 0 -1 0 900)">
		<stop  offset="0" style="stop-color:#808080;stop-opacity:0.25"/>
		<stop  offset="0.54" style="stop-color:#808080;stop-opacity:0.12"/>
		<stop  offset="1" style="stop-color:#808080;stop-opacity:0.1"/>
	</linearGradient>
	<path class="st11" d="M595.4,508.1l-0.6-4.2l-2.1-14l-6.5-31c0.8-8.6-1-13.5-3-16.3c0.5-2.8,0.9-5.6,1.2-8.3
		c1.4-12.1,0.8-24.4-1.9-36.3c-0.9-4.2-2.2-8.4-5.1-11.6c-1.1-1.2-2.5-2.3-3.9-3.3c-2.6-2-5.2-4-6-7.1c-0.1-0.5-0.2-1-0.3-1.4
		c-0.1-0.7-0.2-1.4-0.5-2.1c-1.2-3.1-5-4.2-8.3-4.6c-4.4-0.5-10.3-1-15.4-0.2c-1.6,0.2-3.1,0.6-4.4,1.1c-0.1,0-0.2,0.1-0.3,0.1
		c-1.3,0.5-2.6,1.3-4,2.3c-3,2.2-6,5.3-7.5,8.5c-1.3,2.2-1.8,4.5-1.3,6.7c0.2,0.7,0.4,1.3,0.8,2v0c0,0.1,0.1,0.2,0.2,0.3
		c-0.1,0.1-0.1,0.3-0.1,0.4c0,0.1,0,0.1-0.1,0.1v0c-0.4,1.1-0.6,2.2-0.8,3.3c-0.2,1.1-0.3,2.2-0.3,3.3c0,0.5,0,1.1,0.1,1.6v0
		c0.1,1.5,0.4,3.1,0.9,4.5c0,0,0,0,0,0v0c1.7,5.5,5.6,10,10.9,12.6l0,0c0.5,0.2,0.9,0.4,1.4,0.6c0.1,0.4,0.3,0.8,0.3,1.2
		c0.2,0.9,0.4,1.8,0.5,2.7c0,0.1,0,0.1,0,0.2c0,0.3,0,0.6,0,0.9c0,0.2,0,0.3,0,0.5v0c0,0,0,0,0,0c-0.1,1.4-0.2,2.9-0.2,4.3
		c-0.1,0.3-0.1,0.5-0.2,0.8c-4.7,2.1-9.2,4.4-13.6,7c0.5,0.8,0.8,1.9,1,3.2v0c0,0.2,0.1,0.5,0.1,0.7c0,0,0,0,0,0
		c0.8,7.6-1.7,21.1-1.7,21.1c-3.3,1.9-6.5,5-8.7,8.9c-3,5.4-4,12.1,0,19.2c0.1,0.2,0.2,0.3,0.3,0.5l0,0c0.3,0.4,0.5,0.9,0.8,1.3
		c1,1.5,1.8,3,2.5,4.5c0,0.1,0.1,0.2,0.1,0.2c5,11.3,1.2,22,1.2,22l-1.4,20.9v0l-0.3,4.2h0.1l-0.1,1.6l0.2,0v1.7
		c-1.1,0.4-2.3,0.9-3.5,1.5c-1.4,0.7-2.8,1.5-4.1,2.5c-0.2,0.2-0.5,0.4-0.7,0.5c-1,0.8-1.9,1.6-2.7,2.6c-0.6,0.7-1.2,1.4-1.7,2.2
		c-0.1,0.1-0.1,0.2-0.2,0.3c-0.3,0.4-0.5,0.8-0.8,1.2c-0.5,0.7-1,1.3-1.5,2c-0.8,1-1.7,2-2.7,2.9c-0.2,0.2-0.4,0.3-0.5,0.5
		c-1,0.9-1.6,2.2-1.4,3.6c0.1,1.4,0.9,2.6,2.1,3.2c0.9,0.6,2,1.1,3.2,1.5c0,0,0,0,0,0c2,0.6,4.3,0.9,6.9,0.5
		c1.3-0.2,2.7-0.6,4.1-1.3c1.1-0.5,2.2-1.1,3.3-1.8l0,1.3l0,1.6l-0.1,8c0.1,1.5,0.6,3.9,1.3,6.7c2.7,10.8,8.5,28,8.5,28l6.5,22.4
		c4.7,15.8,7.1,32.2,7.2,48.7c0,5.5,0.5,11.1,2.1,15.3c0.8,2.3,1.2,4.7,1.2,7.1v0.1c0,5.9-1.8,12-3.5,15.9c-0.4,1.1-0.9,2.1-1.2,2.9
		c0,0-0.1,0-0.1,0c-3.1,1-6.3,2-9.6,2.7c-0.3,0.1-0.7,0.2-1,0.3c-0.3,0.1-0.6,0.2-1,0.3l0-0.1c0,0-1.3,0.5-3.1,1.1
		c-3.2,1.1-8.2,2.6-11,2.2c-1-0.1-1.8,0.2-2.5,0.7h0c-1,0.8-1.6,2.2-1.3,3.7c0.1,0.8,0.5,1.5,1.1,2.2c-2.4,0.6-4.9,1.1-6.5,0.9
		c-0.8-0.1-1.5,0.1-2.2,0.4c-2.6,1.6-2.8,6.9,3.8,8.6c8.2,2.1,54.4,0,54.4,0c2.7-1.3,4.1-4.3,3.5-7.2c3.5-0.1,5.8-0.2,5.8-0.2
		s6.3-2.9,2.3-10.4c-0.5-1.1-1.3-2.2-2.3-3.5l-0.4,0.3l-0.9-2.5l-0.9-2.6V713c0,0,10.3-49.6,7.1-55.5c-3.3-5.9-4.9-35.8-4.9-35.8
		l1.1-32.5c2.8-5.8,4.3-14.8,5.1-22.1c0-0.3,0.1-0.7,0.1-1c1.1-3.5,1.8-7.2,2.1-10.9c0.1-1.7,0.2-3.6,0.3-5.5c0-4.2-0.7-8.3-2-12.3
		c3.1-4.5,8.1-11.4,12.3-15.4C597.1,515.5,595.4,508.1,595.4,508.1z M573.6,502.2c0,0.2,0.1,0.4,0.1,0.5c0.5,2,0,3.5-1,4.7
		c0,0,0,0,0,0c-1.3,1.7-3.5,2.7-5.3,3.2c0,0,0,0,0,0l0,0c0,0,0,0,0,0c-0.3-2.8,0.1-5.6,1-8.3c0,0,0,0,0,0c0-0.1,0-0.1,0.1-0.2
		c0.1-0.4,0.3-0.7,0.4-1c0.1-0.3,0.3-0.6,0.4-0.9h0.3c0.8,0,1.6,0,2.4,0c0.4,0,0.8,0,1.2,0c0,0.3,0.1,0.6,0.2,1
		C573.4,501.5,573.5,501.8,573.6,502.2z"/>
	<path class="st1" d="M568.5,717.5l2.1,6.3l-6.8,6.8l-22.5,5.2l-16.2-1.6l1-5.8c0.6-2.5,2.6-4.5,5.1-5.1c6.7-1.6,19.4-5.1,22-10.1
		L568.5,717.5z"/>
	<path class="st12" d="M568.5,717.5l2.1,6.3l-6.8,6.8l-22.5,5.2l-16.2-1.6l1-5.8c0.6-2.5,2.6-4.5,5.1-5.1c6.7-1.6,19.4-5.1,22-10.1
		L568.5,717.5z"/>
	<path class="st13" d="M568.5,717.5l2.1,6.3l-6.8,6.8l-22.5,5.2l-16.2-1.6l1-5.8c0.6-2.5,2.6-4.5,5.1-5.1c6.7-1.6,19.4-5.1,22-10.1
		L568.5,717.5z"/>
	<path class="st14" d="M530.4,732.7l3.1-4.2l-3.1-4.8c0,0-9.4,3.8-13.6,3.3c-4.2-0.5-6.3,6.8,1.6,8.9c7.8,2.1,52.3,0,52.3,0
		s7.8-3.7,0-13.6l-6.8,5.2c0,0-11.5,6.3-17.3,5.2L530.4,732.7z"/>
	<path class="st1" d="M516.2,741.6l16.2,1.6l22.5-5.2l6.8-6.8l-0.6-1.7l-0.8-2.3l-0.8-2.3l-15.2-4.2c-0.8,1.3-1.8,2.3-3.1,3.1
		c-4.9,3.4-13.8,5.8-19,7c-0.2,0.1-0.4,0.1-0.6,0.2c-2.2,0.8-3.9,2.6-4.5,4.9L516.2,741.6z"/>
	<path class="st12" d="M516.2,741.6l16.2,1.6l22.5-5.2l6.8-6.8l-0.6-1.7l-0.8-2.3l-0.8-2.3l-15.2-4.2c-0.8,1.3-1.8,2.3-3.1,3.1
		c-4.9,3.4-13.8,5.8-19,7c-0.2,0.1-0.4,0.1-0.6,0.2c-2.2,0.8-3.9,2.6-4.5,4.9L516.2,741.6z"/>
	<path class="st13" d="M516.2,741.6l16.2,1.6l22.5-5.2l6.8-6.8l-0.6-1.7l-6.2,4.8c0,0-11.5,6.3-17.3,5.2h-16.2l3.1-4.2l-2.8-4.3
		c-2.2,0.8-3.9,2.6-4.5,4.9L516.2,741.6z"/>
	<path class="st14" d="M521.5,740l3.1-4.2l-3.1-4.8c0,0-9.4,3.8-13.6,3.3c-4.2-0.5-6.3,6.8,1.6,8.9c7.8,2.1,52.3,0,52.3,0
		s7.8-3.7,0-13.6l-6.8,5.2c0,0-11.5,6.3-17.3,5.2L521.5,740z"/>
	<path class="st1" d="M534.5,436.7c0,0,25.1,2.6,21.4-7.8c-1-3-1.3-6.1-0.8-9.2c0.7-3.8,2.2-7.5,4.4-10.6l-23.5,3.7
		c1.4,2.4,2.5,4.9,3.2,7.6C542.1,431.3,534.5,436.7,534.5,436.7z"/>
	<path class="st12" d="M534.5,436.7c0,0,25.1,2.6,21.4-7.8c-1-3-1.3-6.1-0.8-9.2c0.7-3.8,2.2-7.5,4.4-10.6l-23.5,3.7
		c1.4,2.4,2.5,4.9,3.2,7.6C542.1,431.3,534.5,436.7,534.5,436.7z"/>
	<path class="st15" d="M577.4,555.9c0,0-0.5,22.5-5.8,33.5l-1,31.9c0,0,1.6,29.3,4.7,35c3.1,5.8-6.8,54.4-6.8,54.4v8.4
		c0,0-16.8,6.3-21.4-1l4.7-62.2l-2.1-86.3L577.4,555.9z"/>
	<path class="st13" d="M577.4,555.9c0,0-0.5,22.5-5.8,33.5l-1,31.9c0,0,1.6,29.3,4.7,35c3.1,5.8-6.8,54.4-6.8,54.4v8.4
		c0,0-16.8,6.3-21.4-1l4.7-62.2l-2.1-86.3L577.4,555.9z"/>
	<path class="st4" d="M587.9,483.7l3.1,8.4l2.6,17.8c0.7,5-1,10.1-4.7,13.6c-6.3,6.3-14.6,19.3-14.6,19.3l-9.9-29.8
		c0,0,9.9-1.6,8.4-8.4c-1.6-6.8-1.1-19.4-1.1-19.4L587.9,483.7z"/>
	<path class="st16" d="M587.9,483.7l3.1,8.4l2.6,17.8c0.7,5-1,10.1-4.7,13.6c-6.3,6.3-14.6,19.3-14.6,19.3l-9.9-29.8
		c0,0,9.9-1.6,8.4-8.4c-1.6-6.8-1.1-19.4-1.1-19.4L587.9,483.7z"/>
	<path class="st13" d="M541.4,723.7c6.7,10.5,17.2,4.6,19,3.4l-0.8-2.3l-15.2-4.2C543.7,721.9,542.7,722.9,541.4,723.7L541.4,723.7z
		"/>
	<path class="st15" d="M520.4,576.3c0.5,7.3,9.4,34,9.4,34l6.3,21.9c4.5,15.5,6.8,31.6,6.9,47.7c0,5.4,0.5,10.9,2,15
		c4.2,11.5-4.2,27.2-4.2,27.2c7.3,13.1,19.9,4.2,19.9,4.2V718c0,0,9.9-45.5,7.3-54.4c-2.6-8.9-3.7-32.9-3.7-32.9v-43.4
		c8.4-8.3,13.5-19.4,14.4-31.2c0.1-1.7,0.2-3.5,0.3-5.4c0.4-11.8-7.6-25.6-10.8-30.6c-0.8-1.2-1.2-1.9-1.2-1.9l-46.2,18.3l-0.1,0
		v1.8v4L520.4,576.3z"/>
	<path class="st13" d="M536.1,412.6c1.4,2.4,2.5,4.9,3.2,7.6c5.2,2,10.9,1.7,15.9-0.6c0.7-3.8,2.2-7.5,4.4-10.6L536.1,412.6z"/>
	<path class="st1" d="M546.6,420.5c11.3,0,20.4-9.1,20.4-20.4c0-11.3-9.1-20.4-20.4-20.4c-11.3,0-20.4,9.1-20.4,20.4
		C526.2,411.3,535.3,420.5,546.6,420.5z"/>
	<path class="st12" d="M546.6,420.5c11.3,0,20.4-9.1,20.4-20.4c0-11.3-9.1-20.4-20.4-20.4c-11.3,0-20.4,9.1-20.4,20.4
		C526.2,411.3,535.3,420.5,546.6,420.5z"/>
	<path class="st13" d="M520.4,542.3l0.2,0c21.9,4.5,49.5-18.3,49.5-18.3c-0.7-1.2-1.4-2.5-1.9-3.9c-0.8-1.2-1.2-1.9-1.2-1.9
		l-46.2,18.3l-0.1,1.8L520.4,542.3z"/>
	<path class="st4" d="M526.2,436.2c0,0,29.3-17.8,38.7-10.5l13.1,16.8c0,0,8.4,2.6,6.8,19.3l6.2,30.3l-18.8,4.7
		c0,0-11,10.5-2.1,25.6c0,0-27.7,23-49.7,18.3l1.6-24.6c0,0,4.7-13.6-3.7-26.1c-8.4-12.6-0.5-24.6,7.3-29.3
		C525.7,460.7,529.3,440.9,526.2,436.2z"/>
	<path class="st1" d="M524.6,542.8c0,0-11,2.1-16.2,10.5c-1.5,2.5-3.4,4.8-5.5,6.8c-1,0.9-1.5,2.2-1.3,3.5c0.1,1.3,0.8,2.5,2,3.2
		c4.2,2.5,10.9,4,19.5-3C537.7,551.7,524.6,542.8,524.6,542.8z"/>
	<path class="st12" d="M524.6,542.8c0,0-11,2.1-16.2,10.5c-1.5,2.5-3.4,4.8-5.5,6.8c-1,0.9-1.5,2.2-1.3,3.5c0.1,1.3,0.8,2.5,2,3.2
		c4.2,2.5,10.9,4,19.5-3C537.7,551.7,524.6,542.8,524.6,542.8z"/>
	<path class="st13" d="M540.8,446.1c0,0,10.5-1,13.1,26.1c2.6,27.2,6.8,33.5,6.8,33.5s2.6,14.1-3.7,22.5s-18.3,26.1-18.3,26.1
		s-13.1,3.7-15.7-9.4l16.2-30.3c0,0,2.6-10.5-3.7-17.8C529.3,489.5,524.6,440.9,540.8,446.1z"/>
	<path class="st4" d="M539.8,444.5c0,0,10.5-1,13.1,26.1c2.6,27.2,6.8,33.5,6.8,33.5s2.6,14.1-3.7,22.5s-18.3,26.1-18.3,26.1
		s-13.1,3.7-15.7-9.4l16.2-30.3c0,0,2.6-10.5-3.7-17.8C528.3,487.9,523.6,439.3,539.8,444.5z"/>
	<path class="st13" d="M531.1,464.1c0,0-1,16.2,3.6,25.1c4.7,8.9,4.7,20.4,0,26.7L531.1,464.1z"/>
	<path class="st13" d="M528.5,444.3c0,0,4.2-4.2,16.2-4.7c12-0.5,17.3-4.2,17.3-4.2L528.5,444.3z"/>
	<path class="st13" d="M557.6,373.7c3.2,0.4,6.8,1.5,8,4.5c0.4,1.1,0.4,2.3,0.7,3.4c1.2,4.6,6.3,6.7,9.5,10.2c2.8,3.1,4,7.3,5,11.3
		c2.6,11.7,3.2,23.7,1.9,35.5c-1,8.7-3.1,17.2-3.7,25.9c-0.6,8.7,0.5,17.9,5.2,25.2c2,3.1,4.8,5.9,6.2,9.4c-3,2.4-7.1,2.8-11,2.9
		c-4.5,0.2-9,0.2-13.5,0c-2.4-0.1-4.8-0.2-6.9-1.4c-1.5-1-2.7-2.3-3.6-3.9c-2.6-4.3-3.2-9.6-3.1-14.7c0.1-5.1,0.9-10.1,1-15.2
		c0-2.8-0.2-5.7-1.8-8c-1.1-1.6-2.9-2.7-4.4-4.1c-5.6-5-7.5-12.9-7.7-20.4c-0.2-7.5,1-15,0.4-22.4c-0.2-2.9-1.3-6.4-4.2-7
		c-0.9-0.2-1.9,0-2.7-0.3c-2.3-0.9-2.1-4.1-2.7-6.5c-0.7-2.7-3-4.7-3.7-7.4c-1.5-6.3,6.5-13.9,11.8-16.1
		C543.8,372.5,552,373,557.6,373.7z"/>
	<path class="st17" d="M558.1,372.7c3.2,0.4,6.8,1.5,8,4.5c0.4,1.1,0.4,2.3,0.7,3.4c1.2,4.6,6.3,6.7,9.5,10.2c2.8,3.1,4,7.3,5,11.3
		c2.6,11.7,3.2,23.7,1.9,35.5c-1,8.7-3.1,17.2-3.7,25.9c-0.6,8.7,0.5,17.9,5.2,25.2c2,3.1,4.8,5.9,6.2,9.4c-3,2.4-7.1,2.8-11,2.9
		c-4.5,0.2-9,0.2-13.5,0c-2.4-0.1-4.8-0.2-6.9-1.4c-1.5-1-2.7-2.3-3.6-3.9c-2.6-4.3-3.2-9.6-3.1-14.7c0.1-5.1,0.9-10.1,1-15.2
		c0-2.8-0.2-5.7-1.8-8c-1.1-1.6-2.9-2.7-4.4-4.1c-5.6-5-7.5-12.9-7.7-20.4c-0.2-7.5,1-15,0.4-22.4c-0.2-2.9-1.3-6.4-4.2-7
		c-0.9-0.2-1.9,0-2.7-0.3c-2.3-0.9-2.1-4.1-2.7-6.5c-0.7-2.7-3-4.7-3.7-7.4c-1.5-6.3,6.5-13.9,11.8-16.1
		C544.3,371.4,552.5,372,558.1,372.7z"/>
</g>
</svg>
