<?xml version="1.0" encoding="utf-8"?>
<!-- Generator: Adobe Illustrator 23.0.1, SVG Export Plug-In . SVG Version: 6.00 Build 0)  -->
<svg version="1.1" id="Layer_1" xmlns="http://www.w3.org/2000/svg" xmlns:xlink="http://www.w3.org/1999/xlink" x="0px" y="0px"
	 viewBox="0 0 679.7 1006.4" style="enable-background:new 0 0 679.7 1006.4;" xml:space="preserve">
<style type="text/css">
	.st0{opacity:0.2;}
	.st1{fill:#FFFFFF;}
	.st2{fill:#4DD5DE;fill-opacity:8.000000e-02;}
	.st3{fill:url(#SVGID_1_);}
	.st4{opacity:0.9;}
	.st5{fill:#E5E7EB;}
	.st6{fill:#ECECF3;}
	.st7{fill:#D6D8E0;}
	.st8{fill:url(#SVGID_2_);}
	.st9{fill:#5E81F4;}
	.st10{opacity:0.5;}
	.st11{fill:#585B66;}
	.st12{fill-rule:evenodd;clip-rule:evenodd;fill:url(#SVGID_3_);}
	.st13{fill:#3F3D56;}
	.st14{fill:#F2DEB7;fill-opacity:0.25;}
	.st15{fill:#FABA4A;}
	.st16{fill:#ECA0A0;}
	.st17{fill:#2D293D;}
	.st18{fill:#A0616A;}
	.st19{opacity:0.1;enable-background:new    ;}
	.st20{fill:#F86D70;}
	.st21{opacity:0.1;}
</style>
<g class="st0">
	<path class="st1" d="M81.6,360.4c-22.6,18.4-44.4,38.9-58.1,64.9c-20.2,38.2-19.9,86.1,0.8,121.5c17.5,30,47.1,49.5,72.4,72.7
		c31.2,28.5,56.4,63.3,80.3,98.7c12.8,19,25.8,38.7,44.5,51.4c26,17.7,61.1,19.4,91.7,8.1c30.6-11.3,56.9-34.7,75.7-62.6
		c10-14.8,18.3-31.5,19.5-49.1c1.3-18.6-5.5-36.6-4.1-55.2c1.3-17.3,9.5-33.6,19.1-48.2c12.5-19.2,27.7-36.4,45-51.4
		c19.7-16.9,41.8-30.4,61.5-47.1c19.7-16.8,37.6-38,43.8-63.2c5.8-23.7,0.7-48-5.5-70.9c-10.1-37.3-23.2-73.8-39.2-109
		c-10.7-23.6-23-46.9-41-64.9c-34.4-34.5-89.1-45.9-136.3-28.3c-39.1,14.6-70.8,46.2-98,79.4c-24.8,30.2-47.5,68.6-79.7,91.1
		C143.5,319.5,111.1,336.4,81.6,360.4z"/>
	<path class="st2" d="M81.6,360.4c-22.6,18.4-44.4,38.9-58.1,64.9c-20.2,38.2-19.9,86.1,0.8,121.5c17.5,30,47.1,49.5,72.4,72.7
		c31.2,28.5,56.4,63.3,80.3,98.7c12.8,19,25.8,38.7,44.5,51.4c26,17.7,61.1,19.4,91.7,8.1c30.6-11.3,56.9-34.7,75.7-62.6
		c10-14.8,18.3-31.5,19.5-49.1c1.3-18.6-5.5-36.6-4.1-55.2c1.3-17.3,9.5-33.6,19.1-48.2c12.5-19.2,27.7-36.4,45-51.4
		c19.7-16.9,41.8-30.4,61.5-47.1c19.7-16.8,37.6-38,43.8-63.2c5.8-23.7,0.7-48-5.5-70.9c-10.1-37.3-23.2-73.8-39.2-109
		c-10.7-23.6-23-46.9-41-64.9c-34.4-34.5-89.1-45.9-136.3-28.3c-39.1,14.6-70.8,46.2-98,79.4c-24.8,30.2-47.5,68.6-79.7,91.1
		C143.5,319.5,111.1,336.4,81.6,360.4z"/>
</g>
<g class="st0">
	<path class="st1" d="M829.8,581.4c36.3-22.8,71.9-49,96.6-84.4c36.4-52.1,44.5-122.3,20.6-177.7c-20.3-47-60-80.8-92.8-119.2
		c-40.4-47.3-71.1-102.6-99.6-158.6c-15.3-30.1-30.7-61.2-55.8-83.1C664-72.1,613-81,566.2-69.9c-46.8,11.1-89.3,40.6-121.8,77.8
		c-17.3,19.8-32.4,42.8-37.3,68.3c-5.2,27,1.4,54.5-4,81.4c-5,25-19.9,47.3-36.6,67.1c-21.7,25.7-47,48.3-75,67
		c-31.8,21.2-66.6,36.9-98.4,57.8c-31.8,20.9-61.7,48.7-75.3,84.5c-12.7,33.6-9.7,70.1-4.7,104.6c8,56.4,20.7,112,37.7,166.3
		c11.5,36.4,25.2,72.6,48.2,102.2c44,56.6,121.9,83,194.1,65.8c59.8-14.3,111.7-54.9,157.4-98.4c41.7-39.7,81.7-91.8,132.7-118.8
		C732.1,630,782.5,611.2,829.8,581.4z"/>
	<path class="st2" d="M829.8,581.4c36.3-22.8,71.9-49,96.6-84.4c36.4-52.1,44.5-122.3,20.6-177.7c-20.3-47-60-80.8-92.8-119.2
		c-40.4-47.3-71.1-102.6-99.6-158.6c-15.3-30.1-30.7-61.2-55.8-83.1C664-72.1,613-81,566.2-69.9c-46.8,11.1-89.3,40.6-121.8,77.8
		c-17.3,19.8-32.4,42.8-37.3,68.3c-5.2,27,1.4,54.5-4,81.4c-5,25-19.9,47.3-36.6,67.1c-21.7,25.7-47,48.3-75,67
		c-31.8,21.2-66.6,36.9-98.4,57.8c-31.8,20.9-61.7,48.7-75.3,84.5c-12.7,33.6-9.7,70.1-4.7,104.6c8,56.4,20.7,112,37.7,166.3
		c11.5,36.4,25.2,72.6,48.2,102.2c44,56.6,121.9,83,194.1,65.8c59.8-14.3,111.7-54.9,157.4-98.4c41.7-39.7,81.7-91.8,132.7-118.8
		C732.1,630,782.5,611.2,829.8,581.4z"/>
</g>
<linearGradient id="SVGID_1_" gradientUnits="userSpaceOnUse" x1="386.2416" y1="153" x2="386.2416" y2="749" gradientTransform="matrix(1 0 0 -1 0 900)">
	<stop  offset="0" style="stop-color:#808080;stop-opacity:0.25"/>
	<stop  offset="0.54" style="stop-color:#808080;stop-opacity:0.12"/>
	<stop  offset="1" style="stop-color:#808080;stop-opacity:0.1"/>
</linearGradient>
<path class="st3" d="M536.4,286.2h-1.8v-96.6c0-21.3-17.5-38.6-39.2-38.6H275.9c-21.6,0-39.2,17.3-39.2,38.6v40h-0.1h-0.4
	c-1.3,0-2.3,1-2.3,2.3v19.3c0,1.3,1,2.3,2.3,2.3h0.4h0.1v19.7H236c-0.6,0-1.2,0.2-1.6,0.7c-0.4,0.4-0.7,1-0.7,1.6v36.9
	c0,1.3,1,2.3,2.3,2.3h0.7V329h-0.6c-0.6,0-1.2,0.2-1.6,0.7c-0.4,0.4-0.7,1-0.7,1.6v37.2c0,0.6,0.3,1.2,0.7,1.6
	c0.4,0.4,1,0.7,1.6,0.7h0.6v337.7c0,21.3,17.5,38.6,39.2,38.6h219.5c21.6,0,39.2-17.3,39.2-38.6v-350h1.8c1.3,0,2.3-1,2.3-2.3v-67.7
	C538.7,287.2,537.7,286.2,536.4,286.2z"/>
<g class="st4">
	<path class="st5" d="M529.3,287.4h4.1c1.3,0,2.3,1,2.3,2.3v66.7c0,1.3-1,2.3-2.3,2.3h-4.1c-1.3,0-2.3-1-2.3-2.3v-66.7
		C527,288.4,528.1,287.4,529.3,287.4z"/>
	<path class="st5" d="M240.9,231.6h0.3c1.3,0,2.3,1,2.3,2.3v18.9c0,1.3-1,2.3-2.3,2.3h-0.3c-1.3,0-2.3-1-2.3-2.3v-18.9
		C238.6,232.6,239.6,231.6,240.9,231.6z"/>
	<path class="st5" d="M240.7,274.5h0.9c1.3,0,2.3,1,2.3,2.3V313c0,1.3-1,2.3-2.3,2.3h-0.9c-1.3,0-2.3-1-2.3-2.3v-36.2
		C238.4,275.5,239.4,274.5,240.7,274.5z"/>
	<path class="st5" d="M240.8,329.6h0.6c1.3,0,2.3,1,2.3,2.3v36.6c0,1.3-1,2.3-2.3,2.3h-0.6c-1.3,0-2.3-1-2.3-2.3v-36.6
		C238.5,330.6,239.5,329.6,240.8,329.6z"/>
	<path class="st1" d="M277.3,154h218.4c19.9,0,36,16.1,36,36v518.8c0,19.9-16.1,36-36,36H277.3c-19.9,0-36-16.1-36-36V190
		C241.3,170.2,257.5,154,277.3,154z"/>
	<path class="st5" d="M362.4,171.6h32.8c2.1,0,3.9,1.7,3.9,3.9v0.5c0,2.1-1.7,3.9-3.9,3.9h-32.8c-2.1,0-3.9-1.7-3.9-3.9v-0.5
		C358.5,173.3,360.3,171.6,362.4,171.6z"/>
	<path class="st5" d="M409.9,180.3c2.6,0,4.7-2.1,4.7-4.7c0-2.6-2.1-4.7-4.7-4.7c-2.6,0-4.7,2.1-4.7,4.7
		C405.2,178.3,407.3,180.3,409.9,180.3z"/>
</g>
<path class="st6" d="M490.7,170h-33.2v4c0,10.4-8.5,18.9-19,18.9H332.8c-10.5,0-19-8.5-19-18.9v-4h-31.1c-12.7,0-23,10.3-23,23V704
	c0,12.7,10.3,23,23,23h208c12.7,0,23-10.3,23-23V193C513.7,180.3,503.4,170,490.7,170z"/>
<rect x="279.7" y="213" class="st7" width="42" height="42"/>
<rect x="351.7" y="216" class="st7" width="86" height="7"/>
<rect x="350.7" y="230" class="st7" width="142" height="7"/>
<rect x="350.7" y="243" class="st7" width="142" height="7"/>
<rect x="279.7" y="287" class="st7" width="42" height="42"/>
<rect x="351.7" y="292" class="st7" width="86" height="7"/>
<rect x="350.7" y="305" class="st7" width="142" height="7"/>
<rect x="350.7" y="319" class="st7" width="142" height="7"/>
<rect x="280.7" y="363" class="st7" width="42" height="42"/>
<rect x="351.7" y="367" class="st7" width="86" height="7"/>
<rect x="350.7" y="380" class="st7" width="142" height="7"/>
<rect x="350.7" y="393" class="st7" width="142" height="7"/>
<rect x="280.7" y="437" class="st7" width="42" height="42"/>
<rect x="352.7" y="442" class="st7" width="86" height="7"/>
<rect x="351.7" y="455" class="st7" width="142" height="7"/>
<rect x="351.7" y="469" class="st7" width="142" height="7"/>
<rect x="280.7" y="513" class="st7" width="42" height="42"/>
<rect x="352.7" y="518" class="st7" width="86" height="7"/>
<rect x="351.7" y="531" class="st7" width="142" height="7"/>
<rect x="351.7" y="544" class="st7" width="142" height="7"/>
<rect x="280.7" y="589" class="st7" width="42" height="42"/>
<rect x="352.7" y="592" class="st7" width="86" height="7"/>
<rect x="351.7" y="606" class="st7" width="142" height="7"/>
<rect x="351.7" y="619" class="st7" width="142" height="7"/>
<rect x="281.7" y="663" class="st7" width="42" height="42"/>
<rect x="352.7" y="668" class="st7" width="86" height="7"/>
<rect x="351.7" y="681" class="st7" width="142" height="7"/>
<rect x="351.7" y="695" class="st7" width="142" height="7"/>
<linearGradient id="SVGID_2_" gradientUnits="userSpaceOnUse" x1="387.7416" y1="476" x2="387.7416" y2="563" gradientTransform="matrix(1 0 0 -1 0 900)">
	<stop  offset="0" style="stop-color:#808080;stop-opacity:0.25"/>
	<stop  offset="0.54" style="stop-color:#808080;stop-opacity:0.12"/>
	<stop  offset="1" style="stop-color:#808080;stop-opacity:0.1"/>
</linearGradient>
<rect x="212.7" y="337" class="st8" width="350" height="87"/>
<rect x="214.7" y="340" class="st1" width="347" height="82"/>
<rect x="280.7" y="360" class="st9" width="42" height="42"/>
<g class="st10">
	<rect x="352.2" y="362.3" class="st11" width="85.9" height="7.8"/>
	<rect x="352.2" y="375.9" class="st11" width="141.5" height="7.8"/>
	<rect x="352.2" y="389.5" class="st11" width="141.5" height="7.8"/>
</g>
<linearGradient id="SVGID_3_" gradientUnits="userSpaceOnUse" x1="213.7415" y1="312.9999" x2="339.7416" y2="312.9999" gradientTransform="matrix(1 0 0 -1 0 900)">
	<stop  offset="0" style="stop-color:#808080;stop-opacity:0.25"/>
	<stop  offset="0.54" style="stop-color:#808080;stop-opacity:0.12"/>
	<stop  offset="1" style="stop-color:#808080;stop-opacity:0.1"/>
</linearGradient>
<path class="st12" d="M328.6,411.2c2.6-1.6,6.3-0.9,8.5,1.3c2.1,2.3,3.1,5.4,2.6,8.5c-0.1,1.4-0.7,2.7-1.6,3.8
	c-0.9,1-2.2,1.6-3.4,2.2c-0.4,0.2-0.7,0.3-1.1,0.5c-4.1,2.1-7.2,5.6-8.7,9.9c-1.2,3.4-1.9,6.9-2.7,10.4c-0.9,4.5-1.9,8.9-3.8,13.2
	c-1.3,2.8-2.6,5.6-4,8.4c-2.3,4.6-4.5,9.2-6.4,14c-0.4,1-0.7,1.9-1.1,2.9c-1.3,3.4-2.5,6.9-4.4,10c-1.2,2-2.7,3.7-4.5,5.1
	c0.2,2.8,0.2,5.6,0.2,8.4c-1.1,0-2.2,0.5-2.8,1.4c-0.6,0.9-1,1.9-1.2,3c-0.6,2.3-0.5,4.7-0.4,7.1c0.1,2.3,0.2,4.6-0.3,6.8
	c-2.7,12.7-1.9,25.9,2.4,38.2c1.1,3.1,2.5,13.4,1.3,16.5c-3.4-0.4-6.5,1.2-9.6,2.7c-0.9,0.4-1.8,0.9-2.7,1.3
	c-0.3,2.4-0.1,4.9,0.6,7.3c1.4,4.2,1.4,8.8,1.4,13.3l-0.2,33.1c0,4.2-0.1,8.4-1.1,12.5c-0.4,1.5-0.9,3-1.5,4.5
	c-1.1,3.1-2.2,6.3-2.2,9.5c0.1,5-1,9.8-2.2,14.7c-1.2,5.1-2.3,10.1-2.1,15.2c0.1,1.3,0.2,2.6,0.3,3.9c0.1,0.6,0.1,1.2,0.2,1.9
	c0.5,5.1,0.4,10.3-0.4,15.4c-0.5,3.4-1.2,6.7-2,10.1c-1.5,6.7-3,13.4-2.4,20.2c0.1,0.7,0.3,1.6,1,1.9c-0.8,0.9-1.7,1.8-2.5,2.7
	c0.2,0.3,0.4,0.5,0.7,0.7c1,0.5,2,0.8,3.1,0.8c1.3,0,2.5,0.4,3.5,1.1c0.8,0.7,1.3,1.7,1.5,2.7c0.6,2,0.2,4.2-1,6
	c-0.7,0.9-1.7,1.6-2.7,2c-3.7,1.6-8,0.4-11.9-0.7l-15.1-4.6c-0.9-0.2-1.8-0.6-2.5-1.3c-0.3-0.4-0.5-0.8-0.6-1.3
	c-3.4,0.8-7.1-0.2-10.5-1.2l-15.2-4.6c-0.9-0.2-1.8-0.6-2.5-1.3c-0.6-0.7-0.8-1.5-0.6-2.4l-0.3-0.1c-1.2-0.5-2.5-1.5-2.1-2.8
	c0.1-0.4,0.4-0.8,0.7-1.1c0.2-0.3,0.5-0.5,0.6-0.9c0.3-1,0.1-2-0.6-2.8c-0.3-0.4-0.6-0.7-0.9-1c-0.4-0.4-0.8-0.8-1.1-1.3
	c-1.5-2.3-0.8-5.2-0.2-8c0.1-0.4,0.2-0.9,0.3-1.3c0.8-3.7,0.7-7.5,0.7-11.3c0-3.1-0.1-6.2,0.3-9.2c0.2-1.6,0.5-3.1,0.9-4.7
	c0.1-0.7,0.3-1.4,0.4-2.1c0.9-5.4,1.6-10.8,1.9-16.2c0.2-2.5,0.5-4.9,0.9-7.4c0.7-5.3,1.5-10.5,0.6-15.7c-0.6-4.5-0.9-9.1-0.8-13.6
	c-0.1-2.9,0-5.8,0.4-8.7c0.1-1,0.3-1.9,0.5-2.9c0.2-1.2,0.5-2.3,0.6-3.5c0.2-2.4,0.2-4.9,0.1-7.3c-0.1-5.4,0.4-10.8,1.5-16.1
	c0.7-3.3,1.7-6.6,2.8-9.8c1.2-3.9,2.4-7.8,3.2-11.8l-1.3,0.3c0-4.6,3.2-13.5,5.4-19.6c0.5-1.4,0.9-2.6,1.3-3.6
	c0.3-0.7,0.4-1.3,0.5-2.1c-0.1-0.9-0.3-1.8-0.5-2.7c-0.1-1.2,0.2-2.3,0.6-3.5c0.2-0.7,0.4-1.5,0.5-2.2c0.1-1.4,0-2.7-0.3-4.1
	c-1.3-7.1-2.9-14.2-4.5-21.3l0-0.1c-0.7-2.6-1-5.2-0.7-7.9c0.4-2.9-0.5-5.7-2.4-7.9c-0.7-0.6-1.3-1.4-1.8-2.2
	c-0.3-0.7-0.4-1.5-0.4-2.2c0-3.3,0.5-6.6,1.4-9.7c-1.4-2.6-1.9-5.7-2.3-8.7l0-0.1c-0.9-6.5-1.8-13.1-1.8-19.6
	c-0.1-3.5,0.4-7,1.4-10.4c0.8-2.1,1.7-4.1,2.8-6c0.8-1.5,1.5-2.9,2.3-4.4c3.5-6.7,7-13.6,11.4-19.7c1.2-1.7,1-3.8,0.7-6
	c-0.1-0.7-0.2-1.5-0.2-2.2c-0.1-3.4,1.2-6.6,2.5-9.7c0.7-1.9,1.7-3.7,3-5.2c0.9-1,2.2-1.6,3.5-1.6c1.5,0.2,2.9,1,3.8,2.3
	c2,2.7,2.8,6,2.3,9.3c-0.5,3.2-1.9,6.3-4.1,8.8c-1,1.3-2.2,2.4-3.5,3.3c-1.3,4.2-2.7,8.4-4,12.6c-2.1,6.7-4.2,13.4-7.2,19.7
	c-0.1,0.2-0.1,0.3-0.2,0.5c-0.8,1.7-1.6,3.4-1.7,5.3c-0.1,1.9,0.6,3.7,1.2,5.5c0.1,0.3,0.2,0.5,0.3,0.8c1.5,4.3,2.4,8.8,2.6,13.4
	c0.2,0.1,0.5,0.2,0.7,0.4c1.2,0.8,2,2,2.8,3.3c0.9,1.3,1.7,2.7,3.1,3.4c1,0.6,2.2,0.7,3.4,0.9c0.6,0.1,1.1,0.2,1.7,0.3l0.5,0.1
	c0-0.1,0-0.2,0.1-0.2c0.1-0.2,0.1-0.5,0.1-0.7c0-0.2,0-0.4,0-0.6c-4.1-2.2-7.6-5.5-10-9.5c-0.5-0.7-0.9-1.5-1.2-2.4
	c-0.2-1-0.3-2.1-0.1-3.1c0.1-3.5,0.6-6.9,1.5-10.3c0.9-3.4,2.7-6.4,5.4-8.7c0.7-0.5,1.4-1,2.1-1.5c0.7-0.5,1.4-0.9,2.1-1.4
	c1-0.8,1.9-1.8,2.8-2.8c1.3-1.5,2.7-2.9,4.4-3.8c3.8-1.9,8.5-0.7,10.9,2.8c0.4,0.8,0.9,1.5,1.6,2c0.2,0.2,0.5,0.3,0.7,0.4
	c0.3,0.1,0.5,0.2,0.8,0.4c0.9,0.7,0.9,2.1,0.7,3.2c-0.6,2.3-0.9,4.6-0.9,6.9c5.4,6.3,5.4,15.5,0,21.8c0,1.5,0,3,0.1,4.5
	c0,0.1,0,0.3,0,0.4c0,0.2,0,0.3,0,0.5c0.9-0.3,1.8-0.9,2.4-1.6c0.4-0.5,0.6-1.1,0.9-1.7c0.3-0.8,0.6-1.5,1.3-2
	c0.8-0.5,1.7-0.9,2.6-1c2.3-0.5,4.5-1.6,6.4-3c0.3-0.2,0.5-0.4,0.8-0.6c1.2-1,2.6-2.1,4-2.3c3-5.6,6.5-10.9,10.5-15.9
	c1-1.2,1.9-2.4,2.7-3.7c1.2-2,1.8-4.3,2.4-6.6c0.3-1.1,0.6-2.2,0.9-3.2c1.4-4.1,3.6-7.9,5.9-11.6c2.8-4.7,5.6-9.3,6.7-14.6
	c0.5-2.4,1.6-4.5,2.8-6.7c0.5-1,1.1-2,1.6-3C325.4,414.7,326.5,412.5,328.6,411.2z M243.8,742.4c-0.3,0.4-0.6,0.8-1,1.1
	c0.2,0.7,0.6,1.3,1.2,1.8c1,0.5,2,0.8,3.1,0.8c0.5,0.1,1.1,0.1,1.6,0.2c0.2-1.3,0.3-2.6,0.4-3.9c0-0.4,0.1-0.7,0.1-1.1
	c0.4-5.4,1.3-10.8,2.1-16.2c0.2-1.5,0.4-3,0.6-4.5c0.6-4.3,1.2-8.7,2.6-12.6c3.1-8.8,6.2-17.8,5.8-27.1c0-1.1-0.1-2.2-0.2-3.3
	c-0.1-1-0.2-2-0.2-3c-0.1-1.8-0.1-3.5-0.1-5.3c0-3.5,0.1-6.9-0.8-10.3c-0.2-0.9-0.5-1.8-0.8-2.8c-0.4-1.3-0.9-2.7-1.1-4.1
	c-0.2-2.1-0.3-4.3-0.1-6.4c0.3-7.3-0.3-14.7-1.8-21.9c-1.5,1.9-2,4.5-2.4,6.9c-1,5.4-2,10.9-3,16.3c-0.2,0.8-0.3,1.6-0.5,2.5
	c-1.6,8.9-3.3,18.2-7.7,26.1c0.7,3.1,1.3,6.4,0.2,9.4c-0.2,0.7-0.6,1.3-0.9,1.9c-0.3,0.6-0.6,1.2-0.9,1.8c-0.6,1.5-0.7,3.2-0.8,4.9
	c0,0.7-0.1,1.3-0.2,2c-0.2,1.5-0.5,2.9-0.7,4.4c-0.7,3.3-1.3,6.6-0.3,9.8c1.5,4.8,2.5,9.7,2.9,14.7c0.1,1.4,0.2,2.8,0.5,4.1
	c0.1,0.6,0.3,1.2,0.4,1.7c0.2,0.6,0.4,1.3,0.5,1.9c0.3,1.8,0.3,3.6-0.2,5.3c-0.4,1-0.6,2-0.7,3C241.5,741.5,242.8,742.2,243.8,742.4
	z"/>
<path class="st13" d="M275.5,754.3c1.3,0,2.5,0.4,3.5,1.2c0.8,0.7,1.3,1.7,1.5,2.7c0.6,2.1,0.2,4.3-1,6c-0.7,0.9-1.6,1.6-2.7,2
	c-3.7,1.6-7.9,0.4-11.8-0.7l-15.1-4.6c-0.9-0.2-1.8-0.6-2.5-1.3c-0.9-1.2-0.9-2.7-0.1-3.9c0.8-1.1,1.9-2,3.2-2.6
	c4.7-2.3,10-2.9,15.2-3c1.9,0,3.8-0.5,5.1,1c0.7,0.8,0.6,1.7,1.6,2.4C273.4,754,274.5,754.3,275.5,754.3z"/>
<path class="st13" d="M247.5,747.3c1.2,0,2.5,0.4,3.5,1.1c0.8,0.7,1.3,1.7,1.5,2.7c0.6,2.1,0.2,4.3-1,6c-0.7,0.9-1.6,1.6-2.7,2.1
	c-3.7,1.6-7.9,0.4-11.8-0.7l-15.1-4.6c-0.9-0.2-1.8-0.6-2.5-1.3c-0.9-1.2-0.9-2.7-0.1-3.9c0.8-1.1,1.9-2,3.2-2.6
	c4.7-2.3,10-2.9,15.2-3c1.9,0,3.8-0.5,5.1,1c0.7,0.8,0.6,1.7,1.6,2.4C245.4,747,246.4,747.2,247.5,747.3z"/>
<path class="st13" d="M260.1,580.9c-8.9-0.9-17.9-1.2-26.8-0.8c-0.6,0-1.2,0.1-1.7,0.3c-2,0.8-2.3,3.4-2.5,5.5
	c-0.8,8.6-4.5,16.6-6.4,25c-1.1,5.3-1.6,10.7-1.5,16.1c0.1,2.4,0.1,4.8-0.1,7.2c-0.2,2.2-0.8,4.3-1.1,6.4c-0.3,2.9-0.5,5.8-0.4,8.7
	c-0.1,4.5,0.2,9.1,0.8,13.6c1.2,7.7-0.9,15.3-1.5,23.1c-0.3,5.4-0.9,10.8-1.8,16.2c-0.4,2.3-1,4.5-1.3,6.8c-0.9,6.8,0.4,13.8-1,20.4
	c-0.7,3.1-1.8,6.6-0.1,9.3c0.6,0.8,1.3,1.5,1.9,2.3c0.7,0.8,0.9,1.9,0.6,2.8c-0.3,0.7-1.1,1.2-1.3,2c-0.3,1.2,1,2.2,2.1,2.8
	c8.7,3.9,19.9,1.2,25.7-6.4c-1-0.2-2.2-0.9-2.3-1.9c0.1-1,0.3-2,0.7-3c0.5-1.7,0.6-3.6,0.2-5.3c-0.2-1.2-0.6-2.4-0.9-3.7
	c-0.2-1.4-0.4-2.8-0.5-4.1c-0.4-5-1.4-9.9-2.9-14.7c-1.4-4.6,0.5-9.3,1-14.2c0.2-2.3,0.1-4.6,0.9-6.8c0.5-1.3,1.2-2.4,1.7-3.7
	c1.1-3,0.4-6.3-0.2-9.4c4.7-8.6,6.3-18.8,8.1-28.5c1-5.4,2-10.8,3-16.3c0.4-2.4,0.9-4.9,2.4-6.9c1.6,7.2,2.2,14.5,1.8,21.9
	c-0.2,2.1-0.2,4.2,0.1,6.4c0.4,2.3,1.3,4.5,1.9,6.8c1.2,5,0.5,10.3,0.8,15.5c0.1,2.1,0.4,4.2,0.5,6.3c0.4,9.3-2.7,18.3-5.8,27
	c-1.9,5.4-2.3,11.5-3.2,17.1c-0.8,5.4-1.7,10.8-2.1,16.2c-0.4,5-0.6,10.4-3.6,14.3c2.8,1.8,5.7,3.7,9,4.4c3.9,0.6,7.8-0.2,11.2-2.2
	c3.3-2,6.3-4.6,8.8-7.5c-0.7-0.2-0.9-1.2-1-1.9c-1-10.2,2.9-20.1,4.3-30.3c0.7-5.1,0.9-10.2,0.4-15.4c-0.2-1.9-0.4-3.8-0.5-5.8
	c-0.4-10.1,4.4-19.8,4.3-29.9c-0.1-4.7,2.4-9.4,3.6-13.9c1.1-4,1.1-8.3,1.1-12.5l0.2-33c0-4.5,0-9-1.4-13.3
	c-1.8-5.1,0.2-10.9,0.6-16.3C277.6,580.6,268.8,581.6,260.1,580.9z"/>
<path class="st1" d="M289.3,488.5c3.4-6.9,7.5-13.5,12.3-19.5c1-1.2,1.9-2.4,2.7-3.7c1.7-3,2.2-6.5,3.3-9.8
	c3-9.2,10.6-16.6,12.5-26.2c0.7-3.5,2.9-6.5,4.4-9.7c1-2.2,2.1-4.4,4.2-5.6c2.6-1.6,6.2-0.9,8.4,1.3c2.1,2.3,3.1,5.4,2.6,8.5
	c-0.1,1.4-0.7,2.7-1.6,3.8c-1.2,1.3-2.9,1.9-4.5,2.7c-4,2.1-7.1,5.6-8.6,9.9c-2.7,7.8-3,16-6.4,23.5c-3.4,7.5-7.4,14.7-10.3,22.4
	c-1.7,4.4-3,8.9-5.4,12.9c-2.4,4-6.3,7.4-10.9,8c0-2.9-0.4-5.8-1.3-8.6C289.6,495.2,287.8,491.4,289.3,488.5z"/>
<path class="st14" d="M289.3,488.5c3.4-6.9,7.5-13.5,12.3-19.5c1-1.2,1.9-2.4,2.7-3.7c1.7-3,2.2-6.5,3.3-9.8
	c3-9.2,10.6-16.6,12.5-26.2c0.7-3.5,2.9-6.5,4.4-9.7c1-2.2,2.1-4.4,4.2-5.6c2.6-1.6,6.2-0.9,8.4,1.3c2.1,2.3,3.1,5.4,2.6,8.5
	c-0.1,1.4-0.7,2.7-1.6,3.8c-1.2,1.3-2.9,1.9-4.5,2.7c-4,2.1-7.1,5.6-8.6,9.9c-2.7,7.8-3,16-6.4,23.5c-3.4,7.5-7.4,14.7-10.3,22.4
	c-1.7,4.4-3,8.9-5.4,12.9c-2.4,4-6.3,7.4-10.9,8c0-2.9-0.4-5.8-1.3-8.6C289.6,495.2,287.8,491.4,289.3,488.5z"/>
<path class="st1" d="M238.7,493.6c0.2-5.7-0.7-11.4-2.6-16.7c-0.7-2.1-1.7-4.1-1.6-6.3c0.1-2,1.1-3.9,2-5.7c3.1-6.3,5.2-13,7.3-19.7
	l4.1-12.6c1.3-1,2.5-2.1,3.6-3.3c2.2-2.5,3.6-5.5,4.1-8.7c0.5-3.3-0.3-6.6-2.3-9.2c-0.9-1.3-2.3-2.1-3.8-2.3c-1.4,0-2.7,0.6-3.6,1.6
	c-1.4,1.5-2.4,3.3-3.1,5.2c-1.3,3.1-2.7,6.3-2.6,9.7c0.1,2.8,1.2,5.9-0.5,8.1c-5.4,7.4-9.5,15.9-13.8,24c-1.1,1.9-2,3.9-2.8,6
	c-1,3.4-1.5,6.9-1.5,10.4c0,6.6,0.9,13.2,1.8,19.7c0.6,4.1,1.3,8.5,4.5,11.3C231.3,500.9,234.6,496.9,238.7,493.6z"/>
<path class="st14" d="M238.7,493.6c0.2-5.7-0.7-11.4-2.6-16.7c-0.7-2.1-1.7-4.1-1.6-6.3c0.1-2,1.1-3.9,2-5.7
	c3.1-6.3,5.2-13,7.3-19.7l4.1-12.6c1.3-1,2.5-2.1,3.6-3.3c2.2-2.5,3.6-5.5,4.1-8.7c0.5-3.3-0.3-6.6-2.3-9.2
	c-0.9-1.3-2.3-2.1-3.8-2.3c-1.4,0-2.7,0.6-3.6,1.6c-1.4,1.5-2.4,3.3-3.1,5.2c-1.3,3.1-2.7,6.3-2.6,9.7c0.1,2.8,1.2,5.9-0.5,8.1
	c-5.4,7.4-9.5,15.9-13.8,24c-1.1,1.9-2,3.9-2.8,6c-1,3.4-1.5,6.9-1.5,10.4c0,6.6,0.9,13.2,1.8,19.7c0.6,4.1,1.3,8.5,4.5,11.3
	C231.3,500.9,234.6,496.9,238.7,493.6z"/>
<path class="st15" d="M259.2,496c9.1,0,16.5-7.4,16.5-16.5s-7.4-16.5-16.5-16.5s-16.5,7.4-16.5,16.5S250.1,496,259.2,496z"/>
<path class="st15" d="M251.3,497.5c-0.4,3-2,5.6-3.6,8.2c-1,1.6-2.1,3.3-4,3.4c4.8,2.5,9.8,4.5,15,6c1.8,0.6,3.6,0.9,5.5,0.9
	c1.6-0.1,3.1-0.5,4.6-1.2c6.4-2.8,11.2-8.3,12.9-15c-2.1,0.1-4.1-0.1-6.1-0.5c-1.1-0.2-2.4-0.5-3-1.5c-0.5-0.8-0.7-1.7-0.6-2.6
	c-0.1-2.7-0.1-5.5,0-8.2c-4.1-0.3-8.2,0.2-12,1.5c-1.6,0.5-3.2,1.1-4.8,1.5c-1,0.2-3.8,0-4.5,0.6
	C249.4,491.5,251.6,495.5,251.3,497.5z"/>
<path class="st16" d="M258.4,507.8c-0.4-4.5-3.6-8.2-7.9-9.3c-1.7-0.4-3.6-0.3-5.1-1.2c-2.6-1.5-3.4-5-5.9-6.7
	c-2.5-1.6-6.1-0.7-8.3,1.4s-3.3,5-4.2,7.9c-1.3,3.9-2.1,8-2.2,12.2c0,0.8,0.1,1.5,0.4,2.2c0.5,0.8,1.1,1.6,1.8,2.2
	c1.9,2.1,2.8,5,2.4,7.8c-0.2,2.6,0,5.3,0.7,7.9c1.6,7.1,3.2,14.1,4.5,21.3c0.3,1.3,0.4,2.7,0.3,4c-0.2,1.9-1.3,3.8-1.1,5.7
	c0.2,0.9,0.4,1.8,0.5,2.7c-0.1,0.7-0.2,1.4-0.5,2c-1.8,5.3-6.7,17.4-6.7,23c8.5-2.2,21.1-2.7,29.9-2.7c2.4,0,4.9,0.1,7.3,0.3
	c5.8,0.6,11.7,2.3,17.3,0.7c5.2-1.5,9.8-5.6,15.2-5.1c1.2-3.1-0.2-13.3-1.3-16.4c-4.3-12.2-5.1-25.3-2.4-38c1-4.5-0.4-9.4,0.7-13.9
	c0.2-1.1,0.6-2.1,1.2-3c0.6-0.9,1.6-1.5,2.7-1.4c0.1-7.3-0.6-14.5-2-21.6c-0.5-2.5-1.6-5.5-4.2-5.9c-2.3-0.4-4.2,1.5-6.1,3
	c-1.9,1.5-4.1,2.5-6.4,3c-0.9,0.1-1.8,0.4-2.6,1c-1.1,0.9-1.3,2.6-2.2,3.7c-1.6,2-5.2,1.8-6.3,4.1c-0.3,0.7-0.5,1.4-0.6,2.1
	c-0.5,1.4-1.5,2.5-2.6,3.4C262.9,506,260.8,507.2,258.4,507.8z"/>
<path class="st17" d="M273.6,462.6c0.3-1.1,0.2-2.4-0.6-3.1c-0.4-0.3-1-0.5-1.5-0.8c-0.7-0.6-1.2-1.2-1.6-2
	c-2.5-3.4-7.1-4.6-10.9-2.7c-2.9,1.5-4.6,4.5-7.2,6.6c-1.3,1.1-2.8,1.8-4.1,2.9c-2.6,2.3-4.5,5.3-5.4,8.6c-0.8,3.3-1.3,6.8-1.4,10.2
	c-0.1,1-0.1,2.1,0.1,3.1c0.3,0.8,0.7,1.6,1.2,2.4c2.6,4,6.1,7.6,10.5,9.7c4.4,2.1,9.7,2.4,14,0.2c0.4-0.2,0.8-0.5,1.1-0.9
	c0.2-0.6,0.3-1.2,0.2-1.8c-0.2-2.4,0.3-4.9,1.4-7.1c0.8-1.6,2-3,2.6-4.6c0.6-1.9,0.8-3.8,0.8-5.7
	C272.7,472.4,272.3,467.4,273.6,462.6z"/>
<rect x="280.7" y="360" class="st11" width="42" height="42"/>
<path class="st18" d="M307.1,394.8c-0.6,1.3-1.5,2.2-2.7,2.7c-0.7,0.3-1.4,0.4-2.1,0.5c-0.8,0.1-1.6,0-2.3-0.3
	c-1-0.4-1.9-1.2-2.5-2.2c-0.6-1-1.1-2.1-1.4-3.2c-0.2-0.6-0.3-1.2-0.3-1.8c0.6-0.1,1.2-0.4,1.6-1c0.2-0.6,0.2-1.2,0-1.8
	c0-0.2-0.1-0.3-0.1-0.5c-0.1-0.4-0.5-1.1-0.2-1.4c0.3-0.3,0.9-0.3,1.2-0.4c0.8-0.5,1.6-0.9,2.4-1.2c0.8-0.1,1.5-0.1,2.3,0.2
	c0.1,0,0.2,0.1,0.3,0.1c0.1,0.1,0.2,0.2,0.2,0.4c0.2,0.6,0.3,1.3,0.5,1.9c0.1,0.6,0.4,1.2,0.9,1.7c0.4,0.3,0.8,0.6,1.2,0.8l1,0.5
	c0.2,0.1,0.3,0.2,0.5,0.4c0.1,0.2,0.2,0.5,0.2,0.7C307.9,392.1,307.7,393.5,307.1,394.8z"/>
<path class="st19" d="M303.7,387.7c-1.7,1.3-4.4,1.7-6.5,0.7c0-0.1-0.1-0.2-0.1-0.3c-0.1-0.3-0.5-0.8-0.2-1c0.3-0.2,0.9-0.2,1.2-0.3
	c0.8-0.3,1.6-0.6,2.4-0.8c0.8-0.1,1.5,0,2.3,0.1c0.1,0,0.2,0,0.3,0.1c0.1,0.1,0.2,0.1,0.2,0.2C303.4,386.9,303.6,387.3,303.7,387.7z
	"/>
<path class="st18" d="M300.2,389c3,0,5.5-2.5,5.5-5.5s-2.5-5.5-5.5-5.5s-5.5,2.5-5.5,5.5S297.2,389,300.2,389z"/>
<path class="st20" d="M316.7,401h-26.6c-0.8-1.7-1.5-3.5-2.4-5.2c0.1-0.4,0.3-0.8,0.5-1.2c0.2-0.4,0.6-0.6,1.1-0.6
	c0.2,0,0.5,0.1,0.7-0.1c0.2-0.2,0.1-0.3,0.2-0.4c0.1-0.1,0.4-0.1,0.6-0.1c0.5,0,1-0.2,1.3-0.6c0.1-0.1,0.2-0.3,0.3-0.4
	c0.2-0.1,0.4-0.2,0.7-0.2c0.7-0.1,1.1-0.8,1.5-1.2c0.2-0.3,0.6-0.4,1-0.3c0.1,0,0.1,0.1,0.2,0.2c0.1,0.2,0.2,0.4,0.3,0.6
	c0.3,1.3,1,2.5,2.1,3.3c1.2,0.8,2.7,1.1,4.1,0.8c1.4-0.3,2.6-1.3,3.2-2.5c0.4-0.9,0.6-1.9,0.7-3c0-0.1,0-0.1,0-0.1
	c0.7-0.2,1.4,0,1.9,0.4c0.5,0.4,1.1,0.7,1.7,1c0.7,0.3,1.6,0.3,2.1,0.8c0.2,0.2,0.4,0.5,0.6,0.6c0.2,0.1,0.3,0.1,0.5,0.1
	c0.9,0.2,1.7,0.9,2,1.7c0.6,1.3,1,2.6,1.1,4L316.7,401z"/>
<path class="st13" d="M296.3,374.1c-0.4,0.3-0.8,0.7-1,1.2c-0.5,0.8-1.2,1.5-2,2c-0.4,0.1-0.7,0.3-0.9,0.6c-0.1,0.2-0.2,0.4-0.2,0.7
	c-0.2,0.8-0.3,1.6-0.3,2.5c0,0.4,0,0.8,0.2,1.2c0.2,0.4,0.5,0.7,0.6,1c0,0.3,0,0.6-0.1,0.9c-0.1,0.3,0,0.6,0.3,0.8
	c0.2,0.1,0.3,0.1,0.5,0.1c0.8,0.2,1.1,1.2,1.3,2c0.3,0,0.4-0.3,0.5-0.6l0.8-3.9c0.1-0.4,0.3-0.9,0.7-1.1c0.3-0.1,0.6-0.1,0.9,0
	c1.2,0.1,2.1-0.8,3.3-1c0.4-0.1,0.7-0.1,1.1-0.1c0.9,0,1.9,0.4,2.1,1.2c0,0.1,0.1,0.3,0.2,0.4c0.1,0,0.3,0,0.4,0
	c0.6-0.1,0.9,0.6,1.1,1.1l0.6,1.9c0.1,0.3,0.2,0.6,0.6,0.7c0.3,0,0.5-0.2,0.6-0.5c0-0.3,0-0.6-0.1-0.8c-0.3-1.2,0.2-2.5,0.4-3.7
	c0.3-1.2,0.3-2.7-0.6-3.6c-0.3-0.3-0.7-0.6-1-1c-0.3-0.4-0.4-0.8-0.7-1.1c-1.1-1-2.6-1.6-4.1-1.8
	C299.4,372.9,297.7,373.2,296.3,374.1z"/>
<g class="st21">
	<path d="M306.5,384.4c-0.3,0-0.4-0.4-0.5-0.6l-0.6-1.9c-0.2-0.5-0.5-1.1-1-1.1c-0.1,0-0.3,0-0.4,0c-0.1-0.1-0.1-0.2-0.2-0.4
		c-0.2-0.8-1.2-1.2-2-1.2c-0.4,0-0.7,0-1.1,0.1c-1.1,0.2-2,1.1-3.1,1c-0.3-0.1-0.6-0.1-0.8,0c-0.4,0.1-0.6,0.6-0.6,1
		c-0.3,1.3-0.6,2.5-0.8,3.8c-0.1,0.3-0.2,0.6-0.5,0.6c-0.1-0.8-0.4-1.8-1.2-1.9c-0.2,0-0.3,0-0.4-0.1c-0.1-0.1-0.2-0.2-0.2-0.3
		c0,0.1,0,0.2-0.1,0.4c-0.1,0.3,0,0.6,0.3,0.8c0.1,0.1,0.3,0.1,0.4,0.1c0.8,0.2,1.1,1.1,1.2,1.9c0.3,0,0.4-0.3,0.5-0.6
		c0.3-1.3,0.6-2.5,0.8-3.8c0.1-0.4,0.2-0.9,0.6-1c0.3-0.1,0.6-0.1,0.8,0c1.1,0.1,2-0.8,3.1-1c0.3-0.1,0.7-0.1,1.1-0.1
		c0.8,0,1.8,0.4,2,1.2c0,0.1,0,0.3,0.2,0.4c0.1,0,0.3,0,0.4,0c0.5-0.1,0.9,0.6,1,1.1l0.6,1.9c0.1,0.3,0.2,0.6,0.5,0.6
		c0.3,0,0.5-0.2,0.6-0.5c0-0.2,0-0.4-0.1-0.7C306.9,384.3,306.7,384.4,306.5,384.4z"/>
	<path d="M293,382c-0.1-0.4-0.4-0.7-0.5-1c-0.1-0.2-0.2-0.5-0.2-0.7c0,0.1,0,0.3,0,0.4c0,0.4,0,0.8,0.2,1.2c0.1,0.3,0.4,0.5,0.5,0.8
		C293,382.5,293,382.3,293,382z"/>
	<path d="M307.3,379.4c-0.3,1.1-0.5,2.2-0.5,3.3c0.1-0.8,0.3-1.6,0.5-2.4c0.1-0.6,0.2-1.2,0.1-1.8
		C307.4,378.8,307.4,379.1,307.3,379.4z"/>
</g>
<path class="st20" d="M292.5,401h-5.7c0.3-1.7,0.7-3.3,1.3-4.8c0.1-0.2,0.1-0.3,0.2-0.4c0,0,0.1-0.1,0.1-0.1
	c0.2-0.1,0.4-0.2,0.6-0.3c0.2-0.1,0.2-0.3,0.4-0.3c0.6,0,1.3,0.1,1.9,0.3c0.2,0,0.3,0.1,0.5,0.1c0.4,0.2,0.7,0.6,0.8,1
	C293,397.9,292.6,399.5,292.5,401z"/>
</svg>
