<?xml version="1.0" encoding="UTF-8"?><svg id="a" xmlns="http://www.w3.org/2000/svg" viewBox="0 0 10 10"><defs><style>.b{fill:#bdc8da;}</style></defs><path class="b" d="M4.81,.65C2.41,.65,.47,2.6,.47,5s1.95,4.35,4.35,4.35,4.35-1.95,4.35-4.35S7.21,.65,4.81,.65Zm0,7.96c-2,0-3.62-1.62-3.62-3.62S2.82,1.38,4.81,1.38s3.62,1.62,3.62,3.62-1.62,3.62-3.62,3.62Z"/><g><path class="b" d="M7.11,6v.37s-.03,.07-.07,.07H2.82s-.07-.03-.07-.07v-.37s.03-.07,.07-.07H7.04s.07,.03,.07,.07Z"/><path class="b" d="M7.11,3.7v.37s-.03,.07-.07,.07H2.82s-.07-.03-.07-.07v-.37s.03-.07,.07-.07H7.04s.07,.03,.07,.07Z"/><path class="b" d="M6.6,3.27v.22h-.56v-.22s.03-.07,.07-.07h.43s.07,.03,.07,.07h0Z"/><path class="b" d="M3.82,3.27v.22h-.56v-.22s.03-.07,.07-.07h.43s.07,.03,.07,.07h0Z"/><path class="b" d="M4.92,4.99s0-.04,0-.06l.12-.29-.39,.38,.23,.11s.03,.02,.04,.04c0,.02,0,.04,0,.05l-.1,.2,.37-.34-.22-.06s-.04-.02-.04-.04h0Z"/><path class="b" d="M2.94,4.28v1.52h3.97v-1.52H2.94Zm1.22,.87h-.45v-.14h.45v.14Zm1.21-.04l-.72,.66s-.03,.02-.05,.02c-.01,0-.03,0-.04-.01-.03-.02-.04-.05-.02-.08l.21-.45-.26-.12s-.03-.03-.04-.05c0-.02,0-.04,.02-.06l.69-.68s.06-.03,.09,0c.03,.02,.04,.05,.02,.08l-.22,.52,.27,.07s.04,.03,.05,.05c0,.02,0,.05-.02,.07h0Zm.78,.04h-.12v.16h-.14v-.16h-.2v-.14h.2v-.16h.14v.16h.12v.14Z"/></g></svg>