<svg width="20" height="20" viewBox="0 0 20 20" fill="none" xmlns="http://www.w3.org/2000/svg">
	<path fill-rule="evenodd" clip-rule="evenodd" d="M6.14297 3.50311C6.14297 1.99091 7.43309 0.833336 8.93768 0.833336H11.0617C12.5663 0.833336 13.8564 1.99091 13.8564 3.50311V3.8319H18.4956C18.866 3.8319 19.1663 4.1322 19.1663 4.50263C19.1663 4.87307 18.866 5.17336 18.4956 5.17336H17.0424V16.4969C17.0424 18.0091 15.7522 19.1667 14.2476 19.1667H5.75171C4.24712 19.1667 2.95699 18.0091 2.95699 16.4969V5.17336H1.50374C1.1333 5.17336 0.833008 4.87307 0.833008 4.50263C0.833008 4.1322 1.1333 3.8319 1.50374 3.8319H6.14297V3.50311ZM4.29846 5.17336V16.4969C4.29846 17.1928 4.91021 17.8252 5.75171 17.8252H14.2476C15.0891 17.8252 15.7009 17.1928 15.7009 16.4969V5.17336H4.29846ZM12.5149 3.8319H7.48443V3.50311C7.48443 2.80723 8.09619 2.1748 8.93768 2.1748H11.0617C11.9032 2.1748 12.5149 2.80723 12.5149 3.50311V3.8319ZM7.87569 7.82999C8.24613 7.82999 8.54642 8.13029 8.54642 8.50072V14.4979C8.54642 14.8683 8.24613 15.1686 7.87569 15.1686C7.50526 15.1686 7.20496 14.8683 7.20496 14.4979V8.50072C7.20496 8.13029 7.50526 7.82999 7.87569 7.82999ZM12.1237 7.82999C12.4941 7.82999 12.7944 8.13029 12.7944 8.50072V14.4979C12.7944 14.8683 12.4941 15.1686 12.1237 15.1686C11.7532 15.1686 11.4529 14.8683 11.4529 14.4979V8.50072C11.4529 8.13029 11.7532 7.82999 12.1237 7.82999Z" fill="#9C9C9C" />
</svg>
