<svg width="19" height="19" viewBox="0 0 19 19" fill="none" xmlns="http://www.w3.org/2000/svg">
	<path fill-rule="evenodd" clip-rule="evenodd" d="M5.30996 2.66978C5.30996 1.15757 6.60008 0 8.10468 0H10.2287C11.7332 0 13.0234 1.15757 13.0234 2.66978V2.99857H17.6626C18.033 2.99857 18.3333 3.29886 18.3333 3.6693C18.3333 4.03973 18.033 4.34003 17.6626 4.34003H16.2094V15.6636C16.2094 17.1758 14.9192 18.3333 13.4146 18.3333H4.9187C3.41411 18.3333 2.12398 17.1758 2.12398 15.6636V4.34003H0.670732C0.300297 4.34003 0 4.03973 0 3.6693C0 3.29886 0.300297 2.99857 0.670732 2.99857H5.30996V2.66978ZM3.46545 4.34003V15.6636C3.46545 16.3594 4.0772 16.9919 4.9187 16.9919H13.4146C14.2561 16.9919 14.8679 16.3594 14.8679 15.6636V4.34003H3.46545ZM11.6819 2.99857H6.65142V2.66978C6.65142 1.9739 7.26318 1.34146 8.10468 1.34146H10.2287C11.0702 1.34146 11.6819 1.9739 11.6819 2.66978V2.99857ZM7.04268 6.99665C7.41312 6.99665 7.71342 7.29695 7.71342 7.66738V13.6645C7.71342 14.035 7.41312 14.3352 7.04268 14.3352C6.67225 14.3352 6.37195 14.035 6.37195 13.6645V7.66738C6.37195 7.29695 6.67225 6.99665 7.04268 6.99665ZM11.2907 6.99665C11.6611 6.99665 11.9614 7.29695 11.9614 7.66738V13.6645C11.9614 14.035 11.6611 14.3352 11.2907 14.3352C10.9202 14.3352 10.6199 14.035 10.6199 13.6645V7.66738C10.6199 7.29695 10.9202 6.99665 11.2907 6.99665Z" fill="#3E4244" />
</svg>
