<svg width="15" height="17" viewBox="0 0 15 17" fill="none" xmlns="http://www.w3.org/2000/svg">
	<path d="M12.2939 5.53147C12.5923 5.56636 12.829 5.8187 12.8409 6.123V14.434C12.835 15.3565 12.043 16.1944 11.0834 16.213C8.70098 16.2279 6.31857 16.213 3.93616 16.213C3.00546 16.2071 2.16382 15.4122 2.15787 14.434V6.123C2.16381 5.97085 2.18311 5.9293 2.22244 5.85358C2.38869 5.52701 2.89413 5.42756 3.17096 5.70366C3.28081 5.8135 3.3387 5.96639 3.34463 6.12373C3.34463 8.89583 3.32682 11.6679 3.34463 14.4406C3.35057 14.7471 3.61998 15.021 3.93021 15.0269C6.30958 15.0418 8.68838 15.0418 11.0678 15.0269C11.3772 15.021 11.6511 14.7553 11.6541 14.4317V6.12432C11.6652 5.83858 11.8753 5.58252 12.1543 5.538C12.2426 5.5239 12.2649 5.53132 12.2938 5.5328L12.2939 5.53147ZM8.70765 6.71749C8.81601 6.72714 8.84495 6.73827 8.90209 6.76202C9.09654 6.84292 9.24052 7.03292 9.26427 7.24371C9.26798 7.2734 9.26724 7.28082 9.26873 7.31051V12.059C9.25537 12.5117 8.65271 12.8353 8.2794 12.5013C8.17104 12.4048 8.10127 12.2683 8.08495 12.1258C8.08124 12.0961 8.08198 12.0887 8.0805 12.059V7.31049C8.08421 7.20214 8.09386 7.17245 8.11464 7.11457C8.18737 6.90526 8.38554 6.7457 8.6082 6.72121C8.67203 6.71379 8.68687 6.7175 8.70765 6.71824L8.70765 6.71749ZM6.35792 6.71749C6.46554 6.72714 6.49522 6.73827 6.55162 6.76202C6.74607 6.84292 6.89081 7.03292 6.91456 7.24371C6.91753 7.2734 6.91753 7.28082 6.91827 7.31051V12.059C6.90566 12.5073 6.29855 12.8316 5.92894 12.5013C5.82133 12.4048 5.75082 12.2683 5.7345 12.1258C5.73153 12.0961 5.73153 12.0887 5.73079 12.059V7.31049C5.73376 7.20214 5.74415 7.17245 5.76418 7.11457C5.83692 6.90526 6.03509 6.7457 6.25849 6.72121C6.32232 6.71379 6.33716 6.7175 6.35794 6.71824L6.35792 6.71749ZM4.53213 3.15575V1.37598C4.5351 1.26762 4.54549 1.23794 4.56553 1.17929C4.63827 0.969991 4.83643 0.81117 5.05984 0.785938C5.08878 0.782969 5.09694 0.782969 5.12589 0.782227H9.87437C9.8855 0.782969 9.89664 0.782969 9.90777 0.783711C10.0161 0.792617 10.0458 0.804493 10.1022 0.8275C10.2967 0.908399 10.4406 1.0984 10.4644 1.30993C10.4681 1.33887 10.4674 1.34704 10.4688 1.37673V3.15649H13.4361L13.488 3.15872C13.6558 3.18099 13.6988 3.20919 13.7767 3.26411C14.0558 3.4593 14.1092 3.9165 13.8554 4.17032C13.7701 4.25567 13.658 4.3143 13.5392 4.33508C13.494 4.34325 13.4821 4.3425 13.4361 4.34399H1.56619C1.39772 4.33657 1.3517 4.31208 1.26932 4.26532C0.959087 4.08571 0.879667 3.59884 1.14611 3.33164C1.23221 3.24629 1.34354 3.18765 1.46229 3.16687C1.50831 3.15945 1.52019 3.16019 1.56546 3.15797H4.53269L4.53213 3.15575ZM9.27985 3.15575V1.96899H5.71887V3.15575H9.27985Z" fill="#3E4244" />
</svg>
