<?xml version="1.0" encoding="UTF-8"?><svg id="a" xmlns="http://www.w3.org/2000/svg" viewBox="0 0 10 10"><defs><style>.b{fill:#bdc8da;}</style></defs><path class="b" d="M4.98,.58C2.58,.58,.63,2.52,.63,4.93s1.95,4.35,4.35,4.35,4.35-1.95,4.35-4.35S7.38,.58,4.98,.58Zm0,7.96c-2,0-3.62-1.62-3.62-3.62S2.98,1.31,4.98,1.31s3.62,1.62,3.62,3.62-1.62,3.62-3.62,3.62Z"/><g><path class="b" d="M5.15,2.86v.23c0,.16-.12,.28-.27,.3-.81,.08-1.45,.72-1.53,1.53-.02,.16-.14,.27-.3,.27h-.22c.05,1.18,1.03,2.11,2.21,2.11s2.22-1,2.22-2.22-.94-2.16-2.12-2.21h0Zm-.1,3.64c-.79,0-1.42-.64-1.42-1.42s.64-1.43,1.42-1.43,1.43,.64,1.43,1.43-.64,1.42-1.43,1.42Z"/><path class="b" d="M5.05,3.85c-.67,0-1.22,.55-1.22,1.22s.55,1.22,1.22,1.22,1.22-.54,1.22-1.22-.55-1.22-1.22-1.22Zm0,.17c.09,0,.16,.07,.16,.16s-.07,.16-.16,.16-.16-.07-.16-.16,.07-.16,.16-.16Zm-.87,1.19c-.09,0-.16-.07-.16-.16s.07-.16,.16-.16,.16,.07,.16,.16c0,.09-.07,.16-.16,.16Zm.87,.87c-.09,0-.16-.07-.16-.16s.07-.16,.16-.16,.16,.07,.16,.16-.07,.16-.16,.16Zm0-.45c-.3,0-.54-.25-.54-.54s.25-.54,.54-.54,.53,.25,.53,.54-.24,.54-.53,.54Zm1.03-.57c0,.09-.07,.16-.16,.16s-.16-.07-.16-.16,.07-.16,.16-.16,.16,.07,.16,.16Z"/><path class="b" d="M3.15,4.89c.09-.91,.81-1.63,1.72-1.72,.05,0,.09-.04,.09-.09v-.43s-.04-.09-.1-.09c-1.22,.1-2.22,1.1-2.32,2.32,0,.05,.04,.1,.09,.1h.43s.09-.04,.09-.09h0Z"/></g></svg>