<svg width="21" height="21" viewBox="0 0 21 21" fill="none" xmlns="http://www.w3.org/2000/svg">
<g clip-path="url(#clip0_2183_7730)">
<path d="M7.25413 2.12736C7.25413 2.39418 7.35624 2.60897 7.52065 2.75502C7.68136 2.89779 7.88998 2.96487 8.09203 2.96487C8.29409 2.96487 8.5027 2.89779 8.66342 2.75502C8.82782 2.60897 8.92993 2.39418 8.92993 2.12736C8.92993 1.86041 8.82787 1.64549 8.66349 1.49932C8.50278 1.35642 8.29414 1.28926 8.09203 1.28926C7.88993 1.28926 7.68129 1.35642 7.52058 1.49932C7.35619 1.64549 7.25413 1.86041 7.25413 2.12736Z" fill="url(#paint0_linear_2183_7730)" stroke="url(#paint1_linear_2183_7730)" stroke-width="0.4"/>
<path d="M11.0694 2.86237C11.0726 2.70129 11.012 2.54501 10.9004 2.42859C10.7887 2.31218 10.6348 2.2452 10.4738 2.24201L11.0694 2.86237ZM11.0694 2.86237V3.62799V2.86237ZM1.54319 3.6029H4.06462V3.90444C4.06462 4.43818 4.49405 4.87265 5.02784 4.87868V4.8787H5.0301L11.1539 4.87871L11.1562 4.87868C11.69 4.87266 12.1194 4.4382 12.1194 3.90444V3.6029H14.6417C14.672 3.6029 14.6968 3.62778 14.6968 3.65806V9.35609C14.6968 9.70127 14.9757 9.98188 15.3218 9.98188C15.668 9.98188 15.9468 9.70128 15.9468 9.35609L15.9468 3.65806L15.9468 3.65727C15.944 2.93752 15.3616 2.35494 14.6425 2.35209H14.6417H12.0409C11.8298 1.67158 11.1999 1.19532 10.4749 1.19111H10.4738H10.2114C9.83667 0.363217 9.01016 -0.175586 8.09201 -0.175586C7.17457 -0.175586 6.34812 0.363251 5.97337 1.19111L5.71103 1.19111L5.70987 1.19112C4.98412 1.19533 4.35487 1.67164 4.14392 2.35209L1.54315 2.35209L1.54236 2.35209C0.822517 2.35492 0.240024 2.93744 0.23718 3.65727V3.65806L0.237178 19.3073L0.237181 19.3081C0.240004 20.028 0.822525 20.6105 1.54236 20.6133H1.54315H10.5717C10.9166 20.6133 11.1967 20.3332 11.1967 19.9883C11.1967 19.6429 10.9169 19.3625 10.5718 19.3625V19.3625H1.54319C1.51251 19.3625 1.48803 19.338 1.48803 19.3073V3.65806C1.48803 3.62738 1.51251 3.6029 1.54319 3.6029ZM5.31543 2.86237H5.31547L5.31539 2.85841C5.31324 2.74995 5.35408 2.64496 5.42883 2.56702C5.50314 2.48952 5.60495 2.44461 5.71322 2.44201H6.77395H6.93844L6.97019 2.28062L7.0377 1.93747C7.03774 1.93727 7.03779 1.93708 7.03783 1.93688C7.14031 1.43528 7.58068 1.07531 8.09202 1.07531C8.60357 1.07531 9.04446 1.43549 9.14617 1.93668C9.1462 1.93686 9.14624 1.93704 9.14628 1.93722L9.21384 2.28062L9.24559 2.44201H9.41008H10.4716C10.5793 2.44461 10.6818 2.48964 10.756 2.56701L10.756 2.56702C10.8307 2.64497 10.8716 2.74995 10.8694 2.85841L10.8694 2.8584V2.86237V3.62799H5.3154L5.31543 2.86237Z" fill="url(#paint2_linear_2183_7730)" stroke="url(#paint3_linear_2183_7730)" stroke-width="0.4"/>
<path d="M5.54042 7.02998H5.34042V7.22998V8.08079V8.28079H5.54042H12.3444H12.5444V8.08079V7.22998V7.02998H12.3444H5.54042Z" fill="url(#paint4_linear_2183_7730)" stroke="url(#paint5_linear_2183_7730)" stroke-width="0.4"/>
<path d="M3.62856 8.09308H3.62671C3.45012 8.09308 3.29014 7.98637 3.2222 7.82256L3.62856 8.09308ZM3.62856 8.09308C3.8697 8.09208 4.06461 7.89656 4.06461 7.65518C4.06461 7.47794 3.95803 7.31866 3.79409 7.25067L3.79386 7.25058C3.63133 7.18294 3.44235 7.22057 3.31762 7.34529L3.31762 7.3453C3.192 7.47091 3.15446 7.65921 3.2222 7.82256L3.62856 8.09308ZM2.45966 7.17175L2.45953 7.17207C2.26434 7.64395 2.37244 8.18681 2.73416 8.54853L2.73416 8.54853C3.09524 8.9096 3.63809 9.01744 4.11049 8.82241L4.11094 8.82223C4.58245 8.62624 4.8904 8.16598 4.8904 7.65518C4.8904 7.31968 4.75677 6.99856 4.52006 6.76184L4.52006 6.76183C4.28307 6.52484 3.96182 6.39229 3.62671 6.39229C3.11591 6.39229 2.65566 6.70024 2.45966 7.17175Z" fill="url(#paint6_linear_2183_7730)" stroke="url(#paint7_linear_2183_7730)" stroke-width="0.4"/>
<path d="M5.54042 11.2829H5.34042V11.4829V12.3337V12.5337H5.54042H9.79282H9.99282V12.3337V11.4829V11.2829H9.79282H5.54042Z" fill="url(#paint8_linear_2183_7730)" stroke="url(#paint9_linear_2183_7730)" stroke-width="0.4"/>
<path d="M2.45966 11.4247L2.45953 11.425C2.26441 11.8967 2.37229 12.4404 2.73423 12.8015C3.09507 13.1623 3.63789 13.2713 4.11069 13.0753C4.58259 12.88 4.8904 12.4195 4.8904 11.9081C4.8904 11.5734 4.75676 11.2523 4.52019 11.0157C4.28313 10.7778 3.96179 10.6452 3.62671 10.6452C3.11591 10.6452 2.65566 10.9532 2.45966 11.4247ZM3.62789 12.346H3.62671C3.45012 12.346 3.29014 12.2393 3.2222 12.0755L3.22211 12.0753C3.15449 11.9128 3.1921 11.724 3.31731 11.5993L3.31731 11.5993L3.31793 11.5987C3.4426 11.4735 3.63139 11.4359 3.79386 11.5035L3.79409 11.5036C3.9579 11.5715 4.06461 11.7315 4.06461 11.9081C4.06461 12.1497 3.86934 12.3454 3.62789 12.346Z" fill="url(#paint10_linear_2183_7730)" stroke="url(#paint11_linear_2183_7730)" stroke-width="0.4"/>
<path d="M5.54042 15.5349H5.34042V15.7349V16.5857V16.7857H5.54042H8.94283H9.14283V16.5857V15.7349V15.5349H8.94283H5.54042Z" fill="url(#paint12_linear_2183_7730)" stroke="url(#paint13_linear_2183_7730)" stroke-width="0.4"/>
<path d="M3.62671 16.5988V16.5988C3.45012 16.5988 3.29014 16.492 3.2222 16.3282L3.62671 16.5988ZM3.62671 16.5988C3.86854 16.5988 4.06461 16.4022 4.06461 16.1609C4.06461 15.9832 3.95773 15.8237 3.79462 15.7566L3.79386 15.7563C3.63092 15.6884 3.44224 15.7258 3.31793 15.8507L3.31762 15.851C3.192 15.9766 3.15446 16.1649 3.2222 16.3282L3.62671 16.5988ZM2.45966 15.6766L2.45966 15.6766L2.45948 15.6771C2.26447 16.1494 2.37226 16.6923 2.73417 17.0534C3.09528 17.4153 3.63814 17.5231 4.11049 17.3281L4.11094 17.3279C4.58245 17.1319 4.8904 16.6717 4.8904 16.1609C4.8904 15.8254 4.75677 15.5042 4.52006 15.2675C4.28335 15.0308 3.9622 14.8972 3.62671 14.8972C3.11591 14.8972 2.65566 15.2051 2.45966 15.6766Z" fill="url(#paint14_linear_2183_7730)" stroke="url(#paint15_linear_2183_7730)" stroke-width="0.4"/>
<path d="M12.011 19.0467L11.8729 19.1847C10.9575 18.2693 10.4437 17.0287 10.4437 15.735C10.4437 14.4413 10.9575 13.2007 11.8729 12.2861L12.011 19.0467ZM12.011 19.0467L11.8729 19.1847C12.7876 20.0993 14.0281 20.6132 15.3218 20.6132C16.6156 20.6132 17.8561 20.0993 18.7708 19.1847L18.6293 19.0433M12.011 19.0467L18.6293 19.0433M18.6293 19.0433L18.7708 19.1847C19.6862 18.2693 20.2 17.0287 20.2 15.735C20.2 14.4413 19.6862 13.2007 18.7708 12.2861C17.8561 11.3714 16.6156 10.8576 15.3218 10.8576C14.0281 10.8576 12.7876 11.3714 11.873 12.286L18.6293 19.0433ZM12.7569 18.2999L12.757 18.3C13.4371 18.9808 14.3597 19.3624 15.3218 19.3624C16.284 19.3624 17.2066 18.9808 17.8867 18.3L17.8867 18.2999C18.5669 17.6197 18.9493 16.697 18.9493 15.735C18.9493 14.773 18.5669 13.8502 17.8868 13.1701C17.2066 12.4899 16.2839 12.1075 15.3218 12.1075C14.3598 12.1075 13.4371 12.4899 12.7569 13.1701C12.7569 13.1701 12.7569 13.1701 12.7569 13.1701M12.7569 18.2999L11.4944 15.735C11.4944 14.7199 11.8979 13.7463 12.6155 13.0287L12.7569 13.1701M12.7569 18.2999C12.0768 17.6198 11.6944 16.697 11.6944 15.735C11.6944 14.773 12.0768 13.8503 12.7569 13.1701M12.7569 18.2999V13.1701" fill="url(#paint16_linear_2183_7730)" stroke="url(#paint17_linear_2183_7730)" stroke-width="0.4"/>
<path d="M16.1889 14.3657H16.2492L14.5897 16.1049L14.067 15.5584L14.0617 15.553L14.0561 15.5479C13.8133 15.3297 13.4419 15.3355 13.206 15.5618C12.9691 15.7884 12.9483 16.1588 13.1557 16.4107L13.1602 16.4162L13.1651 16.4213L14.1347 17.4419L14.1349 17.4422C14.2531 17.5662 14.417 17.6366 14.5882 17.6366C14.7595 17.6366 14.9234 17.5662 15.0416 17.4422L15.0417 17.4421L17.4698 14.8905L17.4702 14.8908L17.479 14.8801C17.6881 14.6276 17.6654 14.2571 17.43 14.031L17.4296 14.0307C17.193 13.8046 16.8228 13.7988 16.5792 14.0166L16.1889 14.3657Z" fill="url(#paint18_linear_2183_7730)" stroke="url(#paint19_linear_2183_7730)" stroke-width="0.4"/>
</g>
<defs>
<linearGradient id="paint0_linear_2183_7730" x1="7.43828" y1="2.1245" x2="8.72976" y2="2.1245" gradientUnits="userSpaceOnUse">
<stop stop-color="#1E55A9"/>
<stop offset="0.98" stop-color="#2BBFC7"/>
</linearGradient>
<linearGradient id="paint1_linear_2183_7730" x1="7.43828" y1="2.1245" x2="8.72976" y2="2.1245" gradientUnits="userSpaceOnUse">
<stop stop-color="#1E55A9"/>
<stop offset="0.98" stop-color="#2BBFC7"/>
</linearGradient>
<linearGradient id="paint2_linear_2183_7730" x1="0.246908" y1="10.1779" x2="15.7447" y2="10.1779" gradientUnits="userSpaceOnUse">
<stop stop-color="#1E55A9"/>
<stop offset="0.98" stop-color="#2BBFC7"/>
</linearGradient>
<linearGradient id="paint3_linear_2183_7730" x1="0.246908" y1="10.1779" x2="15.7447" y2="10.1779" gradientUnits="userSpaceOnUse">
<stop stop-color="#1E55A9"/>
<stop offset="0.98" stop-color="#2BBFC7"/>
</linearGradient>
<linearGradient id="paint4_linear_2183_7730" x1="5.45586" y1="7.65368" x2="12.3435" y2="7.65368" gradientUnits="userSpaceOnUse">
<stop stop-color="#1E55A9"/>
<stop offset="0.98" stop-color="#2BBFC7"/>
</linearGradient>
<linearGradient id="paint5_linear_2183_7730" x1="5.45586" y1="7.65368" x2="12.3435" y2="7.65368" gradientUnits="userSpaceOnUse">
<stop stop-color="#1E55A9"/>
<stop offset="0.98" stop-color="#2BBFC7"/>
</linearGradient>
<linearGradient id="paint6_linear_2183_7730" x1="2.53717" y1="7.65104" x2="4.69011" y2="7.65104" gradientUnits="userSpaceOnUse">
<stop stop-color="#1E55A9"/>
<stop offset="0.98" stop-color="#2BBFC7"/>
</linearGradient>
<linearGradient id="paint7_linear_2183_7730" x1="2.53717" y1="7.65104" x2="4.69011" y2="7.65104" gradientUnits="userSpaceOnUse">
<stop stop-color="#1E55A9"/>
<stop offset="0.98" stop-color="#2BBFC7"/>
</linearGradient>
<linearGradient id="paint8_linear_2183_7730" x1="5.48757" y1="11.9066" x2="9.79222" y2="11.9066" gradientUnits="userSpaceOnUse">
<stop stop-color="#1E55A9"/>
<stop offset="0.98" stop-color="#2BBFC7"/>
</linearGradient>
<linearGradient id="paint9_linear_2183_7730" x1="5.48757" y1="11.9066" x2="9.79222" y2="11.9066" gradientUnits="userSpaceOnUse">
<stop stop-color="#1E55A9"/>
<stop offset="0.98" stop-color="#2BBFC7"/>
</linearGradient>
<linearGradient id="paint10_linear_2183_7730" x1="2.53717" y1="11.9041" x2="4.69011" y2="11.9041" gradientUnits="userSpaceOnUse">
<stop stop-color="#1E55A9"/>
<stop offset="0.98" stop-color="#2BBFC7"/>
</linearGradient>
<linearGradient id="paint11_linear_2183_7730" x1="2.53717" y1="11.9041" x2="4.69011" y2="11.9041" gradientUnits="userSpaceOnUse">
<stop stop-color="#1E55A9"/>
<stop offset="0.98" stop-color="#2BBFC7"/>
</linearGradient>
<linearGradient id="paint12_linear_2183_7730" x1="5.49813" y1="16.1586" x2="8.94235" y2="16.1586" gradientUnits="userSpaceOnUse">
<stop stop-color="#1E55A9"/>
<stop offset="0.98" stop-color="#2BBFC7"/>
</linearGradient>
<linearGradient id="paint13_linear_2183_7730" x1="5.49813" y1="16.1586" x2="8.94235" y2="16.1586" gradientUnits="userSpaceOnUse">
<stop stop-color="#1E55A9"/>
<stop offset="0.98" stop-color="#2BBFC7"/>
</linearGradient>
<linearGradient id="paint14_linear_2183_7730" x1="2.53717" y1="16.1563" x2="4.69011" y2="16.1563" gradientUnits="userSpaceOnUse">
<stop stop-color="#1E55A9"/>
<stop offset="0.98" stop-color="#2BBFC7"/>
</linearGradient>
<linearGradient id="paint15_linear_2183_7730" x1="2.53717" y1="16.1563" x2="4.69011" y2="16.1563" gradientUnits="userSpaceOnUse">
<stop stop-color="#1E55A9"/>
<stop offset="0.98" stop-color="#2BBFC7"/>
</linearGradient>
<linearGradient id="paint16_linear_2183_7730" x1="10.5274" y1="15.7166" x2="19.9987" y2="15.7166" gradientUnits="userSpaceOnUse">
<stop stop-color="#1E55A9"/>
<stop offset="0.98" stop-color="#2BBFC7"/>
</linearGradient>
<linearGradient id="paint17_linear_2183_7730" x1="10.5274" y1="15.7166" x2="19.9987" y2="15.7166" gradientUnits="userSpaceOnUse">
<stop stop-color="#1E55A9"/>
<stop offset="0.98" stop-color="#2BBFC7"/>
</linearGradient>
<linearGradient id="paint18_linear_2183_7730" x1="13.1608" y1="15.7401" x2="17.4217" y2="15.7401" gradientUnits="userSpaceOnUse">
<stop stop-color="#1E55A9"/>
<stop offset="0.98" stop-color="#2BBFC7"/>
</linearGradient>
<linearGradient id="paint19_linear_2183_7730" x1="13.1608" y1="15.7401" x2="17.4217" y2="15.7401" gradientUnits="userSpaceOnUse">
<stop stop-color="#1E55A9"/>
<stop offset="0.98" stop-color="#2BBFC7"/>
</linearGradient>
<clipPath id="clip0_2183_7730">
<rect width="21" height="21" fill="white"/>
</clipPath>
</defs>
</svg>
