<svg width="22" height="22" viewBox="0 0 22 22" fill="none" xmlns="http://www.w3.org/2000/svg">
<g clip-path="url(#clip0_2183_7718)">
<path d="M7.62616 2.23401C7.62616 2.51146 7.73226 2.73423 7.90265 2.88559C8.06935 3.03368 8.28595 3.10343 8.49599 3.10343C8.70602 3.10343 8.92262 3.03368 9.08932 2.88559C9.25971 2.73423 9.36582 2.51146 9.36582 2.23401C9.36582 1.95641 9.25976 1.73351 9.08939 1.58202C8.92269 1.43379 8.70608 1.36396 8.49599 1.36396C8.2859 1.36396 8.06928 1.43379 7.90258 1.58202C7.73221 1.73351 7.62616 1.95641 7.62616 2.23401Z" fill="#CAD4E3" stroke="#CAD4E3" stroke-width="0.4"/>
<path d="M11.4449 2.5504C11.3277 2.42815 11.1661 2.35782 10.9969 2.35447L11.4449 2.5504ZM11.4449 2.5504C11.5621 2.67264 11.6257 2.83674 11.6224 3.00588L11.4449 2.5504ZM1.61936 3.77347H4.27701V4.10011C4.27701 4.65509 4.72352 5.10684 5.27855 5.11311V5.11313H5.28081L11.7112 5.11314L11.7134 5.11311C12.2685 5.10685 12.715 4.65511 12.715 4.10011V3.77347H15.3735C15.4108 3.77347 15.4414 3.80406 15.4414 3.8414V9.82464C15.4414 10.1816 15.7297 10.4717 16.0877 10.4717C16.4456 10.4717 16.7339 10.1816 16.7339 9.82464L16.7339 3.8414L16.7339 3.84061C16.731 3.09033 16.1239 2.48304 15.3742 2.48008H15.3735H12.6351C12.4169 1.76587 11.7574 1.2654 10.9981 1.26099H10.997H10.715C10.3244 0.391883 9.4583 -0.174121 8.49597 -0.174121C7.5344 -0.174121 6.6684 0.391918 6.27775 1.26099L5.99582 1.26098L5.99466 1.26099C5.2345 1.2654 4.57572 1.76593 4.35766 2.48008L1.61932 2.48007L1.61853 2.48008C0.868155 2.48302 0.260957 3.09025 0.257993 3.84061V3.8414L0.257991 20.274L0.257994 20.2748C0.260937 21.0251 0.868163 21.6323 1.61853 21.6353H1.61932H11.0998C11.4564 21.6353 11.7461 21.3456 11.7461 20.989C11.7461 20.6318 11.4567 20.342 11.0999 20.3419V20.3419H1.61936C1.58162 20.3419 1.55143 20.3117 1.55143 20.274V3.8414C1.55143 3.80366 1.58162 3.77347 1.61936 3.77347ZM5.57041 3.00589H5.57044L5.57037 3.00192C5.56806 2.8854 5.61193 2.77259 5.69226 2.68882C5.77217 2.6055 5.88164 2.55723 5.99801 2.55447H7.11194H7.27643L7.30818 2.39308L7.37909 2.03269C7.37913 2.03247 7.37918 2.03226 7.37922 2.03204C7.4878 1.5007 7.95429 1.11936 8.49598 1.11936C9.03791 1.11936 9.50498 1.50094 9.61271 2.0319C9.61275 2.03208 9.61279 2.03226 9.61282 2.03244L9.68378 2.39308L9.71553 2.55447H9.88002H10.9948C11.1105 2.55724 11.2208 2.60561 11.3005 2.68881L11.3005 2.68882C11.3809 2.7726 11.4247 2.8854 11.4224 3.00192L11.4224 3.00192V3.00588V3.81984H5.57037L5.57041 3.00589Z" fill="#CAD4E3" stroke="#CAD4E3" stroke-width="0.4"/>
<path d="M5.81667 7.39229H5.61667V7.59229V8.48568V8.68568H5.81667H12.9612H13.1612V8.48568V7.59229V7.39229H12.9612H5.81667Z" fill="#CAD4E3" stroke="#CAD4E3" stroke-width="0.4"/>
<path d="M3.80915 8.50829H3.80718C3.6177 8.50829 3.44607 8.3938 3.37318 8.21805L3.80915 8.50829ZM3.80915 8.50829C4.06788 8.50723 4.27701 8.29744 4.27701 8.03846C4.27701 7.84828 4.16265 7.67739 3.98677 7.60446L3.98654 7.60436C3.81212 7.53177 3.60937 7.57216 3.47554 7.70598L3.47554 7.70599C3.34078 7.84074 3.30049 8.04277 3.37317 8.21805L3.80915 8.50829ZM2.59096 7.53467L2.59083 7.53499C2.38741 8.02675 2.50007 8.59248 2.87703 8.96944L3.0084 8.83808L2.87703 8.96944C3.25332 9.34573 3.81904 9.45811 4.31136 9.25486L4.3118 9.25468C4.80319 9.05042 5.12411 8.57077 5.12411 8.03846C5.12411 7.68883 4.98485 7.35418 4.73817 7.10748L4.73817 7.10748C4.4912 6.86051 4.15642 6.72236 3.80718 6.72236C3.27487 6.72236 2.79522 7.04329 2.59096 7.53467Z" fill="#CAD4E3" stroke="#CAD4E3" stroke-width="0.4"/>
<path d="M5.81667 11.8576H5.61667V12.0576V12.951V13.151H5.81667H10.2819H10.4819V12.951V12.0576V11.8576H10.2819H5.81667Z" fill="#CAD4E3" stroke="#CAD4E3" stroke-width="0.4"/>
<path d="M2.59096 12L2.59083 12.0003C2.38748 12.4919 2.49993 13.0586 2.87716 13.4349C3.25323 13.8109 3.81895 13.9245 4.31167 13.7201C4.80338 13.5166 5.12411 13.0367 5.12411 12.5038C5.12411 12.155 4.98486 11.8204 4.73834 11.5738C4.49129 11.3258 4.15641 11.1877 3.80718 11.1877C3.27487 11.1877 2.79522 11.5086 2.59096 12ZM3.8084 12.9736H3.80718C3.6177 12.9736 3.44606 12.8591 3.37317 12.6834L3.37309 12.6832C3.30052 12.5088 3.34088 12.3062 3.47523 12.1725L3.47523 12.1725L3.47585 12.1718C3.60962 12.0375 3.81218 11.9971 3.98654 12.0697L3.98677 12.0698C4.16252 12.1427 4.27701 12.3143 4.27701 12.5038C4.27701 12.763 4.06747 12.973 3.8084 12.9736Z" fill="#CAD4E3" stroke="#CAD4E3" stroke-width="0.4"/>
<path d="M5.81667 16.3229H5.61667V16.5229V17.4163V17.6163H5.81667H9.38937H9.58937V17.4163V16.5229V16.3229H9.38937H5.81667Z" fill="#CAD4E3" stroke="#CAD4E3" stroke-width="0.4"/>
<path d="M3.80718 17.4398V17.4398C3.6177 17.4398 3.44607 17.3253 3.37318 17.1495L3.80718 17.4398ZM3.80718 17.4398C4.06665 17.4398 4.27701 17.2289 4.27701 16.97C4.27701 16.7794 4.16234 16.6082 3.9873 16.5362L3.98654 16.5359C3.81171 16.4631 3.60926 16.5032 3.47585 16.6372L3.47554 16.6375C3.34078 16.7722 3.30049 16.9743 3.37317 17.1495L3.80718 17.4398ZM2.59096 16.4653L2.59096 16.4653L2.59078 16.4658C2.38756 16.958 2.49988 17.5238 2.87701 17.9001C3.25333 18.2773 3.81907 18.3896 4.31136 18.1864L4.3118 18.1862C4.80319 17.9819 5.12411 17.5023 5.12411 16.97C5.12411 16.6203 4.98485 16.2857 4.73817 16.039C4.49148 15.7923 4.1568 15.653 3.80718 15.653C3.27487 15.653 2.79522 15.9739 2.59096 16.4653Z" fill="#CAD4E3" stroke="#CAD4E3" stroke-width="0.4"/>
<path d="M13.3873 19.2232L13.3874 19.2233C14.1034 19.94 15.0748 20.3418 16.0877 20.3418C17.1006 20.3418 18.072 19.94 18.788 19.2233L18.788 19.2232C19.5041 18.5071 19.9067 17.5356 19.9067 16.5228C19.9067 15.51 19.5041 14.5385 18.7881 13.8225C18.0719 13.1064 17.1005 12.7038 16.0877 12.7038C15.0748 12.7038 14.1034 13.1064 13.3873 13.8224C13.3873 13.8224 13.3873 13.8224 13.3873 13.8224M13.3873 19.2232L13.2459 19.3646C12.4923 18.6111 12.0687 17.5887 12.0687 16.5228C12.0687 15.4569 12.4923 14.4346 13.2459 13.681L13.3873 13.8224M13.3873 19.2232C12.6712 18.5071 12.2687 17.5357 12.2687 16.5228C12.2687 15.51 12.6712 14.5386 13.3873 13.8224M13.3873 19.2232V13.8224M12.4732 20.1381L12.6146 19.9967L12.4732 20.1381C13.4318 21.0967 14.7319 21.6352 16.0877 21.6352C17.4435 21.6352 18.7436 21.0966 19.7021 20.1381L19.5607 19.9967L19.7021 20.1381C20.6615 19.1788 21.2 17.8787 21.2 16.5228C21.2 15.167 20.6615 13.8669 19.7021 12.9084C18.7436 11.9498 17.4435 11.4113 16.0877 11.4113C14.7319 11.4113 13.4318 11.9498 12.4733 12.9083C11.5139 13.8668 10.9754 15.167 10.9754 16.5228C10.9754 17.8787 11.5139 19.1787 12.4732 20.1381Z" fill="#CAD4E3" stroke="#CAD4E3" stroke-width="0.4"/>
<path d="M17.0243 15.0753H17.0848L15.3189 16.926L14.7628 16.3446L14.7575 16.3391L14.7519 16.3341C14.5008 16.1085 14.1167 16.1144 13.8728 16.3485C13.6279 16.5827 13.6063 16.9657 13.8208 17.2262L13.8253 17.2317L13.8302 17.2368L14.8483 18.3086L14.8485 18.3088C14.9708 18.4371 15.1403 18.5098 15.3174 18.5098C15.4944 18.5098 15.6639 18.4371 15.7862 18.3088L15.7863 18.3087L18.3359 15.6294L18.3363 15.6297L18.3451 15.619C18.5613 15.3579 18.5378 14.9748 18.2944 14.7411L18.294 14.7407C18.0494 14.507 17.6666 14.5009 17.4147 14.7262L17.0243 15.0753Z" fill="#CAD4E3" stroke="#CAD4E3" stroke-width="0.4"/>
</g>
<defs>
<clipPath id="clip0_2183_7718">
<rect width="22" height="22" fill="white"/>
</clipPath>
</defs>
</svg>
