<svg width="34" height="37" viewBox="0 0 34 37" fill="none" xmlns="http://www.w3.org/2000/svg">
	<g clip-path="url(#clip0_0_2236)">
		<path d="M0 19.54C0 17.3309 1.79086 15.54 4 15.54H25.8103C28.0194 15.54 29.8103 17.3309 29.8103 19.54V34.6931C29.8103 35.3049 29.3839 35.8917 28.6251 36.3243C27.8662 36.757 26.8369 37 25.7637 37H4.04654C2.97333 37 1.94408 36.757 1.1852 36.3243C0.42633 35.8917 0 35.3049 0 34.6931L0 19.54Z" fill="#4ACBD3" />
		<g style="mix-blend-mode:multiply">
			<path d="M30.0017 27.1437C32.2108 27.1437 34.0017 28.9345 34.0017 31.1437V33.0225C34.0017 34.0774 33.5796 35.0891 32.8284 35.835C32.0772 36.5809 31.0583 37 29.9959 37H3.77734C4.83974 37 5.85861 36.5809 6.60984 35.835C7.36106 35.0891 7.78309 34.0774 7.78309 33.0225V31.1437C7.78309 28.9345 9.57396 27.1437 11.7831 27.1437H30.0017Z" fill="#1E55A9" />
		</g>
	</g>
	<path d="M20 11H10C7.79086 11 6 12.7909 6 15C6 17.2091 7.79086 19 10 19H20C22.2091 19 24 17.2091 24 15C24 12.7909 22.2091 11 20 11Z" fill="#4B40D1" />
	<defs>
		<clipPath id="clip0_0_2236">
			<rect width="34" height="37" fill="white" />
		</clipPath>
	</defs>
</svg>
