<svg width="19" height="25" viewBox="0 0 19 25" fill="none" xmlns="http://www.w3.org/2000/svg">
	<path d="M1.52796 25C1.04961 25 0.730713 24.5974 0.730713 23.9936V1.85266C0.730713 1.24881 1.04961 0.846252 1.52796 0.846252C2.00631 0.846252 2.32521 1.24881 2.32521 1.85266V23.9936C2.32521 24.5974 2.00631 25 1.52796 25Z" fill="url(#paint0_linear_1519_7743)" />
	<path d="M14.603 6.88462L18.0313 2.55691C18.2705 2.25499 18.3502 1.85243 18.1907 1.44987C18.111 1.0473 17.7921 0.846024 17.4732 0.846024H1.52821C1.04986 0.846024 0.730957 1.24859 0.730957 1.85243V11.9165C0.730957 12.5203 1.04986 12.9229 1.52821 12.9229H17.4732C17.7921 12.9229 18.111 12.7216 18.1907 12.3191C18.3502 11.9165 18.2705 11.5139 18.0313 11.212L14.603 6.88462Z" fill="url(#paint1_linear_1519_7743)" />
	<defs>
		<linearGradient id="paint0_linear_1519_7743" x1="0.710896" y1="12.8747" x2="2.32499" y2="12.8747" gradientUnits="userSpaceOnUse">
			<stop stop-color="#1E55A9" />
			<stop offset="0.98" stop-color="#2BBFC7" />
		</linearGradient>
		<linearGradient id="paint1_linear_1519_7743" x1="0.512932" y1="6.86022" x2="18.2713" y2="6.86022" gradientUnits="userSpaceOnUse">
			<stop stop-color="#1E55A9" />
			<stop offset="0.98" stop-color="#2BBFC7" />
		</linearGradient>
	</defs>
</svg>
