<svg width="12" height="16" viewBox="0 0 12 16" fill="none" xmlns="http://www.w3.org/2000/svg">
<path d="M0.375 0.9375V15.5625H11.625V0.9375H0.375ZM1.5 2.0625H10.5V14.4375H1.5V2.0625ZM2.625 3.1875V6.5625H9.375V3.1875H2.625ZM3.75 4.3125H8.25V5.4375H3.75V4.3125ZM3.1875 7.6875V8.8125H4.3125V7.6875H3.1875ZM5.4375 7.6875V8.8125H6.5625V7.6875H5.4375ZM7.6875 7.6875V8.8125H8.8125V7.6875H7.6875ZM3.1875 9.9375V11.0625H4.3125V9.9375H3.1875ZM5.4375 9.9375V11.0625H6.5625V9.9375H5.4375ZM7.6875 9.9375V11.0625H8.8125V9.9375H7.6875ZM3.1875 12.1875V13.3125H4.3125V12.1875H3.1875ZM5.4375 12.1875V13.3125H6.5625V12.1875H5.4375ZM7.6875 12.1875V13.3125H8.8125V12.1875H7.6875Z" fill="#3E4244"/>
</svg>
