<svg width="12" height="12" viewBox="0 0 12 12" fill="none" xmlns="http://www.w3.org/2000/svg">
	<path fill-rule="evenodd" clip-rule="evenodd" d="M4.2 0.166664C4.44853 0.166664 4.65 0.367562 4.65 0.615382V1.36325H7.35V0.615382C7.35 0.367562 7.55147 0.166664 7.8 0.166664C8.04853 0.166664 8.25 0.367562 8.25 0.615382V1.36325H9.6C10.5113 1.36325 11.25 2.09987 11.25 3.00854V10.188C11.25 11.0967 10.5113 11.8333 9.6 11.8333H2.4C1.48873 11.8333 0.75 11.0967 0.75 10.188V3.00854C0.75 2.09987 1.48873 1.36325 2.4 1.36325H3.75V0.615382C3.75 0.367562 3.95147 0.166664 4.2 0.166664ZM3.75 2.26068H2.4C1.98579 2.26068 1.65 2.59551 1.65 3.00854V4.95299H10.35V3.00854C10.35 2.59551 10.0142 2.26068 9.6 2.26068H8.25V3.00854C8.25 3.25636 8.04853 3.45726 7.8 3.45726C7.55147 3.45726 7.35 3.25636 7.35 3.00854V2.26068H4.65V3.00854C4.65 3.25636 4.44853 3.45726 4.2 3.45726C3.95147 3.45726 3.75 3.25636 3.75 3.00854V2.26068ZM10.35 5.85043H1.65V10.188C1.65 10.6011 1.98579 10.9359 2.4 10.9359H9.6C10.0142 10.9359 10.35 10.6011 10.35 10.188V5.85043Z" fill="#848588" />
</svg>
