<svg width="14" height="14" viewBox="0 0 14 14" fill="none" xmlns="http://www.w3.org/2000/svg">
	<path d="M3.0625 0.5V1.0625H0.8125V13.4375H13.1875V1.0625H10.9375V0.5H9.8125V1.0625H4.1875V0.5H3.0625ZM1.9375 2.1875H3.0625V2.75H4.1875V2.1875H9.8125V2.75H10.9375V2.1875H12.0625V3.3125H1.9375V2.1875ZM1.9375 4.4375H12.0625V12.3125H1.9375V4.4375ZM5.3125 5.5625V6.6875H6.4375V5.5625H5.3125ZM7.5625 5.5625V6.6875H8.6875V5.5625H7.5625ZM9.8125 5.5625V6.6875H10.9375V5.5625H9.8125ZM3.0625 7.8125V8.9375H4.1875V7.8125H3.0625ZM5.3125 7.8125V8.9375H6.4375V7.8125H5.3125ZM7.5625 7.8125V8.9375H8.6875V7.8125H7.5625ZM9.8125 7.8125V8.9375H10.9375V7.8125H9.8125ZM3.0625 10.0625V11.1875H10.9375V10.0625H3.0625Z" fill="#3E4244" />
</svg>
