<svg width="12" height="12" viewBox="0 0 12 12" fill="none" xmlns="http://www.w3.org/2000/svg">
	<path fill-rule="evenodd" clip-rule="evenodd" d="M4.2 0.166748C4.44853 0.166748 4.65 0.367646 4.65 0.615466V1.36333H7.35V0.615466C7.35 0.367646 7.55147 0.166748 7.8 0.166748C8.04853 0.166748 8.25 0.367646 8.25 0.615466V1.36333H9.6C10.5113 1.36333 11.25 2.09996 11.25 3.00863V10.1881C11.25 11.0968 10.5113 11.8334 9.6 11.8334H2.4C1.48873 11.8334 0.75 11.0968 0.75 10.1881V3.00863C0.75 2.09995 1.48873 1.36333 2.4 1.36333H3.75V0.615466C3.75 0.367646 3.95147 0.166748 4.2 0.166748ZM3.75 2.26077H2.4C1.98579 2.26077 1.65 2.5956 1.65 3.00863V4.95307H10.35V3.00863C10.35 2.59559 10.0142 2.26077 9.6 2.26077H8.25V3.00863C8.25 3.25645 8.04853 3.45735 7.8 3.45735C7.55147 3.45735 7.35 3.25645 7.35 3.00863V2.26077H4.65V3.00863C4.65 3.25645 4.44853 3.45735 4.2 3.45735C3.95147 3.45735 3.75 3.25645 3.75 3.00863V2.26077ZM10.35 5.85051H1.65V10.1881C1.65 10.6012 1.98579 10.936 2.4 10.936H9.6C10.0142 10.936 10.35 10.6012 10.35 10.1881V5.85051Z" fill="#3E4244" />
</svg>
