<svg width="18" height="18" viewBox="0 0 18 18" fill="none" xmlns="http://www.w3.org/2000/svg">
<path d="M9 10.8C9.178 10.8 9.35201 10.7472 9.50001 10.6483C9.64802 10.5494 9.76337 10.4089 9.83149 10.2444C9.89961 10.08 9.91743 9.899 9.88271 9.72442C9.84798 9.54984 9.76226 9.38947 9.6364 9.2636C9.51053 9.13774 9.35016 9.05202 9.17558 9.01729C9.001 8.98257 8.82004 9.00039 8.65558 9.06851C8.49113 9.13663 8.35057 9.25198 8.25168 9.39999C8.15278 9.54799 8.1 9.722 8.1 9.9C8.1 10.1387 8.19482 10.3676 8.3636 10.5364C8.53239 10.7052 8.76131 10.8 9 10.8ZM13.5 10.8C13.678 10.8 13.852 10.7472 14 10.6483C14.148 10.5494 14.2634 10.4089 14.3315 10.2444C14.3996 10.08 14.4174 9.899 14.3827 9.72442C14.348 9.54984 14.2623 9.38947 14.1364 9.2636C14.0105 9.13774 13.8502 9.05202 13.6756 9.01729C13.501 8.98257 13.32 9.00039 13.1556 9.06851C12.9911 9.13663 12.8506 9.25198 12.7517 9.39999C12.6528 9.54799 12.6 9.722 12.6 9.9C12.6 10.1387 12.6948 10.3676 12.8636 10.5364C13.0324 10.7052 13.2613 10.8 13.5 10.8ZM9 14.4C9.178 14.4 9.35201 14.3472 9.50001 14.2483C9.64802 14.1494 9.76337 14.0089 9.83149 13.8444C9.89961 13.68 9.91743 13.499 9.88271 13.3244C9.84798 13.1498 9.76226 12.9895 9.6364 12.8636C9.51053 12.7377 9.35016 12.652 9.17558 12.6173C9.001 12.5826 8.82004 12.6004 8.65558 12.6685C8.49113 12.7366 8.35057 12.852 8.25168 13C8.15278 13.148 8.1 13.322 8.1 13.5C8.1 13.7387 8.19482 13.9676 8.3636 14.1364C8.53239 14.3052 8.76131 14.4 9 14.4ZM13.5 14.4C13.678 14.4 13.852 14.3472 14 14.2483C14.148 14.1494 14.2634 14.0089 14.3315 13.8444C14.3996 13.68 14.4174 13.499 14.3827 13.3244C14.348 13.1498 14.2623 12.9895 14.1364 12.8636C14.0105 12.7377 13.8502 12.652 13.6756 12.6173C13.501 12.5826 13.32 12.6004 13.1556 12.6685C12.9911 12.7366 12.8506 12.852 12.7517 13C12.6528 13.148 12.6 13.322 12.6 13.5C12.6 13.7387 12.6948 13.9676 12.8636 14.1364C13.0324 14.3052 13.2613 14.4 13.5 14.4ZM4.5 10.8C4.678 10.8 4.85201 10.7472 5.00001 10.6483C5.14802 10.5494 5.26337 10.4089 5.33149 10.2444C5.39961 10.08 5.41743 9.899 5.38271 9.72442C5.34798 9.54984 5.26226 9.38947 5.1364 9.2636C5.01053 9.13774 4.85016 9.05202 4.67558 9.01729C4.501 8.98257 4.32004 9.00039 4.15558 9.06851C3.99113 9.13663 3.85057 9.25198 3.75168 9.39999C3.65278 9.54799 3.6 9.722 3.6 9.9C3.6 10.1387 3.69482 10.3676 3.8636 10.5364C4.03239 10.7052 4.26131 10.8 4.5 10.8ZM15.3 1.8H14.4V0.9C14.4 0.661305 14.3052 0.432387 14.1364 0.263604C13.9676 0.0948211 13.7387 0 13.5 0C13.2613 0 13.0324 0.0948211 12.8636 0.263604C12.6948 0.432387 12.6 0.661305 12.6 0.9V1.8H5.4V0.9C5.4 0.661305 5.30518 0.432387 5.1364 0.263604C4.96761 0.0948211 4.73869 0 4.5 0C4.26131 0 4.03239 0.0948211 3.8636 0.263604C3.69482 0.432387 3.6 0.661305 3.6 0.9V1.8H2.7C1.98392 1.8 1.29716 2.08446 0.790812 2.59081C0.284464 3.09716 0 3.78392 0 4.5V15.3C0 16.0161 0.284464 16.7028 0.790812 17.2092C1.29716 17.7155 1.98392 18 2.7 18H15.3C16.0161 18 16.7028 17.7155 17.2092 17.2092C17.7155 16.7028 18 16.0161 18 15.3V4.5C18 3.78392 17.7155 3.09716 17.2092 2.59081C16.7028 2.08446 16.0161 1.8 15.3 1.8ZM16.2 15.3C16.2 15.5387 16.1052 15.7676 15.9364 15.9364C15.7676 16.1052 15.5387 16.2 15.3 16.2H2.7C2.4613 16.2 2.23239 16.1052 2.0636 15.9364C1.89482 15.7676 1.8 15.5387 1.8 15.3V7.2H16.2V15.3ZM16.2 5.4H1.8V4.5C1.8 4.26131 1.89482 4.03239 2.0636 3.8636C2.23239 3.69482 2.4613 3.6 2.7 3.6H15.3C15.5387 3.6 15.7676 3.69482 15.9364 3.8636C16.1052 4.03239 16.2 4.26131 16.2 4.5V5.4ZM4.5 14.4C4.678 14.4 4.85201 14.3472 5.00001 14.2483C5.14802 14.1494 5.26337 14.0089 5.33149 13.8444C5.39961 13.68 5.41743 13.499 5.38271 13.3244C5.34798 13.1498 5.26226 12.9895 5.1364 12.8636C5.01053 12.7377 4.85016 12.652 4.67558 12.6173C4.501 12.5826 4.32004 12.6004 4.15558 12.6685C3.99113 12.7366 3.85057 12.852 3.75168 13C3.65278 13.148 3.6 13.322 3.6 13.5C3.6 13.7387 3.69482 13.9676 3.8636 14.1364C4.03239 14.3052 4.26131 14.4 4.5 14.4Z" fill="#3E4244"/>
</svg>
