<svg width="22" height="22" viewBox="0 0 22 22" fill="none" xmlns="http://www.w3.org/2000/svg">
<path d="M6.60692 0.879883C6.24255 0.879883 5.94692 1.17552 5.94692 1.53988V4.0767C5.18121 4.3517 4.62692 5.0856 4.62692 5.93984C4.62692 7.02523 5.52153 7.91984 6.60692 7.91984C7.69231 7.91984 8.58692 7.02523 8.58692 5.93984C8.58692 5.08648 8.03091 4.3517 7.26692 4.0767V1.53988C7.26692 1.17552 6.97128 0.879883 6.60692 0.879883ZM15.4069 0.879883C15.0426 0.879883 14.7469 1.17552 14.7469 1.53988V4.0767C13.9812 4.3517 13.4269 5.0856 13.4269 5.93984C13.4269 7.02523 14.3215 7.91984 15.4069 7.91984C16.4923 7.91984 17.3869 7.02523 17.3869 5.93984C17.3869 5.08648 16.8309 4.3517 16.0669 4.0767V1.53988C16.0669 1.17552 15.7713 0.879883 15.4069 0.879883ZM3.52692 2.19988C2.19403 2.19988 1.1001 3.29388 1.1001 4.6267V18.6931C1.1001 20.026 2.19409 21.1199 3.52692 21.1199H18.4733C19.8062 21.1199 20.9001 20.0259 20.9001 18.6931V4.6267C20.9001 3.29381 19.8061 2.19988 18.4733 2.19988H17.1601C16.8112 2.19473 16.4864 2.51098 16.4864 2.85988C16.4864 3.20878 16.8112 3.52503 17.1601 3.51988H18.4733C19.0963 3.51988 19.5801 4.00371 19.5801 4.62675V8.35993H2.42014V4.62675C2.42014 4.00371 2.90397 3.51988 3.52701 3.51988H4.84014C5.18904 3.52504 5.50701 3.20878 5.50701 2.85988C5.50701 2.51098 5.18904 2.19473 4.84014 2.19988H3.52692ZM8.3601 2.19988C7.99573 2.19988 7.7001 2.49552 7.7001 2.85988C7.7001 3.22425 7.99573 3.51988 8.3601 3.51988H13.6401C14.0045 3.51988 14.3001 3.22425 14.3001 2.85988C14.3001 2.49552 14.0045 2.19988 13.6401 2.19988H8.3601ZM6.60696 5.27988C6.97907 5.27988 7.26696 5.56778 7.26696 5.93988C7.26696 6.31199 6.97907 6.59988 6.60696 6.59988C6.23485 6.59988 5.94696 6.31199 5.94696 5.93988C5.94696 5.56778 6.23485 5.27988 6.60696 5.27988ZM15.407 5.27988C15.7791 5.27988 16.067 5.56778 16.067 5.93988C16.067 6.31199 15.7791 6.59988 15.407 6.59988C15.0349 6.59988 14.747 6.31199 14.747 5.93988C14.747 5.56778 15.0349 5.27988 15.407 5.27988ZM2.42014 9.67988H19.5801V18.6931C19.5801 19.3161 19.0963 19.7999 18.4733 19.7999H3.52692C2.90388 19.7999 2.42005 19.3161 2.42005 18.6931L2.42014 9.67988Z" fill="#1E55A9"/>
</svg>
