<svg width="20" height="20" viewBox="0 0 20 20" fill="none" xmlns="http://www.w3.org/2000/svg">
	<g clip-path="url(#clip0_645_8354)">
		<path d="M6.28438 1.59999L6.31188 1.64193C6.87516 2.50071 7.45571 3.38582 8.0461 4.24219L6.28438 1.59999ZM6.28438 1.59999L5.73594 0.774213C5.50704 0.416393 5.14844 0.161709 4.73594 0.0640527C4.09296 -0.106267 3.40702 0.0413915 2.89218 0.463272C2.46796 0.801552 2.0164 1.16561 1.58828 1.56561C0.999996 2.10781 0.399996 2.71015 0.047656 3.56249M6.28438 1.59999L0.047656 3.56249M0.047656 3.56249L0 3.67812V4.38984L0.0140624 4.5164C0.01818 4.5383 0.0222282 4.55993 0.0262436 4.58138C0.0412738 4.66168 0.0558448 4.73953 0.0718744 4.8203C0.115624 5.05858 0.161718 5.30468 0.229686 5.55234L0.047656 3.56249ZM16.3646 20.25L16.4399 20.251L16.5032 20.2102L16.6528 20.114C16.695 20.0901 16.7353 20.068 16.7775 20.0448C16.8056 20.0294 16.8345 20.0135 16.8654 19.9964C17.0877 19.8824 17.2995 19.7496 17.4982 19.5995L17.4983 19.5996L17.5043 19.5948C18.3895 18.8827 19.1712 18.0508 19.826 17.1223L19.8261 17.1223C19.9601 16.9322 20.0639 16.7224 20.1327 16.5C20.4307 15.5845 20.1531 14.5839 19.4012 14.082L19.401 14.0819C18.1686 13.2604 16.9322 12.4422 15.6936 11.6271L15.6926 11.6265C15.4976 11.4994 15.282 11.4082 15.0558 11.3563L15.0558 11.3562L15.05 11.3551C14.4324 11.2288 13.7907 11.3396 13.2512 11.6651C12.8218 11.8985 12.4246 12.1195 12.0443 12.3382C10.9541 11.4638 9.93376 10.5056 8.99271 9.47159L8.81633 9.27778L8.81561 9.2785C8.59666 9.0333 8.38102 8.77647 8.16721 8.5218C8.09408 8.4347 8.02116 8.34785 7.9484 8.26181C7.94824 8.26162 7.94808 8.26143 7.94792 8.26124L7.68485 7.9462C7.7483 7.83466 7.81029 7.72336 7.87166 7.6132C7.89377 7.5735 7.9158 7.53395 7.93779 7.49459L7.93813 7.49397L8.08753 7.22473L8.08813 7.22365L8.09994 7.20262C8.21258 7.00204 8.33396 6.78589 8.44092 6.55072C8.84194 5.76193 8.76834 4.81518 8.25033 4.09798C7.66214 3.24472 7.08348 2.36249 6.52023 1.50375L6.49342 1.46288L6.49342 1.46288L6.49263 1.46168L5.94534 0.637637C5.6821 0.227189 5.27051 -0.065412 4.79677 -0.178452C4.07797 -0.367775 3.31124 -0.202629 2.73505 0.268813C2.31145 0.606606 1.85365 0.975586 1.41822 1.38236C0.827065 1.92724 0.191222 2.56079 -0.183382 3.46699L-0.183481 3.46723L-0.231137 3.58285L-0.25 3.62861V3.67812V4.38984V4.40368L-0.248471 4.41744L-0.234409 4.54401L-0.233371 4.55335L-0.231635 4.56258C-0.227597 4.58406 -0.223601 4.60541 -0.219617 4.6267C-0.204661 4.7066 -0.189876 4.78559 -0.173693 4.8672C-0.130176 5.10419 -0.0824813 5.35938 -0.011552 5.61794C0.32972 6.88399 0.918505 8.08323 1.88623 9.52375L1.88621 9.52376L1.88777 9.52602C3.02561 11.1803 4.32232 12.7205 5.76008 14.1222C7.58243 15.9523 9.19845 17.299 10.8431 18.3549L10.8432 18.355C12.1848 19.2151 13.3662 19.7608 14.5575 20.0574L14.558 20.0575C14.7327 20.1007 14.9146 20.135 15.0828 20.1668C15.1175 20.1733 15.1517 20.1798 15.185 20.1862L15.1859 20.1863L15.4398 20.234L15.461 20.238L15.4826 20.2383L16.3646 20.25ZM7.97353 8.67993C8.19069 8.9386 8.41277 9.20311 8.63857 9.45554L7.75703 8.42267C7.82861 8.50732 7.90079 8.5933 7.97353 8.67993ZM7.86953 7.10235L7.71953 7.37267L8.21563 6.44219C8.11263 6.66941 7.99494 6.879 7.88035 7.08308L7.86953 7.10235ZM16.0211 18.4373L16.0211 18.4372L16.0162 18.4398L15.9637 18.468H15.6942L15.5115 18.4327L15.5115 18.4327L15.508 18.4321L15.5066 18.4318C15.3258 18.3996 15.1543 18.369 14.9886 18.3278C14.0061 18.0823 12.9917 17.6181 11.8075 16.8541L11.8072 16.8539C10.2802 15.8724 8.7684 14.6148 7.02086 12.8619L7.02088 12.8618L7.01838 12.8594C5.66231 11.5366 4.4387 10.0863 3.36456 8.52598C2.4988 7.23672 1.99203 6.19831 1.70933 5.15137C1.65843 4.96252 1.62029 4.76219 1.57787 4.5367C1.56355 4.45798 1.54846 4.37856 1.53203 4.29869V3.99309C1.77198 3.50887 2.16949 3.11315 2.62713 2.69187L2.62761 2.69143C2.97164 2.37308 3.34687 2.06822 3.707 1.77563C3.75552 1.7362 3.80377 1.697 3.85163 1.65802L3.85163 1.65803L3.85258 1.65724C3.99515 1.53995 4.18583 1.50186 4.36213 1.55508L4.37414 1.5587L4.38645 1.5611C4.41793 1.56725 4.44537 1.58648 4.46157 1.61339L4.46143 1.61347L4.4663 1.62095L5.00068 2.44127L5.00068 2.44127L5.00151 2.44254C5.57955 3.31817 6.18045 4.22735 6.78157 5.11102L6.78555 5.11688L6.78986 5.12251C6.9359 5.31302 6.95232 5.5739 6.83051 5.78131L6.82369 5.79292L6.81816 5.80519C6.75508 5.94517 6.68008 6.08035 6.59212 6.23891C6.5733 6.27283 6.55389 6.30783 6.53387 6.34417L6.37812 6.6214L6.37778 6.622C6.36519 6.64455 6.35263 6.66708 6.34008 6.68958C6.20701 6.92813 6.07566 7.1636 5.93501 7.3957C5.65633 7.81702 5.6983 8.37187 6.03433 8.74722C6.16055 8.90188 6.29395 9.05763 6.42603 9.21183C6.47865 9.27326 6.53107 9.33445 6.58273 9.39522C6.93142 9.81552 7.29702 10.2562 7.68795 10.6757C8.77633 11.8718 9.96603 12.971 11.2439 13.961C11.6417 14.2884 12.2062 14.3226 12.6396 14.0424C13.0891 13.7771 13.5668 13.5077 14.1006 13.2203L14.1102 13.2151L14.1192 13.2092C14.2792 13.1043 14.4718 13.0631 14.6609 13.0928C14.6809 13.0983 14.6985 13.1062 14.7135 13.1158C15.939 13.9216 17.1628 14.7313 18.3843 15.5456C18.4732 15.6488 18.4964 15.7944 18.4419 15.9224L18.4354 15.9376L18.431 15.9535C18.4186 15.9983 18.3997 16.0421 18.3748 16.0839C17.8191 16.8775 17.1563 17.5903 16.4051 18.2019C16.2837 18.2902 16.1548 18.3694 16.0211 18.4373ZM4.43437 1.31574C4.17813 1.2384 3.90077 1.29387 3.69375 1.46418C3.6462 1.50291 3.5981 1.54199 3.54959 1.58139C3.19011 1.87344 2.80819 2.18371 2.45781 2.50794L4.43437 1.31574Z" fill="#1E55A9" stroke="#1E55A9" stroke-width="0.5" />
	</g>
	<defs>
		<clipPath id="clip0_645_8354">
			<rect width="20" height="20" fill="white" />
		</clipPath>
	</defs>
</svg>
