<svg width="11" height="11" viewBox="0 0 11 11" fill="none" xmlns="http://www.w3.org/2000/svg">
	<path fill-rule="evenodd" clip-rule="evenodd" d="M10.1325 7.65509C9.64613 7.39318 9.15395 7.09493 8.64476 6.88693C7.66156 6.48556 7.72777 7.6715 7.02581 8.05588C6.56936 8.30608 5.92543 7.85314 5.52698 7.60237C4.83089 7.16408 4.21448 6.58753 3.70179 5.92012C3.43929 5.57911 2.85979 4.93808 2.93128 4.45996C3.04437 3.70117 3.94203 3.66308 3.68538 2.73496C3.54768 2.23808 3.30217 1.74883 3.1182 1.27012C2.87152 0.627935 2.77015 0.21719 2.0512 0.252335C1.53207 0.277531 1.18753 0.49901 0.868197 0.91562C0.00452714 2.04062 0.134607 3.55757 0.714687 4.79162C1.53676 6.53837 2.94534 8.18477 4.44939 9.24887C5.47301 9.9725 6.82118 10.6299 8.06048 10.7413C8.96752 10.8233 10.2367 10.3323 10.5613 9.3473C10.539 9.41586 10.5173 9.48265 10.5068 9.5143C10.5144 9.48969 10.5314 9.43988 10.5613 9.3473C10.5748 9.30804 10.583 9.28168 10.5918 9.25648C10.5824 9.28402 10.5724 9.3139 10.5619 9.34554C10.8478 8.47718 10.883 8.05883 10.1324 7.65504L10.1325 7.65509ZM10.5918 9.25649C10.603 9.22192 10.6123 9.19204 10.6182 9.17622C10.6141 9.18911 10.6041 9.21782 10.5918 9.25649Z" fill="#3E4244" />
</svg>
