<svg width="40" height="40" viewBox="0 0 40 40" fill="none" xmlns="http://www.w3.org/2000/svg">
	<rect width="40" height="40" rx="10" fill="#C26666" />
	<path d="M14.0274 22.6618L12.8265 21.5029C12.3655 21.0618 12.395 20.2936 12.9003 19.8867C16.8975 16.0236 23.131 16.0514 27.1014 19.8886C27.6042 20.2931 27.6339 21.058 27.1759 21.5008L25.9726 22.6619C25.7798 22.8516 25.5223 22.9673 25.248 22.9875C24.4682 23.0449 22.9759 22.1258 22.5938 21.5566C22.2955 21.1123 22.4125 20.4871 22.413 19.9858C20.8398 19.5698 19.1785 19.5713 17.6045 19.9904C17.604 20.4917 17.7197 21.1167 17.4205 21.5616C17.0366 22.1323 15.536 23.0587 14.7548 22.9971C14.4777 22.9752 14.2189 22.8559 14.0274 22.6618Z" stroke="white" stroke-width="1.5" stroke-linecap="round" stroke-linejoin="round" />
</svg>
