<svg width="74" height="74" viewBox="0 0 74 74" fill="none" xmlns="http://www.w3.org/2000/svg">
	<g filter="url(#filter0_d_321_8754)">
		<circle cx="37" cy="27" r="17" fill="#9C9C9C" />
	</g>
	<path d="M42.25 27C42.25 29.7614 39.8995 32 37 32M37 32C34.1005 32 31.75 29.7614 31.75 27M37 32V34.5M37 34.5H39.625M37 34.5H34.375M37 29.5C35.5503 29.5 34.375 28.3807 34.375 27V22C34.375 20.6193 35.5503 19.5 37 19.5C38.4497 19.5 39.625 20.6193 39.625 22V27C39.625 28.3807 38.4497 29.5 37 29.5Z" stroke="white" stroke-width="1.2" stroke-linecap="round" stroke-linejoin="round" />
	<defs>
		<filter id="filter0_d_321_8754" x="0" y="0" width="74" height="74" filterUnits="userSpaceOnUse" color-interpolation-filters="sRGB">
			<feFlood flood-opacity="0" result="BackgroundImageFix" />
			<feColorMatrix in="SourceAlpha" type="matrix" values="0 0 0 0 0 0 0 0 0 0 0 0 0 0 0 0 0 0 127 0" result="hardAlpha" />
			<feOffset dy="10" />
			<feGaussianBlur stdDeviation="10" />
			<feColorMatrix type="matrix" values="0 0 0 0 0 0 0 0 0 0 0 0 0 0 0 0 0 0 0.04 0" />
			<feBlend mode="normal" in2="BackgroundImageFix" result="effect1_dropShadow_321_8754" />
			<feBlend mode="normal" in="SourceGraphic" in2="effect1_dropShadow_321_8754" result="shape" />
		</filter>
	</defs>
</svg>
