<svg width="28" height="18" viewBox="0 0 28 18" fill="none" xmlns="http://www.w3.org/2000/svg">
	<path d="M26.5766 0.936328C25.9366 0.583816 25.1692 0.616327 24.5604 1.00008L19.7604 4.07259C19.6966 1.92885 17.9366 0.23259 15.793 0.23259H4.27302C2.09677 0.23259 0.305664 2.0251 0.305664 4.19995V13.7673C0.305664 15.9436 2.09818 17.7347 4.27302 17.7347H15.793C17.9368 17.7347 19.6967 16.0384 19.7604 13.8947L24.5277 16.9672C24.8477 17.1909 25.2315 17.2872 25.6152 17.2872C25.9677 17.2872 26.2877 17.1909 26.5752 17.0309C27.2477 16.6784 27.6627 15.9747 27.6627 15.2384V2.75842C27.6327 1.95967 27.2165 1.28716 26.5765 0.935924L26.5766 0.936328ZM25.6166 2.72759C25.6166 2.72759 25.5841 2.72759 25.6166 2.72759V15.2402L19.7603 11.4966V6.50391L25.6166 2.72759ZM15.824 15.6876H4.304C3.21651 15.6876 2.35149 14.8238 2.35149 13.7351L2.35274 4.20004C2.35274 3.11255 3.21648 2.24753 4.30525 2.24753H15.8252C16.9127 2.24753 17.7778 3.11127 17.7778 4.20004V13.7674C17.7765 14.8237 16.8803 15.6874 15.824 15.6874L15.824 15.6876Z" fill="#1E55A9" />
</svg>
