<svg width="74" height="74" viewBox="0 0 74 74" fill="none" xmlns="http://www.w3.org/2000/svg">
	<g filter="url(#filter0_d_321_8751)">
		<circle cx="37" cy="27" r="17" fill="#9C9C9C" />
	</g>
	<path d="M38.9 27.8571C38.9 28.962 38.0335 29.8286 37 29.8286V31.0286C38.7279 31.0286 40.1 29.5926 40.1 27.8571H38.9ZM37 29.8286C35.9665 29.8286 35.1 28.962 35.1 27.8571H33.9C33.9 29.5926 35.2721 31.0286 37 31.0286V29.8286ZM35.1 27.8571C35.1 26.7523 35.9665 25.8857 37 25.8857V24.6857C35.2721 24.6857 33.9 26.1217 33.9 27.8571H35.1ZM37 25.8857C38.0335 25.8857 38.9 26.7523 38.9 27.8571H40.1C40.1 26.1217 38.7279 24.6857 37 24.6857V25.8857ZM43.9 24.4286V31.2857H45.1V24.4286H43.9ZM42.8333 32.4H31.1667V33.6H42.8333V32.4ZM30.1 31.2857V24.4286H28.9V31.2857H30.1ZM31.1667 23.3143H33.25V22.1143H31.1667V23.3143ZM40.75 23.3143H42.8333V22.1143H40.75V23.3143ZM34.9167 21.6H39.0833V20.4H34.9167V21.6ZM39.3167 21.8571C39.3167 22.6459 39.9426 23.3143 40.75 23.3143V22.1143C40.637 22.1143 40.5167 22.0152 40.5167 21.8571H39.3167ZM33.25 23.3143C34.0574 23.3143 34.6833 22.6459 34.6833 21.8571H33.4833C33.4833 22.0152 33.363 22.1143 33.25 22.1143V23.3143ZM40.5167 21.8571C40.5167 21.0684 39.8908 20.4 39.0833 20.4V21.6C39.1964 21.6 39.3167 21.6991 39.3167 21.8571H40.5167ZM34.6833 21.8571C34.6833 21.6991 34.8036 21.6 34.9167 21.6V20.4C34.1092 20.4 33.4833 21.0684 33.4833 21.8571H34.6833ZM31.1667 32.4C30.5934 32.4 30.1 31.9172 30.1 31.2857H28.9C28.9 32.5478 29.899 33.6 31.1667 33.6V32.4ZM43.9 31.2857C43.9 31.9172 43.4066 32.4 42.8333 32.4V33.6C44.101 33.6 45.1 32.5478 45.1 31.2857H43.9ZM45.1 24.4286C45.1 23.1665 44.101 22.1143 42.8333 22.1143V23.3143C43.4066 23.3143 43.9 23.7971 43.9 24.4286H45.1ZM30.1 24.4286C30.1 23.7971 30.5934 23.3143 31.1667 23.3143V22.1143C29.899 22.1143 28.9 23.1665 28.9 24.4286H30.1Z" fill="white" />
	<defs>
		<filter id="filter0_d_321_8751" x="0" y="0" width="74" height="74" filterUnits="userSpaceOnUse" color-interpolation-filters="sRGB">
			<feFlood flood-opacity="0" result="BackgroundImageFix" />
			<feColorMatrix in="SourceAlpha" type="matrix" values="0 0 0 0 0 0 0 0 0 0 0 0 0 0 0 0 0 0 127 0" result="hardAlpha" />
			<feOffset dy="10" />
			<feGaussianBlur stdDeviation="10" />
			<feColorMatrix type="matrix" values="0 0 0 0 0 0 0 0 0 0 0 0 0 0 0 0 0 0 0.04 0" />
			<feBlend mode="normal" in2="BackgroundImageFix" result="effect1_dropShadow_321_8751" />
			<feBlend mode="normal" in="SourceGraphic" in2="effect1_dropShadow_321_8751" result="shape" />
		</filter>
	</defs>
</svg>
