<svg width="20" height="16" viewBox="0 0 20 16" fill="none" xmlns="http://www.w3.org/2000/svg">
	<path d="M9.99967 6.50161C10.7572 6.50161 11.4049 6.76539 11.9428 7.29295C12.4807 7.82051 12.7497 8.45577 12.7497 9.19872C12.7497 9.94168 12.4807 10.5769 11.9428 11.1045C11.4049 11.6321 10.7572 11.8958 9.99967 11.8958C9.24215 11.8958 8.59444 11.6321 8.05653 11.1045C7.51863 10.5769 7.24967 9.94168 7.24967 9.19872C7.24967 8.45577 7.51863 7.82051 8.05653 7.29295C8.59444 6.76539 9.24215 6.50161 9.99967 6.50161ZM16.7219 2.60577C17.3967 2.60577 17.9728 2.8399 18.4502 3.30815C18.9276 3.7764 19.1663 4.34142 19.1663 5.00321V13.3942C19.1663 14.056 18.9276 14.621 18.4502 15.0893C17.9728 15.5575 17.3967 15.7917 16.7219 15.7917H3.27745C2.60268 15.7917 2.02658 15.5575 1.54915 15.0893C1.07172 14.621 0.833008 14.056 0.833008 13.3942V5.00321C0.833008 4.34142 1.07172 3.7764 1.54915 3.30815C2.02658 2.8399 2.60268 2.60577 3.27745 2.60577H5.41634L5.90332 1.33213C6.02427 1.02621 6.24548 0.762431 6.56695 0.540793C6.88842 0.319155 7.21785 0.208336 7.55523 0.208336H12.4441C12.7815 0.208336 13.1109 0.319155 13.4324 0.540793C13.7539 0.762431 13.9751 1.02621 14.096 1.33213L14.583 2.60577H16.7219ZM9.99967 13.3942C11.1773 13.3942 12.1847 12.9837 13.0218 12.1627C13.8589 11.3417 14.2775 10.3537 14.2775 9.19872C14.2775 8.04371 13.8589 7.0557 13.0218 6.2347C12.1847 5.41371 11.1773 5.00321 9.99967 5.00321C8.82201 5.00321 7.81463 5.41371 6.97754 6.2347C6.14044 7.0557 5.7219 8.04371 5.7219 9.19872C5.7219 10.3537 6.14044 11.3417 6.97754 12.1627C7.81463 12.9837 8.82201 13.3942 9.99967 13.3942Z" fill="#9C9C9C" />
</svg>
