<svg width="16" height="16" viewBox="0 0 16 16" fill="none" xmlns="http://www.w3.org/2000/svg">
	<path d="M11.3331 4.66681H13.9963C15.102 4.66681 16 5.55931 16 6.66314V14.0032C16 15.1063 15.1063 16 14.0032 16H6.66321C5.56009 16 4.66689 15.1069 4.66689 14.0025V11.5238C4.66689 11.4576 4.67627 11.3938 4.69439 11.3332H1.9944C0.893151 11.3332 0 10.4394 0 9.33878V1.99441C0 0.893157 0.893743 0 1.9944 0H9.33871C10.44 0 11.3331 0.893749 11.3331 1.99441L11.3331 4.66681ZM1.33314 1.99432V9.33868C1.33314 9.70305 1.63002 9.99993 1.99438 9.99993H9.3387C9.70306 9.99993 9.99994 9.70367 9.99994 9.33868V1.99432C9.99994 1.62995 9.70369 1.33306 9.3387 1.33306H1.99438C1.63002 1.33306 1.33314 1.62995 1.33314 1.99432ZM11.3331 5.99994V9.33868C11.3331 10.4399 10.4394 11.3331 9.33873 11.3331H5.97249C5.99062 11.3937 5.99999 11.4575 5.99999 11.5237V14.0025C5.99999 14.37 6.29625 14.6668 6.66311 14.6668H14.0031C14.37 14.6668 14.6668 14.3699 14.6668 14.0031V6.66303C14.6668 6.2974 14.3675 5.99991 13.9962 5.99991L11.3331 5.99994Z" fill="#3E4244" />
</svg>
