<svg width="167" height="355" viewBox="0 0 167 355" fill="none" xmlns="http://www.w3.org/2000/svg">
<g filter="url(#filter0_d_1408_7166)">
<path d="M20.4444 38C20.4444 38 36.9443 8 83.4444 8C129.945 8 146.444 38 146.444 38C146.444 38 148.444 49 148.444 73C148.444 97 145.444 103.5 145.444 106V120C145.444 120 155.444 124 156.444 129C157.444 134 156.444 135.5 156.444 135.5L145.444 129C145.444 129 147.444 169 147.444 191C147.444 213 146.444 242.5 146.444 242.5C146.444 242.5 148.444 244.5 148.444 248.5V297.5C148.444 301 145.654 306.462 142.444 312C139.853 320.422 137.924 323.595 133.944 327.5C116.754 340.019 106.65 342.192 83.4444 342C60.2392 341.808 50.1348 340.019 32.9444 327.5C28.9649 323.595 27.0361 320.422 24.4444 312C21.235 306.462 18.4444 301 18.4444 297.5V248.5C18.4444 244.5 20.4444 242.5 20.4444 242.5C20.4444 242.5 19.4444 213 19.4444 191C19.4444 169 21.4444 129 21.4444 129L12.0753 134.536C11.1606 135.077 10.0996 134.727 10.0253 133.668C9.95424 132.653 10.0144 131.15 10.4444 129C11.4444 124 21.4444 120 21.4444 120V106C21.4444 103.5 18.4443 97 18.4444 73C18.4446 49 20.4444 38 20.4444 38Z" fill="url(#paint0_linear_1408_7166)"/>
<path d="M31.4443 324C27.0693 319 27.9443 309 29.4443 304C30.111 307.167 30.4444 315 33.9444 320.5C36.8256 325.028 50.4443 333 56.4444 336C49.9443 334 36.9443 330.286 31.4443 324Z" fill="#960000"/>
<path d="M135.444 324C139.819 319 138.944 309 137.444 304C136.778 307.167 136.444 315 132.944 320.5C130.063 325.028 116.444 333 110.444 336C116.944 334 129.944 330.286 135.444 324Z" fill="#960000"/>
<path d="M29.3711 38C31.3711 31.5 42.3711 22 52.3711 22C46.8712 27.5 43.3712 32 39.3711 40C35.3711 48 33.8711 53 31.3711 53C28.8712 53 27.3712 44.5 29.3711 38Z" fill="url(#paint1_linear_1408_7166)"/>
<path d="M138.444 38C136.444 31.5 125.444 22 115.444 22C120.944 27.5 124.444 32 128.444 40C132.444 48 133.944 53 136.444 53C138.944 53 140.444 44.5 138.444 38Z" fill="url(#paint2_linear_1408_7166)"/>
<path d="M57.4443 22.04C45.9443 30.04 33.4443 81.5399 33.4443 98.04H133.444C133.444 81.5399 120.944 30.04 109.444 22.04C97.9443 14.04 83.4443 15.04 83.4443 15.04C83.4443 15.04 68.9443 14.04 57.4443 22.04Z" fill="url(#paint3_linear_1408_7166)" stroke="#DADADA"/>
<path d="M83.4443 82C47.4443 82 33.4443 97.5 33.4443 97.5V105.52C33.4443 108.17 33.63 110.796 33.9959 113.421C35.9525 127.454 42.4443 175.137 42.4443 190C42.4443 207.5 48.4443 300.5 48.4443 300.5C50.4443 304.5 54.9443 317.5 83.4443 317.5C111.944 317.5 116.444 304.5 118.444 300.5C118.444 300.5 124.444 207.5 124.444 190C124.444 175.137 130.936 127.454 132.893 113.421C133.259 110.796 133.444 108.17 133.444 105.52V97.5C133.444 97.5 119.444 82 83.4443 82Z" fill="url(#paint4_linear_1408_7166)"/>
<path d="M40 301V300.5H39.5V301H40ZM40.0005 301V301.5H40.355L40.4723 301.165L40.0005 301ZM43 278.5V278H42.5V278.5H43ZM124 278.5H124.5V278H124V278.5ZM126.999 301L126.528 301.165L126.645 301.5H126.999V301ZM127 301H127.5V300.5H127V301ZM127 330L127.372 330.334L127.5 330.192V330H127ZM40 330H39.5V330.192L39.6284 330.334L40 330ZM39.5 301V301.001H40.5V301H39.5ZM40.0005 300.5H40V301.5H40.0005V300.5ZM40.4723 301.165C40.5304 301 43.5 292.464 43.5 278.5H42.5C42.5 292.325 39.5596 300.746 39.5287 300.835L40.4723 301.165ZM43 279H124V278H43V279ZM123.5 278.5C123.5 292.464 126.47 301 126.528 301.165L127.471 300.835C127.44 300.746 124.5 292.325 124.5 278.5H123.5ZM127 300.5H126.999V301.5H127V300.5ZM127.5 301.001V301H126.5V301.001H127.5ZM127.5 313V301.001H126.5V313H127.5ZM127.5 318V313H126.5V318H127.5ZM127.5 330V318H126.5V330H127.5ZM83.5 340.5C100.797 340.5 111.735 337.993 118.366 335.467C121.681 334.204 123.919 332.937 125.335 331.976C126.043 331.496 126.546 331.093 126.875 330.806C127.039 330.663 127.16 330.549 127.241 330.468C127.282 330.428 127.313 330.397 127.335 330.374C127.345 330.363 127.354 330.354 127.36 330.347C127.363 330.344 127.366 330.341 127.367 330.339C127.368 330.338 127.369 330.337 127.37 330.336C127.37 330.336 127.371 330.335 127.371 330.335C127.371 330.335 127.372 330.334 127 330C126.628 329.666 126.629 329.665 126.629 329.665C126.629 329.665 126.629 329.665 126.629 329.665C126.629 329.664 126.629 329.664 126.629 329.665C126.629 329.665 126.628 329.666 126.627 329.667C126.624 329.67 126.619 329.676 126.612 329.683C126.597 329.699 126.573 329.723 126.54 329.756C126.472 329.822 126.366 329.923 126.217 330.053C125.919 330.313 125.449 330.691 124.774 331.149C123.425 332.063 121.256 333.296 118.009 334.533C111.515 337.007 100.703 339.5 83.5 339.5V340.5ZM40 330C39.6284 330.334 39.6287 330.335 39.6291 330.335C39.6293 330.335 39.6297 330.336 39.63 330.336C39.6307 330.337 39.6315 330.338 39.6325 330.339C39.6345 330.341 39.637 330.344 39.64 330.347C39.6462 330.354 39.6546 330.363 39.6654 330.374C39.6869 330.397 39.7178 330.428 39.7586 330.468C39.8401 330.549 39.961 330.663 40.1254 330.806C40.4542 331.093 40.9566 331.496 41.6647 331.976C43.0811 332.937 45.3189 334.204 48.6345 335.467C55.2652 337.993 66.2026 340.5 83.5 340.5V339.5C66.2974 339.5 55.4848 337.007 48.9905 334.533C45.7436 333.296 43.5751 332.063 42.2259 331.149C41.5512 330.691 41.0809 330.313 40.7828 330.053C40.6337 329.923 40.5276 329.822 40.4604 329.756C40.4268 329.723 40.403 329.699 40.3883 329.683C40.381 329.676 40.376 329.67 40.3733 329.667C40.3719 329.666 40.3711 329.665 40.3708 329.665C40.3707 329.664 40.3707 329.664 40.3708 329.665C40.3709 329.665 40.3711 329.665 40.3711 329.665C40.3714 329.665 40.3716 329.666 40 330ZM39.5 318V330H40.5V318H39.5ZM39.5 313V318H40.5V313H39.5ZM39.5 301.001V313H40.5V301.001H39.5Z" fill="black" fill-opacity="0.4"/>
<path d="M40 330V313H127V330C127 330 118 340 83.5 340C49 340 40 330 40 330Z" fill="#151515"/>
<path d="M40 320V303H127V320C127 320 115.5 329 83.5 329C51.5 329 40 320 40 320Z" fill="#E82127"/>
<path d="M40 318V301H127V318C127 318 115.5 327 83.5 327C51.5 327 40 318 40 318Z" fill="url(#paint5_radial_1408_7166)"/>
<path fill-rule="evenodd" clip-rule="evenodd" d="M40.001 301V308C49.501 316 62.001 313 62.001 313L45.001 301H40.001ZM127 301V308C117.5 316 105 313 105 313L122 301H127Z" fill="#960000"/>
<rect x="75" y="319" width="16" height="6" rx="1" fill="#B0ACAC"/>
<path d="M40 301.001C40 301.001 43 292.001 43 278.001H124C124 292.001 127 301.001 127 301.001C127 301.001 115 315.501 83.5 315.501C52 315.501 40 301.001 40 301.001Z" fill="url(#paint6_linear_1408_7166)"/>
<mask id="mask0_1408_7166" style="mask-type:alpha" maskUnits="userSpaceOnUse" x="40" y="278" width="87" height="38">
<path d="M40 301.001C40 301.001 43 292.001 43 278.001H124C124 292.001 127 301.001 127 301.001C127 301.001 115 315.501 83.5 315.501C52 315.501 40 301.001 40 301.001Z" fill="url(#paint7_linear_1408_7166)"/>
</mask>
<g mask="url(#mask0_1408_7166)">
<path d="M83.4443 82C47.4443 82 33.4443 97.5 33.4443 97.5V105.52C33.4443 108.17 33.63 110.796 33.9959 113.421C35.9525 127.454 42.4443 175.137 42.4443 190C42.4443 201.976 45.2543 249.31 47.0282 278C47.492 285.5 48.4443 287.5 48.4443 287.5C50.4443 291.5 54.9443 297.5 83.4443 297.5C111.944 297.5 116.444 291.5 118.444 287.5C118.444 287.5 119.459 284.5 119.86 278C121.634 249.31 124.444 201.976 124.444 190C124.444 175.137 130.936 127.454 132.893 113.421C133.259 110.796 133.444 108.17 133.444 105.52V97.5C133.444 97.5 119.444 82 83.4443 82Z" fill="url(#paint8_linear_1408_7166)"/>
<path d="M83.4443 82C47.4443 82 33.4443 97.5 33.4443 97.5V105.52C33.4443 108.17 33.63 110.796 33.9959 113.421C35.9525 127.454 42.4443 175.137 42.4443 190C42.4443 201.976 45.2543 249.31 47.0282 278C47.492 285.5 48.4443 287.5 48.4443 287.5C50.4443 291.5 54.9443 297.5 83.4443 297.5C111.944 297.5 116.444 291.5 118.444 287.5C118.444 287.5 119.459 284.5 119.86 278C121.634 249.31 124.444 201.976 124.444 190C124.444 175.137 130.936 127.454 132.893 113.421C133.259 110.796 133.444 108.17 133.444 105.52V97.5C133.444 97.5 119.444 82 83.4443 82Z" fill="url(#paint9_linear_1408_7166)"/>
</g>
<path d="M26.4444 195C25.9444 133 29.9444 120.5 29.9444 120.5C29.9444 120.5 38.4443 148 39.9443 197C41.4443 246 41.9444 289.5 41.9444 289.5C41.9444 289.5 26.9444 257 26.4444 195Z" fill="#444444"/>
<path d="M140.944 195C141.444 133 137.444 120.5 137.444 120.5C137.444 120.5 128.944 148 127.444 197C125.944 246 125.444 289.5 125.444 289.5C125.444 289.5 140.444 257 140.944 195Z" fill="#444444"/>
</g>
<defs>
<filter id="filter0_d_1408_7166" x="0" y="0" width="166.889" height="354.011" filterUnits="userSpaceOnUse" color-interpolation-filters="sRGB">
<feFlood flood-opacity="0" result="BackgroundImageFix"/>
<feColorMatrix in="SourceAlpha" type="matrix" values="0 0 0 0 0 0 0 0 0 0 0 0 0 0 0 0 0 0 127 0" result="hardAlpha"/>
<feOffset dy="2"/>
<feGaussianBlur stdDeviation="5"/>
<feColorMatrix type="matrix" values="0 0 0 0 0 0 0 0 0 0 0 0 0 0 0 0 0 0 0.25 0"/>
<feBlend mode="normal" in2="BackgroundImageFix" result="effect1_dropShadow_1408_7166"/>
<feBlend mode="normal" in="SourceGraphic" in2="effect1_dropShadow_1408_7166" result="shape"/>
</filter>
<linearGradient id="paint0_linear_1408_7166" x1="10.4443" y1="137.5" x2="156.444" y2="136.5" gradientUnits="userSpaceOnUse">
<stop stop-color="white"/>
<stop offset="0.486188" stop-color="#DEDEDE"/>
<stop offset="0.994475" stop-color="#DEDEDE"/>
</linearGradient>
<linearGradient id="paint1_linear_1408_7166" x1="41.3711" y1="24" x2="50.3711" y2="40.5" gradientUnits="userSpaceOnUse">
<stop stop-color="#6E6E6E"/>
<stop offset="0.342541" stop-color="white"/>
<stop offset="0.480663" stop-color="#C9C9C9"/>
<stop offset="0.889503" stop-color="#5D5D5D"/>
</linearGradient>
<linearGradient id="paint2_linear_1408_7166" x1="126.444" y1="24" x2="117.444" y2="40.5" gradientUnits="userSpaceOnUse">
<stop stop-color="#6E6E6E"/>
<stop offset="0.342541" stop-color="white"/>
<stop offset="0.480663" stop-color="#C9C9C9"/>
<stop offset="0.889503" stop-color="#5D5D5D"/>
</linearGradient>
<linearGradient id="paint3_linear_1408_7166" x1="124.444" y1="54.54" x2="41.9443" y2="55.04" gradientUnits="userSpaceOnUse">
<stop stop-color="#DADADA"/>
<stop offset="0.331492" stop-color="#F0F0F0"/>
<stop offset="1" stop-color="white"/>
</linearGradient>
<linearGradient id="paint4_linear_1408_7166" x1="33.4443" y1="82" x2="133.444" y2="82" gradientUnits="userSpaceOnUse">
<stop stop-color="#262626"/>
<stop offset="0.778317" stop-color="#3A3A3A"/>
<stop offset="0.823126" stop-color="#615C5C"/>
<stop offset="0.864312" stop-color="#282828"/>
<stop offset="1" stop-color="#484848"/>
</linearGradient>
<radialGradient id="paint5_radial_1408_7166" cx="0" cy="0" r="1" gradientUnits="userSpaceOnUse" gradientTransform="translate(83 309) rotate(90) scale(12 71.7695)">
<stop stop-color="#C2C2C2"/>
<stop offset="0.977901" stop-color="#FAFAFA"/>
</radialGradient>
<linearGradient id="paint6_linear_1408_7166" x1="83.5" y1="278.001" x2="83.5" y2="315.501" gradientUnits="userSpaceOnUse">
<stop stop-color="#A9A9A9"/>
<stop offset="0.707182" stop-color="#F8F8F8"/>
<stop offset="0.945938" stop-color="#FAFAFA"/>
<stop offset="0.950005" stop-color="#3B3B3B"/>
</linearGradient>
<linearGradient id="paint7_linear_1408_7166" x1="83.5" y1="278.001" x2="83.5" y2="315.501" gradientUnits="userSpaceOnUse">
<stop stop-color="#A9A9A9"/>
<stop offset="0.707182" stop-color="#F8F8F8"/>
<stop offset="0.945938" stop-color="#FAFAFA"/>
<stop offset="0.950005" stop-color="#3B3B3B"/>
</linearGradient>
<linearGradient id="paint8_linear_1408_7166" x1="33.4443" y1="82" x2="133.444" y2="82" gradientUnits="userSpaceOnUse">
<stop stop-color="#262626"/>
<stop offset="0.778317" stop-color="#3A3A3A"/>
<stop offset="0.823126" stop-color="#615C5C"/>
<stop offset="0.864312" stop-color="#282828"/>
<stop offset="1" stop-color="#484848"/>
</linearGradient>
<linearGradient id="paint9_linear_1408_7166" x1="83" y1="297.5" x2="83" y2="289.5" gradientUnits="userSpaceOnUse">
<stop stop-opacity="0.6"/>
<stop offset="1" stop-opacity="0"/>
</linearGradient>
</defs>
</svg>
