<svg width="14" height="14" viewBox="0 0 14 14" fill="none" xmlns="http://www.w3.org/2000/svg">
	<path d="M4.8125 1.53125C4.8125 1.24141 4.69711 0.963046 4.49203 0.757974C4.28695 0.552902 4.00859 0.4375 3.71875 0.4375H1.53125C0.926954 0.4375 0.4375 0.926954 0.4375 1.53125C0.4375 2.13555 0.926954 2.625 1.53125 2.625H3.71875C4.00859 2.625 4.28695 2.50961 4.49203 2.30453C4.6971 2.09945 4.8125 1.82109 4.8125 1.53125ZM1.3125 1.53125C1.3125 1.41039 1.41039 1.3125 1.53125 1.3125H3.71875C3.83961 1.3125 3.9375 1.41039 3.9375 1.53125C3.9375 1.65211 3.83961 1.75 3.71875 1.75H1.53125C1.41039 1.75 1.3125 1.65211 1.3125 1.53125Z" fill="#1E55A9" />
	<path d="M4.59372 11.375C4.15129 11.375 3.75263 11.6413 3.58309 12.0504C3.41411 12.4589 3.50762 12.9292 3.82043 13.242C4.13324 13.5549 4.60356 13.6484 5.01207 13.4794C5.42113 13.3099 5.68745 12.9112 5.68745 12.4688C5.68745 12.1789 5.57206 11.9005 5.36698 11.6955C5.16191 11.4904 4.88355 11.375 4.5937 11.375L4.59372 11.375ZM4.59372 12.6875C4.50513 12.6875 4.42528 12.6345 4.39138 12.5524C4.35802 12.471 4.37661 12.3769 4.43895 12.314C4.50185 12.2517 4.59591 12.2331 4.67739 12.2664C4.75942 12.3003 4.81247 12.3802 4.81247 12.4688C4.81247 12.5267 4.7895 12.5825 4.74848 12.6235C4.70747 12.6646 4.65168 12.6875 4.59371 12.6875L4.59372 12.6875Z" fill="#1E55A9" />
	<path d="M9.40634 11.375C8.96391 11.375 8.56525 11.6413 8.39571 12.0504C8.22673 12.4589 8.32024 12.9292 8.63305 13.242C8.94587 13.5549 9.41618 13.6484 9.82469 13.4794C10.2338 13.3099 10.5001 12.9112 10.5001 12.4688C10.5001 12.1789 10.3847 11.9005 10.1796 11.6955C9.97453 11.4904 9.69617 11.375 9.40633 11.375L9.40634 11.375ZM9.40634 12.6875C9.31775 12.6875 9.23791 12.6345 9.204 12.5524C9.17064 12.471 9.18923 12.3769 9.25158 12.314C9.31447 12.2517 9.40853 12.2331 9.49001 12.2664C9.57204 12.3003 9.62509 12.3802 9.62509 12.4688C9.62509 12.5267 9.60212 12.5825 9.5611 12.6235C9.52009 12.6646 9.46431 12.6875 9.40633 12.6875L9.40634 12.6875Z" fill="#1E55A9" />
	<path d="M13.2956 3.61377C13.0479 3.26595 12.6465 3.06033 12.2194 3.06252H3.96804C3.21991 3.07236 2.61999 3.68377 2.62491 4.43189V9.5682C2.61999 10.3163 3.21991 10.9277 3.96804 10.9376H10.5567C11.1419 10.9359 11.6587 10.5553 11.8342 9.99694L13.4924 4.8651C13.6324 4.44073 13.5591 3.97478 13.2955 3.61385L13.2956 3.61377ZM12.6612 4.59377L11.0031 9.72561C10.9435 9.91974 10.7685 10.0548 10.5656 10.0625H3.96808C3.84066 10.0592 3.71926 10.0051 3.63176 9.91209C3.54371 9.81966 3.49668 9.69552 3.49996 9.56811V4.43179C3.49668 4.30436 3.54371 4.18022 3.63176 4.08781C3.71926 3.99484 3.84067 3.9407 3.96808 3.93742H12.2194C12.3671 3.93851 12.5049 4.01015 12.5913 4.12992C12.6881 4.2639 12.7143 4.43671 12.6613 4.59367L12.6612 4.59377Z" fill="#1E55A9" />
	<path d="M9.1875 6.5625H7.875V5.25C7.875 5.00828 7.67922 4.8125 7.4375 4.8125C7.19578 4.8125 7 5.00828 7 5.25V6.5625H5.6875C5.44578 6.5625 5.25 6.75828 5.25 7C5.25 7.24172 5.44578 7.4375 5.6875 7.4375H7V8.75C7 8.99172 7.19578 9.1875 7.4375 9.1875C7.67922 9.1875 7.875 8.99172 7.875 8.75V7.4375H9.1875C9.42922 7.4375 9.625 7.24172 9.625 7C9.625 6.75828 9.42922 6.5625 9.1875 6.5625Z" fill="#1E55A9" />
</svg>
