<svg width="23" height="21" viewBox="0 0 23 21" fill="none" xmlns="http://www.w3.org/2000/svg">
	<path fill-rule="evenodd" clip-rule="evenodd" d="M12.8829 0.63274C7.44138 0.63274 3.01563 5.05849 3.01563 10.5C3.0332 10.6152 3.04199 10.7402 3.04688 10.875L1.21875 9.05469L0.25 10.0234L3.78125 13.5547L7.3125 10.0234L6.35155 9.05469L4.5625 10.8359V10.1953C4.71973 5.72957 8.378 2.17982 12.8828 2.17982C17.4883 2.17982 21.203 5.89457 21.203 10.5001C21.203 15.1056 17.4883 18.8203 12.8828 18.8203V20.3672C18.3243 20.3672 22.75 15.9414 22.75 10.4999C22.75 5.05844 18.3243 0.63269 12.8828 0.63269L12.8829 0.63274ZM12.2032 3.99999C12.1241 3.99999 12.0547 4.06151 12.0547 4.14062V5.28907C11.4864 5.40039 10.9405 5.59277 10.4454 5.87502C10.0938 6.07521 9.80181 6.32424 9.55474 6.60157C9.31157 6.87502 9.14751 7.18067 9.03911 7.51562C8.99224 7.65917 8.94146 7.81639 8.92193 7.99999C8.90239 8.18359 8.90142 8.38574 8.91411 8.59374C8.92681 8.79198 8.97173 8.99414 9.03911 9.20312C9.10454 9.40429 9.17974 9.61424 9.32036 9.80467C10.0206 10.7539 11.0274 11.0742 12.0549 11.3047V13.6328C11.8586 13.5898 11.6711 13.539 11.4924 13.4765C11.1437 13.3545 10.7863 13.1699 10.4064 12.9531C8.71209 11.9843 7.94646 14.2959 9.35171 14.9296C9.92691 15.1894 10.4464 15.4228 10.9455 15.5468C11.3341 15.6435 11.7033 15.7119 12.0548 15.7578V16.8593C12.0548 16.9384 12.1242 17 12.2033 17H13.5627C13.6418 17 13.7033 16.9384 13.7033 16.8593V15.7968C14.1281 15.7646 14.5451 15.6953 14.9064 15.5859C15.3859 15.4414 15.7746 15.247 16.0783 15.0078C16.3869 14.7646 16.6086 14.5009 16.7736 14.2109C16.9425 13.914 17.0656 13.6083 17.1017 13.2968C17.1525 12.8632 17.173 12.4541 17.1017 12.0859C17.0285 11.708 16.8624 11.3525 16.6095 11.0156C16.3947 10.7295 15.9865 10.4404 15.3751 10.164C14.9435 9.96873 14.382 9.77829 13.7033 9.60934V7.31247C13.8829 7.34469 14.0509 7.38571 14.2033 7.43747C14.5665 7.55954 14.882 7.70504 15.1642 7.86717C16.5158 8.64647 17.5431 6.92869 16.3205 6.14842C16.007 5.94822 15.5871 5.66112 14.9611 5.46092C14.5529 5.33006 14.131 5.249 13.7033 5.21092V4.14062C13.7033 4.06151 13.6418 3.99999 13.5627 3.99999H12.2032ZM12.0547 7.38274V9.20304C11.9063 9.15226 11.7676 9.09464 11.6485 9.02335C11.4864 8.92667 11.3536 8.80851 11.2735 8.64835C11.1846 8.47062 11.1973 8.2587 11.2579 8.07023C11.292 7.96476 11.3721 7.85246 11.4297 7.78118C11.5176 7.67376 11.6251 7.59368 11.7579 7.51555C11.8448 7.46477 11.9473 7.42083 12.0547 7.38274ZM13.7032 11.6875C13.8819 11.7392 14.0567 11.792 14.2266 11.8594C14.5274 11.9795 14.8985 12.2392 14.9844 12.5156C15.0557 12.7441 15.0421 13.0078 14.9063 13.1953C14.6085 13.6064 14.2403 13.6982 13.7969 13.75C13.7667 13.7539 13.7335 13.7549 13.7032 13.7578V11.6875Z" fill="#3E4244" />
</svg>
