<svg width="278" height="239" viewBox="0 0 278 239" fill="none" xmlns="http://www.w3.org/2000/svg">
	<g clip-path="url(#clip0_1707_3700)">
		<path fill-rule="evenodd" clip-rule="evenodd" d="M137.809 201.082C192.803 201.082 237.741 156.145 237.741 101.15C237.741 45.2785 192.803 0.341187 137.809 0.341187C81.9373 0.341187 37 45.2785 37 101.15C37 156.145 81.9373 201.082 137.809 201.082Z" fill="#4B40D1" />
		<mask id="mask0_1707_3700" style="mask-type:alpha" maskUnits="userSpaceOnUse" x="37" y="0" width="201" height="202">
			<path fill-rule="evenodd" clip-rule="evenodd" d="M137.809 201.082C192.803 201.082 237.741 156.145 237.741 101.15C237.741 45.2785 192.803 0.341187 137.809 0.341187C81.9373 0.341187 37 45.2785 37 101.15C37 156.145 81.9373 201.082 137.809 201.082Z" fill="white" />
		</mask>
		<g mask="url(#mask0_1707_3700)">
		</g>
		<path fill-rule="evenodd" clip-rule="evenodd" d="M76.555 182.606C109.425 207.415 155.83 210.28 192.628 186.383C239.525 155.928 253.06 93.5396 222.859 47.0345C216.148 36.7004 207.842 28.0202 198.467 21.1034L137.91 102.291L76.555 182.606Z" fill="#1E55A9" />
		<path fill-rule="evenodd" clip-rule="evenodd" d="M114 199.39C121.84 201.318 130.045 202.341 138.499 202.341C193.807 202.341 239 157.122 239 101.782C239 45.5604 193.807 0.341187 138.499 0.341187C137.974 0.341187 137.451 0.345128 136.928 0.352983L138.499 101.341L114 199.39Z" fill="#ECA0A0" />
	</g>
	<defs>
		<clipPath id="clip0_1707_3700">
			<rect width="278" height="238" fill="white" transform="translate(0 0.341187)" />
		</clipPath>
	</defs>
</svg>
