<svg width="20" height="20" viewBox="0 0 20 20" fill="none" xmlns="http://www.w3.org/2000/svg">
	<path d="M10 11.0417C10.5178 11.0417 10.9375 10.6219 10.9375 10.1042C10.9375 9.5864 10.5178 9.16667 10 9.16667C9.48223 9.16667 9.0625 9.5864 9.0625 10.1042C9.0625 10.6219 9.48223 11.0417 10 11.0417Z" fill="#9C9C9C" />
	<path d="M16.5625 11.0417C17.0803 11.0417 17.5 10.6219 17.5 10.1042C17.5 9.5864 17.0803 9.16667 16.5625 9.16667C16.0447 9.16667 15.625 9.5864 15.625 10.1042C15.625 10.6219 16.0447 11.0417 16.5625 11.0417Z" fill="#9C9C9C" />
	<path d="M3.4375 11.0417C3.95527 11.0417 4.375 10.6219 4.375 10.1042C4.375 9.5864 3.95527 9.16667 3.4375 9.16667C2.91973 9.16667 2.5 9.5864 2.5 10.1042C2.5 10.6219 2.91973 11.0417 3.4375 11.0417Z" fill="#9C9C9C" />
	<path d="M10 11.0417C10.5178 11.0417 10.9375 10.6219 10.9375 10.1042C10.9375 9.5864 10.5178 9.16667 10 9.16667C9.48223 9.16667 9.0625 9.5864 9.0625 10.1042C9.0625 10.6219 9.48223 11.0417 10 11.0417Z" stroke="#9C9C9C" stroke-linecap="round" stroke-linejoin="round" />
	<path d="M16.5625 11.0417C17.0803 11.0417 17.5 10.6219 17.5 10.1042C17.5 9.5864 17.0803 9.16667 16.5625 9.16667C16.0447 9.16667 15.625 9.5864 15.625 10.1042C15.625 10.6219 16.0447 11.0417 16.5625 11.0417Z" stroke="#9C9C9C" stroke-linecap="round" stroke-linejoin="round" />
	<path d="M3.4375 11.0417C3.95527 11.0417 4.375 10.6219 4.375 10.1042C4.375 9.5864 3.95527 9.16667 3.4375 9.16667C2.91973 9.16667 2.5 9.5864 2.5 10.1042C2.5 10.6219 2.91973 11.0417 3.4375 11.0417Z" stroke="#9C9C9C" stroke-linecap="round" stroke-linejoin="round" />
</svg>
