<?xml version="1.0" encoding="UTF-8"?><svg id="a" xmlns="http://www.w3.org/2000/svg" viewBox="0 0 10 10"><defs><style>.b{fill:#bdc8da;}</style></defs><path class="b" d="M4.91,.58C2.51,.58,.56,2.52,.56,4.92s1.95,4.35,4.35,4.35,4.35-1.95,4.35-4.35S7.31,.58,4.91,.58Zm0,7.96c-2,0-3.62-1.62-3.62-3.62S2.91,1.31,4.91,1.31s3.62,1.62,3.62,3.62-1.62,3.62-3.62,3.62Z"/><path class="b" d="M7.03,4.27h-.61l-.11,.26h-.05v-.09c0-.06-.05-.11-.11-.11h-.27v-.2c0-.15-.12-.27-.27-.27h-.5v-.2h.5s.09-.04,.09-.09v-.07s-.04-.09-.09-.09h-1.73s-.09,.04-.09,.09v.07s.04,.09,.09,.09h.56v.2h-.56s-.08,.01-.12,.03l-.3,.21h-.27v.77h-.18v-.64s-.04-.09-.09-.09h-.07s-.09,.04-.09,.09v1.53s.04,.09,.09,.09h.07s.09-.04,.09-.09v-.64h.18v.76h.35l.77,.58h1.66c.16,0,.3-.13,.3-.3v-.14h.05l.11,.26h.61l.2-.44v-1.11l-.2-.45Zm-2.12,1.31v-.61h-.44l.48-.82v.61h.44l-.48,.82Z"/></svg>