<svg width="6" height="6" viewBox="0 0 6 6" fill="none" xmlns="http://www.w3.org/2000/svg">
<path fill-rule="evenodd" clip-rule="evenodd" d="M0.577197 0.577197C0.680126 0.474268 0.847007 0.474268 0.949936 0.577197L3 2.62726L5.05006 0.577197C5.15299 0.474268 5.31987 0.474268 5.4228 0.577197C5.52573 0.680126 5.52573 0.847007 5.4228 0.949936L3.37274 3L5.4228 5.05006C5.52573 5.15299 5.52573 5.31987 5.4228 5.4228C5.31987 5.52573 5.15299 5.52573 5.05006 5.4228L3 3.37274L0.949936 5.4228C0.847007 5.52573 0.680126 5.52573 0.577197 5.4228C0.474268 5.31987 0.474268 5.15299 0.577197 5.05006L2.62726 3L0.577197 0.949936C0.474268 0.847007 0.474268 0.680126 0.577197 0.577197Z" fill="#1E55A9"/>
</svg>
