<svg width="26" height="35" viewBox="0 0 26 35" fill="none" xmlns="http://www.w3.org/2000/svg">
	<g style="mix-blend-mode:multiply">
		<path d="M13 25C20.1797 25 26 19.4036 26 12.5C26 5.59644 20.1797 0 13 0C5.8203 0 0 5.59644 0 12.5C0 19.4036 5.8203 25 13 25Z" fill="#9C9C9C" />
	</g>
	<g style="mix-blend-mode:multiply">
		<path d="M22.5623 35C24.9238 35 26.3595 32.3978 25.1001 30.4001L16.0378 16.0254C14.8609 14.1586 12.1391 14.1586 10.9622 16.0254L1.89994 30.4001C0.640517 32.3978 2.07615 35 4.43772 35H22.5623Z" fill="#3E4244" />
	</g>
	<g style="mix-blend-mode:multiply">
		<path d="M5 26C7.76142 26 10 23.7614 10 21C10 18.2386 7.76142 16 5 16C2.23858 16 0 18.2386 0 21C0 23.7614 2.23858 26 5 26Z" fill="#9C9C9C" />
	</g>
</svg>
