<svg width="20" height="19" viewBox="0 0 20 19" fill="none" xmlns="http://www.w3.org/2000/svg">
	<path d="M18.5 8.96959L10.4628 16.5497C9.47817 17.4783 8.14274 18 6.75028 18C5.35782 18 4.02239 17.4783 3.03777 16.5497C2.05315 15.6211 1.5 14.3616 1.5 13.0483C1.5 11.7351 2.05315 10.4756 3.03777 9.54697L11.075 1.96687C11.7314 1.34779 12.6217 1 13.55 1C14.4783 1 15.3686 1.34779 16.025 1.96687C16.6814 2.58595 17.0502 3.4256 17.0502 4.30111C17.0502 5.17662 16.6814 6.01628 16.025 6.63535L7.97904 14.2154C7.65083 14.525 7.20569 14.6989 6.74154 14.6989C6.27738 14.6989 5.83224 14.525 5.50403 14.2154C5.17583 13.9059 4.99144 13.4861 4.99144 13.0483C4.99144 12.6106 5.17583 12.1907 5.50403 11.8812L12.929 4.88674" stroke="#8D9198" stroke-width="1.5" stroke-linecap="round" stroke-linejoin="round" />
</svg>
