<svg width="15" height="15" viewBox="0 0 15 15" fill="none" xmlns="http://www.w3.org/2000/svg">
<path d="M7.50004 0.9375C6.16762 0.9375 4.93189 1.34063 3.89704 2.02208L2.81247 0.9375V4.6875H6.56247L5.2734 3.39843C5.93902 3.0369 6.68961 2.8125 7.5 2.8125C10.0887 2.8125 12.1875 4.9107 12.1875 7.5C12.1875 10.0893 10.0887 12.1875 7.5 12.1875C4.9107 12.1875 2.8125 10.0887 2.8125 7.5C2.8125 6.83262 2.95605 6.1998 3.208 5.625H1.875V4.16895C1.29375 5.14923 0.9375 6.27825 0.9375 7.5C0.9375 11.1246 3.8754 14.0625 7.5 14.0625C11.1246 14.0625 14.0625 11.1246 14.0625 7.5C14.0625 3.8754 11.1246 0.9375 7.5 0.9375H7.50004ZM7.48598 12.1728L8.43755 11.25V8.43746H10.3126L11.25 7.49996L10.3126 6.56246H8.43755L7.50005 5.62496L5.62505 7.49996L6.56255 8.43746V11.25L7.48598 12.1728Z" fill="#1E55A9"/>
</svg>
