<svg width="98" height="94" viewBox="0 0 98 94" fill="none" xmlns="http://www.w3.org/2000/svg">
	<path opacity="0.5" d="M2.96907 0.614116C1.99128 1.01938 1.20913 1.80117 0.803615 2.77857L1.26544 2.97018C1.09456 3.38204 1 3.83406 1 4.30942V6.24057H0.5V10.1029H1V13.9652H0.5V17.8275H1V21.6898H0.5V25.5521H1V29.4144H0.5V33.2767H1V37.139H0.5V41.0013H1V44.8636H0.5V48.726H1V52.5883H0.5V56.4506H1V60.3129H0.5V64.1752H1V68.0375H0.5V71.8998H1V75.7621H0.5V79.6244H1V83.4867H0.5V87.349H1V89.2802C1 89.7555 1.09456 90.2076 1.26544 90.6194L0.803615 90.811C1.20913 91.7884 1.99128 92.5702 2.96907 92.9755L3.16052 92.5136C3.57246 92.6843 4.02456 92.7788 4.5 92.7788H6.52273V93.2788H10.5682V92.7788H14.6136V93.2788H18.6591V92.7788H22.7045V93.2788H26.75V92.7788H30.7955V93.2788H34.8409V92.7788H38.8864V93.2788H42.9318V92.7788H46.9773V93.2788H51.0227V92.7788H55.0682V93.2788H59.1136V92.7788H63.1591V93.2788H67.2046V92.7788H71.25V93.2788H75.2955V92.7788H79.3409V93.2788H83.3864V92.7788H87.4318V93.2788H91.4773V92.7788H93.5C93.9754 92.7788 94.4275 92.6843 94.8395 92.5136L95.0309 92.9755C96.0087 92.5702 96.7909 91.7884 97.1964 90.811L96.7346 90.6194C96.9054 90.2076 97 89.7555 97 89.2802V87.349H97.5V83.4867H97V79.6244H97.5V75.7621H97V71.8998H97.5V68.0375H97V64.1752H97.5V60.3129H97V56.4506H97.5V52.5883H97V48.7259H97.5V44.8636H97V41.0013H97.5V37.139H97V33.2767H97.5V29.4144H97V25.5521H97.5V21.6898H97V17.8275H97.5V13.9652H97V10.1029H97.5V6.24057H97V4.30942C97 3.83406 96.9054 3.38204 96.7346 2.97018L97.1964 2.77857C96.7909 1.80117 96.0087 1.01938 95.0309 0.614116L94.8395 1.07601C94.4275 0.905276 93.9754 0.810791 93.5 0.810791H91.4773V0.310791H87.4318V0.810791H83.3864V0.310791H79.3409V0.810791H75.2955V0.310791H71.25V0.810791H67.2045V0.310791H63.1591V0.810791H59.1136V0.310791H55.0682V0.810791H51.0227V0.310791H46.9773V0.810791H42.9318V0.310791H38.8864V0.810791H34.8409V0.310791H30.7955V0.810791H26.75V0.310791H22.7045V0.810791H18.6591V0.310791H14.6136V0.810791H10.5682V0.310791H6.52271V0.810791H4.5C4.02456 0.810791 3.57246 0.905276 3.16052 1.07601L2.96907 0.614116Z" fill="#F2F2F2" stroke="#9C9C9C" stroke-dasharray="4 4" />
	<path d="M23 32.7998H28V35.7984H23V32.7998Z" fill="#9C9C9C" stroke="#9C9C9C" />
	<path d="M23 40.7971H28V43.7957H23V40.7971Z" fill="#9C9C9C" stroke="#9C9C9C" />
	<path d="M23 48.7942H28V51.7928H23V48.7942Z" fill="#9C9C9C" stroke="#9C9C9C" />
	<path d="M32 32.7998H37V35.7984H32V32.7998Z" fill="#9C9C9C" stroke="#9C9C9C" />
	<path d="M32 40.7971H37V43.7957H32V40.7971Z" fill="#9C9C9C" stroke="#9C9C9C" />
	<path d="M32 48.7942H37V51.7928H32V48.7942Z" fill="#9C9C9C" stroke="#9C9C9C" />
	<path d="M45 30.8004H75.341V53.7922H45V30.8004Z" stroke="#9C9C9C" />
	<path d="M46.5 31.7997H46V32.2997V52.2929V52.7929H46.5H73.8412H74.3412V52.2929V32.2997V31.7997H73.8412H46.5ZM45 30.8004H75.3412V53.7922H45V30.8004Z" fill="#3E4244" stroke="#9C9C9C" />
	<path d="M48.3877 34.4702H71.9527V50.1235H48.3877V34.4702Z" stroke="#9C9C9C" />
	<path d="M71.4527 34.97H48.8877V49.6239H71.4527V34.97Z" stroke="#9C9C9C" stroke-width="2" />
	<path d="M54.7299 38.4857C54.7299 39.4566 53.9426 40.244 52.9709 40.244C51.9993 40.244 51.2119 39.4566 51.2119 38.4857C51.2119 37.5149 51.9993 36.7275 52.9709 36.7275C53.9426 36.7275 54.7299 37.5149 54.7299 38.4857Z" fill="#3E4244" stroke="#9C9C9C" />
	<path d="M58.9788 44.2644L62.3729 39.6118L68.0355 48.0883L51.795 48.0874L56.4332 42.6452L58.2327 44.3343L58.6453 44.7216L58.9788 44.2644Z" fill="#3E4244" stroke="#9C9C9C" />
</svg>
