<svg width="98" height="94" viewBox="0 0 98 94" fill="none" xmlns="http://www.w3.org/2000/svg">
	<path opacity="0.5" d="M2.96907 1.1699C1.99128 1.57517 1.20913 2.35696 0.803615 3.33435L1.26544 3.52596C1.09456 3.93783 1 4.38985 1 4.8652V6.79636H0.5V10.6587H1V14.521H0.5V18.3833H1V22.2456H0.5V26.1079H1V29.9702H0.5V33.8325H1V37.6948H0.5V41.5571H1V45.4194H0.5V49.2817H1V53.1441H0.5V57.0064H1V60.8687H0.5V64.731H1V68.5933H0.5V72.4556H1V76.3179H0.5V80.1802H1V84.0425H0.5V87.9048H1V89.836C1 90.3113 1.09456 90.7633 1.26544 91.1752L0.803615 91.3668C1.20913 92.3442 1.99128 93.126 2.96907 93.5313L3.16052 93.0694C3.57246 93.2401 4.02456 93.3346 4.5 93.3346H6.52273V93.8346H10.5682V93.3346H14.6136V93.8346H18.6591V93.3346H22.7045V93.8346H26.75V93.3346H30.7955V93.8346H34.8409V93.3346H38.8864V93.8346H42.9318V93.3346H46.9773V93.8346H51.0227V93.3346H55.0682V93.8346H59.1136V93.3346H63.1591V93.8346H67.2046V93.3346H71.25V93.8346H75.2955V93.3346H79.3409V93.8346H83.3864V93.3346H87.4318V93.8346H91.4773V93.3346H93.5C93.9754 93.3346 94.4275 93.2401 94.8395 93.0694L95.0309 93.5313C96.0087 93.126 96.7909 92.3442 97.1964 91.3668L96.7346 91.1752C96.9054 90.7633 97 90.3113 97 89.836V87.9048H97.5V84.0425H97V80.1802H97.5V76.3179H97V72.4556H97.5V68.5933H97V64.731H97.5V60.8687H97V57.0063H97.5V53.144H97V49.2817H97.5V45.4194H97V41.5571H97.5V37.6948H97V33.8325H97.5V29.9702H97V26.1079H97.5V22.2456H97V18.3833H97.5V14.521H97V10.6587H97.5V6.79635H97V4.8652C97 4.38985 96.9054 3.93783 96.7346 3.52596L97.1964 3.33435C96.7909 2.35696 96.0087 1.57517 95.0309 1.1699L94.8395 1.6318C94.4275 1.46106 93.9754 1.36658 93.5 1.36658H91.4773V0.866577H87.4318V1.36658H83.3864V0.866577H79.3409V1.36658H75.2955V0.866577H71.25V1.36658H67.2045V0.866577H63.1591V1.36658H59.1136V0.866577H55.0682V1.36658H51.0227V0.866577H46.9773V1.36658H42.9318V0.866577H38.8864V1.36658H34.8409V0.866577H30.7955V1.36658H26.75V0.866577H22.7045V1.36658H18.6591V0.866577H14.6136V1.36658H10.5682V0.866577H6.52271V1.36658H4.5C4.02456 1.36658 3.57246 1.46106 3.16052 1.6318L2.96907 1.1699Z" fill="#F2F2F2" stroke="#9C9C9C" stroke-dasharray="4 4" />
	<path d="M26 33.3555H31V36.3541H26V33.3555Z" fill="#9C9C9C" stroke="#9C9C9C" />
	<path d="M26 41.3528H31V44.3514H26V41.3528Z" fill="#9C9C9C" stroke="#9C9C9C" />
	<path d="M26 49.35H31V52.3486H26V49.35Z" fill="#9C9C9C" stroke="#9C9C9C" />
	<path d="M35 33.3555H40V36.3541H35V33.3555Z" fill="#9C9C9C" stroke="#9C9C9C" />
	<path d="M35 41.3528H40V44.3514H35V41.3528Z" fill="#9C9C9C" stroke="#9C9C9C" />
	<path d="M35 49.35H40V52.3486H35V49.35Z" fill="#9C9C9C" stroke="#9C9C9C" />
	<path d="M72 42.8521C72 49.2009 66.8514 54.3479 60.5 54.3479C54.1486 54.3479 49 49.2009 49 42.8521C49 36.5032 54.1486 31.3562 60.5 31.3562C66.8514 31.3562 72 36.5032 72 42.8521Z" stroke="#9C9C9C" />
	<path d="M60.5 53.8484C66.5751 53.8484 71.5 48.9252 71.5 42.8522C71.5 36.7791 66.5751 31.856 60.5 31.856C54.4249 31.856 49.5 36.7791 49.5 42.8522C49.5 48.9252 54.4249 53.8484 60.5 53.8484Z" stroke="#9C9C9C" stroke-width="2" />
	<path d="M65 42.8521C65 45.3362 62.9854 47.3503 60.5 47.3503C58.0146 47.3503 56 45.3362 56 42.8521C56 40.3679 58.0146 38.3538 60.5 38.3538C62.9854 38.3538 65 40.3679 65 42.8521Z" fill="#3E4244" stroke="#9C9C9C" />
</svg>
