<svg width="98" height="94" viewBox="0 0 98 94" fill="none" xmlns="http://www.w3.org/2000/svg">
	<g opacity="0.5">
		<path d="M2.96907 1.02671C1.99128 1.43198 1.20913 2.21377 0.803615 3.19116L1.26544 3.38278C1.09456 3.79464 1 4.24666 1 4.72201V6.65317H0.5V10.5155H1V14.3778H0.5V18.2401H1V22.1024H0.5V25.9647H1V29.827H0.5V33.6893H1V37.5516H0.5V41.4139H1V45.2762H0.5V49.1386H1V53.0009H0.5V56.8632H1V60.7255H0.5V64.5878H1V68.4501H0.5V72.3124H1V76.1747H0.5V80.037H1V83.8993H0.5V87.7616H1V89.6928C1 90.1681 1.09456 90.6202 1.26544 91.032L0.803615 91.2236C1.20913 92.201 1.99128 92.9828 2.96907 93.3881L3.16052 92.9262C3.57246 93.0969 4.02456 93.1914 4.5 93.1914H6.52273V93.6914H10.5682V93.1914H14.6136V93.6914H18.6591V93.1914H22.7045V93.6914H26.75V93.1914H30.7955V93.6914H34.8409V93.1914H38.8864V93.6914H42.9318V93.1914H46.9773V93.6914H51.0227V93.1914H55.0682V93.6914H59.1136V93.1914H63.1591V93.6914H67.2046V93.1914H71.25V93.6914H75.2955V93.1914H79.3409V93.6914H83.3864V93.1914H87.4318V93.6914H91.4773V93.1914H93.5C93.9754 93.1914 94.4275 93.0969 94.8395 92.9262L95.0309 93.3881C96.0087 92.9828 96.7909 92.201 97.1964 91.2236L96.7346 91.032C96.9054 90.6202 97 90.1681 97 89.6928V87.7616H97.5V83.8993H97V80.037H97.5V76.1747H97V72.3124H97.5V68.4501H97V64.5878H97.5V60.7255H97V56.8632H97.5V53.0009H97V49.1385H97.5V45.2762H97V41.4139H97.5V37.5516H97V33.6893H97.5V29.827H97V25.9647H97.5V22.1024H97V18.2401H97.5V14.3778H97V10.5155H97.5V6.65316H97V4.72201C97 4.24666 96.9054 3.79464 96.7346 3.38278L97.1964 3.19116C96.7909 2.21377 96.0087 1.43198 95.0309 1.02671L94.8395 1.48861C94.4275 1.31787 93.9754 1.22339 93.5 1.22339H91.4773V0.723389H87.4318V1.22339H83.3864V0.723389H79.3409V1.22339H75.2955V0.723389H71.25V1.22339H67.2045V0.723389H63.1591V1.22339H59.1136V0.723389H55.0682V1.22339H51.0227V0.723389H46.9773V1.22339H42.9318V0.723389H38.8864V1.22339H34.8409V0.723389H30.7955V1.22339H26.75V0.723389H22.7045V1.22339H18.6591V0.723389H14.6136V1.22339H10.5682V0.723389H6.52271V1.22339H4.5C4.02456 1.22339 3.57246 1.31787 3.16052 1.48861L2.96907 1.02671Z" fill="#F2F2F2" stroke="#9C9C9C" stroke-dasharray="4 4" />
		<path d="M45.3176 79.403C45.3176 80.047 45.2156 80.633 45.0116 81.161C44.8076 81.689 44.5196 82.141 44.1476 82.517C43.7756 82.893 43.3276 83.185 42.8036 83.393C42.2836 83.597 41.7076 83.699 41.0756 83.699H37.8656V75.101H41.0756C41.7076 75.101 42.2836 75.205 42.8036 75.413C43.3276 75.617 43.7756 75.909 44.1476 76.289C44.5196 76.665 44.8076 77.117 45.0116 77.645C45.2156 78.173 45.3176 78.759 45.3176 79.403ZM44.1236 79.403C44.1236 78.875 44.0516 78.403 43.9076 77.987C43.7636 77.571 43.5596 77.219 43.2956 76.931C43.0316 76.643 42.7116 76.423 42.3356 76.271C41.9596 76.119 41.5396 76.043 41.0756 76.043H39.0296V82.757H41.0756C41.5396 82.757 41.9596 82.681 42.3356 82.529C42.7116 82.377 43.0316 82.159 43.2956 81.875C43.5596 81.587 43.7636 81.235 43.9076 80.819C44.0516 80.403 44.1236 79.931 44.1236 79.403ZM49.8841 80.963C49.3921 80.979 48.9721 81.019 48.6241 81.083C48.2801 81.143 47.9981 81.223 47.7781 81.323C47.5621 81.423 47.4041 81.541 47.3041 81.677C47.2081 81.813 47.1601 81.965 47.1601 82.133C47.1601 82.293 47.1861 82.431 47.2381 82.547C47.2901 82.663 47.3601 82.759 47.4481 82.835C47.5401 82.907 47.6461 82.961 47.7661 82.997C47.8901 83.029 48.0221 83.045 48.1621 83.045C48.3501 83.045 48.5221 83.027 48.6781 82.991C48.8341 82.951 48.9801 82.895 49.1161 82.823C49.2561 82.751 49.3881 82.665 49.5121 82.565C49.6401 82.465 49.7641 82.351 49.8841 82.223V80.963ZM46.4341 78.479C46.7701 78.155 47.1321 77.913 47.5201 77.753C47.9081 77.593 48.3381 77.513 48.8101 77.513C49.1501 77.513 49.4521 77.569 49.7161 77.681C49.9801 77.793 50.2021 77.949 50.3821 78.149C50.5621 78.349 50.6981 78.591 50.7901 78.875C50.8821 79.159 50.9281 79.471 50.9281 79.811V83.699H50.4541C50.3501 83.699 50.2701 83.683 50.2141 83.651C50.1581 83.615 50.1141 83.547 50.0821 83.447L49.9621 82.871C49.8021 83.019 49.6461 83.151 49.4941 83.267C49.3421 83.379 49.1821 83.475 49.0141 83.555C48.8461 83.631 48.6661 83.689 48.4741 83.729C48.2861 83.773 48.0761 83.795 47.8441 83.795C47.6081 83.795 47.3861 83.763 47.1781 83.699C46.9701 83.631 46.7881 83.531 46.6321 83.399C46.4801 83.267 46.3581 83.101 46.2661 82.901C46.1781 82.697 46.1341 82.457 46.1341 82.181C46.1341 81.941 46.2001 81.711 46.3321 81.491C46.4641 81.267 46.6781 81.069 46.9741 80.897C47.2701 80.725 47.6561 80.585 48.1321 80.477C48.6081 80.365 49.1921 80.301 49.8841 80.285V79.811C49.8841 79.339 49.7821 78.983 49.5781 78.743C49.3741 78.499 49.0761 78.377 48.6841 78.377C48.4201 78.377 48.1981 78.411 48.0181 78.479C47.8421 78.543 47.6881 78.617 47.5561 78.701C47.4281 78.781 47.3161 78.855 47.2201 78.923C47.1281 78.987 47.0361 79.019 46.9441 79.019C46.8721 79.019 46.8101 79.001 46.7581 78.965C46.7061 78.925 46.6621 78.877 46.6261 78.821L46.4341 78.479ZM54.339 83.795C53.859 83.795 53.489 83.661 53.229 83.393C52.973 83.125 52.845 82.739 52.845 82.235V78.515H52.113C52.049 78.515 51.995 78.497 51.951 78.461C51.907 78.421 51.885 78.361 51.885 78.281V77.855L52.881 77.729L53.127 75.851C53.139 75.791 53.165 75.743 53.205 75.707C53.249 75.667 53.305 75.647 53.373 75.647H53.913V77.741H55.671V78.515H53.913V82.163C53.913 82.419 53.975 82.609 54.099 82.733C54.223 82.857 54.383 82.919 54.579 82.919C54.691 82.919 54.787 82.905 54.867 82.877C54.951 82.845 55.023 82.811 55.083 82.775C55.143 82.739 55.193 82.707 55.233 82.679C55.277 82.647 55.315 82.631 55.347 82.631C55.403 82.631 55.453 82.665 55.497 82.733L55.809 83.243C55.625 83.415 55.403 83.551 55.143 83.651C54.883 83.747 54.615 83.795 54.339 83.795ZM60.8066 79.997C60.8066 79.749 60.7706 79.523 60.6986 79.319C60.6306 79.111 60.5286 78.933 60.3926 78.785C60.2606 78.633 60.0986 78.517 59.9066 78.437C59.7146 78.353 59.4966 78.311 59.2526 78.311C58.7406 78.311 58.3346 78.461 58.0346 78.761C57.7386 79.057 57.5546 79.469 57.4826 79.997H60.8066ZM61.6706 82.847C61.5386 83.007 61.3806 83.147 61.1966 83.267C61.0126 83.383 60.8146 83.479 60.6026 83.555C60.3946 83.631 60.1786 83.687 59.9546 83.723C59.7306 83.763 59.5086 83.783 59.2886 83.783C58.8686 83.783 58.4806 83.713 58.1246 83.573C57.7726 83.429 57.4666 83.221 57.2066 82.949C56.9506 82.673 56.7506 82.333 56.6066 81.929C56.4626 81.525 56.3906 81.061 56.3906 80.537C56.3906 80.113 56.4546 79.717 56.5826 79.349C56.7146 78.981 56.9026 78.663 57.1466 78.395C57.3906 78.123 57.6886 77.911 58.0406 77.759C58.3926 77.603 58.7886 77.525 59.2286 77.525C59.5926 77.525 59.9286 77.587 60.2366 77.711C60.5486 77.831 60.8166 78.007 61.0406 78.239C61.2686 78.467 61.4466 78.751 61.5746 79.091C61.7026 79.427 61.7666 79.811 61.7666 80.243C61.7666 80.411 61.7486 80.523 61.7126 80.579C61.6766 80.635 61.6086 80.663 61.5086 80.663H57.4466C57.4586 81.047 57.5106 81.381 57.6026 81.665C57.6986 81.949 57.8306 82.187 57.9986 82.379C58.1666 82.567 58.3666 82.709 58.5986 82.805C58.8306 82.897 59.0906 82.943 59.3786 82.943C59.6466 82.943 59.8766 82.913 60.0686 82.853C60.2646 82.789 60.4326 82.721 60.5726 82.649C60.7126 82.577 60.8286 82.511 60.9206 82.451C61.0166 82.387 61.0986 82.355 61.1666 82.355C61.2546 82.355 61.3226 82.389 61.3706 82.457L61.6706 82.847Z" fill="#3E4244" />
	</g>
	<path d="M58.4604 44.1215H56.5974C56.4493 44.121 56.3074 44.0619 56.2027 43.9573C56.098 43.8526 56.0389 43.7107 56.0384 43.5627V41.7003C56.0389 41.5523 56.098 41.4105 56.2027 41.3058C56.3074 41.2011 56.4493 41.1421 56.5974 41.1415H58.4604C58.6085 41.1421 58.7504 41.2011 58.8551 41.3058C58.9598 41.4105 59.0189 41.5523 59.0194 41.7003V43.5627C59.0189 43.7107 58.9598 43.8526 58.8551 43.9573C58.7504 44.0619 58.6085 44.121 58.4604 44.1215ZM63.4904 43.5627V41.7003C63.4899 41.5523 63.4308 41.4105 63.3261 41.3058C63.2214 41.2011 63.0795 41.1421 62.9314 41.1415H61.0674C60.9193 41.1421 60.7774 41.2011 60.6727 41.3058C60.568 41.4105 60.5089 41.5523 60.5084 41.7003V43.5627C60.5089 43.7107 60.568 43.8526 60.6727 43.9573C60.7774 44.0619 60.9193 44.121 61.0674 44.1215H62.9304C63.0786 44.1212 63.2208 44.0623 63.3257 43.9576C63.4307 43.8529 63.4899 43.7109 63.4904 43.5627ZM67.9614 43.5627V41.7003C67.9609 41.5523 67.9018 41.4105 67.7971 41.3058C67.6924 41.2011 67.5505 41.1421 67.4024 41.1415H65.5394C65.3913 41.1421 65.2494 41.2011 65.1447 41.3058C65.04 41.4105 64.9809 41.5523 64.9804 41.7003V43.5627C64.9809 43.7107 65.04 43.8526 65.1447 43.9573C65.2494 44.0619 65.3913 44.121 65.5394 44.1215H67.4024C67.5505 44.121 67.6924 44.0619 67.7971 43.9573C67.9018 43.8526 67.9609 43.7107 67.9614 43.5627ZM63.4904 48.0322V46.1708C63.4899 46.0228 63.4308 45.8809 63.3261 45.7762C63.2214 45.6716 63.0795 45.6125 62.9314 45.612H61.0674C60.9193 45.6125 60.7774 45.6716 60.6727 45.7762C60.568 45.8809 60.5089 46.0228 60.5084 46.1708V48.0332C60.5089 48.1812 60.568 48.323 60.6727 48.4277C60.7774 48.5324 60.9193 48.5914 61.0674 48.592H62.9304C63.0788 48.5917 63.2211 48.5326 63.3261 48.4277C63.431 48.3228 63.4901 48.1805 63.4904 48.0322ZM59.0194 48.0322V46.1708C59.0189 46.0228 58.9598 45.8809 58.8551 45.7762C58.7504 45.6716 58.6085 45.6125 58.4604 45.612H56.5974C56.4493 45.6125 56.3074 45.6716 56.2027 45.7762C56.098 45.8809 56.0389 46.0228 56.0384 46.1708V48.0332C56.0389 48.1812 56.098 48.323 56.2027 48.4277C56.3074 48.5324 56.4493 48.5914 56.5974 48.592H58.4604C58.6086 48.5914 58.7507 48.5323 58.8554 48.4274C58.9602 48.3225 59.0191 48.1804 59.0194 48.0322ZM67.9614 48.0322V46.1708C67.9609 46.0228 67.9018 45.8809 67.7971 45.7762C67.6924 45.6716 67.5505 45.6125 67.4024 45.612H65.5394C65.3913 45.6125 65.2494 45.6716 65.1447 45.7762C65.04 45.8809 64.9809 46.0228 64.9804 46.1708V48.0332C64.9809 48.1812 65.04 48.323 65.1447 48.4277C65.2494 48.5324 65.3913 48.5914 65.5394 48.592H67.4024C67.5506 48.5914 67.6927 48.5323 67.7974 48.4274C67.9022 48.3225 67.9611 48.1804 67.9614 48.0322ZM72.4324 35.9273V52.3157C72.4324 52.9085 72.1968 53.477 71.7775 53.8962C71.3581 54.3154 70.7894 54.5509 70.1964 54.5509H53.8034C53.2104 54.5509 52.6416 54.3154 52.2223 53.8962C51.803 53.477 51.5674 52.9085 51.5674 52.3157V35.9273C51.5676 35.3347 51.8033 34.7664 52.2226 34.3474C52.6419 33.9285 53.2105 33.6931 53.8034 33.6931H56.0384V31.2719C56.0389 31.1239 56.098 30.9821 56.2027 30.8774C56.3074 30.7727 56.4493 30.7137 56.5974 30.7131H58.4604C58.6085 30.7137 58.7504 30.7727 58.8551 30.8774C58.9598 30.9821 59.0189 31.1239 59.0194 31.2719V33.6931H64.9804V31.2719C64.9809 31.1239 65.04 30.9821 65.1447 30.8774C65.2494 30.7727 65.3913 30.7137 65.5394 30.7131H67.4024C67.5505 30.7137 67.6924 30.7727 67.7971 30.8774C67.9018 30.9821 67.9609 31.1239 67.9614 31.2719V33.6931H70.1974C70.7901 33.6934 71.3584 33.9288 71.7775 34.3478C72.1966 34.7667 72.4321 35.3349 72.4324 35.9273ZM70.1974 52.0368V38.1626H53.8034V52.0368C53.8036 52.1107 53.8331 52.1814 53.8854 52.2337C53.9377 52.2859 54.0085 52.3154 54.0824 52.3157H69.9174C69.9915 52.3157 70.0625 52.2863 70.115 52.234C70.1675 52.1818 70.1971 52.1108 70.1974 52.0368Z" fill="black" fill-opacity="0.6" />
	<path d="M31.5674 32.7124H25.5674V36.711H31.5674V32.7124Z" fill="#9C9C9C" />
	<path d="M31.5674 40.7096H25.5674V44.7083H31.5674V40.7096Z" fill="#9C9C9C" />
	<path d="M31.5674 48.7068H25.5674V52.7054H31.5674V48.7068Z" fill="#9C9C9C" />
	<path d="M40.5674 32.7124H34.5674V36.711H40.5674V32.7124Z" fill="#9C9C9C" />
	<path d="M40.5674 40.7096H34.5674V44.7083H40.5674V40.7096Z" fill="#9C9C9C" />
	<path d="M40.5674 48.7068H34.5674V52.7054H40.5674V48.7068Z" fill="#9C9C9C" />
</svg>
