<svg width="98" height="94" viewBox="0 0 98 94" fill="none" xmlns="http://www.w3.org/2000/svg">
	<path opacity="0.5" d="M2.96907 1.29234C1.99128 1.6976 1.20913 2.47939 0.803615 3.45679L1.26544 3.6484C1.09456 4.06026 1 4.51228 1 4.98764V6.91879H0.5V10.7811H1V14.6434H0.5V18.5057H1V22.368H0.5V26.2303H1V30.0926H0.5V33.9549H1V37.8172H0.5V41.6796H1V45.5419H0.5V49.4042H1V53.2665H0.5V57.1288H1V60.9911H0.5V64.8534H1V68.7157H0.5V72.578H1V76.4403H0.5V80.3026H1V84.1649H0.5V88.0272H1V89.9584C1 90.4338 1.09456 90.8858 1.26544 91.2976L0.803615 91.4892C1.20913 92.4666 1.99128 93.2484 2.96907 93.6537L3.16052 93.1918C3.57246 93.3625 4.02456 93.457 4.5 93.457H6.52273V93.957H10.5682V93.457H14.6136V93.957H18.6591V93.457H22.7045V93.957H26.75V93.457H30.7955V93.957H34.8409V93.457H38.8864V93.957H42.9318V93.457H46.9773V93.957H51.0227V93.457H55.0682V93.957H59.1136V93.457H63.1591V93.957H67.2046V93.457H71.25V93.957H75.2955V93.457H79.3409V93.957H83.3864V93.457H87.4318V93.957H91.4773V93.457H93.5C93.9754 93.457 94.4275 93.3625 94.8395 93.1918L95.0309 93.6537C96.0087 93.2484 96.7909 92.4666 97.1964 91.4892L96.7346 91.2976C96.9054 90.8858 97 90.4338 97 89.9584V88.0272H97.5V84.1649H97V80.3026H97.5V76.4403H97V72.578H97.5V68.7157H97V64.8534H97.5V60.9911H97V57.1288H97.5V53.2665H97V49.4042H97.5V45.5419H97V41.6796H97.5V37.8172H97V33.9549H97.5V30.0926H97V26.2303H97.5V22.368H97V18.5057H97.5V14.6434H97V10.7811H97.5V6.91879H97V4.98764C97 4.51228 96.9054 4.06026 96.7346 3.6484L97.1964 3.45679C96.7909 2.47939 96.0087 1.6976 95.0309 1.29234L94.8395 1.75424C94.4275 1.5835 93.9754 1.48901 93.5 1.48901H91.4773V0.989014H87.4318V1.48901H83.3864V0.989014H79.3409V1.48901H75.2955V0.989014H71.25V1.48901H67.2045V0.989014H63.1591V1.48901H59.1136V0.989014H55.0682V1.48901H51.0227V0.989014H46.9773V1.48901H42.9318V0.989014H38.8864V1.48901H34.8409V0.989014H30.7955V1.48901H26.75V0.989014H22.7045V1.48901H18.6591V0.989014H14.6136V1.48901H10.5682V0.989014H6.52271V1.48901H4.5C4.02456 1.48901 3.57246 1.5835 3.16052 1.75424L2.96907 1.29234Z" fill="#F2F2F2" stroke="#9C9C9C" stroke-dasharray="4 4" />
	<path d="M36.0454 75.3666V83.9646H35.4634C35.3714 83.9646 35.2934 83.9486 35.2294 83.9166C35.1694 83.8846 35.1094 83.8306 35.0494 83.7546L30.0754 77.2746C30.0834 77.3746 30.0894 77.4726 30.0934 77.5686C30.0974 77.6646 30.0994 77.7546 30.0994 77.8386V83.9646H29.0794V75.3666H29.6794C29.7314 75.3666 29.7754 75.3706 29.8114 75.3786C29.8474 75.3826 29.8794 75.3926 29.9074 75.4086C29.9354 75.4206 29.9634 75.4406 29.9914 75.4686C30.0194 75.4926 30.0494 75.5246 30.0814 75.5646L35.0554 82.0386C35.0474 81.9346 35.0394 81.8346 35.0314 81.7386C35.0274 81.6386 35.0254 81.5446 35.0254 81.4566V75.3666H36.0454ZM42.884 77.8866V83.9646H42.248C42.096 83.9646 42 83.8906 41.96 83.7426L41.876 83.0886C41.612 83.3806 41.316 83.6166 40.988 83.7966C40.66 83.9726 40.284 84.0606 39.86 84.0606C39.528 84.0606 39.234 84.0066 38.978 83.8986C38.726 83.7866 38.514 83.6306 38.342 83.4306C38.17 83.2306 38.04 82.9886 37.952 82.7046C37.868 82.4206 37.826 82.1066 37.826 81.7626V77.8866H38.894V81.7626C38.894 82.2226 38.998 82.5786 39.206 82.8306C39.418 83.0826 39.74 83.2086 40.172 83.2086C40.488 83.2086 40.782 83.1346 41.054 82.9866C41.33 82.8346 41.584 82.6266 41.816 82.3626V77.8866H42.884ZM44.5774 83.9646V77.8866H45.2194C45.3714 77.8866 45.4654 77.9606 45.5014 78.1086L45.5794 78.7326C45.8034 78.4566 46.0554 78.2306 46.3354 78.0546C46.6154 77.8786 46.9394 77.7906 47.3074 77.7906C47.7154 77.7906 48.0454 77.9046 48.2974 78.1326C48.5534 78.3606 48.7374 78.6686 48.8494 79.0566C48.9374 78.8366 49.0494 78.6466 49.1854 78.4866C49.3254 78.3266 49.4814 78.1946 49.6534 78.0906C49.8254 77.9866 50.0074 77.9106 50.1994 77.8626C50.3954 77.8146 50.5934 77.7906 50.7934 77.7906C51.1134 77.7906 51.3974 77.8426 51.6454 77.9466C51.8974 78.0466 52.1094 78.1946 52.2814 78.3906C52.4574 78.5866 52.5914 78.8286 52.6834 79.1166C52.7754 79.4006 52.8214 79.7266 52.8214 80.0946V83.9646H51.7474V80.0946C51.7474 79.6186 51.6434 79.2586 51.4354 79.0146C51.2274 78.7666 50.9274 78.6426 50.5354 78.6426C50.3594 78.6426 50.1914 78.6746 50.0314 78.7386C49.8754 78.7986 49.7374 78.8886 49.6174 79.0086C49.4974 79.1286 49.4014 79.2806 49.3294 79.4646C49.2614 79.6446 49.2274 79.8546 49.2274 80.0946V83.9646H48.1534V80.0946C48.1534 79.6066 48.0554 79.2426 47.8594 79.0026C47.6634 78.7626 47.3774 78.6426 47.0014 78.6426C46.7374 78.6426 46.4934 78.7146 46.2694 78.8586C46.0454 78.9986 45.8394 79.1906 45.6514 79.4346V83.9646H44.5774ZM55.5186 82.5006C55.7146 82.7646 55.9286 82.9506 56.1606 83.0586C56.3966 83.1666 56.6546 83.2206 56.9346 83.2206C57.5066 83.2206 57.9446 83.0186 58.2486 82.6146C58.5526 82.2106 58.7046 81.6086 58.7046 80.8086C58.7046 80.0646 58.5686 79.5186 58.2966 79.1706C58.0286 78.8186 57.6446 78.6426 57.1446 78.6426C56.7966 78.6426 56.4926 78.7226 56.2326 78.8826C55.9766 79.0426 55.7386 79.2686 55.5186 79.5606V82.5006ZM55.5186 78.7626C55.7746 78.4666 56.0626 78.2306 56.3826 78.0546C56.7066 77.8786 57.0786 77.7906 57.4986 77.7906C57.8546 77.7906 58.1746 77.8586 58.4586 77.9946C58.7466 78.1306 58.9906 78.3286 59.1906 78.5886C59.3906 78.8446 59.5426 79.1566 59.6466 79.5246C59.7546 79.8926 59.8086 80.3066 59.8086 80.7666C59.8086 81.2586 59.7486 81.7066 59.6286 82.1106C59.5086 82.5146 59.3346 82.8606 59.1066 83.1486C58.8826 83.4326 58.6086 83.6546 58.2846 83.8146C57.9606 83.9706 57.5966 84.0486 57.1926 84.0486C56.7926 84.0486 56.4546 83.9746 56.1786 83.8266C55.9066 83.6746 55.6686 83.4606 55.4646 83.1846L55.4106 83.7366C55.3786 83.8886 55.2866 83.9646 55.1346 83.9646H54.4446V75.1266H55.5186V78.7626ZM65.2275 80.2626C65.2275 80.0146 65.1915 79.7886 65.1195 79.5846C65.0515 79.3766 64.9495 79.1986 64.8135 79.0506C64.6815 78.8986 64.5195 78.7826 64.3275 78.7026C64.1355 78.6186 63.9175 78.5766 63.6735 78.5766C63.1615 78.5766 62.7555 78.7266 62.4555 79.0266C62.1595 79.3226 61.9755 79.7346 61.9035 80.2626H65.2275ZM66.0915 83.1126C65.9595 83.2726 65.8015 83.4126 65.6175 83.5326C65.4335 83.6486 65.2355 83.7446 65.0235 83.8206C64.8155 83.8966 64.5995 83.9526 64.3755 83.9886C64.1515 84.0286 63.9295 84.0486 63.7095 84.0486C63.2895 84.0486 62.9015 83.9786 62.5455 83.8386C62.1935 83.6946 61.8875 83.4866 61.6275 83.2146C61.3715 82.9386 61.1715 82.5986 61.0275 82.1946C60.8835 81.7906 60.8115 81.3266 60.8115 80.8026C60.8115 80.3786 60.8755 79.9826 61.0035 79.6146C61.1355 79.2466 61.3235 78.9286 61.5675 78.6606C61.8115 78.3886 62.1095 78.1766 62.4615 78.0246C62.8135 77.8686 63.2095 77.7906 63.6495 77.7906C64.0135 77.7906 64.3495 77.8526 64.6575 77.9766C64.9695 78.0966 65.2375 78.2726 65.4615 78.5046C65.6895 78.7326 65.8675 79.0166 65.9955 79.3566C66.1235 79.6926 66.1875 80.0766 66.1875 80.5086C66.1875 80.6766 66.1695 80.7886 66.1335 80.8446C66.0975 80.9006 66.0295 80.9286 65.9295 80.9286H61.8675C61.8795 81.3126 61.9315 81.6466 62.0235 81.9306C62.1195 82.2146 62.2515 82.4526 62.4195 82.6446C62.5875 82.8326 62.7875 82.9746 63.0195 83.0706C63.2515 83.1626 63.5115 83.2086 63.7995 83.2086C64.0675 83.2086 64.2975 83.1786 64.4895 83.1186C64.6855 83.0546 64.8535 82.9866 64.9935 82.9146C65.1335 82.8426 65.2495 82.7766 65.3415 82.7166C65.4375 82.6526 65.5195 82.6206 65.5875 82.6206C65.6755 82.6206 65.7435 82.6546 65.7915 82.7226L66.0915 83.1126ZM68.5133 79.1046C68.7053 78.6886 68.9413 78.3646 69.2213 78.1326C69.5013 77.8966 69.8433 77.7786 70.2473 77.7786C70.3753 77.7786 70.4973 77.7926 70.6133 77.8206C70.7333 77.8486 70.8393 77.8926 70.9313 77.9526L70.8533 78.7506C70.8293 78.8506 70.7693 78.9006 70.6733 78.9006C70.6173 78.9006 70.5353 78.8886 70.4273 78.8646C70.3193 78.8406 70.1973 78.8286 70.0613 78.8286C69.8693 78.8286 69.6973 78.8566 69.5453 78.9126C69.3973 78.9686 69.2633 79.0526 69.1433 79.1646C69.0273 79.2726 68.9213 79.4086 68.8253 79.5726C68.7333 79.7326 68.6493 79.9166 68.5733 80.1246V83.9646H67.4993V77.8866H68.1113C68.2273 77.8866 68.3073 77.9086 68.3513 77.9526C68.3953 77.9966 68.4253 78.0726 68.4413 78.1806L68.5133 79.1046Z" fill="#3E4244" />
	<path d="M30.5 30.9786H24.5V34.9773H30.5V30.9786Z" fill="#9C9C9C" />
	<path d="M30.5 38.9758H24.5V42.9745H30.5V38.9758Z" fill="#9C9C9C" />
	<path d="M30.5 46.9731H24.5V50.9718H30.5V46.9731Z" fill="#9C9C9C" />
	<path d="M39.5 30.9786H33.5V34.9773H39.5V30.9786Z" fill="#9C9C9C" />
	<path d="M39.5 38.9758H33.5V42.9745H39.5V38.9758Z" fill="#9C9C9C" />
	<path d="M39.5 46.9731H33.5V50.9718H39.5V46.9731Z" fill="#9C9C9C" />
	<path d="M52.4847 46.6752H50.4987V38.2591C49.7847 39.0144 48.9054 39.5941 47.9297 39.9526V37.9263C48.5533 37.6692 49.1255 37.3018 49.6187 36.8416C50.2003 36.3484 50.6335 35.7033 50.8697 34.9783H52.4817L52.4847 46.6752ZM63.3187 44.601V46.6752H56.3567C56.4313 45.8942 56.6622 45.1361 57.0357 44.446C57.6613 43.4261 58.4114 42.4878 59.2687 41.653C59.8697 41.064 60.4206 40.426 60.9157 39.7456C61.1754 39.3362 61.3185 38.8638 61.3297 38.3791C61.3572 37.9652 61.23 37.5559 60.9727 37.2305C60.8478 37.0955 60.6948 36.9897 60.5243 36.9206C60.3539 36.8514 60.1703 36.8207 59.9867 36.8306C59.8007 36.8225 59.6153 36.856 59.444 36.9289C59.2726 37.0017 59.1198 37.1119 58.9967 37.2515C58.7091 37.6606 58.5604 38.1512 58.5727 38.651L56.5897 38.4261C56.6031 37.4337 57.001 36.4851 57.6997 35.78C58.3519 35.2353 59.1823 34.9505 60.0317 34.9803C60.4763 34.9563 60.9209 35.0267 61.3363 35.187C61.7517 35.3472 62.1285 35.5936 62.4417 35.91C63.0278 36.5347 63.3427 37.366 63.3177 38.2222C63.3203 38.7326 63.2354 39.2398 63.0667 39.7216C62.8684 40.2522 62.5993 40.7536 62.2667 41.2121C61.8711 41.7364 61.4383 42.2315 60.9717 42.6936C60.345 43.3401 59.948 43.7692 59.7807 43.9812C59.6258 44.1743 59.4899 44.3818 59.3747 44.601H63.3187ZM65.7487 43.5833L67.6717 43.3214C67.6973 43.7846 67.8708 44.2275 68.1667 44.585C68.2881 44.7238 68.438 44.8347 68.6063 44.9101C68.7746 44.9855 68.9573 45.0236 69.1417 45.0218C69.3437 45.0215 69.5428 44.9734 69.7226 44.8815C69.9025 44.7896 70.0581 44.6565 70.1767 44.493C70.4747 44.0854 70.6234 43.5877 70.5977 43.0835C70.6248 42.6052 70.4832 42.1326 70.1977 41.7479C70.0836 41.5951 69.9355 41.4709 69.765 41.3854C69.5945 41.2998 69.4064 41.2552 69.2157 41.2551C68.9051 41.265 68.5977 41.3212 68.3037 41.4221L68.5227 39.6027C68.7437 39.6256 68.9671 39.6025 69.1788 39.5349C69.3905 39.4673 69.5859 39.3566 69.7527 39.2098C69.8958 39.0641 70.0073 38.8904 70.0803 38.6997C70.1532 38.5089 70.186 38.3052 70.1767 38.1012C70.1943 37.7607 70.0833 37.426 69.8657 37.1635C69.7622 37.0478 69.6344 36.9564 69.4914 36.8959C69.3484 36.8355 69.1938 36.8073 69.0387 36.8136C68.8734 36.8128 68.71 36.8482 68.5599 36.9173C68.4097 36.9864 68.2766 37.0875 68.1697 37.2135C67.9033 37.5426 67.7491 37.9482 67.7297 38.3711L65.8987 38.0212C65.9869 37.4282 66.182 36.8561 66.4747 36.3328C66.7344 35.9091 67.106 35.5652 67.5487 35.3392C68.0259 35.0938 68.5561 34.9695 69.0927 34.9773C69.5381 34.961 69.9812 35.0471 70.3881 35.2289C70.795 35.4107 71.1548 35.6834 71.4397 36.0259C71.9114 36.5616 72.1704 37.2516 72.1677 37.9653C72.1661 38.4706 72.0263 38.9658 71.7633 39.3974C71.5003 39.8289 71.1242 40.1803 70.6757 40.4134C71.2534 40.5458 71.7611 40.8887 72.0997 41.3751C72.4642 41.903 72.6513 42.5332 72.6337 43.1744C72.6535 44.1427 72.2947 45.0805 71.6337 45.7885C71.3235 46.1375 70.9414 46.4153 70.5136 46.6027C70.0859 46.7901 69.6226 46.8827 69.1557 46.8742C68.7257 46.8875 68.2975 46.8138 67.8967 46.6575C67.496 46.5011 67.131 46.2654 66.8237 45.9645C66.1912 45.3258 65.8096 44.481 65.7487 43.5843V43.5833Z" fill="#3E4244" />
</svg>
