<svg width="98" height="94" viewBox="0 0 98 94" fill="none" xmlns="http://www.w3.org/2000/svg">
	<path opacity="0.5" d="M2.96907 1.29234C1.99128 1.6976 1.20913 2.47939 0.803615 3.45679L1.26544 3.6484C1.09456 4.06026 1 4.51228 1 4.98764V6.91879H0.5V10.7811H1V14.6434H0.5V18.5057H1V22.368H0.5V26.2303H1V30.0926H0.5V33.9549H1V37.8172H0.5V41.6796H1V45.5419H0.5V49.4042H1V53.2665H0.5V57.1288H1V60.9911H0.5V64.8534H1V68.7157H0.5V72.578H1V76.4403H0.5V80.3026H1V84.1649H0.5V88.0272H1V89.9584C1 90.4338 1.09456 90.8858 1.26544 91.2976L0.803615 91.4892C1.20913 92.4666 1.99128 93.2484 2.96907 93.6537L3.16052 93.1918C3.57246 93.3625 4.02456 93.457 4.5 93.457H6.52273V93.957H10.5682V93.457H14.6136V93.957H18.6591V93.457H22.7045V93.957H26.75V93.457H30.7955V93.957H34.8409V93.457H38.8864V93.957H42.9318V93.457H46.9773V93.957H51.0227V93.457H55.0682V93.957H59.1136V93.457H63.1591V93.957H67.2046V93.457H71.25V93.957H75.2955V93.457H79.3409V93.957H83.3864V93.457H87.4318V93.957H91.4773V93.457H93.5C93.9754 93.457 94.4275 93.3625 94.8395 93.1918L95.0309 93.6537C96.0087 93.2484 96.7909 92.4666 97.1964 91.4892L96.7346 91.2976C96.9054 90.8858 97 90.4338 97 89.9584V88.0272H97.5V84.1649H97V80.3026H97.5V76.4403H97V72.578H97.5V68.7157H97V64.8534H97.5V60.9911H97V57.1288H97.5V53.2665H97V49.4042H97.5V45.5419H97V41.6796H97.5V37.8172H97V33.9549H97.5V30.0926H97V26.2303H97.5V22.368H97V18.5057H97.5V14.6434H97V10.7811H97.5V6.91879H97V4.98764C97 4.51228 96.9054 4.06026 96.7346 3.6484L97.1964 3.45679C96.7909 2.47939 96.0087 1.6976 95.0309 1.29234L94.8395 1.75424C94.4275 1.5835 93.9754 1.48901 93.5 1.48901H91.4773V0.989014H87.4318V1.48901H83.3864V0.989014H79.3409V1.48901H75.2955V0.989014H71.25V1.48901H67.2045V0.989014H63.1591V1.48901H59.1136V0.989014H55.0682V1.48901H51.0227V0.989014H46.9773V1.48901H42.9318V0.989014H38.8864V1.48901H34.8409V0.989014H30.7955V1.48901H26.75V0.989014H22.7045V1.48901H18.6591V0.989014H14.6136V1.48901H10.5682V0.989014H6.52271V1.48901H4.5C4.02456 1.48901 3.57246 1.5835 3.16052 1.75424L2.96907 1.29234Z" fill="#F2F2F2" stroke="#9C9C9C" stroke-dasharray="4 4" />
	<path d="M45.3329 76.3446H42.5489V83.9646H41.3909V76.3446H38.6009V75.3666H45.3329V76.3446ZM48.9599 80.2626C48.9599 80.0146 48.9239 79.7886 48.8519 79.5846C48.7839 79.3766 48.6819 79.1986 48.5459 79.0506C48.4139 78.8986 48.2519 78.7826 48.0599 78.7026C47.8679 78.6186 47.6499 78.5766 47.4059 78.5766C46.8939 78.5766 46.4879 78.7266 46.1879 79.0266C45.8919 79.3226 45.7079 79.7346 45.6359 80.2626H48.9599ZM49.8239 83.1126C49.6919 83.2726 49.5339 83.4126 49.3499 83.5326C49.1659 83.6486 48.9679 83.7446 48.7559 83.8206C48.5479 83.8966 48.3319 83.9526 48.1079 83.9886C47.8839 84.0286 47.6619 84.0486 47.4419 84.0486C47.0219 84.0486 46.6339 83.9786 46.2779 83.8386C45.9259 83.6946 45.6199 83.4866 45.3599 83.2146C45.1039 82.9386 44.9039 82.5986 44.7599 82.1946C44.6159 81.7906 44.5439 81.3266 44.5439 80.8026C44.5439 80.3786 44.6079 79.9826 44.7359 79.6146C44.8679 79.2466 45.0559 78.9286 45.2999 78.6606C45.5439 78.3886 45.8419 78.1766 46.1939 78.0246C46.5459 77.8686 46.9419 77.7906 47.3819 77.7906C47.7459 77.7906 48.0819 77.8526 48.3899 77.9766C48.7019 78.0966 48.9699 78.2726 49.1939 78.5046C49.4219 78.7326 49.5999 79.0166 49.7279 79.3566C49.8559 79.6926 49.9199 80.0766 49.9199 80.5086C49.9199 80.6766 49.9019 80.7886 49.8659 80.8446C49.8299 80.9006 49.7619 80.9286 49.6619 80.9286H45.5999C45.6119 81.3126 45.6639 81.6466 45.7559 81.9306C45.8519 82.2146 45.9839 82.4526 46.1519 82.6446C46.3199 82.8326 46.5199 82.9746 46.7519 83.0706C46.9839 83.1626 47.2439 83.2086 47.5319 83.2086C47.7999 83.2086 48.0299 83.1786 48.2219 83.1186C48.4179 83.0546 48.5859 82.9866 48.7259 82.9146C48.8659 82.8426 48.9819 82.7766 49.0739 82.7166C49.1699 82.6526 49.2519 82.6206 49.3199 82.6206C49.4079 82.6206 49.4759 82.6546 49.5239 82.7226L49.8239 83.1126ZM56.1417 83.9646H55.1157C55.0277 83.9646 54.9577 83.9426 54.9057 83.8986C54.8577 83.8506 54.8177 83.7986 54.7857 83.7426L53.2557 81.3606C53.2397 81.4166 53.2217 81.4726 53.2017 81.5286C53.1857 81.5806 53.1617 81.6286 53.1297 81.6726L51.7137 83.7426C51.6737 83.7986 51.6297 83.8506 51.5817 83.8986C51.5377 83.9426 51.4757 83.9646 51.3957 83.9646H50.4417L52.5717 80.8446L50.5257 77.8866H51.5517C51.6397 77.8866 51.7037 77.9006 51.7437 77.9286C51.7837 77.9566 51.8197 77.9966 51.8517 78.0486L53.3457 80.3286C53.3777 80.2126 53.4277 80.1006 53.4957 79.9926L54.8037 78.0726C54.8397 78.0166 54.8777 77.9726 54.9177 77.9406C54.9617 77.9046 55.0137 77.8866 55.0737 77.8866H56.0577L54.0117 80.7906L56.1417 83.9646ZM58.9923 84.0606C58.5123 84.0606 58.1423 83.9266 57.8823 83.6586C57.6263 83.3906 57.4983 83.0046 57.4983 82.5006V78.7806H56.7663C56.7023 78.7806 56.6483 78.7626 56.6043 78.7266C56.5603 78.6866 56.5383 78.6266 56.5383 78.5466V78.1206L57.5343 77.9946L57.7803 76.1166C57.7923 76.0566 57.8183 76.0086 57.8583 75.9726C57.9023 75.9326 57.9583 75.9126 58.0263 75.9126H58.5663V78.0066H60.3243V78.7806H58.5663V82.4286C58.5663 82.6846 58.6283 82.8746 58.7523 82.9986C58.8763 83.1226 59.0363 83.1846 59.2323 83.1846C59.3443 83.1846 59.4403 83.1706 59.5203 83.1426C59.6043 83.1106 59.6763 83.0766 59.7363 83.0406C59.7963 83.0046 59.8463 82.9726 59.8863 82.9446C59.9303 82.9126 59.9683 82.8966 60.0003 82.8966C60.0563 82.8966 60.1063 82.9306 60.1503 82.9986L60.4623 83.5086C60.2783 83.6806 60.0563 83.8166 59.7963 83.9166C59.5363 84.0126 59.2683 84.0606 58.9923 84.0606Z" fill="#3E4244" />
	<path d="M31.5 32.9779H25.5V36.9765H31.5V32.9779Z" fill="#9C9C9C" />
	<path d="M31.5 40.9751H25.5V44.9737H31.5V40.9751Z" fill="#9C9C9C" />
	<path d="M31.5 48.9724H25.5V52.971H31.5V48.9724Z" fill="#9C9C9C" />
	<path d="M40.5 32.9779H34.5V36.9765H40.5V32.9779Z" fill="#9C9C9C" />
	<path d="M40.5 40.9751H34.5V44.9737H40.5V40.9751Z" fill="#9C9C9C" />
	<path d="M40.5 48.9724H34.5V52.971H40.5V48.9724Z" fill="#9C9C9C" />
	<path d="M71.8215 30.9786V36.8326H71.2515C71.0421 35.8054 70.6593 34.8214 70.1195 33.9226C69.6817 33.3136 69.0941 32.8277 68.4135 32.5121C67.7323 32.2776 67.0115 32.1801 66.2925 32.2252H64.6765V48.8985C64.631 49.5945 64.6927 50.2934 64.8595 50.9708C65.0158 51.2827 65.2672 51.5368 65.5775 51.6965C66.0284 51.9255 66.5314 52.0327 67.0365 52.0074H67.7515V52.5972H56.4315V52.0074H57.1515C57.6772 52.031 58.1998 51.9155 58.6665 51.6725C58.9649 51.4987 59.1955 51.2287 59.3205 50.9068C59.4812 50.2502 59.5395 49.5728 59.4935 48.8985V32.2222H57.9305C56.7939 32.1213 55.6609 32.4514 54.7565 33.1469C53.7669 34.1384 53.1477 35.4395 53.0025 36.8326H52.3965V30.9816L71.8215 30.9786Z" fill="#3E4244" />
</svg>
