<svg width="98" height="94" viewBox="0 0 98 94" fill="none" xmlns="http://www.w3.org/2000/svg">
	<path opacity="0.5" d="M2.96907 1.1699C1.99128 1.57517 1.20913 2.35696 0.803615 3.33435L1.26544 3.52596C1.09456 3.93783 1 4.38985 1 4.8652V6.79636H0.5V10.6587H1V14.521H0.5V18.3833H1V22.2456H0.5V26.1079H1V29.9702H0.5V33.8325H1V37.6948H0.5V41.5571H1V45.4194H0.5V49.2817H1V53.1441H0.5V57.0064H1V60.8687H0.5V64.731H1V68.5933H0.5V72.4556H1V76.3179H0.5V80.1802H1V84.0425H0.5V87.9048H1V89.836C1 90.3113 1.09456 90.7633 1.26544 91.1752L0.803615 91.3668C1.20913 92.3442 1.99128 93.126 2.96907 93.5313L3.16052 93.0694C3.57246 93.2401 4.02456 93.3346 4.5 93.3346H6.52273V93.8346H10.5682V93.3346H14.6136V93.8346H18.6591V93.3346H22.7045V93.8346H26.75V93.3346H30.7955V93.8346H34.8409V93.3346H38.8864V93.8346H42.9318V93.3346H46.9773V93.8346H51.0227V93.3346H55.0682V93.8346H59.1136V93.3346H63.1591V93.8346H67.2046V93.3346H71.25V93.8346H75.2955V93.3346H79.3409V93.8346H83.3864V93.3346H87.4318V93.8346H91.4773V93.3346H93.5C93.9754 93.3346 94.4275 93.2401 94.8395 93.0694L95.0309 93.5313C96.0087 93.126 96.7909 92.3442 97.1964 91.3668L96.7346 91.1752C96.9054 90.7633 97 90.3113 97 89.836V87.9048H97.5V84.0425H97V80.1802H97.5V76.3179H97V72.4556H97.5V68.5933H97V64.731H97.5V60.8687H97V57.0063H97.5V53.144H97V49.2817H97.5V45.4194H97V41.5571H97.5V37.6948H97V33.8325H97.5V29.9702H97V26.1079H97.5V22.2456H97V18.3833H97.5V14.521H97V10.6587H97.5V6.79635H97V4.8652C97 4.38985 96.9054 3.93783 96.7346 3.52596L97.1964 3.33435C96.7909 2.35696 96.0087 1.57517 95.0309 1.1699L94.8395 1.6318C94.4275 1.46106 93.9754 1.36658 93.5 1.36658H91.4773V0.866577H87.4318V1.36658H83.3864V0.866577H79.3409V1.36658H75.2955V0.866577H71.25V1.36658H67.2045V0.866577H63.1591V1.36658H59.1136V0.866577H55.0682V1.36658H51.0227V0.866577H46.9773V1.36658H42.9318V0.866577H38.8864V1.36658H34.8409V0.866577H30.7955V1.36658H26.75V0.866577H22.7045V1.36658H18.6591V0.866577H14.6136V1.36658H10.5682V0.866577H6.52271V1.36658H4.5C4.02456 1.36658 3.57246 1.46106 3.16052 1.6318L2.96907 1.1699Z" fill="#F2F2F2" stroke="#9C9C9C" stroke-dasharray="4 4" />
	<path d="M29.5 31.856H23.5V35.8546H29.5V31.856Z" fill="#9C9C9C" />
	<path d="M29.5 39.8533H23.5V43.8519H29.5V39.8533Z" fill="#9C9C9C" />
	<path d="M29.5 47.8505H23.5V51.8491H29.5V47.8505Z" fill="#9C9C9C" />
	<path d="M38.5 31.856H32.5V35.8546H38.5V31.856Z" fill="#9C9C9C" />
	<path d="M38.5 39.8533H32.5V43.8519H38.5V39.8533Z" fill="#9C9C9C" />
	<path d="M38.5 47.8505H32.5V51.8491H38.5V47.8505Z" fill="#9C9C9C" />
	<path d="M57.9115 52.3388H72.8955C73.1185 52.3356 73.3311 52.2444 73.487 52.085C73.6429 51.9256 73.7294 51.711 73.7275 51.4881V49.3608C73.7294 49.1379 73.6429 48.9233 73.487 48.7639C73.3311 48.6045 73.1185 48.5133 72.8955 48.5101H57.9115C57.6885 48.5133 57.4758 48.6045 57.32 48.7639C57.1641 48.9233 57.0776 49.1379 57.0795 49.3608V51.4881C57.0776 51.711 57.1641 51.9256 57.32 52.085C57.4758 52.2444 57.6885 52.3356 57.9115 52.3388V52.3388ZM50.4195 47.8723C49.751 47.8855 49.1144 48.1603 48.6463 48.6376C48.1782 49.1148 47.916 49.7565 47.916 50.4249C47.916 51.0933 48.1782 51.735 48.6463 52.2123C49.1144 52.6896 49.751 52.9643 50.4195 52.9775C51.088 52.9643 51.7246 52.6896 52.1927 52.2123C52.6608 51.735 52.9229 51.0933 52.9229 50.4249C52.9229 49.7565 52.6608 49.1148 52.1927 48.6376C51.7246 48.1603 51.088 47.8855 50.4195 47.8723V47.8723Z" fill="black" fill-opacity="0.6" />
	<path d="M57.9115 44.2786H72.8955C73.1185 44.2755 73.3311 44.1842 73.487 44.0248C73.6429 43.8654 73.7294 43.6508 73.7275 43.4279V41.3006C73.7294 41.0777 73.6429 40.8631 73.487 40.7037C73.3311 40.5443 73.1185 40.4531 72.8955 40.4499H57.9115C57.6885 40.4531 57.4758 40.5443 57.32 40.7037C57.1641 40.8631 57.0776 41.0777 57.0795 41.3006V43.4279C57.0776 43.6508 57.1641 43.8654 57.32 44.0248C57.4758 44.1842 57.6885 44.2755 57.9115 44.2786V44.2786ZM50.4195 39.8121C49.751 39.8254 49.1144 40.1001 48.6463 40.5774C48.1782 41.0547 47.916 41.6964 47.916 42.3648C47.916 43.0332 48.1782 43.6749 48.6463 44.1522C49.1144 44.6294 49.751 44.9042 50.4195 44.9174C51.088 44.9042 51.7246 44.6294 52.1927 44.1522C52.6608 43.6749 52.9229 43.0332 52.9229 42.3648C52.9229 41.6964 52.6608 41.0547 52.1927 40.5774C51.7246 40.1001 51.088 39.8254 50.4195 39.8121V39.8121Z" fill="black" fill-opacity="0.6" />
	<path d="M57.9115 35.3226H72.8955C73.1185 35.3195 73.3311 35.2282 73.487 35.0688C73.6429 34.9094 73.7294 34.6949 73.7275 34.4719V32.3447C73.7294 32.1218 73.6429 31.9072 73.487 31.7478C73.3311 31.5884 73.1185 31.4971 72.8955 31.494H57.9115C57.6885 31.4971 57.4758 31.5884 57.32 31.7478C57.1641 31.9072 57.0776 32.1218 57.0795 32.3447V34.4719C57.0776 34.6949 57.1641 34.9094 57.32 35.0688C57.4758 35.2282 57.6885 35.3195 57.9115 35.3226V35.3226ZM50.4195 30.8562C49.751 30.8694 49.1144 31.1442 48.6463 31.6214C48.1782 32.0987 47.916 32.7404 47.916 33.4088C47.916 34.0772 48.1782 34.7189 48.6463 35.1962C49.1144 35.6735 49.751 35.9482 50.4195 35.9614C51.088 35.9482 51.7246 35.6735 52.1927 35.1962C52.6608 34.7189 52.9229 34.0772 52.9229 33.4088C52.9229 32.7404 52.6608 32.0987 52.1927 31.6214C51.7246 31.1442 51.088 30.8694 50.4195 30.8562V30.8562Z" fill="black" fill-opacity="0.6" />
</svg>
