<svg width="16" height="15" viewBox="0 0 16 15" fill="none" xmlns="http://www.w3.org/2000/svg">
<path d="M13.4486 10.0377C12.2796 10.0377 11.3087 10.8087 10.9963 11.8363H8.77348V1.81497H5.00434C4.70792 0.771055 3.72029 0 2.55139 0C1.15224 0 0 1.1079 0 2.48935C0 3.85447 1.13552 4.97869 2.55139 4.97869C3.72035 4.97869 4.69126 4.20767 5.00368 3.1801H7.37368V13.2014H10.9782C11.292 14.229 12.2796 15 13.4486 15C14.8478 15 16 13.8921 16 12.5107C15.9833 11.1455 14.8478 10.0377 13.4486 10.0377ZM2.55122 3.61357C1.90952 3.61357 1.39898 3.11544 1.39898 2.48935C1.39898 1.86325 1.90952 1.36513 2.55122 1.36513C3.19292 1.36513 3.70346 1.86325 3.70346 2.48935C3.72018 3.11544 3.19356 3.61357 2.55122 3.61357ZM13.4486 13.6349C12.8069 13.6349 12.2964 13.1367 12.2964 12.5107C12.2964 11.8846 12.8069 11.3864 13.4486 11.3864C14.0903 11.3864 14.6009 11.8846 14.6009 12.5107C14.6009 13.1374 14.0736 13.6349 13.4486 13.6349Z" fill="#3E4244"/>
</svg>
