<svg width="24" height="24" viewBox="0 0 24 24" fill="none" xmlns="http://www.w3.org/2000/svg">
	<path d="M8.33614 11.5669H4.02454C2.33705 11.5669 0.964539 10.1943 0.964539 8.50686V4.19525C0.964539 2.50777 2.33705 1.13525 4.02454 1.13525H8.33614C10.0236 1.13525 11.3961 2.50777 11.3961 4.19525V8.50686C11.3961 10.1943 10.0227 11.5669 8.33614 11.5669ZM1.92454 8.50686C1.92454 9.66466 2.86673 10.6069 4.02454 10.6069H8.33614C9.49395 10.6069 10.4361 9.66466 10.4361 8.50686V4.19525V8.50686C10.4361 9.66466 9.49395 10.6069 8.33614 10.6069H4.02454C2.86673 10.6069 1.92454 9.66466 1.92454 8.50686ZM4.02454 3.05525C3.39547 3.05525 2.88454 3.56713 2.88454 4.19525V8.50686C2.88454 9.13592 3.39641 9.64686 4.02454 9.64686H8.33614C8.96427 9.64686 9.47614 9.13498 9.47614 8.50686V4.19525C9.47614 3.56713 8.96427 3.05525 8.33614 3.05525H4.02454Z" fill="#3E4244" />
	<path d="M19.9752 11.5669H15.6645C13.977 11.5669 12.6045 10.1943 12.6045 8.50686L12.6036 4.19525C12.6036 2.50777 13.9761 1.13525 15.6636 1.13525H19.9752C21.6627 1.13525 23.0352 2.50777 23.0352 4.19525V8.50686C23.0352 10.1943 21.6627 11.5669 19.9752 11.5669H19.9752ZM13.5636 8.50686C13.5636 9.66466 14.5057 10.6069 15.6636 10.6069H19.9752C21.133 10.6069 22.0752 9.66466 22.0752 8.50686V4.19525V8.50686C22.0752 9.66466 21.133 10.6069 19.9752 10.6069H15.6645C14.5058 10.6069 13.5636 9.66466 13.5636 8.50686H13.5636ZM15.6645 3.05525C15.0354 3.05525 14.5245 3.56713 14.5245 4.19525V8.50686C14.5245 9.13592 15.0364 9.64686 15.6645 9.64686H19.9761C20.6042 9.64686 21.1161 9.13498 21.1161 8.50686L21.1152 4.19525C21.1152 3.56713 20.6033 3.05525 19.9752 3.05525H15.6645Z" fill="#3E4244" />
	<path d="M8.33614 22.8649H4.02454C2.33705 22.8649 0.964539 21.4924 0.964539 19.8049V15.4933C0.964539 13.8059 2.33705 12.4333 4.02454 12.4333H8.33614C10.0236 12.4333 11.3961 13.8059 11.3961 15.4933V19.8049C11.3961 21.4915 10.0227 22.8649 8.33614 22.8649ZM1.92454 19.804C1.92454 20.9618 2.86673 21.904 4.02454 21.904H8.33614C9.49395 21.904 10.4361 20.9618 10.4361 19.804V15.4933V19.8049C10.4361 20.9628 9.49395 21.9049 8.33614 21.9049H4.02454C2.86673 21.9049 1.92454 20.9628 1.92454 19.804V19.804ZM4.02454 14.3533C3.39547 14.3533 2.88454 14.8652 2.88454 15.4933V19.8049C2.88454 20.434 3.39641 20.9449 4.02454 20.9449H8.33614C8.96427 20.9449 9.47614 20.4331 9.47614 19.8049V15.4933C9.47614 14.8652 8.96427 14.3533 8.33614 14.3533H4.02454Z" fill="#3E4244" />
	<path d="M19.9752 22.8649H15.6645C13.977 22.8649 12.6045 21.4924 12.6045 19.8049L12.6036 15.4933C12.6036 13.8059 13.9761 12.4333 15.6636 12.4333H19.9752C21.6627 12.4333 23.0352 13.8059 23.0352 15.4933V19.8049C23.0352 21.4915 21.6627 22.8649 19.9752 22.8649H19.9752ZM13.5636 19.804C13.5636 20.9618 14.5057 21.904 15.6636 21.904H19.9752C21.133 21.904 22.0752 20.9618 22.0752 19.804V15.4933V19.8049C22.0752 20.9628 21.133 21.9049 19.9752 21.9049H15.6645C14.5058 21.9049 13.5636 20.9628 13.5636 19.804L13.5636 19.804ZM15.6645 14.3533C15.0354 14.3533 14.5245 14.8652 14.5245 15.4933V19.8049C14.5245 20.434 15.0364 20.9449 15.6645 20.9449H19.9761C20.6042 20.9449 21.1161 20.4331 21.1161 19.8049L21.1152 15.4933C21.1152 14.8652 20.6033 14.3533 19.9752 14.3533H15.6645Z" fill="#3E4244" />
</svg>
