<svg width="25" height="25" viewBox="0 0 25 25" fill="none" xmlns="http://www.w3.org/2000/svg">
<path d="M13.2325 16.7433V15.8986V13.879V11.4259V9.30188C13.2325 8.95813 13.2403 8.6134 13.2325 8.26868V8.25403C13.2325 7.87123 12.8956 7.50403 12.5001 7.5216C12.1016 7.53918 11.7676 7.84388 11.7676 8.25403V9.09875V11.1183V13.5714V15.6954C11.7676 16.0392 11.7598 16.3839 11.7676 16.7286V16.7433C11.7676 17.1261 12.1046 17.4933 12.5001 17.4757C12.8975 17.4591 13.2325 17.1564 13.2325 16.7433Z" fill="#3E4244"/>
<path d="M16.7433 11.7676H15.8985H13.879H11.4259H9.30185C8.9581 11.7676 8.61337 11.7598 8.26865 11.7676H8.254C7.8712 11.7676 7.504 12.1046 7.52157 12.5001C7.53915 12.8985 7.84385 13.2325 8.254 13.2325H9.09872H11.1183H13.5714H15.6954C16.0392 13.2325 16.3839 13.2403 16.7286 13.2325H16.7433C17.1261 13.2325 17.4933 12.8956 17.4757 12.5001C17.4591 12.1016 17.1564 11.7676 16.7433 11.7676Z" fill="#3E4244"/>
</svg>
