<svg width="14" height="9" viewBox="0 0 14 9" fill="none" xmlns="http://www.w3.org/2000/svg">
<path d="M12.0619 2.28741C10.8198 1.04851 9.13674 0.353027 7.38235 0.353027C5.62797 0.353027 3.94493 1.04851 2.70286 2.28741L0.913612 4.07665C0.715075 4.27583 0.715075 4.59779 0.913612 4.79696L2.70286 6.58621C3.94493 7.82511 5.62797 8.52059 7.38235 8.52059C9.13674 8.52059 10.8198 7.82511 12.0619 6.58621L13.8511 4.79696C14.0496 4.59779 14.0496 4.27583 13.8511 4.07665L12.0619 2.28741ZM11.3422 5.86606H11.3415C10.291 6.9147 8.867 7.50397 7.38237 7.50397C5.89774 7.50397 4.47387 6.91475 3.4232 5.86606L1.99341 4.43691L3.42256 3.00777H3.4232C4.47374 1.95913 5.89774 1.36985 7.38237 1.36985C8.867 1.36985 10.2909 1.95908 11.3415 3.00777L12.7713 4.43691L11.3422 5.86606Z" fill="#3E4244"/>
<path d="M7.38233 1.8916C6.70721 1.8916 6.06007 2.15948 5.58282 2.63735C5.10495 3.11459 4.83707 3.76171 4.83707 4.43686C4.83707 5.11201 5.10495 5.75911 5.58282 6.23637C6.06005 6.71424 6.70717 6.98212 7.38233 6.98212C8.05748 6.98212 8.70458 6.71424 9.18183 6.23637C9.6597 5.75913 9.92759 5.11201 9.92759 4.43686C9.92695 3.76237 9.65843 3.11524 9.1812 2.638C8.70396 2.16077 8.05684 1.89225 7.38234 1.89162L7.38233 1.8916ZM7.38233 5.96399C6.76446 5.96399 6.2077 5.59174 5.97162 5.02097C5.73491 4.45084 5.86599 3.79352 6.30249 3.35699C6.739 2.92048 7.3963 2.7894 7.96647 3.02612C8.53724 3.26219 8.90949 3.81896 8.90949 4.43683C8.90949 5.27994 8.22546 5.96397 7.38234 5.96397L7.38233 5.96399Z" fill="#3E4244"/>
</svg>
