<svg width="19" height="25" viewBox="0 0 19 25" fill="none" xmlns="http://www.w3.org/2000/svg">
	<path d="M1.52796 25C1.04961 25 0.730713 24.5974 0.730713 23.9936V1.85266C0.730713 1.24881 1.04961 0.846252 1.52796 0.846252C2.00631 0.846252 2.32521 1.24881 2.32521 1.85266V23.9936C2.32521 24.5974 2.00631 25 1.52796 25Z" fill="#CAD4E3" />
	<path d="M14.603 6.8846L18.0313 2.5569C18.2705 2.25498 18.3502 1.85241 18.1907 1.44985C18.111 1.04729 17.7921 0.846008 17.4732 0.846008H1.52821C1.04986 0.846008 0.730957 1.24857 0.730957 1.85241V11.9165C0.730957 12.5203 1.04986 12.9229 1.52821 12.9229H17.4732C17.7921 12.9229 18.111 12.7216 18.1907 12.319C18.3502 11.9165 18.2705 11.5139 18.0313 11.212L14.603 6.8846Z" fill="#CAD4E3" />
</svg>
