<svg width="23" height="22" viewBox="0 0 23 22" fill="none" xmlns="http://www.w3.org/2000/svg">
	<path fill-rule="evenodd" clip-rule="evenodd" d="M8.04586 0.249634H14.9541C16.4781 0.249634 17.7343 0.249634 18.7279 0.383578C19.772 0.523851 20.6938 0.829699 21.4322 1.56799C22.1706 2.30628 22.4763 3.22805 22.6166 4.27231C22.7505 5.26583 22.7505 6.52195 22.7505 8.0461V10.8357C22.7505 12.3587 22.7505 13.6148 22.6166 14.6095C22.4763 15.6526 22.1705 16.5755 21.4322 17.3128C20.6939 18.0511 19.7721 18.3569 18.7279 18.4972C17.7344 18.6311 16.4782 18.6311 14.9541 18.6311H9.70798C9.45486 18.6311 9.37999 18.6322 9.31249 18.6364C8.84525 18.668 8.39913 18.8452 8.03736 19.1437C7.98463 19.1859 7.92978 19.2365 7.74522 19.4105L7.73256 19.4232C7.38664 19.7501 7.10924 20.0117 6.88776 20.2089C6.67155 20.403 6.45428 20.5844 6.23279 20.7194C3.91671 22.1285 0.901375 20.828 0.335995 18.1755C0.282206 17.9224 0.266387 17.6397 0.257949 17.3497C0.249512 17.0522 0.249512 16.6715 0.249512 16.1948V8.0462C0.249512 6.52218 0.249512 5.26601 0.383456 4.27241C0.523729 3.22826 0.829577 2.30648 1.56786 1.56809C2.30615 0.829693 3.22793 0.523945 4.27218 0.38368C5.2657 0.249736 6.52182 0.249736 8.04597 0.249736L8.04586 0.249634ZM4.57177 2.61319C3.7776 2.72077 3.40951 2.90851 3.15954 3.1595C2.90852 3.40947 2.72079 3.77756 2.61322 4.57174C2.50248 5.39861 2.50037 6.50181 2.50037 8.12494V16.1774C2.50037 16.6752 2.50037 17.0254 2.50775 17.288C2.51514 17.5612 2.52885 17.6688 2.53729 17.7057C2.77986 18.8426 4.0708 19.3995 5.06432 18.7962C5.09702 18.7762 5.18456 18.7129 5.38916 18.5304C5.58533 18.3554 5.83952 18.1159 6.20127 17.7742L6.22552 17.751C6.37529 17.6097 6.48919 17.5032 6.60838 17.4051C7.3319 16.8092 8.22417 16.4548 9.15861 16.3916C9.31365 16.381 9.46868 16.381 9.67542 16.381H14.8751C16.4982 16.381 17.6015 16.3778 18.4283 16.2671C19.2225 16.1606 19.5905 15.9718 19.8405 15.7218C20.0915 15.4719 20.2793 15.1038 20.3868 14.3096C20.4976 13.4827 20.4997 12.3785 20.4997 10.7564V8.12495C20.4997 6.50179 20.4976 5.39849 20.3868 4.57175C20.2793 3.77757 20.0915 3.40948 19.8405 3.15952C19.5906 2.9085 19.2225 2.72077 18.4283 2.6132C17.6014 2.50245 16.4982 2.50035 14.8751 2.50035H8.12508C6.50192 2.50035 5.39862 2.50245 4.57188 2.6132L4.57177 2.61319Z" fill="#1E55A9" />
	<path d="M8.125 9.8125C8.125 10.7448 7.36984 11.5 6.4375 11.5C5.50516 11.5 4.75 10.7448 4.75 9.8125C4.75 8.88016 5.50516 8.125 6.4375 8.125C7.36984 8.125 8.125 8.88016 8.125 9.8125Z" fill="#1E55A9" />
	<path d="M13.1875 9.8125C13.1875 10.7448 12.4323 11.5 11.5 11.5C10.5677 11.5 9.8125 10.7448 9.8125 9.8125C9.8125 8.88016 10.5677 8.125 11.5 8.125C12.4323 8.125 13.1875 8.88016 13.1875 9.8125Z" fill="#1E55A9" />
	<path d="M18.25 9.8125C18.25 10.7448 17.4948 11.5 16.5625 11.5C15.6302 11.5 14.875 10.7448 14.875 9.8125C14.875 8.88016 15.6302 8.125 16.5625 8.125C17.4948 8.125 18.25 8.88016 18.25 9.8125Z" fill="#1E55A9" />
</svg>
