<svg width="27" height="21" viewBox="0 0 27 21" fill="none" xmlns="http://www.w3.org/2000/svg">
	<path d="M7.63184 15.5561L7.63204 15.5561C9.30277 15.9249 11.2428 16.1107 13.2067 16.1126H13.2067C14.7425 16.1135 16.613 15.9962 18.4205 15.6602C20.2028 15.3288 21.9322 14.7833 23.2183 13.9221C23.6882 14.1872 23.853 14.6078 23.8267 15.0213C23.7989 15.456 23.5594 15.8788 23.2353 16.0973C21.1159 17.4339 17.3889 18.2208 13.5118 18.1816H13.5108L13.4898 18.1816L13.4888 18.1816C9.60794 18.2227 5.85429 17.4668 3.76543 16.0974L3.7653 16.0973C3.26316 15.7693 3.04608 15.3577 3.06135 14.9698C3.0761 14.5949 3.30889 14.2136 3.77058 13.9241C4.97737 14.7327 6.42152 15.2863 7.63184 15.5561ZM13.2128 14.1978H13.2127C11.388 14.1922 9.58633 14.0185 8.13161 13.6984L8.11012 13.7961L8.1316 13.6984C6.87731 13.4224 6.05729 13.0092 5.55131 12.6331C5.82889 8.73367 9.23873 5.65491 13.5 5.65491C17.7382 5.65491 21.1299 8.70452 21.4347 12.5754C20.6975 13.0327 19.5112 13.4384 18.0836 13.7299C16.6257 14.0276 14.9251 14.2043 13.2128 14.1978ZM2.68518 12.2597L2.68417 12.2602C2.03781 12.5682 1.55747 13.0734 1.24666 13.6689C0.932978 14.2659 0.797409 14.9896 0.98686 15.7228C1.17464 16.4558 1.71109 17.1646 2.55516 17.6701C5.26575 19.3898 9.32664 20.143 13.4998 20.0981C17.6728 20.143 21.7316 19.3898 24.4422 17.6701C25.2867 17.1664 25.8228 16.4576 26.0148 15.7231L26.015 15.7225C26.2023 14.9874 26.0645 14.2658 25.7553 13.6693L25.7549 13.6685C25.4402 13.0737 24.9642 12.5682 24.3132 12.2601L24.313 12.26C24.0979 12.1586 23.855 12.0868 23.5975 12.0498C23.0621 7.69395 19.2746 4.22408 14.522 3.78769V3.047H15.7909C16.0079 3.047 16.2096 2.96791 16.3559 2.80086C16.5011 2.63498 16.5827 2.39283 16.5827 2.08208C16.5827 1.42585 15.9767 0.9 15.2501 0.9L11.7497 0.900048C11.0232 0.900048 10.4171 1.42392 10.4171 2.08213C10.4171 2.39305 10.4992 2.63518 10.6447 2.80099C10.7912 2.96789 10.9928 3.04705 11.2088 3.04705H12.4819V3.78773C7.72729 4.22414 3.93958 7.69439 3.40422 12.0484C3.14686 12.0868 2.90388 12.1585 2.68518 12.2597Z" fill="#1E55A9" stroke="#1E55A9" stroke-width="0.2" />
</svg>
