<svg width="24" height="26" viewBox="0 0 24 26" fill="none" xmlns="http://www.w3.org/2000/svg">
	<path d="M10.8174 25.3833C16.2524 25.3833 20.6583 21.1547 20.6583 15.9384C20.6583 10.7221 16.2524 6.49341 10.8174 6.49341C5.38246 6.49341 0.976562 10.7221 0.976562 15.9384C0.976562 21.1547 5.38246 25.3833 10.8174 25.3833Z" fill="#4ACBD3" />
	<g style="mix-blend-mode:multiply">
		<path d="M12.3544 12.9868C16.2607 12.9868 19.4275 10.0796 19.4275 6.49341C19.4275 2.9072 16.2607 0 12.3544 0C8.44799 0 5.28125 2.9072 5.28125 6.49341C5.28125 10.0796 8.44799 12.9868 12.3544 12.9868Z" fill="#1E55A9" />
	</g>
	<g style="mix-blend-mode:multiply">
		<path d="M18.8132 14.7577C21.191 14.7577 23.1186 12.9077 23.1186 10.6256C23.1186 8.34344 21.191 6.49341 18.8132 6.49341C16.4354 6.49341 14.5078 8.34344 14.5078 10.6256C14.5078 12.9077 16.4354 14.7577 18.8132 14.7577Z" fill="#4B40D1" />
	</g>
</svg>
