<svg width="25" height="25" viewBox="0 0 25 25" fill="none" xmlns="http://www.w3.org/2000/svg">
	<path d="M0.479507 15.6817L3.48451 18.6867L4.01478 18.1565C4.80188 17.3694 6.05581 17.3694 6.84278 18.1565C7.62988 18.9436 7.62988 20.1975 6.84278 20.9845L6.31251 21.5147L9.31751 24.5197L24.5205 9.31675L21.5155 6.31175L20.9852 6.84203C20.1981 7.62913 18.9442 7.62913 18.1572 6.84203C17.3701 6.05493 17.3701 4.801 18.1572 4.01403L18.6875 3.48375L15.6825 0.478752L0.479507 15.6817ZM2.60061 15.6817L11.2626 7.01975L17.9804 13.7375L9.31836 22.3995L8.36816 21.4493C9.23046 20.0967 9.08203 18.2745 7.90428 17.0958C6.72558 15.9171 4.89853 15.7638 3.54578 16.6261L2.60146 15.6817H2.60061ZM12.3234 5.959L15.6819 2.6005L16.6262 3.54483C15.7639 4.89738 15.9172 6.72558 17.0959 7.90333C18.2746 9.08203 20.0959 9.2295 21.4494 8.3672L22.3996 9.3174L19.0411 12.6759L12.3234 5.95815V5.959ZM8.78811 11.2627L9.77151 13.5723L8.07033 15.4952L10.5948 15.2247L11.8546 17.3897L12.4347 14.9092L14.9152 14.3292L12.7501 13.0694L13.0206 10.5449L11.0978 12.2461L8.78811 11.2627Z" fill="#CAD4E3" />
</svg>
