<svg width="9" height="15" viewBox="0 0 9 15" fill="none" xmlns="http://www.w3.org/2000/svg">
	<path d="M1.44687 3.78724L1.43046 3.80856H1.42964C1.12367 4.1818 0.948112 4.64611 0.930073 5.12928C0.8989 5.65837 1.06132 6.18091 1.38781 6.59928L1.40914 6.6247V6.62388C1.71674 6.98893 2.11297 7.26865 2.56004 7.43682C3.03172 7.614 3.51735 7.75427 4.01118 7.85682C4.38524 7.93639 4.62478 7.99299 4.85119 8.06682C5.13009 8.13408 5.36552 8.19724 5.56978 8.25549L5.56896 8.25631C5.82491 8.32932 6.06935 8.43842 6.29575 8.57952C6.44177 8.67057 6.56728 8.79361 6.6608 8.93881C6.76334 9.11928 6.8142 9.32353 6.81009 9.53107V9.5606V9.55978C6.8183 9.80916 6.74447 10.0536 6.60009 10.257C6.39912 10.5204 6.12678 10.7205 5.81505 10.8329C5.36389 11.0052 4.88399 11.0864 4.40164 11.07H4.36145C3.83645 11.0872 3.31472 10.9806 2.83895 10.7591C2.58794 10.6286 2.37218 10.44 2.20895 10.2086L1.8439 9.69595L0.819336 10.4269L1.18438 10.9395C1.46985 11.3398 1.84802 11.6655 2.28688 11.8886C2.78645 12.1216 3.32457 12.2643 3.87419 12.3086V14.01H5.13419V12.2881C5.52055 12.243 5.90035 12.1495 6.26376 12.0109C6.80024 11.8132 7.26865 11.4654 7.61235 11.0093C7.92326 10.5827 8.08485 10.0667 8.07255 9.53928C8.07993 9.10944 7.97329 8.68534 7.76328 8.31045C7.56723 7.98972 7.29981 7.71819 6.98233 7.5164C6.65585 7.31296 6.30229 7.15463 5.93233 7.04881C5.71003 6.98401 5.45738 6.91674 5.17436 6.83881C4.93483 6.77401 4.67643 6.71248 4.27365 6.62881C3.84462 6.5394 3.42298 6.41717 3.01365 6.26295C2.77412 6.17353 2.56085 6.02588 2.3935 5.83228C2.25322 5.65427 2.1835 5.4295 2.19826 5.20228V5.13912V5.13994C2.21057 4.94306 2.28357 4.7544 2.40826 4.60181C2.60104 4.37869 2.85124 4.21216 3.13096 4.11864C3.55917 3.97837 4.00951 3.91439 4.45986 3.92997C4.79701 3.92997 5.13251 3.97427 5.45736 4.06204C5.69033 4.12685 5.91016 4.23103 6.10622 4.37131C6.23911 4.46318 6.35313 4.58049 6.44255 4.71502L6.79119 5.24002L7.84119 4.54521L7.49255 4.02021C7.317 3.75362 7.09225 3.5231 6.83139 3.34017C6.51639 3.11704 6.16529 2.95051 5.79369 2.84881C5.5763 2.78811 5.354 2.74299 5.13005 2.71428V0.98999H3.87005V2.69296C3.48122 2.72742 3.09813 2.80617 2.72736 2.9284C2.23106 3.0941 1.78891 3.39105 1.44684 3.78725L1.44687 3.78724Z" fill="#3E4244" />
</svg>
