<?xml version="1.0" encoding="UTF-8"?><svg id="a" xmlns="http://www.w3.org/2000/svg" viewBox="0 0 10 10"><defs><style>.b{fill:#bdc8da;}</style></defs><path class="b" d="M4.98,.65C2.58,.65,.63,2.6,.63,5s1.95,4.35,4.35,4.35,4.35-1.95,4.35-4.35S7.38,.65,4.98,.65Zm0,7.96c-2,0-3.62-1.62-3.62-3.62S2.98,1.38,4.98,1.38s3.62,1.62,3.62,3.62-1.62,3.62-3.62,3.62Z"/><g><path class="b" d="M6.38,4.26h.98l-2.36-1.32-.35,.19-.21,3.36h2.82l-.88-2.24Zm-1.02-.69h.12l.05,.35h-.16v-.35Zm.02,.73h.19l.1,.6h-.25l-.03-.6Zm.1,1.77l-.04-.69h.3l.12,.69h-.38Z"/><path class="b" d="M3.29,4.96l-.05,.13,1.09-.6,.02-.11-1.06,.58Z"/><path class="b" d="M3.39,4.69l-.05,.13,1.02-.56,.02-.11-.99,.55Z"/><path class="b" d="M4.46,3.67l-1.06,.58h.16v.02l.89-.49,.02-.09v-.02Z"/><path class="b" d="M3.18,5.23l-.05,.13,1.15-.63,.02-.11-1.12,.62Z"/><path class="b" d="M3.5,4.42l-.05,.13,.96-.53,.02-.11-.93,.51Z"/><path class="b" d="M3.22,6.49h.18l.64-.35,.02-.11-.84,.46Z"/><path class="b" d="M3.61,6.49h.18l.21-.12,.02-.11-.41,.23Z"/><path class="b" d="M2.87,6.04l-.05,.13,1.34-.74,.02-.11-1.31,.72Z"/><path class="b" d="M3.01,4.26h.18l1.29-.71,.02-.11-1.49,.82Z"/><path class="b" d="M2.97,5.77l-.05,.13,1.28-.7,.02-.11-1.25,.69Z"/><path class="b" d="M3.08,5.5l-.05,.13,1.21-.67,.02-.11-1.18,.65Z"/><path class="b" d="M2.59,4.26h.21l1.72-.95,.02-.12-1.95,1.07Z"/><path class="b" d="M2.83,6.49h.18l1.07-.59,.02-.11-1.27,.7Z"/><path class="b" d="M2.76,6.31l-.05,.13,1.4-.77,.02-.11-1.37,.76Z"/></g></svg>