<svg width="13" height="13" viewBox="0 0 13 13" fill="none" xmlns="http://www.w3.org/2000/svg">
	<path d="M6.5 0C2.91031 0 0 2.91031 0 6.5C0 10.0897 2.91031 13 6.5 13C10.0897 13 13 10.0897 13 6.5C13 2.91031 10.0897 0 6.5 0ZM9.62299 4.75566L5.22431 9.15434C5.21872 9.15993 5.21212 9.16348 5.20451 9.1645L5.20958 9.16957L3.32614 9.67383L3.83091 7.79091L3.83599 7.79599L3.83548 7.79548C3.83649 7.78786 3.84005 7.78126 3.84563 7.77568L8.24431 3.377C8.25396 3.36735 8.26818 3.3643 8.28139 3.36836H8.28088C8.43322 3.29118 8.61755 3.32114 8.73841 3.442L9.55954 4.26313L9.55904 4.26262C9.6799 4.38348 9.70986 4.56782 9.63267 4.71965C9.63622 4.73285 9.63267 4.74656 9.62302 4.7557L9.62299 4.75566Z" fill="white" />
</svg>
