<svg width="15" height="15" viewBox="0 0 15 15" fill="none" xmlns="http://www.w3.org/2000/svg">
<path d="M11.5971 0.780016C10.9006 0.778376 10.2329 1.05482 9.74234 1.54866L5.37014 5.92086C4.57936 6.70672 4.13639 7.77722 4.13967 8.89194V10.8599H6.1076C7.22158 10.8623 8.29118 10.4194 9.07721 9.6294L13.4511 5.25468C14.1992 4.50491 14.4232 3.3778 14.0171 2.39826C13.611 1.41961 12.6562 0.780604 11.5973 0.779785L11.5971 0.780016ZM12.2632 4.06862L7.89012 8.44082C7.41844 8.91578 6.77695 9.18155 6.10758 9.17991H5.81964V8.89198C5.81718 8.22343 6.08296 7.58112 6.5571 7.10944L10.931 2.73472C11.1041 2.54194 11.3485 2.42793 11.6077 2.42136C11.867 2.41397 12.1172 2.51405 12.3009 2.69698C12.4838 2.87991 12.5839 3.13092 12.5765 3.39015C12.5692 3.64855 12.456 3.89381 12.2624 4.0661L12.2632 4.06862Z" fill="#1E55A9"/>
<path d="M3.29978 14.22H10.8598C12.2519 14.22 13.3798 13.0921 13.3798 11.7V8.34H11.6998V11.7C11.6998 11.9231 11.6112 12.1364 11.4537 12.2939C11.2962 12.4514 11.0829 12.54 10.8598 12.54H3.29978C2.8355 12.54 2.45978 12.1643 2.45978 11.7V4.14C2.45978 3.67571 2.8355 3.3 3.29978 3.3H6.65978V1.62H3.29978C1.90772 1.62 0.779785 2.74793 0.779785 4.14V11.7C0.779785 13.0921 1.90772 14.22 3.29978 14.22Z" fill="#1E55A9"/>
</svg>
