<svg width="13" height="13" viewBox="0 0 13 13" fill="none" xmlns="http://www.w3.org/2000/svg">
	<path d="M6.5 3.5C4.85 3.5 3.5 4.85 3.5 6.5C3.5 8.15 4.85 9.5 6.5 9.5H9.5C11.15 9.5 12.5 8.15 12.5 6.5C12.5 3.1847 9.8153 0.5 6.5 0.5C3.1847 0.5 0.5 3.1847 0.5 6.5C0.5 9.8153 3.1847 12.5 6.5 12.5H12.5V11H6.5C4.0097 11 2 8.9903 2 6.5C2 4.0097 4.0097 2 6.5 2C8.9903 2 11 4.0097 11 6.5C11 7.325 10.325 8 9.5 8H9.07988C9.33476 7.55 9.5 7.05488 9.5 6.5C9.5 4.85 8.15 3.5 6.5 3.5ZM6.5 8C5.675 8 5 7.325 5 6.5C5 5.675 5.675 5 6.5 5C7.325 5 8 5.675 8 6.5C8 7.325 7.325 8 6.5 8Z" fill="#3E4244" />
</svg>
