<svg width="19" height="19" viewBox="0 0 19 19" fill="#1e55a9" xmlns="http://www.w3.org/2000/svg">
	<g clip-path="url(#clip0_131_8301)">
		<path d="M5.34419 11.4613C3.62329 11.0413 2.20564 9.81609 1.54241 8.16688C0.860224 6.47052 1.06451 4.54579 2.08744 3.03037L2.08748 3.03031C3.11105 1.51498 4.81991 0.606592 6.64837 0.605862L6.64845 0.605862L9.73581 0.605862C11.7043 0.605862 13.5232 1.6565 14.5075 3.36085L14.5075 3.36088C15.4917 5.06595 15.4917 7.16646 14.5075 8.87085L5.34419 11.4613ZM5.34419 11.4613C5.36098 11.8604 5.31216 12.2596 5.19875 12.6434C5.07886 13.0413 5.20788 13.4721 5.52625 13.7391L5.5267 13.7395C5.84556 14.0053 6.29159 14.0571 6.66246 13.8695C7.48821 13.4625 8.59161 12.7385 9.29813 11.6259H9.73581C11.7043 11.6259 13.5231 10.576 14.5075 8.87088L5.34419 11.4613ZM6.64407 1.915C5.237 1.94462 3.93778 2.6763 3.18277 3.86476L3.18274 3.8648C2.42632 5.05486 2.31689 6.54563 2.89145 7.83368L2.89146 7.8337C3.46565 9.12126 4.64698 10.0359 6.03695 10.2693C6.31827 10.3116 6.54078 10.5318 6.58372 10.8138C6.58376 10.814 6.58379 10.8143 6.58383 10.8145L6.38607 10.8444L6.64407 1.915ZM6.64407 1.915H6.64829H9.74069C11.245 1.915 12.6351 2.71716 13.3869 4.01996L13.3869 4.02003C14.1394 5.32289 14.1394 6.92711 13.3869 8.22998L13.3869 8.23004C12.6351 9.53284 11.245 10.335 9.74069 10.335H8.93084C8.69511 10.3316 8.47656 10.4555 8.35825 10.6598L8.3581 10.6597L8.35425 10.667C7.94209 11.4519 7.23405 12.0314 6.57701 12.4309L6.64407 1.915ZM9.40253 13.7068C9.30339 13.4782 9.0376 13.3742 8.80979 13.4733C8.58127 13.5732 8.47721 13.8383 8.57635 14.0668L14.934 15.5264C14.7378 15.5553 14.5838 15.7086 14.5543 15.904M9.40253 13.7068C9.64229 14.2587 10.0374 14.7284 10.5409 15.0589M9.40253 13.7068L9.58597 13.6271C9.58598 13.6271 9.58599 13.6271 9.58601 13.6272M9.40253 13.7068L9.58601 13.6272M10.5409 15.0589C11.0436 15.3886 11.6321 15.5644 12.234 15.5644H12.8246M10.5409 15.0589L10.6506 14.8916C10.6506 14.8916 10.6506 14.8917 10.6506 14.8917M10.5409 15.0589L10.6506 14.8917M12.8246 15.5644C12.9906 15.5637 13.1431 15.6537 13.2226 15.8M12.8246 15.5644L12.8238 15.3644C12.8239 15.3644 12.8241 15.3644 12.8243 15.3644C13.0625 15.3636 13.282 15.4925 13.3969 15.7019M12.8246 15.5644L14.3567 15.873M13.2226 15.8C13.4989 16.2779 13.8833 16.6835 14.3436 16.9845C14.3321 16.8979 14.3235 16.811 14.3179 16.7239M13.2226 15.8L13.3983 15.7045C13.3979 15.7036 13.3974 15.7028 13.3969 15.7019M13.2226 15.8L13.3957 15.6999C13.3961 15.7006 13.3965 15.7012 13.3969 15.7019M14.3179 16.7239C14.3869 16.774 14.4579 16.8216 14.5309 16.8665C14.4964 16.5466 14.5042 16.2233 14.5543 15.904M14.3179 16.7239C14.2995 16.4403 14.3125 16.1552 14.3567 15.873M14.3179 16.7239C13.9441 16.4521 13.6299 16.1043 13.3969 15.7019M14.5543 15.904L14.3566 15.8741C14.3566 15.8738 14.3567 15.8734 14.3567 15.873M14.5543 15.904L14.3567 15.873M14.3567 15.873C14.3998 15.5909 14.6222 15.3701 14.9049 15.3286L14.905 15.3285C15.7493 15.2049 16.4963 14.7137 16.9441 13.9871L16.9441 13.9871C17.3919 13.2605 17.4951 12.3729 17.2255 11.5629C16.9559 10.7534 16.3418 10.1044 15.548 9.79007L15.5326 9.78398L15.5184 9.77545C15.2456 9.61113 15.1313 9.27288 15.2512 8.97664C15.3702 8.68036 15.6861 8.5149 15.9968 8.58495L16.0116 8.58829L16.0257 8.59381C16.807 8.89956 17.4777 9.43357 17.9498 10.1272C18.4218 10.8207 18.6737 11.6406 18.6707 12.4798L18.6705 12.5555L18.6696 12.5564C18.6488 13.4684 18.3323 14.3501 17.7656 15.0675C17.2153 15.7643 16.4599 16.2681 15.6079 16.5089C15.6107 16.737 15.6451 16.9637 15.7105 17.1824C15.8179 17.5396 15.7016 17.927 15.416 18.1661L15.4157 18.1663C15.1295 18.4051 14.7278 18.4509 14.3956 18.2825L14.3955 18.2825C13.7975 17.9789 12.9986 17.4616 12.4571 16.6623H12.2341H12.2339V16.4623L14.3567 15.873ZM9.58601 13.6272C9.81027 14.1434 10.1798 14.5826 10.6506 14.8917M9.58601 13.6272L10.6506 14.8917M10.3586 5.19968C10.5625 5.05764 10.6132 4.77709 10.4711 4.57249C10.3284 4.36788 10.0478 4.31796 9.84323 4.45999M10.3586 5.19968L5.89805 5.92178M10.3586 5.19968C9.40097 5.86343 8.56917 6.69242 7.90325 7.64804L10.3586 5.19968ZM9.84323 4.45999L9.72936 4.29557M9.84323 4.45999L9.72918 4.29569C9.72924 4.29565 9.7293 4.29561 9.72936 4.29557M9.84323 4.45999C9.03005 5.02321 8.2987 5.69723 7.67114 6.46136L5.89805 5.92178M9.72936 4.29557C10.0244 4.09091 10.4293 4.1629 10.6352 4.45806L10.6354 4.45844C10.8404 4.75368 10.7674 5.15869 10.4729 5.36379L10.4726 5.36406C9.53441 6.01428 8.71962 6.82634 8.06733 7.76238L8.06696 7.76292C7.94554 7.93594 7.74693 8.04069 7.5341 8.04069H7.51442H7.50528L7.50529 8.04048C7.28373 8.03037 7.08179 7.90885 6.97008 7.7159L6.96985 7.7155C6.7287 7.29676 6.3821 6.95016 5.96335 6.70901L5.96278 6.70867C5.65377 6.52935 5.54547 6.13352 5.72456 5.82214L5.7483 5.78086L5.75217 5.77832M9.72936 4.29557C8.90927 4.86357 8.17091 5.54218 7.53592 6.31094C7.26514 6.02448 6.95362 5.77896 6.61151 5.58242L6.61117 5.58223C6.3157 5.41325 5.94187 5.50132 5.75217 5.77832M5.75217 5.77832C5.74252 5.79241 5.73334 5.807 5.72468 5.82206L5.89778 5.92163L5.89805 5.92178M5.75217 5.77832L5.78811 5.75471L5.78822 5.75463L5.89805 5.92178" fill="#1e55a9" stroke="#1e55a9" stroke-width="0.4" />
	</g>
	<defs>
		<clipPath id="clip0_131_8301">
			<rect width="18" height="18" fill="white" transform="translate(0.90625 0.5)" />
		</clipPath>
	</defs>
</svg>
