<svg width="30" height="30" viewBox="0 0 30 30" fill="none" xmlns="http://www.w3.org/2000/svg">
	<path d="M23.6181 11.0415C21.3306 8.75985 18.231 7.479 15 7.479C11.769 7.479 8.6694 8.75985 6.3819 11.0415L3.0867 14.3367C2.72106 14.7035 2.72106 15.2965 3.0867 15.6633L6.3819 18.9585C8.6694 21.2401 11.769 22.521 15 22.521C18.231 22.521 21.3306 21.2401 23.6181 18.9585L26.9133 15.6633C27.2789 15.2965 27.2789 14.7035 26.9133 14.3367L23.6181 11.0415ZM22.2927 17.6322H22.2915C20.3568 19.5635 17.7342 20.6487 15 20.6487C12.2658 20.6487 9.64353 19.5635 7.70853 17.6322L5.07534 15.0002L7.70736 12.3682H7.70853C9.64329 10.4369 12.2658 9.35166 15 9.35166C17.7342 9.35166 20.3565 10.4368 22.2915 12.3682L24.9247 15.0002L22.2927 17.6322Z" fill="#CAD4E3" />
	<path d="M15 10.3125C13.7567 10.3125 12.5648 10.8058 11.6859 11.6859C10.8058 12.5648 10.3125 13.7566 10.3125 15C10.3125 16.2434 10.8058 17.4352 11.6859 18.3141C12.5648 19.1942 13.7566 19.6876 15 19.6876C16.2434 19.6876 17.4352 19.1942 18.3141 18.3141C19.1942 17.4352 19.6875 16.2434 19.6875 15C19.6864 13.7578 19.1918 12.566 18.3129 11.6871C17.434 10.8082 16.2422 10.3137 15 10.3125L15 10.3125ZM15 17.8125C13.8621 17.8125 12.8367 17.1269 12.4019 16.0758C11.966 15.0258 12.2074 13.8152 13.0113 13.0113C13.8152 12.2074 15.0257 11.9659 16.0758 12.4019C17.127 12.8367 17.8125 13.8621 17.8125 15C17.8125 16.5527 16.5528 17.8125 15 17.8125L15 17.8125Z" fill="#CAD4E3" />
</svg>
