<svg width="21" height="21" viewBox="0 0 21 21" fill="none" xmlns="http://www.w3.org/2000/svg">
	<path d="M7.26923 17.7692H16.1538V18.5769C16.1538 19.9147 15.0685 21 13.7308 21H2.42308C1.08533 21 0 19.9147 0 18.5769V7.26923C0 5.93149 1.08533 4.84615 2.42308 4.84615H3.23077V13.7308C3.23178 14.801 3.65783 15.8277 4.41504 16.585C5.17226 17.3422 6.19902 17.7682 7.26923 17.7692ZM18.5769 0H7.26923C5.93149 0 4.84615 1.08533 4.84615 2.42308V13.7308C4.84615 15.0685 5.93149 16.1538 7.26923 16.1538H18.5769C19.9147 16.1538 21 15.0685 21 13.7308V2.42308C21 1.08533 19.9147 0 18.5769 0Z" fill="url(#paint0_linear_1519_8839)" />
	<defs>
		<linearGradient id="paint0_linear_1519_8839" x1="-0.260993" y1="10.4579" x2="20.9971" y2="10.4579" gradientUnits="userSpaceOnUse">
			<stop stop-color="#1E55A9" />
			<stop offset="0.98" stop-color="#2BBFC7" />
		</linearGradient>
	</defs>
</svg>
