<svg width="22" height="22" viewBox="0 0 22 22" fill="none" xmlns="http://www.w3.org/2000/svg">
	<path d="M7.61539 18.6154H16.9231V19.4615C16.9231 20.863 15.7861 22 14.3846 22H2.53846C1.13701 22 0 20.863 0 19.4615V7.61539C0 6.21394 1.13701 5.07692 2.53846 5.07692H3.38462V14.3846C3.38567 15.5058 3.83201 16.5814 4.62528 17.3747C5.41855 18.168 6.49421 18.6143 7.61539 18.6154ZM19.4615 0H7.61539C6.21394 0 5.07692 1.13701 5.07692 2.53846V14.3846C5.07692 15.7861 6.21394 16.9231 7.61539 16.9231H19.4615C20.863 16.9231 22 15.7861 22 14.3846V2.53846C22 1.13701 20.863 0 19.4615 0Z" fill="#CAD4E3" />
</svg>
