<svg width="35" height="34" viewBox="0 0 35 34" fill="none" xmlns="http://www.w3.org/2000/svg">
	<rect x="0.5" width="34" height="34" rx="4" fill="#1E55A9" />
	<path d="M11.5 10C11.5 9.44772 11.9477 9 12.5 9H19.2143L23.5 13.4444V24C23.5 24.5523 23.0523 25 22.5 25H12.5C11.9477 25 11.5 24.5523 11.5 24V10Z" fill="#1E55A9" />
	<path d="M19.2143 9L19.7542 8.4794C19.6128 8.33281 19.4179 8.25 19.2143 8.25V9ZM23.5 13.4444H24.25C24.25 13.2503 24.1747 13.0636 24.0399 12.9238L23.5 13.4444ZM22.5 24.25H12.5V25.75H22.5V24.25ZM12.25 24V10H10.75V24H12.25ZM12.5 9.75H19.2143V8.25H12.5V9.75ZM22.75 13.4444V24H24.25V13.4444H22.75ZM18.6744 9.5206L22.9601 13.965L24.0399 12.9238L19.7542 8.4794L18.6744 9.5206ZM17.6071 9V12.5556H19.1071V9H17.6071ZM20.0714 15.0833H23.5V13.5833H20.0714V15.0833ZM17.6071 12.5556C17.6071 13.9257 18.685 15.0833 20.0714 15.0833V13.5833C19.5643 13.5833 19.1071 13.1491 19.1071 12.5556H17.6071ZM12.5 24.25C12.3619 24.25 12.25 24.1381 12.25 24H10.75C10.75 24.9665 11.5335 25.75 12.5 25.75V24.25ZM22.5 25.75C23.4665 25.75 24.25 24.9665 24.25 24H22.75C22.75 24.1381 22.6381 24.25 22.5 24.25V25.75ZM12.25 10C12.25 9.86193 12.3619 9.75 12.5 9.75V8.25C11.5335 8.25 10.75 9.0335 10.75 10H12.25Z" fill="white" />
</svg>
