<svg width="19" height="18" viewBox="0 0 19 18" fill="none" xmlns="http://www.w3.org/2000/svg">
	<path fill-rule="evenodd" clip-rule="evenodd" d="M9.5 2.25C9.83137 2.25 10.1 2.51279 10.1 2.83696V9.18491L11.4634 7.77027C11.6908 7.5344 12.0705 7.52348 12.3116 7.74586C12.5527 7.96824 12.5639 8.33972 12.3366 8.57558L9.93655 11.0657C9.82319 11.1833 9.66525 11.25 9.5 11.25C9.33475 11.25 9.17681 11.1833 9.06345 11.0657L6.66345 8.57558C6.43612 8.33972 6.44729 7.96824 6.68839 7.74586C6.9295 7.52348 7.30923 7.5344 7.53655 7.77027L8.9 9.18491V2.83696C8.9 2.51279 9.16863 2.25 9.5 2.25Z" fill="#3E4244" />
	<path fill-rule="evenodd" clip-rule="evenodd" d="M2.57692 9.75C2.89555 9.75 3.15385 10.0186 3.15385 10.35V13.3038C3.15385 14.0065 3.68413 14.55 4.30769 14.55H14.6923C15.3159 14.55 15.8462 14.0065 15.8462 13.3038V10.35C15.8462 10.0186 16.1045 9.75 16.4231 9.75C16.7417 9.75 17 10.0186 17 10.35V13.3038C17 14.6404 15.9805 15.75 14.6923 15.75H4.30769C3.01951 15.75 2 14.6404 2 13.3038V10.35C2 10.0186 2.2583 9.75 2.57692 9.75Z" fill="#3E4244" />
</svg>
