<svg width="20" height="20" viewBox="0 0 20 20" fill="none" xmlns="http://www.w3.org/2000/svg">
	<path d="M16.9344 4.95947L13.1876 1.05627C12.8415 0.703154 12.3688 0.503934 11.8751 0.503154H3.1627C2.85646 0.49456 2.60098 0.734394 2.59082 1.04065V18.6189C2.60098 18.9251 2.85644 19.165 3.1627 19.1564H16.8377C17.1439 19.1649 17.3994 18.9251 17.4096 18.6189V6.08765C17.4041 5.66421 17.2338 5.25953 16.9346 4.95953L16.9344 4.95947ZM15.4032 5.44071H12.8626C12.8126 5.44228 12.7633 5.42353 12.7274 5.38915C12.6907 5.35478 12.6696 5.30634 12.6688 5.25634V2.59074C12.6719 2.51183 12.7227 2.44308 12.7969 2.41652C12.8704 2.38996 12.9532 2.41027 13.0063 2.46887L15.5469 5.13447C15.5985 5.18837 15.6118 5.26884 15.5805 5.33681C15.5485 5.40477 15.4782 5.44618 15.4032 5.44071L15.4032 5.44071ZM15.9375 18.0625H4.06254C3.89614 18.0625 3.75864 17.932 3.75004 17.7656V1.89383C3.75863 1.72743 3.89614 1.59695 4.06254 1.59695H11.1907C11.3572 1.59695 11.4946 1.72742 11.5032 1.89383V6.11883C11.5064 6.23133 11.5548 6.33837 11.6368 6.41571C11.7189 6.49305 11.8282 6.53446 11.9407 6.53134H15.6783C15.8252 6.52665 15.969 6.58056 16.076 6.68134C16.1838 6.78212 16.2463 6.92118 16.2502 7.06884V17.7656C16.2416 17.932 16.1041 18.0625 15.9377 18.0625L15.9375 18.0625Z" fill="#3E4244" />
	<path d="M14.275 10.5093H5.72498C5.42264 10.5093 5.1781 10.2647 5.1781 9.96241C5.1781 9.66007 5.42264 9.41553 5.72498 9.41553H14.275C14.5773 9.41553 14.8219 9.66007 14.8219 9.96241C14.8219 10.2647 14.5773 10.5093 14.275 10.5093Z" fill="#3E4244" />
	<path d="M14.275 12.8784H5.72498C5.42264 12.8784 5.1781 12.6339 5.1781 12.3316C5.1781 12.0292 5.42264 11.7847 5.72498 11.7847H14.275C14.5773 11.7847 14.8219 12.0292 14.8219 12.3316C14.8219 12.6339 14.5773 12.8784 14.275 12.8784Z" fill="#3E4244" />
	<path d="M14.275 15.2471H5.72498C5.42264 15.2471 5.1781 15.0025 5.1781 14.7002C5.1781 14.3979 5.42264 14.1533 5.72498 14.1533H14.275C14.5773 14.1533 14.8219 14.3979 14.8219 14.7002C14.8219 15.0025 14.5773 15.2471 14.275 15.2471Z" fill="#3E4244" />
</svg>
