<svg width="29" height="33" viewBox="0 0 29 33" fill="none" xmlns="http://www.w3.org/2000/svg">
<path d="M8.82433 14.52C7.73507 14.4543 6.74507 14.3885 5.8208 14.2235V17.0285C5.8208 17.557 6.25007 17.985 6.74507 17.985H13.9714C14.4999 17.985 14.9279 17.5557 14.9279 17.0285V14.2235C14.0036 14.3885 13.0136 14.4543 11.9244 14.52C11.9244 15.1465 11.3958 15.6093 10.7694 15.6093H9.97788C9.35141 15.6093 8.82416 15.1465 8.82416 14.52H8.82433Z" fill="#3E4244"/>
<path d="M11.2002 8.58H9.4845C8.75876 8.58 8.13097 9.17427 8.13097 9.93353V10.6271H6.0517C5.52318 10.6271 5.12744 11.0563 5.12744 11.5513V13.0028C5.12744 13.1343 5.2267 13.2335 5.35818 13.2671C6.24892 13.4321 7.40392 13.5971 8.82318 13.6628C8.82318 13.0363 9.35171 12.5078 9.97818 12.5078H10.7697C11.3961 12.5078 11.9247 13.0028 11.9247 13.6628C13.3439 13.597 14.4654 13.4643 15.3897 13.2671C15.5211 13.2335 15.6204 13.1356 15.6204 13.0028L15.6217 11.55C15.6217 11.0215 15.1924 10.6258 14.6974 10.6258H12.6182V9.93224C12.5537 9.17427 11.9594 8.58 11.2002 8.58H11.2002ZM11.3987 10.5265H9.28727V9.93221C9.28727 9.83295 9.38653 9.7337 9.48579 9.7337L11.2002 9.73498C11.2995 9.73498 11.3988 9.83424 11.3988 9.9335L11.3987 10.5265Z" fill="#3E4244"/>
<path d="M10.7388 14.7843C10.9038 14.7843 11.0353 14.6529 11.0353 14.4879V13.6964C11.0353 13.5314 10.9038 13.3999 10.7388 13.3999H9.94736C9.78236 13.3999 9.65088 13.5314 9.65088 13.6964V14.4879C9.65088 14.6529 9.78236 14.7843 9.94736 14.7843H10.7388Z" fill="#3E4244"/>
<path d="M5.42516 25.6743H13.8402C14.0387 25.1136 14.2694 24.5529 14.5994 24.0243H5.4251C4.96363 24.0243 4.6001 24.3879 4.6001 24.8493C4.6001 25.3108 4.99583 25.6743 5.4251 25.6743H5.42516Z" fill="#3E4244"/>
<path d="M4.6003 21.0207C4.6003 21.4821 4.96382 21.8457 5.4253 21.8457H15.226C15.6874 21.8457 16.051 21.4821 16.051 21.0207C16.051 20.5592 15.6874 20.1957 15.226 20.1957H5.45863C4.99587 20.1957 4.6001 20.5914 4.6001 21.0207H4.6003Z" fill="#3E4244"/>
<path d="M27.3044 2.50853L10.4088 0.825002C9.51803 0.725744 8.72524 1.38574 8.6595 2.27647L8.42876 4.65221L1.8611 4.6535C0.970365 4.6535 0.244629 5.37923 0.244629 6.26997V28.215C0.244629 29.1057 0.970365 29.8314 1.8611 29.8314H14.0054C13.8069 29.3029 13.6754 28.7757 13.6097 28.1814H1.92703V6.30343H18.7907V16.6328C19.055 16.6663 19.3192 16.7642 19.55 16.897C19.8142 16.7655 20.1107 16.6328 20.4742 16.6005V15.3141L22.4207 15.51C22.8822 15.5435 23.2792 15.2135 23.345 14.7507V14.6515C23.345 14.2222 23.0485 13.8922 22.5857 13.8265L20.4407 13.6292V11.4842L22.7842 11.715C23.2457 11.7485 23.6427 11.4185 23.7085 10.9557L23.7072 10.89C23.7072 10.4607 23.3772 10.1307 22.9479 10.065L20.4407 9.83424V7.68924L23.1464 7.9535C23.6079 7.98702 24.005 7.65702 24.0372 7.19424V7.09498C24.0372 6.66572 23.7407 6.33572 23.3114 6.26998L20.4072 5.97349C20.2757 5.21423 19.6157 4.61997 18.8229 4.61997H10.0792L10.2777 2.44144L27.0741 4.09144L25.2926 22.1421C25.8533 22.8021 26.3483 23.4956 26.7441 24.2536L28.7241 4.18925C28.822 3.39907 28.1955 2.60627 27.3048 2.5083L27.3044 2.50853Z" fill="#3E4244"/>
<path d="M22.3545 21.45C22.8495 20.4265 23.378 19.2057 23.378 18.7107C23.378 18.1165 22.6187 17.7865 22.1573 18.4465C21.563 19.2715 21.2987 18.0829 20.6065 18.0829C19.913 18.0829 19.583 19.2044 19.0223 18.4465C18.5273 17.7529 17.7023 18.1822 17.7023 18.7107C17.7023 19.3707 18.2308 20.5257 18.6923 21.4822C17.0087 22.8022 14.9966 25.2435 14.9966 27.4559C14.9966 30.6901 17.4716 32.2072 20.5409 32.2072C23.6102 32.2072 26.0852 30.6887 26.0852 27.4559C26.1162 25.2116 24.0369 22.7365 22.3546 21.4502L22.3545 21.45ZM20.3409 26.1357H20.8359C21.8595 26.1357 22.7167 27.0264 22.5852 28.0821C22.5195 28.8736 21.8917 29.5014 21.1002 29.6329V30.3599C21.1002 30.4256 21.0345 30.4914 20.9687 30.4914H20.1772C20.1115 30.4914 20.0458 30.4256 20.0458 30.3599V29.6664C19.2543 29.5349 18.66 28.8749 18.5608 28.0821C18.5608 27.9829 18.6265 27.9171 18.6922 27.9171H19.4837C19.5495 27.9171 19.6152 27.9506 19.6152 28.0164C19.6809 28.3464 19.9452 28.5771 20.2752 28.5771H20.7367C21.0667 28.5771 21.3967 28.3464 21.4624 28.0164C21.5281 27.5871 21.1981 27.2249 20.8024 27.2249H20.3731C19.4489 27.2249 18.6239 26.5649 18.5246 25.6406C18.4254 24.6842 19.0853 23.8592 20.0096 23.7264V23.0328C20.0096 22.9671 20.0754 22.9014 20.1411 22.9014H20.9326C20.9983 22.9014 21.0641 22.9671 21.0641 23.0328V23.7264C21.8555 23.8579 22.4498 24.5178 22.5491 25.3106C22.5491 25.4099 22.4833 25.4756 22.4176 25.4756H21.6261C21.5604 25.4756 21.4946 25.4421 21.4946 25.3764C21.4289 25.0464 21.1646 24.8156 20.8346 24.8156H20.3731C20.0431 24.8156 19.7131 25.0464 19.6474 25.3764C19.5817 25.7734 19.9117 26.1356 20.3409 26.1356V26.1357Z" fill="#3E4244"/>
</svg>
