<svg width="25" height="25" viewBox="0 0 25 25" fill="none" xmlns="http://www.w3.org/2000/svg">
<path d="M3.4375 13.6327C3.66406 13.6327 3.89062 13.5421 4.07187 13.3609L7.96889 9.46385L10.5064 12.0013C10.8689 12.3638 11.4126 12.3638 11.7751 12.0013L20.6564 3.1201V3.66385C20.6564 4.1623 21.0642 4.5701 21.5626 4.5701C22.0611 4.5701 22.4689 4.1623 22.4689 3.66385V0.945095C22.4689 0.446643 22.0611 0.0388451 21.5626 0.0388451H18.8439C18.3454 0.0388451 17.9376 0.446643 17.9376 0.945095C17.9376 1.44355 18.3454 1.85135 18.8439 1.85135H19.3876L11.1406 10.0984L8.60312 7.56087C8.24062 7.19837 7.69687 7.19837 7.33437 7.56087L2.80312 12.0921C2.44063 12.4546 2.44063 12.9984 2.80312 13.3609C2.98437 13.5421 3.21092 13.6327 3.4375 13.6327Z" fill="#3E4244"/>
<path d="M3.21095 16.3515C1.85158 16.3515 0.71875 17.4843 0.71875 18.8437V22.4687C0.71875 23.8281 1.85155 24.9609 3.21095 24.9609C4.57036 24.9609 5.70315 23.8281 5.70315 22.4687V18.8437C5.70315 17.4843 4.57036 16.3515 3.21095 16.3515ZM3.89065 22.4687C3.89065 22.8312 3.57345 23.1485 3.21095 23.1485C2.84845 23.1485 2.53125 22.8312 2.53125 22.4687V18.8438C2.53125 18.4813 2.84845 18.164 3.21095 18.164C3.57345 18.164 3.89065 18.4813 3.89065 18.8438V22.4687Z" fill="#3E4244"/>
<path d="M9.5547 13.6327C8.19533 13.6327 7.0625 14.7655 7.0625 16.1249V22.4687C7.0625 23.8281 8.1953 24.9609 9.5547 24.9609C10.9141 24.9609 12.0469 23.8281 12.0469 22.4687V16.1249C12.0469 14.7656 10.9141 13.6327 9.5547 13.6327ZM10.2344 22.4687C10.2344 22.8312 9.9172 23.1485 9.5547 23.1485C9.1922 23.1485 8.875 22.8312 8.875 22.4687V16.125C8.875 15.7625 9.1922 15.4453 9.5547 15.4453C9.9172 15.4453 10.2344 15.7625 10.2344 16.125V22.4687Z" fill="#3E4244"/>
<path d="M15.8985 11.3673C14.5391 11.3673 13.4062 12.5001 13.4062 13.8595V22.469C13.4062 23.8284 14.539 24.9612 15.8985 24.9612C17.2579 24.9612 18.3907 23.8284 18.3907 22.469V13.8595C18.3907 12.5001 17.2579 11.3673 15.8985 11.3673ZM16.5782 22.4688C16.5782 22.8313 16.261 23.1485 15.8985 23.1485C15.536 23.1485 15.2188 22.8313 15.2188 22.4688V13.8592C15.2188 13.4967 15.536 13.1795 15.8985 13.1795C16.261 13.1795 16.5782 13.4967 16.5782 13.8592V22.4688Z" fill="#3E4244"/>
<path d="M21.7891 5.47649C20.4297 5.47649 19.2969 6.60929 19.2969 7.96869V22.4687C19.2969 23.8281 20.4297 24.9609 21.7891 24.9609C23.1485 24.9609 24.2813 23.8281 24.2813 22.4687V7.96869C24.2813 6.60932 23.1485 5.47649 21.7891 5.47649ZM22.4688 22.4687C22.4688 22.8312 22.1516 23.1484 21.7891 23.1484C21.4266 23.1484 21.1094 22.8312 21.1094 22.4687V7.96875C21.1094 7.60625 21.4266 7.28905 21.7891 7.28905C22.1516 7.28905 22.4688 7.60625 22.4688 7.96875V22.4687Z" fill="#3E4244"/>
</svg>
