<svg width="25" height="25" viewBox="0 0 25 25" fill="none" xmlns="http://www.w3.org/2000/svg">
<path d="M14.8438 25.05H24.2188C24.678 25.05 25.05 24.678 25.05 24.2188V11.7188C25.05 11.2595 24.678 10.8875 24.2188 10.8875H14.8438C14.3845 10.8875 14.0125 11.2595 14.0125 11.7188V24.2188C14.0125 24.678 14.3845 25.05 14.8438 25.05ZM23.3875 12.55V23.3875H15.675V12.55H23.3875Z" fill="#3E4244" stroke="#3E4244" stroke-width="0.1"/>
<path d="M17.1875 17.1375H17.1375V17.1875V18.75V18.8H17.1875H18.75H18.8V18.75V17.1875V17.1375H18.75H17.1875Z" fill="#3E4244" stroke="#3E4244" stroke-width="0.1"/>
<path d="M20.3125 17.1375H20.2625V17.1875V18.75V18.8H20.3125H21.875H21.925V18.75V17.1875V17.1375H21.875H20.3125Z" fill="#3E4244" stroke="#3E4244" stroke-width="0.1"/>
<path d="M17.1875 20.2625H17.1375V20.3125V21.875V21.925H17.1875H18.75H18.8V21.875V20.3125V20.2625H18.75H17.1875Z" fill="#3E4244" stroke="#3E4244" stroke-width="0.1"/>
<path d="M20.3125 20.2625H20.2625V20.3125V21.875V21.925H20.3125H21.875H21.925V21.875V20.3125V20.2625H21.875H20.3125Z" fill="#3E4244" stroke="#3E4244" stroke-width="0.1"/>
<path d="M14.8438 15.675H24.2188C24.678 15.675 25.05 15.303 25.05 14.8438C25.05 14.3845 24.678 14.0125 24.2188 14.0125H14.8438C14.3845 14.0125 14.0125 14.3845 14.0125 14.8438C14.0125 15.303 14.3845 15.675 14.8438 15.675Z" fill="#3E4244" stroke="#3E4244" stroke-width="0.1"/>
<path d="M1.09075 24.991L1.09093 24.9909L4.68762 23.551L8.28295 24.9878C8.28301 24.9878 8.28308 24.9879 8.28314 24.9879C8.48163 25.0689 8.70307 25.0689 8.90069 24.9879C8.90077 24.9878 8.90084 24.9878 8.90091 24.9878L12.8066 23.4255C13.234 23.256 13.4385 22.7726 13.2692 22.3469C13.0997 21.9206 12.6114 21.7149 12.1904 21.8844L8.59382 23.3242L4.99548 21.8845C4.99541 21.8845 4.99534 21.8844 4.99527 21.8844C4.79681 21.8034 4.57541 21.8034 4.3778 21.8844C4.37771 21.8844 4.37761 21.8845 4.37751 21.8845L1.6125 22.9917V3.9063C1.6125 2.64191 2.64186 1.61255 3.90625 1.61255H19.5312C19.9905 1.61255 20.3625 1.24056 20.3625 0.781296C20.3625 0.322032 19.9905 -0.0499542 19.5312 -0.0499542H3.90625C1.72531 -0.0499542 -0.05 1.72536 -0.05 3.9063V24.2188C-0.05 24.4951 0.0880935 24.7527 0.315449 24.9065C0.447785 24.9974 0.600662 25.045 0.756086 25.0497L0.756445 25.0501H0.781325C0.886252 25.0501 0.991129 25.0304 1.09075 24.991Z" fill="#3E4244" stroke="#3E4244" stroke-width="0.1"/>
<path d="M15.575 8.59375C15.575 9.05301 15.947 9.425 16.4062 9.425C16.8655 9.425 17.2375 9.05301 17.2375 8.59375V7.8625H22.6562C23.1155 7.8625 23.4875 7.49051 23.4875 7.03125V3.90625C23.4875 1.72532 21.7132 -0.05 19.5312 -0.05C17.3493 -0.05 15.575 1.72532 15.575 3.90625V8.59375ZM21.825 3.90625V6.2H17.2375V3.90625C17.2375 2.64186 18.2669 1.6125 19.5312 1.6125C20.7956 1.6125 21.825 2.64186 21.825 3.90625Z" fill="#3E4244" stroke="#3E4244" stroke-width="0.1"/>
<path d="M3.90625 6.3H13.2812C13.7405 6.3 14.1125 5.92801 14.1125 5.46875C14.1125 5.00949 13.7405 4.6375 13.2812 4.6375H3.90625C3.44699 4.6375 3.075 5.00949 3.075 5.46875C3.075 5.92801 3.44699 6.3 3.90625 6.3Z" fill="#3E4244" stroke="#3E4244" stroke-width="0.1"/>
<path d="M3.90625 12.55H10.1562C10.6155 12.55 10.9875 12.178 10.9875 11.7188C10.9875 11.2595 10.6155 10.8875 10.1562 10.8875H3.90625C3.44699 10.8875 3.075 11.2595 3.075 11.7188C3.075 12.178 3.44699 12.55 3.90625 12.55Z" fill="#3E4244" stroke="#3E4244" stroke-width="0.1"/>
<path d="M3.90625 15.675H8.59375C9.05301 15.675 9.425 15.303 9.425 14.8438C9.425 14.3845 9.05301 14.0125 8.59375 14.0125H3.90625C3.44699 14.0125 3.075 14.3845 3.075 14.8438C3.075 15.303 3.44699 15.675 3.90625 15.675Z" fill="#3E4244" stroke="#3E4244" stroke-width="0.1"/>
<path d="M3.90625 18.8H8.59375C9.05301 18.8 9.425 18.428 9.425 17.9688C9.425 17.5095 9.05301 17.1375 8.59375 17.1375H3.90625C3.44699 17.1375 3.075 17.5095 3.075 17.9688C3.075 18.428 3.44699 18.8 3.90625 18.8Z" fill="#3E4244" stroke="#3E4244" stroke-width="0.1"/>
</svg>
