<svg width="24" height="26" viewBox="0 0 24 26" fill="none" xmlns="http://www.w3.org/2000/svg">
	<path d="M24 3.51394C24 2.08906 22.8287 0.917748 21.4038 0.917748H13.6784C13.3296 0.379714 12.6964 0 12 0C11.3036 0 10.6704 0.379714 10.3216 0.917748H2.59619C1.17131 0.917748 0 2.08906 0 3.51394V17.0034C0 18.4283 1.17131 19.5996 2.59619 19.5996H8.83367L4.52674 23.8742C4.14703 24.2539 4.14703 24.8563 4.52674 25.236C4.90645 25.6157 5.50883 25.6157 5.88854 25.236L11.0501 20.0745V24.5397C11.0501 25.0778 11.4929 25.4897 12 25.4897C12.5071 25.4897 12.9499 25.0469 12.9499 24.5397V20.0745L18.1115 25.236C18.4912 25.6157 19.0935 25.6157 19.4733 25.236C19.853 24.8563 19.853 24.2539 19.4733 23.8742L15.1663 19.5996H21.4038C22.8287 19.5996 24 18.4283 24 17.0034V3.51394ZM12 3.1973C15.357 3.1973 18.0484 5.9209 18.0484 9.24574C18.0484 12.6028 15.3248 15.2942 12 15.2942C8.67516 15.2942 5.95155 12.5706 5.95155 9.24574C5.95155 5.91976 8.64299 3.1973 12 3.1973V3.1973ZM21.4039 17.3831H2.59613C2.37473 17.3831 2.18424 17.1926 2.18424 16.9712V3.54503C2.18424 3.32363 2.37472 3.13315 2.59613 3.13315C2.81753 3.13315 3.00801 3.32362 3.00801 3.54503V16.5272H21.4361C21.6575 16.5272 21.848 16.7177 21.848 16.9391C21.848 17.1927 21.6575 17.3832 21.404 17.3832L21.4039 17.3831Z" fill="url(#paint0_linear_1519_7760)" />
	<path d="M10.2908 9.53012C10.8289 9.8146 11.3991 9.90983 12.0002 9.942C12.2216 9.942 12.443 10.0051 12.6335 10.1634C12.9179 10.417 12.887 10.7645 12.6013 10.9872C12.0954 11.3669 11.3669 11.1764 11.1455 10.5432H8.96118C8.96118 10.9859 9.1195 11.3669 9.37307 11.6836C9.72188 12.1263 10.1968 12.443 10.7349 12.6013C10.8932 12.6644 10.9563 12.7275 10.9253 12.8858V13.931H13.1097V12.7905C13.1097 12.6644 13.1418 12.6001 13.268 12.5691C13.6477 12.443 13.9965 12.2525 14.281 11.9989C14.6607 11.6501 14.9464 11.2704 15.0095 10.7646C15.1047 9.97295 14.7881 9.37184 14.1857 8.89689C13.5524 8.42193 12.8239 8.20053 12.0645 8.20053C11.78 8.20053 11.5265 8.13745 11.336 7.94697C11.1455 7.7565 11.1455 7.47201 11.2729 7.28152C11.5895 6.83874 12.4442 6.86964 12.7299 7.31368C12.7621 7.34584 12.793 7.40892 12.793 7.472C12.793 7.59816 12.8883 7.59816 12.9835 7.59816H14.8833H15.0416C15.0416 7.09103 14.8512 6.68042 14.5036 6.29944C14.1548 5.91972 13.7442 5.66616 13.2692 5.50784C13.174 5.47568 13.1431 5.44476 13.1431 5.31736V4.49359H10.9588V5.25302C10.9588 5.37918 10.9266 5.41134 10.8004 5.47442C10.4838 5.63274 10.135 5.7589 9.85052 5.98155C9.122 6.51958 8.83753 7.31118 9.05892 8.10278C9.24569 8.8016 9.72063 9.21349 10.2908 9.53013L10.2908 9.53012Z" fill="url(#paint1_linear_1519_7760)" />
	<defs>
		<linearGradient id="paint0_linear_1519_7760" x1="-0.298278" y1="12.7092" x2="23.9967" y2="12.7092" gradientUnits="userSpaceOnUse">
			<stop stop-color="#1E55A9" />
			<stop offset="0.98" stop-color="#2BBFC7" />
		</linearGradient>
		<linearGradient id="paint1_linear_1519_7760" x1="8.88561" y1="9.19333" x2="15.0408" y2="9.19333" gradientUnits="userSpaceOnUse">
			<stop stop-color="#1E55A9" />
			<stop offset="0.98" stop-color="#2BBFC7" />
		</linearGradient>
	</defs>
</svg>
