<svg width="22" height="22" viewBox="0 0 22 22" fill="none" xmlns="http://www.w3.org/2000/svg">
	<path d="M15.3304 19.6149H1.6209V3.12636H3.72869V3.82111C3.72869 4.26075 4.09959 4.63165 4.53923 4.63165C4.97887 4.63165 5.34977 4.26075 5.34977 3.82111V3.12636H7.68923V3.82111C7.68923 4.26075 8.06013 4.63165 8.49977 4.63165C8.93941 4.63165 9.31032 4.26075 9.31032 3.82111V3.12636H11.6498V3.82111C11.6498 4.26075 12.0207 4.63165 12.4603 4.63165C12.9 4.63165 13.2709 4.26075 13.2709 3.82111V3.12636H15.3786V10.8844L16.9997 9.26332L16.9979 2.73197C16.9979 2.06075 16.4651 1.50439 15.7703 1.50439L13.2465 1.50529V0.810543C13.2465 0.370905 12.8756 0 12.436 0C11.9964 0 11.6255 0.370905 11.6255 0.810543V1.50529H9.28692V0.810543C9.28692 0.370905 8.91602 0 8.47638 0C8.03674 0 7.66584 0.370905 7.66584 0.810543V1.50529H5.32638V0.810543C5.32638 0.370905 4.95547 0 4.51584 0C4.0762 0 3.70529 0.370905 3.70529 0.810543V1.50529H1.22758C0.556357 1.50529 0 2.03812 0 2.73287V20.0095C0 20.6807 0.532828 21.2371 1.22758 21.2371H15.7476C16.4189 21.2371 16.9752 20.6816 16.9752 20.0095V16.5584L15.3541 18.1795V19.6151L15.3304 19.6149Z" fill="url(#paint0_linear_1519_9094)" />
	<path d="M12.9915 11.949C12.9915 11.5094 12.6206 11.1385 12.1809 11.1385H4.79296C4.35333 11.1385 3.98242 11.5094 3.98242 11.949C3.98242 12.3887 4.35333 12.7596 4.79296 12.7596H12.18C12.6206 12.7596 12.9915 12.3896 12.9915 11.949H12.9915Z" fill="url(#paint1_linear_1519_9094)" />
	<path d="M4.79296 8.70681H12.18C12.6197 8.70681 12.9906 8.33591 12.9906 7.89627C12.9906 7.45663 12.6197 7.08572 12.18 7.08572H4.79296C4.35333 7.08572 3.98242 7.45663 3.98242 7.89627C3.98242 8.33681 4.3298 8.70681 4.79296 8.70681Z" fill="url(#paint2_linear_1519_9094)" />
	<path d="M3.98251 16.0017C3.98251 16.4649 4.32989 16.8123 4.79305 16.8123H10.8603L11.1842 15.3767C11.2077 15.307 11.2077 15.2373 11.2303 15.1912H4.79296C4.3298 15.1912 3.98242 15.5621 3.98242 16.0018L3.98251 16.0017Z" fill="url(#paint3_linear_1519_9094)" />
	<path d="M12.4352 17.9241L14.2182 17.5306C14.2878 17.5071 14.3575 17.4609 14.4263 17.4148L14.9591 16.8594L12.9906 14.8909L12.4578 15.4237C12.3881 15.4934 12.3655 15.5395 12.342 15.6318L11.9259 17.4374C11.8562 17.7387 12.1339 17.9938 12.4352 17.9241L12.4352 17.9241Z" fill="url(#paint4_linear_1519_9094)" />
	<path d="M13.6875 14.2188L15.6324 16.1872L20.2641 11.5555L18.3192 9.58708L13.6875 14.2188Z" fill="url(#paint5_linear_1519_9094)" />
	<path d="M21.8616 9.37911L20.4956 7.98961C20.3102 7.82768 20.056 7.82768 19.8931 7.98961L18.9668 8.91594L20.9353 10.8844L21.8616 9.95807C22.047 9.79524 22.047 9.54104 21.8616 9.37911Z" fill="url(#paint6_linear_1519_9094)" />
	<defs>
		<linearGradient id="paint0_linear_1519_9094" x1="-0.211277" y1="10.5759" x2="16.9974" y2="10.5759" gradientUnits="userSpaceOnUse">
			<stop stop-color="#1E55A9" />
			<stop offset="0.98" stop-color="#2BBFC7" />
		</linearGradient>
		<linearGradient id="paint1_linear_1519_9094" x1="3.87046" y1="11.9458" x2="12.9902" y2="11.9458" gradientUnits="userSpaceOnUse">
			<stop stop-color="#1E55A9" />
			<stop offset="0.98" stop-color="#2BBFC7" />
		</linearGradient>
		<linearGradient id="paint2_linear_1519_9094" x1="3.87047" y1="7.89301" x2="12.9893" y2="7.89301" gradientUnits="userSpaceOnUse">
			<stop stop-color="#1E55A9" />
			<stop offset="0.98" stop-color="#2BBFC7" />
		</linearGradient>
		<linearGradient id="paint3_linear_1519_9094" x1="3.89234" y1="15.9985" x2="11.2293" y2="15.9985" gradientUnits="userSpaceOnUse">
			<stop stop-color="#1E55A9" />
			<stop offset="0.98" stop-color="#2BBFC7" />
		</linearGradient>
		<linearGradient id="paint4_linear_1519_9094" x1="11.8772" y1="16.4072" x2="14.9587" y2="16.4072" gradientUnits="userSpaceOnUse">
			<stop stop-color="#1E55A9" />
			<stop offset="0.98" stop-color="#2BBFC7" />
		</linearGradient>
		<linearGradient id="paint5_linear_1519_9094" x1="13.6058" y1="12.8739" x2="20.2632" y2="12.8739" gradientUnits="userSpaceOnUse">
			<stop stop-color="#1E55A9" />
			<stop offset="0.98" stop-color="#2BBFC7" />
		</linearGradient>
		<linearGradient id="paint6_linear_1519_9094" x1="18.9291" y1="9.37023" x2="22.0003" y2="9.37023" gradientUnits="userSpaceOnUse">
			<stop stop-color="#1E55A9" />
			<stop offset="0.98" stop-color="#2BBFC7" />
		</linearGradient>
	</defs>
</svg>
