<svg width="20" height="20" viewBox="0 0 20 20" fill="none" xmlns="http://www.w3.org/2000/svg">
	<g clip-path="url(#clip0_874_14310)">
		<path d="M7.19138 2.0837C7.19138 2.31906 7.28069 2.50292 7.42028 2.62692C7.55802 2.74928 7.73884 2.80831 7.91638 2.80831C8.09392 2.80831 8.27474 2.74928 8.41248 2.62692C8.55207 2.50292 8.64138 2.31906 8.64138 2.0837C8.64138 1.84817 8.5521 1.66417 8.41252 1.54007C8.27478 1.41759 8.09395 1.3585 7.91638 1.3585C7.73882 1.3585 7.55799 1.41759 7.42025 1.54007C7.28067 1.66417 7.19138 1.84817 7.19138 2.0837Z" fill="#3E4244" stroke="#3E4244" stroke-width="0.2" />
		<path d="M1.50002 3.4336H4.06642V3.825C4.06642 4.29539 4.44487 4.67827 4.91529 4.68359L4.91529 4.6836H4.91642L10.9164 4.6836L10.9176 4.68359C11.388 4.67829 11.7664 4.29541 11.7664 3.825V3.4336H14.3336C14.4161 3.4336 14.4836 3.50075 14.4836 3.5836V9.1664C14.4836 9.45184 14.7141 9.68358 15 9.68358C15.286 9.68358 15.5164 9.45185 15.5164 9.1664V3.5836L15.5164 3.58321C15.5139 2.93067 14.9858 2.40258 14.334 2.4H14.3336H11.713C11.5404 1.73698 10.9423 1.26651 10.2506 1.2625H10.25H9.93014C9.59098 0.45365 8.79878 -0.0765625 7.9164 -0.0765625C7.03477 -0.0765625 6.2426 0.453669 5.90345 1.2625L5.58358 1.2625L5.583 1.2625C4.89046 1.26652 4.29318 1.73701 4.12056 2.4L1.49998 2.4L1.49959 2.4C0.847005 2.40256 0.318959 2.93062 0.316382 3.5832V3.5836L0.316381 18.9164L0.316383 18.9168C0.318942 19.5694 0.84701 20.0974 1.49959 20.1H1.49998H10.346C10.6309 20.1 10.8624 19.8685 10.8624 19.5836C10.8624 19.298 10.631 19.0664 10.346 19.0664V19.0664H1.50002C1.41697 19.0664 1.35002 18.9995 1.35002 18.9164V3.5836C1.35002 3.50054 1.41697 3.4336 1.50002 3.4336ZM5.10002 2.804H5.10004L5.1 2.80202C5.0974 2.67051 5.1469 2.54304 5.23782 2.44821C5.32853 2.35362 5.45287 2.29903 5.58464 2.29619H6.62501H6.70725L6.72313 2.21549L6.7894 1.87865C6.78942 1.87854 6.78945 1.87843 6.78947 1.87831C6.89888 1.34214 7.36963 0.957126 7.91641 0.957126C8.46335 0.957126 8.93477 1.34231 9.04336 1.87832C9.04337 1.87839 9.04339 1.87846 9.0434 1.87852L9.1097 2.21549L9.12558 2.29619H9.20782H10.249C10.3801 2.29903 10.5051 2.35368 10.5958 2.4482L10.668 2.379L10.5958 2.44821C10.6867 2.54304 10.7362 2.67051 10.7336 2.80202L10.7336 2.80202V2.804V3.6501H5.09999L5.10002 2.804Z" fill="#3E4244" stroke="#3E4244" stroke-width="0.2" />
		<path d="M5.41638 6.9835H5.31638V7.0835V7.9171V8.0171H5.41638H12.0828H12.1828V7.9171V7.0835V6.9835H12.0828H5.41638Z" fill="#3E4244" stroke="#3E4244" stroke-width="0.2" />
		<path d="M2.48653 7.06307L2.48646 7.06323C2.31006 7.48969 2.40772 7.98033 2.73472 8.30733C3.06102 8.63362 3.55165 8.73115 3.97875 8.55483L3.97897 8.55474C4.40524 8.37755 4.68355 7.9615 4.68355 7.4999C4.68355 7.19672 4.56279 6.90647 4.3488 6.69247L4.3488 6.69247C4.13466 6.47833 3.84435 6.3585 3.54137 6.3585C3.07977 6.3585 2.66372 6.6368 2.48653 7.06307ZM3.54339 8.02489H3.54137C3.32951 8.02489 3.13781 7.89694 3.0564 7.70065C2.97509 7.50458 3.02026 7.27884 3.17068 7.12843L3.17068 7.12843C3.32027 6.97884 3.54674 6.93362 3.742 7.01488L3.74212 7.01493C3.93848 7.09636 4.06637 7.28733 4.06637 7.4999C4.06637 7.78932 3.83255 8.0238 3.54339 8.02489Z" fill="#3E4244" stroke="#3E4244" stroke-width="0.2" />
		<path d="M5.41638 11.15H5.31638V11.25V12.0836V12.1836H5.41638H9.58278H9.68278V12.0836V11.25V11.15H9.58278H5.41638Z" fill="#3E4244" stroke="#3E4244" stroke-width="0.2" />
		<path d="M4.27809 10.9305L4.34894 10.8599C4.13476 10.6449 3.84437 10.525 3.54137 10.525C3.07977 10.525 2.66372 10.8033 2.48653 11.2296L2.48646 11.2297C2.31009 11.6561 2.40765 12.1476 2.73477 12.4739M4.27809 10.9305L4.3488 10.8598C4.56276 11.0737 4.68355 11.364 4.68355 11.6664C4.68355 12.1287 4.40534 12.5448 3.97891 12.7213C3.5516 12.8985 3.06095 12.8 2.73477 12.4739M4.27809 10.9305C4.47339 11.1258 4.58355 11.3906 4.58355 11.6664C4.58355 12.0883 4.32965 12.468 3.94059 12.6289C3.55075 12.7906 3.10309 12.7008 2.80543 12.4031C2.50699 12.1055 2.41793 11.657 2.57887 11.268C2.74059 10.8789 3.12027 10.625 3.54137 10.625C3.81793 10.625 4.08278 10.7344 4.27809 10.9305ZM2.73477 12.4739C2.73475 12.4739 2.73473 12.4738 2.73472 12.4738L2.80542 12.4031L2.73481 12.4739C2.7348 12.4739 2.73478 12.4739 2.73477 12.4739ZM4.06637 11.6664C4.06637 11.9561 3.83215 12.1907 3.54266 12.1914H3.54137C3.32951 12.1914 3.13781 12.0634 3.0564 11.8672L3.05636 11.867C2.97511 11.6718 3.02031 11.4454 3.17052 11.2959L3.17083 11.2956C3.32039 11.1453 3.54677 11.1001 3.74201 11.1814L3.74212 11.1814C3.93842 11.2628 4.06637 11.4545 4.06637 11.6664ZM3.78043 11.0891C4.01403 11.1859 4.16637 11.4141 4.16637 11.6664C4.16637 11.9194 4.01619 12.1372 3.80006 12.2356L3.78043 11.0891Z" fill="#3E4244" stroke="#3E4244" stroke-width="0.2" />
		<path d="M5.41638 15.3165H5.31638V15.4165V16.2501V16.3501H5.41638H8.74998H8.84998V16.2501V15.4165V15.3165H8.74998H5.41638Z" fill="#3E4244" stroke="#3E4244" stroke-width="0.2" />
		<path d="M2.48653 15.3961L2.48653 15.3961L2.48644 15.3963C2.31013 15.8234 2.40763 16.314 2.73471 16.6403C3.06102 16.9674 3.55167 17.0649 3.97875 16.8886L3.97897 16.8885C4.40524 16.7113 4.68355 16.2953 4.68355 15.8337C4.68355 15.5305 4.56279 15.2403 4.3488 15.0263C4.13481 14.8122 3.84454 14.6915 3.54137 14.6915C3.07977 14.6915 2.66372 14.9698 2.48653 15.3961ZM3.54137 16.3587V16.3587C3.32951 16.3587 3.13781 16.2307 3.0564 16.0344C2.97509 15.8384 3.02026 15.6126 3.17068 15.4622L3.17083 15.4621C3.32021 15.312 3.54654 15.2673 3.742 15.3487L3.74238 15.3488C3.93833 15.4294 4.06637 15.6209 4.06637 15.8337C4.06637 16.1231 3.83138 16.3587 3.54137 16.3587Z" fill="#3E4244" stroke="#3E4244" stroke-width="0.2" />
		<path d="M11.7595 18.6577L11.6888 18.7284C10.8099 17.8494 10.3165 16.6584 10.3165 15.4163C10.3165 14.1742 10.8098 12.9831 11.6888 12.105L11.7595 18.6577ZM11.7595 18.6577L11.6888 18.7284C12.5669 19.6065 13.7579 20.0999 15.0001 20.0999C16.2422 20.0999 17.4332 19.6065 18.3114 18.7284L18.2407 18.6577M11.7595 18.6577H18.2407M18.2407 18.6577L18.3114 18.7284C19.1903 17.8495 19.6836 16.6584 19.6836 15.4163C19.6836 14.1742 19.1903 12.9831 18.3114 12.105C17.4332 11.2268 16.2422 10.7335 15.0001 10.7335C13.7579 10.7335 12.5669 11.2268 11.6888 12.1049L18.2407 18.6577ZM12.4192 17.9972L12.4192 17.9972C13.1036 18.6823 14.032 19.0663 15.0001 19.0663C15.9681 19.0663 16.8966 18.6823 17.5809 17.9972L17.581 17.9972C18.2653 17.3128 18.6501 16.3843 18.6501 15.4163C18.6501 14.4482 18.2653 13.5198 17.581 12.8354C16.8965 12.151 15.9681 11.7662 15.0001 11.7662C14.032 11.7662 13.1036 12.151 12.4192 12.8354L12.4192 17.9972ZM12.4192 17.9972C11.7348 17.3128 11.35 16.3843 11.35 15.4163M12.4192 17.9972L11.35 15.4163M11.35 15.4163C11.35 14.4483 11.7348 13.5198 12.4192 12.8354L11.35 15.4163Z" fill="#3E4244" stroke="#3E4244" stroke-width="0.2" />
		<path d="M16.1008 13.9789H16.1328L14.2827 15.9177L13.7012 15.3097L13.7014 15.3095L13.6957 15.3045C13.4951 15.1242 13.1882 15.129 12.9933 15.316C12.7976 15.5031 12.7803 15.8092 12.9517 16.0174L12.9515 16.0176L12.9564 16.0227L13.9064 17.0227L13.9065 17.0228C14.0043 17.1254 14.1398 17.1836 14.2813 17.1836C14.4227 17.1836 14.5583 17.1254 14.656 17.0228L14.656 17.0228L17.035 14.5228L17.0352 14.523L17.0396 14.5176C17.2123 14.3091 17.1937 14.003 16.999 13.8161L16.9989 13.8159C16.8033 13.6291 16.4973 13.6242 16.2959 13.8043L16.1008 13.9789Z" fill="#3E4244" stroke="#3E4244" stroke-width="0.2" />
	</g>
	<defs>
		<clipPath id="clip0_874_14310">
			<rect width="20" height="20" fill="white" />
		</clipPath>
	</defs>
</svg>
