<svg width="41" height="41" viewBox="0 0 41 41" fill="none" xmlns="http://www.w3.org/2000/svg">
	<path d="M8.60169 2.04999C7.24996 2.04999 6.14648 3.15346 6.14648 4.50519V36.4946C6.14648 37.8463 7.24996 38.9498 8.60169 38.9498H32.3833C33.7351 38.9498 34.8529 37.8463 34.8529 36.4946V4.50519C34.8529 3.15346 33.735 2.04999 32.3833 2.04999H8.60169ZM8.60169 3.69159H32.3833C32.8478 3.69159 33.2113 4.04073 33.2113 4.50519V36.4946C33.2113 36.9591 32.8478 37.3082 32.3833 37.3082H8.60169C8.13724 37.3082 7.78808 36.9591 7.78808 36.4946V4.50519C7.78808 4.04074 8.13722 3.69159 8.60169 3.69159V3.69159ZM11.8849 8.61651C11.4348 8.61651 11.0713 8.98006 11.0713 9.43011C11.0713 9.88016 11.4348 10.2437 11.8849 10.2437H29.1C29.5644 10.2437 29.928 9.88016 29.928 9.43011C29.928 8.98006 29.5644 8.61651 29.1 8.61651H11.8849ZM11.8849 15.9965C11.4348 15.9965 11.0713 16.3601 11.0713 16.8101C11.0713 17.2602 11.4348 17.6237 11.8849 17.6237H29.1C29.5644 17.6237 29.928 17.2602 29.928 16.8101C29.928 16.3601 29.5644 15.9965 29.1 15.9965H11.8849ZM11.8849 23.3765C11.4348 23.3765 11.0713 23.7401 11.0713 24.1901C11.0713 24.6402 11.4348 25.0037 11.8849 25.0037H29.1C29.5644 25.0037 29.928 24.6402 29.928 24.1901C29.928 23.7401 29.5644 23.3765 29.1 23.3765H11.8849ZM11.8849 30.7565C11.4348 30.7565 11.0713 31.1201 11.0713 31.5701C11.0713 32.0202 11.4348 32.3837 11.8849 32.3837H29.1C29.5644 32.3837 29.928 32.0202 29.928 31.5701C29.928 31.1201 29.5644 30.7565 29.1 30.7565H11.8849Z" fill="#041620" />
</svg>
