<svg width="44" height="44" viewBox="0 0 44 44" fill="none" xmlns="http://www.w3.org/2000/svg">
	<rect width="44" height="44" rx="8" fill="#3E4244" />
	<path d="M35.1999 21.8108C35.1999 20.5595 34.8854 19.3272 34.2855 18.2289L29.3835 9.23975H14.6162L9.71417 18.2289C9.11432 19.3272 8.7998 20.5596 8.7998 21.8108V31.68C8.7998 33.3816 10.1782 34.76 11.8798 34.76H14.5198C16.2214 34.76 17.5998 33.3816 17.5998 31.68V31.24H26.3998V31.68C26.3998 33.3816 27.7782 34.76 29.4798 34.76H32.1198C33.8214 34.76 35.1998 33.3816 35.1998 31.68L35.1999 21.8108ZM32.5599 31.68C32.5599 31.7969 32.5135 31.9086 32.431 31.9911C32.3485 32.0736 32.2368 32.12 32.1199 32.12H29.4799C29.2376 32.12 29.0399 31.9224 29.0399 31.68V28.6H14.9599V31.68C14.9599 31.7969 14.9135 31.9086 14.831 31.9911C14.7485 32.0736 14.6368 32.12 14.5199 32.12H11.8799C11.6376 32.12 11.4399 31.9224 11.4399 31.68V21.8108C11.4399 21.0013 11.6427 20.2038 12.0294 19.4922L16.1836 11.8798H27.8163L31.9706 19.4922C32.3573 20.2038 32.5601 21.0013 32.5601 21.8108L32.5599 31.68Z" fill="white" />
	<path d="M14.96 22.88C14.96 23.3475 15.1456 23.7944 15.4756 24.1244C15.8056 24.4544 16.2525 24.64 16.72 24.64H27.28C27.7475 24.64 28.1943 24.4544 28.5243 24.1244C28.8543 23.7944 29.04 23.3475 29.04 22.88V22H14.96V22.88Z" fill="white" />
</svg>
