<?xml version="1.0" encoding="UTF-8"?><svg id="a" xmlns="http://www.w3.org/2000/svg" viewBox="0 0 10 10"><defs><style>.b{fill:#bdc8da;}</style></defs><path class="b" d="M4.91,.65C2.51,.65,.56,2.6,.56,5s1.95,4.35,4.35,4.35,4.35-1.95,4.35-4.35S7.31,.65,4.91,.65Zm0,7.96c-2,0-3.62-1.62-3.62-3.62S2.91,1.38,4.91,1.38s3.62,1.62,3.62,3.62-1.62,3.62-3.62,3.62Z"/><path class="b" d="M6.78,3.69s-.07-.08-.12-.09c-.05,0-.11,0-.14,.05l-.67,.67-.25-.25,.67-.67s.05-.09,.05-.14c0-.05-.04-.1-.09-.12-.31-.16-.66-.2-1-.11-.33,.09-.62,.31-.8,.6-.18,.3-.24,.65-.17,.99l-1.22,1.22c-.1,.1-.16,.24-.16,.38,0,.14,.06,.28,.16,.38l.28,.27c.21,.21,.55,.21,.76,0l1.22-1.22c.43,.09,.89-.03,1.21-.33,.21-.21,.36-.47,.4-.77,.05-.29,0-.59-.14-.86h0Zm-3,2.67s-.12,.06-.18,.04c-.06-.03-.1-.09-.1-.15s.04-.13,.1-.15c.06-.03,.13-.01,.18,.04,.03,.03,.05,.07,.05,.12s-.02,.09-.05,.12h0Z"/></svg>