<svg width="46" height="46" viewBox="0 0 46 46" fill="none" xmlns="http://www.w3.org/2000/svg">
	<rect x="0.5" y="0.5" width="45" height="45" rx="7.5" fill="white" stroke="#ECECF2" />
	<path d="M22.9602 21.8119V24.1881C22.9602 24.1881 25.2501 24.185 26.1824 24.185C25.6775 25.7255 24.8925 26.5644 22.9602 26.5644C21.0047 26.5644 19.4785 24.9685 19.4785 23C19.4785 21.0315 21.0047 19.4356 22.9602 19.4356C23.9941 19.4356 24.6618 19.8015 25.2743 20.3113C25.7645 19.8178 25.7236 19.7475 26.9709 18.5617C25.9121 17.5914 24.5047 17 22.9602 17C19.6684 17 17 19.6863 17 23C17 26.3137 19.6684 29 22.9602 29C27.8804 29 29.083 24.6871 28.6843 21.8119H22.9602Z" fill="#8181A5" />
</svg>
