<?xml version="1.0" encoding="utf-8"?>
<!-- Generator: Adobe Illustrator 26.0.0, SVG Export Plug-In . SVG Version: 6.00 Build 0)  -->
<svg version="1.1" id="Layer_1" xmlns="http://www.w3.org/2000/svg" xmlns:xlink="http://www.w3.org/1999/xlink" x="0px" y="0px"
	 viewBox="0 0 302 268.7" style="enable-background:new 0 0 302 268.7;" xml:space="preserve">
<style type="text/css">
	.st0{clip-path:url(#SVGID_00000009571005673694717170000004466717756924722828_);}
	.st1{fill-rule:evenodd;clip-rule:evenodd;fill:#4B40D1;}
	.st2{fill-rule:evenodd;clip-rule:evenodd;fill:#1E55A9;}
	.st3{fill-rule:evenodd;clip-rule:evenodd;fill:#3E4244;}
	.st4{fill:#FFFFFF;}
	.st5{fill:#ECF0F3;}
	.st6{fill:#3E4244;}
</style>
<g>
	<g>
		<defs>
			
				<rect id="SVGID_1_" x="12" y="46.1" transform="matrix(0.2588 -0.9659 0.9659 0.2588 -47.5481 268.1495)" width="278" height="238"/>
		</defs>
		<clipPath id="SVGID_00000033338400601421328700000012701461553355989411_">
			<use xlink:href="#SVGID_1_"  style="overflow:visible;"/>
		</clipPath>
		<g style="clip-path:url(#SVGID_00000033338400601421328700000012701461553355989411_);">
			<path class="st1" d="M229.6,187.3c14.2-53.1-17.5-108.2-70.7-122.4C105,50.5,50,82.3,35.7,135.4c-14.5,54,17.3,109,71.3,123.5
				C160.1,273.1,215.2,241.3,229.6,187.3z"/>
			<path class="st2" d="M195.9,241.7c32.5-25.3,47.2-69.4,33.7-111.1c-17.3-53.2-74-82.4-126.8-65.3c-11.7,3.8-22.3,9.6-31.4,16.8
				l62.7,79.5L195.9,241.7z"/>
			<path class="st3" d="M221.9,209.9c3.9-7.1,7-14.7,9.2-22.9c14.3-53.4-17.7-108.8-71.1-123.1C105.6,49.4,50.2,81.3,35.9,134.7
				c-0.1,0.5-0.3,1-0.4,1.5l98,24.6L221.9,209.9z"/>
		</g>
	</g>
</g>
<path class="st4" d="M133.5,88.7L133.5,88.7c40.6,0,73.5,32.9,73.5,73.5l0,0c0,40.6-32.9,73.5-73.5,73.5l0,0
	c-40.6,0-73.5-32.9-73.5-73.5l0,0C60,121.6,92.9,88.7,133.5,88.7z"/>
<path class="st5" d="M133.5,88.7L133.5,88.7c40.6,0,73.5,32.9,73.5,73.5l0,0c0,40.6-32.9,73.5-73.5,73.5l0,0
	c-40.6,0-73.5-32.9-73.5-73.5l0,0C60,121.6,92.9,88.7,133.5,88.7z"/>
<g>
	<path class="st4" d="M134.5,101.7L134.5,101.7c34,0,61.5,27.5,61.5,61.5l0,0c0,34-27.5,61.5-61.5,61.5l0,0
		c-34,0-61.5-27.5-61.5-61.5l0,0C73,129.2,100.5,101.7,134.5,101.7z"/>
	<path class="st5" d="M134.5,101.7L134.5,101.7c34,0,61.5,27.5,61.5,61.5l0,0c0,34-27.5,61.5-61.5,61.5l0,0
		c-34,0-61.5-27.5-61.5-61.5l0,0C73,129.2,100.5,101.7,134.5,101.7z"/>
</g>
<path class="st6" d="M114.6,167.7v-2.1h-5.7v-2l4.1-8.8h2.5l-4.1,8.8h3.3v-3.4h2.2v3.4h1.2v2h-1.2v2.1H114.6z M124.9,168
	c-0.9,0-1.7-0.2-2.4-0.6c-0.7-0.4-1.3-0.9-1.6-1.6c-0.4-0.7-0.6-1.5-0.6-2.4v-4.2c0-0.9,0.2-1.7,0.6-2.4s0.9-1.2,1.6-1.6
	c0.7-0.4,1.5-0.6,2.4-0.6s1.7,0.2,2.4,0.6c0.7,0.4,1.3,0.9,1.6,1.6c0.4,0.7,0.6,1.5,0.6,2.4v4.2c0,0.9-0.2,1.7-0.6,2.4
	c-0.4,0.7-0.9,1.3-1.6,1.6C126.6,167.8,125.8,168,124.9,168z M124.9,165.9c0.5,0,0.9-0.1,1.2-0.3c0.4-0.2,0.7-0.5,0.9-0.9
	c0.2-0.4,0.3-0.8,0.3-1.2V159c0-0.5-0.1-0.9-0.3-1.2c-0.2-0.4-0.5-0.7-0.9-0.9s-0.8-0.3-1.2-0.3s-0.9,0.1-1.2,0.3
	c-0.4,0.2-0.7,0.5-0.9,0.9c-0.2,0.4-0.3,0.8-0.3,1.2v4.5c0,0.5,0.1,0.9,0.3,1.2c0.2,0.4,0.5,0.7,0.9,0.9
	C124,165.8,124.4,165.9,124.9,165.9z M136.7,168c-0.9,0-1.7-0.2-2.4-0.6c-0.7-0.4-1.3-0.9-1.6-1.6c-0.4-0.7-0.6-1.5-0.6-2.4v-4.2
	c0-0.9,0.2-1.7,0.6-2.4c0.4-0.7,0.9-1.2,1.6-1.6c0.7-0.4,1.5-0.6,2.4-0.6s1.7,0.2,2.4,0.6c0.7,0.4,1.3,0.9,1.6,1.6s0.6,1.5,0.6,2.4
	v4.2c0,0.9-0.2,1.7-0.6,2.4c-0.4,0.7-0.9,1.3-1.6,1.6C138.4,167.8,137.6,168,136.7,168z M136.7,165.9c0.5,0,0.9-0.1,1.2-0.3
	c0.4-0.2,0.7-0.5,0.9-0.9s0.3-0.8,0.3-1.2V159c0-0.5-0.1-0.9-0.3-1.2c-0.2-0.4-0.5-0.7-0.9-0.9s-0.8-0.3-1.2-0.3
	c-0.5,0-0.9,0.1-1.2,0.3c-0.4,0.2-0.7,0.5-0.9,0.9s-0.3,0.8-0.3,1.2v4.5c0,0.5,0.1,0.9,0.3,1.2c0.2,0.4,0.5,0.7,0.9,0.9
	C135.9,165.8,136.3,165.9,136.7,165.9z M143.5,167.7v-1.9l5.5-4.9c0.4-0.4,0.7-0.7,0.9-1.1c0.2-0.3,0.3-0.7,0.3-1
	c0-0.4-0.1-0.8-0.3-1.2c-0.2-0.3-0.4-0.6-0.8-0.8c-0.3-0.2-0.7-0.3-1.1-0.3c-0.4,0-0.8,0.1-1.2,0.3c-0.3,0.2-0.6,0.5-0.8,0.8
	s-0.3,0.7-0.3,1.1h-2.2c0-0.9,0.2-1.6,0.6-2.3c0.4-0.6,0.9-1.1,1.6-1.5c0.7-0.4,1.5-0.5,2.4-0.5c0.8,0,1.6,0.2,2.2,0.6
	c0.7,0.4,1.2,0.9,1.6,1.5c0.4,0.6,0.6,1.4,0.6,2.2c0,0.6-0.1,1.1-0.3,1.6c-0.2,0.4-0.4,0.8-0.8,1.2c-0.3,0.4-0.7,0.7-1.2,1.2
	l-3.9,3.5l-0.2-0.5h6.4v2L143.5,167.7L143.5,167.7z M158,169.5v-2.1h2.2v2.1H158z M158,155.1V153h2.2v2.1H158z M159.2,168
	c-0.9,0-1.7-0.2-2.4-0.5s-1.3-0.8-1.8-1.4c-0.5-0.6-0.7-1.3-0.9-2.2l2.1-0.3c0.2,0.7,0.5,1.3,1.1,1.8c0.6,0.4,1.2,0.6,2,0.6
	c0.7,0,1.4-0.2,1.8-0.5c0.5-0.4,0.7-0.8,0.7-1.3c0-0.4-0.1-0.7-0.3-0.9s-0.6-0.4-1.1-0.6l-3.1-1c-1.8-0.6-2.7-1.7-2.7-3.3
	c0-0.8,0.2-1.4,0.5-2c0.4-0.6,0.9-1,1.6-1.3c0.7-0.3,1.5-0.5,2.4-0.5c0.8,0,1.6,0.2,2.3,0.5s1.2,0.7,1.7,1.3c0.4,0.6,0.8,1.2,0.9,2
	l-2.2,0.4c-0.1-0.4-0.2-0.8-0.5-1.1c-0.2-0.3-0.6-0.6-0.9-0.8c-0.4-0.2-0.8-0.3-1.2-0.3s-0.8,0.1-1.2,0.2c-0.3,0.1-0.6,0.3-0.8,0.6
	s-0.3,0.5-0.3,0.9s0.1,0.7,0.4,0.9c0.3,0.3,0.7,0.5,1.4,0.6l2.3,0.7c1.1,0.3,1.9,0.8,2.4,1.3c0.5,0.6,0.7,1.3,0.7,2.2
	c0,0.8-0.2,1.5-0.6,2.1c-0.4,0.6-1,1.1-1.7,1.4C161,167.8,160.1,168,159.2,168z"/>
</svg>
