<?xml version="1.0" encoding="utf-8"?>
<!-- Generator: Adobe Illustrator 26.0.0, SVG Export Plug-In . SVG Version: 6.00 Build 0)  -->
<svg version="1.1" id="Layer_1" xmlns="http://www.w3.org/2000/svg" xmlns:xlink="http://www.w3.org/1999/xlink" x="0px" y="0px"
	 viewBox="0 0 278 210" style="enable-background:new 0 0 278 210;" xml:space="preserve">
<style type="text/css">
	.st0{clip-path:url(#SVGID_00000149362545543506301430000004552519144604041607_);}
	.st1{fill-rule:evenodd;clip-rule:evenodd;fill:#4B40D1;}
	.st2{fill-rule:evenodd;clip-rule:evenodd;fill:#FFFFFF;filter:url(#Adobe_OpacityMaskFilter);}
	.st3{mask:url(#mask0_0_2236_00000152984305393080357480000007012857987987878830_);}
	.st4{fill-rule:evenodd;clip-rule:evenodd;fill:#1E55A9;}
	.st5{fill-rule:evenodd;clip-rule:evenodd;fill:#ECA0A0;}
	.st6{fill:#FFFFFF;}
	.st7{fill:#ECF0F3;}
	.st8{fill:#3E4244;}
</style>
<g>
	<defs>
		<rect id="SVGID_1_" y="0.3" width="278" height="238"/>
	</defs>
	<clipPath id="SVGID_00000112595505090949235920000009284508784405282482_">
		<use xlink:href="#SVGID_1_"  style="overflow:visible;"/>
	</clipPath>
	<g style="clip-path:url(#SVGID_00000112595505090949235920000009284508784405282482_);">
		<path class="st1" d="M137.8,201.1c55,0,99.9-44.9,99.9-99.9c0-55.9-44.9-100.8-99.9-100.8C81.9,0.3,37,45.3,37,101.2
			C37,156.1,81.9,201.1,137.8,201.1z"/>
		<defs>
			<filter id="Adobe_OpacityMaskFilter" filterUnits="userSpaceOnUse">
				<feColorMatrix  type="matrix" values="1 0 0 0 0  0 1 0 0 0  0 0 1 0 0  0 0 0 1 0"/>
			</filter>
		</defs>
		<mask maskUnits="userSpaceOnUse" id="mask0_0_2236_00000152984305393080357480000007012857987987878830_">
			<path class="st2" d="M137.8,201.1c55,0,99.9-44.9,99.9-99.9c0-55.9-44.9-100.8-99.9-100.8C81.9,0.3,37,45.3,37,101.2
				C37,156.1,81.9,201.1,137.8,201.1z"/>
		</mask>
		<g class="st3">
		</g>
		<path class="st4" d="M76.6,182.6c32.9,24.8,79.3,27.7,116.1,3.8c46.9-30.5,60.4-92.8,30.2-139.3c-6.7-10.3-15-19-24.4-25.9
			l-60.6,81.2L76.6,182.6z"/>
		<path class="st5" d="M114,199.4c7.8,1.9,16,3,24.5,3c55.3,0,100.5-45.2,100.5-100.6C239,45.6,193.8,0.3,138.5,0.3
			c-0.5,0-1,0-1.6,0l1.6,101L114,199.4z"/>
	</g>
</g>
<path class="st6" d="M139.5,30L139.5,30c40.6,0,73.5,32.9,73.5,73.5l0,0c0,40.6-32.9,73.5-73.5,73.5l0,0C98.9,177,66,144.1,66,103.5
	l0,0C66,62.9,98.9,30,139.5,30z"/>
<path class="st7" d="M139.5,30L139.5,30c40.6,0,73.5,32.9,73.5,73.5l0,0c0,40.6-32.9,73.5-73.5,73.5l0,0C98.9,177,66,144.1,66,103.5
	l0,0C66,62.9,98.9,30,139.5,30z"/>
<g>
	<path class="st6" d="M140.5,43L140.5,43c34,0,61.5,27.5,61.5,61.5l0,0c0,34-27.5,61.5-61.5,61.5l0,0c-34,0-61.5-27.5-61.5-61.5l0,0
		C79,70.5,106.5,43,140.5,43z"/>
	<path class="st7" d="M140.5,43L140.5,43c34,0,61.5,27.5,61.5,61.5l0,0c0,34-27.5,61.5-61.5,61.5l0,0c-34,0-61.5-27.5-61.5-61.5l0,0
		C79,70.5,106.5,43,140.5,43z"/>
</g>
<path class="st8" d="M119.1,109.3c-0.7,0-1.3-0.1-1.8-0.4c-0.6-0.3-1.1-0.7-1.5-1.1c-0.4-0.5-0.7-1-0.9-1.7l2.1-0.6
	c0.1,0.3,0.2,0.6,0.5,0.9c0.2,0.3,0.5,0.4,0.8,0.6c0.3,0.1,0.6,0.2,0.9,0.2c0.4,0,0.8-0.1,1.2-0.3c0.3-0.2,0.6-0.5,0.8-0.8
	c0.2-0.3,0.3-0.7,0.3-1.2s-0.1-0.8-0.3-1.1c-0.2-0.3-0.5-0.6-0.8-0.8c-0.3-0.2-0.7-0.3-1.1-0.3c-0.5,0-0.9,0.1-1.2,0.3
	c-0.3,0.2-0.6,0.4-0.7,0.6l-1.9-0.6l0.4-6.9h7v2h-5.9l0.8-0.8l-0.3,4.8l-0.4-0.5c0.3-0.3,0.7-0.5,1.2-0.7c0.4-0.1,0.9-0.2,1.3-0.2
	c0.8,0,1.5,0.2,2.2,0.6c0.6,0.4,1.1,0.9,1.5,1.5c0.4,0.6,0.5,1.4,0.5,2.2c0,0.8-0.2,1.5-0.6,2.2c-0.4,0.7-1,1.2-1.7,1.6
	C120.7,109.1,119.9,109.3,119.1,109.3z M128.1,109V98.4l-2.4,1.5v-2.4l2.4-1.5h2.2v13H128.1z M138.4,109.3c-0.9,0-1.7-0.2-2.4-0.6
	c-0.7-0.4-1.3-0.9-1.6-1.6c-0.4-0.7-0.6-1.5-0.6-2.4v-4.2c0-0.9,0.2-1.7,0.6-2.4c0.4-0.7,0.9-1.2,1.6-1.6c0.7-0.4,1.5-0.6,2.4-0.6
	c0.9,0,1.7,0.2,2.4,0.6c0.7,0.4,1.3,0.9,1.6,1.6c0.4,0.7,0.6,1.5,0.6,2.4v4.2c0,0.9-0.2,1.7-0.6,2.4c-0.4,0.7-0.9,1.3-1.6,1.6
	C140.1,109.1,139.3,109.3,138.4,109.3z M138.4,107.2c0.5,0,0.9-0.1,1.2-0.3c0.4-0.2,0.7-0.5,0.9-0.9c0.2-0.4,0.3-0.8,0.3-1.2v-4.5
	c0-0.5-0.1-0.9-0.3-1.2c-0.2-0.4-0.5-0.7-0.9-0.9c-0.4-0.2-0.8-0.3-1.2-0.3c-0.5,0-0.9,0.1-1.2,0.3c-0.4,0.2-0.7,0.5-0.9,0.9
	c-0.2,0.4-0.3,0.8-0.3,1.2v4.5c0,0.5,0.1,0.9,0.3,1.2c0.2,0.4,0.5,0.7,0.9,0.9C137.5,107.1,137.9,107.2,138.4,107.2z M145.2,109
	v-1.9l5.5-4.9c0.4-0.4,0.7-0.7,0.9-1.1c0.2-0.3,0.3-0.7,0.3-1c0-0.4-0.1-0.8-0.3-1.2c-0.2-0.3-0.4-0.6-0.8-0.8
	c-0.3-0.2-0.7-0.3-1.1-0.3c-0.4,0-0.8,0.1-1.2,0.3c-0.3,0.2-0.6,0.5-0.8,0.8c-0.2,0.3-0.3,0.7-0.3,1.1h-2.2c0-0.9,0.2-1.6,0.6-2.3
	c0.4-0.6,0.9-1.1,1.6-1.5c0.7-0.4,1.5-0.5,2.4-0.5c0.8,0,1.6,0.2,2.2,0.6c0.7,0.4,1.2,0.9,1.6,1.5c0.4,0.6,0.6,1.4,0.6,2.2
	c0,0.6-0.1,1.1-0.3,1.6s-0.4,0.8-0.8,1.2c-0.3,0.4-0.7,0.7-1.2,1.2l-3.9,3.5l-0.2-0.5h6.4v2H145.2z M159.7,110.8v-2.1h2.2v2.1H159.7
	z M159.7,96.4v-2.1h2.2v2.1H159.7z M160.8,109.3c-0.9,0-1.7-0.2-2.4-0.5s-1.3-0.8-1.8-1.4c-0.5-0.6-0.7-1.3-0.9-2.2l2.1-0.3
	c0.2,0.7,0.5,1.3,1.1,1.8c0.6,0.4,1.2,0.6,2,0.6c0.7,0,1.4-0.2,1.8-0.5c0.5-0.4,0.7-0.8,0.7-1.3c0-0.4-0.1-0.7-0.3-0.9
	c-0.2-0.2-0.6-0.4-1.1-0.6l-3.1-1c-1.8-0.6-2.7-1.7-2.7-3.3c0-0.8,0.2-1.4,0.5-2c0.4-0.6,0.9-1,1.6-1.3c0.7-0.3,1.5-0.5,2.4-0.5
	c0.8,0,1.6,0.2,2.3,0.5c0.7,0.3,1.2,0.7,1.7,1.3c0.4,0.6,0.8,1.2,0.9,2l-2.2,0.4c-0.1-0.4-0.2-0.8-0.5-1.1c-0.2-0.3-0.6-0.6-0.9-0.8
	c-0.4-0.2-0.8-0.3-1.2-0.3c-0.4,0-0.8,0.1-1.2,0.2c-0.3,0.1-0.6,0.3-0.8,0.6c-0.2,0.3-0.3,0.5-0.3,0.9c0,0.4,0.1,0.7,0.4,0.9
	c0.3,0.3,0.7,0.5,1.4,0.6l2.3,0.7c1.1,0.3,1.9,0.8,2.4,1.3c0.5,0.6,0.7,1.3,0.7,2.2c0,0.8-0.2,1.5-0.6,2.1c-0.4,0.6-1,1.1-1.7,1.4
	C162.6,109.1,161.8,109.3,160.8,109.3z"/>
</svg>
