<svg width="17" height="21" viewBox="0 0 17 21" fill="none" xmlns="http://www.w3.org/2000/svg">
<path d="M8.87504 11.6001C10.2936 11.6001 11.6545 11.0358 12.6577 10.0328L5.09238 2.46655C4.0884 3.4697 3.525 4.83064 3.525 6.25006C3.525 7.66865 4.08842 9.02951 5.0924 10.0328C6.0955 11.0359 7.45642 11.6001 8.87504 11.6001ZM12.6577 10.0327C13.6617 9.02959 14.2251 7.66865 14.2251 6.25006C14.2251 4.83068 13.6617 3.46981 12.6577 2.46655C11.6546 1.46341 10.2936 0.9 8.87504 0.9C7.45645 0.9 6.09564 1.46341 5.0924 2.46652L12.6577 10.0327ZM8.87504 2.84982C9.77709 2.84982 10.6417 3.20841 11.2792 3.84592C11.9167 4.48344 12.2753 5.34806 12.2753 6.25006C12.2753 7.15131 11.9167 8.01674 11.2792 8.6542C10.6417 9.29163 9.77711 9.64948 8.87504 9.64948C7.97297 9.64948 7.10833 9.29167 6.4709 8.6542C5.83344 8.01669 5.4748 7.15126 5.4748 6.25006C5.4748 5.34801 5.83339 4.4834 6.4709 3.84593C7.10842 3.20845 7.97304 2.84982 8.87504 2.84982Z" fill="url(#paint0_linear_2238_7454)" stroke="url(#paint1_linear_2238_7454)" stroke-width="0.2"/>
<path d="M12.3752 13.1499H5.37464C4.1882 13.1499 3.04964 13.6214 2.21062 14.4605C1.37161 15.2996 0.9 16.4382 0.9 17.6245C0.9 19.1301 2.12031 20.3495 3.625 20.3495H14.125C15.6297 20.3495 16.85 19.1301 16.85 17.6245C16.85 16.4381 16.3785 15.2995 15.5394 14.4605C14.7003 13.6215 13.5617 13.1499 12.3754 13.1499H12.3752ZM14.1249 18.3999H3.62492C3.19698 18.3999 2.84964 18.0525 2.84964 17.6246C2.84964 16.2303 3.98038 15.0996 5.37464 15.0996H12.3752C13.7695 15.0996 14.9002 16.2303 14.9002 17.6246C14.9002 17.8302 14.8181 18.0279 14.6727 18.1732C14.5274 18.3185 14.3306 18.3999 14.1249 18.3999Z" fill="url(#paint2_linear_2238_7454)" stroke="url(#paint3_linear_2238_7454)" stroke-width="0.2"/>
<defs>
<linearGradient id="paint0_linear_2238_7454" x1="3.4945" y1="6.22898" x2="14.1236" y2="6.22898" gradientUnits="userSpaceOnUse">
<stop stop-color="#1E55A9"/>
<stop offset="0.98" stop-color="#2BBFC7"/>
</linearGradient>
<linearGradient id="paint1_linear_2238_7454" x1="3.4945" y1="6.22898" x2="14.1236" y2="6.22898" gradientUnits="userSpaceOnUse">
<stop stop-color="#1E55A9"/>
<stop offset="0.98" stop-color="#2BBFC7"/>
</linearGradient>
<linearGradient id="paint2_linear_2238_7454" x1="0.804255" y1="16.7356" x2="16.7478" y2="16.7356" gradientUnits="userSpaceOnUse">
<stop stop-color="#1E55A9"/>
<stop offset="0.98" stop-color="#2BBFC7"/>
</linearGradient>
<linearGradient id="paint3_linear_2238_7454" x1="0.804255" y1="16.7356" x2="16.7478" y2="16.7356" gradientUnits="userSpaceOnUse">
<stop stop-color="#1E55A9"/>
<stop offset="0.98" stop-color="#2BBFC7"/>
</linearGradient>
</defs>
</svg>
