<?xml version="1.0" encoding="utf-8"?>
<!-- Generator: Adobe Illustrator 23.0.1, SVG Export Plug-In . SVG Version: 6.00 Build 0)  -->
<svg version="1.1" id="Layer_1" xmlns="http://www.w3.org/2000/svg" xmlns:xlink="http://www.w3.org/1999/xlink" x="0px" y="0px"
	 viewBox="0 0 656.8 900" style="enable-background:new 0 0 656.8 900;" xml:space="preserve">
<style type="text/css">
	.st0{fill:#4ACBD3;}
	.st1{opacity:0.2;}
	.st2{fill:#FFFFFF;}
	.st3{fill:#4DD5DE;fill-opacity:8.000000e-02;}
	.st4{fill:#AAABB0;}
	.st5{fill:#33323D;}
	.st6{fill:#444053;}
	.st7{fill:#3E4244;}
	.st8{fill:#ECA0A0;}
	.st9{fill:#4E4CD6;fill-opacity:7.000000e-02;}
	.st10{opacity:0.1;enable-background:new    ;}
	.st11{fill:#F2DEB7;fill-opacity:0.25;}
	.st12{opacity:0.5;fill:#4B40D1;enable-background:new    ;}
	.st13{fill:#4B40D1;}
	.st14{opacity:0.1;}
	.st15{fill:#FF808B;fill-opacity:8.000000e-02;}
	.st16{fill:#464A5F;}
	.st17{fill:#9C9CA1;}
	.st18{fill:#939498;}
</style>
<rect x="2.8" y="0.1" class="st0" width="654" height="900"/>
<g class="st1">
	<path class="st2" d="M126.3,363.2c-22.6,18.4-44.4,38.9-58.1,64.9c-20.2,38.1-19.9,86.1,0.8,121.5c17.5,30,47.1,49.5,72.4,72.7
		c31.2,28.5,56.4,63.3,80.3,98.7c12.8,19,25.8,38.7,44.5,51.4c26,17.7,61.1,19.4,91.7,8.1c30.6-11.3,56.9-34.7,75.7-62.6
		c10-14.8,18.3-31.5,19.5-49.1c1.3-18.6-5.5-36.6-4.1-55.2c1.3-17.3,9.5-33.6,19.1-48.2c12.5-19.2,27.7-36.4,45-51.4
		c19.7-16.9,41.8-30.4,61.5-47.1c19.7-16.8,37.6-38,43.8-63.2c5.8-23.7,0.7-48-5.5-70.9c-10.1-37.3-23.2-73.8-39.2-109
		c-10.7-23.6-23-46.9-41-64.9c-34.4-34.5-89.1-45.9-136.3-28.3c-39.1,14.6-70.8,46.2-98,79.4c-24.8,30.2-47.5,68.6-79.7,91.1
		C188.1,322.4,155.7,339.2,126.3,363.2z"/>
	<path class="st3" d="M126.3,363.2c-22.6,18.4-44.4,38.9-58.1,64.9c-20.2,38.1-19.9,86.1,0.8,121.5c17.5,30,47.1,49.5,72.4,72.7
		c31.2,28.5,56.4,63.3,80.3,98.7c12.8,19,25.8,38.7,44.5,51.4c26,17.7,61.1,19.4,91.7,8.1c30.6-11.3,56.9-34.7,75.7-62.6
		c10-14.8,18.3-31.5,19.5-49.1c1.3-18.6-5.5-36.6-4.1-55.2c1.3-17.3,9.5-33.6,19.1-48.2c12.5-19.2,27.7-36.4,45-51.4
		c19.7-16.9,41.8-30.4,61.5-47.1c19.7-16.8,37.6-38,43.8-63.2c5.8-23.7,0.7-48-5.5-70.9c-10.1-37.3-23.2-73.8-39.2-109
		c-10.7-23.6-23-46.9-41-64.9c-34.4-34.5-89.1-45.9-136.3-28.3c-39.1,14.6-70.8,46.2-98,79.4c-24.8,30.2-47.5,68.6-79.7,91.1
		C188.1,322.4,155.7,339.2,126.3,363.2z"/>
</g>
<g class="st1">
	<path class="st2" d="M874.5,584.3c36.3-22.8,71.9-49,96.6-84.4c36.3-52.1,44.5-122.3,20.6-177.7c-20.3-47-60-80.8-92.8-119.2
		c-40.4-47.3-71.1-102.6-99.6-158.6c-15.3-30.1-30.7-61.2-55.8-83.1C708.6-69.2,657.6-78.1,610.9-67C564.1-55.9,521.5-26.4,489,10.8
		c-17.3,19.8-32.4,42.8-37.3,68.3c-5.2,27,1.4,54.5-4,81.4c-5,25-19.9,47.3-36.6,67.1c-21.7,25.7-47,48.3-75,67
		c-31.8,21.2-66.6,36.9-98.4,57.8c-31.8,20.9-61.7,48.7-75.3,84.5c-12.7,33.6-9.7,70.1-4.7,104.6c8,56.4,20.7,112,37.7,166.3
		c11.5,36.4,25.2,72.6,48.2,102.2c44,56.6,121.9,83,194.1,65.8c59.8-14.3,111.7-54.9,157.4-98.4C637,737.8,677,685.7,728,658.7
		C776.8,632.9,827.1,614.1,874.5,584.3z"/>
	<path class="st3" d="M874.5,584.3c36.3-22.8,71.9-49,96.6-84.4c36.3-52.1,44.5-122.3,20.6-177.7c-20.3-47-60-80.8-92.8-119.2
		c-40.4-47.3-71.1-102.6-99.6-158.6c-15.3-30.1-30.7-61.2-55.8-83.1C708.6-69.2,657.6-78.1,610.9-67C564.1-55.9,521.5-26.4,489,10.8
		c-17.3,19.8-32.4,42.8-37.3,68.3c-5.2,27,1.4,54.5-4,81.4c-5,25-19.9,47.3-36.6,67.1c-21.7,25.7-47,48.3-75,67
		c-31.8,21.2-66.6,36.9-98.4,57.8c-31.8,20.9-61.7,48.7-75.3,84.5c-12.7,33.6-9.7,70.1-4.7,104.6c8,56.4,20.7,112,37.7,166.3
		c11.5,36.4,25.2,72.6,48.2,102.2c44,56.6,121.9,83,194.1,65.8c59.8-14.3,111.7-54.9,157.4-98.4C637,737.8,677,685.7,728,658.7
		C776.8,632.9,827.1,614.1,874.5,584.3z"/>
</g>
<path class="st4" d="M353.8,595.8v24.2h7l-1.4-26L353.8,595.8L353.8,595.8z"/>
<path class="st4" d="M253.8,591.8v24.2h7l-1.4-26L253.8,591.8L253.8,591.8z"/>
<path class="st4" d="M366.3,553.1L366.3,553.1c2.5,0,4.5,2,4.5,4.5v33c0,2.5-2,4.5-4.5,4.5l0,0c-2.5,0-4.5-2-4.5-4.5v-33
	C361.8,555.1,363.8,553.1,366.3,553.1z"/>
<path class="st4" d="M255.3,544.1L255.3,544.1c2.5,0,4.5,2,4.5,4.5v43c0,2.5-2,4.5-4.5,4.5l0,0c-2.5,0-4.5-2-4.5-4.5v-43
	C250.8,546.1,252.8,544.1,255.3,544.1z"/>
<path class="st4" d="M382.8,300.7c0,0,8.7-3.7,10,0c1.3,3.7,2,35.4,2,35.4h-8.3L382.8,300.7z"/>
<path class="st4" d="M286.8,300.7c0,0-8.7-3.7-10,0c-1.3,3.7-2,35.4-2,35.4h8.3L286.8,300.7z"/>
<path class="st4" d="M288.1,268.7l-1.3,27.3h6v-28L288.1,268.7L288.1,268.7z"/>
<path class="st5" d="M282.8,337.1l1.7-38.6c0,0-0.7-8.5,20-5.9c20.7,2.6,81.2,7.9,81.2,7.9v36.6H282.8z"/>
<path class="st5" d="M365.8,537.8l-3.3,58.2c0,0-48.2,26.4-106.7,1.3l5.3-61.2L365.8,537.8z"/>
<path class="st6" d="M319.8,307.2l1.1,37.8h67.9l-3.9-50L319.8,307.2L319.8,307.2z"/>
<rect x="263.8" y="513.1" class="st7" width="63" height="80"/>
<path class="st8" d="M303.8,545.5c0,0,9.2-7.2,10.8-5s-5.5,11.6-8.3,10.5C303.4,549.9,303.8,545.5,303.8,545.5z"/>
<g>
	<path class="st2" d="M143.8,334.1h409c2.2,0,4,1.8,4,4v200c0,2.2-1.8,4-4,4h-409c-2.2,0-4-1.8-4-4v-200
		C139.8,335.8,141.6,334.1,143.8,334.1z"/>
	<path class="st9" d="M143.8,334.1h409c2.2,0,4,1.8,4,4v200c0,2.2-1.8,4-4,4h-409c-2.2,0-4-1.8-4-4v-200
		C139.8,335.8,141.6,334.1,143.8,334.1z"/>
</g>
<path class="st5" d="M283.2,266.6c0,0-3.3-30.4,0-34.1c3.3-3.7,58-38.7,108.5,2.4c0,0,4.8,0.2,3.9,11.1c-0.5,6.9-0.5,13.8,0.1,20.6
	C395.8,266.6,286.9,274.4,283.2,266.6z"/>
<path class="st10" d="M283.2,266.6c0,0-3.3-30.4,0-34.1c3.3-3.7,58-38.7,108.5,2.4c0,0,4.8,0.2,3.9,11.1c-0.5,6.9-0.5,13.8,0.1,20.6
	C395.8,266.6,286.9,274.4,283.2,266.6z"/>
<path class="st5" d="M283.2,271.6c0,0-3.3-30.4,0-34.1c3.3-3.7,58-38.7,108.5,2.4c0,0,4.8,0.2,3.9,11.1c-0.5,6.9-0.5,13.8,0.1,20.6
	C395.8,271.6,286.9,279.4,283.2,271.6z"/>
<path class="st8" d="M398.1,257.1c0,0,3.5,13.1,2.4,15.3c-1.1,2.2-0.9,8.3-0.9,8.3s0.2,3.9-1.5,4.4c-1.8,0.4-3.3,0.7-1.9,2
	c1.4,1.3,0,3.3,0,3.3s-0.8,3.1,0,5c0.8,2-4.5,2.8-4.1,5.2c0.4,2.5,1.9,9.4,0,9.6c-1.9,0.2,0.7,8.7-1.1,8.7c-1.7,0-3,15.3-3,15.3
	s-12.2-10.2-20.4-7.4c0,0,0.7-8.5,3.3-11.6c2.6-3.1,1.8-10.9,1.8-10.9l13.1-39L398.1,257.1z"/>
<path class="st2" d="M333.2,436.7c-2.8,3.1-5.8-13.4-5.8-13.4s-7.9,11-13,3.7c-3.5-5.1-0.7-19.4,1.3-27.7c0.9-3.7,1.7-6.2,1.7-6.2
	l11.5-1.9c0,0,0,2.5,0.3,5.6c0.3,4.1,1.1,9.3,2.7,10.5C334.7,409.3,336,433.6,333.2,436.7z"/>
<path class="st11" d="M333.2,436.7c-2.8,3.1-5.8-13.4-5.8-13.4s-7.9,11-13,3.7c-3.5-5.1-0.7-19.4,1.3-27.7c0.9-3.7,1.7-6.2,1.7-6.2
	l11.5-1.9c0,0,0,2.5,0.3,5.6c0.3,4.1,1.1,9.3,2.7,10.5C334.7,409.3,336,433.6,333.2,436.7z"/>
<path class="st10" d="M326.6,242.1c0,0-20.5-0.2-25.5,10.6c-5,10.8-5.2,14.5-7.2,16.2c-2,1.7,21.3,10.8,21.3,10.8l1.1,37.3
	c0,0,4.6-4.6,12-2.5s16.8,0,16.8,0s-0.4-0.8,5.7,0c6.1,0.8,25.5-9.4,25.5-9.4s0.3-16.3-0.1-19.8c-0.4-3.5,13.8-29,13.8-29
	s11.1-10.6-0.4-14.3c0,0-4.1-6.1-14.6-6.1C364.4,236.1,326.6,242.1,326.6,242.1z"/>
<path class="st8" d="M327.5,241.1c0,0-20.5-0.2-25.5,10.6c-5,10.8-5.2,14.5-7.2,16.2c-2,1.7,21.3,10.8,21.3,10.8l1.1,37.3
	c0,0,4.6-4.6,12-2.5c7.4,2.1,16.8,0,16.8,0s-0.4-0.8,5.7,0s25.5-9.4,25.5-9.4s7.6-12.3,7.2-15.8c-0.4-3.5,15.2-29.7,15.2-29.7
	s2.4-13.9-9.1-17.5c0,0-4.1-6.1-14.6-6.1C365.3,235.1,327.5,241.1,327.5,241.1z"/>
<path class="st10" d="M328.8,396.5c-4.2-1.4-10.9,1.6-13,2.5c0.9-3.6,1.6-6.1,1.6-6.1l11.1-1.9C328.5,391.1,328.5,393.5,328.8,396.5
	z"/>
<path class="st8" d="M301.7,268.1h-6.3c0,0-1.3,13.3,0,17.2c1.3,3.9,2,3.4,1.5,6.3c-0.4,2.9,3,7.3,3,7.3s0.4,11,2.6,15
	c2.2,4.1-2.4,22.4-2.4,22.4c1.2,3.2,3.1,6,5.4,8.5c3.7,3.7,5.7,17.4,4.6,22.7c-1.1,5.2,3,7.2,3,7.2s1.7,24.4,2.4,24.4
	c0.7,0,13.3-6.5,17.2-0.9l-3-22.4l0.2-43.4c0,0-4.1-5.5-2-10.2c2.2-4.8-1.7-16.1-1.7-16.1l-5.7-25.3L301.7,268.1z"/>
<path class="st5" d="M261.4,611.9c0,0-9.1-2-9.4,0c-0.2,2-10.9,22,2.4,27.9c13.3,5.9,48.7,18.5,106.4,2.2c0,0,3.7,1.3,2.8-6.8
	c-0.9-8.1-0.9-17-0.9-17s-8.7-2.4-15.2-1.5C341,617.6,284.2,629.1,261.4,611.9z"/>
<path class="st10" d="M261.4,611.9c0,0-9.1-2-9.4,0c-0.2,2-10.9,22,2.4,27.9c13.3,5.9,48.7,18.5,106.4,2.2c0,0,3.7,1.3,2.8-6.8
	c-0.9-8.1-0.9-17-0.9-17s-8.7-2.4-15.2-1.5C341,617.6,284.2,629.1,261.4,611.9z"/>
<path class="st5" d="M261.4,608.9c0,0-9.1-2-9.4,0c-0.2,2-10.9,22,2.4,27.9c13.3,5.9,48.7,18.5,106.4,2.2c0,0,3.7,1.3,2.8-6.8
	c-0.9-8.1-0.9-17-0.9-17s-8.7-2.4-15.2-1.5C341,614.6,284.2,626.1,261.4,608.9z"/>
<path class="st6" d="M314.8,276.3c-0.6,3.2-1.8,6.2-2,9.4c-0.2,3.2,1.1,6.9,4,8.1c0.8,0.2,1.6,0.6,2.4,1c1.1,0.8,1.6,2.2,1.9,3.6
	c0.3,1.8,0.4,3.6,0.2,5.3c-0.2,1.8-0.5,3.7,0.3,5.3c1.6,2.8,5.6,2.4,8.7,1.6l-1.1,8.2c-0.1,0.6-0.1,1.4,0.3,1.8
	c0.5,0.3,1,0.4,1.6,0.3c2.7-0.2,5.5-0.5,7.8-1.9c2.3-1.4,4-4,3.6-6.7c-0.5-3.1-3.7-5.5-3.3-8.6c0.3-2.4,2.7-3.9,4.2-5.7
	c2.8-3.3,2.9-8.4,0.8-12.2c-2.2-3.8-6.4-6.1-10.8-6.6c-2.4-0.2-4.9,0.1-7.2-0.8c-1.6-0.6-2.8-1.9-3.3-3.5"/>
<path class="st8" d="M239.8,566l2.3-5.1c0,0,12.2-11.8,15-12.6c2.8-0.8,14.2-4.4,15.9-4.4s33.2-1.8,33.2-1.8l3.7,8.9l-39.5,9
	L257,570.1L239.8,566z"/>
<path class="st2" d="M335.8,432.5l-2.1,16.1l-0.8,6.2l-9.4,1.3c0,0-1-2.2-2.5-5.5c-4.4-10.1-12.6-31-7.8-34.6
	c6.3-4.8,7.9,11.1,7.9,11.1l7.2-3.5L335.8,432.5z"/>
<path class="st11" d="M335.8,432.5l-2.1,16.1l-0.8,6.2l-9.4,1.3c0,0-1-2.2-2.5-5.5c-4.4-10.1-12.6-31-7.8-34.6
	c6.3-4.8,7.9,11.1,7.9,11.1l7.2-3.5L335.8,432.5z"/>
<rect x="286.8" y="462.1" class="st2" width="47" height="71"/>
<rect x="286.8" y="462.1" class="st12" width="47" height="71"/>
<path class="st2" d="M307.9,459.1l46.7,6.9l-10.4,70.5l-46.7-6.9L307.9,459.1z"/>
<path class="st13" d="M312.3,465.9l24,3.6l-5.4,36.3l-24-3.6L312.3,465.9z"/>
<path class="st13" d="M304.4,512.5l29.1,4.3l-1.2,7.9l-29.1-4.3L304.4,512.5z"/>
<path class="st10" d="M345.8,282.1c14.9,0,27-12.1,27-27c0-14.9-12.1-27-27-27s-27,12.1-27,27C318.8,270,330.9,282.1,345.8,282.1z"
	/>
<path class="st2" d="M345.8,281.1c14.9,0,27-12.1,27-27c0-14.9-12.1-27-27-27s-27,12.1-27,27C318.8,269,330.9,281.1,345.8,281.1z"/>
<path class="st11" d="M345.8,281.1c14.9,0,27-12.1,27-27c0-14.9-12.1-27-27-27s-27,12.1-27,27C318.8,269,330.9,281.1,345.8,281.1z"
	/>
<path class="st6" d="M323.4,274.8c-0.2-0.7-0.1-1.5,0.2-2.1c1-2.2,4-2.4,6.4-2.3c5.7,0.3,11.9,0.3,16.4-3.3c1.8-1.5,3.9-5.2,6.6-4.5
	c2.4,0.6,3.4,3.8,5.9,4.6c1.8,0.5,3.7-0.3,5.5-0.7c2.6-0.5,5.3-0.1,8-0.1c2.7,0,5.6-0.5,7.4-2.4c2.5-2.6,2.1-6.7,1.8-10.3
	c-0.3-4.6,0-9.3,0.9-13.9c0.9-4.5,2.3-9.6-0.2-13.5c-2.4-3.7-7.4-4.7-10.8-7.6c-3.2-2.6-4.9-6.8-8.2-9.3c-4.2-3.1-10-2.6-15.1-2.1
	l-11.3,1.2c-2.9,0.3-5.9,0.7-8.3,2.4c-4.3,3.1-4.9,9.6-9,13c-1.8,1.5-4.1,2.3-6.2,3.4c-2.1,1.1-4.1,2.9-4.3,5.3
	c-0.2,2,0.9,3.8,1.4,5.7c1.2,4.5-0.7,9.2-1.9,13.8c-1.2,4.6-1.5,10.1,2.1,13.1c0.7,0.6,1.6,1.1,2.3,1.7c2.4,2.2,2.7,5.9,2.2,9.1"/>
<path class="st6" d="M348.3,288.1c0.3,0,0.5-0.9,0.5-2s-0.2-2-0.5-2s-0.5,0.9-0.5,2S348,288.1,348.3,288.1z"/>
<path class="st6" d="M348.3,296.1c0.3,0,0.5-0.9,0.5-2s-0.2-2-0.5-2s-0.5,0.9-0.5,2S348,296.1,348.3,296.1z"/>
<path class="st2" d="M334.3,437.6c0.7-0.8,1.2-2.9,1.5-5.7l-8-9.9C327.8,422.1,331.2,441.2,334.3,437.6z"/>
<path class="st11" d="M334.3,437.6c0.7-0.8,1.2-2.9,1.5-5.7l-8-9.9C327.8,422.1,331.2,441.2,334.3,437.6z"/>
<path class="st10" d="M342.8,597.4c0,0-12.8,19.6-52.8,17.5c-37.7-1.9-56.1-20.3-55.2-26.8c0.9-6.5-2.4-22.3,5.7-26.8
	c4.7-2.6,10.8-1.1,15.2,0.7c3.1,1.2,6.6,0.6,9-1.6c4-3.5,11.4-7.5,23.1-4.4c1.5,0.4,3.1,0.4,4.6-0.1c4.9-1.5,16.5-4,24.9,1.6
	c2.7,1.9,6.3,2,9.1,0.3l0.1-0.1c3.9-2.4,22.3,20.1,22.3,20.1S349.6,595.2,342.8,597.4z"/>
<path class="st8" d="M342.8,598.4c0,0-12.8,19.6-52.8,17.5c-37.7-1.9-56.1-20.3-55.2-26.8c0.9-6.5-2.4-22.3,5.7-26.8
	c4.7-2.6,10.8-1.1,15.2,0.7c3.1,1.2,6.6,0.6,9-1.6c4-3.5,11.4-7.5,23.1-4.4c1.5,0.4,3.1,0.4,4.6-0.1c4.9-1.5,16.5-4,24.9,1.6
	c2.7,1.9,6.3,2,9.1,0.3l0.1-0.1c3.9-2.4,22.3,20.1,22.3,20.1S349.6,596.2,342.8,598.4z"/>
<path class="st10" d="M289.8,605.1c14.4,0,26-11.6,26-26s-11.6-26-26-26s-26,11.6-26,26S275.4,605.1,289.8,605.1z"/>
<path class="st2" d="M289.8,606.1c14.4,0,26-11.6,26-26s-11.6-26-26-26s-26,11.6-26,26S275.4,606.1,289.8,606.1z"/>
<path class="st11" d="M289.8,606.1c14.4,0,26-11.6,26-26s-11.6-26-26-26s-26,11.6-26,26S275.4,606.1,289.8,606.1z"/>
<path class="st7" d="M282.5,557.7c-2.8,0.7-5.5,2.1-6.8,4.5c-0.8,1.4-1.1,3.1-2.3,4.2c-1.7,1.7-4.5,1.7-6.7,2.6s-3.7,4.2-1.5,5.2
	c-2.3,0.1-4,2.2-4.3,4.3c-0.3,2.1,0.5,4.2,1.3,6.1c2.5,6.4,5.2,13.1,10.8,17.7c9.1,7.5,22.7,7.1,34.9,6.3c1,0,2-0.2,2.9-0.7
	c1.3-0.9,1.5-2.5,1.7-4c0.9-6.2,4.3-11.8,6.5-17.7c2.2-5.9,3.1-12.8-0.6-18.1C312.7,560.5,291.7,555.2,282.5,557.7z"/>
<path class="st10" d="M332.8,448.4l-0.8,6.3l-8.9,1.3c0,0-1-2.2-2.3-5.6l11.9-2.4L332.8,448.4z"/>
<path class="st8" d="M342.4,585.1l5.3-6.3l-1.1-34.8c0.5-2.5,0.9-5.1,1.1-7.6c0.2-3.7-2.7-12-2.7-12c0.4-1.7,1.1-3.3,1.8-4.8
	c1.3-2.6-1.8-8.5-1.8-8.5s-4.6-15.2-2.7-22.8c1.9-7.6-0.5-12-0.5-12s-1.9-8.5-1.7-12c0.2-3.5-4.3-6.8-4.3-6.8l-3.4-8.5l-13.7,2.6
	V481c0,0,0.9,28.1,0,33.5c-0.9,5.4,1.7,10.7,1.7,10.7s-1.5,8-0.2,11.1c1.3,3,3.8,10.4,3.8,10.4c-0.5,2.6-0.3,5.4,0.4,7.9
	c1.3,3.8,0,6,0,6L342.4,585.1z"/>
<g class="st14">
	<path d="M382.2,238.5c-0.7,3.8-1.1,7.6-1,11.4c0.1-3.2,0.4-6.4,1-9.5c0.6-2.9,1.3-5.9,1.2-8.8C383.1,233.9,382.7,236.2,382.2,238.5
		L382.2,238.5z"/>
	<path d="M312.9,265c-0.7-0.6-1.5-1.1-2.3-1.7c-1.9-1.6-2.7-3.9-2.9-6.4c-0.2,3.2,0.5,6.3,2.9,8.4c0.7,0.6,1.6,1.1,2.3,1.7
		c1.5,1.4,2.3,3.3,2.4,5.4C315.5,269.6,315,266.8,312.9,265z"/>
	<path d="M310.9,241c0.1-1.4,0-2.7-0.4-4c-0.4-1.4-1.1-2.7-1.3-4.1c0,0.1-0.1,0.3-0.1,0.5c-0.2,1.9,0.9,3.7,1.4,5.6
		C310.7,239.6,310.8,240.3,310.9,241L310.9,241z"/>
	<path d="M379.4,262.2c-1.8,1.9-4.7,2.4-7.4,2.4c-2.7,0-5.4-0.4-8,0.1c-1.8,0.4-3.7,1.2-5.5,0.6c-2.5-0.7-3.5-3.9-5.8-4.5
		c-2.7-0.7-4.7,2.9-6.6,4.4c-4.4,3.5-10.6,3.4-16.3,3.2c-2.4-0.1-5.4,0.1-6.4,2.2c-0.3,0.6-0.4,1.4-0.2,2.1l-8,1.2
		c0,0.6-0.1,1.3-0.2,1.9l8.2-1.3c-0.2-0.7-0.1-1.4,0.2-2.1c1-2.1,4-2.3,6.4-2.2c5.7,0.3,11.9,0.3,16.3-3.2c1.8-1.4,3.9-5.1,6.6-4.4
		c2.4,0.6,3.4,3.8,5.8,4.5c1.8,0.5,3.6-0.3,5.5-0.6c2.6-0.5,5.3-0.1,8-0.1c2.7,0,5.5-0.5,7.4-2.4c1.8-1.9,2.1-4.8,2-7.5
		C381.3,258.7,380.9,260.6,379.4,262.2z"/>
</g>
<g class="st14">
	<path d="M318.5,292.3c-0.8-0.4-1.6-0.7-2.4-1c-1.4-0.7-2.5-1.8-3.1-3.3c0.5,2.3,1.7,4.4,3.8,5.2c0.8,0.3,1.6,0.6,2.4,1
		c0.5,0.4,0.9,0.8,1.1,1.4C320,294.3,319.5,293,318.5,292.3z"/>
	<path d="M329.5,308.3c-3,0.8-6.9,1.2-8.5-1.4c0.1,0.6,0.2,1.2,0.5,1.8c1.4,2.5,4.8,2.5,7.7,1.8L329.5,308.3z"/>
	<path d="M341.6,310.1c0.4,2.7-1.3,5.4-3.6,6.8c-2.3,1.4-5,1.8-7.7,2c-0.4,0.1-0.9,0-1.3-0.1c-0.2,0.6-0.1,1.2,0.3,1.7
		c0.4,0.5,1.1,0.6,1.6,0.4c2.7-0.2,5.4-0.5,7.7-2c2.3-1.4,4-4.1,3.6-6.8C342.1,311.4,341.9,310.8,341.6,310.1L341.6,310.1z"/>
	<path d="M344.5,286.2c0.8,3.3,0.1,6.7-1.9,9.3c-1.5,1.9-3.9,3.4-4.2,5.8c-0.1,1.1,0.1,2.2,0.6,3.2c-0.1-0.4-0.1-0.8,0-1.2
		c0.3-2.4,2.7-4,4.2-5.8C345.7,294.5,346,289.9,344.5,286.2z"/>
</g>
<g class="st14">
	<path d="M267.2,569.7c2.2-0.9,5-0.9,6.6-2.6c1.2-1.2,1.4-2.8,2.2-4.2c1.3-2.3,4-3.7,6.7-4.4c9.1-2.5,29.9,2.8,35.4,10.4
		c1.6,2.3,2.5,5,2.5,7.8c0.2-3.2-0.7-6.4-2.5-9.1c-5.4-7.6-26.2-12.9-35.4-10.4c-2.7,0.7-5.4,2.1-6.7,4.4c-0.8,1.4-1.1,3-2.2,4.2
		c-1.6,1.6-4.4,1.7-6.6,2.6c-1.7,0.7-2.9,2.7-2.5,4.1C265.1,571.3,266,570.3,267.2,569.7L267.2,569.7z"/>
	<path d="M261.5,579.2c0.3-2.1,2-4.2,4.2-4.3c-0.5-0.2-0.9-0.6-1-1.1c-1.8,0.7-3,2.2-3.3,4.1c-0.1,0.5-0.1,1.1,0,1.6
		C261.5,579.4,261.5,579.3,261.5,579.2z"/>
</g>
<rect x="339.8" y="344.1" class="st2" width="60" height="77"/>
<rect x="339.8" y="344.1" class="st12" width="60" height="77"/>
<path class="st2" d="M363.2,357.8l58.5-10.1l13.1,76.3l-58.5,10.1L363.2,357.8z"/>
<path class="st13" d="M377.4,409.8l13.7-2.4l3.1,17.9l-13.7,2.4L377.4,409.8z"/>
<path class="st13" d="M396.4,406.5l13.7-2.4l3.1,17.9l-13.7,2.4L396.4,406.5z"/>
<path class="st13" d="M375.4,386.2l48.2-8.3l3.1,18l-48.2,8.3L375.4,386.2z"/>
<path class="st13" d="M371.4,364.7l48.2-8.3l0.7,4l-48.2,8.3L371.4,364.7z"/>
<path class="st13" d="M373,372.1l48.2-8.3l0.7,4l-48.2,8.3L373,372.1z"/>
<path class="st2" d="M372.8,322.1c0,0-26.7,27.9-13.3,34.9s22.1-23.5,22.1-23.5l2.1-7L372.8,322.1z"/>
<path class="st11" d="M372.8,322.1c0,0-26.7,27.9-13.3,34.9s22.1-23.5,22.1-23.5l2.1-7L372.8,322.1z"/>
<path class="st10" d="M371.1,320l-3.4,7.5c0,0,16.5,2.4,20,7.5l-2-13.3l-2.4-5.7L371.1,320z"/>
<path class="st2" d="M371.1,319l-3.4,7.5c0,0,16.5,2.4,20,7.5l-2-13.3l-2.4-5.7L371.1,319z"/>
<path class="st15" d="M371.1,319l-3.4,7.5c0,0,16.5,2.4,20,7.5l-2-13.3l-2.4-5.7L371.1,319z"/>
<path class="st16" d="M472.1,456.2l-0.3,0.4l0.5,0.3l0.5-0.1l0.1-0.6L472.1,456.2L472.1,456.2z"/>
<path class="st10" d="M472.1,456.2l-0.3,0.4l0.5,0.3l0.5-0.1l0.1-0.6L472.1,456.2L472.1,456.2z"/>
<path class="st17" d="M472.8,456.7l-0.6,0.3l-0.4-0.5l0.3-0.4l0.3-0.1L472.8,456.7L472.8,456.7z"/>
<path class="st10" d="M472.8,456.7l-0.6,0.3l-0.4-0.5l0.3-0.4l0.3-0.1L472.8,456.7L472.8,456.7z"/>
<path class="st17" d="M535.8,411l-26.7-38.6c-0.5-0.7-1.2-1.2-2-1.3c-0.8-0.2-1.7,0-2.4,0.5l-59.5,40.9c-1.4,1-1.8,3-0.8,4.4
	l26.6,39.1L535.8,411z"/>
<path class="st10" d="M535.8,411l-26.7-38.6c-0.5-0.7-1.2-1.2-2-1.3c-0.8-0.2-1.7,0-2.4,0.5l-59.5,40.9c-1.4,1-1.8,3-0.8,4.4
	l26.6,39.1L535.8,411z"/>
<path class="st17" d="M536.8,411l-26.7-38.6c-0.5-0.7-1.2-1.2-2-1.3c-0.8-0.2-1.7,0-2.4,0.5l-59.5,40.9c-1.4,1-1.8,3-0.8,4.4
	l26.6,39.1L536.8,411z"/>
<path class="st16" d="M559.3,418.2l-22-7.2l-64.5,45.4l22.4,7.4c1,0.3,2.1,0.2,3-0.5l61.3-44c0.2-0.1,0.4-0.4,0.3-0.7
	C559.7,418.5,559.5,418.3,559.3,418.2z"/>
<path class="st10" d="M559.3,418.2l-22-7.2l-64.5,45.4l22.4,7.4c1,0.3,2.1,0.2,3-0.5l61.3-44c0.2-0.1,0.4-0.4,0.3-0.7
	C559.7,418.5,559.5,418.3,559.3,418.2z"/>
<path class="st16" d="M559.3,418.2l-22-7.2l-64.5,45.4l22.4,7.4c1,0.3,2.1,0.2,3-0.5l61.3-44c0.2-0.1,0.3-0.4,0.3-0.7
	C559.7,418.5,559.5,418.3,559.3,418.2z"/>
<g class="st14">
	<path d="M526.2,409.7l-1.6-2.3c-0.2-0.3-0.6-0.4-0.9-0.2l-2.4,1.6c-0.3,0.2-0.4,0.6-0.2,0.9l1.5,2.3c0.2,0.3,0.6,0.4,0.9,0.2
		l2.6-1.6C526.3,410.4,526.4,410,526.2,409.7L526.2,409.7z"/>
	<path d="M521.9,412.8l-1.6-2.3c-0.2-0.3-0.6-0.4-0.9-0.2l-2.4,1.6c-0.3,0.2-0.4,0.6-0.2,0.9l1.5,2.3c0.2,0.3,0.6,0.4,0.9,0.2
		l2.6-1.6c0.1-0.1,0.2-0.2,0.3-0.4C522,413.1,522,412.9,521.9,412.8z"/>
	<path d="M517.3,415.9l-1.6-2.3c-0.2-0.3-0.6-0.4-0.9-0.2l-2.4,1.6c-0.3,0.2-0.4,0.6-0.2,0.9l1.5,2.3c0.2,0.3,0.6,0.4,0.9,0.2
		l2.6-1.6c0.1-0.1,0.3-0.2,0.3-0.4C517.4,416.2,517.4,416.1,517.3,415.9z"/>
	<path d="M512.7,419.1l-1.6-2.3c-0.2-0.3-0.6-0.4-0.9-0.2l-2.4,1.6c-0.3,0.2-0.4,0.6-0.2,0.9l1.5,2.3c0.2,0.3,0.6,0.4,0.9,0.2
		l2.6-1.6c0.1-0.1,0.2-0.2,0.3-0.4C512.8,419.5,512.8,419.3,512.7,419.1z"/>
	<path d="M508,422.3l-1.6-2.3c-0.2-0.3-0.6-0.4-0.9-0.2l-2.4,1.6c-0.3,0.2-0.4,0.6-0.2,0.9l1.5,2.3c0.2,0.3,0.6,0.4,0.9,0.2l2.6-1.6
		c0.1-0.1,0.2-0.2,0.3-0.4C508.2,422.7,508.1,422.5,508,422.3z"/>
	<path d="M503.6,425.8l-2-2.9c0-0.1-0.1-0.1-0.2-0.1c-0.1,0-0.2,0-0.2,0l-3,2c-0.1,0-0.1,0.1-0.1,0.2c0,0.1,0,0.2,0,0.2l1.9,2.9
		c0.1,0.1,0.3,0.2,0.4,0.1l3.1-2c0.1,0,0.1-0.1,0.1-0.2C503.7,426,503.7,425.9,503.6,425.8z"/>
	<path d="M499,429.1l-2-2.9c0-0.1-0.1-0.1-0.2-0.1c-0.1,0-0.2,0-0.2,0l-3,2c-0.1,0.1-0.2,0.3-0.1,0.4l1.9,2.9c0,0.1,0.1,0.1,0.2,0.1
		c0.1,0,0.2,0,0.2,0l3.1-2c0.1,0,0.1-0.1,0.2-0.2C499.1,429.2,499,429.1,499,429.1L499,429.1z"/>
	<path d="M494.9,431.9l-2-2.9c-0.1-0.1-0.3-0.2-0.4-0.1l-3,2c-0.1,0.1-0.2,0.3-0.1,0.4l1.9,2.9c0.1,0.1,0.3,0.2,0.4,0.1l3.1-2
		c0.1,0,0.1-0.1,0.2-0.2C495,432.1,494.9,432,494.9,431.9L494.9,431.9z"/>
	<path d="M490.3,435.1l-2-2.9c-0.1-0.1-0.3-0.2-0.4-0.1l-3,2c-0.1,0-0.1,0.1-0.1,0.2c0,0.1,0,0.2,0,0.2l1.9,2.9
		c0.1,0.1,0.3,0.2,0.4,0.1l3.1-2c0.1,0,0.1-0.1,0.1-0.2C490.4,435.2,490.3,435.1,490.3,435.1L490.3,435.1z"/>
	<path d="M485.8,438.1l-2-2.9c0-0.1-0.1-0.1-0.2-0.1c-0.1,0-0.2,0-0.2,0l-3,2c-0.1,0-0.1,0.1-0.1,0.2c0,0.1,0,0.2,0,0.2l1.9,2.9
		c0.1,0.1,0.3,0.2,0.4,0.1l3.1-2c0.1,0,0.1-0.1,0.1-0.2C485.9,438.3,485.9,438.2,485.8,438.1z"/>
	<path d="M481.4,441.2l-2-2.9c-0.1-0.1-0.3-0.2-0.4-0.1l-3,2c-0.1,0-0.1,0.1-0.1,0.2s0,0.2,0,0.2l1.9,2.9c0.1,0.1,0.3,0.2,0.4,0.1
		l3.1-2c0.1,0,0.1-0.1,0.1-0.2C481.5,441.4,481.4,441.3,481.4,441.2L481.4,441.2z"/>
	<path d="M476.9,444.3l-2-2.9c0-0.1-0.1-0.1-0.2-0.1c-0.1,0-0.2,0-0.2,0l-3,2c-0.1,0-0.1,0.1-0.1,0.2c0,0.1,0,0.2,0,0.2l1.9,2.9
		c0.1,0.1,0.3,0.2,0.4,0.1l3.1-2c0.1,0,0.1-0.1,0.1-0.2C477,444.5,477,444.4,476.9,444.3z"/>
	<path d="M523.3,405.5l-1.6-2.3c-0.2-0.3-0.6-0.4-0.9-0.2l-2.4,1.6c-0.3,0.2-0.4,0.6-0.2,0.9l1.5,2.3c0.2,0.3,0.6,0.4,0.9,0.2
		l2.6-1.6C523.4,406.2,523.5,405.8,523.3,405.5z"/>
	<path d="M516.9,396.2l-1.6-2.4c-0.2-0.3-0.6-0.3-0.9-0.2l-2.4,1.6c-0.3,0.2-0.4,0.6-0.2,0.9l1.5,2.3c0.2,0.3,0.6,0.4,0.9,0.2
		l2.6-1.6C517,396.9,517.1,396.5,516.9,396.2z"/>
	<path d="M518.9,408.5l-1.6-2.3c-0.2-0.3-0.6-0.3-0.9-0.2l-2.4,1.6c-0.3,0.2-0.4,0.6-0.2,0.9l1.5,2.3c0.2,0.3,0.6,0.4,0.9,0.2
		l2.6-1.6c0.1-0.1,0.2-0.2,0.3-0.4S519,408.7,518.9,408.5z"/>
	<path d="M514.4,411.7l-1.6-2.3c-0.2-0.3-0.6-0.4-0.9-0.2l-2.4,1.6c-0.3,0.2-0.4,0.6-0.2,0.9l1.5,2.3c0.2,0.3,0.6,0.4,0.9,0.2
		l2.6-1.6C514.5,412.4,514.5,412,514.4,411.7z"/>
	<path d="M509.7,414.9l-1.6-2.3c-0.2-0.3-0.6-0.4-0.9-0.2l-2.4,1.7c-0.3,0.2-0.4,0.6-0.2,0.9l1.5,2.3c0.2,0.3,0.6,0.4,0.9,0.2
		l2.6-1.6c0.2-0.1,0.3-0.2,0.3-0.4C509.9,415.2,509.8,415,509.7,414.9z"/>
	<path d="M512.6,399.4l-1.6-2.3c-0.2-0.3-0.6-0.4-0.9-0.2l-2.4,1.6c-0.3,0.2-0.4,0.6-0.2,0.9l1.5,2.3c0.2,0.3,0.6,0.4,0.9,0.2
		l2.6-1.6c0.1-0.1,0.2-0.2,0.3-0.4C512.8,399.7,512.7,399.6,512.6,399.4z"/>
	<path d="M508.1,402.6l-1.6-2.3c-0.2-0.3-0.6-0.4-0.9-0.2l-2.4,1.6c-0.3,0.2-0.4,0.6-0.2,0.9l1.5,2.3c0.2,0.3,0.6,0.4,0.9,0.2
		l2.6-1.6C508.2,403.3,508.2,402.9,508.1,402.6L508.1,402.6z"/>
	<path d="M503.4,405.8l-1.6-2.3c-0.2-0.3-0.6-0.4-0.9-0.2l-2.4,1.7c-0.3,0.2-0.4,0.6-0.2,0.9l1.5,2.3c0.2,0.3,0.6,0.4,0.9,0.2
		l2.6-1.6c0.2-0.1,0.3-0.2,0.3-0.4C503.6,406.1,503.5,405.9,503.4,405.8z"/>
	<path d="M505.1,418.1l-1.6-2.3c-0.2-0.3-0.6-0.4-0.9-0.2l-2.4,1.6c-0.3,0.2-0.4,0.6-0.2,0.9l1.5,2.3c0.2,0.3,0.6,0.4,0.9,0.2
		l2.6-1.6c0.1-0.1,0.2-0.2,0.3-0.4C505.2,418.4,505.2,418.3,505.1,418.1z"/>
	<path d="M500.5,421.3l-1.6-2.3c-0.2-0.3-0.6-0.4-0.9-0.2l-2.4,1.6c-0.3,0.2-0.4,0.6-0.2,0.9l1.5,2.3c0.2,0.3,0.6,0.4,0.9,0.2
		l2.6-1.6c0.1-0.1,0.2-0.2,0.3-0.4C500.6,421.6,500.6,421.5,500.5,421.3z"/>
	<path d="M496,424.8l-2-2.9c0-0.1-0.1-0.1-0.2-0.1c-0.1,0-0.2,0-0.2,0l-3,2c-0.1,0-0.1,0.1-0.1,0.2s0,0.2,0,0.2l1.9,2.9
		c0,0.1,0.1,0.1,0.2,0.1c0.1,0,0.2,0,0.2,0l3.1-2c0.1,0,0.1-0.1,0.1-0.2C496.1,425,496.1,424.9,496,424.8z"/>
	<path d="M491.9,427.7l-2-2.9c-0.1-0.1-0.3-0.2-0.4-0.1l-3,2c-0.1,0.1-0.2,0.3-0.1,0.4l1.9,2.9c0.1,0.1,0.3,0.2,0.4,0.1l3.1-2
		c0.1,0,0.1-0.1,0.2-0.2C492,427.8,492,427.7,491.9,427.7L491.9,427.7z"/>
	<path d="M487.4,430.8l-2-2.9c-0.1-0.1-0.3-0.2-0.4-0.1l-3,2c-0.1,0-0.1,0.1-0.1,0.2s0,0.2,0,0.2l1.9,2.9c0.1,0.1,0.3,0.2,0.4,0.1
		l3.1-2c0.1,0,0.1-0.1,0.1-0.2C487.4,431,487.4,430.9,487.4,430.8z"/>
	<path d="M482.9,433.9l-2-2.9c0-0.1-0.1-0.1-0.2-0.1c-0.1,0-0.2,0-0.2,0l-3,2c-0.1,0-0.1,0.1-0.1,0.2c0,0.1,0,0.2,0,0.2l1.9,2.9
		c0.1,0.1,0.3,0.2,0.4,0.1l3.1-2c0.1,0,0.1-0.1,0.1-0.2C483,434.1,483,434,482.9,433.9L482.9,433.9z"/>
	<path d="M511.3,407.3l-1.6-2.3c-0.2-0.3-0.6-0.3-0.9-0.2l-2.4,1.6c-0.3,0.2-0.4,0.6-0.2,0.9l1.5,2.3c0.2,0.3,0.6,0.4,0.9,0.2
		l2.6-1.6c0.1-0.1,0.2-0.2,0.3-0.4C511.4,407.6,511.4,407.4,511.3,407.3z"/>
	<path d="M506.7,410.5l-1.6-2.3c-0.2-0.3-0.6-0.4-0.9-0.2l-2.4,1.6c-0.3,0.2-0.4,0.6-0.2,0.9l1.5,2.3c0.2,0.3,0.6,0.4,0.9,0.2
		l2.6-1.6c0.1-0.1,0.2-0.2,0.3-0.4C506.8,410.8,506.8,410.6,506.7,410.5L506.7,410.5z"/>
	<path d="M502.1,413.7l-1.6-2.3c-0.2-0.3-0.6-0.4-0.9-0.2l-2.4,1.6c-0.3,0.2-0.4,0.6-0.2,0.9l1.5,2.3c0.2,0.3,0.6,0.4,0.9,0.2
		l2.6-1.6c0.1-0.1,0.2-0.2,0.3-0.4C502.2,414,502.1,413.9,502.1,413.7L502.1,413.7z"/>
	<path d="M497.4,416.9l-1.6-2.3c-0.2-0.3-0.6-0.3-0.9-0.2l-2.4,1.6c-0.3,0.2-0.4,0.6-0.2,0.9l1.5,2.3c0.2,0.3,0.6,0.4,0.9,0.2
		l2.6-1.6c0.2-0.1,0.3-0.3,0.3-0.4C497.6,417.2,497.5,417.1,497.4,416.9z"/>
	<path d="M493,420.4l-2-2.9c0-0.1-0.1-0.1-0.2-0.1c-0.1,0-0.2,0-0.2,0l-3,2c-0.1,0.1-0.2,0.3-0.1,0.4l1.9,2.9c0,0.1,0.1,0.1,0.2,0.1
		c0.1,0,0.2,0,0.2,0l3.1-2c0.1,0,0.1-0.1,0.1-0.2C493.1,420.6,493.1,420.5,493,420.4z"/>
	<path d="M488.9,423.3l-2-2.9c-0.1-0.1-0.3-0.2-0.4-0.1l-3,2c-0.1,0.1-0.2,0.3-0.1,0.4l1.9,2.9c0.1,0.1,0.3,0.2,0.4,0.1l3.1-2
		c0.1,0,0.1-0.1,0.1-0.2C489,423.4,489,423.3,488.9,423.3L488.9,423.3z"/>
	<path d="M484.3,426.4l-2-2.9c-0.1-0.1-0.3-0.2-0.4-0.1l-3,2c-0.1,0.1-0.2,0.3-0.1,0.4l1.9,2.9c0.1,0.1,0.3,0.2,0.4,0.1l3.1-2
		c0.1,0,0.1-0.1,0.2-0.2C484.4,426.6,484.4,426.5,484.3,426.4L484.3,426.4z"/>
	<path d="M479.9,429.5l-2-2.9c0-0.1-0.1-0.1-0.2-0.1c-0.1,0-0.2,0-0.2,0l-3,2c-0.1,0.1-0.2,0.3-0.1,0.4l1.9,2.9
		c0,0.1,0.1,0.1,0.2,0.1c0.1,0,0.2,0,0.2,0l3.1-2c0.1,0,0.1-0.1,0.2-0.2C479.9,429.7,479.9,429.6,479.9,429.5z"/>
	<path d="M478.5,437l-2-2.9c-0.1-0.1-0.3-0.2-0.4-0.1l-3,2c-0.1,0-0.1,0.1-0.1,0.2c0,0.1,0,0.2,0,0.2l1.9,2.9
		c0.1,0.1,0.3,0.2,0.4,0.1l3.1-2c0.1,0,0.1-0.1,0.1-0.2C478.5,437.2,478.5,437.1,478.5,437L478.5,437z"/>
	<path d="M474,440.1l-2-2.9c0-0.1-0.1-0.1-0.2-0.1c-0.1,0-0.2,0-0.2,0l-3,2c-0.1,0-0.1,0.1-0.1,0.2s0,0.2,0,0.2l1.9,2.9
		c0.1,0.1,0.3,0.2,0.4,0.1l3.1-2c0.1,0,0.1-0.1,0.1-0.2C474.1,440.2,474.1,440.2,474,440.1z"/>
	<path d="M481,421.6l-1.9-2.7c-0.1-0.2-0.4-0.2-0.6-0.1l-2.8,1.9c-0.1,0.1-0.1,0.1-0.2,0.3c0,0.1,0,0.2,0.1,0.3l1.8,2.7
		c0.1,0.1,0.1,0.2,0.2,0.2c0.1,0,0.2,0,0.3-0.1l3-1.9c0.1-0.1,0.2-0.1,0.2-0.3C481.1,421.9,481.1,421.7,481,421.6L481,421.6z"/>
	<path d="M476.5,424.7l-1.9-2.7c-0.1-0.1-0.2-0.1-0.3-0.2c-0.1,0-0.2,0-0.3,0.1l-2.8,1.9c-0.1,0.1-0.2,0.1-0.2,0.3
		c0,0.1,0,0.2,0.1,0.3l1.8,2.7c0.1,0.2,0.4,0.2,0.5,0.1l3-1.9c0.1-0.1,0.2-0.2,0.2-0.3C476.6,424.9,476.6,424.8,476.5,424.7
		L476.5,424.7z"/>
	<path d="M472.1,427.8l-1.9-2.7c-0.1-0.2-0.4-0.2-0.6-0.1l-2.8,1.9c-0.1,0.1-0.1,0.1-0.2,0.3s0,0.2,0.1,0.3l1.8,2.7
		c0.1,0.1,0.1,0.2,0.2,0.2c0.1,0,0.2,0,0.3-0.1l3-1.9c0.1-0.1,0.2-0.2,0.2-0.3S472.2,427.9,472.1,427.8z"/>
	<path d="M467.7,431l-2-2.9c-0.1-0.1-0.3-0.2-0.4-0.1l-3,2c-0.1,0.1-0.2,0.3-0.1,0.4l1.9,2.9c0.1,0.1,0.3,0.2,0.4,0.1l3.1-2
		c0.1,0,0.1-0.1,0.2-0.2C467.8,431.1,467.8,431,467.7,431z"/>
	<path d="M520.3,400.9l-1.8-2.5c-0.2-0.3-0.6-0.3-0.9-0.2l-6.9,4.8c-0.3,0.2-0.4,0.6-0.2,0.9l1.7,2.6c0.1,0.1,0.2,0.2,0.4,0.3
		c0.2,0,0.3,0,0.5-0.1l7-4.9C520.5,401.6,520.5,401.2,520.3,400.9z"/>
	<path d="M475.4,432.5l-2.2-3.1c0-0.1-0.1-0.1-0.2-0.1c-0.1,0-0.2,0-0.2,0.1l-7.4,5.2c-0.1,0.1-0.2,0.3-0.1,0.4l2,3.1
		c0,0.1,0.1,0.1,0.2,0.1c0.1,0,0.2,0,0.2,0l7.5-5.3C475.5,432.8,475.5,432.6,475.4,432.5L475.4,432.5z"/>
	<path d="M499,409.2l-2-2.9c-0.1-0.1-0.3-0.2-0.4-0.1l-16.5,11.1c-0.1,0.1-0.2,0.3-0.1,0.4l2,3.1c0,0.1,0.1,0.1,0.2,0.1
		c0.1,0,0.2,0,0.2,0l16.4-11.3c0.1,0,0.1-0.1,0.1-0.2C499.1,409.3,499.1,409.2,499,409.2z"/>
</g>
<path class="st16" d="M526.7,409.6l-1.5-2.2c-0.2-0.3-0.6-0.3-0.8-0.2l-2.3,1.6c-0.3,0.2-0.3,0.6-0.2,0.8l1.4,2.2
	c0.2,0.3,0.5,0.4,0.8,0.2l2.4-1.5c0.1-0.1,0.2-0.2,0.3-0.4C526.8,409.9,526.8,409.7,526.7,409.6L526.7,409.6z"/>
<path class="st16" d="M521.7,412.5l-1.5-2.2c-0.2-0.3-0.6-0.3-0.8-0.2l-2.3,1.6c-0.3,0.2-0.3,0.6-0.2,0.8l1.4,2.2
	c0.2,0.3,0.5,0.4,0.8,0.2l2.4-1.5c0.1-0.1,0.2-0.2,0.3-0.4C521.8,412.9,521.8,412.7,521.7,412.5L521.7,412.5z"/>
<path class="st16" d="M517.7,415.5l-1.5-2.2c-0.2-0.3-0.6-0.3-0.8-0.2l-2.3,1.6c-0.3,0.2-0.3,0.6-0.2,0.8l1.4,2.2
	c0.2,0.3,0.5,0.4,0.8,0.2l2.4-1.5c0.1-0.1,0.2-0.2,0.3-0.4C517.8,415.9,517.8,415.7,517.7,415.5L517.7,415.5z"/>
<path class="st16" d="M512.7,419.5l-1.5-2.2c-0.2-0.3-0.5-0.3-0.8-0.2l-2.3,1.6c-0.1,0.1-0.2,0.2-0.3,0.4c0,0.2,0,0.3,0.1,0.5
	l1.4,2.2c0.2,0.3,0.5,0.4,0.8,0.2l2.4-1.5c0.1-0.1,0.2-0.2,0.3-0.4C512.8,419.8,512.8,419.7,512.7,419.5z"/>
<path class="st16" d="M508.7,421.5l-1.5-2.2c-0.2-0.3-0.6-0.3-0.8-0.2l-2.3,1.6c-0.3,0.2-0.3,0.6-0.2,0.8l1.4,2.2
	c0.2,0.3,0.5,0.4,0.8,0.2l2.4-1.5c0.1-0.1,0.2-0.2,0.3-0.4C508.8,421.9,508.8,421.7,508.7,421.5z"/>
<path class="st16" d="M504.7,425.8l-1.8-2.6c0-0.1-0.1-0.1-0.2-0.1c-0.1,0-0.1,0-0.2,0l-2.6,1.8c-0.1,0-0.1,0.1-0.1,0.2
	c0,0.1,0,0.1,0,0.2l1.7,2.6c0.1,0.1,0.2,0.2,0.4,0.1l2.8-1.8c0.1,0,0.1-0.1,0.1-0.2C504.8,426,504.8,425.9,504.7,425.8z"/>
<path class="st16" d="M498.7,428.8l-1.8-2.6c0-0.1-0.1-0.1-0.2-0.1c-0.1,0-0.1,0-0.2,0l-2.6,1.8c-0.1,0-0.1,0.1-0.1,0.2
	c0,0.1,0,0.1,0,0.2l1.7,2.6c0,0.1,0.1,0.1,0.2,0.1c0.1,0,0.1,0,0.2,0l2.8-1.8c0.1,0,0.1-0.1,0.1-0.2
	C498.8,429,498.8,428.9,498.7,428.8L498.7,428.8z"/>
<path class="st16" d="M495.7,431.8l-1.8-2.7c-0.1-0.1-0.2-0.1-0.4-0.1l-2.7,1.8c-0.1,0.1-0.2,0.3-0.1,0.4l1.7,2.6
	c0.1,0.1,0.2,0.2,0.4,0.1l2.8-1.8c0.1,0,0.1-0.1,0.1-0.2S495.8,431.9,495.7,431.8z"/>
<path class="st16" d="M490.7,434.8l-1.8-2.6c-0.1-0.1-0.2-0.1-0.4-0.1l-2.6,1.8c-0.1,0-0.1,0.1-0.1,0.2c0,0.1,0,0.1,0,0.2l1.7,2.6
	c0.1,0.1,0.2,0.2,0.4,0.1l2.8-1.8c0.1,0,0.1-0.1,0.1-0.2C490.8,434.9,490.8,434.9,490.7,434.8L490.7,434.8z"/>
<path class="st16" d="M485.7,437.8l-1.8-2.6c0-0.1-0.1-0.1-0.2-0.1c-0.1,0-0.1,0-0.2,0l-2.6,1.8c-0.1,0-0.1,0.1-0.1,0.2
	c0,0.1,0,0.1,0,0.2l1.7,2.6c0,0.1,0.1,0.1,0.2,0.1c0.1,0,0.1,0,0.2,0l2.8-1.8c0.1,0,0.1-0.1,0.1-0.2
	C485.8,438,485.8,437.9,485.7,437.8z"/>
<path class="st16" d="M480.7,440.8l-1.8-2.7c-0.1-0.1-0.2-0.1-0.4-0.1l-2.6,1.8c-0.1,0.1-0.2,0.3-0.1,0.4l1.7,2.6
	c0.1,0.1,0.2,0.2,0.4,0.1l2.8-1.8c0.1,0,0.1-0.1,0.1-0.2C480.8,441,480.8,440.9,480.7,440.8z"/>
<path class="st16" d="M476.7,444.8l-1.8-2.6c0-0.1-0.1-0.1-0.2-0.1c-0.1,0-0.1,0-0.2,0l-2.6,1.8c-0.1,0-0.1,0.1-0.1,0.2
	c0,0.1,0,0.1,0,0.2l1.7,2.6c0,0.1,0.1,0.1,0.2,0.1c0.1,0,0.1,0,0.2,0l2.8-1.8c0.1,0,0.1-0.1,0.1-0.2
	C476.8,445,476.8,444.9,476.7,444.8L476.7,444.8z"/>
<path class="st16" d="M523.7,404.5l-1.5-2.2c-0.2-0.3-0.6-0.3-0.8-0.2l-2.3,1.6c-0.3,0.2-0.3,0.6-0.2,0.8l1.4,2.2
	c0.2,0.3,0.5,0.4,0.8,0.2l2.4-1.5c0.1-0.1,0.2-0.2,0.3-0.4C523.8,404.9,523.8,404.7,523.7,404.5L523.7,404.5z"/>
<path class="st16" d="M517.7,395.5l-1.5-2.2c-0.2-0.3-0.6-0.3-0.8-0.2l-2.3,1.6c-0.3,0.2-0.3,0.6-0.2,0.8l1.4,2.2
	c0.2,0.3,0.5,0.4,0.8,0.2l2.4-1.5c0.1-0.1,0.2-0.2,0.3-0.4C517.8,395.9,517.8,395.7,517.7,395.5z"/>
<path class="st16" d="M519.7,408.6l-1.5-2.3c-0.2-0.3-0.6-0.3-0.8-0.2l-2.3,1.6c-0.3,0.2-0.3,0.6-0.2,0.8l1.4,2.2
	c0.2,0.3,0.5,0.4,0.8,0.2l2.4-1.5C519.8,409.2,519.9,408.8,519.7,408.6z"/>
<path class="st16" d="M514.7,411.5l-1.5-2.2c-0.2-0.3-0.6-0.3-0.8-0.2l-2.3,1.6c-0.3,0.2-0.3,0.6-0.2,0.8l1.4,2.2
	c0.2,0.3,0.5,0.4,0.8,0.2l2.4-1.5c0.1-0.1,0.2-0.2,0.3-0.4C514.8,411.8,514.8,411.7,514.7,411.5z"/>
<path class="st16" d="M510.7,414.6l-1.5-2.2c-0.2-0.3-0.6-0.3-0.8-0.2l-2.3,1.6c-0.3,0.2-0.3,0.6-0.2,0.8l1.4,2.2
	c0.2,0.3,0.5,0.4,0.8,0.2l2.4-1.5c0.1-0.1,0.2-0.2,0.3-0.4C510.8,414.9,510.8,414.7,510.7,414.6z"/>
<path class="st16" d="M512.7,398.6l-1.5-2.3c-0.2-0.3-0.6-0.3-0.8-0.2l-2.3,1.6c-0.3,0.2-0.3,0.6-0.2,0.8l1.4,2.2
	c0.2,0.3,0.5,0.4,0.8,0.2l2.4-1.5C512.8,399.2,512.9,398.8,512.7,398.6L512.7,398.6z"/>
<path class="st16" d="M508.7,402.5l-1.5-2.2c-0.2-0.3-0.6-0.3-0.8-0.2l-2.3,1.6c-0.3,0.2-0.3,0.6-0.2,0.8l1.4,2.2
	c0.2,0.3,0.5,0.4,0.8,0.2l2.4-1.5c0.1-0.1,0.2-0.2,0.3-0.4C508.8,402.9,508.8,402.7,508.7,402.5z"/>
<path class="st16" d="M504.7,405.5l-1.5-2.2c-0.2-0.3-0.6-0.3-0.8-0.2l-2.3,1.6c-0.3,0.2-0.3,0.6-0.2,0.8l1.4,2.2
	c0.2,0.3,0.5,0.4,0.8,0.2l2.4-1.5c0.1-0.1,0.2-0.2,0.3-0.4C504.8,405.9,504.8,405.7,504.7,405.5z"/>
<path class="st16" d="M504.7,417.6l-1.5-2.2c-0.2-0.3-0.6-0.3-0.8-0.2l-2.3,1.6c-0.3,0.2-0.3,0.6-0.2,0.8l1.4,2.2
	c0.2,0.3,0.5,0.4,0.8,0.2l2.4-1.6C504.8,418.2,504.9,417.8,504.7,417.6z"/>
<path class="st16" d="M500.7,420.5l-1.5-2.2c-0.2-0.3-0.5-0.3-0.8-0.2l-2.3,1.6c-0.3,0.2-0.3,0.6-0.2,0.8l1.4,2.2
	c0.2,0.3,0.5,0.4,0.8,0.2l2.4-1.5c0.1-0.1,0.2-0.2,0.3-0.4C500.8,420.8,500.8,420.7,500.7,420.5z"/>
<path class="st16" d="M496.7,424.8l-1.8-2.6c0-0.1-0.1-0.1-0.2-0.1c-0.1,0-0.1,0-0.2,0l-2.6,1.8c-0.1,0-0.1,0.1-0.1,0.2
	c0,0.1,0,0.1,0,0.2l1.7,2.6c0,0.1,0.1,0.1,0.2,0.1c0.1,0,0.1,0,0.2,0l2.8-1.8c0.1,0,0.1-0.1,0.1-0.2S496.8,424.9,496.7,424.8
	L496.7,424.8z"/>
<path class="st16" d="M491.7,427.8l-1.8-2.7c-0.1-0.1-0.2-0.1-0.4-0.1l-2.6,1.8c-0.1,0.1-0.2,0.3-0.1,0.4l1.7,2.6
	c0.1,0.1,0.2,0.2,0.4,0.1l2.8-1.8c0.1,0,0.1-0.1,0.1-0.2C491.8,428,491.8,427.9,491.7,427.8L491.7,427.8z"/>
<path class="st16" d="M487.7,429.8l-1.8-2.7c-0.1-0.1-0.2-0.1-0.4-0.1l-2.6,1.8c-0.1,0.1-0.2,0.3-0.1,0.4l1.7,2.6
	c0.1,0.1,0.2,0.2,0.4,0.1l2.8-1.8c0.1,0,0.1-0.1,0.1-0.2C487.8,430,487.8,429.9,487.7,429.8L487.7,429.8z"/>
<path class="st16" d="M482.7,433.8l-1.8-2.6c0-0.1-0.1-0.1-0.2-0.1c-0.1,0-0.1,0-0.2,0l-2.7,1.8c-0.1,0.1-0.2,0.3-0.1,0.4l1.7,2.6
	c0.1,0.1,0.2,0.2,0.4,0.1l2.8-1.8c0.1,0,0.1-0.1,0.1-0.2C482.8,434,482.8,433.9,482.7,433.8L482.7,433.8z"/>
<path class="st16" d="M511.7,406.6l-1.5-2.2c-0.2-0.3-0.6-0.3-0.8-0.2l-2.3,1.6c-0.3,0.2-0.3,0.6-0.2,0.8l1.4,2.2
	c0.2,0.3,0.5,0.4,0.8,0.2l2.4-1.5c0.1-0.1,0.2-0.2,0.3-0.4C511.8,406.9,511.8,406.7,511.7,406.6z"/>
<path class="st16" d="M506.7,410.5l-1.5-2.2c-0.2-0.3-0.6-0.3-0.8-0.2l-2.3,1.6c-0.3,0.2-0.3,0.6-0.2,0.8l1.4,2.2
	c0.2,0.3,0.5,0.4,0.8,0.2l2.4-1.5c0.1-0.1,0.2-0.2,0.3-0.4C506.8,410.9,506.8,410.7,506.7,410.5L506.7,410.5z"/>
<path class="st16" d="M502.7,413.5l-1.6-2.2c-0.2-0.3-0.6-0.3-0.8-0.2l-2.2,1.6c-0.3,0.2-0.3,0.6-0.2,0.8l1.4,2.2
	c0.2,0.3,0.5,0.4,0.8,0.2l2.4-1.5c0.1-0.1,0.2-0.2,0.2-0.4C502.8,413.8,502.8,413.7,502.7,413.5L502.7,413.5z"/>
<path class="st16" d="M497.7,416.5l-1.5-2.2c-0.2-0.3-0.6-0.3-0.8-0.2l-2.3,1.6c-0.3,0.2-0.3,0.6-0.2,0.8l1.4,2.2
	c0.2,0.3,0.5,0.4,0.8,0.2l2.4-1.5c0.1-0.1,0.2-0.2,0.3-0.4C497.8,416.9,497.8,416.7,497.7,416.5z"/>
<path class="st16" d="M493.7,420.8l-1.8-2.6c0-0.1-0.1-0.1-0.2-0.1c-0.1,0-0.1,0-0.2,0l-2.6,1.8c-0.1,0.1-0.2,0.2-0.1,0.4l1.7,2.6
	c0,0.1,0.1,0.1,0.2,0.1c0.1,0,0.1,0,0.2,0l2.8-1.8c0.1,0,0.1-0.1,0.1-0.2C493.8,421,493.8,420.9,493.7,420.8z"/>
<path class="st16" d="M488.7,422.8l-1.8-2.6c0-0.1-0.1-0.1-0.2-0.1c-0.1,0-0.1,0-0.2,0l-2.6,1.8c-0.1,0.1-0.2,0.3-0.1,0.4l1.7,2.6
	c0.1,0.1,0.2,0.2,0.4,0.1l2.8-1.8c0.1,0,0.1-0.1,0.1-0.2S488.8,422.9,488.7,422.8z"/>
<path class="st16" d="M484.7,426.8l-1.8-2.7c-0.1-0.1-0.3-0.1-0.4-0.1l-2.6,1.8c-0.1,0.1-0.2,0.3-0.1,0.4l1.7,2.6
	c0.1,0.1,0.2,0.2,0.4,0.1l2.8-1.8c0.1,0,0.1-0.1,0.1-0.2C484.8,427,484.8,426.9,484.7,426.8z"/>
<path class="st16" d="M480.7,428.8l-1.8-2.6c0-0.1-0.1-0.1-0.2-0.1c-0.1,0-0.1,0-0.2,0l-2.6,1.8c-0.1,0-0.1,0.1-0.1,0.2
	c0,0.1,0,0.1,0,0.2l1.7,2.6c0,0.1,0.1,0.1,0.2,0.1c0.1,0,0.1,0,0.2,0l2.8-1.8c0.1,0,0.1-0.1,0.1-0.2
	C480.8,429,480.8,428.9,480.7,428.8L480.7,428.8z"/>
<path class="st16" d="M478.7,436.8l-1.8-2.7c-0.1-0.1-0.2-0.1-0.4-0.1l-2.6,1.8c-0.1,0.1-0.2,0.3-0.1,0.4l1.7,2.6
	c0.1,0.1,0.2,0.2,0.4,0.1l2.8-1.8c0.1,0,0.1-0.1,0.1-0.2C478.8,437,478.8,436.9,478.7,436.8z"/>
<path class="st16" d="M473.7,439.8l-1.8-2.6c0-0.1-0.1-0.1-0.2-0.1c-0.1,0-0.1,0-0.2,0l-2.6,1.8c-0.1,0.1-0.2,0.2-0.1,0.4l1.7,2.6
	c0,0.1,0.1,0.1,0.2,0.1c0.1,0,0.1,0,0.2,0l2.8-1.8c0.1,0,0.1-0.1,0.1-0.2C473.8,440,473.8,439.9,473.7,439.8L473.7,439.8z"/>
<path class="st16" d="M480.7,420.7l-1.7-2.5c-0.1-0.2-0.3-0.2-0.5-0.1l-2.6,1.8c-0.2,0.1-0.2,0.3-0.1,0.5l1.6,2.5
	c0.1,0.2,0.3,0.2,0.5,0.1l2.7-1.7c0.1-0.1,0.1-0.1,0.2-0.2S480.8,420.8,480.7,420.7z"/>
<path class="st16" d="M476.7,424.7l-1.7-2.5c-0.1-0.1-0.1-0.1-0.2-0.2c-0.1,0-0.2,0-0.3,0.1l-2.5,1.8c-0.2,0.1-0.2,0.3-0.1,0.5
	l1.6,2.5c0.1,0.2,0.3,0.2,0.5,0.1l2.7-1.7c0.1-0.1,0.1-0.1,0.2-0.2C476.8,424.9,476.8,424.8,476.7,424.7L476.7,424.7z"/>
<path class="st16" d="M472.7,427.7l-1.8-2.5c-0.1-0.2-0.3-0.2-0.5-0.1l-2.5,1.8c-0.2,0.1-0.2,0.3-0.1,0.5l1.6,2.5
	c0.1,0.2,0.3,0.2,0.5,0.1l2.7-1.7c0.1,0,0.2-0.1,0.2-0.2C472.8,427.9,472.8,427.8,472.7,427.7L472.7,427.7z"/>
<path class="st16" d="M467.7,430.8l-1.8-2.7c-0.1-0.1-0.2-0.1-0.4-0.1l-2.6,1.8c-0.1,0.1-0.1,0.3-0.1,0.4l1.7,2.6
	c0.1,0.1,0.2,0.2,0.4,0.1l2.8-1.8c0.1,0,0.1-0.1,0.1-0.2C467.8,431,467.8,430.9,467.7,430.8z"/>
<path class="st16" d="M521.7,400.9l-1.8-2.6c-0.2-0.3-0.6-0.4-0.9-0.2l-7,5c-0.3,0.2-0.4,0.6-0.2,0.9l1.7,2.7
	c0.1,0.1,0.2,0.3,0.4,0.3c0.2,0,0.3,0,0.5-0.1l7-5.1C521.8,401.6,521.9,401.2,521.7,400.9z"/>
<path class="st16" d="M475.7,432.2l-2.1-3.1c0-0.1-0.1-0.1-0.2-0.1c-0.1,0-0.2,0-0.2,0.1l-7.3,5.2c-0.1,0.1-0.2,0.3-0.1,0.4l2,3.2
	c0,0.1,0.1,0.1,0.2,0.1c0.1,0,0.2,0,0.2,0l7.4-5.3C475.8,432.6,475.8,432.4,475.7,432.2L475.7,432.2z"/>
<path class="st16" d="M499.7,409.1l-1.9-2.9c-0.1-0.1-0.3-0.2-0.4-0.1l-16.4,11.2c-0.1,0-0.1,0.1-0.1,0.2s0,0.2,0,0.2l2,3.2
	c0,0.1,0.1,0.1,0.2,0.1c0.1,0,0.2,0,0.2,0l16.4-11.5C499.8,409.4,499.8,409.2,499.7,409.1z"/>
<path class="st10" d="M500.5,398.7l-9-12.9c-0.5-0.7-1.5-0.9-2.3-0.4l-24.7,16.4c-0.4,0.2-0.6,0.6-0.7,1.1c-0.1,0.4,0,0.9,0.3,1.2
	l9.1,13.3c0.2,0.4,0.6,0.6,1.1,0.7c0.4,0.1,0.9,0,1.3-0.3l24.5-16.8c0.4-0.2,0.6-0.6,0.7-1.1C500.8,399.5,500.7,399,500.5,398.7z"/>
<path class="st18" d="M500.5,398.7l-9-12.9c-0.5-0.7-1.5-0.9-2.3-0.4l-24.7,16.4c-0.4,0.2-0.6,0.6-0.7,1.1s0,0.9,0.3,1.2l9.1,13.3
	c0.2,0.4,0.6,0.6,1.1,0.7c0.4,0.1,0.9,0,1.3-0.3l24.6-16.8c0.4-0.2,0.6-0.6,0.7-1.1C500.8,399.5,500.7,399,500.5,398.7z"/>
<path class="st2" d="M554.3,419.3l-18.7-6.3l-59.8,41.8l18.5,6.1c1,0.3,2.1,0.2,3-0.4l57.2-39.9c0.2-0.1,0.4-0.4,0.3-0.7
	C554.7,419.6,554.5,419.4,554.3,419.3z"/>
</svg>
