<?xml version="1.0" encoding="UTF-8"?><svg id="a" xmlns="http://www.w3.org/2000/svg" viewBox="0 0 10 10"><defs><style>.b,.c{fill:#bdc8da;}.c{fill-rule:evenodd;}</style></defs><path class="b" d="M4.98,.58C2.58,.58,.63,2.52,.63,4.92s1.95,4.35,4.35,4.35,4.35-1.95,4.35-4.35S7.38,.58,4.98,.58Zm0,7.96c-2,0-3.62-1.62-3.62-3.62S2.98,1.31,4.98,1.31s3.62,1.62,3.62,3.62-1.62,3.62-3.62,3.62Z"/><g><path class="c" d="M6.18,6.12l-.27-.25c.06-.27,.28-.57,.44-.8h0l.22-.12,.16-.18-.19,.12-.22-.07-.22,.1c-.21-.17-.25-.52-.26-.89l.36-.23,.32-.05,.15-.52-.21,.45-.44-.07-.44,.27c-.23-.1-.46-.18-.69-.28l-.27-.69-.14-.62,.11,.73,.07,.49c0,.13-.02,.23-.07,.31-.22,.03-.42,.13-.57,.28-.09,0-.18-.01-.26-.04l-.41,.5-.19,.31-.38,.16-.17,.3,.23-.18,.33-.07,.23-.19c.06,0,.11,.03,.15,.06,0,.04,0,.09,0,.14,0,.24,.08,.46,.21,.64-.01,.03-.03,.06-.05,.08l-.2,.09-.65,.83,.77-.59,.37-.14c.24,.14,.44,.33,.75,.41,.04-.04,.1-.09,.16-.13,.03,0,.05,0,.08,0,.22,0,.42-.07,.58-.2,.11,0,.21,0,.29,.04,0,.02,.02,.04,.04,.04l.17,.08,.28-.03s0,.1,.07,.18,.19,.14,.19,.14l-.19-.44h-.21Z"/><path class="c" d="M4.89,6.09c-.59,0-1.08-.5-1.08-1.12,0-.22,.06-.43,.17-.6-.14,.19-.22,.43-.22,.69,0,.62,.48,1.12,1.08,1.12,.38,0,.72-.21,.91-.52-.2,.27-.51,.44-.85,.44h0Z"/></g></svg>