<svg width="14" height="3" viewBox="0 0 14 3" fill="none" xmlns="http://www.w3.org/2000/svg">
<path d="M1.375 0.125C1.05859 0.125 0.789062 0.236328 0.566406 0.458984C0.355469 0.669922 0.25 0.933594 0.25 1.25C0.25 1.56641 0.355469 1.83594 0.566406 2.05859C0.789062 2.26953 1.05859 2.375 1.375 2.375C1.69141 2.375 1.95508 2.26953 2.16602 2.05859C2.38867 1.83594 2.5 1.56641 2.5 1.25C2.5 0.933594 2.38867 0.669922 2.16602 0.458984C1.95508 0.236328 1.69141 0.125 1.375 0.125ZM7 0.125C6.68359 0.125 6.41406 0.236328 6.19141 0.458984C5.98047 0.669922 5.875 0.933594 5.875 1.25C5.875 1.56641 5.98047 1.83594 6.19141 2.05859C6.41406 2.26953 6.68359 2.375 7 2.375C7.31641 2.375 7.58008 2.26953 7.79102 2.05859C8.01367 1.83594 8.125 1.56641 8.125 1.25C8.125 0.933594 8.01367 0.669922 7.79102 0.458984C7.58008 0.236328 7.31641 0.125 7 0.125ZM12.625 0.125C12.3086 0.125 12.0391 0.236328 11.8164 0.458984C11.6055 0.669922 11.5 0.933594 11.5 1.25C11.5 1.56641 11.6055 1.83594 11.8164 2.05859C12.0391 2.26953 12.3086 2.375 12.625 2.375C12.9414 2.375 13.2051 2.26953 13.416 2.05859C13.6387 1.83594 13.75 1.56641 13.75 1.25C13.75 0.933594 13.6387 0.669922 13.416 0.458984C13.2051 0.236328 12.9414 0.125 12.625 0.125Z" fill="#9C9C9C"/>
</svg>
