<svg width="34" height="23" viewBox="0 0 34 23" fill="none" xmlns="http://www.w3.org/2000/svg">
	<g style="mix-blend-mode:multiply">
		<path d="M4 15L15.1407 15C16.3649 15 17.5217 14.4394 18.2803 13.4785L21.0434 9.97852C22.1906 8.5253 22.1906 6.4747 21.0434 5.02148L18.2803 1.52148C17.5217 0.560604 16.3649 -3.43366e-07 15.1407 -4.06719e-07L4 -9.83254e-07C1.79086 -1.09758e-06 -6.61209e-08 1.79086 -1.47685e-07 4L-4.06134e-07 11C-4.87699e-07 13.2091 1.79086 15 4 15Z" fill="#9C9C9C" />
	</g>
	<g style="mix-blend-mode:multiply">
		<path d="M30 8L18.8593 8C17.6351 8 16.4783 8.5606 15.7197 9.52148L12.9566 13.0215C11.8094 14.4747 11.8094 16.5253 12.9566 17.9785L15.7197 21.4785C16.4783 22.4394 17.6351 23 18.8593 23L30 23C32.2091 23 34 21.2091 34 19L34 12C34 9.79086 32.2091 8 30 8Z" fill="#3E4244" />
	</g>
	<g style="mix-blend-mode:multiply">
		<path d="M3 16C3 17.6569 4.34315 19 6 19C7.65685 19 9 17.6569 9 16C9 14.3431 7.65685 13 6 13C4.34315 13 3 14.3431 3 16Z" fill="#9C9C9C" />
	</g>
</svg>
