<svg width="12" height="13" viewBox="0 0 12 13" fill="none" xmlns="http://www.w3.org/2000/svg">
	<path fill-rule="evenodd" clip-rule="evenodd" d="M12 6.5C12 9.81375 9.31384 12.5 6 12.5C2.68616 12.5 0 9.81375 0 6.5C0 3.18625 2.68616 0.5 6 0.5C9.31384 0.5 12 3.18625 12 6.5ZM4.70239 5.15747H6.82398V9.67688C6.82398 10.1144 6.46933 10.469 6.03186 10.469C5.59439 10.469 5.23975 10.1144 5.23975 9.67688V6.56226H4.70239C4.31447 6.56226 4 6.24778 4 5.85986C4 5.47194 4.31447 5.15747 4.70239 5.15747ZM5.00977 3.43247C5.00977 3.30778 5.03192 3.19149 5.07587 3.08359C5.12345 2.97236 5.18773 2.87629 5.26909 2.79539C5.35044 2.71449 5.44524 2.65048 5.55383 2.60326C5.60323 2.5824 5.65408 2.56615 5.70674 2.5545C5.77357 2.53987 5.84294 2.53247 5.91485 2.53247C6.03688 2.53247 6.15202 2.55604 6.26061 2.60326C6.29003 2.61599 6.31836 2.62998 6.3456 2.64515C6.41933 2.68623 6.4858 2.73634 6.54536 2.79539C6.62671 2.87629 6.691 2.97236 6.73858 3.08359C6.76328 3.13984 6.7818 3.19835 6.79342 3.25912C6.80432 3.315 6.80977 3.37279 6.80977 3.43247C6.80977 3.49965 6.80287 3.56492 6.78906 3.62822C6.77744 3.68239 6.76037 3.73512 6.73858 3.7864C6.691 3.8943 6.62671 3.98865 6.54536 4.06955C6.50359 4.11099 6.45856 4.14801 6.40989 4.1806C6.3634 4.21157 6.31364 4.23866 6.26061 4.26168C6.15202 4.30891 6.03688 4.33247 5.91485 4.33247C5.85129 4.33247 5.78991 4.32678 5.73071 4.31532C5.66933 4.30358 5.61049 4.2857 5.55383 4.26168C5.44524 4.21446 5.35044 4.15045 5.26909 4.06955C5.18773 3.98865 5.12345 3.8943 5.07587 3.7864C5.03192 3.67517 5.00977 3.55716 5.00977 3.43247Z" fill="#3E4244" />
</svg>
