<svg width="98" height="27" viewBox="0 0 98 27" fill="none" xmlns="http://www.w3.org/2000/svg">
	<path d="M2 24.8571C3.6207 24.043 5.31708 23.609 7.05379 23.1647C9.03684 22.6574 11.0725 22.1366 13.1081 21.0211C14.2888 20.428 15.5097 19.5929 16.7434 18.7489C19.1368 17.1117 21.5785 15.4414 23.8691 15.4414C26.2985 15.4414 28.5874 16.9942 30.9146 18.573C32.2452 19.4757 33.5882 20.3868 34.9772 21.0211C38.4485 23.1135 42.267 23.1135 45.7382 18.2312C47.3444 16.3243 48.9506 13.5535 50.5309 10.8273C52.7076 7.07231 54.8352 3.40191 56.8464 2.18966C59.3969 1.02499 61.7925 3.12769 64.2402 5.27606C65.457 6.34404 66.6866 7.4233 67.9545 8.11807C69.6902 8.9899 71.5126 8.9899 73.335 8.9899C75.1574 8.9899 76.9799 8.9899 78.7155 9.86172C80.3233 10.5959 81.9311 12.0102 83.513 13.4017C85.688 15.3149 87.814 17.1851 89.8236 17.1851C91.7328 17.1851 93.5553 15.7901 95.3777 14.3952C95.5851 14.2365 95.7925 14.0777 96 13.921" stroke="#1E55A9" stroke-width="3" stroke-linecap="round" />
</svg>
