<svg width="18" height="21" viewBox="0 0 18 21" fill="none" xmlns="http://www.w3.org/2000/svg">
	<path d="M15.2214 0.580002H2.82137C1.62254 0.580002 0.651367 1.55117 0.651367 2.75V16.7738L4.06137 20.1838L6.54137 17.7038L9.02137 20.1838L11.5014 17.7038L13.9814 20.1838L17.3914 16.7738V2.75C17.3914 2.1748 17.1625 1.62262 16.7556 1.21575C16.3487 0.808875 15.7965 0.580002 15.2214 0.580002ZM15.5314 16.0062L13.9814 17.5562L11.5014 15.0762L9.02137 17.5562L6.54137 15.0762L4.06137 17.5562L2.51137 16.0062V2.75C2.51137 2.57926 2.65063 2.44 2.82137 2.44H15.2214C15.3037 2.44 15.3824 2.4727 15.4405 2.53082C15.4987 2.58895 15.5314 2.66766 15.5314 2.75V16.0062Z" fill="#1E55A9" />
	<path d="M4.68164 5.85001H9.02164V7.71001H4.68164V5.85001Z" fill="#1E55A9" />
	<path d="M4.68164 10.19H9.02164V12.05H4.68164V10.19Z" fill="#1E55A9" />
	<path d="M11.501 10.19H13.361V12.05H11.501V10.19Z" fill="#1E55A9" />
	<path d="M11.501 5.85001H13.361V7.71001H11.501V5.85001Z" fill="#1E55A9" />
</svg>
