<svg width="24" height="24" viewBox="0 0 24 24" fill="none" xmlns="http://www.w3.org/2000/svg">
	<g style="mix-blend-mode:multiply">
		<path d="M4.36234 21.84C6.69285 21.84 8.5821 19.9059 8.5821 17.52C8.5821 15.1341 6.69285 13.2 4.36234 13.2C2.03183 13.2 0.142578 15.1341 0.142578 17.52C0.142578 19.9059 2.03183 21.84 4.36234 21.84Z" fill="#4B40D1" />
	</g>
	<path d="M9.21793 17.1134L23.0042 11.751C19.9382 6.33271 14.7837 2.20862 8.61719 0.23999L4.05636 13.5009C6.13372 14.1626 7.942 15.4282 9.21793 17.1134Z" fill="#4ACBD3" />
	<g style="mix-blend-mode:multiply">
		<path d="M7.68575 19.6544L18.0385 24.2716C19.6012 19.7837 19.3138 14.8486 17.2363 10.4969L7.09552 14.9833C7.79623 16.4485 8.00301 18.0849 7.68575 19.6544Z" fill="#1E55A9" />
	</g>
</svg>
