<?xml version="1.0" encoding="UTF-8"?><svg id="a" xmlns="http://www.w3.org/2000/svg" viewBox="0 0 10 10"><defs><style>.b,.c{fill:#bdc8da;}.c{fill-rule:evenodd;}</style></defs><path class="b" d="M4.93,.65C2.53,.65,.59,2.6,.59,5s1.95,4.35,4.35,4.35,4.35-1.95,4.35-4.35S7.33,.65,4.93,.65Zm0,7.96c-2,0-3.62-1.62-3.62-3.62S2.94,1.38,4.93,1.38s3.62,1.62,3.62,3.62-1.62,3.62-3.62,3.62Z"/><path class="c" d="M6,4.1c.31,.22,1.13,.2,1.13,.2,0,0-.77,.33-.79,.68-.02,.35,.25,1.1,.25,1.1,0,0-.27-.36-.48-.28-.21,.08-.28,.93-.28,.9h0c-.06-.13-.15-.24-.25-.34-.15-.13-.34-.28-.34-.28,.07-.04,.15-.05,.23-.03,.07,.02,.12,.06,.17,.11,.02-.14,.08-.28,.17-.39,.14-.16,.42-.17,.42-.17,0,0-.22-.18-.14-.54,.08-.36,.23-.54,.23-.54,0,0-.42,.08-.56-.25-.15-.33,0-.68,0-.68,0,0-.32,.23-.56,.08s-.39-.48-.39-.48c0,0-.13,.16-.23,.2h0c-.07,.03-.15,.04-.23,.06,.09-.13,.16-.26,.23-.39,.06-.15,.25-.54,.25-.54,0,0,.16,.84,.51,.87,.35,.04,1.07-.28,1.07-.28,0,0-.71,.77-.4,.99h0Zm-1.28-.48c.23,.03,.37,.18,.48,.32,.06,.07,.08,.17,.05,.27,0,0-.37-.2-.51-.22-.16-.02-.43,.11-.43,.11,.16,0,.31,0,.47,.02,.17,.03,.53,.17,.57,.24,.04,.07,.07,.19,0,.27-.03,.03-.31-.17-.46-.2-.2-.04-.48,.17-.48,.17,.16-.04,.32-.05,.48-.03,.21,.03,.53,.2,.57,.25,.08,.1,0,.23-.06,.29-.08-.03-.25-.18-.39-.21-.16-.04-.43,.12-.43,.13,0,0,.37-.01,.47,0s.39,.22,.4,.27c.03,.09-.02,.22-.13,.43-.08,.15-.2,.27-.43,.24h0c-.07,0-.13-.06-.14-.12,0-.03-.02-.09,.11-.2,.06-.05,.23-.07,.25-.1,.02-.05-.29-.05-.29-.05,0-.04-.11,.16-.11,.16s-.17,.46-.32,.67c-.15,.21-.34,.4-.51,.48s-.35-.05-.64-.21c-.29-.17-.4-.72-.37-.96,.03-.23,.38-.93,.49-1.25,.1-.32,.13-.38,.29-.45,.16-.07,.84-.33,1.06-.3h0Z"/></svg>