<svg width="14" height="14" viewBox="0 0 14 14" fill="none" xmlns="http://www.w3.org/2000/svg">
	<path fill-rule="evenodd" clip-rule="evenodd" d="M1.6875 3.37499C1.22916 3.37499 0.833331 3.20833 0.499999 2.87499C0.166666 2.54166 0 2.14583 0 1.6875C0 1.22916 0.166666 0.833331 0.499999 0.499999C0.833331 0.166666 1.22916 0 1.6875 0C2.14583 0 2.54166 0.166666 2.87499 0.499999C3.20833 0.833331 3.37499 1.22916 3.37499 1.6875C3.37499 2.14583 3.20833 2.54166 2.87499 2.87499C2.54166 3.20833 2.14583 3.37499 1.6875 3.37499ZM3.12499 14H0.218749V4.65624H3.12499V14ZM11.0937 14H14V8.87498C14 7.43748 13.7916 6.37498 13.375 5.68749C12.8333 4.83332 11.8854 4.40624 10.5312 4.40624C9.86456 4.40624 9.28123 4.57291 8.78123 4.90624C8.3229 5.17707 7.98956 5.52082 7.78123 5.93749H7.74998V4.65624H4.96874V14H7.84373V9.37498C7.84373 8.64581 7.9479 8.09373 8.15623 7.71873C8.42706 7.21873 8.89581 6.96873 9.56248 6.96873C10.2291 6.96873 10.6771 7.24998 10.9062 7.81248C11.0312 8.14581 11.0937 8.68748 11.0937 9.43748V14Z" fill="#1E55A9" />
</svg>
