<?xml version="1.0" encoding="UTF-8"?><svg id="a" xmlns="http://www.w3.org/2000/svg" viewBox="0 0 10 10"><defs><style>.b{fill:#bdc8da;}</style></defs><path class="b" d="M4.93,.8C2.53,.8,.58,2.75,.58,5.15s1.95,4.35,4.35,4.35,4.35-1.95,4.35-4.35S7.33,.8,4.93,.8Zm0,7.96c-2,0-3.62-1.62-3.62-3.62S2.93,1.53,4.93,1.53s3.62,1.62,3.62,3.62-1.62,3.62-3.62,3.62Z"/><g><path class="b" d="M3.14,6.01c0,.49,.9,.74,1.79,.74s1.8-.25,1.8-.74c0-.22-.19-.4-.49-.52-.05,.11-.11,.21-.18,.31,.21,.08,.32,.16,.32,.22,0,.12-.51,.39-1.44,.39s-1.44-.27-1.44-.39c0-.05,.11-.14,.32-.22-.07-.09-.14-.2-.18-.31-.29,.12-.48,.3-.48,.52h0Z"/><path class="b" d="M6.36,4.86v.05c0,.11-.01,.22-.04,.32,.46,.19,.76,.48,.76,.79,0,.56-.99,1.04-2.16,1.04s-2.15-.48-2.15-1.04c0-.31,.3-.59,.76-.79-.02-.1-.04-.21-.04-.32v-.05c-.65,.25-1.07,.67-1.07,1.15,0,.78,1.1,1.39,2.51,1.39s2.51-.61,2.51-1.39c0-.49-.42-.9-1.08-1.15h0Z"/><path class="b" d="M4.93,5.95c.57,0,1.03-.46,1.03-1.03,0-.65-.61-1.56-.9-1.95-.07-.1-.21-.1-.28,0-.29,.39-.9,1.3-.9,1.95,0,.57,.47,1.03,1.04,1.03h0Z"/></g></svg>