<svg width="31" height="32" viewBox="0 0 31 32" fill="none" xmlns="http://www.w3.org/2000/svg">
	<path d="M3.84 13.8399H10.2C11.9556 13.8399 13.38 12.3886 13.38 10.5999V4.11988C13.38 2.33113 11.9556 0.879883 10.2 0.879883H3.84C2.08438 0.879883 0.660004 2.33113 0.660004 4.11988V10.5999C0.660004 12.3886 2.08438 13.8399 3.84 13.8399ZM4.9 5.19988H9.14V9.51988H4.9V5.19988Z" fill="#CAD4E3" />
	<path d="M0.660004 27.8799C0.660004 29.6687 2.08438 31.1199 3.84 31.1199H10.2C11.9556 31.1199 13.38 29.6687 13.38 27.8799V21.3999C13.38 19.6112 11.9556 18.1599 10.2 18.1599H3.84C2.08438 18.1599 0.660004 19.6112 0.660004 21.3999V27.8799ZM4.9 22.4799H9.14V26.7999H4.9V22.4799Z" fill="#CAD4E3" />
	<path d="M27.16 13.8399C28.9156 13.8399 30.34 12.3886 30.34 10.5999V4.11988C30.34 2.33113 28.9156 0.879883 27.16 0.879883H20.8C19.0444 0.879883 17.62 2.33113 17.62 4.11988V10.5999C17.62 12.3886 19.0444 13.8399 20.8 13.8399H27.16ZM21.86 5.19988H26.1V9.51988H21.86V5.19988Z" fill="#CAD4E3" />
	<path d="M21.86 22.48H26.1V26.8H21.86V22.48Z" fill="#CAD4E3" />
	<path d="M26.1 18.1599H30.34V22.4799H26.1V18.1599Z" fill="#CAD4E3" />
	<path d="M17.62 18.1599H21.86V22.4799H17.62V18.1599Z" fill="#CAD4E3" />
	<path d="M26.1 26.7998H30.34V31.1198H26.1V26.7998Z" fill="#CAD4E3" />
	<path d="M17.62 26.7998H21.86V31.1198H17.62V26.7998Z" fill="#CAD4E3" />
</svg>
