<svg width="22" height="22" viewBox="0 0 22 22" fill="none" xmlns="http://www.w3.org/2000/svg">
	<path d="M15.8126 9.31658V6.42908C15.8126 3.77544 13.6539 1.61658 11.0001 1.61658C8.34636 1.61658 6.18761 3.77533 6.18761 6.42908V9.31658C4.8616 9.31658 3.78125 10.3968 3.78125 11.7229V17.9793C3.78125 19.3053 4.86149 20.3857 6.18761 20.3857H15.8126C17.1386 20.3857 18.219 19.3054 18.219 17.9793V11.7229C18.219 10.3952 17.1387 9.31658 15.8126 9.31658ZM7.15011 6.42732C7.15011 4.30467 8.87746 2.57732 11.0001 2.57732C13.1228 2.57732 14.8501 4.30467 14.8501 6.42732V9.31482H7.15011V6.42732ZM17.2565 17.9773C17.2565 18.774 16.6094 19.4211 15.8127 19.4211H6.18772C5.39108 19.4211 4.74397 18.774 4.74397 17.9773V11.721C4.74397 10.9243 5.39108 10.2772 6.18772 10.2772H15.8127C16.6094 10.2772 17.2565 10.9243 17.2565 11.721V17.9773Z" fill="#1E55A9" />
</svg>
