<svg width="58" height="58" viewBox="0 0 58 58" fill="none" xmlns="http://www.w3.org/2000/svg">
	<path d="M15.7071 22.9576V13.3922C15.7071 6.66303 21.6568 1.20755 28.9996 1.20755C36.3401 1.20755 42.292 6.66773 42.292 13.3922V22.9576H44.9881C47.5029 22.9576 49.542 25.1258 49.542 27.7878V51.9622C49.542 54.6289 47.503 56.7925 44.9881 56.7925H13.011C10.4961 56.7925 8.45703 54.6243 8.45703 51.9622V27.7878C8.45703 25.1212 10.4961 22.9576 13.011 22.9576H15.7071ZM13.292 27.7924V51.9575H44.7071V27.7924H13.292ZM37.4571 22.9576V13.3922C37.4571 9.43415 33.7573 6.04243 28.9995 6.04243C24.2372 6.04243 20.542 9.42951 20.542 13.3922V22.9576H37.4571ZM26.5821 36.9367C26.5821 35.6022 27.656 34.5215 28.9995 34.5215C30.334 34.5215 31.417 35.5932 31.417 36.9367V44.189C31.417 45.5235 30.343 46.6042 28.9995 46.6042C27.6651 46.6042 26.5821 45.5325 26.5821 44.189V36.9367Z" fill="#3E4244" />
</svg>
