<svg width="25" height="30" viewBox="0 0 25 30" fill="none" xmlns="http://www.w3.org/2000/svg">
	<g clip-path="url(#clip0_4102_3863)">
		<path fill-rule="evenodd" clip-rule="evenodd" d="M4.25716 1.61676C5.38572 1.61834 6.4676 2.05416 7.26562 2.82867C8.06364 3.60318 8.51268 4.65318 8.51431 5.7485V25.8683C8.51268 26.9636 8.06364 28.0136 7.26562 28.7881C6.4676 29.5626 5.38572 29.9984 4.25716 30C3.12859 29.9984 2.04671 29.5626 1.2487 28.7881C0.450677 28.0136 0.00163206 26.9636 0 25.8683V5.7485C0.00163206 4.65318 0.450677 3.60318 1.2487 2.82867C2.04671 2.05416 3.12859 1.61834 4.25716 1.61676Z" fill="white" />
		<path fill-rule="evenodd" clip-rule="evenodd" d="M4.25716 0.419159C5.38573 0.420743 6.4676 0.856558 7.26562 1.63107C8.06364 2.40557 8.51268 3.45558 8.51431 4.5509V25.8683C8.51268 26.9636 8.06364 28.0136 7.26562 28.7881C6.4676 29.5626 5.38573 29.9984 4.25716 30C3.12859 29.9984 2.04671 29.5626 1.2487 28.7881C0.450677 28.0136 0.00163206 26.9636 0 25.8683V4.5509C0.00163206 3.45558 0.450677 2.40557 1.2487 1.63107C2.04671 0.856558 3.12859 0.420743 4.25716 0.419159Z" fill="white" />
		<path fill-rule="evenodd" clip-rule="evenodd" d="M1.78924 0.898187C2.2386 0.578899 2.74847 0.348822 3.28963 0.221142C3.83079 0.0934622 4.39259 0.0706907 4.94283 0.154133C5.49307 0.237575 6.02093 0.425591 6.49616 0.707402C6.97139 0.989214 7.38465 1.35928 7.71224 1.79639L24.1856 23.4132C24.5146 23.8493 24.7516 24.3441 24.8832 24.8694C25.0147 25.3946 25.0382 25.9398 24.9522 26.4738C24.8662 27.0079 24.6725 27.5202 24.3822 27.9814C24.0918 28.4426 23.7105 28.8437 23.2601 29.1617C22.8107 29.4809 22.3009 29.711 21.7597 29.8387C21.2186 29.9664 20.6568 29.9892 20.1065 29.9057C19.5563 29.8223 19.0284 29.6343 18.5532 29.3524C18.078 29.0706 17.6647 28.7006 17.3371 28.2635L0.863769 6.64669C0.529966 6.21233 0.28885 5.71767 0.154552 5.1917C0.0202538 4.66573 -0.00452515 4.11904 0.0816672 3.58366C0.16786 3.04828 0.363289 2.53499 0.656504 2.07385C0.949718 1.61272 1.33482 1.21302 1.78924 0.898187Z" fill="white" />
		<path d="M20.6688 0C19.5402 0.00158398 18.4583 0.437399 17.6603 1.21191C16.8623 1.98642 16.4133 3.03642 16.4116 4.13174C16.4133 5.22706 16.8623 6.27706 17.6603 7.05157C18.4583 7.82607 19.5402 8.26189 20.6688 8.26347C21.7973 8.26189 22.8792 7.82607 23.6772 7.05157C24.4753 6.27706 24.9243 5.22706 24.9259 4.13174C24.9243 3.03642 24.4753 1.98642 23.6772 1.21191C22.8792 0.437399 21.7973 0.00158398 20.6688 0ZM22.5814 4.13174C22.5782 4.62309 22.3756 5.09342 22.0176 5.44086C21.6597 5.7883 21.175 5.98488 20.6688 5.98802C20.1625 5.98488 19.6779 5.7883 19.3199 5.44086C18.9619 5.09342 18.7594 4.62309 18.7561 4.13174C18.7594 3.64039 18.9619 3.17006 19.3199 2.82261C19.6779 2.47517 20.1625 2.27859 20.6688 2.27545C21.175 2.27859 21.6597 2.47517 22.0176 2.82261C22.3756 3.17006 22.5782 3.64039 22.5814 4.13174Z" fill="white" />
	</g>
	<defs>
		<clipPath id="clip0_4102_3863">
			<rect width="25" height="30" fill="white" />
		</clipPath>
	</defs>
</svg>
