<svg width="177" height="51" viewBox="0 0 177 51" fill="none" xmlns="http://www.w3.org/2000/svg">
	<path d="M17.9543 10.3887C21.8142 10.3887 24.9333 11.6143 27.3116 14.0656C29.6899 16.478 30.8791 19.8631 30.8791 24.2209L30.8791 43.189H22.6914L22.6914 25.3298C22.6914 22.7618 22.0481 20.7969 20.7615 19.4351C19.4749 18.0343 17.7204 17.334 15.498 17.334C13.2367 17.334 11.4432 18.0343 10.1176 19.4351C8.83095 20.7969 8.18763 22.7618 8.18763 25.3298L8.18763 43.189H0L0 10.8556L8.18763 10.8556V14.8827C9.27932 13.482 10.6634 12.3925 12.3399 11.6143C14.0554 10.7973 15.9269 10.3887 17.9543 10.3887Z" fill="#3E4244" />
	<path d="M53.0519 43.7143C49.9328 43.7143 47.1256 43.0334 44.6304 41.6716C42.1351 40.2708 40.1662 38.3059 38.7236 35.7768C37.32 33.2478 36.6182 30.3296 36.6182 27.0223C36.6182 23.715 37.3395 20.7969 38.7821 18.2678C40.2636 15.7387 42.2715 13.7932 44.8058 12.4314C47.3401 11.0307 50.1668 10.3303 53.2859 10.3303C56.405 10.3303 59.2316 11.0307 61.7659 12.4314C64.3002 13.7932 66.2886 15.7387 67.7312 18.2678C69.2128 20.7969 69.9535 23.715 69.9535 27.0223C69.9535 30.3296 69.1933 33.2478 67.6727 35.7768C66.1911 38.3059 64.1637 40.2708 61.5905 41.6716C59.0562 43.0334 56.21 43.7143 53.0519 43.7143ZM53.0519 36.5939C54.5335 36.5939 55.9176 36.2438 57.2042 35.5434C58.5298 34.8041 59.5825 33.7147 60.3623 32.275C61.1421 30.8354 61.532 29.0845 61.532 27.0223C61.532 23.9485 60.7132 21.5945 59.0757 19.9603C57.4771 18.2872 55.5082 17.4507 53.1689 17.4507C50.8296 17.4507 48.8606 18.2872 47.2621 19.9603C45.7026 21.5945 44.9228 23.9485 44.9228 27.0223C44.9228 30.0961 45.6831 32.4696 47.2036 34.1427C48.7632 35.7768 50.7126 36.5939 53.0519 36.5939Z" fill="#3E4244" />
	<path d="M73.8541 26.9056C73.8541 23.6372 74.4974 20.7385 75.784 18.2094C77.1096 15.6803 78.9031 13.7349 81.1645 12.3731C83.4258 11.0113 85.9406 10.3303 88.7088 10.3303C90.8142 10.3303 92.8221 10.7973 94.7326 11.7311C96.643 12.626 98.1636 13.8322 99.2942 15.3496V0L107.599 0V43.189H99.2942V38.4032C98.2805 39.9985 96.8574 41.2825 95.025 42.2552C93.1925 43.2279 91.0676 43.7143 88.6503 43.7143C85.9211 43.7143 83.4258 43.0139 81.1645 41.6132C78.9031 40.2125 77.1096 38.2476 75.784 35.7185C74.4974 33.1505 73.8541 30.2129 73.8541 26.9056ZM99.3527 27.0223C99.3527 25.038 98.9628 23.3454 98.1831 21.9447C97.4033 20.5051 96.3506 19.4156 95.025 18.6763C93.6994 17.8981 92.2763 17.5091 90.7557 17.5091C89.2351 17.5091 87.8315 17.8787 86.5449 18.618C85.2583 19.3572 84.2056 20.4467 83.3868 21.8863C82.6071 23.287 82.2172 24.9601 82.2172 26.9056C82.2172 28.851 82.6071 30.563 83.3868 32.0416C84.2056 33.4812 85.2583 34.5901 86.5449 35.3683C87.8705 36.1465 89.2741 36.5356 90.7557 36.5356C92.2763 36.5356 93.6994 36.1659 95.025 35.4267C96.3506 34.6485 97.4033 33.559 98.1831 32.1583C98.9628 30.7187 99.3527 29.0067 99.3527 27.0223Z" fill="#3E4244" />
	<path d="M145.714 26.3219C145.714 27.4892 145.636 28.5398 145.48 29.4736L121.795 29.4736C121.99 31.8081 122.808 33.6368 124.251 34.9598C125.694 36.2827 127.468 36.9441 129.573 36.9441C132.614 36.9441 134.778 35.6407 136.065 33.0338H144.896C143.96 36.1465 142.166 38.7145 139.515 40.7377C136.864 42.7221 133.608 43.7143 129.748 43.7143C126.629 43.7143 123.822 43.0334 121.327 41.6716C118.871 40.2708 116.941 38.3059 115.537 35.7768C114.172 33.2478 113.49 30.3296 113.49 27.0223C113.49 23.6761 114.172 20.7385 115.537 18.2094C116.902 15.6803 118.812 13.7349 121.268 12.3731C123.725 11.0113 126.551 10.3303 129.748 10.3303C132.829 10.3303 135.577 10.9918 137.994 12.3147C140.451 13.6376 142.342 15.5247 143.667 17.976C145.032 20.3883 145.714 23.1703 145.714 26.3219ZM137.234 23.9874C137.195 21.8863 136.435 20.2132 134.953 18.9681C133.472 17.6841 131.659 17.0422 129.514 17.0422C127.487 17.0422 125.772 17.6647 124.368 18.9098C123.003 20.116 122.165 21.8085 121.853 23.9874H137.234Z" fill="#3E4244" />
	<path d="M147.494 12.6286V12.8704H146.742V15.5429H146.47V12.8704H145.714V12.6286H147.494Z" fill="black" />
	<path d="M150.571 12.6661V15.5429H150.3V13.2456L149.346 15.5429H149.148L148.194 13.254V15.5429H147.923V12.6661H148.21L149.245 15.1593L150.281 12.6661H150.571Z" fill="black" />
	<path d="M144.534 45.739C144.187 45.739 143.894 45.619 143.654 45.379C143.414 45.139 143.294 44.8457 143.294 44.499C143.294 44.1524 143.414 43.859 143.654 43.619C143.894 43.379 144.187 43.259 144.534 43.259C144.867 43.259 145.147 43.379 145.374 43.619C145.614 43.859 145.734 44.1524 145.734 44.499C145.734 44.8457 145.614 45.139 145.374 45.379C145.147 45.619 144.867 45.739 144.534 45.739ZM149.093 32.879C148.746 32.879 148.453 32.759 148.213 32.519C147.973 32.279 147.853 31.9857 147.853 31.639C147.853 31.2924 147.973 30.999 148.213 30.759C148.453 30.519 148.746 30.399 149.093 30.399C149.426 30.399 149.706 30.519 149.933 30.759C150.173 30.999 150.293 31.2924 150.293 31.639C150.293 31.9857 150.173 32.279 149.933 32.519C149.706 32.759 149.426 32.879 149.093 32.879ZM149.973 34.659V45.619H148.153V34.659H149.973ZM158.415 34.459C159.748 34.459 160.828 34.8657 161.655 35.679C162.481 36.479 162.895 37.639 162.895 39.159V45.619H161.095V39.419C161.095 38.3257 160.821 37.4924 160.275 36.919C159.728 36.3324 158.981 36.039 158.035 36.039C157.075 36.039 156.308 36.339 155.735 36.939C155.175 37.539 154.895 38.4124 154.895 39.559V45.619H153.075V34.659H154.895V36.219C155.255 35.659 155.741 35.2257 156.355 34.919C156.981 34.6124 157.668 34.459 158.415 34.459ZM165.188 40.119C165.188 38.9857 165.414 37.999 165.868 37.159C166.321 36.3057 166.948 35.6457 167.748 35.179C168.561 34.7124 169.488 34.479 170.528 34.479C171.874 34.479 172.981 34.8057 173.848 35.459C174.728 36.1124 175.308 37.019 175.588 38.179H173.628C173.441 37.5124 173.074 36.9857 172.528 36.599C171.994 36.2124 171.328 36.019 170.528 36.019C169.488 36.019 168.648 36.379 168.008 37.099C167.368 37.8057 167.048 38.8124 167.048 40.119C167.048 41.439 167.368 42.459 168.008 43.179C168.648 43.899 169.488 44.259 170.528 44.259C171.328 44.259 171.994 44.0724 172.528 43.699C173.061 43.3257 173.428 42.7924 173.628 42.099H175.588C175.294 43.219 174.708 44.119 173.828 44.799C172.948 45.4657 171.848 45.799 170.528 45.799C169.488 45.799 168.561 45.5657 167.748 45.099C166.948 44.6324 166.321 43.9724 165.868 43.119C165.414 42.2657 165.188 41.2657 165.188 40.119Z" fill="#3E4244" />
</svg>
