<svg width="63" height="41" viewBox="0 0 63 41" fill="none" xmlns="http://www.w3.org/2000/svg">
	<path d="M19.5835 41H43.4285C54.2018 41 63.012 31.8256 63.012 20.5061C63.012 9.18652 54.2377 0 43.4285 0H19.5835C8.81018 0 0 9.1744 0 20.5061C0 31.8377 8.77427 41 19.5835 41ZM19.7152 9.48951H43.2968C46.1249 9.58441 48.8058 10.7886 50.7732 12.8476C52.7406 14.9067 53.8405 17.6594 53.8405 20.5242C53.8405 23.3891 52.7406 26.1418 50.7732 28.2009C48.8058 30.2599 46.1249 31.4641 43.2968 31.559H19.6912C16.8632 31.4641 14.1822 30.2599 12.2148 28.2009C10.2474 26.1418 9.14749 23.3891 9.14749 20.5242C9.14749 17.6594 10.2474 14.9067 12.2148 12.8476C14.1822 10.7886 16.8632 9.58441 19.6912 9.48951H19.7152Z" fill="url(#paint0_linear_1441_7241)" />
	<defs>
		<linearGradient id="paint0_linear_1441_7241" x1="63.012" y1="20.4939" x2="0.0119712" y2="20.4939" gradientUnits="userSpaceOnUse">
			<stop stop-color="#59C0CC" />
			<stop offset="0.84" stop-color="#495EA2" />
			<stop offset="1" stop-color="#464B9A" />
		</linearGradient>
	</defs>
</svg>
