<svg width="16" height="16" viewBox="0 0 16 16" fill="none" xmlns="http://www.w3.org/2000/svg">
<path d="M12.8 5.60002C12.8013 4.36127 12.3231 3.17058 11.4663 2.27634C10.61 1.38133 9.44067 0.852596 8.20307 0.800708C6.96556 0.748208 5.75555 1.17572 4.82675 1.99508C3.89737 2.81383 3.32049 3.96004 3.21683 5.19444C3.11308 6.42818 3.49057 7.65508 4.26995 8.61764C5.04995 9.58013 6.17123 10.2039 7.39987 10.3583V14.6002C7.39987 14.9314 7.66862 15.2002 7.99987 15.2002C8.33112 15.2002 8.59987 14.9314 8.59987 14.6002V10.3583C9.75862 10.2114 10.8242 9.64765 11.5973 8.7714C12.3704 7.89576 12.7979 6.7682 12.7998 5.6002L12.8 5.60002ZM8.00001 9.20002C7.045 9.20002 6.12945 8.82064 5.45441 8.14565C4.77937 7.47066 4.40004 6.55503 4.40004 5.60005C4.40004 4.64508 4.77942 3.72949 5.45441 3.05445C6.1294 2.37941 7.04504 2.00008 8.00001 2.00008C8.95499 2.00008 9.87057 2.37946 10.5456 3.05445C11.2207 3.72944 11.6 4.64508 11.6 5.60005C11.5987 6.55442 11.2194 7.46949 10.5443 8.14437C9.86934 8.81925 8.95435 9.19874 8.00003 9.2L8.00001 9.20002Z" fill="#3E4244"/>
<path d="M8.00002 2.8999C7.28439 2.90053 6.59815 3.18553 6.09186 3.69177C5.5856 4.19803 5.30061 4.88427 5.29999 5.59993C5.29999 5.93118 5.56874 6.19993 5.89999 6.19993C6.23124 6.19993 6.49999 5.93118 6.49999 5.59993C6.50124 4.77181 7.17186 4.10118 7.99999 4.09993C8.33124 4.09993 8.59999 3.83118 8.59999 3.49993C8.59999 3.16869 8.33124 2.89993 7.99999 2.89993L8.00002 2.8999Z" fill="#3E4244"/>
</svg>
