<?xml version="1.0" encoding="UTF-8"?><svg id="a" xmlns="http://www.w3.org/2000/svg" viewBox="0 0 10 10"><defs><style>.b{fill:#bdc8da;}</style></defs><path class="b" d="M4.91,.65C2.51,.65,.56,2.6,.56,5s1.95,4.35,4.35,4.35,4.35-1.95,4.35-4.35S7.31,.65,4.91,.65Zm0,7.96c-2,0-3.62-1.62-3.62-3.62S2.91,1.38,4.91,1.38s3.62,1.62,3.62,3.62-1.62,3.62-3.62,3.62Z"/><path class="b" d="M7.01,4.54l-.41-.06c-.05-.12-.07-.16-.12-.29l.25-.33c.07-.09,.06-.21-.02-.29l-.34-.33c-.08-.08-.2-.09-.29-.02l-.33,.25c-.12-.05-.16-.07-.29-.12l-.06-.41c-.01-.11-.11-.19-.22-.19h-.48c-.11,0-.2,.08-.22,.19l-.06,.41c-.12,.05-.16,.07-.29,.12l-.33-.25c-.09-.07-.21-.06-.29,.02l-.34,.34c-.08,.08-.09,.2-.02,.29l.25,.33c-.05,.12-.07,.16-.12,.29l-.41,.06c-.11,.01-.19,.11-.19,.22v.48c0,.11,.08,.2,.19,.22l.41,.06c.05,.12,.07,.16,.12,.29l-.25,.33c-.07,.09-.06,.21,.02,.29l.34,.34c.08,.08,.2,.09,.29,.02l.33-.25c.12,.05,.16,.07,.29,.12l.06,.41c.01,.11,.11,.19,.22,.19h.48c.11,0,.2-.08,.22-.19l.06-.41c.12-.05,.16-.07,.29-.12l.33,.25c.09,.07,.21,.06,.29-.02l.34-.34c.08-.08,.09-.2,.02-.29l-.25-.33,.12-.28,.41-.06c.11-.01,.19-.11,.19-.22v-.48c0-.11-.08-.2-.19-.22h0Zm-2.32-.48c0-.14,.11-.25,.25-.25s.25,.11,.25,.25v1.02c0,.13-.11,.25-.25,.25s-.25-.11-.25-.25v-1.02Zm.25,2.13c-.17,0-.3-.13-.3-.3s.13-.3,.3-.3,.3,.13,.3,.3-.13,.3-.3,.3Z"/></svg>