<svg width="40" height="31" viewBox="0 0 40 31" fill="none" xmlns="http://www.w3.org/2000/svg">
	<path d="M7.24571 30.9265V28.7206C7.24571 27.875 6.76572 27.3235 5.94286 27.3235C5.53143 27.3235 5.08571 27.4706 4.77714 27.9485C4.53714 27.5441 4.19429 27.3235 3.68 27.3235C3.33714 27.3235 2.99429 27.4338 2.72 27.8382V27.3971H2V30.9265H2.72V28.9779C2.72 28.3529 3.02857 28.0588 3.50857 28.0588C3.98857 28.0588 4.22857 28.3897 4.22857 28.9779V30.9265H4.94857V28.9779C4.94857 28.3529 5.29143 28.0588 5.73714 28.0588C6.21714 28.0588 6.45714 28.3897 6.45714 28.9779V30.9265H7.24571ZM17.9086 27.3971H16.7429V26.3309H16.0229V27.3971H15.3714V28.0956H16.0229V29.7132C16.0229 30.5221 16.3314 31 17.1543 31C17.4629 31 17.8057 30.8897 18.0457 30.7426L17.84 30.0809C17.6343 30.2279 17.3943 30.2647 17.2229 30.2647C16.88 30.2647 16.7429 30.0441 16.7429 29.6765V28.0956H17.9086V27.3971ZM24.0114 27.3235C23.6 27.3235 23.3257 27.5441 23.1543 27.8382V27.3971H22.4343V30.9265H23.1543V28.9412C23.1543 28.3529 23.3943 28.0221 23.84 28.0221C23.9771 28.0221 24.1486 28.0588 24.2857 28.0956L24.4914 27.3603C24.3543 27.3235 24.1486 27.3235 24.0114 27.3235ZM14.7886 27.6912C14.4457 27.4338 13.9657 27.3235 13.4514 27.3235C12.6286 27.3235 12.08 27.7647 12.08 28.4632C12.08 29.0515 12.4914 29.3824 13.2114 29.4926L13.5543 29.5294C13.9314 29.6029 14.1371 29.7132 14.1371 29.8971C14.1371 30.1544 13.8629 30.3382 13.3829 30.3382C12.9029 30.3382 12.5257 30.1544 12.2857 29.9706L11.9429 30.5588C12.32 30.8529 12.8343 31 13.3486 31C14.3086 31 14.8571 30.5221 14.8571 29.8603C14.8571 29.2353 14.4114 28.9044 13.7257 28.7941L13.3829 28.7574C13.0743 28.7206 12.8343 28.6471 12.8343 28.4265C12.8343 28.1691 13.0743 28.0221 13.4514 28.0221C13.8629 28.0221 14.2743 28.2059 14.48 28.3162L14.7886 27.6912ZM33.92 27.3235C33.5086 27.3235 33.2343 27.5441 33.0629 27.8382V27.3971H32.3429V30.9265H33.0629V28.9412C33.0629 28.3529 33.3029 28.0221 33.7486 28.0221C33.8857 28.0221 34.0571 28.0588 34.1943 28.0956L34.4 27.3603C34.2629 27.3235 34.0571 27.3235 33.92 27.3235ZM24.7314 29.1618C24.7314 30.2279 25.4171 31 26.48 31C26.96 31 27.3029 30.8897 27.6457 30.5956L27.3029 29.9706C27.0286 30.1912 26.7543 30.3015 26.4457 30.3015C25.8629 30.3015 25.4514 29.8603 25.4514 29.1618C25.4514 28.5 25.8629 28.0588 26.4457 28.0221C26.7543 28.0221 27.0286 28.1324 27.3029 28.3529L27.6457 27.7279C27.3029 27.4338 26.96 27.3235 26.48 27.3235C25.4171 27.3235 24.7314 28.0956 24.7314 29.1618ZM31.3829 29.1618V27.3971H30.6629V27.8382C30.4229 27.5074 30.08 27.3235 29.6343 27.3235C28.7086 27.3235 27.9886 28.0956 27.9886 29.1618C27.9886 30.2279 28.7086 31 29.6343 31C30.1143 31 30.4571 30.8162 30.6629 30.4853V30.9265H31.3829V29.1618ZM28.7429 29.1618C28.7429 28.5368 29.12 28.0221 29.7371 28.0221C30.32 28.0221 30.7314 28.5 30.7314 29.1618C30.7314 29.7868 30.32 30.3015 29.7371 30.3015C29.12 30.2647 28.7429 29.7868 28.7429 29.1618ZM20.1371 27.3235C19.1771 27.3235 18.4914 28.0588 18.4914 29.1618C18.4914 30.2647 19.1771 31 20.1714 31C20.6514 31 21.1314 30.8529 21.5086 30.5221L21.1657 29.9706C20.8914 30.1912 20.5486 30.3382 20.2057 30.3382C19.76 30.3382 19.3143 30.1176 19.2114 29.4926H21.6457V29.1985C21.68 28.0588 21.0629 27.3235 20.1371 27.3235ZM20.1371 27.9853C20.5829 27.9853 20.8914 28.2794 20.96 28.8309H19.2457C19.3143 28.3529 19.6229 27.9853 20.1371 27.9853ZM38 29.1618V26H37.28V27.8382C37.04 27.5074 36.6971 27.3235 36.2514 27.3235C35.3257 27.3235 34.6057 28.0956 34.6057 29.1618C34.6057 30.2279 35.3257 31 36.2514 31C36.7314 31 37.0743 30.8162 37.28 30.4853V30.9265H38V29.1618ZM35.36 29.1618C35.36 28.5368 35.7371 28.0221 36.3543 28.0221C36.9371 28.0221 37.3486 28.5 37.3486 29.1618C37.3486 29.7868 36.9371 30.3015 36.3543 30.3015C35.7371 30.2647 35.36 29.7868 35.36 29.1618ZM11.2914 29.1618V27.3971H10.5714V27.8382C10.3314 27.5074 9.98857 27.3235 9.54286 27.3235C8.61714 27.3235 7.89714 28.0956 7.89714 29.1618C7.89714 30.2279 8.61714 31 9.54286 31C10.0229 31 10.3657 30.8162 10.5714 30.4853V30.9265H11.2914V29.1618ZM8.61714 29.1618C8.61714 28.5368 8.99429 28.0221 9.61143 28.0221C10.1943 28.0221 10.6057 28.5 10.6057 29.1618C10.6057 29.7868 10.1943 30.3015 9.61143 30.3015C8.99429 30.2647 8.61714 29.7868 8.61714 29.1618Z" fill="black" />
	<path d="M26 3H15V22H26V3Z" fill="#FF5F00" />
	<path d="M15.2921 12.5C15.2921 8.50695 17.1478 4.96528 20 2.67361C17.9038 1.00694 15.2577 0 12.3711 0C5.53265 0 0 5.59028 0 12.5C0 19.4097 5.53265 25 12.3711 25C15.2577 25 17.9038 23.9931 20 22.3264C17.1478 20.0694 15.2921 16.4931 15.2921 12.5Z" fill="#EB001B" />
	<path d="M40 12.5C40 19.4097 34.4674 25 27.6289 25C24.7423 25 22.0962 23.9931 20 22.3264C22.8866 20.0347 24.7079 16.4931 24.7079 12.5C24.7079 8.50695 22.8522 4.96528 20 2.67361C22.0962 1.00694 24.7423 0 27.6289 0C34.4674 0 40 5.625 40 12.5Z" fill="#F79E1B" />
</svg>
