<svg width="26" height="25" viewBox="0 0 26 25" fill="none" xmlns="http://www.w3.org/2000/svg">
	<path d="M22.1367 8.57124H21.6113V19.6425H22.1367C22.834 19.6425 23.3975 19.078 23.3975 18.3817V9.83199C23.3975 9.13569 22.834 8.57124 22.1367 8.57124Z" fill="#CAD4E3" />
	<path d="M8.39746 7.5C8.2002 7.5 8.04004 7.66016 8.04004 7.85743V8.5713C8.04004 8.76857 8.20019 8.92873 8.39746 8.92873C8.59473 8.92873 8.75489 8.76857 8.75489 8.5713V7.85743C8.75489 7.66016 8.59473 7.5 8.39746 7.5Z" fill="#CAD4E3" />
	<path d="M6.96973 7.5C6.77246 7.5 6.6123 7.66016 6.6123 7.85743V8.5713C6.6123 8.76857 6.77246 8.92873 6.96973 8.92873C7.16699 8.92873 7.32715 8.76857 7.32715 8.5713V7.85743C7.32618 7.66016 7.16602 7.5 6.96973 7.5Z" fill="#CAD4E3" />
	<path d="M5.54102 7.5C5.34375 7.5 5.18359 7.66016 5.18359 7.85743V8.5713C5.18359 8.76857 5.34375 8.92873 5.54102 8.92873C5.73828 8.92873 5.89844 8.76857 5.89844 8.5713V7.85743C5.89747 7.66016 5.73829 7.5 5.54102 7.5Z" fill="#CAD4E3" />
	<path d="M9.82617 7.5C9.62891 7.5 9.46875 7.66016 9.46875 7.85743V8.5713C9.46875 8.76857 9.6289 8.92873 9.82617 8.92873C10.0234 8.92873 10.1836 8.76857 10.1836 8.5713V7.85743C10.1836 7.66016 10.0234 7.5 9.82617 7.5Z" fill="#CAD4E3" />
	<path d="M17.7549 19.6425H20.8974V8.57124H17.7549V19.6425ZM19.4697 17.8573C19.4697 18.0546 19.3096 18.2148 19.1123 18.2148C18.915 18.2148 18.7549 18.0546 18.7549 17.8573V17.1435C18.7549 16.9462 18.915 16.786 19.1123 16.786C19.3096 16.786 19.4697 16.9462 19.4697 17.1435V17.8573ZM19.4697 15.7148C19.4697 15.912 19.3096 16.0722 19.1123 16.0722C18.915 16.0722 18.7549 15.912 18.7549 15.7148V15.0009C18.7549 14.8036 18.915 14.6435 19.1123 14.6435C19.3096 14.6435 19.4697 14.8036 19.4697 15.0009V15.7148ZM18.041 11.0713C18.041 10.4824 18.5235 9.99997 19.1123 9.99997C19.7012 9.99997 20.1836 10.4824 20.1836 11.0713C20.1836 11.1924 20.1621 11.3144 20.1192 11.4287C20.1621 11.543 20.1836 11.664 20.1836 11.7861C20.1836 12.3789 19.7012 12.8574 19.1123 12.8574C18.5235 12.8574 18.041 12.3789 18.041 11.7861C18.041 11.665 18.0625 11.543 18.1055 11.4287C18.0625 11.3144 18.041 11.1924 18.041 11.0713Z" fill="#CAD4E3" />
	<path d="M16.6838 3.92874H7.32625V1.42874C7.32625 1.23245 7.16512 1.07132 6.96883 1.07132H4.11133C3.91504 1.07132 3.7539 1.23245 3.7539 1.42874V3.92874H2.32618C2.12989 3.92874 1.96875 4.08988 1.96875 4.28617V23.5724C1.96875 23.7687 2.12988 23.9298 2.32618 23.9298H16.6837C16.88 23.9298 17.0411 23.7687 17.0411 23.5724V4.28617C17.0411 4.0889 16.88 3.92874 16.6837 3.92874H16.6838ZM7.255 20.9112C7.255 21.1114 7.09387 21.2687 6.89758 21.2687H5.0294C4.83311 21.2687 4.67198 21.1114 4.67198 20.9112V19.2296C4.67198 19.0333 4.83311 18.8722 5.0294 18.8722H6.89758C7.09387 18.8722 7.255 19.0333 7.255 19.2296V20.9112ZM7.255 17.629C7.255 17.8253 7.09387 17.9864 6.89758 17.9864H5.0294C4.83311 17.9864 4.67198 17.8253 4.67198 17.629V15.9434C4.67198 15.7472 4.83311 15.586 5.0294 15.586H6.89758C7.09387 15.586 7.255 15.7472 7.255 15.9434V17.629ZM7.255 14.3427C7.255 14.539 7.09387 14.7002 6.89758 14.7002H5.0294C4.83311 14.7002 4.67198 14.539 4.67198 14.3427V12.6601C4.67198 12.4638 4.83311 12.3027 5.0294 12.3027H6.89758C7.09387 12.3027 7.255 12.4638 7.255 12.6601V14.3427ZM10.6055 20.911C10.6055 21.1112 10.4483 21.2684 10.2481 21.2684H8.3799C8.18361 21.2684 8.02248 21.1112 8.02248 20.911V19.2293C8.02248 19.0331 8.18361 18.8719 8.3799 18.8719H10.2481C10.4483 18.8719 10.6055 19.0331 10.6055 19.2293V20.911ZM10.6055 17.6287C10.6055 17.825 10.4483 17.9862 10.2481 17.9862H8.3799C8.18361 17.9862 8.02248 17.825 8.02248 17.6287V15.9432C8.02248 15.7469 8.18361 15.5858 8.3799 15.5858H10.2481C10.4483 15.5858 10.6055 15.7469 10.6055 15.9432V17.6287ZM10.6055 14.3425C10.6055 14.5388 10.4483 14.6999 10.2481 14.6999H8.3799C8.18361 14.6999 8.02248 14.5388 8.02248 14.3425V12.6599C8.02248 12.4636 8.18361 12.3024 8.3799 12.3024H10.2481C10.4483 12.3024 10.6055 12.4636 10.6055 12.6599V14.3425ZM13.959 20.9107C13.959 21.1109 13.7979 21.2682 13.6016 21.2682H11.7334C11.5332 21.2682 11.376 21.1109 11.376 20.9107V19.2291C11.376 19.0328 11.5332 18.8717 11.7334 18.8717H13.6016C13.7979 18.8717 13.959 19.0328 13.959 19.2291V20.9107ZM13.959 17.6285C13.959 17.8248 13.7979 17.9859 13.6016 17.9859H11.7334C11.5332 17.9859 11.376 17.8248 11.376 17.6285V15.9429C11.376 15.7467 11.5332 15.5855 11.7334 15.5855H13.6016C13.7979 15.5855 13.959 15.7467 13.959 15.9429V17.6285ZM13.959 14.3422C13.959 14.5385 13.7979 14.6997 13.6016 14.6997H11.7334C11.5332 14.6997 11.376 14.5385 11.376 14.3422V12.6596C11.376 12.4633 11.5332 12.3022 11.7334 12.3022H13.6016C13.7979 12.3022 13.959 12.4633 13.959 12.6596V14.3422ZM15.541 9.99949C15.541 10.1958 15.3799 10.3569 15.1836 10.3569H3.75485C3.55856 10.3569 3.39743 10.1958 3.39743 9.99949V6.42824C3.39743 6.23195 3.55856 6.07082 3.75485 6.07082H15.1836C15.3799 6.07082 15.541 6.23195 15.541 6.42824V9.99949Z" fill="#CAD4E3" />
</svg>
