<svg width="19" height="19" viewBox="0 0 19 19" fill="none" xmlns="http://www.w3.org/2000/svg">
	<g clip-path="url(#clip0_916_6277)">
		<path d="M2.59179 0C1.17124 0 0 1.17118 0 2.59179V6.04447C0 7.46502 1.17118 8.63626 2.59179 8.63626H6.04447C7.46502 8.63626 8.63626 7.46508 8.63626 6.04447V2.59179C8.63626 1.17124 7.46508 0 6.04447 0L2.59179 0ZM12.9557 0C11.5352 0 10.3639 1.17118 10.3639 2.59179V6.04447C10.3639 7.46502 11.5351 8.63626 12.9557 8.63626H16.4114C17.832 8.63626 19.0002 7.46508 19.0002 6.04447V2.59179C19.0002 1.17124 17.8327 0 16.4114 0L12.9557 0ZM2.59179 1.72856H6.04447C6.53209 1.72856 6.90838 2.10486 6.90838 2.59247V6.04515C6.90838 6.53277 6.53209 6.90906 6.04447 6.90906H2.59179C2.10417 6.90906 1.72788 6.53277 1.72788 6.04515V2.59247C1.72788 2.10486 2.10417 1.72856 2.59179 1.72856V1.72856ZM12.9557 1.72856H16.4114C16.8991 1.72856 17.2761 2.10486 17.2761 2.59247V6.04515C17.2761 6.53277 16.8991 6.90906 16.4114 6.90906L12.9557 6.90832C12.4681 6.90832 12.0918 6.53203 12.0918 6.04441V2.59173C12.0918 2.10412 12.4681 1.72782 12.9557 1.72782V1.72856ZM2.59179 10.3639C1.17124 10.3639 0 11.5351 0 12.9557V16.4114C0 17.8319 1.17118 19.0001 2.59179 19.0001H6.04447C7.46502 19.0001 8.63626 17.8327 8.63626 16.4114V12.9557C8.63626 11.5351 7.46508 10.3639 6.04447 10.3639H2.59179ZM12.9557 10.3639C11.5352 10.3639 10.3639 11.5351 10.3639 12.9557V16.4114C10.3639 17.8319 11.5351 19.0001 12.9557 19.0001H16.4114C17.832 19.0001 19.0002 17.8327 19.0002 16.4114V12.9557C19.0002 11.5351 17.8327 10.3639 16.4114 10.3639H12.9557ZM2.59179 12.0917H6.04447C6.53209 12.0917 6.90838 12.468 6.90838 12.9556V16.4113C6.90838 16.8989 6.53209 17.276 6.04447 17.276H2.59179C2.10417 17.276 1.72788 16.8989 1.72788 16.4113L1.72862 12.9556C1.72862 12.468 2.10492 12.0917 2.59253 12.0917H2.59179ZM12.9557 12.0917H16.4114C16.8991 12.0917 17.2761 12.468 17.2761 12.9556V16.4113C17.2761 16.8989 16.8991 17.276 16.4114 17.276H12.9557C12.4681 17.276 12.0918 16.8989 12.0918 16.4113V12.9556C12.0918 12.468 12.4681 12.0917 12.9557 12.0917V12.0917Z" fill="#3E4244" />
	</g>
	<defs>
		<clipPath id="clip0_916_6277">
			<rect width="19" height="19" fill="white" />
		</clipPath>
	</defs>
</svg>
