<svg width="21" height="21" viewBox="0 0 21 21" fill="none" xmlns="http://www.w3.org/2000/svg">
	<path d="M8.18988 9.01499C8.18988 10.5554 5.87988 10.5554 5.87988 9.01499C5.87988 7.47456 8.18988 7.47456 8.18988 9.01499Z" fill="#3E4244" />
	<path d="M15.1201 9.01499C15.1201 10.5554 12.8101 10.5554 12.8101 9.01499C12.8101 7.47456 15.1201 7.47456 15.1201 9.01499Z" fill="#3E4244" />
	<path d="M1.1815 19.8185C1.72937 20.369 2.54919 20.5468 3.27624 20.2749L5.91624 19.2849C8.73415 20.7582 12.0882 20.7892 14.9318 19.3674C17.7755 17.9455 19.7647 15.245 20.2762 12.106C20.788 8.96847 19.7619 5.77532 17.5163 3.5234C15.272 1.27142 12.0815 0.2337 8.94159 0.736455C5.80272 1.23789 3.09431 3.21789 1.66343 6.0577C0.233874 8.89752 0.253211 12.2518 1.71886 15.0733L0.728863 17.7133C0.451716 18.4429 0.628316 19.2679 1.18133 19.8183L1.1815 19.8185ZM2.58014 10.5C2.58143 8.12941 3.64492 5.88528 5.47665 4.38213C7.3097 2.87908 9.7188 2.27581 12.043 2.73728C14.3672 3.19875 16.3627 4.67731 17.4814 6.76691C18.6003 8.85518 18.7253 11.3367 17.8204 13.5266C16.9168 15.718 15.0786 17.3886 12.8123 18.0796C10.5449 18.7719 8.08804 18.4122 6.11431 17.0999L2.57968 18.4199L3.89968 14.8853C3.03472 13.5872 2.57582 12.0597 2.57968 10.4999L2.58014 10.5Z" fill="#3E4244" />
	<path d="M10.3947 15.45C11.0714 15.5119 11.7443 15.2863 12.2458 14.8287C12.7485 14.3698 13.0347 13.7214 13.0347 13.0407C13.0347 12.7107 12.764 11.829 12.4314 11.829H8.80138C8.47138 11.829 8.22774 12.6076 8.20068 12.9776V12.9789C8.20455 14.237 9.14429 15.2966 10.3947 15.45V15.45Z" fill="#3E4244" />
</svg>
