<svg width="28" height="16" viewBox="0 0 28 16" fill="none" xmlns="http://www.w3.org/2000/svg">
	<path d="M1.34375 0.500056C0.869153 0.529353 0.498833 0.924286 0.500003 1.40006V14.6001C0.502346 14.9223 0.675785 15.22 0.957023 15.3782C1.23827 15.5376 1.58162 15.5329 1.85936 15.3688L12.9594 8.76882C13.2324 8.6071 13.3988 8.31297 13.3988 7.99539C13.3988 7.67781 13.2324 7.38366 12.9594 7.22196L1.85936 0.62196C1.7035 0.530553 1.5242 0.488368 1.34372 0.500086L1.34375 0.500056ZM15.4438 0.500056C14.9692 0.529353 14.5988 0.924286 14.6 1.40006V14.6001C14.6023 14.9223 14.7758 15.22 15.057 15.3782C15.3383 15.5376 15.6816 15.5329 15.9594 15.3688L27.0594 8.76882C27.3324 8.6071 27.4988 8.31297 27.4988 7.99539C27.4988 7.67781 27.3324 7.38366 27.0594 7.22196L15.9594 0.62196C15.8035 0.530553 15.6242 0.488368 15.4437 0.500086L15.4438 0.500056ZM2.30015 2.97506L10.7377 8.00005L2.30015 13.0158V2.97506ZM16.4002 2.97506L24.8377 8.00005L16.4002 13.0158V2.97506Z" fill="#3E4244" />
</svg>
