<svg width="25" height="25" viewBox="0 0 25 25" fill="#3E4244" xmlns="http://www.w3.org/2000/svg">
	<path d="M17.1746 22.2002H2.3748V4.40049H4.6502V5.15049C4.6502 5.62509 5.0506 6.02549 5.5252 6.02549C5.9998 6.02549 6.4002 5.62509 6.4002 5.15049V4.40049H8.9257V5.15049C8.9257 5.62509 9.3261 6.02549 9.8007 6.02549C10.2753 6.02549 10.6757 5.62509 10.6757 5.15049V4.40049H13.2012V5.15049C13.2012 5.62509 13.6016 6.02549 14.0762 6.02549C14.5508 6.02549 14.9512 5.62509 14.9512 5.15049V4.40049H17.2266V12.7755L18.9766 11.0255L18.9747 3.97474C18.9747 3.25014 18.3995 2.64954 17.6495 2.64954L14.925 2.65051V1.90051C14.925 1.42591 14.5246 1.02551 14.05 1.02551C13.5754 1.02551 13.175 1.42591 13.175 1.90051V2.65051H10.6505V1.90051C10.6505 1.42591 10.2501 1.02551 9.77545 1.02551C9.30085 1.02551 8.90045 1.42591 8.90045 1.90051V2.65051H6.37495V1.90051C6.37495 1.42591 5.97455 1.02551 5.49995 1.02551C5.02535 1.02551 4.62495 1.42591 4.62495 1.90051V2.65051H1.9502C1.2256 2.65051 0.625 3.22571 0.625 3.97571V22.6262C0.625 23.3508 1.2002 23.9514 1.9502 23.9514H17.625C18.3496 23.9514 18.9502 23.3518 18.9502 22.6262V18.9007L17.2002 20.6507V22.2005L17.1746 22.2002Z" fill="#3E4244" />
	<path d="M14.6503 13.9247C14.6503 13.4501 14.2499 13.0497 13.7753 13.0497H5.7998C5.3252 13.0497 4.9248 13.4501 4.9248 13.9247C4.9248 14.3993 5.3252 14.7997 5.7998 14.7997H13.7743C14.2499 14.7997 14.6503 14.4003 14.6503 13.9247H14.6503Z" fill="#3E4244" />
	<path d="M5.7998 10.4247H13.7743C14.2489 10.4247 14.6493 10.0243 14.6493 9.54974C14.6493 9.07514 14.2489 8.67474 13.7743 8.67474H5.7998C5.3252 8.67474 4.9248 9.07514 4.9248 9.54974C4.9248 10.0253 5.2998 10.4247 5.7998 10.4247Z" fill="#3E4244" />
	<path d="M4.9249 18.2997C4.9249 18.7997 5.2999 19.1747 5.7999 19.1747H12.3497L12.6993 17.6249C12.7246 17.5497 12.7246 17.4745 12.7491 17.4247H5.7998C5.2998 17.4247 4.9248 17.8251 4.9248 18.2997L4.9249 18.2997Z" fill="#3E4244" />
	<path d="M14.0498 20.375L15.9746 19.9502C16.0498 19.9248 16.125 19.875 16.1992 19.8252L16.7744 19.2256L14.6494 17.1006L14.0742 17.6758C13.999 17.751 13.9746 17.8008 13.9492 17.9004L13.5 19.8496C13.4248 20.1748 13.7246 20.4502 14.0498 20.375L14.0498 20.375Z" fill="#3E4244" />
	<path d="M15.4004 16.375L17.5 18.5L22.5 13.5L20.4004 11.375L15.4004 16.375Z" fill="#3E4244" />
	<path d="M24.2246 11.1505L22.75 9.65051C22.5498 9.47571 22.2754 9.47571 22.0996 9.65051L21.0996 10.6505L23.2246 12.7755L24.2246 11.7755C24.4248 11.5997 24.4248 11.3253 24.2246 11.1505Z" fill="#3E4244" />
</svg>
