<svg width="22" height="22" viewBox="0 0 22 22" fill="none" xmlns="http://www.w3.org/2000/svg">
	<g clip-path="url(#clip0_1537_8006)">
		<path d="M7.33304 8.25V10.083H4.58304C2.05216 10.083 0 8.03172 0 5.5C0 2.96829 2.05218 0.916962 4.58304 0.916962H17.417C19.9478 0.916962 22 2.96829 22 5.5C22 8.03172 19.9478 10.083 17.417 10.083H14.667V8.25H17.417C18.9355 8.25 20.167 7.01851 20.167 5.5C20.167 3.9815 18.9355 2.75 17.417 2.75H4.58304C3.06453 2.75 1.83304 3.9815 1.83304 5.5C1.83304 7.01851 3.06453 8.25 4.58304 8.25H7.33304ZM18.504 15.583L16.4019 13.4819L17.6979 12.1851L22.0127 16.4999L17.6979 20.8148L16.4019 19.518L18.504 17.4168H10.083V8.24987H11.9169V15.5829L18.504 15.583Z" fill="#3E4244" />
	</g>
	<defs>
		<clipPath id="clip0_1537_8006">
			<rect width="22" height="22" fill="white" />
		</clipPath>
	</defs>
</svg>
