<svg width="32" height="32" viewBox="0 0 32 32" fill="none" xmlns="http://www.w3.org/2000/svg">
	<path d="M19.3998 20.0925H12.4497C12.1147 20.0925 11.8447 19.8225 11.8447 19.4875C11.8447 19.1525 12.1147 18.8825 12.4497 18.8825H19.3985C19.7335 18.8825 20.0035 19.1525 20.0035 19.4875C20.0035 19.8225 19.7323 20.0925 19.3998 20.0925H19.3998Z" fill="#3E4244" />
	<path d="M19.3998 22.5549H12.4497C12.1147 22.5549 11.8447 22.2849 11.8447 21.9499C11.8447 21.6149 12.1147 21.3449 12.4497 21.3449H19.3985C19.7335 21.3449 20.0035 21.6149 20.0035 21.9499C20.0035 22.2849 19.7323 22.5549 19.3998 22.5549H19.3998Z" fill="#3E4244" />
	<path d="M15.9317 17.3312C15.4004 17.3312 14.8679 17.335 14.3367 17.33C13.8892 17.3262 13.7579 17.1637 13.8616 16.7362C13.9429 16.4062 14.0266 16.0774 14.1179 15.7487C14.2829 15.165 14.7279 14.8137 15.3292 14.8037C15.7229 14.7962 16.1166 14.7962 16.5104 14.8037C17.1029 14.8137 17.5492 15.145 17.7217 15.7087C17.8242 16.0437 17.9042 16.385 17.9867 16.7262C18.0942 17.1612 17.9692 17.3262 17.5254 17.33C16.9942 17.335 16.4629 17.3312 15.9317 17.3312Z" fill="#3E4244" />
	<path d="M17.2819 13.1101C17.2869 13.8239 16.6632 14.4576 15.9432 14.4688C15.2182 14.4801 14.5707 13.8326 14.5782 13.1051C14.5857 12.3864 15.2169 11.7626 15.9332 11.7639C16.6507 11.7664 17.2794 12.3926 17.2819 13.1101Z" fill="#3E4244" />
	<path d="M24.7538 31.3527H7.09619C5.68995 31.3527 4.54617 30.2089 4.54617 28.8026L4.54492 3.09128C4.54492 1.68504 5.68867 0.542542 7.09494 0.542542H24.7513C26.1575 0.542542 27.3013 1.68629 27.3013 3.09128V28.8039C27.3025 30.2077 26.1588 31.3527 24.7538 31.3527H24.7538ZM7.09619 2.41761C6.72492 2.41761 6.42243 2.72011 6.42243 3.09137V28.804C6.42243 29.1753 6.72493 29.4778 7.09619 29.4778H24.7525C25.1238 29.4778 25.4263 29.1753 25.4263 28.804L25.425 3.09137C25.425 2.72011 25.1225 2.41761 24.7513 2.41761H7.09619Z" fill="#3E4244" />
	<path d="M21.7601 25.9325H10.09C9.0575 25.9325 8.22 25.0937 8.22 24.0625L8.21875 6.33736C8.21875 5.30485 9.0575 4.46735 10.0888 4.46735H21.7601C22.7926 4.46735 23.6301 5.3061 23.6301 6.33736V24.0625C23.6301 25.095 22.7926 25.9325 21.7601 25.9325H21.7601ZM10.09 6.03234C9.92252 6.03234 9.78502 6.16984 9.78502 6.33734V24.0625C9.78502 24.23 9.92252 24.3675 10.09 24.3675H21.7601C21.9276 24.3675 22.0651 24.23 22.0651 24.0625V6.33734C22.0651 6.16984 21.9276 6.03234 21.7601 6.03234H10.09Z" fill="#3E4244" />
	<path d="M17.4218 28.5088H14.4293C13.9955 28.5088 13.6455 28.1588 13.6455 27.7251C13.6455 27.2913 13.9955 26.9413 14.4293 26.9413H17.4193C17.853 26.9413 18.203 27.2913 18.203 27.7251C18.2055 28.1588 17.853 28.5088 17.4218 28.5088Z" fill="#3E4244" />
	<path d="M15.5201 10.305L15.5051 10.3037C15.3226 10.2887 15.2038 10.1875 15.13 10.1112L14.975 9.95122C14.8038 9.77497 14.6338 9.59871 14.465 9.42124C14.1163 9.05624 14.3725 8.75874 14.4263 8.70498C14.5463 8.58373 14.6738 8.55748 14.7625 8.55748C14.9 8.55748 15.03 8.61873 15.1475 8.73873C15.205 8.79748 15.2625 8.85748 15.32 8.91623C15.3888 8.98623 15.4575 9.05873 15.5263 9.12873L15.5275 9.12998L15.8638 8.78499C16.0475 8.59624 16.0475 8.59624 16.2125 8.42499L16.58 8.04374C16.6325 7.98874 16.6875 7.93374 16.75 7.87749C17.005 7.65499 17.2737 7.72249 17.425 7.88749C17.61 8.08749 17.6038 8.36624 17.4063 8.57875C17.3788 8.60751 17.3513 8.6375 17.3225 8.66626C16.8438 9.16126 16.7438 9.26626 16.5775 9.43624L15.9713 10.0612C15.9638 10.0687 15.9563 10.0775 15.9488 10.085C15.88 10.16 15.7538 10.3 15.5313 10.3012L15.5201 10.305Z" fill="#3E4244" />
</svg>
