<svg width="26" height="26" viewBox="0 0 26 26" fill="none" xmlns="http://www.w3.org/2000/svg">
	<path d="M3.25001 9.75005C3.46532 9.75005 3.67251 9.66474 3.82484 9.51239C3.97719 9.36005 4.0625 9.15287 4.0625 8.93756V6.50006C4.0625 5.15435 5.15429 4.06256 6.5 4.06256H8.9375C9.38642 4.06256 9.75 3.69898 9.75 3.25006C9.75 2.80115 9.38642 2.43756 8.9375 2.43756H6.5C5.42344 2.43858 4.39054 2.86716 3.62882 3.62888C2.8671 4.3906 2.43851 5.42348 2.4375 6.50006V8.93756C2.4375 9.15287 2.52281 9.36006 2.67516 9.51239C2.8275 9.66474 3.03468 9.75005 3.24999 9.75005H3.25001Z" fill="#3E4244" />
	<path d="M6.5 23.5625H8.9375C9.38642 23.5625 9.75 23.1989 9.75 22.75C9.75 22.3011 9.38642 21.9375 8.9375 21.9375H6.5C5.15429 21.9375 4.0625 20.8457 4.0625 19.5V17.0625C4.0625 16.6136 3.69892 16.25 3.25 16.25C2.80108 16.25 2.4375 16.6136 2.4375 17.0625V19.5C2.43852 20.5766 2.8671 21.6095 3.62882 22.3712C4.39054 23.1329 5.42342 23.5615 6.5 23.5625Z" fill="#3E4244" />
	<path d="M19.5 2.4375H17.0625C16.6136 2.4375 16.25 2.80108 16.25 3.25C16.25 3.69892 16.6136 4.0625 17.0625 4.0625H19.5C20.8457 4.0625 21.9375 5.15429 21.9375 6.5V8.9375C21.9375 9.38642 22.3011 9.75 22.75 9.75C23.1989 9.75 23.5625 9.38642 23.5625 8.9375V6.5C23.5615 5.42344 23.1329 4.39054 22.3712 3.62882C21.6095 2.8671 20.5766 2.43851 19.5 2.4375Z" fill="#3E4244" />
	<path d="M22.75 16.25C22.3011 16.25 21.9375 16.6136 21.9375 17.0625V19.5C21.9375 20.8457 20.8457 21.9375 19.5 21.9375H17.0625C16.6136 21.9375 16.25 22.3011 16.25 22.75C16.25 23.1989 16.6136 23.5625 17.0625 23.5625H19.5C20.5766 23.5615 21.6095 23.1329 22.3712 22.3712C23.1329 21.6095 23.5615 20.5766 23.5625 19.5V17.0625C23.5625 16.8472 23.4772 16.64 23.3248 16.4877C23.1725 16.3353 22.9653 16.25 22.75 16.25L22.75 16.25Z" fill="#3E4244" />
	<path d="M12.1875 7.3125C12.1875 6.88189 12.0159 6.46851 11.7112 6.16382C11.4065 5.85913 10.9931 5.6875 10.5625 5.6875H7.3125C6.41469 5.6875 5.6875 6.41469 5.6875 7.3125V10.5625C5.6875 10.9931 5.85914 11.4065 6.16382 11.7112C6.4685 12.0159 6.88186 12.1875 7.3125 12.1875H10.5625C10.9931 12.1875 11.4065 12.0159 11.7112 11.7112C12.0159 11.4065 12.1875 10.9931 12.1875 10.5625V7.3125ZM7.3125 10.5625V7.3125H10.5625V10.5625H7.3125Z" fill="#3E4244" />
	<path d="M20.3125 7.3125C20.3125 6.88189 20.1409 6.46851 19.8362 6.16382C19.5315 5.85913 19.1181 5.6875 18.6875 5.6875H15.4375C14.5397 5.6875 13.8125 6.41469 13.8125 7.3125V10.5625C13.8125 10.9931 13.9841 11.4065 14.2888 11.7112C14.5935 12.0159 15.0069 12.1875 15.4375 12.1875H18.6875C19.1181 12.1875 19.5315 12.0159 19.8362 11.7112C20.1409 11.4065 20.3125 10.9931 20.3125 10.5625V7.3125ZM15.4375 10.5625V7.3125H18.6875V10.5625H15.4375Z" fill="#3E4244" />
	<path d="M10.5625 13.8125H7.3125C6.41469 13.8125 5.6875 14.5397 5.6875 15.4375V18.6875C5.6875 19.1181 5.85914 19.5315 6.16382 19.8362C6.4685 20.1409 6.88186 20.3125 7.3125 20.3125H10.5625C10.9931 20.3125 11.4065 20.1409 11.7112 19.8362C12.0159 19.5315 12.1875 19.1181 12.1875 18.6875V15.4375C12.1875 15.0069 12.0159 14.5935 11.7112 14.2888C11.4065 13.9841 10.9931 13.8125 10.5625 13.8125ZM7.3125 18.6875V15.4375H10.5625V18.6875H7.3125Z" fill="#3E4244" />
	<path d="M18.6875 13.8125H15.4375C14.5397 13.8125 13.8125 14.5397 13.8125 15.4375V18.6875C13.8125 19.1181 13.9841 19.5315 14.2888 19.8362C14.5935 20.1409 15.0069 20.3125 15.4375 20.3125H18.6875C19.1181 20.3125 19.5315 20.1409 19.8362 19.8362C20.1409 19.5315 20.3125 19.1181 20.3125 18.6875V15.4375C20.3125 15.0069 20.1409 14.5935 19.8362 14.2888C19.5315 13.9841 19.1181 13.8125 18.6875 13.8125ZM15.4375 18.6875V15.4375H18.6875V18.6875H15.4375Z" fill="#3E4244" />
</svg>
