<svg width="54" height="58" viewBox="0 0 54 58" fill="none" xmlns="http://www.w3.org/2000/svg">
	<g style="mix-blend-mode:multiply" opacity="0.9" filter="url(#filter0_dd_1537_8418)">
		<g opacity="0.7" filter="url(#filter1_biii_1537_8418)">
			<path d="M23.3438 20.7812C21.6869 20.7812 20.3438 19.4381 20.3438 17.7812V3C20.3438 1.34315 21.6869 0 23.3438 0H33.3125C34.9694 0 36.3125 1.34315 36.3125 3V17.7812C36.3125 19.4381 34.9694 20.7812 33.3125 20.7812H23.3438Z" fill="url(#paint0_linear_1537_8418)" />
		</g>
		<g opacity="0.7" filter="url(#filter2_bi_1537_8418)">
			<path d="M24.9844 22.9688C23.3275 22.9688 21.9844 21.6256 21.9844 19.9688V5.1875C21.9844 3.53065 23.3275 2.1875 24.9844 2.1875H34.9531C36.61 2.1875 37.9531 3.53065 37.9531 5.1875V19.9688C37.9531 21.6256 36.61 22.9688 34.9531 22.9688H24.9844Z" fill="#E0E6EE" />
		</g>
		<path opacity="0.7" d="M19.7188 25.1562C18.0619 25.1562 16.7188 23.8131 16.7188 22.1562V7.375C16.7188 5.71815 18.0619 4.375 19.7188 4.375H29.6875C31.3444 4.375 32.6875 5.71815 32.6875 7.375V22.1562C32.6875 23.8131 31.3444 25.1562 29.6875 25.1562H19.7188Z" fill="white" />
	</g>
	<mask id="mask0_1537_8418" style="mask-type:alpha" maskUnits="userSpaceOnUse" x="13" y="18" width="27" height="10">
		<path d="M18.1439 27.6253C15.7172 27.6253 13.75 25.6581 13.75 23.2314C13.75 20.8071 15.7135 18.8409 18.1378 18.8376L20.5017 18.8343C21.5602 18.8328 22.5495 19.3602 23.1384 20.2398C23.7264 21.1182 24.7137 21.6454 25.7707 21.6454H27.9667C29.031 21.6454 30.0245 21.1124 30.6132 20.2258C31.201 19.3404 32.1925 18.8077 33.2552 18.8062L35.5827 18.803C38.0213 18.7996 40 20.7755 40 23.2141C40 25.6504 38.0251 27.6253 35.5888 27.6253H18.1439Z" fill="white" />
	</mask>
	<g mask="url(#mask0_1537_8418)">
		<g clip-path="url(#clip0_1537_8418)">
			<rect width="819.013" height="819.013" transform="translate(-420.779 -261.881)" fill="#1E55A9" />
			<path d="M-304.116 -99.9083C-322.304 -118.097 -354.591 -123.478 -408.941 -109.164C-353.837 -128.106 -321.981 -122.402 -304.116 -99.9083ZM398.234 259.231V264.72C355.077 258.908 315.149 237.706 273.499 219.518C353.571 263.105 376.925 286.459 398.234 287.536V391.069C251.113 444.235 45.3374 345.437 133.911 304.648C172.225 286.998 344.53 348.666 274.467 259.015C286.306 280.54 288.458 303.141 247.777 296.684C261.553 294.424 277.696 289.15 265.75 271.069C253.804 252.989 266.288 300.773 181.911 276.235C115.185 256.863 18.3239 309.598 81.8217 246.101C-55.9361 346.19 219.58 465.76 378.432 420.666C359.382 425.724 329.032 427.338 294.701 425.186C330.432 424.648 365.086 416.791 398.127 403.338V436.271C278.45 514.728 166.844 532.809 -36.0258 454.89C138.754 563.589 -63.2545 512.684 -67.7747 511.392C-51.7388 515.805 28.01 527.105 20.4764 513.114C12.9428 499.123 -46.6805 503.751 -92.5281 485.778C-73.5864 483.841 -40.1155 496.433 -81.7657 460.486C-0.725372 527.428 -63.5774 454.567 -108.026 421.742C-114.268 416.576 -120.187 411.087 -125.891 405.276C-120.08 410.011 -115.237 411.087 -112.008 407.32C-123.954 386.657 -134.394 367.177 -143.542 348.773C-140.959 352.217 -138.268 355.769 -135.362 359.213C-302.716 13.7419 117.337 -122.617 136.172 -242.186C134.665 -237.451 132.297 -232.715 128.961 -228.088C134.127 -241.863 136.925 -251.872 135.31 -261.774H162.216C162.754 -260.375 163.4 -258.868 163.831 -257.361C165.23 -258.868 166.414 -260.375 167.49 -261.774H203.867C203.974 -241.002 188.907 -216.357 145.858 -184.823C178.898 -205.81 206.665 -231.316 212.907 -261.881H230.557C186.97 -216.68 125.086 -149.415 89.0325 -136.608C-30.8599 -80.3208 -106.411 39.1411 -124.385 156.343C-109.102 105.545 -79.8285 53.2397 -40.0079 3.4101C-98.555 83.3742 -132.994 175.607 -125.353 254.711C-121.909 278.172 -115.667 300.666 -106.519 321.545C-76.8151 380.522 -12.2411 424.217 98.611 436.809C-36.2411 362.872 -45.7119 176.791 128.1 155.482C183.526 146.334 235.4 162.262 286.414 180.128C220.979 163.661 131.867 136.648 79.454 180.45C136.817 173.67 196.01 180.02 251.221 198.531C189.983 186.262 106.79 155.374 58.2522 210.908C71.0594 203.051 88.2791 187.984 122.719 187.984C72.1356 197.67 75.3643 211.661 123.58 208.648C40.3867 214.029 -40.8689 277.311 38.6648 364.056C118.198 450.8 199.131 451.446 171.257 469.634C121.642 502.244 -37.1021 430.137 -86.7164 358.89C-88.3307 357.168 -89.8375 355.446 -91.4518 353.724C-26.6626 452.63 146.503 523.231 249.284 472.971C292.763 451.661 -87.1469 359.105 47.0594 239.213C83.3285 206.818 178.037 206.495 226.037 248.038C194.826 227.805 82.8979 216.612 117.337 248.253C143.167 271.93 257.893 285.814 240.136 254.172C229.911 240.72 216.781 230.495 202.037 223.069C202.252 223.177 202.467 223.177 202.683 223.285C77.732 152.899 219.149 193.58 349.373 247.5C366.27 256.217 382.629 259.661 398.234 259.231ZM-82.6267 363.087C-82.6267 363.087 -36.0258 417.329 40.9248 444.128C101.409 465.114 154.683 461.455 155.006 459.195C155.328 456.72 91.0773 457.15 15.0952 423.679C-47.2187 396.235 -82.6267 363.087 -82.6267 363.087ZM72.6737 -138.76C94.1984 -153.397 115.723 -167.926 137.248 -182.563C119.275 -175.352 85.9114 -152.751 72.6737 -138.76ZM-129.12 271.93C-129.981 261.168 -136.331 226.621 -135.47 215.428C-143.003 104.253 -92.3128 -18.0069 19.6154 -94.85C-118.788 -8.85896 -166.788 114.8 -129.12 271.93ZM-141.712 97.0424C-127.721 69.2756 -113.084 40.1096 -98.2321 10.6208C-113.084 28.2711 -142.681 86.8182 -141.712 97.0424ZM5.19388 457.473C-59.703 426.262 -118.896 378.37 -149.461 311.751C-136.331 368.684 -49.9092 454.137 5.19388 457.473ZM279.418 248.468C288.243 261.598 293.84 266.549 306.647 289.581C352.172 371.482 100.441 271.392 127.669 339.948C144.243 381.706 260.476 402.154 294.916 402.154C200.207 384.935 137.355 359.966 143.92 332.415C153.929 291.302 450.97 434.441 279.418 248.468ZM-203.38 222.424C-204.026 203.159 -205.855 161.939 -202.304 142.782C-208.331 158.28 -205.855 200.361 -203.38 222.424ZM-125.891 405.168C-129.981 401.078 -133.855 396.881 -137.622 392.468C-133.425 397.957 -129.443 402.262 -125.891 405.168ZM-137.622 392.576C-163.021 359.32 -195.308 299.697 -202.304 238.567C-200.367 300.666 -178.411 345.329 -137.622 392.576ZM34.1446 -246.706C39.6334 -237.666 42.1087 -227.765 43.0773 -218.294C43.4002 -228.841 40.8172 -238.635 34.1446 -246.706ZM20.6917 -261.881H9.82172C20.9069 -258.222 28.7634 -253.056 34.037 -246.706C30.8083 -252.088 26.5033 -257.254 20.6917 -261.881ZM-152.797 334.352C-177.55 284.199 -181.21 265.365 -188.313 227.805C-186.914 272.361 -182.932 288.074 -152.797 334.352ZM-186.16 427.984C-147.416 472.11 -54.8599 497.939 -104.367 446.28C-90.3756 481.796 -156.026 454.89 -186.16 427.984ZM-38.5012 -231.854C-39.0393 -242.294 -41.407 -252.303 -45.9272 -261.881H-69.2814C-62.2859 -258.868 -55.7209 -254.993 -49.5864 -249.935C-60.3487 -253.917 -71.111 -257.792 -82.3039 -261.881H-93.8195C-67.129 -255.316 -45.6043 -245.307 -38.5012 -231.854ZM398.234 -261.881V-219.585C326.557 -249.182 265.858 -224.428 231.418 -195.155C196.979 -165.881 148.763 -160.285 111.203 -137.469C150.808 -165.343 205.589 -176.859 238.306 -210.222C271.023 -243.585 258.647 -248.428 265.212 -261.881H398.234ZM343.992 -248.106C320.853 -247.783 301.05 -238.742 281.678 -228.195C302.127 -235.837 323.006 -242.509 343.992 -248.106ZM289.427 414.424C264.028 412.809 236.476 409.15 209.786 403.338C236.692 411.41 263.275 414.854 289.427 414.424ZM215.167 414.208C199.669 409.58 184.172 403.554 168.458 395.805C9.71408 307.446 148.548 284.845 215.382 296.146C175.454 279.464 58.1446 258.908 91.4001 343.715C84.0818 334.567 68.9069 321.437 72.1356 296.684C50.6109 355.876 143.705 398.603 215.167 414.208ZM92.584 -123.047C34.6827 -87.8545 0.888977 -52.4464 -39.9003 3.30246C0.888977 -47.711 33.9293 -81.7199 92.584 -123.047ZM398.234 222.424V213.383C382.521 210.8 335.275 197.024 319.669 192.289C341.302 200.791 393.284 219.195 398.234 222.424ZM-28.7075 -261.881H8.63785C82.037 -222.922 -14.2859 -157.594 -30.3218 -112.393C-2.44736 -126.276 41.5706 -178.15 43.0773 -218.186C47.4899 -173.415 17.8935 -135.854 108.405 -217.541C123.902 -227.765 126.808 -244.446 120.889 -261.881H126.378C136.064 -169.218 -50.3398 -122.079 -69.0662 -76.4464C-23.3263 -86.563 -99.5236 -51.8007 -88.2231 -44.5899C-39.3622 -76.6617 -1.58636 -122.509 48.2432 -153.182C-67.99 -71.8186 -194.77 75.1949 -190.142 218.334C-224.044 39.6792 0.781372 -153.828 -10.5191 -225.074C-16.1155 -259.729 -23.5415 -252.733 -28.7075 -261.881ZM-50.555 -113.792C-56.7971 -115.406 -68.4204 -104.536 -68.6357 -93.0204C-61.7478 -100.877 -56.1514 -107.334 -50.555 -113.792ZM9.60645 -220.124C8.20737 -224.428 6.91586 -228.303 5.30151 -233.361C0.0279846 -224.213 1.31946 -220.124 9.60645 -220.124ZM21.2298 -215.603C18.0011 -221.092 19.0773 -233.684 13.0504 -231.424C15.4181 -226.581 7.34637 -218.294 21.2298 -215.603ZM-16.3308 -258.976C-5.8913 -223.567 -0.725372 -259.191 22.6289 -235.729C20.4764 -248.751 2.28806 -260.698 -16.3308 -258.976ZM-250.734 382.782C-222.645 436.809 -204.133 469.419 -120.51 488.253C-171.524 465.975 -211.129 437.347 -250.734 382.782ZM-420.779 389.563V398.711C-372.456 452.092 -321.658 513.652 -265.586 538.19C-255.039 544.863 -244.385 551.213 -233.622 557.132H-218.34C-256.115 538.944 -290.124 517.096 -318.645 491.805C-352.546 468.989 -386.232 427.769 -420.779 389.563ZM-420.779 -122.079V-130.258C-166.788 -231.747 -259.344 58.8361 -271.183 130.836C-283.021 202.836 -255.039 341.885 -232.438 308.199C-209.837 274.513 -288.403 227.805 -137.407 -64.6078C-203.272 28.1635 -244.277 191.213 -261.174 191.643C-278.071 192.074 -269.03 136.325 -259.344 114.8C-271.183 328.971 -93.1738 -291.801 -411.093 -156.303C-413.676 -154.904 -416.905 -153.505 -420.779 -151.998V-178.15C-326.932 -226.796 -272.259 -256.07 -194.232 -256.07C-116.205 -256.07 -54.3218 -239.603 -39.0393 -216.464C-54.4294 -74.2939 -355.99 142.244 -150.968 405.706C-107.488 453.814 -128.044 457.042 -174.322 421.527C-220.6 386.011 -269.784 303.033 -289.156 202.621C-287.757 262.352 -279.47 321.437 -253.748 370.728C-280.976 333.276 -292.707 302.065 -299.918 231.249C-307.129 160.433 -285.389 57.6523 -283.237 -22.2043C-279.793 2.87198 -279.9 18.4774 -280.869 40.5401C-231.793 -128.428 -327.255 -157.594 -420.779 -122.079ZM-305.73 -220.231C-322.842 -216.895 -356.636 -205.487 -369.335 -195.155C-348.133 -203.55 -326.932 -211.837 -305.73 -220.231ZM-83.4877 -221.953C-67.6671 -206.886 -72.6178 -181.594 -81.4429 -160.715C-80.259 -162.437 -78.9675 -164.267 -77.5684 -166.097C-62.9317 -187.191 -67.7747 -208.823 -83.4877 -221.953ZM-84.5639 -208.608C-83.2725 -190.958 -85.2097 -175.46 -90.9137 -157.702C-76.2769 -179.442 -74.0168 -197.523 -84.5639 -208.608ZM-185.837 -238.419C-168.725 -238.419 -151.721 -238.419 -134.609 -238.419C-149.138 -239.819 -171.093 -239.819 -185.837 -238.419ZM-88.4384 -203.98C-105.335 -243.908 -173.353 -236.375 -209.837 -230.671C-169.802 -230.778 -115.775 -240.249 -88.4384 -203.98ZM-94.6805 -159.532C-106.304 -135.424 -130.196 -121.541 -143.972 -99.3702C-129.12 -100.231 -96.2949 -142.85 -94.6805 -159.532ZM371.651 22.9976C350.127 -0.141449 349.05 -4.33878 360.351 -19.4061C338.18 -8.42847 356.799 14.3877 371.651 22.9976ZM323.759 -225.828C348.512 -227.119 373.589 -220.446 398.234 -214.742V-215.711C374.019 -225.182 350.019 -234.868 323.759 -225.828ZM398.234 177.007V164.092C371.006 155.805 344.423 148.379 317.624 145.258C343.023 153.437 370.683 172.056 398.234 177.007ZM-420.779 434.119C-377.73 476.953 -334.465 520.002 -288.51 557.132H-266.555C-320.582 510.854 -370.304 454.137 -420.779 411.518V434.119ZM-420.779 441.868V492.666C-389.784 508.056 -355.775 529.365 -318.645 557.132H-301.963C-343.075 530.98 -382.035 484.271 -420.779 441.868ZM398.234 34.6208V-28.3388C391.346 -24.3567 383.92 -20.4823 375.956 -16.7155C369.068 3.08722 380.046 21.7061 398.234 34.6208ZM344.638 -19.5137C319.777 -7.35225 337.965 5.02444 349.696 18.1545C339.472 -1.86343 328.172 -3.90829 344.638 -19.5137ZM281.571 -166.85C336.889 -182.24 362.611 -167.496 398.234 -149.2V-151.783C361.642 -169.648 343.346 -188.698 281.571 -166.85ZM398.234 -68.3746V-68.4823C397.804 -68.267 397.373 -68.0518 396.943 -67.8365C397.373 -68.0518 397.804 -68.267 398.234 -68.3746ZM391.131 557.132C393.499 555.841 395.867 554.657 398.234 553.365V547.446C393.499 550.782 388.656 553.903 383.813 557.132H391.131ZM-419.38 -261.881C-419.703 -261.774 -420.026 -261.666 -420.241 -261.559C-419.918 -261.666 -419.595 -261.774 -419.272 -261.881H-419.38ZM-420.779 -261.451C-420.564 -261.451 -420.456 -261.559 -420.241 -261.559C-420.456 -261.559 -420.564 -261.451 -420.779 -261.451ZM-385.048 -261.881C-398.394 -256.608 -410.34 -252.411 -420.779 -249.182V-214.527C-374.932 -233.038 -327.793 -248.751 -282.591 -261.881H-385.048ZM-91.129 557.132H-73.0482C-98.4473 547.876 -166.142 509.885 -174.645 505.15C-142.681 527.858 -113.407 545.616 -91.129 557.132ZM-420.779 -71.6033V-89.8993C-188.851 -149.092 -411.093 271.607 -232.654 460.594C-397.102 356.953 -327.147 133.096 -343.183 -19.8365C-348.456 -70.3119 -382.035 -75.4778 -420.779 -71.6033ZM-359.434 -77.8455C-304.546 -17.5764 -340.6 108.343 -337.263 198.854C-337.586 133.957 -267.954 -57.3971 -359.434 -77.8455ZM220.225 557.132C278.88 541.85 334.414 517.527 382.091 483.625C387.58 478.244 392.961 472.971 398.127 467.912V447.464C322.252 494.603 243.795 534.639 166.091 557.132H220.225ZM-226.519 466.728C-213.927 478.998 -198.86 489.867 -180.779 499.015L-226.519 466.728ZM254.019 164.307C189.983 119.536 349.589 204.02 398.234 209.616V190.782C320.53 168.935 120.028 106.621 254.019 164.307ZM-337.371 357.276C-323.918 390.316 -309.927 441.975 -224.905 487.177C-290.555 433.365 -313.156 398.926 -337.371 357.276ZM-394.95 235.338C-391.721 280.54 -367.506 310.998 -345.443 337.58C-400.115 174.854 -290.985 -60.4105 -420.779 -62.8859V-48.4643C-410.34 -49.9711 -408.941 -61.702 -389.03 -51.9083C-338.663 -24.1415 -356.851 60.6657 -368.905 101.993C-371.703 63.1411 -350.609 7.28452 -387.416 -19.2984C-422.932 -30.8141 -380.851 25.5805 -387.739 42.9079C-395.272 19.7689 -406.681 4.70157 -420.779 -4.12354V22.7823C-380.959 60.5581 -390.429 165.921 -389.03 211.123C-405.174 178.944 -411.524 141.921 -420.779 106.621V276.881C-397.102 319.823 -377.407 365.993 -362.663 400.971C-382.465 376.11 -401.299 345.76 -420.779 315.948V368.576C-370.734 416.576 -319.828 479.643 -264.618 521.509C-292.707 504.612 -319.506 485.24 -344.689 463.392C-310.25 495.464 -272.044 522.047 -231.362 543.572C-225.658 546.8 -219.954 549.706 -214.142 552.289C-210.806 553.903 -207.577 555.41 -204.241 557.024H-98.6626C-322.842 505.473 -402.483 294.531 -394.95 235.338ZM370.36 557.132C379.831 552.612 389.194 547.769 398.234 542.603V485.24C346.898 517.096 297.391 540.666 249.822 557.132H370.36ZM314.073 221.67C345.606 238.352 372.405 251.482 398.234 251.159V223.715C395.544 223.607 387.795 221.67 373.266 217.258C428.476 269.67 352.387 241.473 314.073 221.67ZM-420.779 557.132H-352.331C-375.362 543.894 -398.394 530.441 -420.779 518.603V557.132ZM-47.3263 105.975C-47.3263 105.867 -47.2186 105.76 -47.2186 105.652C-47.2186 105.76 -47.2187 105.867 -47.3263 105.975ZM-46.0348 103.392C-46.4653 104.146 -46.7881 104.899 -47.2186 105.652C-46.7881 104.899 -46.4653 104.146 -46.0348 103.392ZM-45.6043 102.639C-45.7119 102.854 -45.8195 102.962 -45.9272 103.177C-45.8195 102.962 -45.7119 102.854 -45.6043 102.639ZM-45.9272 103.177C-45.9272 103.285 -46.0348 103.285 -46.0348 103.392C-46.0348 103.285 -45.9272 103.285 -45.9272 103.177ZM-37.6402 109.419C-103.29 173.993 -73.1559 331.123 -52.4922 279.679C-12.1334 179.482 82.8979 88.9706 202.36 140.63C141.015 105.114 253.911 127.285 322.575 139.231C247.023 121.903 168.566 98.3338 93.8755 121.58C117.23 110.818 131.006 106.298 157.158 106.19C95.9203 99.9482 45.3374 113.724 -6.85989 153.545C-59.0572 193.365 16.1715 60.9886 5.40915 54.5312C-4.59982 48.5043 -32.259 76.9168 -45.6043 102.639C-28.2769 69.8137 -4.16931 76.4863 -37.6402 109.419ZM-48.4025 108.343C-48.0796 107.482 -47.6491 106.728 -47.3263 105.975C-47.6491 106.728 -48.0796 107.589 -48.4025 108.343ZM179.759 106.19C245.086 112.863 284.692 130.298 347.651 137.401C283.508 123.948 242.18 105.76 179.759 106.19ZM314.073 221.67C312.351 220.809 310.736 219.841 309.015 218.98C310.521 219.948 312.243 220.809 314.073 221.67ZM-315.308 -246.168C-305.299 -249.828 -295.29 -253.487 -285.281 -257.146C-297.012 -261.02 -306.268 -251.55 -315.308 -246.168ZM-241.909 -261.881H-259.667C-332.205 -231.639 -474.483 -177.612 -241.909 -261.881ZM45.1222 506.011C94.6288 528.72 44.2612 534.639 16.8172 533.885C58.037 540.235 106.037 524.737 45.1222 506.011ZM98.1805 517.527C129.499 539.482 87.3105 541.634 67.7231 543.787C89.463 542.388 150.378 539.374 98.1805 517.527ZM157.05 516.235C226.037 545.401 153.714 550.675 115.185 557.132H129.284C173.84 552.181 240.351 536.899 157.05 516.235ZM398.234 148.702V144.612C386.826 144.504 375.203 143.751 363.364 142.459C375.203 144.827 386.826 146.98 398.234 148.702ZM-78.537 344.038C-64.546 367.715 -37.6402 386.011 -25.8016 388.163C-40.8689 380.63 -62.3935 363.41 -78.537 344.038ZM44.1535 416.145C-92.3128 276.45 37.6961 149.24 130.252 133.096C66.7545 135.249 -65.6222 232.11 -33.3352 325.742C-55.9361 323.267 -81.7657 285.921 -88.8689 248.791C-83.9182 304.217 -45.1738 363.41 44.1535 416.145ZM-37.6402 364.486C-80.6895 325.742 -99.6312 267.195 -99.8464 228.45C-104.474 268.809 -94.6805 321.437 -37.6402 364.486ZM398.234 155.482V152.576C390.378 151.823 382.414 150.854 374.342 149.563C382.952 151.5 390.916 153.437 398.234 155.482ZM398.234 -206.24V-184.823C370.683 -194.724 369.176 -205.917 299.651 -195.047C230.127 -184.177 36.0818 -84.1953 -6.10657 -6.92175C64.602 -92.9128 345.714 -231.532 398.234 -130.904V-80.9666C327.31 -34.9038 112.817 -15.5316 135.849 24.8271C146.073 37.9572 177.606 51.4101 207.741 30.9617C148.548 18.0469 254.557 -20.4823 270.701 -27.2626C138.754 32.6836 251.867 22.3518 310.198 29.2397C368.53 36.1276 373.589 48.9348 398.234 58.1904V60.881C345.391 46.567 336.889 29.9931 235.723 33.7599C349.804 40.6478 297.068 77.2397 398.234 79.715V127.93C289.535 128.899 258.324 97.4729 177.391 97.4729C96.4585 97.4729 48.028 103.93 15.4181 123.733C-41.9451 161.078 40.9249 40.5401 48.6737 22.6747C99.149 -87.6392 -84.5639 95.9662 -99.8464 228.45C-100.385 115.123 0.0279846 -27.2626 116.261 -33.72C152.853 -35.8724 -68.8509 142.782 42.0011 109.419C-48.4025 104.038 254.019 -56.3208 162.647 -54.8141C6.70062 -52.2312 -64.3307 67.2307 -107.918 174.639C-123.093 3.62537 226.037 -235.837 398.234 -206.24ZM211.293 38.3877C221.194 44.6298 241.858 41.9392 257.571 43.3383C242.18 40.6478 227.006 34.6208 211.293 38.3877ZM122.18 92.4146C87.9562 90.1545 15.0952 112.648 69.9832 60.9886C3.25668 116.953 83.7589 96.6119 122.18 92.4146Z" fill="#CAD4E3" />
			<rect x="-420.779" y="-261.881" width="819.013" height="819.013" fill="#CAD4E3" />
		</g>
		<path d="M18.1439 27.6253C15.7172 27.6253 13.75 25.6581 13.75 23.2314C13.75 20.8071 15.7135 18.8409 18.1378 18.8376L20.5017 18.8343C21.5602 18.8328 22.5495 19.3602 23.1384 20.2398C23.7264 21.1182 24.7137 21.6454 25.7707 21.6454H27.9667C29.031 21.6454 30.0245 21.1124 30.6132 20.2258C31.201 19.3404 32.1925 18.8077 33.2552 18.8062L35.5827 18.803C38.0213 18.7996 40 20.7755 40 23.2141C40 25.6504 38.0251 27.6253 35.5888 27.6253H18.1439Z" fill="url(#paint1_linear_1537_8418)" />
		<path d="M18.1439 27.6253C15.7172 27.6253 13.75 25.6581 13.75 23.2314C13.75 20.8071 15.7135 18.8409 18.1378 18.8376L20.5017 18.8343C21.5602 18.8328 22.5495 19.3602 23.1384 20.2398C23.7264 21.1182 24.7137 21.6454 25.7707 21.6454H27.9667C29.031 21.6454 30.0245 21.1124 30.6132 20.2258C31.201 19.3404 32.1925 18.8077 33.2552 18.8062L35.5827 18.803C38.0213 18.7996 40 20.7755 40 23.2141C40 25.6504 38.0251 27.6253 35.5888 27.6253H18.1439Z" fill="url(#paint2_radial_1537_8418)" />
	</g>
	<defs>
		<filter id="filter0_dd_1537_8418" x="0.71875" y="0" width="53.2344" height="57.1562" filterUnits="userSpaceOnUse" color-interpolation-filters="sRGB">
			<feFlood flood-opacity="0" result="BackgroundImageFix" />
			<feColorMatrix in="SourceAlpha" type="matrix" values="0 0 0 0 0 0 0 0 0 0 0 0 0 0 0 0 0 0 127 0" result="hardAlpha" />
			<feOffset dy="2" />
			<feGaussianBlur stdDeviation="1" />
			<feColorMatrix type="matrix" values="0 0 0 0 0 0 0 0 0 0 0 0 0 0 0 0 0 0 0.1 0" />
			<feBlend mode="normal" in2="BackgroundImageFix" result="effect1_dropShadow_1537_8418" />
			<feColorMatrix in="SourceAlpha" type="matrix" values="0 0 0 0 0 0 0 0 0 0 0 0 0 0 0 0 0 0 127 0" result="hardAlpha" />
			<feOffset dy="16" />
			<feGaussianBlur stdDeviation="8" />
			<feColorMatrix type="matrix" values="0 0 0 0 0 0 0 0 0 0 0 0 0 0 0 0 0 0 0.1 0" />
			<feBlend mode="normal" in2="effect1_dropShadow_1537_8418" result="effect2_dropShadow_1537_8418" />
			<feBlend mode="normal" in="SourceGraphic" in2="effect2_dropShadow_1537_8418" result="shape" />
		</filter>
		<filter id="filter1_biii_1537_8418" x="10.3438" y="-10" width="35.9688" height="40.7812" filterUnits="userSpaceOnUse" color-interpolation-filters="sRGB">
			<feFlood flood-opacity="0" result="BackgroundImageFix" />
			<feGaussianBlur in="BackgroundImage" stdDeviation="5" />
			<feComposite in2="SourceAlpha" operator="in" result="effect1_backgroundBlur_1537_8418" />
			<feBlend mode="normal" in="SourceGraphic" in2="effect1_backgroundBlur_1537_8418" result="shape" />
			<feColorMatrix in="SourceAlpha" type="matrix" values="0 0 0 0 0 0 0 0 0 0 0 0 0 0 0 0 0 0 127 0" result="hardAlpha" />
			<feOffset dy="-4" />
			<feGaussianBlur stdDeviation="0.5" />
			<feComposite in2="hardAlpha" operator="arithmetic" k2="-1" k3="1" />
			<feColorMatrix type="matrix" values="0 0 0 0 0.920833 0 0 0 0 0.920833 0 0 0 0 0.920833 0 0 0 0.1 0" />
			<feBlend mode="normal" in2="shape" result="effect2_innerShadow_1537_8418" />
			<feColorMatrix in="SourceAlpha" type="matrix" values="0 0 0 0 0 0 0 0 0 0 0 0 0 0 0 0 0 0 127 0" result="hardAlpha" />
			<feOffset dx="-1" />
			<feGaussianBlur stdDeviation="0.5" />
			<feComposite in2="hardAlpha" operator="arithmetic" k2="-1" k3="1" />
			<feColorMatrix type="matrix" values="0 0 0 0 0.920833 0 0 0 0 0.920833 0 0 0 0 0.920833 0 0 0 0.1 0" />
			<feBlend mode="normal" in2="effect2_innerShadow_1537_8418" result="effect3_innerShadow_1537_8418" />
			<feColorMatrix in="SourceAlpha" type="matrix" values="0 0 0 0 0 0 0 0 0 0 0 0 0 0 0 0 0 0 127 0" result="hardAlpha" />
			<feOffset dx="1" />
			<feGaussianBlur stdDeviation="0.5" />
			<feComposite in2="hardAlpha" operator="arithmetic" k2="-1" k3="1" />
			<feColorMatrix type="matrix" values="0 0 0 0 0.920833 0 0 0 0 0.920833 0 0 0 0 0.920833 0 0 0 0.1 0" />
			<feBlend mode="normal" in2="effect3_innerShadow_1537_8418" result="effect4_innerShadow_1537_8418" />
		</filter>
		<filter id="filter2_bi_1537_8418" x="11.9844" y="-7.8125" width="35.9688" height="40.7812" filterUnits="userSpaceOnUse" color-interpolation-filters="sRGB">
			<feFlood flood-opacity="0" result="BackgroundImageFix" />
			<feGaussianBlur in="BackgroundImage" stdDeviation="5" />
			<feComposite in2="SourceAlpha" operator="in" result="effect1_backgroundBlur_1537_8418" />
			<feBlend mode="normal" in="SourceGraphic" in2="effect1_backgroundBlur_1537_8418" result="shape" />
			<feColorMatrix in="SourceAlpha" type="matrix" values="0 0 0 0 0 0 0 0 0 0 0 0 0 0 0 0 0 0 127 0" result="hardAlpha" />
			<feOffset dx="1" />
			<feGaussianBlur stdDeviation="0.5" />
			<feComposite in2="hardAlpha" operator="arithmetic" k2="-1" k3="1" />
			<feColorMatrix type="matrix" values="0 0 0 0 0.920833 0 0 0 0 0.920833 0 0 0 0 0.920833 0 0 0 0.1 0" />
			<feBlend mode="normal" in2="shape" result="effect2_innerShadow_1537_8418" />
		</filter>
		<linearGradient id="paint0_linear_1537_8418" x1="28.3281" y1="0" x2="28.3281" y2="20.7812" gradientUnits="userSpaceOnUse">
			<stop stop-color="#CBD5E3" />
			<stop offset="1" stop-color="#ECF0F3" />
		</linearGradient>
		<linearGradient id="paint1_linear_1537_8418" x1="26.8762" y1="18.7547" x2="26.8762" y2="27.556" gradientUnits="userSpaceOnUse">
			<stop stop-color="white" stop-opacity="0.4" />
			<stop offset="0.833333" stop-color="white" stop-opacity="0" />
			<stop offset="1" stop-color="white" stop-opacity="0.3" />
		</linearGradient>
		<radialGradient id="paint2_radial_1537_8418" cx="0" cy="0" r="1" gradientUnits="userSpaceOnUse" gradientTransform="translate(13.75 19.9559) scale(20.1289 10.507)">
			<stop stop-color="white" stop-opacity="0.7" />
			<stop offset="1" stop-color="white" stop-opacity="0" />
		</radialGradient>
		<clipPath id="clip0_1537_8418">
			<rect width="819.013" height="819.013" fill="white" transform="translate(-420.779 -261.881)" />
		</clipPath>
	</defs>
</svg>
