<svg width="24" height="18" viewBox="0 0 24 18" fill="none" xmlns="http://www.w3.org/2000/svg">
<path d="M18 13.4668L8.99875 13.4668L9.76966e-07 13.4668L8.02121e-07 17.314L8.99875 17.314L18 17.314L18 13.4668Z" fill="#EAEAEA" fill-opacity="0.29"/>
<path d="M24 8.65771L14.9987 8.65771L6 8.65771L6 12.5049L14.9987 12.5049L24 12.5049L24 8.65771Z" fill="#EAEAEA" fill-opacity="0.29"/>
<path d="M8.5012 7.69592C7.80892 7.69615 7.13211 7.49891 6.55638 7.12915C5.98065 6.75939 5.53186 6.23372 5.26677 5.61862C5.00168 5.00352 4.93219 4.32663 5.06711 3.67354C5.20202 3.02046 5.53526 2.42053 6.0247 1.94962C6.51413 1.47871 7.13778 1.15798 7.81674 1.028C8.49571 0.898011 9.1995 0.964609 9.83912 1.21937C10.4787 1.47412 11.0254 1.90559 11.4101 2.45921C11.7947 3.01283 12 3.66373 12 4.32957C11.999 5.2219 11.6302 6.07744 10.9742 6.70852C10.3183 7.3396 9.42896 7.6947 8.5012 7.69592Z" fill="#EAEAEA" fill-opacity="0.29"/>
</svg>
