<svg width="23" height="23" viewBox="0 0 23 23" fill="none" xmlns="http://www.w3.org/2000/svg">
<path d="M19.7407 3.25797C17.653 1.17187 14.8221 0 11.8703 0C8.91861 0 6.0877 1.17187 4 3.25797L8.31251 7.5693C9.26151 6.65052 10.5338 6.14158 11.8548 6.15231C13.1758 6.16303 14.4397 6.69256 15.3736 7.62662C16.3076 8.56069 16.8367 9.8244 16.8469 11.1451C16.8571 12.4657 16.3476 13.7375 15.4282 14.6858L19.7407 19C21.8277 16.9119 23 14.0808 23 11.129C23 8.17714 21.8277 5.34606 19.7407 3.25797Z" fill="#4B40D1"/>
<path d="M14.6649 15.4805C13.717 16.4284 12.4313 16.9609 11.0908 16.9609C9.75025 16.9609 8.46461 16.4284 7.51669 15.4805C6.56878 14.5325 6.03625 13.2469 6.03625 11.9064C6.03625 10.5658 6.56878 9.28016 7.51669 8.33225L3.18445 4C1.12724 6.10554 -0.0168998 8.93724 0.000188702 11.8809C0.0172772 14.8245 1.19422 17.6428 3.27573 19.7243C5.35724 21.8058 8.17546 22.9827 11.1191 22.9998C14.0628 23.0169 16.8945 21.8728 19 19.8156L14.6678 15.4805H14.6649Z" fill="#4ACBD3"/>
</svg>
