<svg width="54" height="58" viewBox="0 0 54 58" fill="none" xmlns="http://www.w3.org/2000/svg">
	<g style="mix-blend-mode:multiply" opacity="0.9" filter="url(#filter0_dd_1537_9919)">
		<g opacity="0.7" filter="url(#filter1_biii_1537_9919)">
			<path d="M23.3438 20.7812C21.6869 20.7812 20.3438 19.4381 20.3438 17.7812V3C20.3438 1.34315 21.6869 0 23.3438 0H33.3125C34.9694 0 36.3125 1.34315 36.3125 3V17.7812C36.3125 19.4381 34.9694 20.7812 33.3125 20.7812H23.3438Z" fill="url(#paint0_linear_1537_9919)" />
		</g>
		<g opacity="0.7" filter="url(#filter2_bi_1537_9919)">
			<path d="M24.9844 22.9688C23.3275 22.9688 21.9844 21.6256 21.9844 19.9688V5.1875C21.9844 3.53065 23.3275 2.1875 24.9844 2.1875H34.9531C36.61 2.1875 37.9531 3.53065 37.9531 5.1875V19.9688C37.9531 21.6256 36.61 22.9688 34.9531 22.9688H24.9844Z" fill="url(#paint1_linear_1537_9919)" />
		</g>
		<path opacity="0.7" d="M19.7188 25.1562C18.0619 25.1562 16.7188 23.8131 16.7188 22.1562V7.375C16.7188 5.71815 18.0619 4.375 19.7188 4.375H29.6875C31.3444 4.375 32.6875 5.71815 32.6875 7.375V22.1562C32.6875 23.8131 31.3444 25.1562 29.6875 25.1562H19.7188Z" fill="white" />
	</g>
	<mask id="mask0_1537_9919" style="mask-type:alpha" maskUnits="userSpaceOnUse" x="13" y="18" width="27" height="10">
		<path d="M18.1439 27.6253C15.7172 27.6253 13.75 25.6581 13.75 23.2314C13.75 20.8071 15.7135 18.8409 18.1378 18.8376L20.5017 18.8343C21.5602 18.8328 22.5495 19.3602 23.1384 20.2398C23.7264 21.1182 24.7137 21.6454 25.7707 21.6454H27.9667C29.031 21.6454 30.0245 21.1124 30.6132 20.2258C31.201 19.3404 32.1925 18.8077 33.2552 18.8062L35.5827 18.803C38.0213 18.7996 40 20.7755 40 23.2141C40 25.6504 38.0251 27.6253 35.5888 27.6253H18.1439Z" fill="white" />
	</mask>
	<g mask="url(#mask0_1537_9919)">
		<g clip-path="url(#clip0_1537_9919)">
			<rect width="819.013" height="819.013" transform="translate(-420.779 -261.881)" fill="#1E55A9" />
			<path d="M-304.116 -99.9083C-322.304 -118.097 -354.591 -123.478 -408.941 -109.164C-353.838 -128.106 -321.981 -122.402 -304.116 -99.9083ZM398.234 259.231V264.72C355.077 258.908 315.149 237.706 273.499 219.518C353.57 263.105 376.925 286.459 398.234 287.536V391.069C251.113 444.235 45.3373 345.437 133.911 304.648C172.225 286.998 344.53 348.666 274.467 259.016C286.306 280.54 288.458 303.141 247.777 296.684C261.553 294.424 277.696 289.15 265.75 271.069C253.804 252.989 266.288 300.773 181.911 276.235C115.185 256.863 18.3238 309.598 81.8216 246.101C-55.9362 346.19 219.579 465.76 378.431 420.666C359.382 425.724 329.032 427.338 294.701 425.186C330.431 424.648 365.086 416.791 398.127 403.338V436.271C278.449 514.729 166.844 532.809 -36.0259 454.89C138.754 563.589 -63.2546 512.684 -67.7748 511.392C-51.739 515.805 28.0099 527.105 20.4763 513.114C12.9427 499.123 -46.6807 503.751 -92.5282 485.778C-73.5865 483.841 -40.1156 496.433 -81.7659 460.486C-0.725494 527.428 -63.5775 454.567 -108.026 421.742C-114.268 416.576 -120.187 411.087 -125.891 405.276C-120.08 410.011 -115.237 411.087 -112.008 407.32C-123.954 386.657 -134.394 367.177 -143.542 348.773C-140.959 352.217 -138.268 355.769 -135.362 359.213C-302.717 13.7419 117.337 -122.617 136.171 -242.186C134.665 -237.451 132.297 -232.715 128.961 -228.088C134.127 -241.863 136.925 -251.872 135.31 -261.774H162.216C162.754 -260.375 163.4 -258.868 163.831 -257.361C165.23 -258.868 166.414 -260.375 167.49 -261.774H203.866C203.974 -241.002 188.907 -216.357 145.857 -184.823C178.898 -205.81 206.665 -231.316 212.907 -261.881H230.557C186.97 -216.68 125.086 -149.415 89.0323 -136.608C-30.86 -80.3208 -106.412 39.1411 -124.385 156.343C-109.102 105.545 -79.8286 53.2397 -40.008 3.41013C-98.5551 83.3742 -132.995 175.607 -125.353 254.711C-121.909 278.172 -115.667 300.666 -106.519 321.545C-76.8152 380.522 -12.2412 424.217 98.6108 436.809C-36.2412 362.872 -45.712 176.791 128.1 155.482C183.526 146.334 235.4 162.262 286.413 180.128C220.979 163.661 131.866 136.648 79.4539 180.45C136.817 173.67 196.01 180.02 251.221 198.531C189.983 186.262 106.79 155.374 58.2521 210.908C71.0593 203.051 88.279 187.984 122.718 187.984C72.1355 197.67 75.3642 211.661 123.579 208.648C40.3866 214.029 -40.869 277.311 38.6646 364.056C118.198 450.8 199.131 451.446 171.257 469.634C121.642 502.244 -37.1022 430.137 -86.7165 358.89C-88.3309 357.168 -89.8376 355.446 -91.452 353.724C-26.6627 452.63 146.503 523.231 249.283 472.971C292.763 451.661 -87.147 359.105 47.0593 239.213C83.3283 206.818 178.037 206.495 226.037 248.038C194.826 227.805 82.8978 216.612 117.337 248.253C143.167 271.93 257.893 285.814 240.135 254.172C229.911 240.72 216.781 230.495 202.037 223.069C202.252 223.177 202.467 223.177 202.683 223.285C77.7319 152.899 219.149 193.581 349.373 247.5C366.27 256.217 382.629 259.661 398.234 259.231ZM-82.6268 363.087C-82.6268 363.087 -36.0259 417.329 40.9247 444.128C101.409 465.114 154.683 461.455 155.005 459.195C155.328 456.72 91.0772 457.15 15.0951 423.679C-47.2188 396.235 -82.6268 363.087 -82.6268 363.087ZM72.6736 -138.76C94.1982 -153.397 115.723 -167.926 137.248 -182.563C119.274 -175.352 85.9113 -152.751 72.6736 -138.76ZM-129.12 271.93C-129.981 261.168 -136.331 226.621 -135.47 215.428C-143.004 104.253 -92.3129 -18.0069 19.6153 -94.85C-118.788 -8.85893 -166.788 114.8 -129.12 271.93ZM-141.712 97.0424C-127.721 69.2756 -113.084 40.1097 -98.2322 10.6209C-113.084 28.2711 -142.681 86.8182 -141.712 97.0424ZM5.19376 457.473C-59.7031 426.262 -118.896 378.37 -149.461 311.751C-136.331 368.684 -49.9094 454.137 5.19376 457.473ZM279.418 248.468C288.243 261.598 293.84 266.549 306.647 289.581C352.171 371.482 100.44 271.392 127.669 339.948C144.243 381.706 260.476 402.154 294.916 402.154C200.207 384.935 137.355 359.966 143.92 332.415C153.929 291.302 450.97 434.442 279.418 248.468ZM-203.38 222.424C-204.026 203.159 -205.856 161.939 -202.304 142.782C-208.331 158.28 -205.856 200.361 -203.38 222.424ZM-125.891 405.168C-129.981 401.078 -133.856 396.881 -137.622 392.468C-133.425 397.957 -129.443 402.262 -125.891 405.168ZM-137.622 392.576C-163.021 359.32 -195.308 299.697 -202.304 238.567C-200.367 300.666 -178.412 345.329 -137.622 392.576ZM34.1445 -246.706C39.6333 -237.666 42.1086 -227.765 43.0772 -218.294C43.4001 -228.841 40.8171 -238.635 34.1445 -246.706ZM20.6916 -261.881H9.82159C20.9068 -258.222 28.7633 -253.056 34.0368 -246.706C30.8081 -252.088 26.5032 -257.254 20.6916 -261.881ZM-152.797 334.352C-177.551 284.199 -181.21 265.365 -188.313 227.805C-186.914 272.361 -182.932 288.074 -152.797 334.352ZM-186.16 427.984C-147.416 472.11 -54.86 497.939 -104.367 446.28C-90.3757 481.796 -156.026 454.89 -186.16 427.984ZM-38.5013 -231.854C-39.0394 -242.294 -41.4071 -252.303 -45.9273 -261.881H-69.2816C-62.286 -258.868 -55.721 -254.993 -49.5865 -249.935C-60.3488 -253.917 -71.1111 -257.792 -82.304 -261.881H-93.8197C-67.1291 -255.316 -45.6044 -245.307 -38.5013 -231.854ZM398.234 -261.881V-219.585C326.557 -249.182 265.857 -224.428 231.418 -195.155C196.979 -165.881 148.763 -160.285 111.203 -137.469C150.808 -165.343 205.588 -176.859 238.306 -210.222C271.023 -243.585 258.647 -248.428 265.212 -261.881H398.234ZM343.992 -248.106C320.853 -247.783 301.05 -238.742 281.678 -228.195C302.127 -235.837 323.005 -242.509 343.992 -248.106ZM289.427 414.424C264.028 412.809 236.476 409.15 209.786 403.338C236.692 411.41 263.275 414.854 289.427 414.424ZM215.167 414.208C199.669 409.581 184.171 403.554 168.458 395.805C9.71396 307.446 148.548 284.845 215.382 296.146C175.454 279.464 58.1444 258.908 91.4 343.715C84.0817 334.567 68.9068 321.437 72.1355 296.684C50.6108 355.876 143.705 398.603 215.167 414.208ZM92.5839 -123.047C34.6826 -87.8544 0.888855 -52.4464 -39.9004 3.30249C0.888855 -47.711 33.9292 -81.7199 92.5839 -123.047ZM398.234 222.424V213.383C382.521 210.8 335.274 197.024 319.669 192.289C341.301 200.791 393.283 219.195 398.234 222.424ZM-28.7076 -261.881H8.63773C82.0368 -222.922 -14.286 -157.594 -30.3219 -112.393C-2.44748 -126.276 41.5705 -178.15 43.0772 -218.186C47.4897 -173.415 17.8933 -135.854 108.405 -217.541C123.902 -227.765 126.808 -244.446 120.889 -261.881H126.378C136.064 -169.218 -50.3399 -122.079 -69.0663 -76.4464C-23.3264 -86.563 -99.5237 -51.8006 -88.2233 -44.5899C-39.3623 -76.6616 -1.58649 -122.509 48.2431 -153.182C-67.9901 -71.8186 -194.77 75.1949 -190.143 218.334C-224.044 39.6792 0.78125 -153.828 -10.5192 -225.074C-16.1156 -259.729 -23.5417 -252.733 -28.7076 -261.881ZM-50.5551 -113.792C-56.7972 -115.406 -68.4206 -104.536 -68.6358 -93.0204C-61.7479 -100.877 -56.1515 -107.334 -50.5551 -113.792ZM9.60632 -220.124C8.20724 -224.428 6.91574 -228.303 5.30139 -233.361C0.0278625 -224.213 1.31934 -220.124 9.60632 -220.124ZM21.2297 -215.603C18.001 -221.092 19.0772 -233.684 13.0503 -231.424C15.418 -226.581 7.34625 -218.294 21.2297 -215.603ZM-16.3309 -258.976C-5.89142 -223.567 -0.725494 -259.191 22.6288 -235.729C20.4763 -248.751 2.28793 -260.697 -16.3309 -258.976ZM-250.734 382.782C-222.645 436.809 -204.134 469.419 -120.51 488.253C-171.524 465.975 -211.129 437.347 -250.734 382.782ZM-420.779 389.563V398.711C-372.456 452.092 -321.658 513.652 -265.586 538.19C-255.039 544.863 -244.385 551.213 -233.622 557.132H-218.34C-256.116 538.944 -290.125 517.096 -318.645 491.805C-352.546 468.989 -386.232 427.769 -420.779 389.563ZM-420.779 -122.079V-130.258C-166.788 -231.747 -259.344 58.8361 -271.183 130.836C-283.021 202.836 -255.039 341.885 -232.438 308.199C-209.838 274.513 -288.403 227.805 -137.407 -64.6078C-203.273 28.1635 -244.277 191.213 -261.174 191.643C-278.071 192.074 -269.03 136.325 -259.344 114.8C-271.183 328.971 -93.1739 -291.801 -411.093 -156.303C-413.676 -154.904 -416.905 -153.505 -420.779 -151.998V-178.15C-326.932 -226.796 -272.259 -256.07 -194.232 -256.07C-116.205 -256.07 -54.3219 -239.603 -39.0394 -216.464C-54.4295 -74.2939 -355.99 142.244 -150.968 405.706C-107.488 453.814 -128.044 457.042 -174.322 421.527C-220.6 386.011 -269.784 303.033 -289.156 202.621C-287.757 262.352 -279.47 321.437 -253.748 370.728C-280.977 333.276 -292.708 302.065 -299.918 231.249C-307.129 160.433 -285.389 57.6523 -283.237 -22.2042C-279.793 2.87201 -279.9 18.4774 -280.869 40.5402C-231.793 -128.428 -327.255 -157.594 -420.779 -122.079ZM-305.73 -220.231C-322.842 -216.895 -356.636 -205.487 -369.335 -195.155C-348.134 -203.55 -326.932 -211.837 -305.73 -220.231ZM-83.4878 -221.953C-67.6672 -206.886 -72.6179 -181.594 -81.443 -160.715C-80.2592 -162.437 -78.9677 -164.267 -77.5685 -166.097C-62.9318 -187.191 -67.7748 -208.823 -83.4878 -221.953ZM-84.5641 -208.608C-83.2726 -190.958 -85.2098 -175.46 -90.9138 -157.702C-76.2771 -179.442 -74.017 -197.523 -84.5641 -208.608ZM-185.838 -238.419C-168.725 -238.419 -151.721 -238.419 -134.609 -238.419C-149.138 -239.819 -171.093 -239.819 -185.838 -238.419ZM-88.4385 -203.98C-105.335 -243.908 -173.353 -236.375 -209.838 -230.671C-169.802 -230.778 -115.775 -240.249 -88.4385 -203.98ZM-94.6807 -159.532C-106.304 -135.424 -130.196 -121.541 -143.972 -99.3701C-129.12 -100.231 -96.295 -142.85 -94.6807 -159.532ZM371.651 22.9976C350.126 -0.141418 349.05 -4.33875 360.351 -19.406C338.18 -8.42844 356.799 14.3877 371.651 22.9976ZM323.759 -225.828C348.512 -227.119 373.588 -220.446 398.234 -214.742V-215.711C374.019 -225.182 350.019 -234.868 323.759 -225.828ZM398.234 177.007V164.092C371.005 155.805 344.422 148.379 317.624 145.258C343.023 153.437 370.683 172.056 398.234 177.007ZM-420.779 434.119C-377.73 476.953 -334.465 520.002 -288.51 557.132H-266.555C-320.582 510.854 -370.304 454.137 -420.779 411.518V434.119ZM-420.779 441.868V492.666C-389.784 508.056 -355.775 529.365 -318.645 557.132H-301.963C-343.075 530.98 -382.035 484.271 -420.779 441.868ZM398.234 34.6209V-28.3388C391.346 -24.3567 383.92 -20.4823 375.956 -16.7154C369.068 3.08725 380.046 21.7061 398.234 34.6209ZM344.638 -19.5136C319.777 -7.35222 337.965 5.02448 349.696 18.1545C339.472 -1.8634 328.171 -3.90826 344.638 -19.5136ZM281.57 -166.85C336.889 -182.24 362.611 -167.496 398.234 -149.2V-151.783C361.642 -169.648 343.346 -188.697 281.57 -166.85ZM398.234 -68.3746V-68.4823C397.804 -68.267 397.373 -68.0518 396.943 -67.8365C397.373 -68.0518 397.804 -68.267 398.234 -68.3746ZM391.131 557.132C393.499 555.841 395.866 554.657 398.234 553.365V547.446C393.499 550.782 388.656 553.903 383.813 557.132H391.131ZM-419.38 -261.881C-419.703 -261.774 -420.026 -261.666 -420.241 -261.558C-419.918 -261.666 -419.595 -261.774 -419.273 -261.881H-419.38ZM-420.779 -261.451C-420.564 -261.451 -420.456 -261.558 -420.241 -261.558C-420.456 -261.558 -420.564 -261.451 -420.779 -261.451ZM-385.048 -261.881C-398.394 -256.608 -410.34 -252.41 -420.779 -249.182V-214.527C-374.932 -233.038 -327.793 -248.751 -282.591 -261.881H-385.048ZM-91.1291 557.132H-73.0484C-98.4474 547.876 -166.143 509.885 -174.645 505.15C-142.681 527.859 -113.407 545.616 -91.1291 557.132ZM-420.779 -71.6033V-89.8993C-188.851 -149.092 -411.093 271.607 -232.654 460.594C-397.102 356.953 -327.147 133.096 -343.183 -19.8365C-348.456 -70.3119 -382.035 -75.4778 -420.779 -71.6033ZM-359.434 -77.8455C-304.546 -17.5764 -340.6 108.343 -337.264 198.854C-337.586 133.957 -267.954 -57.397 -359.434 -77.8455ZM220.225 557.132C278.88 541.85 334.414 517.527 382.091 483.625C387.579 478.244 392.961 472.971 398.127 467.912V447.464C322.252 494.603 243.795 534.639 166.091 557.132H220.225ZM-226.519 466.729C-213.927 478.998 -198.86 489.867 -180.779 499.016L-226.519 466.729ZM254.019 164.307C189.983 119.536 349.588 204.02 398.234 209.616V190.782C320.53 168.935 120.028 106.621 254.019 164.307ZM-337.371 357.276C-323.918 390.316 -309.927 441.975 -224.905 487.177C-290.555 433.365 -313.156 398.926 -337.371 357.276ZM-394.95 235.338C-391.721 280.54 -367.506 310.998 -345.443 337.581C-400.116 174.854 -290.986 -60.4105 -420.779 -62.8858V-48.4643C-410.34 -49.971 -408.941 -61.702 -389.03 -51.9082C-338.663 -24.1414 -356.851 60.6657 -368.905 101.993C-371.703 63.1411 -350.609 7.28455 -387.416 -19.2984C-422.932 -30.8141 -380.851 25.5805 -387.739 42.9079C-395.273 19.7689 -406.681 4.7016 -420.779 -4.1235V22.7823C-380.959 60.5581 -390.43 165.921 -389.03 211.123C-405.174 178.944 -411.524 141.921 -420.779 106.621V276.881C-397.102 319.823 -377.407 365.993 -362.663 400.971C-382.465 376.11 -401.299 345.76 -420.779 315.948V368.576C-370.734 416.576 -319.829 479.643 -264.618 521.509C-292.708 504.612 -319.506 485.24 -344.69 463.392C-310.25 495.464 -272.044 522.047 -231.362 543.572C-225.658 546.8 -219.954 549.706 -214.143 552.289C-210.806 553.903 -207.578 555.41 -204.241 557.024H-98.6627C-322.842 505.473 -402.483 294.531 -394.95 235.338ZM370.36 557.132C379.831 552.612 389.194 547.769 398.234 542.603V485.24C346.898 517.096 297.391 540.666 249.822 557.132H370.36ZM314.073 221.67C345.606 238.352 372.405 251.482 398.234 251.159V223.715C395.544 223.607 387.795 221.67 373.266 217.258C428.476 269.67 352.387 241.473 314.073 221.67ZM-420.779 557.132H-352.331C-375.362 543.894 -398.394 530.442 -420.779 518.603V557.132ZM-47.3264 105.975C-47.3264 105.867 -47.2188 105.76 -47.2188 105.652C-47.2188 105.76 -47.2188 105.867 -47.3264 105.975ZM-46.0349 103.392C-46.4654 104.146 -46.7883 104.899 -47.2188 105.652C-46.7883 104.899 -46.4654 104.146 -46.0349 103.392ZM-45.6044 102.639C-45.712 102.854 -45.8197 102.962 -45.9273 103.177C-45.8197 102.962 -45.712 102.854 -45.6044 102.639ZM-45.9273 103.177C-45.9273 103.285 -46.0349 103.285 -46.0349 103.392C-46.0349 103.285 -45.9273 103.285 -45.9273 103.177ZM-37.6403 109.419C-103.291 173.993 -73.156 331.123 -52.4923 279.679C-12.1335 179.482 82.8978 88.9707 202.36 140.63C141.014 105.114 253.911 127.285 322.575 139.231C247.023 121.903 168.566 98.3339 93.8754 121.581C117.23 110.818 131.005 106.298 157.158 106.19C95.9202 99.9482 45.3373 113.724 -6.86002 153.545C-59.0573 193.365 16.1714 60.9886 5.40903 54.5312C-4.59995 48.5043 -32.2591 76.9169 -45.6044 102.639C-28.2771 69.8137 -4.16943 76.4864 -37.6403 109.419ZM-48.4026 108.343C-48.0797 107.482 -47.6493 106.728 -47.3264 105.975C-47.6493 106.728 -48.0797 107.589 -48.4026 108.343ZM179.759 106.19C245.086 112.863 284.692 130.298 347.651 137.401C283.508 123.948 242.18 105.76 179.759 106.19ZM314.073 221.67C312.351 220.809 310.736 219.841 309.014 218.98C310.521 219.948 312.243 220.809 314.073 221.67ZM-315.308 -246.168C-305.299 -249.828 -295.291 -253.487 -285.282 -257.146C-297.012 -261.02 -306.268 -251.55 -315.308 -246.168ZM-241.909 -261.881H-259.667C-332.205 -231.639 -474.483 -177.612 -241.909 -261.881ZM45.122 506.011C94.6287 528.72 44.261 534.639 16.8171 533.885C58.0368 540.235 106.037 524.737 45.122 506.011ZM98.1804 517.527C129.499 539.482 87.3104 541.634 67.7229 543.787C89.4628 542.388 150.378 539.374 98.1804 517.527ZM157.05 516.235C226.037 545.401 153.714 550.675 115.185 557.132H129.283C173.84 552.181 240.351 536.899 157.05 516.235ZM398.234 148.702V144.612C386.826 144.504 375.203 143.751 363.364 142.459C375.203 144.827 386.826 146.98 398.234 148.702ZM-78.5372 344.038C-64.5461 367.715 -37.6403 386.011 -25.8017 388.163C-40.869 380.63 -62.3936 363.41 -78.5372 344.038ZM44.1534 416.146C-92.313 276.451 37.696 149.24 130.252 133.096C66.7543 135.249 -65.6223 232.11 -33.3354 325.742C-55.9362 323.267 -81.7659 285.921 -88.869 248.791C-83.9183 304.217 -45.1739 363.41 44.1534 416.146ZM-37.6403 364.486C-80.6896 325.742 -99.6313 267.195 -99.8466 228.45C-104.474 268.809 -94.6807 321.437 -37.6403 364.486ZM398.234 155.482V152.576C390.378 151.823 382.414 150.854 374.342 149.563C382.952 151.5 390.916 153.437 398.234 155.482ZM398.234 -206.24V-184.823C370.683 -194.724 369.176 -205.917 299.651 -195.047C230.127 -184.177 36.0817 -84.1953 -6.10669 -6.92172C64.6018 -92.9128 345.714 -231.532 398.234 -130.904V-80.9666C327.31 -34.9038 112.817 -15.5316 135.849 24.8271C146.073 37.9572 177.606 51.4101 207.741 30.9617C148.548 18.0469 254.557 -20.4823 270.701 -27.2625C138.754 32.6837 251.866 22.3518 310.198 29.2397C368.53 36.1276 373.588 48.9348 398.234 58.1904V60.881C345.391 46.5671 336.889 29.9931 235.723 33.7599C349.804 40.6478 297.068 77.2397 398.234 79.7151V127.93C289.535 128.899 258.324 97.4729 177.391 97.4729C96.4584 97.4729 48.0279 103.93 15.418 123.733C-41.9453 161.078 40.9247 40.5402 48.6736 22.6747C99.1489 -87.6392 -84.5641 95.9662 -99.8466 228.45C-100.385 115.123 0.0278625 -27.2625 116.261 -33.7199C152.853 -35.8724 -68.851 142.782 42.0009 109.419C-48.4026 104.038 254.019 -56.3208 162.647 -54.8141C6.7005 -52.2311 -64.3309 67.2307 -107.918 174.639C-123.093 3.6254 226.037 -235.837 398.234 -206.24ZM211.292 38.3877C221.194 44.6299 241.857 41.9393 257.57 43.3384C242.18 40.6478 227.005 34.6209 211.292 38.3877ZM122.18 92.4146C87.9561 90.1545 15.0951 112.648 69.983 60.9886C3.25656 116.953 83.7588 96.6119 122.18 92.4146Z" fill="#CAD4E3" />
			<rect x="-420.779" y="-261.881" width="819.013" height="819.013" fill="#CAD4E3" />
		</g>
		<path d="M18.1439 27.6253C15.7172 27.6253 13.75 25.6581 13.75 23.2314C13.75 20.8071 15.7135 18.8409 18.1378 18.8376L20.5017 18.8343C21.5602 18.8328 22.5495 19.3602 23.1384 20.2398C23.7264 21.1182 24.7137 21.6454 25.7707 21.6454H27.9667C29.031 21.6454 30.0245 21.1124 30.6132 20.2258C31.201 19.3404 32.1925 18.8077 33.2552 18.8062L35.5827 18.803C38.0213 18.7996 40 20.7755 40 23.2141C40 25.6504 38.0251 27.6253 35.5888 27.6253H18.1439Z" fill="url(#paint2_linear_1537_9919)" />
		<path d="M18.1439 27.6253C15.7172 27.6253 13.75 25.6581 13.75 23.2314C13.75 20.8071 15.7135 18.8409 18.1378 18.8376L20.5017 18.8343C21.5602 18.8328 22.5495 19.3602 23.1384 20.2398C23.7264 21.1182 24.7137 21.6454 25.7707 21.6454H27.9667C29.031 21.6454 30.0245 21.1124 30.6132 20.2258C31.201 19.3404 32.1925 18.8077 33.2552 18.8062L35.5827 18.803C38.0213 18.7996 40 20.7755 40 23.2141C40 25.6504 38.0251 27.6253 35.5888 27.6253H18.1439Z" fill="url(#paint3_radial_1537_9919)" />
	</g>
	<defs>
		<filter id="filter0_dd_1537_9919" x="0.71875" y="0" width="53.2344" height="57.1562" filterUnits="userSpaceOnUse" color-interpolation-filters="sRGB">
			<feFlood flood-opacity="0" result="BackgroundImageFix" />
			<feColorMatrix in="SourceAlpha" type="matrix" values="0 0 0 0 0 0 0 0 0 0 0 0 0 0 0 0 0 0 127 0" result="hardAlpha" />
			<feOffset dy="2" />
			<feGaussianBlur stdDeviation="1" />
			<feColorMatrix type="matrix" values="0 0 0 0 0 0 0 0 0 0 0 0 0 0 0 0 0 0 0.1 0" />
			<feBlend mode="normal" in2="BackgroundImageFix" result="effect1_dropShadow_1537_9919" />
			<feColorMatrix in="SourceAlpha" type="matrix" values="0 0 0 0 0 0 0 0 0 0 0 0 0 0 0 0 0 0 127 0" result="hardAlpha" />
			<feOffset dy="16" />
			<feGaussianBlur stdDeviation="8" />
			<feColorMatrix type="matrix" values="0 0 0 0 0 0 0 0 0 0 0 0 0 0 0 0 0 0 0.1 0" />
			<feBlend mode="normal" in2="effect1_dropShadow_1537_9919" result="effect2_dropShadow_1537_9919" />
			<feBlend mode="normal" in="SourceGraphic" in2="effect2_dropShadow_1537_9919" result="shape" />
		</filter>
		<filter id="filter1_biii_1537_9919" x="10.3438" y="-10" width="35.9688" height="40.7812" filterUnits="userSpaceOnUse" color-interpolation-filters="sRGB">
			<feFlood flood-opacity="0" result="BackgroundImageFix" />
			<feGaussianBlur in="BackgroundImage" stdDeviation="5" />
			<feComposite in2="SourceAlpha" operator="in" result="effect1_backgroundBlur_1537_9919" />
			<feBlend mode="normal" in="SourceGraphic" in2="effect1_backgroundBlur_1537_9919" result="shape" />
			<feColorMatrix in="SourceAlpha" type="matrix" values="0 0 0 0 0 0 0 0 0 0 0 0 0 0 0 0 0 0 127 0" result="hardAlpha" />
			<feOffset dy="-4" />
			<feGaussianBlur stdDeviation="0.5" />
			<feComposite in2="hardAlpha" operator="arithmetic" k2="-1" k3="1" />
			<feColorMatrix type="matrix" values="0 0 0 0 0.920833 0 0 0 0 0.920833 0 0 0 0 0.920833 0 0 0 0.1 0" />
			<feBlend mode="normal" in2="shape" result="effect2_innerShadow_1537_9919" />
			<feColorMatrix in="SourceAlpha" type="matrix" values="0 0 0 0 0 0 0 0 0 0 0 0 0 0 0 0 0 0 127 0" result="hardAlpha" />
			<feOffset dx="-1" />
			<feGaussianBlur stdDeviation="0.5" />
			<feComposite in2="hardAlpha" operator="arithmetic" k2="-1" k3="1" />
			<feColorMatrix type="matrix" values="0 0 0 0 0.920833 0 0 0 0 0.920833 0 0 0 0 0.920833 0 0 0 0.1 0" />
			<feBlend mode="normal" in2="effect2_innerShadow_1537_9919" result="effect3_innerShadow_1537_9919" />
			<feColorMatrix in="SourceAlpha" type="matrix" values="0 0 0 0 0 0 0 0 0 0 0 0 0 0 0 0 0 0 127 0" result="hardAlpha" />
			<feOffset dx="1" />
			<feGaussianBlur stdDeviation="0.5" />
			<feComposite in2="hardAlpha" operator="arithmetic" k2="-1" k3="1" />
			<feColorMatrix type="matrix" values="0 0 0 0 0.920833 0 0 0 0 0.920833 0 0 0 0 0.920833 0 0 0 0.1 0" />
			<feBlend mode="normal" in2="effect3_innerShadow_1537_9919" result="effect4_innerShadow_1537_9919" />
		</filter>
		<filter id="filter2_bi_1537_9919" x="11.9844" y="-7.8125" width="35.9688" height="40.7812" filterUnits="userSpaceOnUse" color-interpolation-filters="sRGB">
			<feFlood flood-opacity="0" result="BackgroundImageFix" />
			<feGaussianBlur in="BackgroundImage" stdDeviation="5" />
			<feComposite in2="SourceAlpha" operator="in" result="effect1_backgroundBlur_1537_9919" />
			<feBlend mode="normal" in="SourceGraphic" in2="effect1_backgroundBlur_1537_9919" result="shape" />
			<feColorMatrix in="SourceAlpha" type="matrix" values="0 0 0 0 0 0 0 0 0 0 0 0 0 0 0 0 0 0 127 0" result="hardAlpha" />
			<feOffset dx="1" />
			<feGaussianBlur stdDeviation="0.5" />
			<feComposite in2="hardAlpha" operator="arithmetic" k2="-1" k3="1" />
			<feColorMatrix type="matrix" values="0 0 0 0 0.920833 0 0 0 0 0.920833 0 0 0 0 0.920833 0 0 0 0.1 0" />
			<feBlend mode="normal" in2="shape" result="effect2_innerShadow_1537_9919" />
		</filter>
		<linearGradient id="paint0_linear_1537_9919" x1="28.3281" y1="0" x2="28.3281" y2="20.7812" gradientUnits="userSpaceOnUse">
			<stop stop-color="#CBD5E3" />
			<stop offset="1" stop-color="#ECF0F3" />
		</linearGradient>
		<linearGradient id="paint1_linear_1537_9919" x1="21.7859" y1="12.5364" x2="37.9509" y2="12.5364" gradientUnits="userSpaceOnUse">
			<stop stop-color="#1E55A9" />
			<stop offset="0.98" stop-color="#2BBFC7" />
		</linearGradient>
		<linearGradient id="paint2_linear_1537_9919" x1="26.8762" y1="18.7547" x2="26.8762" y2="27.556" gradientUnits="userSpaceOnUse">
			<stop stop-color="white" stop-opacity="0.4" />
			<stop offset="0.833333" stop-color="white" stop-opacity="0" />
			<stop offset="1" stop-color="white" stop-opacity="0.3" />
		</linearGradient>
		<radialGradient id="paint3_radial_1537_9919" cx="0" cy="0" r="1" gradientUnits="userSpaceOnUse" gradientTransform="translate(13.75 19.9559) scale(20.1289 10.507)">
			<stop stop-color="white" stop-opacity="0.7" />
			<stop offset="1" stop-color="white" stop-opacity="0" />
		</radialGradient>
		<clipPath id="clip0_1537_9919">
			<rect width="819.013" height="819.013" fill="white" transform="translate(-420.779 -261.881)" />
		</clipPath>
	</defs>
</svg>
