<svg width="33" height="34" viewBox="0 0 33 34" fill="none" xmlns="http://www.w3.org/2000/svg">
	<g filter="url(#filter0_biii_0_2236)">
		<path d="M14.2518 9.17768C14.3029 9.45819 14.4906 9.68132 14.6968 9.85257C15.13 10.2123 15.4225 10.8961 15.4225 11.6803C15.4225 12.5807 15.037 13.3486 14.4957 13.6459C14.2425 13.7849 13.9899 13.9772 13.8886 14.2702C13.5227 15.3276 12.9835 16.2403 12.3241 16.9323L15.518 18.7161C18.9667 20.6423 16.1535 25.5656 12.2133 25.8448C11.3565 25.9055 10.4029 25.9414 9.34571 25.9414C8.28854 25.9414 7.33494 25.9055 6.47813 25.8448C2.5379 25.5656 -0.275267 20.6423 3.17342 18.7161L6.31277 16.9628C5.64004 16.2672 5.09028 15.3432 4.71903 14.2702C4.61766 13.9772 4.36507 13.7849 4.11194 13.6459C3.5706 13.3486 3.18508 12.5807 3.18508 11.6803C3.18508 10.8961 3.4776 10.2123 3.91081 9.85257C4.11703 9.68132 4.3047 9.4582 4.35578 9.17768C4.35798 9.16556 4.36021 9.15346 4.36246 9.14137C4.38719 9.00839 4.38173 8.87075 4.34642 8.74076C4.00383 7.47958 3.86261 5.96546 4.60999 5.10917C5.03098 4.62684 5.46936 4.43509 5.87711 4.41172C6.0915 4.39944 6.3041 4.32578 6.46669 4.1699C7.13881 3.5255 8.08525 3.05859 9.38761 3.05859C12.2916 3.05859 14.0427 5.90769 14.6934 7.6679C14.7763 7.89217 14.6501 8.13701 14.437 8.18883C14.2265 8.24006 14.1015 8.48102 14.1555 8.71308C14.1911 8.86577 14.2232 9.0207 14.2518 9.17768Z" fill="#CAD4E3" />
	</g>
	<g opacity="0.9">
		<mask id="mask0_0_2236" style="mask-type:alpha" maskUnits="userSpaceOnUse" x="5" y="0" width="20" height="29">
			<path d="M21.2242 7.75488C21.2889 8.11038 21.5266 8.39316 21.7878 8.61018C22.3365 9.0661 22.707 9.93262 22.707 10.9266C22.707 12.0677 22.2187 13.0408 21.533 13.4175C21.2124 13.5937 20.8925 13.8374 20.7641 14.2088C20.3006 15.5489 19.6176 16.7056 18.7824 17.5825L22.828 19.8432C27.1978 22.2851 23.6323 28.5241 18.639 28.8778C17.5545 28.9546 16.3476 29 15.0098 29C13.6719 29 12.465 28.9546 11.3805 28.8778C6.3872 28.5241 2.82171 22.2851 7.19154 19.8432L11.1681 17.6211C10.3159 16.7397 9.61956 15.5686 9.14931 14.2088C9.02091 13.8374 8.70096 13.5937 8.38033 13.4175C7.69463 13.0408 7.20631 12.0677 7.20631 10.9266C7.20631 9.93262 7.57683 9.0661 8.12557 8.61018C8.38678 8.39316 8.6245 8.11039 8.68919 7.75488C8.69199 7.73953 8.69481 7.72418 8.69766 7.70886C8.72898 7.54034 8.72207 7.3659 8.67734 7.20117C8.2434 5.60283 8.06451 3.68396 9.01119 2.59875C9.54444 1.98747 10.0997 1.74447 10.6162 1.71486C10.8878 1.69929 11.1571 1.60594 11.363 1.40839C12.2144 0.591727 13.4132 0 15.0629 0C18.7413 0 20.9593 3.61074 21.7835 5.8415C21.8885 6.12572 21.7286 6.43602 21.4588 6.50169C21.1921 6.56661 21.0338 6.87199 21.1022 7.16608C21.1473 7.35959 21.188 7.55593 21.2242 7.75488Z" fill="#EE9C2D" />
		</mask>
		<g mask="url(#mask0_0_2236)">
			<g clip-path="url(#clip0_0_2236)">
				<rect width="86.207" height="95.5368" transform="translate(-58.5664 -30.8831)" fill="#1E55A9" />
				<path d="M-46.2867 -11.9892C-48.2012 -14.1108 -51.5996 -14.7385 -57.3203 -13.0688C-51.5203 -15.2784 -48.1672 -14.613 -46.2867 -11.9892ZM27.6406 29.9039V30.5442C23.098 29.8662 18.8953 27.3931 14.5113 25.2714C22.9395 30.3558 25.3977 33.0801 27.6406 33.2056V45.2827C12.1551 51.4844 -9.5043 39.9597 -0.181248 35.2017C3.85157 33.1429 21.9879 40.3364 14.6133 29.8788C15.8594 32.3896 16.0859 35.026 11.8039 34.2727C13.2539 34.0091 14.9531 33.3939 13.6957 31.2848C12.4383 29.1758 13.7523 34.7498 4.87109 31.8874C-2.15234 29.6277 -12.3477 35.7792 -5.66406 28.3723C-20.1641 40.0476 8.83594 53.9952 25.5562 48.7351C23.5512 49.3251 20.3566 49.5134 16.743 49.2623C20.5039 49.1996 24.1516 48.2831 27.6293 46.7138V50.5554C15.0324 59.7074 3.28516 61.8164 -18.0684 52.7273C0.328514 65.4069 -20.9344 59.4688 -21.4102 59.3182C-19.7223 59.8329 -11.3281 61.1511 -12.1211 59.519C-12.9141 57.887 -19.1898 58.4268 -24.0156 56.3303C-22.0219 56.1043 -18.4988 57.5732 -22.8828 53.3801C-14.3527 61.1887 -20.9684 52.6896 -25.6469 48.8606C-26.3039 48.258 -26.927 47.6177 -27.5273 46.9398C-26.9156 47.4922 -26.4059 47.6177 -26.066 47.1784C-27.3234 44.768 -28.4223 42.4957 -29.3852 40.3489C-29.1133 40.7506 -28.8301 41.1649 -28.5242 41.5667C-46.1395 1.26796 -1.92578 -14.6381 0.0566406 -28.5857C-0.101952 -28.0333 -0.351173 -27.481 -0.702347 -26.9411C-0.158596 -28.5481 0.135941 -29.7156 -0.0339813 -30.8706H2.79805C2.85469 -30.7074 2.92266 -30.5316 2.96797 -30.3558C3.11523 -30.5316 3.23984 -30.7074 3.35312 -30.8706H7.18204C7.19336 -28.4476 5.60742 -25.5727 1.07617 -21.8944C4.55391 -24.3424 7.47656 -27.3177 8.13359 -30.8831H9.99141C5.40352 -25.6104 -1.11015 -17.7641 -4.90508 -16.2701C-17.5246 -9.70433 -25.477 4.23074 -27.3688 17.9022C-25.7602 11.9766 -22.6789 5.87532 -18.4875 0.0627689C-24.65 9.39047 -28.275 20.1493 -27.4707 29.3766C-27.1082 32.1134 -26.4512 34.7372 -25.4883 37.1727C-22.3617 44.0524 -15.5648 49.1493 -3.89687 50.6182C-18.091 41.9935 -19.0879 20.2874 -0.792969 17.8017C5.04102 16.7346 10.5012 18.5926 15.8707 20.6766C8.9832 18.7558 -0.396484 15.6048 -5.91328 20.7143C0.124607 19.9234 6.35508 20.6641 12.1664 22.8234C5.7207 21.3922 -3.03594 17.7892 -8.14492 24.2671C-6.79688 23.3506 -4.98438 21.5931 -1.35938 21.5931C-6.68359 22.7229 -6.34375 24.355 -1.26875 24.0035C-10.0254 24.6312 -18.5781 32.013 -10.2066 42.1316C-1.83516 52.2502 6.68359 52.3255 3.74961 54.4472C-1.47266 58.2511 -18.1816 49.8398 -23.4039 41.529C-23.5738 41.3281 -23.7324 41.1273 -23.9023 40.9264C-17.0828 52.4636 1.14414 60.6991 11.9625 54.8364C16.5391 52.3506 -23.4492 41.5541 -9.32304 27.5688C-5.50547 23.79 4.46328 23.7524 9.51562 28.5983C6.23047 26.2381 -5.55078 24.9325 -1.92578 28.6234C0.792969 31.3853 12.8687 33.0048 10.9996 29.3139C9.92343 27.7446 8.5414 26.5519 6.98946 25.6857C7.01211 25.6983 7.03477 25.6983 7.05742 25.7108C-6.09453 17.5004 8.79062 22.2459 22.4977 28.5355C24.2762 29.5524 25.998 29.9541 27.6406 29.9039ZM-22.9734 42.0186C-22.9734 42.0186 -18.0684 48.3459 -9.96875 51.4719C-3.60234 53.9199 2.00508 53.4931 2.03906 53.2294C2.07305 52.9407 -4.68984 52.9909 -12.6875 49.0866C-19.2465 45.8853 -22.9734 42.0186 -22.9734 42.0186ZM-6.62695 -16.5212C-4.36133 -18.2286 -2.0957 -19.9234 0.169922 -21.6307C-1.72187 -20.7896 -5.23359 -18.1532 -6.62695 -16.5212ZM-27.8672 31.3853C-27.9578 30.1299 -28.6262 26.1 -28.5355 24.7944C-29.3285 11.826 -23.993 -2.4355 -12.2117 -11.3991C-26.7797 -1.3684 -31.832 13.0563 -27.8672 31.3853ZM-29.1926 10.9848C-27.7199 7.74588 -26.1793 4.34372 -24.616 0.903894C-26.1793 2.96277 -29.2945 9.79221 -29.1926 10.9848ZM-13.7297 53.0286C-20.5605 49.3879 -26.791 43.8013 -30.0082 36.0303C-28.6262 42.6714 -19.5297 52.6394 -13.7297 53.0286ZM15.1344 28.6485C16.0633 30.1801 16.6523 30.7576 18.0004 33.4442C22.7922 42.9978 -3.7043 31.3225 -0.83828 39.3195C0.90625 44.1905 13.1406 46.5758 16.7656 46.5758C6.79688 44.5671 0.181252 41.6545 0.872269 38.4407C1.92578 33.645 33.1914 50.342 15.1344 28.6485ZM-35.6836 25.6104C-35.7516 23.3632 -35.9441 18.555 -35.5703 16.3203C-36.2047 18.1281 -35.9441 23.0368 -35.6836 25.6104ZM-27.5273 46.9273C-27.9578 46.4502 -28.3656 45.9606 -28.7621 45.4459C-28.3203 46.0861 -27.9012 46.5883 -27.5273 46.9273ZM-28.7621 45.4584C-31.4355 41.5792 -34.834 34.6242 -35.5703 27.4935C-35.3664 34.7372 -33.0555 39.9472 -28.7621 45.4584ZM-10.6824 -29.113C-10.1047 -28.0584 -9.84414 -26.9035 -9.74219 -25.7987C-9.7082 -27.029 -9.98008 -28.1714 -10.6824 -29.113ZM-12.0984 -30.8831H-13.2426C-12.0758 -30.4563 -11.2488 -29.8537 -10.6937 -29.113C-11.0336 -29.7407 -11.4867 -30.3433 -12.0984 -30.8831ZM-30.3594 38.6667C-32.9648 32.8164 -33.35 30.6195 -34.0977 26.2381C-33.9504 31.4355 -33.5312 33.2684 -30.3594 38.6667ZM-33.8711 49.5887C-29.793 54.7359 -20.0508 57.7489 -25.2617 51.7229C-23.7891 55.8658 -30.6992 52.7273 -33.8711 49.5887ZM-18.3289 -27.3805C-18.3855 -28.5983 -18.6348 -29.7658 -19.1105 -30.8831H-21.5687C-20.8324 -30.5316 -20.1414 -30.0797 -19.4957 -29.4896C-20.6285 -29.9541 -21.7613 -30.4061 -22.9395 -30.8831H-24.1516C-21.3422 -30.1173 -19.0766 -28.9498 -18.3289 -27.3805ZM27.6406 -30.8831V-25.9494C20.0961 -29.4017 13.707 -26.5143 10.082 -23.0996C6.45703 -19.6848 1.38203 -19.032 -2.57149 -16.3706C1.59726 -19.6221 7.36328 -20.9654 10.807 -24.8571C14.2508 -28.7489 12.9481 -29.3139 13.6391 -30.8831H27.6406ZM21.9312 -29.2762C19.4957 -29.2385 17.4113 -28.184 15.3723 -26.9537C17.5246 -27.845 19.7223 -28.6234 21.9312 -29.2762ZM16.1879 48.0069C13.5145 47.8186 10.6145 47.3918 7.80508 46.7138C10.6371 47.6554 13.4352 48.0571 16.1879 48.0069ZM8.37149 47.9818C6.74023 47.442 5.10899 46.739 3.45508 45.8351C-13.2539 35.5281 1.35937 32.8918 8.39413 34.21C4.1914 32.2641 -8.15625 29.8662 -4.65586 39.7589C-5.42617 38.6918 -7.02344 37.1602 -6.68359 34.2727C-8.94922 41.1775 0.849613 46.1615 8.37149 47.9818ZM-4.53125 -14.6883C-10.6258 -10.5831 -14.1828 -6.45282 -18.4762 0.0502129C-14.1828 -5.90044 -10.7051 -9.86753 -4.53125 -14.6883ZM27.6406 25.6104V24.5558C25.9867 24.2545 21.0137 22.6476 19.3711 22.0952C21.648 23.087 27.1195 25.2338 27.6406 25.6104ZM-17.298 -30.8831H-13.3672C-5.64141 -26.3385 -15.7801 -18.7182 -17.468 -13.4455C-14.534 -15.0649 -9.90078 -21.116 -9.74219 -25.7861C-9.27773 -20.5636 -12.393 -16.1823 -2.86601 -25.7108C-1.23476 -26.9035 -0.928909 -28.8494 -1.55196 -30.8831H-0.97422C0.045311 -20.074 -19.575 -14.5753 -21.5461 -9.25238C-16.7316 -10.4325 -24.752 -6.37749 -23.5625 -5.53637C-18.4195 -9.27749 -14.4434 -14.6255 -9.19844 -18.2035C-21.4328 -8.71256 -34.7773 8.43636 -34.2902 25.1333C-37.8586 4.29351 -14.1941 -18.2788 -15.3836 -26.5896C-15.9727 -30.632 -16.7543 -29.816 -17.298 -30.8831ZM-19.5977 -13.6087C-20.2547 -13.797 -21.4781 -12.529 -21.5008 -11.1857C-20.7758 -12.1022 -20.1867 -12.8554 -19.5977 -13.6087ZM-13.2652 -26.0121C-13.4125 -26.5143 -13.5484 -26.9662 -13.7184 -27.5563C-14.2734 -26.4892 -14.1375 -26.0121 -13.2652 -26.0121ZM-12.0418 -25.4848C-12.3816 -26.1251 -12.2684 -27.5939 -12.9027 -27.3303C-12.6535 -26.7654 -13.5031 -25.7987 -12.0418 -25.4848ZM-15.9953 -30.5442C-14.8965 -26.4139 -14.3527 -30.5693 -11.8945 -27.8325C-12.1211 -29.3515 -14.0355 -30.745 -15.9953 -30.5442ZM-40.668 44.316C-37.7113 50.6182 -35.7629 54.4221 -26.9609 56.619C-32.3305 54.0203 -36.4992 50.6809 -40.668 44.316ZM-58.5664 45.1069V46.174C-53.4801 52.4009 -48.1332 59.5818 -42.2313 62.4442C-41.1211 63.2225 -39.9996 63.9632 -38.8668 64.6537H-37.2582C-41.2344 62.532 -44.8141 59.9835 -47.816 57.0333C-51.3844 54.3719 -54.9301 49.5636 -58.5664 45.1069ZM-58.5664 -14.5753V-15.5294C-31.832 -27.368 -41.5742 6.52814 -42.8203 14.9268C-44.0664 23.3255 -41.1211 39.5455 -38.7422 35.616C-36.3633 31.6866 -44.6328 26.2381 -28.7395 -7.87143C-35.6723 2.95021 -39.9883 21.9697 -41.7668 22.0199C-43.5453 22.0701 -42.5938 15.5671 -41.5742 13.0563C-42.8203 38.039 -24.0836 -34.3732 -57.5469 -18.5675C-57.8188 -18.4043 -58.1586 -18.2411 -58.5664 -18.0654V-21.116C-48.6883 -26.7905 -42.9336 -30.2052 -34.7207 -30.2052C-26.5078 -30.2052 -19.9941 -28.2844 -18.3855 -25.5853C-20.0055 -9.0013 -51.7469 16.2576 -30.1668 46.99C-25.5902 52.6017 -27.7539 52.9783 -32.625 48.8355C-37.4961 44.6926 -42.673 35.0134 -44.7121 23.3004C-44.5648 30.268 -43.6926 37.1602 -40.9852 42.91C-43.8512 38.5411 -45.0859 34.9004 -45.8449 26.6398C-46.6039 18.3792 -44.3156 6.39004 -44.0891 -2.92511C-43.7266 -1.90735e-06 -43.7379 1.82034 -43.8398 4.39394C-38.6742 -15.316 -48.7223 -18.7182 -58.5664 -14.5753ZM-46.4566 -26.0247C-48.2578 -25.6355 -51.8148 -24.3048 -53.1516 -23.0996C-50.9199 -24.0788 -48.6883 -25.0455 -46.4566 -26.0247ZM-23.0641 -26.2255C-21.3988 -24.468 -21.9199 -21.5177 -22.8488 -19.0823C-22.7242 -19.2831 -22.5883 -19.4965 -22.441 -19.71C-20.9004 -22.1706 -21.4102 -24.6939 -23.0641 -26.2255ZM-23.1773 -24.6688C-23.0414 -22.61 -23.2453 -20.8022 -23.8457 -18.7307C-22.3051 -21.2667 -22.0672 -23.3758 -23.1773 -24.6688ZM-33.8371 -28.1463C-32.0359 -28.1463 -30.2461 -28.1463 -28.4449 -28.1463C-29.9742 -28.3095 -32.2852 -28.3095 -33.8371 -28.1463ZM-23.5852 -24.129C-25.3637 -28.7866 -32.523 -27.9078 -36.3633 -27.2424C-32.1492 -27.255 -26.4625 -28.3597 -23.5852 -24.129ZM-24.2422 -18.9442C-25.4656 -16.132 -27.9805 -14.5126 -29.4305 -11.9264C-27.8672 -12.0268 -24.4121 -16.9983 -24.2422 -18.9442ZM24.8426 2.34762C22.577 -0.351515 22.4637 -0.841127 23.6531 -2.5987C21.3195 -1.31818 23.2793 1.34329 24.8426 2.34762ZM19.8016 -26.6775C22.407 -26.8281 25.0465 -26.0498 27.6406 -25.3844V-25.4974C25.0918 -26.6022 22.5656 -27.732 19.8016 -26.6775ZM27.6406 20.3125V18.8061C24.7746 17.8394 21.9766 16.9732 19.1559 16.6091C21.8293 17.5632 24.7406 19.7351 27.6406 20.3125ZM-58.5664 50.3043C-54.0352 55.3009 -49.4812 60.3225 -44.6441 64.6537H-42.3332C-48.0199 59.2554 -53.2535 52.6394 -58.5664 47.668V50.3043ZM-58.5664 51.2082V57.1338C-55.3039 58.929 -51.7242 61.4147 -47.816 64.6537H-46.0602C-50.3875 61.603 -54.4883 56.1545 -58.5664 51.2082ZM27.6406 3.70346V-3.64069C26.9156 -3.17619 26.134 -2.72424 25.2957 -2.28485C24.5707 0.0251064 25.7262 2.19697 27.6406 3.70346ZM21.9992 -2.61126C19.3824 -1.19264 21.2969 0.251081 22.5316 1.78268C21.4555 -0.552382 20.266 -0.790911 21.9992 -2.61126ZM15.3609 -19.7978C21.1836 -21.5931 23.891 -19.8732 27.6406 -17.739V-18.0403C23.7891 -20.1242 21.8633 -22.3463 15.3609 -19.7978ZM27.6406 -8.31082V-8.32338C27.5953 -8.29827 27.55 -8.27316 27.5047 -8.24805C27.55 -8.27316 27.5953 -8.29827 27.6406 -8.31082ZM26.893 64.6537C27.1422 64.503 27.3914 64.3649 27.6406 64.2143V63.5238C27.1422 63.913 26.6324 64.2771 26.1227 64.6537H26.893ZM-58.4191 -30.8831C-58.4531 -30.8706 -58.4871 -30.858 -58.5098 -30.8455C-58.4758 -30.858 -58.4418 -30.8706 -58.4078 -30.8831H-58.4191ZM-58.5664 -30.8329C-58.5437 -30.8329 -58.5324 -30.8455 -58.5098 -30.8455C-58.5324 -30.8455 -58.5437 -30.8329 -58.5664 -30.8329ZM-54.8055 -30.8831C-56.2102 -30.268 -57.4676 -29.7784 -58.5664 -29.4017V-25.3593C-53.7406 -27.5186 -48.7789 -29.3515 -44.0211 -30.8831H-54.8055ZM-23.8684 64.6537H-21.9652C-24.6387 63.574 -31.7641 59.1424 -32.659 58.59C-29.2945 61.239 -26.2133 63.3104 -23.8684 64.6537ZM-58.5664 -8.68745V-10.8216C-34.1543 -17.7264 -57.5469 31.3476 -38.7648 53.3926C-56.0742 41.303 -48.7109 15.1905 -50.3988 -2.64892C-50.9539 -8.5368 -54.4883 -9.13939 -58.5664 -8.68745ZM-52.1094 -9.41559C-46.332 -2.38528 -50.127 12.303 -49.7758 22.861C-49.8098 15.2909 -42.4805 -7.0303 -52.1094 -9.41559ZM8.9039 64.6537C15.0777 62.871 20.923 60.0338 25.9414 56.0792C26.5191 55.4515 27.0855 54.8364 27.6293 54.2463V51.861C19.643 57.3597 11.3848 62.0299 3.20586 64.6537H8.9039ZM-38.1191 54.1082C-36.7938 55.5394 -35.2078 56.8074 -33.3047 57.8745L-38.1191 54.1082ZM12.4609 18.8312C5.7207 13.6087 22.5203 23.4636 27.6406 24.1164V21.9195C19.4617 19.371 -1.64258 12.1022 12.4609 18.8312ZM-49.7871 41.3407C-48.3711 45.1948 -46.8984 51.2208 -37.9492 56.4935C-44.8594 50.2164 -47.2383 46.1991 -49.7871 41.3407ZM-55.8477 27.1169C-55.5078 32.3896 -52.959 35.9424 -50.6367 39.0433C-56.3914 20.0615 -44.9047 -7.38182 -58.5664 -7.67056V-5.98831C-57.4676 -6.16407 -57.3203 -7.53247 -55.2246 -6.39005C-49.923 -3.15108 -51.8375 6.74156 -53.1062 11.5623C-53.4008 7.0303 -51.1805 0.514715 -55.0547 -2.58615C-58.793 -3.92944 -54.3637 2.64892 -55.0887 4.67013C-55.8816 1.971 -57.0824 0.213417 -58.5664 -0.816019V2.32251C-54.375 6.729 -55.3719 19.0195 -55.2246 24.2922C-56.9238 20.5385 -57.5922 16.2199 -58.5664 12.1022V31.9628C-56.0742 36.9719 -54.0012 42.3576 -52.4492 46.4377C-54.5336 43.5377 -56.516 39.9974 -58.5664 36.5199V42.6589C-53.2988 48.258 -47.9406 55.6147 -42.1293 60.4983C-45.0859 58.5273 -47.9066 56.2675 -50.5574 53.719C-46.9324 57.4602 -42.9109 60.561 -38.6289 63.0719C-38.0285 63.4485 -37.4281 63.7874 -36.8164 64.0887C-36.4652 64.2771 -36.1254 64.4528 -35.7742 64.6411H-24.6613C-48.2578 58.6277 -56.6406 34.0216 -55.8477 27.1169ZM24.7066 64.6537C25.7035 64.1264 26.6891 63.5615 27.6406 62.9589V56.2675C22.2371 59.9835 17.0262 62.7329 12.0191 64.6537H24.7066ZM18.782 25.5225C22.1012 27.4684 24.9219 29 27.6406 28.9623V25.761C27.3574 25.7485 26.5418 25.5225 25.0125 25.0078C30.8238 31.1216 22.8148 27.8325 18.782 25.5225ZM-58.5664 64.6537H-51.3617C-53.7859 63.1095 -56.2102 61.5403 -58.5664 60.1593V64.6537ZM-19.2578 12.0268C-19.2578 12.0143 -19.2465 12.0017 -19.2465 11.9892C-19.2465 12.0017 -19.2465 12.0143 -19.2578 12.0268ZM-19.1219 11.7255C-19.1672 11.8134 -19.2012 11.9013 -19.2465 11.9892C-19.2012 11.9013 -19.1672 11.8134 -19.1219 11.7255ZM-19.0766 11.6377C-19.0879 11.6628 -19.0992 11.6753 -19.1105 11.7004C-19.0992 11.6753 -19.0879 11.6628 -19.0766 11.6377ZM-19.1105 11.7004C-19.1105 11.713 -19.1219 11.713 -19.1219 11.7255C-19.1219 11.713 -19.1105 11.713 -19.1105 11.7004ZM-18.2383 12.4286C-25.1484 19.961 -21.9766 38.29 -19.8016 32.2892C-15.5535 20.6013 -5.55078 10.0433 7.02344 16.0693C0.566406 11.9264 12.4496 14.5126 19.677 15.9061C11.7246 13.8848 3.46641 11.1355 -4.39531 13.8472C-1.93711 12.5918 -0.48711 12.0645 2.26562 12.0519C-4.18008 11.3238 -9.5043 12.9307 -14.9984 17.5758C-20.4926 22.2208 -12.5742 6.77922 -13.707 6.02597C-14.7605 5.32294 -17.6719 8.63723 -19.0766 11.6377C-17.2527 7.80866 -14.7152 8.58701 -18.2383 12.4286ZM-19.3711 12.303C-19.3371 12.2026 -19.2918 12.1147 -19.2578 12.0268C-19.2918 12.1147 -19.3371 12.2151 -19.3711 12.303ZM4.64453 12.0519C11.5207 12.8303 15.6895 14.8641 22.3164 15.6926C15.5648 14.1234 11.2148 12.0017 4.64453 12.0519ZM18.782 25.5225C18.6008 25.4221 18.4309 25.3091 18.2496 25.2087C18.4082 25.3216 18.5895 25.4221 18.782 25.5225ZM-47.4648 -29.0502C-46.4113 -29.4771 -45.3578 -29.9039 -44.3043 -30.3307C-45.5391 -30.7827 -46.5133 -29.6779 -47.4648 -29.0502ZM-39.7391 -30.8831H-41.6082C-49.2434 -27.3554 -64.2191 -21.0532 -39.7391 -30.8831ZM-9.52695 58.6905C-4.31602 61.3394 -9.61758 62.0299 -12.5062 61.942C-8.16758 62.6827 -3.11523 60.8749 -9.52695 58.6905ZM-3.94218 60.0338C-0.645702 62.5948 -5.08633 62.8459 -7.14805 63.097C-4.85977 62.9338 1.55196 62.5822 -3.94218 60.0338ZM2.2543 59.8831C9.51562 63.2853 1.90313 63.9004 -2.15234 64.6537H-0.668358C4.02148 64.0762 11.0223 62.2935 2.2543 59.8831ZM27.6406 17.0108V16.5338C26.4398 16.5212 25.2164 16.4333 23.9703 16.2827C25.2164 16.5589 26.4398 16.81 27.6406 17.0108ZM-22.543 39.7965C-21.0703 42.5584 -18.2383 44.6926 -16.9922 44.9437C-18.5781 44.0649 -20.8438 42.0563 -22.543 39.7965ZM-9.62891 48.2078C-23.993 31.9126 -10.3086 17.0736 -0.566406 15.1905C-7.25 15.4416 -21.1836 26.7403 -17.7852 37.6623C-20.1641 37.3736 -22.8828 33.0173 -23.6305 28.6861C-23.1094 35.1515 -19.0312 42.0563 -9.62891 48.2078ZM-18.2383 42.1818C-22.7695 37.6623 -24.7633 30.8329 -24.7859 26.3134C-25.273 31.0212 -24.2422 37.1602 -18.2383 42.1818ZM27.6406 17.8017V17.4628C26.8137 17.3749 25.9754 17.2619 25.1258 17.1113C26.032 17.3372 26.8703 17.5632 27.6406 17.8017ZM27.6406 -24.3926V-21.8944C24.7406 -23.0494 24.582 -24.355 17.2641 -23.087C9.9461 -21.819 -10.4785 -10.1563 -14.9191 -1.14243C-7.47656 -11.1732 22.1125 -27.3429 27.6406 -15.6048V-9.77966C20.1754 -4.40649 -2.40156 -2.14676 0.0226593 2.56104C1.09883 4.09264 4.41797 5.6619 7.58984 3.27662C1.35938 1.77013 12.5176 -2.72425 14.2168 -3.51515C0.328514 3.47749 12.2344 2.27229 18.3742 3.07576C24.5141 3.87922 25.0465 5.37316 27.6406 6.45281V6.76666C22.0785 5.09697 21.1836 3.16364 10.5352 3.60303C22.543 4.40649 16.9922 8.67489 27.6406 8.96363V14.5879C16.1992 14.7009 12.9141 11.0351 4.39531 11.0351C-4.12344 11.0351 -9.2211 11.7883 -12.6535 14.0983C-18.6914 18.4545 -9.96875 4.39394 -9.15312 2.30996C-3.84023 -10.558 -23.1773 10.8593 -24.7859 26.3134C-24.8426 13.0939 -14.2734 -3.51515 -2.03906 -4.2684C1.8125 -4.51948 -21.5234 16.3203 -9.85547 12.4286C-19.3711 11.8009 12.4609 -6.90476 2.84336 -6.72901C-13.5711 -6.42771 -21.0477 7.50736 -25.6355 20.0364C-27.2328 0.0878792 9.51562 -27.845 27.6406 -24.3926ZM7.96367 4.14286C9.00586 4.87099 11.1809 4.55714 12.8348 4.72034C11.2148 4.40649 9.61758 3.70346 7.96367 4.14286ZM-1.41602 10.445C-5.01836 10.1814 -12.6875 12.8052 -6.91016 6.77922C-13.9336 13.3074 -5.46016 10.9346 -1.41602 10.445Z" fill="#1E55A9" />
				<rect x="-58.5664" y="-30.8831" width="86.207" height="95.5368" fill="#CAD4E3" />
			</g>
			<path d="M21.2242 7.75488C21.2889 8.11038 21.5266 8.39316 21.7878 8.61018C22.3365 9.0661 22.707 9.93262 22.707 10.9266C22.707 12.0677 22.2187 13.0408 21.533 13.4175C21.2124 13.5937 20.8925 13.8374 20.7641 14.2088C20.3006 15.5489 19.6176 16.7056 18.7824 17.5825L22.828 19.8432C25.2922 21.2202 26.8477 27.0941 26.8477 27.0941C26.8477 27.0941 23.6758 29 15.0098 29C6.34375 29 3.17188 27.0941 3.17188 27.0941C3.17188 27.0941 4.72729 21.2202 7.19154 19.8432L11.1681 17.6211C10.3159 16.7397 9.61956 15.5686 9.14931 14.2088C9.02091 13.8374 8.70096 13.5937 8.38033 13.4175C7.69463 13.0408 7.20631 12.0677 7.20631 10.9266C7.20631 9.93262 7.57683 9.0661 8.12557 8.61018C8.38678 8.39316 8.6245 8.11039 8.68919 7.75488C8.69199 7.73953 8.69481 7.72418 8.69766 7.70886C8.72898 7.54034 8.72207 7.3659 8.67734 7.20117C8.2434 5.60283 8.06451 3.68395 9.01119 2.59875C9.54444 1.98747 10.0997 1.74447 10.6162 1.71486C10.8878 1.69929 11.1571 1.60594 11.363 1.40839C12.2144 0.591727 13.4132 0 15.0629 0C18.7413 0 20.9593 3.61074 21.7835 5.8415C21.8885 6.12572 21.7286 6.43602 21.4588 6.50169C21.1921 6.5666 21.0338 6.87199 21.1022 7.16608C21.1473 7.35959 21.188 7.55593 21.2242 7.75488Z" fill="url(#paint0_linear_0_2236)" fill-opacity="0.8" />
			<path d="M21.2242 7.75488C21.2889 8.11038 21.5266 8.39316 21.7878 8.61018C22.3365 9.0661 22.707 9.93262 22.707 10.9266C22.707 12.0677 22.2187 13.0408 21.533 13.4175C21.2124 13.5937 20.8925 13.8374 20.7641 14.2088C20.3006 15.5489 19.6176 16.7056 18.7824 17.5825L22.828 19.8432C25.2922 21.2202 26.8477 27.0941 26.8477 27.0941C26.8477 27.0941 23.6758 29 15.0098 29C6.34375 29 3.17188 27.0941 3.17188 27.0941C3.17188 27.0941 4.72729 21.2202 7.19154 19.8432L11.1681 17.6211C10.3159 16.7397 9.61956 15.5686 9.14931 14.2088C9.02091 13.8374 8.70096 13.5937 8.38033 13.4175C7.69463 13.0408 7.20631 12.0677 7.20631 10.9266C7.20631 9.93262 7.57683 9.0661 8.12557 8.61018C8.38678 8.39316 8.6245 8.11039 8.68919 7.75488C8.69199 7.73953 8.69481 7.72418 8.69766 7.70886C8.72898 7.54034 8.72207 7.3659 8.67734 7.20117C8.2434 5.60283 8.06451 3.68395 9.01119 2.59875C9.54444 1.98747 10.0997 1.74447 10.6162 1.71486C10.8878 1.69929 11.1571 1.60594 11.363 1.40839C12.2144 0.591727 13.4132 0 15.0629 0C18.7413 0 20.9593 3.61074 21.7835 5.8415C21.8885 6.12572 21.7286 6.43602 21.4588 6.50169C21.1921 6.5666 21.0338 6.87199 21.1022 7.16608C21.1473 7.35959 21.188 7.55593 21.2242 7.75488Z" fill="url(#paint1_radial_0_2236)" fill-opacity="0.6" />
		</g>
	</g>
	<g filter="url(#filter1_dd_0_2236)">
		<g filter="url(#filter2_bi_0_2236)">
			<path d="M25.8065 9.17768C25.8576 9.45819 26.0452 9.68132 26.2515 9.85257C26.6847 10.2123 26.9772 10.8961 26.9772 11.6803C26.9772 12.5807 26.5917 13.3486 26.0503 13.6459C25.7972 13.7849 25.5446 13.9772 25.4432 14.2702C25.0774 15.3276 24.5382 16.2403 23.8788 16.9323L27.0727 18.7161C30.5214 20.6423 27.7082 25.5656 23.768 25.8448C22.9112 25.9055 21.9576 25.9414 20.9004 25.9414C19.8432 25.9414 18.8896 25.9055 18.0328 25.8448C14.0926 25.5656 11.2794 20.6423 14.7281 18.7161L17.8675 16.9628C17.1947 16.2672 16.645 15.3432 16.2737 14.2702C16.1723 13.9772 15.9198 13.7849 15.6666 13.6459C15.1253 13.3486 14.7398 12.5807 14.7398 11.6803C14.7398 10.8961 15.0323 10.2123 15.4655 9.85257C15.6717 9.68132 15.8594 9.4582 15.9105 9.17768C15.9127 9.16556 15.9149 9.15346 15.9171 9.14137C15.9419 9.00839 15.9364 8.87075 15.9011 8.74076C15.5585 7.47958 15.4173 5.96546 16.1647 5.10917C16.5857 4.62684 17.024 4.43509 17.4318 4.41172C17.6462 4.39944 17.8588 4.32578 18.0214 4.1699C18.6935 3.5255 19.6399 3.05859 20.9423 3.05859C23.8463 3.05859 25.5974 5.90769 26.2481 7.6679C26.3309 7.89217 26.2047 8.13701 25.9917 8.18883C25.7812 8.24006 25.6562 8.48102 25.7102 8.71308C25.7458 8.86577 25.7779 9.0207 25.8065 9.17768Z" fill="url(#paint2_linear_0_2236)" />
		</g>
	</g>
	<defs>
		<filter id="filter0_biii_0_2236" x="-8.38214" y="-6.94141" width="35.4557" height="42.8828" filterUnits="userSpaceOnUse" color-interpolation-filters="sRGB">
			<feFlood flood-opacity="0" result="BackgroundImageFix" />
			<feGaussianBlur in="BackgroundImage" stdDeviation="5" />
			<feComposite in2="SourceAlpha" operator="in" result="effect1_backgroundBlur_0_2236" />
			<feBlend mode="normal" in="SourceGraphic" in2="effect1_backgroundBlur_0_2236" result="shape" />
			<feColorMatrix in="SourceAlpha" type="matrix" values="0 0 0 0 0 0 0 0 0 0 0 0 0 0 0 0 0 0 127 0" result="hardAlpha" />
			<feOffset dy="-4" />
			<feGaussianBlur stdDeviation="0.5" />
			<feComposite in2="hardAlpha" operator="arithmetic" k2="-1" k3="1" />
			<feColorMatrix type="matrix" values="0 0 0 0 0.920833 0 0 0 0 0.920833 0 0 0 0 0.920833 0 0 0 0.1 0" />
			<feBlend mode="normal" in2="shape" result="effect2_innerShadow_0_2236" />
			<feColorMatrix in="SourceAlpha" type="matrix" values="0 0 0 0 0 0 0 0 0 0 0 0 0 0 0 0 0 0 127 0" result="hardAlpha" />
			<feOffset dx="-1" />
			<feGaussianBlur stdDeviation="0.5" />
			<feComposite in2="hardAlpha" operator="arithmetic" k2="-1" k3="1" />
			<feColorMatrix type="matrix" values="0 0 0 0 0.920833 0 0 0 0 0.920833 0 0 0 0 0.920833 0 0 0 0.1 0" />
			<feBlend mode="normal" in2="effect2_innerShadow_0_2236" result="effect3_innerShadow_0_2236" />
			<feColorMatrix in="SourceAlpha" type="matrix" values="0 0 0 0 0 0 0 0 0 0 0 0 0 0 0 0 0 0 127 0" result="hardAlpha" />
			<feOffset dx="1" />
			<feGaussianBlur stdDeviation="0.5" />
			<feComposite in2="hardAlpha" operator="arithmetic" k2="-1" k3="1" />
			<feColorMatrix type="matrix" values="0 0 0 0 0.920833 0 0 0 0 0.920833 0 0 0 0 0.920833 0 0 0 0.1 0" />
			<feBlend mode="normal" in2="effect3_innerShadow_0_2236" result="effect4_innerShadow_0_2236" />
		</filter>
		<filter id="filter1_dd_0_2236" x="9.17255" y="3.05859" width="23.4557" height="30.8828" filterUnits="userSpaceOnUse" color-interpolation-filters="sRGB">
			<feFlood flood-opacity="0" result="BackgroundImageFix" />
			<feColorMatrix in="SourceAlpha" type="matrix" values="0 0 0 0 0 0 0 0 0 0 0 0 0 0 0 0 0 0 127 0" result="hardAlpha" />
			<feOffset dy="2" />
			<feGaussianBlur stdDeviation="1" />
			<feColorMatrix type="matrix" values="0 0 0 0 0 0 0 0 0 0 0 0 0 0 0 0 0 0 0.1 0" />
			<feBlend mode="normal" in2="BackgroundImageFix" result="effect1_dropShadow_0_2236" />
			<feColorMatrix in="SourceAlpha" type="matrix" values="0 0 0 0 0 0 0 0 0 0 0 0 0 0 0 0 0 0 127 0" result="hardAlpha" />
			<feOffset dy="4" />
			<feGaussianBlur stdDeviation="2" />
			<feColorMatrix type="matrix" values="0 0 0 0 0 0 0 0 0 0 0 0 0 0 0 0 0 0 0.1 0" />
			<feBlend mode="normal" in2="effect1_dropShadow_0_2236" result="effect2_dropShadow_0_2236" />
			<feBlend mode="normal" in="SourceGraphic" in2="effect2_dropShadow_0_2236" result="shape" />
		</filter>
		<filter id="filter2_bi_0_2236" x="3.17255" y="-6.94141" width="35.4557" height="42.8828" filterUnits="userSpaceOnUse" color-interpolation-filters="sRGB">
			<feFlood flood-opacity="0" result="BackgroundImageFix" />
			<feGaussianBlur in="BackgroundImage" stdDeviation="5" />
			<feComposite in2="SourceAlpha" operator="in" result="effect1_backgroundBlur_0_2236" />
			<feBlend mode="normal" in="SourceGraphic" in2="effect1_backgroundBlur_0_2236" result="shape" />
			<feColorMatrix in="SourceAlpha" type="matrix" values="0 0 0 0 0 0 0 0 0 0 0 0 0 0 0 0 0 0 127 0" result="hardAlpha" />
			<feOffset dx="-1" />
			<feGaussianBlur stdDeviation="0.5" />
			<feComposite in2="hardAlpha" operator="arithmetic" k2="-1" k3="1" />
			<feColorMatrix type="matrix" values="0 0 0 0 0.920833 0 0 0 0 0.920833 0 0 0 0 0.920833 0 0 0 0.1 0" />
			<feBlend mode="normal" in2="shape" result="effect2_innerShadow_0_2236" />
		</filter>
		<linearGradient id="paint0_linear_0_2236" x1="15.0108" y1="-0.138635" x2="15.0108" y2="28.7725" gradientUnits="userSpaceOnUse">
			<stop stop-color="white" stop-opacity="0.4" />
			<stop offset="0.833333" stop-color="white" stop-opacity="0" />
			<stop offset="1" stop-color="white" stop-opacity="0.3" />
		</linearGradient>
		<radialGradient id="paint1_radial_0_2236" cx="0" cy="0" r="1" gradientUnits="userSpaceOnUse" gradientTransform="translate(3.17187 3.80727) scale(18.155 34.514)">
			<stop stop-color="white" stop-opacity="0.7" />
			<stop offset="1" stop-color="white" stop-opacity="0" />
		</radialGradient>
		<linearGradient id="paint2_linear_0_2236" x1="20.9004" y1="3.05859" x2="20.9004" y2="25.9414" gradientUnits="userSpaceOnUse">
			<stop stop-color="#ECF0F3" />
			<stop offset="1" stop-color="#ECF0F3" />
		</linearGradient>
		<clipPath id="clip0_0_2236">
			<rect width="86.207" height="95.5368" fill="white" transform="translate(-58.5664 -30.8831)" />
		</clipPath>
	</defs>
</svg>
