<svg width="28" height="17" viewBox="0 0 28 17" fill="none" xmlns="http://www.w3.org/2000/svg">
<path d="M0 16.6436L10.0018 0.292786L20 16.6436H0Z" fill="#EAEAEA" fill-opacity="0.29"/>
<path d="M21.5263 16.5402L15.0005 6.25168L27.5263 6.54482L21.5263 16.5402Z" fill="#EAEAEA" fill-opacity="0.29"/>
<path d="M5.12158 1.13852C5.54107 1.54205 5.82671 2.05615 5.94241 2.61581C6.0581 3.17547 5.99865 3.75556 5.77157 4.28273C5.54448 4.80989 5.15996 5.26046 4.66663 5.57746C4.1733 5.89446 3.59331 6.06366 3 6.06366C2.40668 6.06366 1.82669 5.89446 1.33336 5.57746C0.840032 5.26046 0.455519 4.80989 0.228434 4.28273C0.00134954 3.75556 -0.0581043 3.17547 0.0575909 2.61581C0.173286 2.05615 0.458935 1.54205 0.878418 1.13852C1.15693 0.870404 1.48766 0.657711 1.8517 0.512594C2.21573 0.367478 2.60593 0.292786 3 0.292786C3.39406 0.292786 3.78427 0.367478 4.1483 0.512594C4.51234 0.657711 4.84307 0.870404 5.12158 1.13852Z" fill="#EAEAEA" fill-opacity="0.29"/>
</svg>
