<svg width="24" height="19" viewBox="0 0 24 19" fill="none" xmlns="http://www.w3.org/2000/svg">
<path d="M24 0H0V11H24V0Z" fill="#EAEAEA" fill-opacity="0.29"/>
<path d="M16.5012 19C15.8089 19.0002 15.1321 18.7952 14.5564 18.4107C13.9807 18.0263 13.5319 17.4797 13.2668 16.8402C13.0017 16.2007 12.9322 15.4969 13.0671 14.8179C13.202 14.1389 13.5353 13.5152 14.0247 13.0256C14.5141 12.536 15.1378 12.2025 15.8167 12.0673C16.4957 11.9322 17.1995 12.0014 17.8391 12.2663C18.4787 12.5312 19.0254 12.9798 19.4101 13.5554C19.7947 14.131 20 14.8077 20 15.5C19.999 16.4278 19.6302 17.3173 18.9742 17.9734C18.3183 18.6295 17.429 18.9987 16.5012 19Z" fill="#EAEAEA" fill-opacity="0.29"/>
<path d="M8.5012 19C7.80892 19.0002 7.13211 18.7952 6.55638 18.4107C5.98065 18.0263 5.53186 17.4797 5.26677 16.8402C5.00168 16.2007 4.93219 15.4969 5.06711 14.8179C5.20202 14.1389 5.53526 13.5152 6.0247 13.0256C6.51414 12.5359 7.13778 12.2025 7.81674 12.0673C8.49571 11.9322 9.1995 12.0014 9.83912 12.2663C10.4787 12.5312 11.0254 12.9798 11.4101 13.5554C11.7947 14.131 12 14.8077 12 15.5C11.999 16.4278 11.6302 17.3173 10.9742 17.9734C10.3183 18.6295 9.42896 18.9987 8.5012 19Z" fill="#EAEAEA" fill-opacity="0.29"/>
</svg>
