<svg width="23" height="24" viewBox="0 0 23 24" fill="none" xmlns="http://www.w3.org/2000/svg">
<path d="M19.7407 4.21127C17.653 2.12518 14.8221 0.953308 11.8703 0.953308C8.91861 0.953308 6.0877 2.12518 4 4.21127L8.31251 8.52261C9.26151 7.60383 10.5338 7.09489 11.8548 7.10561C13.1758 7.11634 14.4397 7.64587 15.3736 8.57993C16.3076 9.514 16.8367 10.7777 16.8469 12.0984C16.8571 13.419 16.3476 14.6908 15.4282 15.6391L19.7407 19.9533C21.8277 17.8652 23 15.0341 23 12.0823C23 9.13045 21.8277 6.29937 19.7407 4.21127V4.21127Z" fill="#EAEAEA" fill-opacity="0.29"/>
<path d="M14.6649 16.4338C13.717 17.3817 12.4313 17.9142 11.0908 17.9142C9.75025 17.9142 8.46461 17.3817 7.51669 16.4338C6.56878 15.4859 6.03625 14.2002 6.03625 12.8597C6.03625 11.5191 6.56878 10.2335 7.51669 9.28556V9.28556L3.18445 4.95331C1.12724 7.05884 -0.0168998 9.89054 0.000188702 12.8342C0.0172772 15.7778 1.19422 18.5961 3.27573 20.6776C5.35724 22.7591 8.17546 23.936 11.1191 23.9531C14.0628 23.9702 16.8945 22.8261 19 20.7689L14.6678 16.4338H14.6649Z" fill="#EAEAEA" fill-opacity="0.29"/>
</svg>
