<svg width="24" height="25" viewBox="0 0 24 25" fill="none" xmlns="http://www.w3.org/2000/svg">
	<path d="M22.2432 14.7572C23.0821 15.5964 23.6534 16.6656 23.8848 17.8295C24.1162 18.9934 23.9973 20.1998 23.5431 21.2962C23.089 22.3925 22.3199 23.3296 21.3333 23.9888C20.3466 24.6481 19.1866 25 18 25C16.8134 25 15.6534 24.6481 14.6667 23.9888C13.6801 23.3296 12.911 22.3925 12.4569 21.2962C12.0027 20.1998 11.8838 18.9934 12.1152 17.8295C12.3466 16.6656 12.9179 15.5964 13.7568 14.7572C14.8824 13.632 16.4086 13 18 13C19.5914 13 21.1176 13.632 22.2432 14.7572Z" fill="#EAEAEA" fill-opacity="0.29" />
	<path d="M22.9752 5.02501C23.4646 5.51456 23.7978 6.13825 23.9328 6.8172C24.0678 7.49616 23.9984 8.1999 23.7335 8.83944C23.4686 9.47897 23.02 10.0256 22.4444 10.4102C21.8689 10.7947 21.1922 11 20.5 11C19.8078 11 19.1311 10.7947 18.5556 10.4102C17.98 10.0256 17.5314 9.47897 17.2665 8.83944C17.0016 8.1999 16.9322 7.49616 17.0672 6.8172C17.2022 6.13825 17.5354 5.51456 18.0248 5.02501C18.6814 4.36869 19.5717 4 20.5 4C21.4283 4 22.3186 4.36869 22.9752 5.02501Z" fill="#EAEAEA" fill-opacity="0.29" />
	<path d="M13.6576 2.34483C14.7762 3.46365 15.5379 4.88901 15.8464 6.4407C16.1549 7.99238 15.9964 9.60069 15.3908 11.0623C14.7853 12.5239 13.7599 13.7731 12.4443 14.652C11.1288 15.5309 9.58216 16 7.99999 16C6.41782 16 4.87118 15.5309 3.55563 14.652C2.24008 13.7731 1.21472 12.5239 0.609158 11.0623C0.00359876 9.60069 -0.154945 7.99238 0.153576 6.4407C0.462096 4.88901 1.22383 3.46365 2.34245 2.34483C3.08516 1.60147 3.96709 1.01177 4.93785 0.60943C5.90861 0.207089 6.94915 0 7.99999 0C9.05084 0 10.0914 0.207089 11.0621 0.60943C12.0329 1.01177 12.9148 1.60147 13.6576 2.34483Z" fill="#EAEAEA" fill-opacity="0.29" />
</svg>
