<svg width="31" height="22" viewBox="0 0 31 22" fill="none" xmlns="http://www.w3.org/2000/svg">
<g style="mix-blend-mode:multiply">
<path d="M21.2176 3.74877C19.4232 1.95446 17.0376 0.966309 14.5 0.966309C11.9625 0.966309 9.57678 1.95446 7.78246 3.74877C5.98815 5.54309 5 7.92878 5 10.4663C5 13.0039 5.98819 15.3895 7.78246 17.1839C9.57674 18.9782 11.9625 19.9663 14.5 19.9663C17.0376 19.9663 19.4232 18.9782 21.2176 17.1839C23.0119 15.3896 24 13.0039 24 10.4663C24 7.92878 23.0118 5.54313 21.2176 3.74877ZM14.5 9.87257C15.9733 9.87257 17.1719 11.0712 17.1719 12.5444C17.1719 13.7645 16.3497 14.7955 15.2304 15.114C15.15 15.1369 15.0938 15.2092 15.0938 15.2928V15.7933C15.0938 16.113 14.8481 16.3881 14.5287 16.4032C14.1877 16.4192 13.9063 16.1475 13.9063 15.8101V15.2927C13.9063 15.2094 13.8504 15.137 13.7702 15.1142C12.6557 14.7973 11.8356 13.774 11.8282 12.561C11.8262 12.2373 12.0808 11.9602 12.4044 11.951C12.7403 11.9413 13.0156 12.2107 13.0156 12.5444C13.0156 13.398 13.7399 14.0857 14.6061 14.0251C15.3373 13.974 15.9296 13.3817 15.9807 12.6505C16.0412 11.7842 15.3536 11.0601 14.5 11.0601C13.0267 11.0601 11.8281 9.86147 11.8281 8.38819C11.8281 7.16815 12.6504 6.13717 13.7696 5.81863C13.85 5.79573 13.9063 5.7234 13.9063 5.6398V5.13934C13.9063 4.8196 14.152 4.54451 14.4713 4.52948C14.8123 4.51345 15.0938 4.78513 15.0938 5.12256V5.63991C15.0938 5.72329 15.1496 5.79565 15.2298 5.81848C16.3443 6.13539 17.1644 7.15861 17.1719 8.3716C17.1738 8.69538 16.9193 8.97241 16.5956 8.98168C16.2597 8.99133 15.9844 8.72192 15.9844 8.38819C15.9844 7.5346 15.2601 6.84696 14.3939 6.90753C13.6627 6.95863 13.0704 7.55097 13.0193 8.28217C12.9589 9.14842 13.6465 9.87257 14.5 9.87257Z" fill="url(#paint0_linear_0_2236)"/>
</g>
<g opacity="0.9" filter="url(#filter0_di_0_2236)">
<path d="M2 14H16C16.5523 14 17 14.4477 17 15V20C17 20.5523 16.5523 21 16 21H4C2.89543 21 2 20.1046 2 19V14Z" fill="#CAD4E3"/>
</g>
<g opacity="0.5" filter="url(#filter1_d_0_2236)">
<path d="M15 10H28C28.5523 10 29 10.4477 29 11V16C29 16.5523 28.5523 17 28 17H17C15.8954 17 15 16.1046 15 15V10Z" fill="white"/>
<path d="M15 10H28C28.5523 10 29 10.4477 29 11V16C29 16.5523 28.5523 17 28 17H17C15.8954 17 15 16.1046 15 15V10Z" fill="#7D859A" fill-opacity="0.08"/>
</g>
<defs>
<filter id="filter0_di_0_2236" x="0" y="11" width="21" height="14" filterUnits="userSpaceOnUse" color-interpolation-filters="sRGB">
<feFlood flood-opacity="0" result="BackgroundImageFix"/>
<feColorMatrix in="SourceAlpha" type="matrix" values="0 0 0 0 0 0 0 0 0 0 0 0 0 0 0 0 0 0 127 0" result="hardAlpha"/>
<feOffset dy="-1"/>
<feGaussianBlur stdDeviation="1"/>
<feColorMatrix type="matrix" values="0 0 0 0 0 0 0 0 0 0 0 0 0 0 0 0 0 0 0.04 0"/>
<feBlend mode="normal" in2="BackgroundImageFix" result="effect1_dropShadow_0_2236"/>
<feBlend mode="normal" in="SourceGraphic" in2="effect1_dropShadow_0_2236" result="shape"/>
<feColorMatrix in="SourceAlpha" type="matrix" values="0 0 0 0 0 0 0 0 0 0 0 0 0 0 0 0 0 0 127 0" result="hardAlpha"/>
<feOffset dx="4" dy="4"/>
<feGaussianBlur stdDeviation="4"/>
<feComposite in2="hardAlpha" operator="arithmetic" k2="-1" k3="1"/>
<feColorMatrix type="matrix" values="0 0 0 0 1 0 0 0 0 1 0 0 0 0 1 0 0 0 0.5 0"/>
<feBlend mode="normal" in2="shape" result="effect2_innerShadow_0_2236"/>
</filter>
<filter id="filter1_d_0_2236" x="13" y="10" width="18" height="11" filterUnits="userSpaceOnUse" color-interpolation-filters="sRGB">
<feFlood flood-opacity="0" result="BackgroundImageFix"/>
<feColorMatrix in="SourceAlpha" type="matrix" values="0 0 0 0 0 0 0 0 0 0 0 0 0 0 0 0 0 0 127 0" result="hardAlpha"/>
<feOffset dy="2"/>
<feGaussianBlur stdDeviation="1"/>
<feColorMatrix type="matrix" values="0 0 0 0 0 0 0 0 0 0 0 0 0 0 0 0 0 0 0.1 0"/>
<feBlend mode="normal" in2="BackgroundImageFix" result="effect1_dropShadow_0_2236"/>
<feBlend mode="normal" in="SourceGraphic" in2="effect1_dropShadow_0_2236" result="shape"/>
</filter>
<linearGradient id="paint0_linear_0_2236" x1="4.76386" y1="10.4282" x2="23.9974" y2="10.4282" gradientUnits="userSpaceOnUse">
<stop stop-color="#1E55A9"/>
<stop offset="0.98" stop-color="#2BBFC7"/>
</linearGradient>
</defs>
</svg>
