<svg width="24" height="23" viewBox="0 0 24 23" fill="none" xmlns="http://www.w3.org/2000/svg">
<path d="M21.9504 11.05C22.9292 12.0291 23.5957 13.2765 23.8656 14.6344C24.1356 15.9923 23.9969 17.3998 23.467 18.6789C22.9371 19.9579 22.0399 21.0512 20.8888 21.8203C19.7377 22.5895 18.3844 23 17 23C15.6156 23 14.2623 22.5895 13.1112 21.8203C11.9601 21.0512 11.0629 19.9579 10.533 18.6789C10.0031 17.3998 9.86442 15.9923 10.1344 14.6344C10.4043 13.2765 11.0708 12.0291 12.0496 11.05C13.3628 9.73738 15.1434 9 17 9C18.8566 9 20.6372 9.73738 21.9504 11.05Z" fill="#4ACBD3"/>
<path d="M22.536 5.46429C23.2351 6.16366 23.7112 7.05464 23.904 8.02458C24.0968 8.99452 23.9978 9.99986 23.6193 10.9135C23.2408 11.8271 22.5999 12.608 21.7777 13.1574C20.9555 13.7068 19.9889 14 19 14C18.0111 14 17.0445 13.7068 16.2223 13.1574C15.4001 12.608 14.7592 11.8271 14.3807 10.9135C14.0022 9.99986 13.9032 8.99452 14.096 8.02458C14.2888 7.05464 14.7649 6.16366 15.464 5.46429C16.402 4.5267 17.6738 4 19 4C20.3262 4 21.598 4.5267 22.536 5.46429Z" fill="#ECA0A0"/>
<path d="M16.2183 2.78448C17.5467 4.11308 18.4513 5.8057 18.8176 7.64833C19.184 9.49095 18.9957 11.4008 18.2766 13.1365C17.5575 14.8721 16.3399 16.3555 14.7777 17.3992C13.2154 18.4429 11.3788 19 9.49999 19C7.62117 19 5.78453 18.4429 4.22232 17.3992C2.6601 16.3555 1.44248 14.8721 0.723376 13.1365C0.00427353 11.4008 -0.183997 9.49095 0.182371 7.64833C0.548739 5.8057 1.45329 4.11308 2.78166 2.78448C3.66362 1.90175 4.71093 1.20148 5.8637 0.723698C7.01648 0.245918 8.25211 0 9.49999 0C10.7479 0 11.9835 0.245918 13.1363 0.723698C14.2891 1.20148 15.3364 1.90175 16.2183 2.78448Z" fill="#4B40D1"/>
</svg>
