<svg width="60" height="56" viewBox="0 0 60 56" fill="none" xmlns="http://www.w3.org/2000/svg">
	<g filter="url(#filter0_d_1537_8204)">
		<path d="M43.5903 17.7547C39.2306 14.8583 34.8607 11.8601 30.632 8.94234C30.2604 8.68589 29.7396 8.68589 29.368 8.94234C25.1393 11.8601 20.7694 14.8583 16.4097 17.7547C15.8712 18.1125 15.8617 18.7863 16.3921 19.1331C20.6847 21.942 25.0567 24.8944 29.3568 27.808C29.7346 28.064 30.2653 28.064 30.6431 27.808C34.9432 24.8944 39.3152 21.942 43.6078 19.1331C44.1383 18.7862 44.1289 18.1125 43.5903 17.7547Z" fill="#CAD4E3" />
	</g>
	<g filter="url(#filter1_d_1537_8204)">
		<mask id="mask0_1537_8204" style="mask-type:alpha" maskUnits="userSpaceOnUse" x="16" y="4" width="28" height="20">
			<path d="M43.5903 13.4115C39.2306 10.5048 34.8607 7.49606 30.632 4.56802C30.2604 4.31066 29.7396 4.31066 29.368 4.56802C25.1393 7.49612 20.7694 10.5049 16.4097 13.4115C15.8712 13.7706 15.8617 14.4468 16.3921 14.7948C20.6847 17.6136 25.0567 20.5764 29.3568 23.5003C29.7346 23.7572 30.2653 23.7572 30.6431 23.5003C34.9432 20.5764 39.3152 17.6136 43.6078 14.7948C44.1383 14.4467 44.1289 13.7706 43.5903 13.4115Z" fill="#353535" />
		</mask>
		<g mask="url(#mask0_1537_8204)">
			<rect width="761" height="761" transform="translate(-265 -515)" fill="#CAD4E3" />
			<path d="M-156.6 -364.5C-173.5 -381.4 -203.5 -386.4 -254 -373.1C-202.8 -390.7 -173.2 -385.4 -156.6 -364.5ZM496 -30.8V-25.7C455.9 -31.1 418.8 -50.8 380.1 -67.7C454.5 -27.2 476.2 -5.5 496 -4.5V91.7C359.3 141.1 168.1 49.3 250.4 11.4C286 -4.99998 446.1 52.3 381 -31C392 -11 394 10 356.2 4C369 1.9 384 -2.99999 372.9 -19.8C361.8 -36.6 373.4 7.8 295 -15C233 -33 143 16 202 -43C74 50 330 161.1 477.6 119.2C459.9 123.9 431.7 125.4 399.8 123.4C433 122.9 465.2 115.6 495.9 103.1V133.7C384.7 206.6 281 223.4 92.5 151C254.9 252 67.2 204.7 63 203.5C77.9 207.6 152 218.1 145 205.1C138 192.1 82.6 196.4 40 179.7C57.6 177.9 88.7 189.6 50 156.2C125.3 218.4 66.9 150.7 25.6 120.2C19.8 115.4 14.3 110.3 9 104.9C14.4 109.3 18.9 110.3 21.9 106.8C10.8 87.6 1.10001 69.5 -7.39999 52.4C-4.99999 55.6 -2.49999 58.9 0.200012 62.1C-155.3 -258.9 235 -385.6 252.5 -496.7C251.1 -492.3 248.9 -487.9 245.8 -483.6C250.6 -496.4 253.2 -505.7 251.7 -514.9H276.7C277.2 -513.6 277.8 -512.2 278.2 -510.8C279.5 -512.2 280.6 -513.6 281.6 -514.9H315.4C315.5 -495.6 301.5 -472.7 261.5 -443.4C292.2 -462.9 318 -486.6 323.8 -515H340.2C299.7 -473 242.2 -410.5 208.7 -398.6C97.3 -346.3 27.1 -235.3 10.4 -126.4C24.6 -173.6 51.8 -222.2 88.8 -268.5C34.4 -194.2 2.4 -108.5 9.5 -35C12.7 -13.2 18.5 7.69998 27 27.1C54.6 81.9 114.6 122.5 217.6 134.2C92.3 65.5 83.5 -107.4 245 -127.2C296.5 -135.7 344.7 -120.9 392.1 -104.3C331.3 -119.6 248.5 -144.7 199.8 -104C253.1 -110.3 308.1 -104.4 359.4 -87.2C302.5 -98.6 225.2 -127.3 180.1 -75.7C192 -83 208 -97 240 -97C193 -88 196 -75 240.8 -77.8C163.5 -72.8 88 -14 161.9 66.6C235.8 147.2 311 147.8 285.1 164.7C239 195 91.5 128 45.4 61.8C43.9 60.2 42.5 58.6 41 57C101.2 148.9 262.1 214.5 357.6 167.8C398 148 45 62 169.7 -49.4C203.4 -79.5 291.4 -79.8 336 -41.2C307 -60 203 -70.4 235 -41C259 -19 365.6 -6.1 349.1 -35.5C339.6 -48 327.4 -57.5 313.7 -64.4C313.9 -64.3 314.1 -64.3 314.3 -64.2C198.2 -129.6 329.6 -91.8 450.6 -41.7C466.3 -33.6 481.5 -30.4 496 -30.8ZM49.2 65.7C49.2 65.7 92.5 116.1 164 141C220.2 160.5 269.7 157.1 270 155C270.3 152.7 210.6 153.1 140 122C82.1 96.5 49.2 65.7 49.2 65.7ZM193.5 -400.6C213.5 -414.2 233.5 -427.7 253.5 -441.3C236.8 -434.6 205.8 -413.6 193.5 -400.6ZM6 -19C5.2 -29 -0.699994 -61.1 0.100006 -71.5C-6.89999 -174.8 40.2 -288.4 144.2 -359.8C15.6 -279.9 -29 -165 6 -19ZM-5.70001 -181.5C7.29999 -207.3 20.9 -234.4 34.7 -261.8C20.9 -245.4 -6.60001 -191 -5.70001 -181.5ZM130.8 153.4C70.5 124.4 15.5 79.9 -12.9 18C-0.699994 70.9 79.6 150.3 130.8 153.4ZM385.6 -40.8C393.8 -28.6 399 -24 410.9 -2.59998C453.2 73.5 219.3 -19.5 244.6 44.2C260 83 368 102 400 102C312 86 253.6 62.8 259.7 37.2C269 -0.999989 545 132 385.6 -40.8ZM-63 -65C-63.6 -82.9 -65.3 -121.2 -62 -139C-67.6 -124.6 -65.3 -85.5 -63 -65ZM9 104.8C5.2 101 1.60001 97.1 -1.89999 93C2.00001 98.1 5.7 102.1 9 104.8ZM-1.89999 93.1C-25.5 62.2 -55.5 6.8 -62 -50C-60.2 7.7 -39.8 49.2 -1.89999 93.1ZM157.7 -500.9C162.8 -492.5 165.1 -483.3 166 -474.5C166.3 -484.3 163.9 -493.4 157.7 -500.9ZM145.2 -515H135.1C145.4 -511.6 152.7 -506.8 157.6 -500.9C154.6 -505.9 150.6 -510.7 145.2 -515ZM-16 39C-39 -7.6 -42.4 -25.1 -49 -60C-47.7 -18.6 -44 -4 -16 39ZM-47 126C-11 167 75 191 29 143C42 176 -19 151 -47 126ZM90.2 -487.1C89.7 -496.8 87.5 -506.1 83.3 -515H61.6C68.1 -512.2 74.2 -508.6 79.9 -503.9C69.9 -507.6 59.9 -511.2 49.5 -515H38.8C63.6 -508.9 83.6 -499.6 90.2 -487.1ZM496 -515V-475.7C429.4 -503.2 373 -480.2 341 -453C309 -425.8 264.2 -420.6 229.3 -399.4C266.1 -425.3 317 -436 347.4 -467C377.8 -498 366.3 -502.5 372.4 -515H496ZM445.6 -502.2C424.1 -501.9 405.7 -493.5 387.7 -483.7C406.7 -490.8 426.1 -497 445.6 -502.2ZM394.9 113.4C371.3 111.9 345.7 108.5 320.9 103.1C345.9 110.6 370.6 113.8 394.9 113.4ZM325.9 113.2C311.5 108.9 297.1 103.3 282.5 96.1C135 14 264 -7 326.1 3.5C289 -12 180 -31.1 210.9 47.7C204.1 39.2 190 27 193 4C173 59 259.5 98.7 325.9 113.2ZM212 -386C158.2 -353.3 126.8 -320.4 88.9 -268.6C126.8 -316 157.5 -347.6 212 -386ZM496 -65V-73.4C481.4 -75.8 437.5 -88.6 423 -93C443.1 -85.1 491.4 -68 496 -65ZM99.3 -515H134C202.2 -478.8 112.7 -418.1 97.8 -376.1C123.7 -389 164.6 -437.2 166 -474.4C170.1 -432.8 142.6 -397.9 226.7 -473.8C241.1 -483.3 243.8 -498.8 238.3 -515H243.4C252.4 -428.9 79.2 -385.1 61.8 -342.7C104.3 -352.1 33.5 -319.8 44 -313.1C89.4 -342.9 124.5 -385.5 170.8 -414C62.8 -338.4 -55 -201.8 -50.7 -68.8C-82.2 -234.8 126.7 -414.6 116.2 -480.8C111 -513 104.1 -506.5 99.3 -515ZM79 -377.4C73.2 -378.9 62.4 -368.8 62.2 -358.1C68.6 -365.4 73.8 -371.4 79 -377.4ZM134.9 -476.2C133.6 -480.2 132.4 -483.8 130.9 -488.5C126 -480 127.2 -476.2 134.9 -476.2ZM145.7 -472C142.7 -477.1 143.7 -488.8 138.1 -486.7C140.3 -482.2 132.8 -474.5 145.7 -472ZM110.8 -512.3C120.5 -479.4 125.3 -512.5 147 -490.7C145 -502.8 128.1 -513.9 110.8 -512.3ZM-107 84C-80.9 134.2 -63.7 164.5 14 182C-33.4 161.3 -70.2 134.7 -107 84ZM-265 90.3V98.8C-220.1 148.4 -172.9 205.6 -120.8 228.4C-111 234.6 -101.1 240.5 -91.1 246H-76.9C-112 229.1 -143.6 208.8 -170.1 185.3C-201.6 164.1 -232.9 125.8 -265 90.3ZM-265 -385.1V-392.7C-29 -487 -115 -217 -126 -150.1C-137 -83.2 -111 46 -90 14.7C-69 -16.6 -142 -60 -1.70001 -331.7C-62.9 -245.5 -101 -94 -116.7 -93.6C-132.4 -93.2 -124 -145 -115 -165C-126 34 39.4 -542.8 -256 -416.9C-258.4 -415.6 -261.4 -414.3 -265 -412.9V-437.2C-177.8 -482.4 -127 -509.6 -54.5 -509.6C18 -509.6 75.5 -494.3 89.7 -472.8C75.4 -340.7 -204.8 -139.5 -14.3 105.3C26.1 150 7 153 -36 120C-79 87 -124.7 9.90001 -142.7 -83.4C-141.4 -27.9 -133.7 27 -109.8 72.8C-135.1 38 -146 9.00002 -152.7 -56.8C-159.4 -122.6 -139.2 -218.1 -137.2 -292.3C-134 -269 -134.1 -254.5 -135 -234C-89.4 -391 -178.1 -418.1 -265 -385.1ZM-158.1 -476.3C-174 -473.2 -205.4 -462.6 -217.2 -453C-197.5 -460.8 -177.8 -468.5 -158.1 -476.3ZM48.4 -477.9C63.1 -463.9 58.5 -440.4 50.3 -421C51.4 -422.6 52.6 -424.3 53.9 -426C67.5 -445.6 63 -465.7 48.4 -477.9ZM47.4 -465.5C48.6 -449.1 46.8 -434.7 41.5 -418.2C55.1 -438.4 57.2 -455.2 47.4 -465.5ZM-46.7 -493.2C-30.8 -493.2 -15 -493.2 0.899994 -493.2C-12.6 -494.5 -33 -494.5 -46.7 -493.2ZM43.8 -461.2C28.1 -498.3 -35.1 -491.3 -69 -486C-31.8 -486.1 18.4 -494.9 43.8 -461.2ZM38 -419.9C27.2 -397.5 5.00001 -384.6 -7.79999 -364C6.00001 -364.8 36.5 -404.4 38 -419.9ZM471.3 -250.3C451.3 -271.8 450.3 -275.7 460.8 -289.7C440.2 -279.5 457.5 -258.3 471.3 -250.3ZM426.8 -481.5C449.8 -482.7 473.1 -476.5 496 -471.2V-472.1C473.5 -480.9 451.2 -489.9 426.8 -481.5ZM496 -107.2V-119.2C470.7 -126.9 446 -133.8 421.1 -136.7C444.7 -129.1 470.4 -111.8 496 -107.2ZM-265 131.7C-225 171.5 -184.8 211.5 -142.1 246H-121.7C-171.9 203 -218.1 150.3 -265 110.7V131.7ZM-265 138.9V186.1C-236.2 200.4 -204.6 220.2 -170.1 246H-154.6C-192.8 221.7 -229 178.3 -265 138.9ZM496 -239.5V-298C489.6 -294.3 482.7 -290.7 475.3 -287.2C468.9 -268.8 479.1 -251.5 496 -239.5ZM446.2 -289.8C423.1 -278.5 440 -267 450.9 -254.8C441.4 -273.4 430.9 -275.3 446.2 -289.8ZM387.6 -426.7C439 -441 462.9 -427.3 496 -410.3V-412.7C462 -429.3 445 -447 387.6 -426.7ZM496 -335.2V-335.3C495.6 -335.1 495.2 -334.9 494.8 -334.7C495.2 -334.9 495.6 -335.1 496 -335.2ZM489.4 246C491.6 244.8 493.8 243.7 496 242.5V237C491.6 240.1 487.1 243 482.6 246H489.4ZM-263.7 -515C-264 -514.9 -264.3 -514.8 -264.5 -514.7C-264.2 -514.8 -263.9 -514.9 -263.6 -515H-263.7ZM-265 -514.6C-264.8 -514.6 -264.7 -514.7 -264.5 -514.7C-264.7 -514.7 -264.8 -514.6 -265 -514.6ZM-231.8 -515C-244.2 -510.1 -255.3 -506.2 -265 -503.2V-471C-222.4 -488.2 -178.6 -502.8 -136.6 -515H-231.8ZM41.3 246H58.1C34.5 237.4 -28.4 202.1 -36.3 197.7C-6.6 218.8 20.6 235.3 41.3 246ZM-265 -338.2V-355.2C-49.5 -410.2 -256 -19.3 -90.2 156.3C-243 60 -178 -148 -192.9 -290.1C-197.8 -337 -229 -341.8 -265 -338.2ZM-208 -344C-157 -288 -190.5 -171 -187.4 -86.9C-187.7 -147.2 -123 -325 -208 -344ZM330.6 246C385.1 231.8 436.7 209.2 481 177.7C486.1 172.7 491.1 167.8 495.9 163.1V144.1C425.4 187.9 352.5 225.1 280.3 246H330.6ZM-84.5 162C-72.8 173.4 -58.8 183.5 -42 192L-84.5 162ZM362 -119C302.5 -160.6 450.8 -82.1 496 -76.9V-94.4C423.8 -114.7 237.5 -172.6 362 -119ZM-187.5 60.3C-175 91 -162 139 -83 181C-144 131 -165 99 -187.5 60.3ZM-241 -53C-238 -11 -215.5 17.3 -195 42C-245.8 -109.2 -144.4 -327.8 -265 -330.1V-316.7C-255.3 -318.1 -254 -329 -235.5 -319.9C-188.7 -294.1 -205.6 -215.3 -216.8 -176.9C-219.4 -213 -199.8 -264.9 -234 -289.6C-267 -300.3 -227.9 -247.9 -234.3 -231.8C-241.3 -253.3 -251.9 -267.3 -265 -275.5V-250.5C-228 -215.4 -236.8 -117.5 -235.5 -75.5C-250.5 -105.4 -256.4 -139.8 -265 -172.6V-14.4C-243 25.5 -224.7 68.4 -211 100.9C-229.4 77.8 -246.9 49.6 -265 21.9V70.8C-218.5 115.4 -171.2 174 -119.9 212.9C-146 197.2 -170.9 179.2 -194.3 158.9C-162.3 188.7 -126.8 213.4 -89 233.4C-83.7 236.4 -78.4 239.1 -73 241.5C-69.9 243 -66.9 244.4 -63.8 245.9H34.3C-174 198 -248 2 -241 -53ZM470.1 246C478.9 241.8 487.6 237.3 496 232.5V179.2C448.3 208.8 402.3 230.7 358.1 246H470.1ZM417.8 -65.7C447.1 -50.2 472 -38 496 -38.3V-63.8C493.5 -63.9 486.3 -65.7 472.8 -69.8C524.1 -21.1 453.4 -47.3 417.8 -65.7ZM-265 246H-201.4C-222.8 233.7 -244.2 221.2 -265 210.2V246ZM82 -173.2C82 -173.3 82.1 -173.4 82.1 -173.5C82.1 -173.4 82.1 -173.3 82 -173.2ZM83.2 -175.6C82.8 -174.9 82.5 -174.2 82.1 -173.5C82.5 -174.2 82.8 -174.9 83.2 -175.6ZM83.6 -176.3C83.5 -176.1 83.4 -176 83.3 -175.8C83.4 -176 83.5 -176.1 83.6 -176.3ZM83.3 -175.8C83.3 -175.7 83.2 -175.7 83.2 -175.6C83.2 -175.7 83.3 -175.7 83.3 -175.8ZM91 -170C30 -110 58 36 77.2 -11.8C114.7 -104.9 203 -189 314 -141C257 -174 361.9 -153.4 425.7 -142.3C355.5 -158.4 282.6 -180.3 213.2 -158.7C234.9 -168.7 247.7 -172.9 272 -173C215.1 -178.8 168.1 -166 119.6 -129C71.1 -92 141 -215 131 -221C121.7 -226.6 96 -200.2 83.6 -176.3C99.7 -206.8 122.1 -200.6 91 -170ZM81 -171C81.3 -171.8 81.7 -172.5 82 -173.2C81.7 -172.5 81.3 -171.7 81 -171ZM293 -173C353.7 -166.8 390.5 -150.6 449 -144C389.4 -156.5 351 -173.4 293 -173ZM417.8 -65.7C416.2 -66.5 414.7 -67.4 413.1 -68.2C414.5 -67.3 416.1 -66.5 417.8 -65.7ZM-167 -500.4C-157.7 -503.8 -148.4 -507.2 -139.1 -510.6C-150 -514.2 -158.6 -505.4 -167 -500.4ZM-98.8 -515H-115.3C-182.7 -486.9 -314.9 -436.7 -98.8 -515ZM167.9 198.5C213.9 219.6 167.1 225.1 141.6 224.4C179.9 230.3 224.5 215.9 167.9 198.5ZM217.2 209.2C246.3 229.6 207.1 231.6 188.9 233.6C209.1 232.3 265.7 229.5 217.2 209.2ZM271.9 208C336 235.1 268.8 240 233 246H246.1C287.5 241.4 349.3 227.2 271.9 208ZM496 -133.5V-137.3C485.4 -137.4 474.6 -138.1 463.6 -139.3C474.6 -137.1 485.4 -135.1 496 -133.5ZM53 48C66 70 91 87 102 89C88 82 68 66 53 48ZM167 115C40.2 -14.8 161 -133 247 -148C188 -146 65 -56 95 31C74 28.7 50 -6 43.4 -40.5C48 11 84 66 167 115ZM91 67C51 31 33.4 -23.4 33.2 -59.4C28.9 -21.9 38 27 91 67ZM496 -127.2V-129.9C488.7 -130.6 481.3 -131.5 473.8 -132.7C481.8 -130.9 489.2 -129.1 496 -127.2ZM496 -463.3V-443.4C470.4 -452.6 469 -463 404.4 -452.9C339.8 -442.8 159.5 -349.9 120.3 -278.1C186 -358 447.2 -486.8 496 -393.3V-346.9C430.1 -304.1 230.8 -286.1 252.2 -248.6C261.7 -236.4 291 -223.9 319 -242.9C264 -254.9 362.5 -290.7 377.5 -297C254.9 -241.3 360 -250.9 414.2 -244.5C468.4 -238.1 473.1 -226.2 496 -217.6V-215.1C446.9 -228.4 439 -243.8 345 -240.3C451 -233.9 402 -199.9 496 -197.6V-152.8C395 -151.9 366 -181.1 290.8 -181.1C215.6 -181.1 170.6 -175.1 140.3 -156.7C87 -122 164 -234 171.2 -250.6C218.1 -353.1 47.4 -182.5 33.2 -59.4C32.7 -164.7 126 -297 234 -303C268 -305 62 -139 165 -170C81 -175 362 -324 277.1 -322.6C132.2 -320.2 66.2 -209.2 25.7 -109.4C11.6 -268.3 336 -490.8 496 -463.3ZM322.3 -236C331.5 -230.2 350.7 -232.7 365.3 -231.4C351 -233.9 336.9 -239.5 322.3 -236ZM239.5 -185.8C207.7 -187.9 140 -167 191 -215C129 -163 203.8 -181.9 239.5 -185.8Z" fill="#1E55A9" />
			<rect x="-265" y="-515" width="761" height="761" fill="#CAD4E3" />
			<path d="M43.5903 13.3797C39.2306 10.4833 34.8607 7.48507 30.632 4.56734C30.2604 4.31089 29.7396 4.31089 29.368 4.56734C25.1393 7.48513 20.7694 10.4833 16.4097 13.3797C15.8712 13.7375 15.8617 14.4113 16.3921 14.7581C20.6847 17.567 25.0567 20.5194 29.3568 23.433C29.7346 23.689 30.2653 23.689 30.6431 23.433C34.9432 20.5194 39.3152 17.567 43.6078 14.7581C44.1383 14.4112 44.1289 13.7375 43.5903 13.3797Z" fill="url(#paint0_linear_1537_8204)" />
		</g>
	</g>
	<g filter="url(#filter2_d_1537_8204)">
		<g filter="url(#filter3_biii_1537_8204)">
			<path d="M43.5903 9.00469C39.2306 6.10827 34.8607 3.11007 30.632 0.192343C30.2604 -0.0641145 29.7396 -0.0641145 29.368 0.192343C25.1393 3.11013 20.7694 6.10832 16.4097 9.00469C15.8712 9.36251 15.8617 10.0363 16.3921 10.3831C20.6847 13.192 25.0567 16.1444 29.3568 19.058C29.7346 19.314 30.2653 19.314 30.6431 19.058C34.9432 16.1444 39.3152 13.192 43.6078 10.3831C44.1383 10.0362 44.1289 9.36251 43.5903 9.00469Z" fill="url(#paint1_linear_1537_8204)" />
		</g>
	</g>
	<defs>
		<filter id="filter0_d_1537_8204" x="12" y="8.75" width="36" height="27.25" filterUnits="userSpaceOnUse" color-interpolation-filters="sRGB">
			<feFlood flood-opacity="0" result="BackgroundImageFix" />
			<feColorMatrix in="SourceAlpha" type="matrix" values="0 0 0 0 0 0 0 0 0 0 0 0 0 0 0 0 0 0 127 0" result="hardAlpha" />
			<feOffset dy="4" />
			<feGaussianBlur stdDeviation="2" />
			<feColorMatrix type="matrix" values="0 0 0 0 0 0 0 0 0 0 0 0 0 0 0 0 0 0 0.1 0" />
			<feBlend mode="normal" in2="BackgroundImageFix" result="effect1_dropShadow_1537_8204" />
			<feBlend mode="normal" in="SourceGraphic" in2="effect1_dropShadow_1537_8204" result="shape" />
		</filter>
		<filter id="filter1_d_1537_8204" x="0" y="4.375" width="60" height="51.318" filterUnits="userSpaceOnUse" color-interpolation-filters="sRGB">
			<feFlood flood-opacity="0" result="BackgroundImageFix" />
			<feColorMatrix in="SourceAlpha" type="matrix" values="0 0 0 0 0 0 0 0 0 0 0 0 0 0 0 0 0 0 127 0" result="hardAlpha" />
			<feOffset dy="16" />
			<feGaussianBlur stdDeviation="8" />
			<feColorMatrix type="matrix" values="0 0 0 0 0 0 0 0 0 0 0 0 0 0 0 0 0 0 0.1 0" />
			<feBlend mode="normal" in2="BackgroundImageFix" result="effect1_dropShadow_1537_8204" />
			<feBlend mode="normal" in="SourceGraphic" in2="effect1_dropShadow_1537_8204" result="shape" />
		</filter>
		<filter id="filter2_d_1537_8204" x="14" y="0" width="32" height="23.25" filterUnits="userSpaceOnUse" color-interpolation-filters="sRGB">
			<feFlood flood-opacity="0" result="BackgroundImageFix" />
			<feColorMatrix in="SourceAlpha" type="matrix" values="0 0 0 0 0 0 0 0 0 0 0 0 0 0 0 0 0 0 127 0" result="hardAlpha" />
			<feOffset dy="2" />
			<feGaussianBlur stdDeviation="1" />
			<feColorMatrix type="matrix" values="0 0 0 0 0 0 0 0 0 0 0 0 0 0 0 0 0 0 0.1 0" />
			<feBlend mode="normal" in2="BackgroundImageFix" result="effect1_dropShadow_1537_8204" />
			<feBlend mode="normal" in="SourceGraphic" in2="effect1_dropShadow_1537_8204" result="shape" />
		</filter>
		<filter id="filter3_biii_1537_8204" x="6" y="-10" width="48" height="39.25" filterUnits="userSpaceOnUse" color-interpolation-filters="sRGB">
			<feFlood flood-opacity="0" result="BackgroundImageFix" />
			<feGaussianBlur in="BackgroundImage" stdDeviation="5" />
			<feComposite in2="SourceAlpha" operator="in" result="effect1_backgroundBlur_1537_8204" />
			<feBlend mode="normal" in="SourceGraphic" in2="effect1_backgroundBlur_1537_8204" result="shape" />
			<feColorMatrix in="SourceAlpha" type="matrix" values="0 0 0 0 0 0 0 0 0 0 0 0 0 0 0 0 0 0 127 0" result="hardAlpha" />
			<feOffset dy="-4" />
			<feGaussianBlur stdDeviation="0.5" />
			<feComposite in2="hardAlpha" operator="arithmetic" k2="-1" k3="1" />
			<feColorMatrix type="matrix" values="0 0 0 0 0.920833 0 0 0 0 0.920833 0 0 0 0 0.920833 0 0 0 0.1 0" />
			<feBlend mode="normal" in2="shape" result="effect2_innerShadow_1537_8204" />
			<feColorMatrix in="SourceAlpha" type="matrix" values="0 0 0 0 0 0 0 0 0 0 0 0 0 0 0 0 0 0 127 0" result="hardAlpha" />
			<feOffset dx="-1" />
			<feGaussianBlur stdDeviation="0.5" />
			<feComposite in2="hardAlpha" operator="arithmetic" k2="-1" k3="1" />
			<feColorMatrix type="matrix" values="0 0 0 0 0.920833 0 0 0 0 0.920833 0 0 0 0 0.920833 0 0 0 0.1 0" />
			<feBlend mode="normal" in2="effect2_innerShadow_1537_8204" result="effect3_innerShadow_1537_8204" />
			<feColorMatrix in="SourceAlpha" type="matrix" values="0 0 0 0 0 0 0 0 0 0 0 0 0 0 0 0 0 0 127 0" result="hardAlpha" />
			<feOffset dx="1" />
			<feGaussianBlur stdDeviation="0.5" />
			<feComposite in2="hardAlpha" operator="arithmetic" k2="-1" k3="1" />
			<feColorMatrix type="matrix" values="0 0 0 0 0.920833 0 0 0 0 0.920833 0 0 0 0 0.920833 0 0 0 0.1 0" />
			<feBlend mode="normal" in2="effect3_innerShadow_1537_8204" result="effect4_innerShadow_1537_8204" />
		</filter>
		<linearGradient id="paint0_linear_1537_8204" x1="15.652" y1="13.9614" x2="43.9961" y2="13.9614" gradientUnits="userSpaceOnUse">
			<stop stop-color="#1E55A9" />
			<stop offset="0.98" stop-color="#2BBFC7" />
		</linearGradient>
		<linearGradient id="paint1_linear_1537_8204" x1="30" y1="0" x2="30" y2="19.25" gradientUnits="userSpaceOnUse">
			<stop stop-color="#CBD5E3" />
			<stop offset="1" stop-color="white" stop-opacity="0.21" />
		</linearGradient>
	</defs>
</svg>
