<svg width="20" height="24" viewBox="0 0 20 24" fill="none" xmlns="http://www.w3.org/2000/svg">
	<g clip-path="url(#clip0_98_15929)">
		<path fill-rule="evenodd" clip-rule="evenodd" d="M3.40573 1.29341C4.30858 1.29468 5.17408 1.64333 5.8125 2.26294C6.45091 2.88254 6.81015 3.72255 6.81145 4.5988V20.6946C6.81015 21.5709 6.45091 22.4109 5.8125 23.0305C5.17408 23.6501 4.30858 23.9987 3.40573 24C2.50287 23.9987 1.63737 23.6501 0.998956 23.0305C0.360541 22.4109 0.00130565 21.5709 0 20.6946V4.5988C0.00130565 3.72255 0.360541 2.88254 0.998956 2.26294C1.63737 1.64333 2.50287 1.29468 3.40573 1.29341Z" fill="#3E4244" />
		<path fill-rule="evenodd" clip-rule="evenodd" d="M3.40573 0.335327C4.30858 0.336594 5.17408 0.685247 5.81249 1.30485C6.45091 1.92446 6.81015 2.76446 6.81145 3.64072V20.6946C6.81015 21.5709 6.45091 22.4109 5.81249 23.0305C5.17408 23.6501 4.30858 23.9987 3.40573 24C2.50287 23.9987 1.63737 23.6501 0.998956 23.0305C0.360541 22.4109 0.00130565 21.5709 0 20.6946V3.64072C0.00130565 2.76446 0.360541 1.92446 0.998956 1.30485C1.63737 0.685247 2.50287 0.336594 3.40573 0.335327Z" fill="#3E4244" />
		<path fill-rule="evenodd" clip-rule="evenodd" d="M1.43138 0.718562C1.79087 0.463132 2.19877 0.27907 2.63169 0.176926C3.06462 0.074782 3.51406 0.0565647 3.95425 0.123319C4.39444 0.190072 4.81673 0.340485 5.19692 0.565934C5.5771 0.791383 5.90771 1.08744 6.16978 1.43713L19.3485 18.7305C19.6116 19.0794 19.8013 19.4753 19.9065 19.8955C20.0118 20.3157 20.0305 20.7519 19.9618 21.1791C19.893 21.6063 19.738 22.0162 19.5057 22.3851C19.2734 22.7541 18.9684 23.075 18.6081 23.3293C18.2486 23.5848 17.8407 23.7688 17.4078 23.871C16.9748 23.9731 16.5254 23.9913 16.0852 23.9246C15.645 23.8578 15.2227 23.7074 14.8425 23.482C14.4624 23.2565 14.1318 22.9605 13.8697 22.6108L0.691003 5.31736C0.42396 4.96987 0.231068 4.57414 0.123629 4.15337C0.0161908 3.7326 -0.00363232 3.29525 0.0653215 2.86694C0.134275 2.43864 0.290619 2.028 0.525191 1.65909C0.759762 1.29019 1.06784 0.970429 1.43138 0.718562Z" fill="#3E4244" />
		<path d="M16.5351 0C15.6322 0.00126718 14.7667 0.349919 14.1283 0.969526C13.4899 1.58913 13.1306 2.42913 13.1293 3.30539C13.1306 4.18164 13.4899 5.02165 14.1283 5.64125C14.7667 6.26086 15.6322 6.60951 16.5351 6.61078C17.4379 6.60951 18.3034 6.26086 18.9418 5.64125C19.5802 5.02165 19.9395 4.18164 19.9408 3.30539C19.9395 2.42913 19.5802 1.58913 18.9418 0.969526C18.3034 0.349919 17.4379 0.00126718 16.5351 0ZM18.0652 3.30539C18.0626 3.69847 17.9005 4.07473 17.6141 4.35269C17.3278 4.63064 16.9401 4.78791 16.5351 4.79042C16.13 4.78791 15.7424 4.63064 15.456 4.35269C15.1696 4.07473 15.0075 3.69847 15.005 3.30539C15.0075 2.91231 15.1696 2.53604 15.456 2.25809C15.7424 1.98014 16.13 1.82287 16.5351 1.82036C16.9401 1.82287 17.3278 1.98014 17.6141 2.25809C17.9005 2.53604 18.0626 2.91231 18.0652 3.30539Z" fill="#3E4244" />
	</g>
	<defs>
		<clipPath id="clip0_98_15929">
			<rect width="20" height="24" fill="white" />
		</clipPath>
	</defs>
</svg>
