<svg width="11" height="11" viewBox="0 0 11 11" fill="none" xmlns="http://www.w3.org/2000/svg">
	<path d="M10.4716 6.28329C10.2967 5.85181 10.2967 5.3734 10.4716 4.95382L10.5299 4.81395C10.903 3.9273 10.4716 2.90128 9.58511 2.52757L9.45664 2.46925C9.02525 2.29429 8.68677 1.95622 8.51184 1.52427L8.46538 1.40763C8.0809 0.521437 7.06642 0.101381 6.16857 0.463117L6.05195 0.509591C5.62056 0.684551 5.14223 0.684551 4.71084 0.509591L4.60606 0.463117C3.73142 0.101346 2.70506 0.532828 2.332 1.41947L2.28553 1.51288C2.1106 1.94435 1.7726 2.28289 1.34073 2.45785L1.23596 2.50432C0.360863 2.87748 -0.070521 3.904 0.302554 4.79024L0.34902 4.89503C0.523948 5.32651 0.523948 5.80492 0.34902 6.2245L0.302554 6.35299C-0.0705326 7.23964 0.349474 8.26612 1.24735 8.62794L1.36397 8.67441C1.79537 8.84937 2.13384 9.18744 2.30877 9.61938L2.36708 9.74787C2.72833 10.6455 3.75461 11.0656 4.64068 10.7038L4.76914 10.6455C5.20054 10.4705 5.67886 10.4705 6.11026 10.6455L6.21503 10.6919C7.10152 11.0651 8.12735 10.6336 8.501 9.74696L8.54746 9.65355C8.72239 9.22208 9.0604 8.88354 9.49226 8.70858L9.58565 8.6735C10.4835 8.30034 10.9036 7.28571 10.5304 6.38712L10.4716 6.28329ZM4.92078 7.85793L2.64671 5.94526L3.34643 5.11693L4.79227 6.34165L7.34598 3.30901L8.17416 4.00885L4.92078 7.85793Z" fill="#1E55A9" />
</svg>
