<svg width="24" height="24" viewBox="0 0 24 24" fill="none" xmlns="http://www.w3.org/2000/svg">
	<path d="M16.9997 7.00022H20.9945C22.6529 7.00022 24 8.33897 24 9.99472V21.0048C24 22.6595 22.6594 24 21.0048 24H9.99482C8.34014 24 7.00034 22.6603 7.00034 21.0038V17.2857C7.00034 17.1863 7.0144 17.0907 7.04159 16.9998H2.9916C1.33973 16.9998 0 15.6592 0 14.0082V2.99162C0 1.33974 1.34061 0 2.9916 0H14.0081C15.6599 0 16.9997 1.34062 16.9997 2.99162L16.9997 7.00022ZM1.99971 2.99147V14.008C1.99971 14.5546 2.44503 14.9999 2.99158 14.9999H14.008C14.5546 14.9999 14.9999 14.5555 14.9999 14.008V2.99147C14.9999 2.44492 14.5555 1.9996 14.008 1.9996H2.99158C2.44503 1.9996 1.99971 2.44492 1.99971 2.99147ZM16.9997 8.99991V14.008C16.9997 15.6599 15.6591 16.9996 14.0081 16.9996H8.95874C8.98592 17.0906 8.99999 17.1862 8.99999 17.2856V21.0037C8.99999 21.5549 9.44437 22.0002 9.99467 22.0002H21.0047C21.555 22.0002 22.0003 21.5549 22.0003 21.0046V9.99455C22.0003 9.4461 21.5512 8.99986 20.9943 8.99986L16.9997 8.99991Z" fill="#3E4244" />
</svg>
