<svg width="219" height="219" viewBox="0 0 219 219" fill="none" xmlns="http://www.w3.org/2000/svg">
	<circle cx="109.5" cy="109.5" r="109.5" fill="white" />
	<circle cx="109.5" cy="109.5" r="109.5" fill="#1E55A9" fill-opacity="0.08" />
	<mask id="mask0_1145_6741" style="mask-type:alpha" maskUnits="userSpaceOnUse" x="0" y="0" width="219" height="219">
		<circle cx="109.5" cy="109.5" r="109.5" fill="white" />
	</mask>
	<g mask="url(#mask0_1145_6741)">
		<path opacity="0.4" fill-rule="evenodd" clip-rule="evenodd" d="M-54.75 79.3875L-46.5375 81.03C-38.325 83.22 -21.3525 86.505 -4.9275 98.55C12.045 111.142 28.47 131.947 44.895 130.305C61.8675 128.115 78.2925 104.025 94.7175 100.192C111.69 96.9075 128.115 114.427 145.088 123.187C161.513 131.947 177.938 131.947 194.91 130.305C211.335 128.115 227.76 124.83 244.733 119.355C261.158 114.427 278.13 107.31 286.342 104.025L294.555 100.192V261.705H286.342C278.13 261.705 261.158 261.705 244.733 261.705C227.76 261.705 211.335 261.705 194.91 261.705C177.938 261.705 161.513 261.705 145.088 261.705C128.115 261.705 111.69 261.705 94.7175 261.705C78.2925 261.705 61.8675 261.705 44.895 261.705C28.47 261.705 12.045 261.705 -4.9275 261.705C-21.3525 261.705 -38.325 261.705 -46.5375 261.705H-54.75V79.3875Z" fill="#1E55A9" />
		<path opacity="0.4" fill-rule="evenodd" clip-rule="evenodd" d="M-54.75 110.047L-39.9675 102.93C-25.7325 95.8125 3.285 82.125 32.85 82.125C61.8675 82.125 90.885 95.8125 119.903 95.8125C148.92 95.8125 177.938 82.125 207.503 71.7225C236.52 60.7725 265.538 54.2025 279.773 50.37L294.555 47.085V233.782H279.773C265.538 233.782 236.52 233.782 207.503 233.782C177.938 233.782 148.92 233.782 119.903 233.782C90.885 233.782 61.8675 233.782 32.85 233.782C3.285 233.782 -25.7325 233.782 -39.9675 233.782H-54.75V110.047Z" fill="#1E55A9" />
		<path opacity="0.4" fill-rule="evenodd" clip-rule="evenodd" d="M-54.75 97.0031L-39.9675 92.0756C-25.7325 86.6006 3.285 76.1981 32.85 84.9581C61.8675 93.7181 90.885 121.641 119.903 121.641C148.92 121.641 177.938 93.7181 207.503 95.3606C236.52 97.0031 265.538 128.758 279.773 144.088L294.555 258.516H279.773C265.538 258.516 236.52 258.516 207.503 258.516C177.938 258.516 148.92 258.516 119.903 258.516C90.885 258.516 61.8675 258.516 32.85 258.516C3.285 258.516 -25.7325 258.516 -39.9675 258.516H-54.75V97.0031Z" fill="url(#paint0_linear_1145_6741)" />
	</g>
	<path d="M76.6333 55.328L67.5973 77H61.2973L70.4413 56.012H59.2453V50.756H76.6333V55.328ZM92.1189 57.812C91.9269 56.924 91.5909 56.264 91.1109 55.832C90.6309 55.376 89.9469 55.148 89.0589 55.148C87.6909 55.148 86.7069 55.748 86.1069 56.948C85.5069 58.124 85.1949 59.996 85.1709 62.564C85.6989 61.724 86.4549 61.064 87.4389 60.584C88.4469 60.104 89.5509 59.864 90.7509 59.864C93.1029 59.864 94.9869 60.608 96.4029 62.096C97.8429 63.584 98.5629 65.66 98.5629 68.324C98.5629 70.076 98.2029 71.612 97.4829 72.932C96.7869 74.252 95.7549 75.284 94.3869 76.028C93.0429 76.772 91.4469 77.144 89.5989 77.144C85.9029 77.144 83.3349 75.992 81.8949 73.688C80.4549 71.36 79.7349 68.024 79.7349 63.68C79.7349 59.12 80.4909 55.736 82.0029 53.528C83.5389 51.296 85.9869 50.18 89.3469 50.18C91.1469 50.18 92.6589 50.54 93.8829 51.26C95.1309 51.956 96.0669 52.88 96.6909 54.032C97.3389 55.184 97.7229 56.444 97.8429 57.812H92.1189ZM89.2749 64.724C88.2429 64.724 87.3789 65.036 86.6829 65.66C86.0109 66.26 85.6749 67.124 85.6749 68.252C85.6749 69.404 85.9869 70.304 86.6109 70.952C87.2589 71.6 88.1709 71.924 89.3469 71.924C90.4029 71.924 91.2309 71.612 91.8309 70.988C92.4549 70.34 92.7669 69.464 92.7669 68.36C92.7669 67.232 92.4669 66.344 91.8669 65.696C91.2669 65.048 90.4029 64.724 89.2749 64.724ZM105.537 77.288C104.457 77.288 103.569 76.976 102.873 76.352C102.201 75.704 101.865 74.912 101.865 73.976C101.865 73.016 102.201 72.212 102.873 71.564C103.569 70.916 104.457 70.592 105.537 70.592C106.593 70.592 107.457 70.916 108.129 71.564C108.825 72.212 109.173 73.016 109.173 73.976C109.173 74.912 108.825 75.704 108.129 76.352C107.457 76.976 106.593 77.288 105.537 77.288ZM111.989 72.068C112.805 71.42 113.177 71.12 113.105 71.168C115.457 69.224 117.305 67.628 118.649 66.38C120.017 65.132 121.169 63.824 122.105 62.456C123.041 61.088 123.509 59.756 123.509 58.46C123.509 57.476 123.281 56.708 122.825 56.156C122.369 55.604 121.685 55.328 120.773 55.328C119.861 55.328 119.141 55.676 118.613 56.372C118.109 57.044 117.857 58.004 117.857 59.252H111.917C111.965 57.212 112.397 55.508 113.213 54.14C114.053 52.772 115.145 51.764 116.489 51.116C117.857 50.468 119.369 50.144 121.025 50.144C123.881 50.144 126.029 50.876 127.469 52.34C128.933 53.804 129.665 55.712 129.665 58.064C129.665 60.632 128.789 63.02 127.037 65.228C125.285 67.412 123.053 69.548 120.341 71.636H130.061V76.64H111.989V72.068Z" fill="#1E55A9" />
	<path d="M89.1949 143.649H86.9149L80.0549 133.269V143.649H77.7749V129.729H80.0549L86.9149 140.089V129.729H89.1949V143.649ZM96.969 143.829C95.929 143.829 94.989 143.596 94.149 143.129C93.309 142.649 92.649 141.983 92.169 141.129C91.689 140.263 91.449 139.263 91.449 138.129C91.449 137.009 91.6957 136.016 92.189 135.149C92.6823 134.283 93.3557 133.616 94.209 133.149C95.0623 132.683 96.0157 132.449 97.069 132.449C98.1223 132.449 99.0757 132.683 99.929 133.149C100.782 133.616 101.456 134.283 101.949 135.149C102.442 136.016 102.689 137.009 102.689 138.129C102.689 139.249 102.436 140.243 101.929 141.109C101.422 141.976 100.729 142.649 99.849 143.129C98.9823 143.596 98.0223 143.829 96.969 143.829ZM96.969 141.849C97.5557 141.849 98.1023 141.709 98.609 141.429C99.129 141.149 99.549 140.729 99.869 140.169C100.189 139.609 100.349 138.929 100.349 138.129C100.349 137.329 100.196 136.656 99.889 136.109C99.5823 135.549 99.1757 135.129 98.669 134.849C98.1623 134.569 97.6157 134.429 97.029 134.429C96.4423 134.429 95.8957 134.569 95.389 134.849C94.8957 135.129 94.5023 135.549 94.209 136.109C93.9157 136.656 93.769 137.329 93.769 138.129C93.769 139.316 94.069 140.236 94.669 140.889C95.2823 141.529 96.049 141.849 96.969 141.849ZM104.183 138.089C104.183 136.983 104.41 136.003 104.863 135.149C105.33 134.296 105.956 133.636 106.743 133.169C107.543 132.689 108.43 132.449 109.403 132.449C110.123 132.449 110.83 132.609 111.523 132.929C112.23 133.236 112.79 133.649 113.203 134.169V128.849H115.503V143.649H113.203V141.989C112.83 142.523 112.31 142.963 111.643 143.309C110.99 143.656 110.236 143.829 109.383 143.829C108.423 143.829 107.543 143.589 106.743 143.109C105.956 142.616 105.33 141.936 104.863 141.069C104.41 140.189 104.183 139.196 104.183 138.089ZM113.203 138.129C113.203 137.369 113.043 136.709 112.723 136.149C112.416 135.589 112.01 135.163 111.503 134.869C110.996 134.576 110.45 134.429 109.863 134.429C109.276 134.429 108.73 134.576 108.223 134.869C107.716 135.149 107.303 135.569 106.983 136.129C106.676 136.676 106.523 137.329 106.523 138.089C106.523 138.849 106.676 139.516 106.983 140.089C107.303 140.663 107.716 141.103 108.223 141.409C108.743 141.703 109.29 141.849 109.863 141.849C110.45 141.849 110.996 141.703 111.503 141.409C112.01 141.116 112.416 140.689 112.723 140.129C113.043 139.556 113.203 138.889 113.203 138.129ZM128.598 137.869C128.598 138.283 128.571 138.656 128.518 138.989H120.098C120.164 139.869 120.491 140.576 121.078 141.109C121.664 141.643 122.384 141.909 123.238 141.909C124.464 141.909 125.331 141.396 125.838 140.369H128.298C127.964 141.383 127.358 142.216 126.478 142.869C125.611 143.509 124.531 143.829 123.238 143.829C122.184 143.829 121.238 143.596 120.398 143.129C119.571 142.649 118.918 141.983 118.438 141.129C117.971 140.263 117.738 139.263 117.738 138.129C117.738 136.996 117.964 136.003 118.418 135.149C118.884 134.283 119.531 133.616 120.358 133.149C121.198 132.683 122.158 132.449 123.238 132.449C124.278 132.449 125.204 132.676 126.018 133.129C126.831 133.583 127.464 134.223 127.918 135.049C128.371 135.863 128.598 136.803 128.598 137.869ZM126.218 137.149C126.204 136.309 125.904 135.636 125.318 135.129C124.731 134.623 124.004 134.369 123.138 134.369C122.351 134.369 121.678 134.623 121.118 135.129C120.558 135.623 120.224 136.296 120.118 137.149H126.218ZM130.081 138.089C130.081 136.983 130.308 136.003 130.761 135.149C131.228 134.296 131.855 133.636 132.641 133.169C133.441 132.689 134.328 132.449 135.301 132.449C136.021 132.449 136.728 132.609 137.421 132.929C138.128 133.236 138.688 133.649 139.101 134.169V128.849H141.401V143.649H139.101V141.989C138.728 142.523 138.208 142.963 137.541 143.309C136.888 143.656 136.135 143.829 135.281 143.829C134.321 143.829 133.441 143.589 132.641 143.109C131.855 142.616 131.228 141.936 130.761 141.069C130.308 140.189 130.081 139.196 130.081 138.089ZM139.101 138.129C139.101 137.369 138.941 136.709 138.621 136.149C138.315 135.589 137.908 135.163 137.401 134.869C136.895 134.576 136.348 134.429 135.761 134.429C135.175 134.429 134.628 134.576 134.121 134.869C133.615 135.149 133.201 135.569 132.881 136.129C132.575 136.676 132.421 137.329 132.421 138.089C132.421 138.849 132.575 139.516 132.881 140.089C133.201 140.663 133.615 141.103 134.121 141.409C134.641 141.703 135.188 141.849 135.761 141.849C136.348 141.849 136.895 141.703 137.401 141.409C137.908 141.116 138.315 140.689 138.621 140.129C138.941 139.556 139.101 138.889 139.101 138.129Z" fill="white" />
	<path d="M89.1949 143.649H86.9149L80.0549 133.269V143.649H77.7749V129.729H80.0549L86.9149 140.089V129.729H89.1949V143.649ZM96.969 143.829C95.929 143.829 94.989 143.596 94.149 143.129C93.309 142.649 92.649 141.983 92.169 141.129C91.689 140.263 91.449 139.263 91.449 138.129C91.449 137.009 91.6957 136.016 92.189 135.149C92.6823 134.283 93.3557 133.616 94.209 133.149C95.0623 132.683 96.0157 132.449 97.069 132.449C98.1223 132.449 99.0757 132.683 99.929 133.149C100.782 133.616 101.456 134.283 101.949 135.149C102.442 136.016 102.689 137.009 102.689 138.129C102.689 139.249 102.436 140.243 101.929 141.109C101.422 141.976 100.729 142.649 99.849 143.129C98.9823 143.596 98.0223 143.829 96.969 143.829ZM96.969 141.849C97.5557 141.849 98.1023 141.709 98.609 141.429C99.129 141.149 99.549 140.729 99.869 140.169C100.189 139.609 100.349 138.929 100.349 138.129C100.349 137.329 100.196 136.656 99.889 136.109C99.5823 135.549 99.1757 135.129 98.669 134.849C98.1623 134.569 97.6157 134.429 97.029 134.429C96.4423 134.429 95.8957 134.569 95.389 134.849C94.8957 135.129 94.5023 135.549 94.209 136.109C93.9157 136.656 93.769 137.329 93.769 138.129C93.769 139.316 94.069 140.236 94.669 140.889C95.2823 141.529 96.049 141.849 96.969 141.849ZM104.183 138.089C104.183 136.983 104.41 136.003 104.863 135.149C105.33 134.296 105.956 133.636 106.743 133.169C107.543 132.689 108.43 132.449 109.403 132.449C110.123 132.449 110.83 132.609 111.523 132.929C112.23 133.236 112.79 133.649 113.203 134.169V128.849H115.503V143.649H113.203V141.989C112.83 142.523 112.31 142.963 111.643 143.309C110.99 143.656 110.236 143.829 109.383 143.829C108.423 143.829 107.543 143.589 106.743 143.109C105.956 142.616 105.33 141.936 104.863 141.069C104.41 140.189 104.183 139.196 104.183 138.089ZM113.203 138.129C113.203 137.369 113.043 136.709 112.723 136.149C112.416 135.589 112.01 135.163 111.503 134.869C110.996 134.576 110.45 134.429 109.863 134.429C109.276 134.429 108.73 134.576 108.223 134.869C107.716 135.149 107.303 135.569 106.983 136.129C106.676 136.676 106.523 137.329 106.523 138.089C106.523 138.849 106.676 139.516 106.983 140.089C107.303 140.663 107.716 141.103 108.223 141.409C108.743 141.703 109.29 141.849 109.863 141.849C110.45 141.849 110.996 141.703 111.503 141.409C112.01 141.116 112.416 140.689 112.723 140.129C113.043 139.556 113.203 138.889 113.203 138.129ZM128.598 137.869C128.598 138.283 128.571 138.656 128.518 138.989H120.098C120.164 139.869 120.491 140.576 121.078 141.109C121.664 141.643 122.384 141.909 123.238 141.909C124.464 141.909 125.331 141.396 125.838 140.369H128.298C127.964 141.383 127.358 142.216 126.478 142.869C125.611 143.509 124.531 143.829 123.238 143.829C122.184 143.829 121.238 143.596 120.398 143.129C119.571 142.649 118.918 141.983 118.438 141.129C117.971 140.263 117.738 139.263 117.738 138.129C117.738 136.996 117.964 136.003 118.418 135.149C118.884 134.283 119.531 133.616 120.358 133.149C121.198 132.683 122.158 132.449 123.238 132.449C124.278 132.449 125.204 132.676 126.018 133.129C126.831 133.583 127.464 134.223 127.918 135.049C128.371 135.863 128.598 136.803 128.598 137.869ZM126.218 137.149C126.204 136.309 125.904 135.636 125.318 135.129C124.731 134.623 124.004 134.369 123.138 134.369C122.351 134.369 121.678 134.623 121.118 135.129C120.558 135.623 120.224 136.296 120.118 137.149H126.218ZM130.081 138.089C130.081 136.983 130.308 136.003 130.761 135.149C131.228 134.296 131.855 133.636 132.641 133.169C133.441 132.689 134.328 132.449 135.301 132.449C136.021 132.449 136.728 132.609 137.421 132.929C138.128 133.236 138.688 133.649 139.101 134.169V128.849H141.401V143.649H139.101V141.989C138.728 142.523 138.208 142.963 137.541 143.309C136.888 143.656 136.135 143.829 135.281 143.829C134.321 143.829 133.441 143.589 132.641 143.109C131.855 142.616 131.228 141.936 130.761 141.069C130.308 140.189 130.081 139.196 130.081 138.089ZM139.101 138.129C139.101 137.369 138.941 136.709 138.621 136.149C138.315 135.589 137.908 135.163 137.401 134.869C136.895 134.576 136.348 134.429 135.761 134.429C135.175 134.429 134.628 134.576 134.121 134.869C133.615 135.149 133.201 135.569 132.881 136.129C132.575 136.676 132.421 137.329 132.421 138.089C132.421 138.849 132.575 139.516 132.881 140.089C133.201 140.663 133.615 141.103 134.121 141.409C134.641 141.703 135.188 141.849 135.761 141.849C136.348 141.849 136.895 141.703 137.401 141.409C137.908 141.116 138.315 140.689 138.621 140.129C138.941 139.556 139.101 138.889 139.101 138.129Z" fill="#1E55A9" fill-opacity="0.08" />
	<g opacity="0.56">
		<path d="M89.934 149.448L87.882 156H87.042L85.23 150.504L83.418 156H82.566L80.514 149.448H81.366L82.998 155.148L84.834 149.448H85.674L87.486 155.16L89.106 149.448H89.934ZM91.4991 148.212C91.3311 148.212 91.1871 148.152 91.0671 148.032C90.9471 147.912 90.8871 147.764 90.8871 147.588C90.8871 147.412 90.9471 147.268 91.0671 147.156C91.1871 147.036 91.3311 146.976 91.4991 146.976C91.6671 146.976 91.8111 147.036 91.9311 147.156C92.0511 147.268 92.1111 147.412 92.1111 147.588C92.1111 147.764 92.0511 147.912 91.9311 148.032C91.8111 148.152 91.6671 148.212 91.4991 148.212ZM91.9191 149.448V156H91.0791V149.448H91.9191ZM94.9133 150.156V154.224C94.9133 154.624 94.9893 154.9 95.1413 155.052C95.2933 155.204 95.5613 155.28 95.9453 155.28H96.7133V156H95.8133C95.2213 156 94.7813 155.864 94.4933 155.592C94.2053 155.312 94.0613 154.856 94.0613 154.224V150.156H93.1493V149.448H94.0613V147.804H94.9133V149.448H96.7133V150.156H94.9133ZM101.219 149.328C101.715 149.328 102.159 149.432 102.551 149.64C102.951 149.848 103.263 150.168 103.487 150.6C103.719 151.024 103.835 151.544 103.835 152.16V156H103.007V152.256C103.007 151.544 102.827 151 102.467 150.624C102.115 150.248 101.631 150.06 101.015 150.06C100.383 150.06 99.8787 150.26 99.5027 150.66C99.1267 151.06 98.9387 151.648 98.9387 152.424V156H98.0987V147.12H98.9387V150.564C99.1467 150.172 99.4507 149.868 99.8507 149.652C100.259 149.436 100.715 149.328 101.219 149.328ZM114.661 149.448V156H113.821V154.848C113.629 155.256 113.333 155.568 112.933 155.784C112.533 156 112.085 156.108 111.589 156.108C110.805 156.108 110.165 155.868 109.669 155.388C109.173 154.9 108.925 154.196 108.925 153.276V149.448H109.753V153.18C109.753 153.892 109.929 154.436 110.281 154.812C110.641 155.188 111.129 155.376 111.745 155.376C112.377 155.376 112.881 155.176 113.257 154.776C113.633 154.376 113.821 153.788 113.821 153.012V149.448H114.661ZM118.835 156.096C118.083 156.096 117.467 155.924 116.987 155.58C116.515 155.228 116.251 154.752 116.195 154.152H117.059C117.099 154.52 117.271 154.82 117.575 155.052C117.887 155.276 118.303 155.388 118.823 155.388C119.279 155.388 119.635 155.28 119.891 155.064C120.155 154.848 120.287 154.58 120.287 154.26C120.287 154.036 120.215 153.852 120.071 153.708C119.927 153.564 119.743 153.452 119.519 153.372C119.303 153.284 119.007 153.192 118.631 153.096C118.143 152.968 117.747 152.84 117.443 152.712C117.139 152.584 116.879 152.396 116.663 152.148C116.455 151.892 116.351 151.552 116.351 151.128C116.351 150.808 116.447 150.512 116.639 150.24C116.831 149.968 117.103 149.752 117.455 149.592C117.807 149.432 118.207 149.352 118.655 149.352C119.359 149.352 119.927 149.532 120.359 149.892C120.791 150.244 121.023 150.732 121.055 151.356H120.215C120.191 150.972 120.039 150.664 119.759 150.432C119.487 150.192 119.111 150.072 118.631 150.072C118.207 150.072 117.863 150.172 117.599 150.372C117.335 150.572 117.203 150.82 117.203 151.116C117.203 151.372 117.279 151.584 117.431 151.752C117.591 151.912 117.787 152.04 118.019 152.136C118.251 152.224 118.563 152.324 118.955 152.436C119.427 152.564 119.803 152.688 120.083 152.808C120.363 152.928 120.603 153.104 120.803 153.336C121.003 153.568 121.107 153.876 121.115 154.26C121.115 154.612 121.019 154.928 120.827 155.208C120.635 155.48 120.367 155.696 120.023 155.856C119.679 156.016 119.283 156.096 118.835 156.096ZM128.624 152.388C128.624 152.676 128.616 152.896 128.6 153.048H123.164C123.188 153.544 123.308 153.968 123.524 154.32C123.74 154.672 124.024 154.94 124.376 155.124C124.728 155.3 125.112 155.388 125.528 155.388C126.072 155.388 126.528 155.256 126.896 154.992C127.272 154.728 127.52 154.372 127.64 153.924H128.528C128.368 154.564 128.024 155.088 127.496 155.496C126.976 155.896 126.32 156.096 125.528 156.096C124.912 156.096 124.36 155.96 123.872 155.688C123.384 155.408 123 155.016 122.72 154.512C122.448 154 122.312 153.404 122.312 152.724C122.312 152.044 122.448 151.448 122.72 150.936C122.992 150.424 123.372 150.032 123.86 149.76C124.348 149.488 124.904 149.352 125.528 149.352C126.152 149.352 126.696 149.488 127.16 149.76C127.632 150.032 127.992 150.4 128.24 150.864C128.496 151.32 128.624 151.828 128.624 152.388ZM127.772 152.364C127.78 151.876 127.68 151.46 127.472 151.116C127.272 150.772 126.996 150.512 126.644 150.336C126.292 150.16 125.908 150.072 125.492 150.072C124.868 150.072 124.336 150.272 123.896 150.672C123.456 151.072 123.212 151.636 123.164 152.364H127.772ZM131.001 150.612C131.185 150.204 131.465 149.888 131.841 149.664C132.225 149.44 132.693 149.328 133.245 149.328V150.204H133.017C132.409 150.204 131.921 150.368 131.553 150.696C131.185 151.024 131.001 151.572 131.001 152.34V156H130.161V149.448H131.001V150.612ZM136.765 156.096C136.013 156.096 135.397 155.924 134.917 155.58C134.445 155.228 134.181 154.752 134.125 154.152H134.989C135.029 154.52 135.201 154.82 135.505 155.052C135.817 155.276 136.233 155.388 136.753 155.388C137.209 155.388 137.565 155.28 137.821 155.064C138.085 154.848 138.217 154.58 138.217 154.26C138.217 154.036 138.145 153.852 138.001 153.708C137.857 153.564 137.673 153.452 137.449 153.372C137.233 153.284 136.937 153.192 136.561 153.096C136.073 152.968 135.677 152.84 135.373 152.712C135.069 152.584 134.809 152.396 134.593 152.148C134.385 151.892 134.281 151.552 134.281 151.128C134.281 150.808 134.377 150.512 134.569 150.24C134.761 149.968 135.033 149.752 135.385 149.592C135.737 149.432 136.137 149.352 136.585 149.352C137.289 149.352 137.857 149.532 138.289 149.892C138.721 150.244 138.953 150.732 138.985 151.356H138.145C138.121 150.972 137.969 150.664 137.689 150.432C137.417 150.192 137.041 150.072 136.561 150.072C136.137 150.072 135.793 150.172 135.529 150.372C135.265 150.572 135.133 150.82 135.133 151.116C135.133 151.372 135.209 151.584 135.361 151.752C135.521 151.912 135.717 152.04 135.949 152.136C136.181 152.224 136.493 152.324 136.885 152.436C137.357 152.564 137.733 152.688 138.013 152.808C138.293 152.928 138.533 153.104 138.733 153.336C138.933 153.568 139.037 153.876 139.045 154.26C139.045 154.612 138.949 154.928 138.757 155.208C138.565 155.48 138.297 155.696 137.953 155.856C137.609 156.016 137.213 156.096 136.765 156.096Z" fill="white" />
		<path d="M89.934 149.448L87.882 156H87.042L85.23 150.504L83.418 156H82.566L80.514 149.448H81.366L82.998 155.148L84.834 149.448H85.674L87.486 155.16L89.106 149.448H89.934ZM91.4991 148.212C91.3311 148.212 91.1871 148.152 91.0671 148.032C90.9471 147.912 90.8871 147.764 90.8871 147.588C90.8871 147.412 90.9471 147.268 91.0671 147.156C91.1871 147.036 91.3311 146.976 91.4991 146.976C91.6671 146.976 91.8111 147.036 91.9311 147.156C92.0511 147.268 92.1111 147.412 92.1111 147.588C92.1111 147.764 92.0511 147.912 91.9311 148.032C91.8111 148.152 91.6671 148.212 91.4991 148.212ZM91.9191 149.448V156H91.0791V149.448H91.9191ZM94.9133 150.156V154.224C94.9133 154.624 94.9893 154.9 95.1413 155.052C95.2933 155.204 95.5613 155.28 95.9453 155.28H96.7133V156H95.8133C95.2213 156 94.7813 155.864 94.4933 155.592C94.2053 155.312 94.0613 154.856 94.0613 154.224V150.156H93.1493V149.448H94.0613V147.804H94.9133V149.448H96.7133V150.156H94.9133ZM101.219 149.328C101.715 149.328 102.159 149.432 102.551 149.64C102.951 149.848 103.263 150.168 103.487 150.6C103.719 151.024 103.835 151.544 103.835 152.16V156H103.007V152.256C103.007 151.544 102.827 151 102.467 150.624C102.115 150.248 101.631 150.06 101.015 150.06C100.383 150.06 99.8787 150.26 99.5027 150.66C99.1267 151.06 98.9387 151.648 98.9387 152.424V156H98.0987V147.12H98.9387V150.564C99.1467 150.172 99.4507 149.868 99.8507 149.652C100.259 149.436 100.715 149.328 101.219 149.328ZM114.661 149.448V156H113.821V154.848C113.629 155.256 113.333 155.568 112.933 155.784C112.533 156 112.085 156.108 111.589 156.108C110.805 156.108 110.165 155.868 109.669 155.388C109.173 154.9 108.925 154.196 108.925 153.276V149.448H109.753V153.18C109.753 153.892 109.929 154.436 110.281 154.812C110.641 155.188 111.129 155.376 111.745 155.376C112.377 155.376 112.881 155.176 113.257 154.776C113.633 154.376 113.821 153.788 113.821 153.012V149.448H114.661ZM118.835 156.096C118.083 156.096 117.467 155.924 116.987 155.58C116.515 155.228 116.251 154.752 116.195 154.152H117.059C117.099 154.52 117.271 154.82 117.575 155.052C117.887 155.276 118.303 155.388 118.823 155.388C119.279 155.388 119.635 155.28 119.891 155.064C120.155 154.848 120.287 154.58 120.287 154.26C120.287 154.036 120.215 153.852 120.071 153.708C119.927 153.564 119.743 153.452 119.519 153.372C119.303 153.284 119.007 153.192 118.631 153.096C118.143 152.968 117.747 152.84 117.443 152.712C117.139 152.584 116.879 152.396 116.663 152.148C116.455 151.892 116.351 151.552 116.351 151.128C116.351 150.808 116.447 150.512 116.639 150.24C116.831 149.968 117.103 149.752 117.455 149.592C117.807 149.432 118.207 149.352 118.655 149.352C119.359 149.352 119.927 149.532 120.359 149.892C120.791 150.244 121.023 150.732 121.055 151.356H120.215C120.191 150.972 120.039 150.664 119.759 150.432C119.487 150.192 119.111 150.072 118.631 150.072C118.207 150.072 117.863 150.172 117.599 150.372C117.335 150.572 117.203 150.82 117.203 151.116C117.203 151.372 117.279 151.584 117.431 151.752C117.591 151.912 117.787 152.04 118.019 152.136C118.251 152.224 118.563 152.324 118.955 152.436C119.427 152.564 119.803 152.688 120.083 152.808C120.363 152.928 120.603 153.104 120.803 153.336C121.003 153.568 121.107 153.876 121.115 154.26C121.115 154.612 121.019 154.928 120.827 155.208C120.635 155.48 120.367 155.696 120.023 155.856C119.679 156.016 119.283 156.096 118.835 156.096ZM128.624 152.388C128.624 152.676 128.616 152.896 128.6 153.048H123.164C123.188 153.544 123.308 153.968 123.524 154.32C123.74 154.672 124.024 154.94 124.376 155.124C124.728 155.3 125.112 155.388 125.528 155.388C126.072 155.388 126.528 155.256 126.896 154.992C127.272 154.728 127.52 154.372 127.64 153.924H128.528C128.368 154.564 128.024 155.088 127.496 155.496C126.976 155.896 126.32 156.096 125.528 156.096C124.912 156.096 124.36 155.96 123.872 155.688C123.384 155.408 123 155.016 122.72 154.512C122.448 154 122.312 153.404 122.312 152.724C122.312 152.044 122.448 151.448 122.72 150.936C122.992 150.424 123.372 150.032 123.86 149.76C124.348 149.488 124.904 149.352 125.528 149.352C126.152 149.352 126.696 149.488 127.16 149.76C127.632 150.032 127.992 150.4 128.24 150.864C128.496 151.32 128.624 151.828 128.624 152.388ZM127.772 152.364C127.78 151.876 127.68 151.46 127.472 151.116C127.272 150.772 126.996 150.512 126.644 150.336C126.292 150.16 125.908 150.072 125.492 150.072C124.868 150.072 124.336 150.272 123.896 150.672C123.456 151.072 123.212 151.636 123.164 152.364H127.772ZM131.001 150.612C131.185 150.204 131.465 149.888 131.841 149.664C132.225 149.44 132.693 149.328 133.245 149.328V150.204H133.017C132.409 150.204 131.921 150.368 131.553 150.696C131.185 151.024 131.001 151.572 131.001 152.34V156H130.161V149.448H131.001V150.612ZM136.765 156.096C136.013 156.096 135.397 155.924 134.917 155.58C134.445 155.228 134.181 154.752 134.125 154.152H134.989C135.029 154.52 135.201 154.82 135.505 155.052C135.817 155.276 136.233 155.388 136.753 155.388C137.209 155.388 137.565 155.28 137.821 155.064C138.085 154.848 138.217 154.58 138.217 154.26C138.217 154.036 138.145 153.852 138.001 153.708C137.857 153.564 137.673 153.452 137.449 153.372C137.233 153.284 136.937 153.192 136.561 153.096C136.073 152.968 135.677 152.84 135.373 152.712C135.069 152.584 134.809 152.396 134.593 152.148C134.385 151.892 134.281 151.552 134.281 151.128C134.281 150.808 134.377 150.512 134.569 150.24C134.761 149.968 135.033 149.752 135.385 149.592C135.737 149.432 136.137 149.352 136.585 149.352C137.289 149.352 137.857 149.532 138.289 149.892C138.721 150.244 138.953 150.732 138.985 151.356H138.145C138.121 150.972 137.969 150.664 137.689 150.432C137.417 150.192 137.041 150.072 136.561 150.072C136.137 150.072 135.793 150.172 135.529 150.372C135.265 150.572 135.133 150.82 135.133 151.116C135.133 151.372 135.209 151.584 135.361 151.752C135.521 151.912 135.717 152.04 135.949 152.136C136.181 152.224 136.493 152.324 136.885 152.436C137.357 152.564 137.733 152.688 138.013 152.808C138.293 152.928 138.533 153.104 138.733 153.336C138.933 153.568 139.037 153.876 139.045 154.26C139.045 154.612 138.949 154.928 138.757 155.208C138.565 155.48 138.297 155.696 137.953 155.856C137.609 156.016 137.213 156.096 136.765 156.096Z" fill="#1E55A9" fill-opacity="0.08" />
	</g>
	<path d="M140.432 58.9865C140.432 57.2802 140.926 55.9444 141.913 54.979C142.924 54.0136 144.215 53.5308 145.786 53.5308C147.358 53.5308 148.638 54.0136 149.626 54.979C150.636 55.9444 151.141 57.2802 151.141 58.9865C151.141 60.7153 150.636 62.0624 149.626 63.0278C148.638 63.9932 147.358 64.4759 145.786 64.4759C144.215 64.4759 142.924 63.9932 141.913 63.0278C140.926 62.0624 140.432 60.7153 140.432 58.9865ZM162.052 53.935L148.817 77.509H144.237L157.439 53.935H162.052ZM145.753 56.3597C144.518 56.3597 143.9 57.2353 143.9 58.9865C143.9 60.7602 144.518 61.647 145.753 61.647C146.359 61.647 146.83 61.4337 147.167 61.0072C147.504 60.5581 147.672 59.8846 147.672 58.9865C147.672 57.2353 147.032 56.3597 145.753 56.3597ZM155.216 72.4237C155.216 70.695 155.71 69.3591 156.698 68.4161C157.708 67.4507 158.999 66.968 160.571 66.968C162.142 66.968 163.411 67.4507 164.376 68.4161C165.364 69.3591 165.858 70.695 165.858 72.4237C165.858 74.1525 165.364 75.4996 164.376 76.465C163.411 77.4304 162.142 77.9131 160.571 77.9131C158.977 77.9131 157.686 77.4304 156.698 76.465C155.71 75.4996 155.216 74.1525 155.216 72.4237ZM160.537 69.7969C159.257 69.7969 158.617 70.6725 158.617 72.4237C158.617 74.1974 159.257 75.0842 160.537 75.0842C161.794 75.0842 162.423 74.1974 162.423 72.4237C162.423 70.6725 161.794 69.7969 160.537 69.7969Z" fill="#1E55A9" />
	<defs>
		<linearGradient id="paint0_linear_1145_6741" x1="-29.5" y1="144" x2="119.902" y2="258.516" gradientUnits="userSpaceOnUse">
			<stop stop-color="#1E55A9" />
			<stop offset="1" stop-color="#0B2143" />
		</linearGradient>
	</defs>
</svg>
