<svg width="20" height="20" viewBox="0 0 20 20" fill="none" xmlns="http://www.w3.org/2000/svg">
	<path d="M3.43988 7.44012H11.2195C11.4796 7.44012 11.6992 7.2198 11.6992 6.96044C11.6992 6.70028 11.4788 6.48076 11.2195 6.48076L3.43988 6.47998C3.17972 6.47998 2.96021 6.7003 2.96021 6.95966C2.96021 7.2206 3.17974 7.44012 3.43988 7.44012V7.44012Z" fill="#3E4244" />
	<path d="M3.43988 10.2797H8.96028C9.22044 10.2797 9.43997 10.0594 9.43997 9.79999C9.43997 9.53983 9.21965 9.32031 8.96028 9.32031H3.43988C3.17972 9.32031 2.96021 9.54063 2.96021 9.79999C2.96021 10.0797 3.17974 10.2797 3.43988 10.2797Z" fill="#3E4244" />
	<path d="M6.93989 12.1797H3.43989C3.17973 12.1797 2.96021 12.4 2.96021 12.6594C2.96021 12.9195 3.18053 13.139 3.43989 13.139H6.93989C7.20005 13.139 7.41957 12.9187 7.41957 12.6594C7.42035 12.4 7.20003 12.1797 6.93989 12.1797Z" fill="#3E4244" />
	<path d="M6.20009 15.04H3.43989C3.17973 15.04 2.96021 15.2604 2.96021 15.5197C2.96021 15.7799 3.18053 15.9994 3.43989 15.9994L6.20009 16.0002C6.46025 16.0002 6.67977 15.7799 6.67977 15.5205C6.67977 15.2603 6.46023 15.04 6.20009 15.04V15.04Z" fill="#3E4244" />
	<path d="M19.3602 6.07971C19.1805 5.75939 18.9602 5.47971 18.6805 5.20003C18.4009 4.92035 18.1009 4.67971 17.8009 4.52035C17.3805 4.28051 16.861 4.3602 16.5212 4.70004L14.1602 7.02044V2.96024C14.1602 2.70008 13.9399 2.48056 13.6805 2.48056H11.7008L11.7 1.7204C11.7 1.46024 11.4797 1.24072 11.2204 1.24072C10.9602 1.24072 10.7407 1.46104 10.7407 1.7204V2.48056H9.10084L9.10006 1.7204C9.10006 1.46024 8.87974 1.24072 8.62038 1.24072C8.36022 1.24072 8.1407 1.46104 8.1407 1.7204V2.48056H6.50086L6.50008 1.7204C6.50008 1.46024 6.27976 1.24072 6.0204 1.24072C5.76024 1.24072 5.54072 1.46104 5.54072 1.7204V2.48056H3.90088L3.9001 1.7204C3.9001 1.46024 3.67978 1.24072 3.42042 1.24072C3.16026 1.24072 2.94074 1.46104 2.94074 1.7204V2.48056L0.979802 2.47978C0.719642 2.47978 0.500122 2.7001 0.500122 2.95946V18.2595C0.500122 18.5196 0.720442 18.7391 0.979802 18.7391H13.7002C13.9604 18.7391 14.1799 18.5188 14.1799 18.2595V12.4001L19.2003 7.37966C19.5206 7.03982 19.6003 6.49998 19.3604 6.07966L19.3602 6.07971ZM9.92042 14.5399C9.84073 14.4399 9.76027 14.3399 9.66026 14.2399C9.56026 14.1399 9.46026 14.0602 9.33994 13.9602L9.6001 13.1001C9.63995 12.9602 9.72042 12.8399 9.82042 12.7399C10.0806 12.8798 10.3407 13.0798 10.5806 13.3001C10.8204 13.5399 11.0204 13.8001 11.1407 14.0602C11.0407 14.1602 10.9204 14.2399 10.7806 14.2806L9.92042 14.5399ZM11.84 13.3798C11.6798 13.1196 11.4798 12.8798 11.24 12.6399C11.0001 12.4001 10.7603 12.2001 10.5001 12.0399L15.9399 6.60011C16.2001 6.73996 16.4602 6.93995 16.7001 7.17979C16.9399 7.41963 17.1399 7.67979 17.2798 7.93995L11.84 13.3798ZM13.2204 17.8002H1.46023V3.43995H2.96023V4.20011C2.96023 4.46027 3.18055 4.67979 3.43991 4.67979C3.70007 4.67979 3.91959 4.45947 3.91959 4.20011V3.43995H5.55942L5.56021 4.20011C5.56021 4.46027 5.78053 4.67979 6.03989 4.67979C6.30005 4.67979 6.51957 4.45947 6.51957 4.20011V3.43995H8.1594L8.16019 4.20011C8.16019 4.46027 8.38051 4.67979 8.63987 4.67979C8.90003 4.67979 9.11954 4.45947 9.11954 4.20011V3.43995H10.7594L10.7602 4.20011C10.7602 4.46027 10.9805 4.67979 11.2398 4.67979C11.5 4.67979 11.7195 4.45947 11.7195 4.20011V3.43995H13.2195V7.97975L9.16013 12.0204C8.93981 12.2407 8.78045 12.5204 8.68045 12.8204L7.90077 15.3806C7.84061 15.5407 7.90077 15.7407 8.02108 15.8602C8.12108 15.9602 8.2414 16.0001 8.36092 16.0001C8.40076 16.0001 8.46092 16.0001 8.50076 15.9798L11.0602 15.2001C11.3602 15.1001 11.6398 14.9399 11.8602 14.7204L13.2203 13.3602L13.2204 17.8002ZM18.5 6.70015L17.9602 7.23999C17.8 6.97983 17.6 6.73999 17.3602 6.50015C17.1203 6.26031 16.8805 6.06031 16.6203 5.90015L17.1602 5.36031C17.1805 5.34 17.2203 5.32047 17.2399 5.32047C17.2602 5.32047 17.2797 5.32047 17.3 5.34078C17.5399 5.48063 17.7602 5.6611 17.9797 5.88062C18.2 6.10094 18.3797 6.34078 18.5 6.5603C18.5602 6.60015 18.5399 6.6603 18.5 6.70015L18.5 6.70015Z" fill="#3E4244" />
</svg>
