<svg width="37" height="31" viewBox="0 0 37 31" fill="none" xmlns="http://www.w3.org/2000/svg">
	<path d="M25.4377 4.53125C27.1252 7.4369 29.0008 10.7187 30.5002 13.25C25.7189 15.1256 22.9064 17.9381 20.282 20.5625C17.7508 23.0937 15.5939 25.2506 11.5633 26.5619C10.2502 24.3119 8.28143 20.8437 6.50078 17.8431C11.282 15.9675 14.0945 13.155 16.7189 10.5306C19.2502 7.9994 21.4052 5.7494 25.4377 4.53125ZM27.3115 0.219345C13.6252 2.7506 14.5621 12.9687 0.874023 15.5L9.68592 30.7806C23.374 28.2494 22.4371 18.0312 36.1252 15.5L27.3115 0.219345Z" fill="#1E55A9" />
	<path d="M22.0245 13.524C23.7858 16.5738 23.6856 19.9262 21.803 21.0143C19.9186 22.1006 16.9655 20.5115 15.2042 17.4618C13.4446 14.412 13.5448 11.0596 15.4274 9.97151C17.31 8.88517 20.2649 10.4743 22.0244 13.524" fill="#1E55A9" />
</svg>
