<svg width="24" height="24" viewBox="0 0 24 24" fill="none" xmlns="http://www.w3.org/2000/svg">
	<path d="M5.16003 23.3699C2.85647 23.3699 0.990027 21.5034 0.990027 19.1999V7.67986C0.990027 5.3763 2.85647 3.50986 5.16003 3.50986H11.49V6.08986H5.16003C4.28126 6.08986 3.57003 6.8011 3.57003 7.67986V19.1999C3.57003 20.0786 4.28126 20.7899 5.16003 20.7899H16.68C17.1024 20.7899 17.5061 20.6221 17.8042 20.3241C18.1023 20.026 18.27 19.6222 18.27 19.1999V12.5099H20.85V19.1999C20.85 21.5034 18.9836 23.3699 16.68 23.3699H5.16003Z" fill="#3E4244" stroke="white" stroke-width="0.3" />
	<path d="M18.84 0.839916C17.092 0.839916 15.517 1.8918 14.849 3.50615C14.1797 5.12053 14.5495 6.97957 15.7856 8.21423C17.0203 9.45032 18.8794 9.82015 20.4937 9.1508C22.1081 8.48282 23.1599 6.90782 23.1599 5.15984C23.1599 2.77344 21.2264 0.839916 18.84 0.839916Z" fill="#1E55A9" />
</svg>
