<svg width="17" height="13" viewBox="0 0 17 13" fill="none" xmlns="http://www.w3.org/2000/svg">
<g clip-path="url(#clip0_2382_7611)">
<path fill-rule="evenodd" clip-rule="evenodd" d="M15.5836 3.24999V11.9168C15.5836 12.2037 15.4342 12.4795 15.1686 12.6826C14.903 12.8857 14.5424 13 14.1665 13H2.83366C2.05073 13 1.41656 12.515 1.41656 11.9168V3.24999C0.63429 3.24999 0.00012207 2.76502 0.00012207 2.16683V1.08316C0.00012207 0.484952 0.634307 0 1.41656 0H15.5837C15.9589 0 16.3194 0.114258 16.5851 0.317382C16.8507 0.520506 17.0001 0.79625 17.0001 1.08316V2.16683C17.0001 2.45374 16.8507 2.72948 16.5851 2.9326C16.3194 3.13573 15.9589 3.24999 15.5837 3.24999H15.5836ZM2.83365 11.9168H14.1672L14.1665 3.24999H2.83366L2.83365 11.9168ZM15.5836 1.08367L1.41653 1.08316V2.16632H15.583V1.08316L15.5836 1.08367ZM9.9172 7.58367H7.08364V7.58316C5.90959 7.58316 4.95864 6.85596 4.95864 5.95816C4.95864 5.06086 5.90959 4.33316 7.08364 4.33316H9.9172H9.91654C11.0906 4.33316 12.0415 5.06086 12.0415 5.95816C12.0415 6.85596 11.0906 7.58316 9.91654 7.58316L9.9172 7.58367ZM9.9172 5.41683H7.08364C6.69251 5.41683 6.37508 5.65906 6.37508 5.95816C6.37508 6.25726 6.69251 6.5 7.08364 6.5H9.9172H9.91654C10.3077 6.5 10.6251 6.25726 10.6251 5.95816C10.6251 5.65906 10.3077 5.41683 9.91654 5.41683H9.9172Z" fill="#3E4244"/>
</g>
<defs>
<clipPath id="clip0_2382_7611">
<rect width="17" height="13" fill="white"/>
</clipPath>
</defs>
</svg>
