<svg width="39" height="39" viewBox="0 0 39 39" fill="none" xmlns="http://www.w3.org/2000/svg">
<path d="M22.23 23.7899H24.57C25.4323 23.7899 26.13 23.0922 26.13 22.2299C26.13 21.3677 25.4323 20.6699 24.57 20.6699H22.23C21.3678 20.6699 20.67 21.3677 20.67 22.2299C20.67 23.0922 21.3678 23.7899 22.23 23.7899Z" fill="#3E4244"/>
<path d="M28.08 7.7998H12.48C10.3258 7.7998 8.57996 9.54568 8.57996 11.6998V15.5998C8.57996 16.0142 8.74449 16.4103 9.037 16.7028C9.3295 16.9953 9.72558 17.1598 10.14 17.1598H28.86V26.1298C28.86 26.337 28.7777 26.5351 28.6314 26.6813C28.4852 26.8276 28.2871 26.9098 28.0799 26.9098H22.6199C21.7577 26.9098 21.0599 27.6076 21.0599 28.4698C21.0599 29.3321 21.7577 30.0298 22.6199 30.0298H28.0799C29.1143 30.0298 30.1061 29.6185 30.8374 28.8872C31.5686 28.156 31.9799 27.1642 31.9799 26.1298V11.6998C31.9799 10.6654 31.5686 9.67365 30.8374 8.9424C30.1061 8.21115 29.1143 7.79982 28.0799 7.79982L28.08 7.7998ZM28.86 14.0398H11.7V11.6998C11.7 11.2687 12.0488 10.9198 12.48 10.9198H28.08C28.2871 10.9198 28.4852 11.0021 28.6315 11.1483C28.7777 11.2946 28.86 11.4926 28.86 11.6998L28.86 14.0398Z" fill="#3E4244"/>
<path d="M17.9401 29.6397C17.9401 31.7192 14.8201 31.7192 14.8201 29.6397C14.8201 27.5602 17.9401 27.5602 17.9401 29.6397Z" fill="#3E4244"/>
<path d="M10.14 21.8399C10.14 23.9194 7.02002 23.9194 7.02002 21.8399C7.02002 19.7604 10.14 19.7604 10.14 21.8399Z" fill="#3E4244"/>
<path d="M15.2771 20.737L7.47709 28.537C6.8662 29.1464 6.8662 30.1336 7.47709 30.7429C8.08647 31.3538 9.07367 31.3538 9.68301 30.7429L17.483 22.9429C18.0939 22.3335 18.0939 21.3463 17.483 20.737C16.8736 20.1261 15.8864 20.1261 15.2771 20.737Z" fill="#3E4244"/>
</svg>
