<?xml version="1.0" encoding="utf-8"?>
<!-- Generator: Adobe Illustrator 26.2.1, SVG Export Plug-In . SVG Version: 6.00 Build 0)  -->
<svg version="1.1" id="Calque_1" xmlns="http://www.w3.org/2000/svg" xmlns:xlink="http://www.w3.org/1999/xlink" x="0px" y="0px"
	 viewBox="0 0 131 125" style="enable-background:new 0 0 131 125;" xml:space="preserve">
<style type="text/css">
	.st0{fill:#A9B3C3;}
</style>
<path class="st0" d="M54.1,6.8c-13.8,0-27,5.5-36.7,15.2C7.6,31.7,2.1,45,2.1,58.7s5.5,27,15.2,36.7c9.7,9.7,22.9,15.2,36.7,15.2
	s27-5.5,36.7-15.2c9.7-9.7,15.2-22.9,15.2-36.7s-5.5-27-15.2-36.7C81,12.3,67.8,6.8,54.1,6.8z M88.7,62.2H54.1
	c-1.9,0-3.5-1.5-3.5-3.5V24.1c0-1.9,1.5-3.5,3.5-3.5s3.5,1.5,3.5,3.5v31.2h31.2c1.9,0,3.5,1.5,3.5,3.5S90.6,62.2,88.7,62.2z"/>
</svg>
