<?xml version="1.0" encoding="UTF-8"?>
<svg fill="#FFFFFF" width="100pt" height="100pt" version="1.1" viewBox="0 0 100 100" xmlns="http://www.w3.org/2000/svg">
 <g>
  <path d="m88.895 61.109c-3.0703 0-5.5547 2.4883-5.5547 5.5547v13.891c0 1.5352-1.2461 2.7773-2.7773 2.7773h-61.121c-1.5352 0-2.7773-1.2461-2.7773-2.7773v-61.109c0-1.5352 1.2461-2.7773 2.7773-2.7773h13.891c3.0703 0 5.5547-2.4883 5.5547-5.5547 0-3.0664-2.4883-5.5547-5.5547-5.5547h-22.223c-3.0703 0-5.5547 2.4883-5.5547 5.5547v77.777c0 3.0664 2.4883 5.5547 5.5547 5.5547h77.789c3.0703 0 5.5547-2.4883 5.5547-5.5547v-22.223c0-3.0664-2.4844-5.5547-5.5547-5.5547z"/>
  <path d="m73.16 18.906 7.9375 7.9375-33.043 34.266h-9.168v-9.168l34.273-33.039zm0.074219-13.352c-1.4219 0-2.8398 0.53906-3.9219 1.6211l-41.535 40.043v25h25.004l40.051-41.527c2.168-2.168 2.168-5.6719 0-7.8398l-15.68-15.68c-1.0781-1.082-2.5-1.6211-3.918-1.6211z"/>
 </g>
</svg>
