<?xml version="1.0" encoding="utf-8"?>
<!-- Generator: Adobe Illustrator 26.1.0, SVG Export Plug-In . SVG Version: 6.00 Build 0)  -->
<svg version="1.1" id="Calque_1" xmlns="http://www.w3.org/2000/svg" xmlns:xlink="http://www.w3.org/1999/xlink" x="0px" y="0px"
	 viewBox="0 0 100 100" style="enable-background:new 0 0 100 100;" xml:space="preserve">
<style type="text/css">
	.st0{fill:#96A3B2;}
</style>
<path class="st0" d="M76.4,21.5H22.6c-5.3,0-9.6,5.4-9.6,12.1v35.4c0,3.2,1,6.3,2.8,8.5c1.8,2.3,4.3,3.5,6.8,3.5h53.7
	c2.6,0,5-1.3,6.8-3.5c1.8-2.3,2.8-5.3,2.8-8.5V33.6C86,26.9,81.7,21.5,76.4,21.5L76.4,21.5z M73.8,39.2L51.2,58.7L51,58.9h-0.1
	c-0.1,0.1-0.2,0.1-0.3,0.2c-0.1,0.1-0.2,0.1-0.3,0.1c-0.1,0-0.2,0.1-0.3,0.1h0c-0.1,0-0.2,0-0.3,0c-0.1,0-0.2,0-0.3,0h-0.1l-0.3,0
	l-0.2-0.1l-0.2-0.1l-0.1-0.1c-0.1-0.1-0.2-0.1-0.3-0.2h-0.1l-0.1,0L23.3,38.9c-1.4-1.1-1.8-3.4-0.9-5.2c0.9-1.7,2.7-2.2,4.1-1.1
	l22.9,18.6l21-18.2c1.4-1.1,3.1-0.6,4,1C75.4,35.7,75.1,38,73.8,39.2L73.8,39.2z"/>
</svg>
