<svg width="19" height="19" viewBox="0 0 19 19" fill="none" xmlns="http://www.w3.org/2000/svg">
<path d="M17.3472 7.06793H16.4922C16.3972 6.78293 16.2829 6.51723 16.15 6.25077L16.7393 5.66147C16.9672 5.43362 17.0815 5.14862 17.0815 4.82577C17.0815 4.50293 16.9672 4.21793 16.7393 3.99008L14.9915 2.24223C14.5358 1.78653 13.7758 1.78653 13.3193 2.24223L12.73 2.83079C12.4643 2.69794 12.1979 2.58364 11.9129 2.48864V1.65295C11.9129 1.00725 11.3807 0.475098 10.735 0.475098H8.24563C7.59993 0.475098 7.06778 1.00725 7.06778 1.65295V2.50795C6.78278 2.60295 6.51709 2.71725 6.25063 2.8501L5.66133 2.26079C5.20563 1.8051 4.44563 1.8051 3.98917 2.26079L2.24133 4.00864C1.78563 4.46434 1.78563 5.22434 2.24133 5.68079L2.84917 6.28864C2.71632 6.55434 2.60202 6.82079 2.50702 7.10579H1.65276C1.00707 7.10579 0.474915 7.63795 0.474915 8.28364V10.773C0.474915 11.4187 1.00707 11.9509 1.65276 11.9509H2.50776C2.60276 12.2359 2.71707 12.5016 2.84991 12.768L2.26061 13.3573C1.80491 13.813 1.80491 14.573 2.26061 15.0295L4.00846 16.7773C4.46415 17.233 5.22415 17.233 5.68061 16.7773L6.28846 16.1695C6.55415 16.3023 6.82061 16.4166 7.10561 16.5116V17.3473C7.10561 17.993 7.63776 18.5252 8.28346 18.5252H10.7728C11.4185 18.5252 11.9507 17.993 11.9507 17.3473V16.4923C12.2357 16.3973 12.5014 16.283 12.7678 16.1502L13.3571 16.7395C13.585 16.9673 13.87 17.0816 14.1928 17.0816C14.5157 17.0816 14.8007 16.9673 15.0285 16.7395L16.7764 14.9916C17.0042 14.7638 17.1185 14.4788 17.1185 14.1559C17.1185 13.8331 17.0042 13.5481 16.7764 13.3202L16.1693 12.7302C16.3021 12.4645 16.4164 12.198 16.5114 11.913H17.3664C18.0121 11.913 18.5443 11.3809 18.5443 10.7352V8.24581C18.525 7.60012 17.9928 7.06796 17.3471 7.06796L17.3472 7.06793ZM16.055 10.6973C15.7893 10.6973 15.5422 10.8873 15.4657 11.153C15.3329 11.6473 15.1429 12.1223 14.8957 12.5587C14.7629 12.8059 14.8007 13.0909 14.9907 13.2994L15.9029 14.1544L14.2122 15.9022L13.3 14.9901C13.11 14.8001 12.8057 14.7622 12.5593 14.8951C12.1222 15.1422 11.6472 15.3322 11.1536 15.4844C10.8879 15.5601 10.7165 15.8072 10.7165 16.0737L10.7543 17.328L8.3037 17.3659V16.0737C8.3037 15.808 8.1137 15.5609 7.848 15.4844C7.3537 15.3515 6.8787 15.1616 6.4423 14.9144C6.3473 14.8573 6.2523 14.8387 6.138 14.8387C5.98585 14.8387 5.81515 14.8958 5.70085 15.0094L4.84585 15.9216L3.098 14.2309L4.01015 13.3187C4.20015 13.1287 4.238 12.8244 4.10515 12.578C3.858 12.1409 3.668 11.6659 3.51585 11.1723C3.44015 10.9066 3.193 10.7166 2.92655 10.7166L1.67224 10.7545L1.65294 8.30309H2.9451C3.21079 8.30309 3.45794 8.11309 3.5344 7.84739C3.66725 7.35309 3.85725 6.87809 4.1044 6.44169C4.23725 6.19454 4.1994 5.90954 4.0094 5.701L3.09725 4.846L4.78794 3.09815L5.7001 4.0103C5.8901 4.2003 6.1944 4.23815 6.44079 4.1053C6.87794 3.85815 7.35294 3.66815 7.82794 3.516C8.09364 3.44029 8.2651 3.19315 8.2651 2.92669L8.22724 1.67239L10.6779 1.63454V2.92669C10.6779 3.19239 10.8679 3.43954 11.1336 3.51599C11.6279 3.64885 12.1029 3.83884 12.5393 4.08599C12.7671 4.21885 13.0714 4.18099 13.28 3.99099L14.135 3.07884L15.8828 4.76954L14.9706 5.68169C14.7806 5.87169 14.7428 6.17599 14.8756 6.42239C15.1228 6.85954 15.3128 7.33454 15.465 7.82808C15.5407 8.09378 15.7878 8.28378 16.0543 8.28378H17.3086L17.3464 10.6966L16.055 10.6973Z" fill="#3E4244"/>
<path d="M9.5 4.61719C6.82062 4.61719 4.61719 6.80219 4.61719 9.5C4.61719 12.1978 6.82081 14.3828 9.5 14.3828C12.1792 14.3828 14.3828 12.1978 14.3828 9.5C14.3828 6.80219 12.1792 4.61719 9.5 4.61719ZM10.4307 13.015V11.4757C11.1528 11.115 11.685 10.355 11.685 9.48069C11.685 8.72069 11.305 8.03639 10.735 7.63784C10.5828 7.54284 10.3743 7.65714 10.3743 7.82784V8.93C10.3743 9.405 9.9943 9.8043 9.5 9.8043C9.025 9.8043 8.62569 9.4243 8.62569 8.93V7.84715C8.62569 7.65715 8.41639 7.54284 8.265 7.65715C7.695 8.05645 7.315 8.74 7.315 9.48145C7.315 10.3558 7.82784 11.1158 8.5693 11.4765V13.0158C7.01145 12.5979 5.85211 11.1915 5.85211 9.50076C5.85211 7.48638 7.48641 5.85295 9.49992 5.85295C11.5143 5.85295 13.1477 7.48725 13.1477 9.50076C13.1477 11.1907 11.9892 12.5972 10.4305 13.015H10.4307Z" fill="#3E4244"/>
</svg>
