<svg width="36" height="36" viewBox="0 0 36 36" fill="none" xmlns="http://www.w3.org/2000/svg">
<path d="M18 1.54688C8.93376 1.54688 1.58472 8.91284 1.58472 18C1.58472 27.0871 8.93376 34.453 18 34.453C27.0662 34.453 34.4153 27.0871 34.4153 18C34.4153 8.91284 27.0662 1.54688 18 1.54688V1.54688ZM18 30.1514C11.3202 30.1514 5.88672 24.7006 5.88672 18C5.88672 11.2993 11.3206 5.84852 18 5.84852C24.6794 5.84852 30.1133 11.2993 30.1133 18C30.1133 24.7006 24.6794 30.1514 18 30.1514V30.1514Z" fill="url(#paint0_linear_2517_6927)"/>
<path d="M18 7.81152C12.4031 7.81152 7.84839 12.3817 7.84839 17.9999C7.84839 23.618 12.4031 28.1882 18 28.1882C23.597 28.1882 28.1517 23.618 28.1517 17.9999C28.1517 12.3817 23.597 7.81152 18 7.81152ZM18 10.4299C18.9 10.4299 19.6144 11.1865 19.5624 12.0837L19.0997 20.1978C19.0659 20.7799 18.5836 21.2356 18 21.2356C17.4164 21.2356 16.9341 20.7799 16.9003 20.1978L16.4376 12.0837C16.3856 11.1865 17.1 10.4299 18 10.4299H18ZM18 25.5697C17.1 25.5697 16.4222 24.8638 16.4222 23.9286C16.4222 22.9935 17.1 22.2876 18 22.2876C18.9296 22.2876 19.5778 22.9626 19.5778 23.9286C19.5778 24.8793 18.9141 25.5697 18 25.5697Z" fill="url(#paint1_linear_2517_6927)"/>
<defs>
<linearGradient id="paint0_linear_2517_6927" x1="1.17669" y1="17.9339" x2="34.4107" y2="17.9339" gradientUnits="userSpaceOnUse">
<stop stop-color="#ECA0A0"/>
<stop offset="0.98" stop-color="#F54545"/>
</linearGradient>
<linearGradient id="paint1_linear_2517_6927" x1="7.59605" y1="17.959" x2="28.1489" y2="17.959" gradientUnits="userSpaceOnUse">
<stop stop-color="#ECA0A0"/>
<stop offset="0.98" stop-color="#F54545"/>
</linearGradient>
</defs>
</svg>
