<svg width="34" height="34" viewBox="0 0 34 34" fill="none" xmlns="http://www.w3.org/2000/svg">
<path d="M11.8548 5.04395C11.123 5.04395 10.532 5.68675 10.532 6.48497V9.38425C10.532 10.1811 11.1217 10.8253 11.8548 10.8253H30.7486C31.4804 10.8253 32.0714 10.1811 32.0714 9.38425V6.48497C32.0714 5.68808 31.4804 5.04395 30.7486 5.04395H11.8548Z" fill="url(#paint0_linear_2517_6931)"/>
<path d="M11.8548 14.124C11.123 14.124 10.532 14.7655 10.532 15.565V18.463C10.532 19.2625 11.1217 19.9027 11.8548 19.9027H30.7486C31.4804 19.9027 32.0714 19.2612 32.0714 18.463V15.565C32.0714 14.7655 31.4804 14.124 30.7486 14.124H11.8548Z" fill="url(#paint1_linear_2517_6931)"/>
<path d="M11.8548 23.2031C11.123 23.2031 10.532 23.8459 10.532 24.6441V27.5421C10.532 28.3403 11.1217 28.9831 11.8548 28.9831H30.7486C31.4804 28.9831 32.0714 28.3416 32.0714 27.5421V24.6441C32.0714 23.8473 31.4804 23.2031 30.7486 23.2031H11.8548Z" fill="url(#paint2_linear_2517_6931)"/>
<path d="M4.90892 23.2031C4.14392 23.2031 3.40813 23.5086 2.86494 24.0491C2.32305 24.5924 2.01892 25.3268 2.01892 26.0931C2.01892 26.8608 2.32439 27.5952 2.86627 28.1358C3.40816 28.679 4.14392 28.9831 4.90892 28.9818C6.50532 28.9818 7.80025 27.6895 7.80025 26.0931C7.80025 25.3268 7.49478 24.5923 6.95423 24.0491C6.40968 23.5086 5.67657 23.2031 4.90892 23.2031V23.2031Z" fill="url(#paint3_linear_2517_6931)"/>
<path d="M4.90892 14.124C4.14392 14.124 3.40813 14.4282 2.86494 14.9714C2.32305 15.5119 2.01892 16.2477 2.01892 17.0154C2.01892 17.7804 2.32439 18.5161 2.86627 19.0567C3.40816 19.5986 4.14392 19.904 4.90892 19.904C6.50532 19.904 7.80025 18.6104 7.80025 17.0154C7.80025 16.2477 7.49478 15.5132 6.95423 14.97C6.40968 14.4295 5.67657 14.124 4.90892 14.124V14.124Z" fill="url(#paint4_linear_2517_6931)"/>
<path d="M4.90892 5.04395C4.14392 5.04395 3.40813 5.34941 2.86627 5.89129C2.32305 6.43318 2.01892 7.16762 2.01892 7.93395C2.01892 8.70027 2.32306 9.43607 2.86362 9.97925C3.40816 10.5198 4.14392 10.8253 4.90892 10.8253C5.67525 10.8253 6.40971 10.5198 6.9529 9.9766C7.49479 9.43606 7.79892 8.70027 7.79892 7.93395C7.79892 6.33887 6.50532 5.04395 4.90892 5.04395V5.04395Z" fill="url(#paint5_linear_2517_6931)"/>
<defs>
<linearGradient id="paint0_linear_2517_6931" x1="10.2643" y1="7.92301" x2="32.0684" y2="7.92301" gradientUnits="userSpaceOnUse">
<stop stop-color="#2BBFC7"/>
<stop offset="1" stop-color="#0C88A4"/>
</linearGradient>
<linearGradient id="paint1_linear_2517_6931" x1="10.2643" y1="17.0018" x2="32.0684" y2="17.0018" gradientUnits="userSpaceOnUse">
<stop stop-color="#2BBFC7"/>
<stop offset="1" stop-color="#0C88A4"/>
</linearGradient>
<linearGradient id="paint2_linear_2517_6931" x1="10.2643" y1="26.0815" x2="32.0684" y2="26.0815" gradientUnits="userSpaceOnUse">
<stop stop-color="#2BBFC7"/>
<stop offset="1" stop-color="#0C88A4"/>
</linearGradient>
<linearGradient id="paint3_linear_2517_6931" x1="1.94707" y1="26.0809" x2="7.79944" y2="26.0809" gradientUnits="userSpaceOnUse">
<stop stop-color="#2BBFC7"/>
<stop offset="1" stop-color="#0C88A4"/>
</linearGradient>
<linearGradient id="paint4_linear_2517_6931" x1="1.94707" y1="17.0024" x2="7.79944" y2="17.0024" gradientUnits="userSpaceOnUse">
<stop stop-color="#2BBFC7"/>
<stop offset="1" stop-color="#0C88A4"/>
</linearGradient>
<linearGradient id="paint5_linear_2517_6931" x1="1.94709" y1="7.92301" x2="7.79812" y2="7.92301" gradientUnits="userSpaceOnUse">
<stop stop-color="#2BBFC7"/>
<stop offset="1" stop-color="#0C88A4"/>
</linearGradient>
</defs>
</svg>
