<svg width="29" height="29" viewBox="0 0 29 29" fill="none" xmlns="http://www.w3.org/2000/svg">
<path d="M21.7918 3.52529L21.7916 3.525H21.7501H7.25015C5.62184 3.525 4.05923 4.17217 2.90773 5.32376C1.75625 6.47533 1.10898 8.03797 1.10898 9.66616V16.9162C1.10898 17.6385 1.69399 18.2249 2.41657 18.2249C3.13903 18.2249 3.72529 17.6386 3.72529 16.9162V9.66616C3.72529 7.71973 5.30385 6.14116 7.25029 6.14116H21.7503C23.6967 6.14116 25.2753 7.71973 25.2753 9.66616V19.3336C25.2753 21.28 23.6967 22.8586 21.7503 22.8586H12.084C11.3617 22.8586 10.7753 23.4436 10.7753 24.1662C10.7753 24.8887 11.3615 25.4749 12.084 25.4749H21.7503C23.3786 25.4749 24.9412 24.8277 26.0927 23.6762C27.2442 22.5246 27.8914 20.9619 27.8914 19.3337V9.66631C27.8914 8.038 27.2443 6.47539 26.0927 5.3239C24.9509 4.18221 23.405 3.5362 21.7918 3.52529Z" fill="#3E4244" stroke="#3E4244" stroke-width="0.2"/>
<path d="M13.9238 15.6758C14.0559 15.7404 14.1981 15.7822 14.3443 15.7996L14.339 15.8104L14.5011 15.8088C14.7572 15.8064 15.0073 15.7292 15.2207 15.5858C15.2207 15.5857 15.2208 15.5857 15.2209 15.5856L22.4526 10.7641L22.4662 10.756C22.775 10.5722 22.9958 10.2706 23.0756 9.91965C23.1553 9.56881 23.0866 9.2009 22.888 8.90291L22.8879 8.90283C22.6879 8.60348 22.3727 8.39991 22.0183 8.33982C21.6648 8.27988 21.3027 8.36756 21.016 8.58219L14.5001 12.9299L7.97053 8.58061L7.97061 8.58049L7.96591 8.57772C7.36745 8.22452 6.59842 8.39989 6.21211 8.97632L6.21206 8.9764C5.82565 9.55413 5.95823 10.3318 6.51371 10.7499L6.51361 10.7501L6.51838 10.7532L13.7684 15.587L13.9238 15.6906V15.6758Z" fill="#3E4244" stroke="#3E4244" stroke-width="0.2"/>
<path d="M7.25005 20.4415H2.41633C1.69375 20.4415 1.10874 21.0279 1.10874 21.7502C1.10874 22.4726 1.69375 23.0589 2.41633 23.0589H7.25005C7.97251 23.0589 8.55877 22.4727 8.55877 21.7502C8.55877 21.0278 7.97251 20.4415 7.25005 20.4415Z" fill="#3E4244" stroke="#3E4244" stroke-width="0.2"/>
</svg>
