<?xml version="1.0" encoding="utf-8"?>
<!-- Generator: Adobe Illustrator 26.1.0, SVG Export Plug-In . SVG Version: 6.00 Build 0)  -->
<svg version="1.1" id="Calque_1" xmlns="http://www.w3.org/2000/svg" xmlns:xlink="http://www.w3.org/1999/xlink" x="0px" y="0px"
	 viewBox="0 0 100 100" style="enable-background:new 0 0 100 100;" xml:space="preserve">
<style type="text/css">
	.st0{fill:#96A3B2;}
</style>
<g>
	<path class="st0" d="M48.2,88.2c13.4,0,29.9-32.3,29.9-48.3c0-10.7-5.7-20.5-14.9-25.9c-9.3-5.3-20.6-5.3-29.9,0
		C24,19.3,18.3,29.2,18.3,39.9C18.3,55.8,34.7,88.2,48.2,88.2z M48.2,26.1c5.6,0,10.6,3.4,12.7,8.5c2.1,5.2,1,11.1-3,15
		c-3.9,3.9-9.9,5.1-15,3c-5.2-2.1-8.5-7.2-8.5-12.7C34.4,32.3,40.6,26.1,48.2,26.1L48.2,26.1z"/>
</g>
</svg>
