<?xml version="1.0" encoding="utf-8"?>
<!-- Generator: Adobe Illustrator 26.1.0, SVG Export Plug-In . SVG Version: 6.00 Build 0)  -->
<svg version="1.1" id="Calque_1" xmlns="http://www.w3.org/2000/svg" xmlns:xlink="http://www.w3.org/1999/xlink" x="0px" y="0px"
	 viewBox="0 0 100 100" style="enable-background:new 0 0 100 100;" xml:space="preserve">
<style type="text/css">
	.st0{fill:#96A3B2;}
</style>
<path class="st0" d="M89.9,80.8l-6.4,6.4c-2.9,2.9-6.6,4.4-10.6,4.4c-0.6,0-1.2,0-1.9-0.1c-13.4-1.7-28.2-9.7-40.5-22
	C18.1,57.2,10.1,42.4,8.5,29c-0.6-4.6,1-9.1,4.3-12.4l6.4-6.4c2.3-2.3,6.1-2.3,8.5,0l14.1,14.1c1.1,1.1,1.8,2.6,1.8,4.2
	c0,1.6-0.6,3.1-1.8,4.2L34,40.5L59.5,66l7.8-7.8c2.3-2.3,6.1-2.3,8.5,0l14.1,14.1C92.2,74.7,92.2,78.5,89.9,80.8L89.9,80.8z"/>
</svg>
