<svg width="15" height="15" viewBox="0 0 15 15" fill="none" xmlns="http://www.w3.org/2000/svg">
<path d="M0.899988 3.29988H2.78549C2.96127 3.99129 3.43646 4.56784 4.08158 4.87188C4.72611 5.17597 5.47376 5.17597 6.11828 4.87188C6.7634 4.56778 7.2386 3.99121 7.41437 3.29988H14.0999C14.4315 3.29988 14.6999 3.03151 14.6999 2.69988C14.6999 2.36824 14.4315 2.09988 14.0999 2.09988H7.41437C7.23858 1.40847 6.7634 0.831911 6.11828 0.527876C5.47374 0.223781 4.7261 0.223781 4.08158 0.527876C3.43646 0.831971 2.96126 1.40854 2.78549 2.09988H0.899988C0.568353 2.09988 0.299988 2.36824 0.299988 2.69988C0.299988 3.03151 0.568353 3.29988 0.899988 3.29988V3.29988ZM5.09999 1.49988C5.58515 1.49988 6.02283 1.79226 6.20858 2.2405C6.39432 2.68933 6.29178 3.20496 5.94842 3.54832C5.60505 3.89169 5.08943 3.99423 4.6406 3.80848C4.19235 3.62274 3.89997 3.18505 3.89997 2.69989C3.89997 2.03719 4.43727 1.49989 5.09997 1.49989L5.09999 1.49988Z" fill="#3E4244"/>
<path d="M0.899988 8.09968H7.58549C7.76127 8.79109 8.23646 9.36765 8.88158 9.67168C9.52611 9.97578 10.2738 9.97578 10.9183 9.67168C11.5634 9.36759 12.0386 8.79102 12.2144 8.09968H14.0999C14.4315 8.09968 14.6999 7.83132 14.6999 7.49968C14.6999 7.16805 14.4315 6.89968 14.0999 6.89968H12.2144C12.0386 6.20827 11.5634 5.63172 10.9183 5.32768C10.2737 5.02359 9.5261 5.02359 8.88158 5.32768C8.23646 5.63178 7.76126 6.20835 7.58549 6.89968H0.899988C0.568353 6.89968 0.299988 7.16805 0.299988 7.49968C0.299988 7.83132 0.568353 8.09968 0.899988 8.09968ZM9.89999 6.29968C10.3851 6.29968 10.8228 6.59206 11.0086 7.04031C11.1943 7.48914 11.0918 8.00476 10.7484 8.34813C10.4051 8.69149 9.88943 8.79403 9.4406 8.60829C8.99235 8.42254 8.69997 7.98486 8.69997 7.4997C8.69997 6.837 9.23727 6.2997 9.89997 6.2997L9.89999 6.29968Z" fill="#3E4244"/>
<path d="M0.899988 12.9H2.78549C2.96127 13.5914 3.43646 14.1679 4.08158 14.472C4.72611 14.7761 5.47376 14.7761 6.11828 14.472C6.7634 14.1679 7.2386 13.5913 7.41437 12.9H14.0999C14.4315 12.9 14.6999 12.6316 14.6999 12.3C14.6999 11.9683 14.4315 11.7 14.0999 11.7H7.41437C7.23858 11.0086 6.7634 10.432 6.11828 10.128C5.47374 9.82388 4.7261 9.82388 4.08158 10.128C3.43646 10.4321 2.96126 11.0086 2.78549 11.7H0.899988C0.568353 11.7 0.299988 11.9683 0.299988 12.3C0.299988 12.6316 0.568353 12.9 0.899988 12.9V12.9ZM5.09999 11.1C5.58515 11.1 6.02283 11.3924 6.20858 11.8406C6.39432 12.2894 6.29178 12.8051 5.94842 13.1484C5.60505 13.4918 5.08943 13.5943 4.6406 13.4086C4.19235 13.2228 3.89997 12.7852 3.89997 12.3C3.89997 11.6373 4.43727 11.1 5.09997 11.1L5.09999 11.1Z" fill="#3E4244"/>
</svg>
