<svg width="21" height="21" viewBox="0 0 21 21" fill="none" xmlns="http://www.w3.org/2000/svg">
<path d="M14.8747 6.12519H18.3702C19.8213 6.12519 21 7.2966 21 8.74538V18.3792C21 19.827 19.827 21 18.3792 21H8.74546C7.29762 21 6.1253 19.8278 6.1253 18.3783V15.125C6.1253 15.0381 6.1376 14.9544 6.16139 14.8748H2.61765C1.17226 14.8748 0 13.7018 0 12.2571V2.61767C0 1.17227 1.17304 0 2.61765 0H12.2571C13.7024 0 14.8747 1.17305 14.8747 2.61767L14.8747 6.12519ZM1.74974 2.61754V12.257C1.74974 12.7353 2.1394 13.1249 2.61763 13.1249H12.257C12.7353 13.1249 13.1249 12.7361 13.1249 12.257V2.61754C13.1249 2.1393 12.7361 1.74965 12.257 1.74965H2.61763C2.1394 1.74965 1.74974 2.1393 1.74974 2.61754ZM14.8747 7.87492V12.257C14.8747 13.7024 13.7017 14.8747 12.2571 14.8747H7.83889C7.86268 14.9543 7.87499 15.0379 7.87499 15.1249V18.3782C7.87499 18.8606 8.26383 19.2502 8.74533 19.2502H18.3791C18.8606 19.2502 19.2502 18.8605 19.2502 18.379V8.74523C19.2502 8.26534 18.8573 7.87488 18.37 7.87488L14.8747 7.87492Z" fill="#1E55A9"/>
</svg>
