<svg width="29" height="25" viewBox="0 0 29 25" fill="none" xmlns="http://www.w3.org/2000/svg">
	<path d="M19.6945 3.42379C21.0349 5.73097 22.5247 8.33687 23.7156 10.3468C19.9179 11.836 17.6839 14.0693 15.5994 16.1531C13.5888 18.163 11.8756 19.8756 8.67406 20.9168C7.63107 19.1303 6.06729 16.3764 4.65292 13.9939C8.45066 12.5046 10.6846 10.2714 12.7692 8.18751C14.7798 6.17761 16.4915 4.39104 19.6945 3.42379ZM21.1829 0C10.3119 2.00989 11.056 10.1234 0.183594 12.1333L7.18288 24.2667C18.0553 22.2568 17.3111 14.1432 28.1836 12.1333L21.1829 0Z" fill="url(#paint0_linear_202_9831)" />
	<path d="M16.9104 10.5662C18.3191 12.9937 18.239 15.6619 16.7332 16.528C15.2261 17.3926 12.8642 16.1278 11.4555 13.7004C10.0481 11.273 10.1283 8.60474 11.634 7.73868C13.1398 6.87403 15.5031 8.13883 16.9103 10.5662" fill="url(#paint1_linear_202_9831)" />
	<defs>
		<linearGradient id="paint0_linear_202_9831" x1="-0.164397" y1="12.0846" x2="28.1797" y2="12.0846" gradientUnits="userSpaceOnUse">
			<stop stop-color="#1E55A9" />
			<stop offset="0.98" stop-color="#2BBFC7" />
		</linearGradient>
		<linearGradient id="paint1_linear_202_9831" x1="10.3574" y1="12.1146" x2="17.9158" y2="12.1146" gradientUnits="userSpaceOnUse">
			<stop stop-color="#1E55A9" />
			<stop offset="0.98" stop-color="#2BBFC7" />
		</linearGradient>
	</defs>
</svg>
