<svg width="22" height="22" viewBox="0 0 22 22" fill="none" xmlns="http://www.w3.org/2000/svg">
<path d="M16.0507 0.942749H5.94964C5.25527 0.942749 4.69238 1.50564 4.69238 2.2V19.8C4.69238 20.4944 5.25527 21.0573 5.94964 21.0573H16.0507C16.7451 21.0573 17.308 20.4944 17.308 19.8V2.2C17.308 1.50564 16.7451 0.942749 16.0507 0.942749ZM7.52132 2.51454H9.53914L6.264 5.7888V3.77184C6.264 3.07659 6.82603 2.51458 7.52125 2.51458L7.52132 2.51454ZM11 19.4477C10.4817 19.4477 10.0572 19.0266 10.0572 18.505C10.0572 17.9833 10.4817 17.5622 11 17.5622C11.5216 17.5622 11.9427 17.9833 11.9427 18.505C11.9427 19.0266 11.5216 19.4477 11 19.4477V19.4477ZM15.7359 14.6962C15.7359 15.3905 15.173 15.9534 14.4786 15.9534H7.52114C6.82678 15.9534 6.26389 15.3905 6.26389 14.6962V8.39184L12.1412 2.51454H14.4796C15.1739 2.51454 15.7368 3.07743 15.7368 3.77179L15.7359 14.6962Z" fill="#CAD4E3"/>
</svg>
