<svg width="31" height="30" viewBox="0 0 31 30" fill="none" xmlns="http://www.w3.org/2000/svg">
	<g clip-path="url(#clip0_1537_6845)">
		<path d="M29.8621 5.7552L28.723 7.62318L25.5742 5.70366L26.7133 3.83568L29.8621 5.7552Z" fill="#CAD4E3" />
		<path d="M24.8711 6.8754L19.3082 15.9996L19.2461 19.6254L22.4336 17.9379L28.0586 8.8125L24.8711 6.8754Z" fill="#CAD4E3" />
		<path d="M23.4334 18.9996L17.8084 21.9375L17.9338 15.6246L21.9334 9.0621H0.995517C0.682617 9.0621 0.495117 9.31171 0.495117 9.5625L0.496289 25.6254C0.496289 25.9383 0.745898 26.1258 0.996689 26.1258H24.4342C24.7471 26.1258 24.9346 25.8762 24.9346 25.6254L24.9334 16.5L23.4334 18.9996ZM3.93343 14.7504H7.74552V18.75H3.93343V14.7504ZM7.74552 23.9379H3.93343C3.55843 23.9379 3.24553 23.625 3.24553 23.25C3.24553 22.875 3.55843 22.5621 3.93343 22.5621H7.74552C8.12052 22.5621 8.43342 22.875 8.43342 23.25C8.43342 23.625 8.12052 23.9379 7.74552 23.9379ZM14.6209 23.9379H10.8088C10.4338 23.9379 10.1209 23.625 10.1209 23.25C10.1209 22.875 10.4338 22.5621 10.8088 22.5621H14.6209C14.9959 22.5621 15.3088 22.875 15.3088 23.25C15.3088 23.625 14.9959 23.9379 14.6209 23.9379ZM21.5584 23.9379H17.683C17.308 23.9379 16.9951 23.625 16.9951 23.25C16.9951 22.875 17.308 22.5621 17.683 22.5621H21.4951C21.8701 22.5621 22.183 22.875 22.183 23.25C22.183 23.625 21.9334 23.9379 21.5584 23.9379Z" fill="#CAD4E3" />
	</g>
	<defs>
		<clipPath id="clip0_1537_6845">
			<rect width="30" height="30" fill="white" transform="translate(0.183594)" />
		</clipPath>
	</defs>
</svg>
