<svg width="28" height="29" viewBox="0 0 28 29" fill="none" xmlns="http://www.w3.org/2000/svg">
	<path fill-rule="evenodd" clip-rule="evenodd" d="M9.92578 8.58157L11.3364 0.14035H13.5873L12.1782 8.58157H9.92578Z" fill="#CAD4E3" />
	<path fill-rule="evenodd" clip-rule="evenodd" d="M20.3324 0.348835C19.6854 0.116561 19.0045 -0.00139287 18.3189 1.24099e-05C16.0896 1.24099e-05 14.5325 1.14119 14.5202 2.78271C14.5094 3.99334 15.6348 4.66889 16.4874 5.07611C17.34 5.48334 17.6591 5.75166 17.6483 6.12416C17.6483 6.69554 16.9545 6.95124 16.3055 6.95124C15.5766 6.9726 14.8527 6.82135 14.1903 6.50929L13.8943 6.36881L13.5859 8.25499C14.1101 8.49964 15.0768 8.69852 16.0881 8.70956C18.4546 8.70956 19.9778 7.57944 20.0009 5.82269C20.0117 4.86776 19.4089 4.13382 18.1123 3.52771C17.3276 3.14416 16.8512 2.88689 16.8512 2.49229C16.8512 2.13084 17.2598 1.75834 18.1355 1.75834C18.7128 1.74363 19.2866 1.85446 19.819 2.08348L20.024 2.17661L20.3324 0.348835V0.348835Z" fill="#CAD4E3" />
	<path fill-rule="evenodd" clip-rule="evenodd" d="M26.0984 0.151398H24.3609C23.8275 0.151398 23.4174 0.309235 23.1784 0.850623L19.8438 8.59262H22.2025C22.2025 8.59262 22.5895 7.54457 22.6805 7.32991H25.5573C25.6251 7.62191 25.8301 8.59262 25.8301 8.59262H27.9068L26.0984 0.151398ZM23.3233 5.58895C23.5053 5.11543 24.2222 3.23715 24.2222 3.23715C24.199 3.26083 24.4041 2.74785 24.5182 2.43375L24.6723 3.15507C24.6723 3.15507 25.104 5.1691 25.195 5.58895H23.3233Z" fill="#CAD4E3" />
	<path fill-rule="evenodd" clip-rule="evenodd" d="M8.05009 0.151398L5.84393 5.90305L5.61576 4.7382C5.20567 3.38867 3.9199 1.9334 2.5 1.19945L4.51191 8.58157H6.8892L10.4258 0.151398H8.05009Z" fill="#CAD4E3" />
	<path fill-rule="evenodd" clip-rule="evenodd" d="M3.80697 0.140335H0.179374L0.15625 0.326589C2.96521 1.02424 4.84145 2.71311 5.61538 4.73818L4.81987 0.86166C4.68266 0.326586 4.29569 0.162433 3.80697 0.140335Z" fill="#CAD4E3" />
	<path d="M7.26289 28.9706V28.0882C7.26289 27.75 6.98881 27.5294 6.51896 27.5294C6.28403 27.5294 6.02953 27.5882 5.85333 27.7794C5.71629 27.6176 5.52052 27.5294 5.22686 27.5294C5.03109 27.5294 4.83532 27.5735 4.6787 27.7353V27.5588H4.26758V28.9706H4.6787V28.1912C4.6787 27.9412 4.85489 27.8235 5.12898 27.8235C5.40306 27.8235 5.5401 27.9559 5.5401 28.1912V28.9706H5.95122V28.1912C5.95122 27.9412 6.14699 27.8235 6.4015 27.8235C6.67558 27.8235 6.81262 27.9559 6.81262 28.1912V28.9706H7.26289ZM13.3514 27.5588H12.6858V27.1324H12.2747V27.5588H11.9027V27.8382H12.2747V28.4853C12.2747 28.8088 12.4509 29 12.9207 29C13.0969 29 13.2927 28.9559 13.4297 28.8971L13.3123 28.6324C13.1948 28.6912 13.0578 28.7059 12.9599 28.7059C12.7641 28.7059 12.6858 28.6176 12.6858 28.4706V27.8382H13.3514V27.5588ZM16.8362 27.5294C16.6012 27.5294 16.4446 27.6176 16.3467 27.7353V27.5588H15.9356V28.9706H16.3467V28.1765C16.3467 27.9412 16.4838 27.8088 16.7383 27.8088C16.8166 27.8088 16.9145 27.8235 16.9928 27.8382L17.1102 27.5441C17.0319 27.5294 16.9145 27.5294 16.8362 27.5294ZM11.5699 27.6765C11.3741 27.5735 11.1 27.5294 10.8064 27.5294C10.3365 27.5294 10.0233 27.7059 10.0233 27.9853C10.0233 28.2206 10.2582 28.3529 10.6693 28.3971L10.8651 28.4118C11.0805 28.4412 11.1979 28.4853 11.1979 28.5588C11.1979 28.6618 11.0413 28.7353 10.7672 28.7353C10.4931 28.7353 10.2778 28.6618 10.1407 28.5882L9.94497 28.8235C10.1603 28.9412 10.454 29 10.7476 29C11.2958 29 11.609 28.8088 11.609 28.5441C11.609 28.2941 11.3545 28.1618 10.963 28.1176L10.7672 28.1029C10.591 28.0882 10.454 28.0588 10.454 27.9706C10.454 27.8676 10.591 27.8088 10.8064 27.8088C11.0413 27.8088 11.2762 27.8824 11.3937 27.9265L11.5699 27.6765ZM22.494 27.5294C22.2591 27.5294 22.1024 27.6176 22.0045 27.7353V27.5588H21.5934V28.9706H22.0045V28.1765C22.0045 27.9412 22.1416 27.8088 22.3961 27.8088C22.4744 27.8088 22.5723 27.8235 22.6506 27.8382L22.7681 27.5441C22.6898 27.5294 22.5723 27.5294 22.494 27.5294ZM17.2473 28.2647C17.2473 28.6912 17.6388 29 18.2457 29C18.5198 29 18.7156 28.9559 18.9113 28.8382L18.7156 28.5882C18.559 28.6765 18.4023 28.7206 18.2261 28.7206C17.8933 28.7206 17.6584 28.5441 17.6584 28.2647C17.6584 28 17.8933 27.8235 18.2261 27.8088C18.4023 27.8088 18.559 27.8529 18.7156 27.9412L18.9113 27.6912C18.7156 27.5735 18.5198 27.5294 18.2457 27.5294C17.6388 27.5294 17.2473 27.8382 17.2473 28.2647ZM21.0453 28.2647V27.5588H20.6341V27.7353C20.4971 27.6029 20.3013 27.5294 20.0468 27.5294C19.5182 27.5294 19.1071 27.8382 19.1071 28.2647C19.1071 28.6912 19.5182 29 20.0468 29C20.3209 29 20.5167 28.9265 20.6341 28.7941V28.9706H21.0453V28.2647ZM19.5378 28.2647C19.5378 28.0147 19.7532 27.8088 20.1056 27.8088C20.4384 27.8088 20.6733 28 20.6733 28.2647C20.6733 28.5147 20.4384 28.7206 20.1056 28.7206C19.7532 28.7059 19.5378 28.5147 19.5378 28.2647ZM14.6239 27.5294C14.0758 27.5294 13.6842 27.8235 13.6842 28.2647C13.6842 28.7059 14.0758 29 14.6435 29C14.9176 29 15.1917 28.9412 15.407 28.8088L15.2112 28.5882C15.0546 28.6765 14.8589 28.7353 14.6631 28.7353C14.4086 28.7353 14.1541 28.6471 14.0953 28.3971H15.4853V28.2794C15.5049 27.8235 15.1525 27.5294 14.6239 27.5294ZM14.6239 27.7941C14.8784 27.7941 15.0546 27.9118 15.0938 28.1324H14.1149C14.1541 27.9412 14.3303 27.7941 14.6239 27.7941ZM24.8237 28.2647V27H24.4125V27.7353C24.2755 27.6029 24.0797 27.5294 23.8252 27.5294C23.2966 27.5294 22.8855 27.8382 22.8855 28.2647C22.8855 28.6912 23.2966 29 23.8252 29C24.0993 29 24.2951 28.9265 24.4125 28.7941V28.9706H24.8237V28.2647ZM23.3162 28.2647C23.3162 28.0147 23.5316 27.8088 23.884 27.8088C24.2168 27.8088 24.4517 28 24.4517 28.2647C24.4517 28.5147 24.2168 28.7206 23.884 28.7206C23.5316 28.7059 23.3162 28.5147 23.3162 28.2647ZM9.57301 28.2647V27.5588H9.16189V27.7353C9.02485 27.6029 8.82907 27.5294 8.57457 27.5294C8.04598 27.5294 7.63486 27.8382 7.63486 28.2647C7.63486 28.6912 8.04598 29 8.57457 29C8.84865 29 9.04442 28.9265 9.16189 28.7941V28.9706H9.57301V28.2647ZM8.04598 28.2647C8.04598 28.0147 8.26133 27.8088 8.61372 27.8088C8.94654 27.8088 9.18146 28 9.18146 28.2647C9.18146 28.5147 8.94654 28.7206 8.61372 28.7206C8.26133 28.7059 8.04598 28.5147 8.04598 28.2647Z" fill="#CAD4E3" />
	<path d="M12.6706 20.5C12.6706 18.4236 13.8149 16.5819 15.5739 15.3903C14.2812 14.5236 12.6494 14 10.8693 14C6.65211 14 3.24023 16.9069 3.24023 20.5C3.24023 24.0931 6.65211 27 10.8693 27C12.6494 27 14.2812 26.4764 15.5739 25.6097C13.8149 24.4361 12.6706 22.5764 12.6706 20.5Z" fill="#CAD4E3" />
	<path d="M25.8513 20.5C25.8513 24.0931 23.008 27 19.4937 27C18.0103 27 16.6505 26.4764 15.5732 25.6097C17.0567 24.4181 17.9926 22.5764 17.9926 20.5C17.9926 18.4236 17.039 16.5819 15.5732 15.3903C16.6505 14.5236 18.0103 14 19.4937 14C23.008 14 25.8513 16.925 25.8513 20.5Z" fill="#CAD4E3" />
</svg>
