<svg width="12" height="16" viewBox="0 0 12 16" fill="none" xmlns="http://www.w3.org/2000/svg">
	<path d="M6.37498 0C7.35415 0.0208334 8.27602 0.244791 9.1406 0.671873C10.0052 1.09896 10.6875 1.6875 11.1875 2.43749C11.7291 3.24999 12 4.16145 12 5.17186C12 6.18228 11.8333 7.1354 11.5 8.03123C11.125 9.0104 10.5937 9.78123 9.90623 10.3437C9.13539 10.9687 8.22915 11.2812 7.18748 11.2812C6.77082 11.2812 6.35415 11.1823 5.93749 10.9843C5.52082 10.7864 5.21874 10.5104 5.03124 10.1562L4.78124 11.1562C4.51041 12.2396 4.29166 12.9896 4.12499 13.4062C3.87499 13.9687 3.42708 14.6875 2.78124 15.5625L2.65624 15.625L2.56249 15.5312L2.53124 15.0625C2.46874 14.4791 2.43749 14.0416 2.43749 13.75C2.43749 13.125 2.54166 12.3125 2.74999 11.3125C2.87499 10.7291 3.08333 9.86456 3.37499 8.71873L3.74999 7.21873C3.54166 6.8229 3.43749 6.30207 3.43749 5.65624C3.43749 5.05207 3.59374 4.55207 3.90624 4.15624C4.17707 3.82291 4.51041 3.61457 4.90624 3.53124C5.30207 3.44791 5.64582 3.52083 5.93749 3.74999C6.22915 3.97916 6.37498 4.34374 6.37498 4.84374C6.37498 5.11457 6.33332 5.41665 6.24999 5.74999C6.20832 5.93749 6.11457 6.22915 5.96874 6.62498C5.8229 7.02082 5.72915 7.31248 5.68749 7.49998C5.60415 7.83331 5.56249 8.12498 5.56249 8.37498C5.56249 8.77081 5.70311 9.09894 5.98436 9.35935C6.26561 9.61977 6.60415 9.74998 6.99998 9.74998C7.66665 9.74998 8.22915 9.45831 8.68748 8.87498C9.08331 8.39581 9.37498 7.74998 9.56248 6.93748C9.72914 6.27082 9.81248 5.61457 9.81248 4.96874C9.81248 3.88541 9.47394 3.04166 8.79685 2.43749C8.11977 1.83333 7.22915 1.53125 6.12499 1.53125C5.31249 1.53125 4.5677 1.71875 3.89062 2.09374C3.21353 2.46874 2.68749 2.97916 2.31249 3.62499C1.9375 4.27082 1.75 5.0104 1.75 5.84374C1.75 6.1979 1.8125 6.54165 1.9375 6.87498C2 7.06248 2.11458 7.29165 2.28124 7.56248C2.40624 7.77081 2.46874 7.90623 2.46874 7.96873C2.46874 8.1354 2.42708 8.34373 2.34374 8.59373C2.23958 8.90623 2.12499 9.06248 2 9.06248C1.72916 9.06248 1.4375 8.92185 1.125 8.6406C0.812498 8.35935 0.552082 7.97915 0.343749 7.49998C0.114583 6.93748 0 6.31249 0 5.62499C0 4.49999 0.312499 3.49999 0.937498 2.62499C1.52083 1.8125 2.30208 1.17187 3.28124 0.703123C4.26041 0.234374 5.29165 0 6.37498 0Z" fill="#1E55A9" />
</svg>
