<svg width="14" height="14" viewBox="0 0 14 14" fill="none" xmlns="http://www.w3.org/2000/svg">
<path d="M7.00006 0.34314C3.32374 0.34314 0.343262 3.32378 0.343262 6.99994C0.343262 10.6761 3.3239 13.6574 7.00006 13.6574C10.6762 13.6574 13.6575 10.6767 13.6575 6.99994C13.6569 3.32362 10.6762 0.34314 7.00006 0.34314V0.34314ZM9.80822 7.73258H7.6663V9.97258C7.6663 10.3482 7.36193 10.6526 6.9863 10.6526C6.61067 10.6526 6.3063 10.3482 6.3063 9.97258L6.30568 7.73258H4.22072C3.84508 7.73258 3.54072 7.42821 3.54072 7.05258C3.54072 6.67695 3.84508 6.37258 4.22072 6.37258H6.30568V4.38378C6.30568 4.00815 6.61004 3.70378 6.98568 3.70378C7.36131 3.70378 7.6663 4.00815 7.66568 4.38378V6.3713H9.8076C10.1832 6.3713 10.4882 6.67567 10.4876 7.0513C10.4888 7.42818 10.1839 7.73255 9.80822 7.73255L9.80822 7.73258Z" fill="#3E4244"/>
</svg>
