<svg width="21" height="19" viewBox="0 0 21 19" fill="none" xmlns="http://www.w3.org/2000/svg">
	<path fill-rule="evenodd" clip-rule="evenodd" d="M0 2.59098C0 1.15947 1.17552 0 2.625 0H14.0003C14.4834 0 14.8747 0.386222 14.8747 0.863128C14.8747 1.34003 14.4834 1.72707 14.0003 1.72707H2.625C2.14183 1.72707 1.74972 2.1141 1.74972 2.591C1.74972 3.06791 2.14183 3.45413 2.625 3.45413H16.1872C17.8787 3.45413 19.2503 4.80791 19.2503 6.4775V8.63609H19.9065C20.5103 8.63609 21 9.11947 21 9.7162V12.7387C21 13.3347 20.5103 13.818 19.9065 13.818H19.2503V15.9775C19.2503 17.647 17.8787 19 16.1872 19H3.06222C1.37073 19 0 17.647 0 15.9775L0 2.59098ZM18.375 12.091H19.2503V10.3639H17.4997C17.0166 10.3639 16.6253 10.7501 16.6253 11.2271C16.6253 11.704 17.0166 12.091 17.4997 12.091L18.375 12.091ZM17.4997 13.818C16.0502 13.818 14.8747 12.6585 14.8747 11.227C14.8747 9.79634 16.0502 8.63605 17.4997 8.63605V6.47745C17.4997 5.7617 16.9124 5.18196 16.1872 5.18196H2.625C2.31821 5.18196 2.02371 5.13014 1.74972 5.0346V15.9775C1.74972 16.6932 2.33789 17.2729 3.06222 17.2729H16.1872C16.9124 17.2729 17.4997 16.6932 17.4997 15.9775V13.818Z" fill="#CAD4E3" />
</svg>
