<svg width="16" height="16" viewBox="0 0 16 16" fill="none" xmlns="http://www.w3.org/2000/svg">
	<path fill-rule="evenodd" clip-rule="evenodd" d="M0.259766 2.38937C0.259766 1.36058 1.07452 0.5 2.1119 0.5H13.4076C14.445 0.5 15.2598 1.36058 15.2598 2.38937C15.2598 3.41817 14.445 4.27875 13.4076 4.27875H3.09513V7.45122H4.68402C4.91303 6.68251 5.61075 6.11063 6.45641 6.11063H10.8009C11.8383 6.11063 12.6531 6.9712 12.6531 8C12.6531 9.0288 11.8383 9.88937 10.8009 9.88937H6.45641C5.61075 9.88937 4.91303 9.31749 4.68402 8.54878H3.09513V11.8232C3.09513 12.5219 3.64195 13.0618 4.28416 13.0618H4.68402C4.91303 12.2931 5.61075 11.7213 6.45641 11.7213H10.8009C11.8383 11.7213 12.6531 12.5818 12.6531 13.6106C12.6531 14.6394 11.8383 15.5 10.8009 15.5H6.45641C5.61075 15.5 4.91303 14.9281 4.68402 14.1594H4.28416C3.00684 14.1594 1.99757 13.0988 1.99757 11.8232V4.27524C1.01528 4.21476 0.259766 3.38006 0.259766 2.38937ZM2.1119 1.59756C1.70963 1.59756 1.35733 1.93739 1.35733 2.38937C1.35733 2.84135 1.70963 3.18118 2.1119 3.18118H13.4076C13.8099 3.18118 14.1622 2.84135 14.1622 2.38937C14.1622 1.93739 13.8099 1.59756 13.4076 1.59756H2.1119ZM6.45641 7.20819C6.05414 7.20819 5.70184 7.54802 5.70184 8C5.70184 8.45198 6.05414 8.79181 6.45641 8.79181H10.8009C11.2032 8.79181 11.5555 8.45198 11.5555 8C11.5555 7.54802 11.2032 7.20819 10.8009 7.20819H6.45641ZM6.45641 12.8188C6.05414 12.8188 5.70184 13.1586 5.70184 13.6106C5.70184 14.0626 6.05414 14.4024 6.45641 14.4024H10.8009C11.2032 14.4024 11.5555 14.0626 11.5555 13.6106C11.5555 13.1586 11.2032 12.8188 10.8009 12.8188H6.45641Z" fill="#848588" />
</svg>
