<svg width="19" height="19" viewBox="0 0 19 19" fill="none" xmlns="http://www.w3.org/2000/svg">
	<g clip-path="url(#clip0_220_9010)">
		<path d="M4.55904 11.4613C2.83813 11.0413 1.42048 9.81609 0.757257 8.16688C0.0750674 6.47052 0.279353 4.54579 1.30229 3.03037L1.30232 3.03031C2.32589 1.51498 4.03476 0.606592 5.86322 0.605862L5.8633 0.605862L8.95066 0.605862C10.9192 0.605862 12.7381 1.6565 13.7223 3.36085L13.7223 3.36088C14.7065 5.06595 14.7066 7.16646 13.7223 8.87085L4.55904 11.4613ZM4.55904 11.4613C4.57582 11.8604 4.527 12.2596 4.41359 12.6434C4.2937 13.0413 4.42272 13.4721 4.7411 13.7391L4.74155 13.7395C5.06041 14.0053 5.50644 14.0571 5.8773 13.8695C6.70306 13.4625 7.80645 12.7385 8.51297 11.6259H8.95066C10.9191 11.6259 12.738 10.576 13.7223 8.87088L4.55904 11.4613ZM5.85891 1.915C4.45184 1.94462 3.15262 2.6763 2.39761 3.86476L2.39759 3.8648C1.64116 5.05486 1.53173 6.54563 2.1063 7.83368L2.1063 7.8337C2.6805 9.12126 3.86182 10.0359 5.2518 10.2693C5.53312 10.3116 5.75562 10.5318 5.79856 10.8138C5.7986 10.814 5.79864 10.8143 5.79867 10.8145L5.60092 10.8444L5.85891 1.915ZM5.85891 1.915H5.86313H8.95553C10.4598 1.915 11.85 2.71716 12.6017 4.01996L12.6018 4.02003C13.3542 5.32289 13.3542 6.92711 12.6018 8.22998L12.6017 8.23004C11.85 9.53284 10.4598 10.335 8.95553 10.335H8.14568C7.90996 10.3316 7.6914 10.4555 7.5731 10.6598L7.57295 10.6597L7.56909 10.667C7.15694 11.4519 6.44889 12.0314 5.79186 12.4309L5.85891 1.915ZM8.61737 13.7068C8.51823 13.4782 8.25244 13.3742 8.02463 13.4733C7.79611 13.5732 7.69205 13.8383 7.79119 14.0668L14.1488 15.5264C13.9527 15.5553 13.7987 15.7086 13.7692 15.904M8.61737 13.7068C8.85713 14.2587 9.25229 14.7284 9.75573 15.0589M8.61737 13.7068L8.80081 13.6271C8.80083 13.6271 8.80084 13.6271 8.80085 13.6272M8.61737 13.7068L8.80085 13.6272M9.75573 15.0589C10.2585 15.3886 10.847 15.5644 11.4488 15.5644H12.0395M9.75573 15.0589L9.86542 14.8916C9.86544 14.8916 9.86546 14.8917 9.86548 14.8917M9.75573 15.0589L9.86548 14.8917M12.0395 15.5644C12.2054 15.5637 12.358 15.6537 12.4374 15.8M12.0395 15.5644L12.0386 15.3644C12.0388 15.3644 12.0389 15.3644 12.0391 15.3644C12.2774 15.3636 12.4968 15.4925 12.6118 15.7019M12.0395 15.5644L13.5716 15.873M12.4374 15.8C12.7138 16.2779 13.0982 16.6835 13.5585 16.9845C13.5469 16.8979 13.5384 16.811 13.5327 16.7239M12.4374 15.8L12.6132 15.7045C12.6127 15.7036 12.6122 15.7028 12.6118 15.7019M12.4374 15.8L12.6106 15.6999C12.611 15.7006 12.6114 15.7012 12.6118 15.7019M13.5327 16.7239C13.6017 16.774 13.6728 16.8216 13.7457 16.8665C13.7113 16.5466 13.7191 16.2233 13.7692 15.904M13.5327 16.7239C13.5144 16.4403 13.5273 16.1552 13.5716 15.873M13.5327 16.7239C13.1589 16.4521 12.8448 16.1043 12.6118 15.7019M13.7692 15.904L13.5714 15.8741C13.5715 15.8738 13.5715 15.8734 13.5716 15.873M13.7692 15.904L13.5716 15.873M13.5716 15.873C13.6147 15.5909 13.8371 15.3701 14.1198 15.3286L14.1199 15.3285C14.9642 15.2049 15.7112 14.7137 16.1589 13.9871L16.1589 13.9871C16.6067 13.2605 16.7099 12.3729 16.4404 11.5629C16.1708 10.7534 15.5566 10.1044 14.7628 9.79007L14.7475 9.78398L14.7333 9.77545C14.4604 9.61113 14.3461 9.27288 14.4661 8.97664C14.585 8.68036 14.9009 8.5149 15.2116 8.58495L15.2264 8.58829L15.2405 8.59381C16.0219 8.89956 16.6926 9.43357 17.1647 10.1272C17.6366 10.8207 17.8885 11.6406 17.8856 12.4798L17.8853 12.5555L17.8845 12.5564C17.8637 13.4684 17.5472 14.3501 16.9804 15.0675C16.4301 15.7643 15.6747 16.2681 14.8228 16.5089C14.8255 16.737 14.86 16.9637 14.9253 17.1824C15.0328 17.5396 14.9164 17.927 14.6308 18.1661L14.6306 18.1663C14.3443 18.4051 13.9427 18.4509 13.6105 18.2825L13.6104 18.2825C13.0123 17.9789 12.2134 17.4616 11.672 16.6623H11.449H11.4488V16.4623L13.5716 15.873ZM8.80085 13.6272C9.02512 14.1434 9.39466 14.5826 9.86548 14.8917M8.80085 13.6272L9.86548 14.8917M9.57347 5.19968C9.77738 5.05764 9.828 4.77709 9.68597 4.57249C9.54323 4.36788 9.26268 4.31796 9.05808 4.45999M9.57347 5.19968L5.11289 5.92178M9.57347 5.19968C8.61582 5.86343 7.78402 6.69242 7.11809 7.64804L9.57347 5.19968ZM9.05808 4.45999L8.9442 4.29557M9.05808 4.45999L8.94403 4.29569C8.94409 4.29565 8.94414 4.29561 8.9442 4.29557M9.05808 4.45999C8.24489 5.02321 7.51355 5.69723 6.88598 6.46136L5.11289 5.92178M8.9442 4.29557C9.23922 4.09091 9.64409 4.1629 9.85 4.45806L9.85027 4.45844C10.0552 4.75368 9.98221 5.15869 9.68779 5.36379L9.6874 5.36406C8.74926 6.01428 7.93446 6.82634 7.28218 7.76238L7.2818 7.76292C7.16039 7.93594 6.96178 8.04069 6.74895 8.04069H6.72926H6.72013L6.72014 8.04048C6.49858 8.03037 6.29664 7.90885 6.18493 7.7159L6.18469 7.7155C5.94354 7.29676 5.59694 6.95016 5.1782 6.70901L5.17762 6.70867C4.86862 6.52935 4.76032 6.13352 4.9394 5.82214L4.96315 5.78086L4.96702 5.77832M8.9442 4.29557C8.12412 4.86357 7.38575 5.54218 6.75077 6.31094C6.47999 6.02448 6.16846 5.77896 5.82635 5.58242L5.82601 5.58223C5.53054 5.41325 5.15671 5.50132 4.96702 5.77832M4.96702 5.77832C4.95736 5.79241 4.94819 5.807 4.93952 5.82206L5.11262 5.92163L5.11289 5.92178M4.96702 5.77832L5.00295 5.75471L5.00307 5.75463L5.11289 5.92178" fill="#3E4244" stroke="#3E4244" stroke-width="0.4" />
	</g>
	<defs>
		<clipPath id="clip0_220_9010">
			<rect width="18" height="18" fill="white" transform="translate(0.121094 0.5)" />
		</clipPath>
	</defs>
</svg>
