<svg width="18" height="18" viewBox="0 0 18 18" fill="none" xmlns="http://www.w3.org/2000/svg">
	<path d="M1.92858 7.7143H5.78573C6.85046 7.7143 7.7143 6.85046 7.7143 5.78573V1.92858C7.7143 0.863841 6.85046 0 5.78573 0H1.92858C0.863841 0 0 0.863841 0 1.92858V5.78573C0 6.85046 0.863841 7.7143 1.92858 7.7143ZM2.57143 2.57143H5.14287V5.14287H2.57143V2.57143Z" fill="#3E4244" />
	<path d="M0 16.0715C0 17.1362 0.863841 18 1.92858 18H5.78573C6.85046 18 7.7143 17.1362 7.7143 16.0715V12.2143C7.7143 11.1496 6.85046 10.2857 5.78573 10.2857H1.92858C0.863841 10.2857 0 11.1496 0 12.2143V16.0715ZM2.57143 12.8572H5.14287V15.4286H2.57143V12.8572Z" fill="#3E4244" />
	<path d="M16.0718 7.7143C17.1365 7.7143 18.0004 6.85046 18.0004 5.78573V1.92858C18.0004 0.863841 17.1365 0 16.0718 0H12.2146C11.1499 0 10.2861 0.863841 10.2861 1.92858V5.78573C10.2861 6.85046 11.1499 7.7143 12.2146 7.7143H16.0718ZM12.8575 2.57143H15.4289V5.14287H12.8575V2.57143Z" fill="#3E4244" />
	<path d="M12.8576 12.8572H15.429V15.4286H12.8576V12.8572Z" fill="#3E4244" />
	<path d="M15.4282 10.2857H17.9997V12.8572H15.4282V10.2857Z" fill="#3E4244" />
	<path d="M10.2861 10.2857H12.8575V12.8572H10.2861V10.2857Z" fill="#3E4244" />
	<path d="M15.4282 15.4286H17.9997V18H15.4282V15.4286Z" fill="#3E4244" />
	<path d="M10.2861 15.4286H12.8575V18H10.2861V15.4286Z" fill="#3E4244" />
</svg>
