<svg width="16" height="10" viewBox="0 0 16 10" fill="none" xmlns="http://www.w3.org/2000/svg">
	<path d="M15.8 5.00012C15.8 4.88027 15.7269 4.71981 15.6538 4.64262L11.4938 0.222618C11.2998 0.0215237 10.9849 -0.00183466 10.7584 0.202306C10.5563 0.384103 10.5513 0.739569 10.7381 0.937611L14.0776 4.48011H0.720073C0.432643 4.48011 0.200073 4.71269 0.200073 5.00011C0.200073 5.28753 0.432651 5.52011 0.720073 5.52011H14.0776L10.7381 9.06261C10.5513 9.26065 10.5645 9.60699 10.7584 9.79791C10.9636 9.99901 11.3028 9.98174 11.4938 9.7776L15.6538 5.3576C15.7756 5.23776 15.798 5.12198 15.8 5.0001V5.00012Z" fill="white" />
</svg>
