<svg width="25" height="24" viewBox="0 0 25 24" fill="none" xmlns="http://www.w3.org/2000/svg">
	<path d="M20.9005 3.93553C20.4757 3.52772 19.8009 3.52772 19.3751 3.93553C18.9503 4.34333 18.9503 4.99114 19.3751 5.39991C23.1749 9.04767 23.1749 14.9754 19.3751 18.6244C18.9503 19.0322 18.9503 19.68 19.3751 20.0888C19.5753 20.281 19.8497 20.401 20.1251 20.401C20.4005 20.401 20.6749 20.3053 20.8751 20.0888C25.5256 15.6243 25.5256 8.37557 20.9005 3.93557L20.9005 3.93553Z" fill="url(#paint0_linear_1519_7773)" />
	<path d="M17.3253 7.34449C16.9005 6.93668 16.2257 6.93668 15.7999 7.34449C15.3751 7.7523 15.3751 8.40011 15.7999 8.80888C17.6251 10.5611 17.6495 13.4411 15.7999 15.1934C15.3751 15.6012 15.3751 16.249 15.7999 16.6577C16.0001 16.8499 16.2745 16.9699 16.5499 16.9699C16.8253 16.9699 17.0997 16.8743 17.2999 16.6577C20.0254 14.0881 20.0001 9.91254 17.3253 7.34454L17.3253 7.34449Z" fill="url(#paint1_linear_1519_7773)" />
	<path d="M5.62501 5.40008C6.04981 4.99227 6.04981 4.34446 5.62501 3.93569C5.20021 3.52789 4.52541 3.52789 4.09961 3.93569C-0.525391 8.37569 -0.525391 15.6234 4.09961 20.0634C4.2998 20.2556 4.57421 20.3756 4.84961 20.3756C5.12501 20.3756 5.39941 20.28 5.59961 20.0634C6.02441 19.6556 6.02441 19.0078 5.59961 18.5991C1.82511 14.9755 1.82511 9.04779 5.625 5.40003L5.62501 5.40008Z" fill="url(#paint2_linear_1519_7773)" />
	<path d="M9.17478 8.80776C9.59958 8.39995 9.59958 7.75215 9.17478 7.34338C8.74997 6.93557 8.07517 6.93557 7.64937 7.34338C4.97462 9.91114 4.97462 14.0879 7.64937 16.6556C7.84957 16.8478 8.12397 16.9678 8.39937 16.9678C8.67477 16.9678 8.94918 16.8722 9.14938 16.6556C9.57418 16.2478 9.57418 15.6 9.14938 15.1912C7.34957 13.44 7.34957 10.56 9.17476 8.80771L9.17478 8.80776Z" fill="url(#paint3_linear_1519_7773)" />
	<path d="M14.3253 12C14.3253 12.9675 13.5079 13.7522 12.5001 13.7522C11.4922 13.7522 10.6749 12.9675 10.6749 12C10.6749 11.0325 11.4922 10.2478 12.5001 10.2478C13.5079 10.2478 14.3253 11.0325 14.3253 12Z" fill="url(#paint4_linear_1519_7773)" />
	<defs>
		<linearGradient id="paint0_linear_1519_7773" x1="18.9905" y1="11.9817" x2="24.3654" y2="11.9817" gradientUnits="userSpaceOnUse">
			<stop stop-color="#1E55A9" />
			<stop offset="0.98" stop-color="#2BBFC7" />
		</linearGradient>
		<linearGradient id="paint1_linear_1519_7773" x1="15.4333" y1="11.9844" x2="19.3372" y2="11.9844" gradientUnits="userSpaceOnUse">
			<stop stop-color="#1E55A9" />
			<stop offset="0.98" stop-color="#2BBFC7" />
		</linearGradient>
		<linearGradient id="paint2_linear_1519_7773" x1="0.564831" y1="11.9691" x2="5.94287" y2="11.9691" gradientUnits="userSpaceOnUse">
			<stop stop-color="#1E55A9" />
			<stop offset="0.98" stop-color="#2BBFC7" />
		</linearGradient>
		<linearGradient id="paint3_linear_1519_7773" x1="5.59546" y1="11.9827" x2="9.49284" y2="11.9827" gradientUnits="userSpaceOnUse">
			<stop stop-color="#1E55A9" />
			<stop offset="0.98" stop-color="#2BBFC7" />
		</linearGradient>
		<linearGradient id="paint4_linear_1519_7773" x1="10.6295" y1="11.993" x2="14.3248" y2="11.993" gradientUnits="userSpaceOnUse">
			<stop stop-color="#1E55A9" />
			<stop offset="0.98" stop-color="#2BBFC7" />
		</linearGradient>
	</defs>
</svg>
