<svg width="25" height="24" viewBox="0 0 25 24" fill="none" xmlns="http://www.w3.org/2000/svg">
	<path d="M20.9005 3.93549C20.4757 3.52769 19.8009 3.52769 19.3751 3.93549C18.9503 4.3433 18.9503 4.99111 19.3751 5.39988C23.1749 9.04764 23.1749 14.9754 19.3751 18.6244C18.9503 19.0322 18.9503 19.68 19.3751 20.0887C19.5753 20.2809 19.8497 20.4009 20.1251 20.4009C20.4005 20.4009 20.6749 20.3053 20.8751 20.0887C25.5256 15.6243 25.5256 8.37554 20.9005 3.93554L20.9005 3.93549Z" fill="#CAD4E3" />
	<path d="M17.3253 7.34443C16.9005 6.93662 16.2257 6.93662 15.7999 7.34443C15.3751 7.75224 15.3751 8.40005 15.7999 8.80882C17.6251 10.561 17.6495 13.4411 15.7999 15.1933C15.3751 15.6011 15.3751 16.2489 15.7999 16.6577C16.0001 16.8499 16.2745 16.9699 16.5499 16.9699C16.8253 16.9699 17.0997 16.8742 17.2999 16.6577C20.0254 14.088 20.0001 9.91248 17.3253 7.34448L17.3253 7.34443Z" fill="#CAD4E3" />
	<path d="M5.62501 5.40006C6.04981 4.99225 6.04981 4.34445 5.62501 3.93568C5.20021 3.52787 4.52541 3.52787 4.09961 3.93568C-0.525391 8.37568 -0.525391 15.6234 4.09961 20.0634C4.2998 20.2556 4.57421 20.3756 4.84961 20.3756C5.12501 20.3756 5.39941 20.28 5.59961 20.0634C6.02441 19.6556 6.02441 19.0078 5.59961 18.599C1.82511 14.9755 1.82511 9.04777 5.625 5.40001L5.62501 5.40006Z" fill="#CAD4E3" />
	<path d="M9.17478 8.80772C9.59958 8.39991 9.59958 7.7521 9.17478 7.34333C8.74998 6.93552 8.07517 6.93552 7.64937 7.34333C4.97462 9.91109 4.97462 14.0878 7.64937 16.6556C7.84957 16.8478 8.12397 16.9678 8.39937 16.9678C8.67477 16.9678 8.94918 16.8721 9.14938 16.6556C9.57418 16.2478 9.57418 15.6 9.14938 15.1912C7.34957 13.4399 7.34957 10.5599 9.17476 8.80767L9.17478 8.80772Z" fill="#CAD4E3" />
	<path d="M14.3253 12C14.3253 12.9675 13.5079 13.7522 12.5001 13.7522C11.4922 13.7522 10.6749 12.9675 10.6749 12C10.6749 11.0325 11.4922 10.2478 12.5001 10.2478C13.5079 10.2478 14.3253 11.0325 14.3253 12Z" fill="#CAD4E3" />
</svg>
