<svg width="29" height="23" viewBox="0 0 29 23" fill="none" xmlns="http://www.w3.org/2000/svg">
	<path d="M8 23C12.4183 23 16 19.4183 16 15C16 10.5817 12.4183 7 8 7C3.58172 7 0 10.5817 0 15C0 19.4183 3.58172 23 8 23Z" fill="#9C9C9C" />
	<g style="mix-blend-mode:multiply">
		<path d="M21 23C25.4183 23 29 19.4183 29 15C29 10.5817 25.4183 7 21 7C16.5817 7 13 10.5817 13 15C13 19.4183 16.5817 23 21 23Z" fill="#3E4244" />
	</g>
	<g style="mix-blend-mode:multiply">
		<path d="M29 10L29 4C29 1.79086 27.2091 -7.8281e-08 25 -1.74846e-07L4 -1.09278e-06C1.79086 -1.18935e-06 -7.8281e-08 1.79086 -1.74846e-07 4L-4.37114e-07 10C-5.33678e-07 12.2091 1.79086 14 4 14L25 14C27.2091 14 29 12.2091 29 10Z" fill="#9C9C9C" />
	</g>
</svg>
