<svg width="52" height="52" viewBox="0 0 52 52" fill="none" xmlns="http://www.w3.org/2000/svg">
	<rect width="52" height="52" rx="26" fill="white" />
	<rect width="52" height="52" rx="26" fill="#1E55A9" fill-opacity="0.08" />
	<path fill-rule="evenodd" clip-rule="evenodd" d="M23.9117 24.1954H26.9461C27.0375 24.1954 27.1117 24.2696 27.1117 24.361V25.1259C27.1117 25.2173 27.0367 25.2915 26.9461 25.2915H23.9117C23.8202 25.2915 23.746 25.2165 23.746 25.1259V24.361C23.746 24.2696 23.821 24.1954 23.9117 24.1954ZM33.0351 20.5282L29.1539 16.647C28.9812 16.4743 28.746 16.3767 28.5015 16.3767H19.6461C18.8321 16.3767 18.1719 17.0368 18.1719 17.8509V19.104C18.1719 19.2415 18.2836 19.3525 18.4203 19.3525H19.1539C19.2914 19.3525 19.4024 19.2415 19.4024 19.104V17.8509C19.4024 17.7173 19.5117 17.6071 19.6461 17.6071H28.3125V20.0727C28.3125 20.786 28.8969 21.3696 29.6102 21.3696H32.0758V34.4556C32.0758 34.5892 31.9664 34.6994 31.832 34.6994H19.646C19.5117 34.6994 19.4023 34.59 19.4023 34.4556V33.2283C19.4023 33.0697 19.2734 32.9416 19.1156 32.9416H18.4593C18.3007 32.9416 18.1726 33.0705 18.1726 33.2283V34.4556C18.1726 35.2666 18.8359 35.9298 19.6468 35.9298H31.8328C32.6438 35.9298 33.307 35.2666 33.307 34.4556V21.1806C33.307 20.9353 33.2102 20.7009 33.0367 20.5275L33.0351 20.5282ZM17.7093 21.5891V20.7102C17.7093 20.4423 17.928 20.2243 18.196 20.2243H19.1374C19.4053 20.2243 19.6225 20.4423 19.6241 20.7095L19.628 21.5485C19.828 21.6071 20.0225 21.6876 20.2046 21.7891C20.9866 22.2243 21.4491 22.9798 21.5983 23.8501C21.6233 23.9939 21.585 24.1345 21.4905 24.2462C21.3968 24.358 21.2647 24.4189 21.1186 24.4189H20.2546C20.0382 24.4189 19.8514 24.2798 19.7889 24.0728C19.4968 23.1072 17.6475 22.9697 17.6475 24.1744C17.6475 24.8298 18.5827 25.0931 19.0764 25.2728C20.4671 25.7798 21.6538 26.3275 21.6538 28.0188C21.6538 29.3141 20.8202 30.3188 19.6234 30.7172V31.5953C19.6234 31.8633 19.4047 32.082 19.1367 32.082H18.1953C17.9266 32.082 17.7102 31.8641 17.7086 31.5961L17.7047 30.757C17.5047 30.6984 17.3102 30.6188 17.1274 30.5164C16.3453 30.0813 15.8828 29.3258 15.7336 28.4554C15.7086 28.3117 15.7477 28.171 15.8414 28.0593C15.9352 27.9476 16.0672 27.8867 16.2133 27.8867H17.0774C17.2938 27.8867 17.4805 28.0257 17.543 28.232C17.8344 29.1984 19.6844 29.3351 19.6844 28.1312C19.6844 27.4359 18.6039 27.1609 18.0883 26.971C16.7492 26.4781 15.6781 25.8851 15.6781 24.2858C15.6781 22.9905 16.5117 21.9858 17.7085 21.5874L17.7093 21.5891ZM23.9109 28.9531H29.0265C29.1179 28.9531 29.1921 29.0281 29.1921 29.1188V29.8836C29.1921 29.975 29.1179 30.0492 29.0265 30.0492H23.9109C23.8194 30.0492 23.7452 29.975 23.7452 29.8836V29.1188C23.7452 29.0274 23.8202 28.9531 23.9109 28.9531ZM23.9109 26.5945H29.0265C29.1179 26.5945 29.1921 26.6688 29.1921 26.7602V27.525C29.1921 27.6164 29.1179 27.6906 29.0265 27.6906H23.9109C23.8194 27.6906 23.7452 27.6164 23.7452 27.525V26.7602C23.7452 26.6688 23.8202 26.5945 23.9109 26.5945Z" fill="#1E55A9" />
</svg>
