<svg width="52" height="52" viewBox="0 0 52 52" fill="none" xmlns="http://www.w3.org/2000/svg">
	<rect width="52" height="52" rx="26" fill="white" />
	<rect width="52" height="52" rx="26" fill="#1E55A9" fill-opacity="0.08" />
	<path d="M31.8555 19.9363H30.0312V18.7901C30.0333 18.3821 29.8737 17.9905 29.586 17.7018C29.2984 17.413 28.9079 17.2501 28.4999 17.2501H21.4999C20.6545 17.2501 19.9686 17.9358 19.9686 18.7813V19.9276H18.1443C16.333 19.9298 14.8652 21.3976 14.863 23.2089V31.4602C14.8651 33.2715 16.333 34.7393 18.1443 34.7416H31.8556C33.6669 34.7394 35.1347 33.2716 35.1369 31.4602V23.2176C35.1347 21.4063 33.6669 19.9385 31.8556 19.9363L31.8555 19.9363ZM21.281 18.7901C21.2799 18.731 21.3018 18.6741 21.3434 18.6315C21.3839 18.5888 21.4407 18.5637 21.4998 18.5626H28.4998C28.6201 18.5647 28.7164 18.661 28.7185 18.7813V19.9276H21.2812L21.281 18.7901ZM16.1755 23.2174C16.1755 22.1302 17.0571 21.2487 18.1443 21.2487H31.8556C32.9428 21.2487 33.8243 22.1302 33.8243 23.2174V23.8124C33.8221 25.382 32.5501 26.6539 30.9806 26.6561H27.1875V25.8905C27.1875 25.4847 27.0267 25.0953 26.739 24.8077C26.4514 24.52 26.062 24.3592 25.6562 24.3592H24.3437C23.4982 24.3592 22.8124 25.045 22.8124 25.8905V26.6736H19.0193C17.4497 26.6714 16.1778 25.3994 16.1756 23.8299L16.1755 23.2174ZM25.875 28.5156C25.8728 28.6359 25.7766 28.7321 25.6562 28.7343H24.3437C24.2234 28.7321 24.1272 28.6359 24.125 28.5156V25.8906C24.1272 25.7703 24.2234 25.674 24.3437 25.6718H25.6562C25.7766 25.674 25.8728 25.7703 25.875 25.8906V28.5156ZM31.8555 33.4374H18.1442C17.057 33.4374 16.1755 32.5559 16.1755 31.4687V26.875C16.9433 27.6024 17.9616 28.0081 19.0191 28.0081H22.8123V28.5375C22.8123 29.383 23.4981 30.0688 24.3436 30.0688H25.6561C26.5015 30.0688 27.1873 29.383 27.1873 28.5375V27.9906H30.9805C32.036 27.995 33.0531 27.5958 33.8242 26.875V31.46C33.8264 31.9839 33.6196 32.487 33.251 32.8578C32.8814 33.2286 32.3793 33.4375 31.8554 33.4375L31.8555 33.4374Z" fill="#1E55A9" />
</svg>
