<svg width="52" height="52" viewBox="0 0 52 52" fill="none" xmlns="http://www.w3.org/2000/svg">
	<rect width="52" height="52" rx="26" fill="white" />
	<rect width="52" height="52" rx="26" fill="#1E55A9" fill-opacity="0.08" />
	<path fill-rule="evenodd" clip-rule="evenodd" d="M24.2648 24.1954H27.2992C27.3906 24.1954 27.4648 24.2696 27.4648 24.3611V25.1259C27.4648 25.2173 27.3898 25.2915 27.2992 25.2915H24.2648C24.1734 25.2915 24.0992 25.2165 24.0992 25.1259V24.3611C24.0992 24.2696 24.1742 24.1954 24.2648 24.1954ZM33.3882 20.5282L29.507 16.647C29.3343 16.4744 29.0992 16.3767 28.8547 16.3767H19.9993C19.1852 16.3767 18.525 17.0369 18.525 17.8509V19.104C18.525 19.2415 18.6368 19.3525 18.7735 19.3525H19.5071C19.6446 19.3525 19.7555 19.2416 19.7555 19.104V17.8509C19.7555 17.7173 19.8649 17.6072 19.9993 17.6072H28.6657V20.0728C28.6657 20.786 29.2501 21.3696 29.9633 21.3696H32.4289V34.4556C32.4289 34.5892 32.3196 34.6994 32.1852 34.6994H19.9992C19.8648 34.6994 19.7554 34.59 19.7554 34.4556V33.2283C19.7554 33.0697 19.6265 32.9416 19.4687 32.9416H18.8125C18.6539 32.9416 18.5257 33.0705 18.5257 33.2283V34.4556C18.5257 35.2666 19.189 35.9299 20 35.9299H32.186C32.9969 35.9299 33.6602 35.2666 33.6602 34.4556V21.1806C33.6602 20.9353 33.5633 20.701 33.3899 20.5275L33.3882 20.5282ZM18.0624 21.5892V20.7103C18.0624 20.4423 18.2812 20.2243 18.5491 20.2243H19.4905C19.7585 20.2243 19.9757 20.4423 19.9772 20.7095L19.9811 21.5485C20.1811 21.6071 20.3757 21.6876 20.5577 21.7892C21.3397 22.2243 21.8022 22.9798 21.9515 23.8502C21.9765 23.9939 21.9382 24.1345 21.8437 24.2463C21.7499 24.358 21.6179 24.4189 21.4718 24.4189H20.6077C20.3913 24.4189 20.2046 24.2799 20.1421 24.0728C19.8499 23.1072 18.0007 22.9697 18.0007 24.1744C18.0007 24.8298 18.9359 25.0931 19.4296 25.2728C20.8202 25.7799 22.007 26.3275 22.007 28.0188C22.007 29.3141 21.1734 30.3188 19.9766 30.7172V31.5953C19.9766 31.8633 19.7578 32.0821 19.4899 32.0821H18.5485C18.2797 32.0821 18.0633 31.8641 18.0618 31.5961L18.0578 30.7571C17.8578 30.6985 17.6633 30.6188 17.4805 30.5164C16.6985 30.0813 16.236 29.3258 16.0867 28.4554C16.0617 28.3117 16.1008 28.1711 16.1946 28.0593C16.2883 27.9476 16.4203 27.8867 16.5664 27.8867H17.4305C17.6469 27.8867 17.8336 28.0258 17.8961 28.232C18.1875 29.1984 20.0375 29.3351 20.0375 28.1312C20.0375 27.4359 18.9571 27.1609 18.4414 26.9711C17.1024 26.4781 16.0312 25.8851 16.0312 24.2859C16.0312 22.9905 16.8648 21.9859 18.0616 21.5875L18.0624 21.5892ZM24.264 28.9532H29.3796C29.471 28.9532 29.5452 29.0282 29.5452 29.1188V29.8836C29.5452 29.975 29.471 30.0493 29.3796 30.0493H24.264C24.1726 30.0493 24.0984 29.975 24.0984 29.8836V29.1188C24.0984 29.0274 24.1734 28.9532 24.264 28.9532ZM24.264 26.5946H29.3796C29.471 26.5946 29.5452 26.6688 29.5452 26.7602V27.525C29.5452 27.6164 29.471 27.6907 29.3796 27.6907H24.264C24.1726 27.6907 24.0984 27.6164 24.0984 27.525V26.7602C24.0984 26.6688 24.1734 26.5946 24.264 26.5946Z" fill="#1E55A9" />
</svg>
