<svg width="52" height="52" viewBox="0 0 52 52" fill="none" xmlns="http://www.w3.org/2000/svg">
	<rect width="52" height="52" rx="26" fill="white" />
	<rect width="52" height="52" rx="26" fill="#1E55A9" fill-opacity="0.08" />
	<path d="M34.9093 34.5069C34.9317 34.7222 34.8677 34.9386 34.7306 35.1062C34.5925 35.2737 34.3944 35.3804 34.1781 35.4007H34.0968C33.6784 35.4027 33.326 35.0858 33.2843 34.6694L32.9593 31.6875C32.8649 30.7633 32.156 30.0198 31.2368 29.8837L29.0675 29.5669C27.9554 29.4033 27.1002 28.5004 26.9956 27.3812L26.9387 26.7556C26.8493 25.8619 26.8249 25.6506 27.0199 25.3581C27.0687 25.2931 27.1195 25.2312 27.1743 25.1713C28.0853 24.0652 28.4845 22.6241 28.2712 21.2063C28.0843 18.5332 26.6787 18.2243 25.6468 18.2243C24.6148 18.2243 23.2093 18.5331 23.0062 21.1899C22.9006 22.4249 23.0062 24.1068 24.0787 25.1388C24.1417 25.1987 24.1986 25.2637 24.2493 25.3338C24.4443 25.6344 24.4281 25.8538 24.3387 26.6825L24.2737 27.365C24.1691 28.4842 23.3139 29.3871 22.2018 29.5506L20.0324 29.8675C19.1174 30.0158 18.4186 30.7643 18.3343 31.6875L18.0256 34.6856C17.9829 35.1325 17.5868 35.4595 17.14 35.4168C16.9236 35.3965 16.7256 35.2899 16.5875 35.1223C16.4504 34.9547 16.3864 34.7384 16.4087 34.5231L16.7093 31.5086C16.8799 29.844 18.1576 28.5064 19.8132 28.2586L21.9826 27.9417C22.3482 27.8838 22.6285 27.5873 22.6651 27.2186L22.7382 26.5117V26.1136C21.5895 24.6938 21.0919 22.8566 21.3651 21.0517C21.617 18.1836 23.1282 16.5992 25.6226 16.5992C28.117 16.5992 29.6851 18.2242 29.8882 21.0517C30.1299 22.8534 29.6312 24.6763 28.5069 26.1056C28.5069 26.2274 28.5069 26.39 28.5557 26.5768L28.6207 27.2187C28.6572 27.5874 28.9376 27.8839 29.3032 27.9418L31.4726 28.2587C33.128 28.5065 34.4056 29.8441 34.5764 31.5087L34.9093 34.5069Z" fill="#1E55A9" />
</svg>
