<svg width="12" height="14" viewBox="0 0 12 14" fill="none" xmlns="http://www.w3.org/2000/svg">
<path d="M5.99977 0.350001C2.73764 0.350001 0.0776367 3.01 0.0776367 6.27214V12.3479C0.0776367 12.8521 0.357637 13.3136 0.819748 13.5236C1.00186 13.6079 1.19764 13.6494 1.37975 13.6494C1.67397 13.6494 1.96764 13.5515 2.20552 13.3552L3.6618 12.18H5.99966C9.2618 12.18 11.9218 9.51996 11.9218 6.25782C11.9218 2.99568 9.2618 0.349964 5.99966 0.349964L5.99977 0.350001ZM5.99977 11.0321H3.45192C3.32613 11.0321 3.18614 11.0742 3.08769 11.1579L1.49197 12.46C1.42197 12.5158 1.36619 12.5021 1.32408 12.4743C1.28198 12.46 1.23987 12.4185 1.23987 12.3343V6.27211C1.23987 3.63997 3.382 1.51211 5.99986 1.51211C8.632 1.51211 10.7599 3.65425 10.7599 6.27211C10.7599 8.88997 8.632 11.0321 5.99986 11.0321L5.99977 11.0321Z" fill="#3E4244"/>
<path d="M8.12756 4.10214C7.90333 3.87792 7.53967 3.87792 7.31545 4.10214L5.99967 5.43214L4.68389 4.11636C4.45967 3.89214 4.09601 3.89214 3.87178 4.11636C3.64756 4.34059 3.64756 4.70425 3.87178 4.92848L5.18756 6.24425L3.87178 7.56003C3.64756 7.78425 3.64756 8.14792 3.87178 8.37214C3.98389 8.48425 4.13756 8.54003 4.27756 8.54003C4.41756 8.54003 4.57178 8.48425 4.68333 8.37214L5.99911 7.05636L7.31489 8.37214C7.42699 8.48425 7.58066 8.54003 7.72066 8.54003C7.86066 8.54003 8.01489 8.48425 8.12644 8.37214C8.35066 8.14792 8.35066 7.78425 8.12644 7.56003L6.81066 6.24425L8.12644 4.92848C8.35175 4.69004 8.35175 4.32582 8.12753 4.10215L8.12756 4.10214Z" fill="#3E4244"/>
</svg>
