<svg width="24" height="23" viewBox="0 0 24 23" fill="none" xmlns="http://www.w3.org/2000/svg">
	<path d="M4.10354 0.875011C3.93088 0.874034 3.76432 0.940441 3.64144 1.05763C3.51957 1.17579 3.4505 1.33595 3.45152 1.50293V3.2793L1.60409 3.27833C1.43143 3.27833 1.26487 3.34376 1.14199 3.46192C1.0191 3.57911 0.951052 3.73927 0.952068 3.90625V21.503C0.953084 21.8477 1.24558 22.126 1.6041 22.1251H14.7606C15.1181 22.1241 15.4076 21.8458 15.4096 21.503V19.7217H17.2621H17.2611C17.6186 19.7198 17.907 19.4424 17.9091 19.0987V13.0674L22.4671 8.68169C23.2146 7.96294 23.239 6.80377 22.5565 6.04595H22.5555C22.5301 6.00786 22.4996 5.9727 22.4661 5.94145C21.6841 5.1895 20.3983 5.18853 19.6162 5.94145L17.909 7.58208V1.50308C17.91 1.15738 17.6205 0.876129 17.261 0.875154L4.10354 0.875011ZM4.75151 2.12501H16.6088V8.83001L13.0237 12.2753C12.9505 12.3475 12.8957 12.4364 12.8662 12.5341L11.9928 15.2283C11.9197 15.45 11.9816 15.6922 12.1533 15.8572C12.3249 16.0222 12.5768 16.0808 12.8073 16.0115L15.6093 15.1726C15.7109 15.1433 15.8033 15.0916 15.8785 15.0203L16.6087 14.3181V18.4704L4.75144 18.4714L4.75151 2.12501ZM2.25205 4.52834H3.45151V19.0986C3.45253 19.4443 3.74502 19.7226 4.10354 19.7216H14.1076V20.875H2.25208L2.25205 4.52834ZM7.20817 4.56154C7.03247 4.55763 6.86388 4.62209 6.73895 4.73927C6.61403 4.85744 6.54293 5.01857 6.54293 5.18655C6.54293 5.35452 6.61403 5.51565 6.73895 5.63382C6.86387 5.75101 7.03246 5.81546 7.20817 5.81156H14.1562C14.3308 5.81546 14.5004 5.75101 14.6254 5.63382C14.7503 5.51566 14.8204 5.35452 14.8204 5.18655C14.8204 5.01857 14.7503 4.85745 14.6254 4.73927C14.5005 4.62209 14.3308 4.55763 14.1562 4.56154H7.20817ZM21.0399 6.61819C21.2207 6.61819 21.4025 6.68655 21.5467 6.82619C21.8351 7.10354 21.8351 7.52249 21.5467 7.79982L16.8251 12.3398H16.8241C16.8089 12.3535 16.7936 12.3681 16.7784 12.3838L15.7546 13.3691L14.7411 12.3945L20.5331 6.82626C20.6773 6.68759 20.8591 6.61923 21.0399 6.61826L21.0399 6.61819ZM7.20817 7.97074C7.03247 7.96683 6.86388 8.03128 6.73895 8.14945C6.61403 8.26663 6.54293 8.42777 6.54293 8.59575C6.54293 8.76372 6.61403 8.92485 6.73895 9.04302C6.86387 9.16021 7.03246 9.22466 7.20817 9.22076H14.1562C14.3308 9.22466 14.5004 9.16021 14.6254 9.04302C14.7503 8.92486 14.8204 8.76372 14.8204 8.59575C14.8204 8.42778 14.7503 8.26665 14.6254 8.14945C14.5005 8.03128 14.3308 7.96683 14.1562 7.97074H7.20817ZM7.14216 11.38V11.381C6.78972 11.4064 6.52263 11.6974 6.53989 12.0362C6.55817 12.3761 6.85472 12.6398 7.20817 12.631H11.3305H11.3295C11.5052 12.6339 11.6737 12.5704 11.7987 12.4523C11.9236 12.3351 11.9947 12.1739 11.9947 12.006C11.9947 11.837 11.9236 11.6759 11.7987 11.5587C11.6738 11.4405 11.5052 11.377 11.3295 11.3809H7.20793C7.18559 11.379 7.16325 11.379 7.14192 11.3809L7.14216 11.38ZM13.9469 13.4024L14.7066 14.1319L13.6056 14.4601L13.9469 13.4024ZM7.20819 14.7843V14.7852C6.85475 14.7921 6.57242 15.0704 6.57242 15.4102C6.57242 15.7501 6.85475 16.0274 7.20819 16.0352H10.376H10.375C10.5507 16.0391 10.7193 15.9747 10.8442 15.8565C10.9692 15.7393 11.0403 15.5782 11.0403 15.4102C11.0403 15.2413 10.9692 15.0811 10.8442 14.963C10.7193 14.8458 10.5507 14.7813 10.375 14.7852L7.20819 14.7843Z" fill="#CAD4E3" />
</svg>
