<svg width="14" height="14" viewBox="0 0 14 14" fill="none" xmlns="http://www.w3.org/2000/svg">
	<path fill-rule="evenodd" clip-rule="evenodd" d="M9.6135 4.914C9.79912 5.06868 9.8242 5.34455 9.66951 5.53017L6.79666 8.9776C6.60844 9.20347 6.2669 9.21896 6.05899 9.01106L4.35739 7.30945C4.18653 7.1386 4.18653 6.86159 4.35739 6.69073C4.52824 6.51988 4.80525 6.51988 4.97611 6.69073L6.38735 8.10197L8.99732 4.97001C9.152 4.78439 9.42788 4.75931 9.6135 4.914Z" fill="#BDBDBD" />
	<path fill-rule="evenodd" clip-rule="evenodd" d="M11.6667 2.04175H2.33341C2.17233 2.04175 2.04175 2.17233 2.04175 2.33342V11.6667C2.04175 11.8278 2.17233 11.9584 2.33342 11.9584H11.6667C11.8278 11.9584 11.9584 11.8278 11.9584 11.6667V2.33341C11.9584 2.17233 11.8278 2.04175 11.6667 2.04175ZM2.33341 1.16675C1.68908 1.16675 1.16675 1.68908 1.16675 2.33342V11.6667C1.16675 12.3111 1.68908 12.8334 2.33342 12.8334H11.6667C12.3111 12.8334 12.8334 12.3111 12.8334 11.6667V2.33341C12.8334 1.68908 12.3111 1.16675 11.6667 1.16675H2.33341Z" fill="#BDBDBD" />
</svg>
