<svg width="24" height="19" viewBox="0 0 24 19" fill="none" xmlns="http://www.w3.org/2000/svg">
	<path d="M2.66248 12.8054C3.81961 13.6254 5.21821 14.187 6.38745 14.4585C7.98331 14.8254 9.83871 15.0107 11.7185 15.0126C14.6586 15.0145 18.8768 14.5446 21.3239 12.8054C22.3764 13.3707 22.0745 14.7075 21.3984 15.1811C19.3417 16.5327 15.7418 17.3209 12.0103 17.2816H11.9902C8.25721 17.3228 4.63095 16.5664 2.60219 15.1811C1.59801 14.4977 1.66835 13.4157 2.66248 12.8054ZM12 4.55491C16.1355 4.55491 19.45 7.67198 19.7173 11.6279C18.2805 12.5883 15.0244 13.3109 11.7239 13.2978C9.96704 13.2922 8.23039 13.1181 6.82571 12.7961C5.576 12.5096 4.76501 12.0753 4.26998 11.6803C4.51348 7.6983 7.84437 4.55491 12 4.55491ZM10.3197 4.75343e-05C9.66366 4.75343e-05 9.13637 0.490525 9.13637 1.08213C9.13637 1.66999 9.43421 1.94705 9.80049 1.94705H11.1186V2.87936C6.52629 3.27812 2.87169 6.7715 2.39464 11.1371C2.129 11.1707 1.87946 11.2438 1.65809 11.3505C1.05838 11.6481 0.61167 12.1367 0.321833 12.7153C0.0300325 13.2937 -0.0947325 13.9921 0.0803445 14.6978C0.253412 15.4018 0.750484 16.0907 1.54334 16.5849C4.12323 18.2904 8.00106 19.043 11.9998 18.9981C15.9985 19.043 19.8743 18.2904 22.4543 16.5849C23.2472 16.0926 23.7442 15.4036 23.9214 14.6978C24.0944 13.9902 23.9676 13.2937 23.6799 12.7153C23.3861 12.1368 22.9433 11.6481 22.3396 11.3505C22.1222 11.2438 21.8727 11.1707 21.6071 11.1389C21.1301 6.77126 17.4756 3.27806 12.8851 2.87931V1.947H14.1993C14.5675 1.947 14.8634 1.66993 14.8634 1.08208C14.8634 0.492347 14.3361 0 13.6801 0L10.3197 4.75343e-05Z" fill="#CAD4E3" />
</svg>
