<svg width="19" height="15" viewBox="0 0 19 15" fill="none" xmlns="http://www.w3.org/2000/svg">
	<path d="M2.1078 10.1095C3.02386 10.7569 4.13108 11.2003 5.05673 11.4146C6.32012 11.7043 7.78898 11.8506 9.27713 11.8521C11.6047 11.8535 14.9442 11.4826 16.8814 10.1095C17.7147 10.5559 17.4757 11.6111 16.9404 11.9851C15.3122 13.0522 12.4622 13.6744 9.50819 13.6433H9.49226C6.53696 13.6759 3.66617 13.0788 2.06006 11.9851C1.26509 11.4456 1.32084 10.5913 2.10786 10.1095L2.1078 10.1095ZM9.50002 3.59598C12.7739 3.59598 15.3979 6.05683 15.6096 9.17989C14.472 9.9381 11.8943 10.5086 9.28141 10.4983C7.89057 10.4938 6.51572 10.3564 5.40369 10.1022C4.41433 9.87602 3.7723 9.53313 3.3804 9.22128C3.57317 6.0776 6.20984 3.59613 9.49973 3.59613L9.50002 3.59598ZM8.16975 3.7527e-05C7.65039 3.7527e-05 7.23296 0.387257 7.23296 0.85431C7.23296 1.31841 7.46875 1.53715 7.75872 1.53715H8.80223V2.27318C5.16665 2.58799 2.27342 5.34592 1.89576 8.79241C1.68546 8.81901 1.48791 8.87665 1.31266 8.9609C0.837883 9.19589 0.484239 9.58164 0.254784 10.0384C0.0237758 10.4951 -0.0749966 11.0464 0.0636061 11.6035C0.200618 12.1593 0.594133 12.7032 1.22181 13.0934C3.26423 14.4398 6.33417 15.034 9.49988 14.9985C12.6655 15.034 15.7338 14.4398 17.7763 13.0934C18.404 12.7047 18.7975 12.1608 18.9377 11.6035C19.0748 11.0449 18.9744 10.4951 18.7466 10.0384C18.514 9.58168 18.1635 9.1959 17.6855 8.9609C17.5134 8.87665 17.3159 8.81901 17.1056 8.79388C16.728 5.34573 13.8349 2.58794 10.2007 2.27314V1.53711H11.2411C11.5326 1.53711 11.7668 1.31837 11.7668 0.854273C11.7668 0.388695 11.3494 0 10.83 0L8.16975 3.7527e-05Z" fill="#3E4244" />
</svg>
