<svg width="26" height="14" viewBox="0 0 26 14" fill="none" xmlns="http://www.w3.org/2000/svg">
	<path d="M25.4148 6.59011L19.5348 1.15011C19.2214 0.875108 18.6866 0.850108 18.347 1.06511C18.0074 1.28011 17.9532 1.71135 18.2354 1.9701L22.9734 6.36018L1.23844 6.36018C0.774127 6.36018 0.398437 6.64643 0.398437 7.00018C0.398437 7.35393 0.77414 7.64018 1.23844 7.64018L22.9734 7.64018L18.2354 12.0303C17.9532 12.289 18.0107 12.7178 18.347 12.9353C18.7014 13.1653 19.2526 13.109 19.5348 12.8503L25.4148 7.41026C25.6773 7.09901 25.6428 6.86526 25.4148 6.59026L25.4148 6.59011Z" fill="#3E4244" />
</svg>
