<?xml version="1.0" encoding="UTF-8"?><svg id="a" xmlns="http://www.w3.org/2000/svg" viewBox="0 0 10 10"><defs><style>.b{fill:#bdc8da;}</style></defs><path class="b" d="M5,.65C2.6,.65,.65,2.6,.65,5s1.95,4.35,4.35,4.35,4.35-1.95,4.35-4.35S7.4,.65,5,.65Zm0,7.96c-2,0-3.62-1.62-3.62-3.62S3,1.38,5,1.38s3.62,1.62,3.62,3.62-1.62,3.62-3.62,3.62Z"/><path class="b" d="M5.02,2.61c1.18,0,2.14,.97,2.14,2.17s-.92,2.13-2.07,2.16v.49l-.98-.88,.98-.88v.53c.75-.04,1.34-.66,1.34-1.43s-.64-1.43-1.42-1.43-1.42,.64-1.42,1.43h-.73c0-1.19,.96-2.17,2.14-2.17h0Z"/></svg>