<svg width="41" height="41" viewBox="0 0 41 41" fill="none" xmlns="http://www.w3.org/2000/svg">
	<path d="M41 20.5C41 31.8218 31.8218 41 20.5 41C9.17816 41 0 31.8218 0 20.5C0 9.17816 9.17816 0 20.5 0C31.8218 0 41 9.17816 41 20.5ZM4.1 20.5C4.1 29.5575 11.4425 36.9 20.5 36.9C29.5575 36.9 36.9 29.5575 36.9 20.5C36.9 11.4425 29.5575 4.1 20.5 4.1C11.4425 4.1 4.1 11.4425 4.1 20.5Z" fill="#9C9C9C" />
	<path d="M20.5 0C24.8051 5.13376e-08 29.0009 1.35533 32.4925 3.8738C35.984 6.39227 38.5941 9.94604 39.9526 14.0312C41.3111 18.1163 41.349 22.5254 40.061 26.6333C38.773 30.7412 36.2244 34.3393 32.7766 36.9175L30.3213 33.634C33.0795 31.5715 35.1184 28.693 36.1488 25.4067C37.1792 22.1203 37.1489 18.593 36.0621 15.3249C34.9753 12.0568 32.8872 9.21382 30.094 7.19904C27.3007 5.18427 23.9441 4.1 20.5 4.1V0Z" fill="#3E4244" />
</svg>
