<svg width="14" height="14" viewBox="0 0 14 14" fill="none" xmlns="http://www.w3.org/2000/svg">
<path d="M2.15984 6.11997H4.79984C5.52859 6.11997 6.11984 5.52872 6.11984 4.79997V2.15997C6.11984 1.43122 5.52859 0.839966 4.79984 0.839966H2.15984C1.43109 0.839966 0.839844 1.43122 0.839844 2.15997V4.79997C0.839844 5.52872 1.43109 6.11997 2.15984 6.11997ZM2.59984 2.59997H4.35984V4.35997H2.59984V2.59997Z" fill="#1E55A9"/>
<path d="M0.839844 11.84C0.839844 12.5688 1.43109 13.16 2.15984 13.16H4.79984C5.52859 13.16 6.11984 12.5688 6.11984 11.84V9.20001C6.11984 8.47126 5.52859 7.88 4.79984 7.88H2.15984C1.43109 7.88 0.839844 8.47126 0.839844 9.20001V11.84ZM2.59984 9.64001H4.35984V11.4H2.59984V9.64001Z" fill="#1E55A9"/>
<path d="M11.8399 6.11997C12.5686 6.11997 13.1599 5.52872 13.1599 4.79997V2.15997C13.1599 1.43122 12.5686 0.839966 11.8399 0.839966H9.19988C8.47113 0.839966 7.87988 1.43122 7.87988 2.15997V4.79997C7.87988 5.52872 8.47113 6.11997 9.19988 6.11997H11.8399ZM9.63988 2.59997H11.3999V4.35997H9.63988V2.59997Z" fill="#1E55A9"/>
<path d="M9.63965 9.64001H11.3996V11.4H9.63965V9.64001Z" fill="#1E55A9"/>
<path d="M11.3999 7.88H13.1599V9.64001H11.3999V7.88Z" fill="#1E55A9"/>
<path d="M7.87988 7.88H9.63989V9.64001H7.87988V7.88Z" fill="#1E55A9"/>
<path d="M11.3999 11.4H13.1599V13.16H11.3999V11.4Z" fill="#1E55A9"/>
<path d="M7.87988 11.4H9.63989V13.16H7.87988V11.4Z" fill="#1E55A9"/>
</svg>
