<svg width="8" height="8" viewBox="0 0 8 8" fill="none" xmlns="http://www.w3.org/2000/svg">
	<path d="M4.00016 0.160034C3.60267 0.160034 3.28016 0.482546 3.28016 0.880034V3.28003H0.880156C0.482668 3.28003 0.160156 3.60255 0.160156 4.00003C0.160156 4.39752 0.482668 4.72003 0.880156 4.72003H3.28016V7.12003C3.28016 7.51752 3.60267 7.84003 4.00016 7.84003C4.39764 7.84003 4.72016 7.51752 4.72016 7.12003V4.72003H7.12016C7.51764 4.72003 7.84016 4.39752 7.84016 4.00003C7.84016 3.60255 7.51764 3.28003 7.12016 3.28003H4.72016V0.880034C4.72016 0.482546 4.39764 0.160034 4.00016 0.160034Z" fill="#3E4244" />
</svg>
