<svg width="21" height="21" viewBox="0 0 21 21" fill="none" xmlns="http://www.w3.org/2000/svg">
	<path d="M13.4736 15.5042C11.7993 16.8344 9.69214 17.462 7.58127 17.2591C5.47039 17.0562 3.51449 16.0381 2.11182 14.412C0.709159 12.786 -0.0348062 10.6744 0.0314135 8.50704C0.0976331 6.33971 0.969058 4.27968 2.46825 2.7464C3.96745 1.21312 5.98168 0.321887 8.10083 0.254162C10.22 0.186437 12.2847 0.947316 13.8746 2.38187C15.4644 3.81643 16.4599 5.81679 16.6583 7.97566C16.8567 10.1345 16.2431 12.2896 14.9425 14.002L19.7747 18.9256C20.1838 19.3424 20.1844 20.0194 19.7761 20.437C19.3677 20.8546 18.7054 20.8543 18.2975 20.4363L13.484 15.5042H13.4736ZM8.36919 15.1633C9.19 15.1633 10.0028 14.9979 10.7611 14.6767C11.5194 14.3554 12.2084 13.8846 12.7888 13.291C13.3692 12.6974 13.8296 11.9927 14.1437 11.2171C14.4579 10.4416 14.6195 9.61031 14.6195 8.77085C14.6195 7.93138 14.4579 7.10014 14.1437 6.32457C13.8296 5.54901 13.3692 4.84431 12.7888 4.25072C12.2084 3.65713 11.5194 3.18626 10.7611 2.86501C10.0028 2.54376 9.19 2.37842 8.36919 2.37842C6.7115 2.37842 5.12171 3.0519 3.94954 4.25072C2.77738 5.44953 2.11886 7.07547 2.11886 8.77085C2.11886 10.4662 2.77738 12.0922 3.94954 13.291C5.12171 14.4898 6.7115 15.1633 8.36919 15.1633Z" fill="#3E4244" />
</svg>
