<svg width="12" height="12" viewBox="0 0 12 12" fill="none" xmlns="http://www.w3.org/2000/svg">
	<path fill-rule="evenodd" clip-rule="evenodd" d="M8.22033 8.22029C8.37053 8.07009 8.61405 8.07009 8.76425 8.22029L10.8873 10.3434C11.0375 10.4936 11.0375 10.7371 10.8874 10.8873C10.7372 11.0376 10.4936 11.0375 10.3434 10.8873L8.22033 8.76422C8.07013 8.61402 8.07013 8.3705 8.22033 8.22029Z" fill="#3E4244" />
	<path fill-rule="evenodd" clip-rule="evenodd" d="M5.5385 1.76923C3.45678 1.76923 1.76922 3.45682 1.76922 5.53856C1.76922 7.62031 3.45678 9.3079 5.5385 9.3079C7.62022 9.3079 9.30779 7.62031 9.30779 5.53856C9.30779 3.45682 7.62022 1.76923 5.5385 1.76923ZM1 5.53856C1 3.03198 3.03196 1 5.5385 1C8.04505 1 10.077 3.03198 10.077 5.53856C10.077 8.04514 8.04505 10.0771 5.5385 10.0771C3.03196 10.0771 1 8.04514 1 5.53856Z" fill="#3E4244" />
</svg>
