<svg width="23" height="23" viewBox="0 0 23 23" fill="none" xmlns="http://www.w3.org/2000/svg">
	<path d="M22.1786 8.21429H20.5357V7.39286C20.5357 6.93901 20.1681 6.57143 19.7143 6.57143H18.4637C18.3774 6.32705 18.2778 6.08782 18.1669 5.85472L19.051 4.96963C19.3724 4.64823 19.3724 4.12972 19.051 3.80833L16.7274 1.48472C16.406 1.16333 15.8875 1.16333 15.5661 1.48472L14.681 2.36879C14.4479 2.2579 14.2087 2.1583 13.9643 2.07205V0.821429C13.9643 0.367579 13.5967 0 13.1429 0H9.85714C9.40329 0 9.03571 0.367579 9.03571 0.821429V2.07205C8.79134 2.1583 8.55211 2.2579 8.31901 2.36879L7.43392 1.48472C7.11252 1.16333 6.59401 1.16333 6.27261 1.48472L3.94901 3.80833C3.62761 4.12972 3.62761 4.64823 3.94901 4.96963L4.83308 5.85472C4.72218 6.0878 4.62258 6.32705 4.53634 6.57143H3.28571C2.83187 6.57143 2.46429 6.93901 2.46429 7.39286V8.21429H0.821429C0.367579 8.21429 0 8.58187 0 9.03571V22.1786C0 22.6324 0.367579 23 0.821429 23H22.1786C22.6324 23 23 22.6324 23 22.1786V9.03571C23 8.58187 22.6324 8.21429 22.1786 8.21429ZM5.93899 7.5982C6.0735 7.07659 6.27887 6.57963 6.55095 6.12066C6.74193 5.79823 6.68854 5.38752 6.42466 5.12261L5.69152 4.38845L6.85385 3.22612L7.58698 3.95926C7.85189 4.22519 8.26261 4.27653 8.58503 4.08555C9.04503 3.81344 9.54198 3.6081 10.0626 3.4736C10.425 3.38221 10.6787 3.05363 10.6787 2.6799V1.64285H12.3215V2.6799C12.3215 3.05468 12.5751 3.3812 12.9376 3.47462C13.4592 3.60913 13.9562 3.8145 14.4151 4.08658C14.7376 4.27654 15.1483 4.22417 15.4132 3.96028L16.1463 3.22715L17.3087 4.38948L16.5755 5.12261C16.3106 5.38752 16.2582 5.79823 16.4492 6.12066C16.7213 6.58066 16.9267 7.07761 17.0612 7.5982C17.1546 7.96065 17.4822 8.21429 17.8559 8.21429H16.3548C15.9615 5.88758 13.9377 4.10714 11.5 4.10714C9.06238 4.10714 7.03857 5.88758 6.64533 8.21429H5.14418C5.51794 8.21429 5.84651 7.96067 5.9389 7.5982H5.93899ZM14.6687 8.21429H8.33047C8.69805 6.80143 9.97333 5.75 11.4992 5.75C13.026 5.75 14.3023 6.80143 14.669 8.21429H14.6687ZM21.3571 9.85714V11.1601L19.3744 13.1429H13.8134C13.5649 12.4467 13.0177 11.8994 12.3215 11.6509V11.5C12.3215 11.0461 11.9539 10.6786 11.5001 10.6786C11.0462 10.6786 10.6786 11.0461 10.6786 11.5V11.6509C9.98247 11.8994 9.43518 12.4467 9.1867 13.1429H3.62569L1.64296 11.1601V9.85714H21.3571ZM1.64286 21.3571V13.4827L2.70456 14.5444C2.85858 14.6995 3.06804 14.7857 3.28571 14.7857H9.18659C9.52647 15.7396 10.43 16.4286 11.4999 16.4286C11.9528 16.4286 12.3214 16.7972 12.3214 17.25C12.3214 17.7028 11.9528 18.0714 11.4999 18.0714C11.0471 18.0714 10.6785 17.7028 10.6785 17.25C10.6785 16.7962 10.3109 16.4286 9.85709 16.4286C9.40324 16.4286 9.03566 16.7962 9.03566 17.25C9.03566 18.3199 9.72464 19.2235 10.6785 19.5634V19.7143C10.6785 20.1682 11.0461 20.5357 11.4999 20.5357C11.9538 20.5357 12.3214 20.1682 12.3214 19.7143V19.5634C13.2753 19.2235 13.9642 18.3199 13.9642 17.25C13.9642 15.8916 12.8584 14.7857 11.4999 14.7857C11.0471 14.7857 10.6785 14.4171 10.6785 13.9643C10.6785 13.5115 11.0471 13.1429 11.4999 13.1429C11.9528 13.1429 12.3214 13.5115 12.3214 13.9643C12.3214 14.4182 12.689 14.7857 13.1428 14.7857H19.7142C19.9319 14.7857 20.1414 14.6995 20.2954 14.5455L21.3571 13.4827V21.3571L1.64286 21.3571Z" fill="url(#paint0_linear_1519_9139)" />
	<defs>
		<linearGradient id="paint0_linear_1519_9139" x1="-0.285849" y1="11.4538" x2="22.9968" y2="11.4538" gradientUnits="userSpaceOnUse">
			<stop stop-color="#1E55A9" />
			<stop offset="0.98" stop-color="#2BBFC7" />
		</linearGradient>
	</defs>
</svg>
