<svg width="21" height="23" viewBox="0 0 21 23" fill="none" xmlns="http://www.w3.org/2000/svg">
	<path d="M10.499 0C13.4066 0 15.8301 2.42347 15.8301 5.33106C15.8301 8.23864 13.4066 10.6621 10.499 10.6621C7.59144 10.6621 5.16797 8.23864 5.16797 5.33106C5.16797 2.42347 7.59144 0 10.499 0ZM10.499 2.09982C8.72199 2.09982 7.43 3.55408 7.43 5.16885C7.43 6.94589 8.88426 8.23788 10.499 8.23788C12.2761 8.23788 13.5681 6.78362 13.5681 5.16885C13.5681 3.39181 12.1138 2.09982 10.499 2.09982Z" fill="#CAD4E3" />
	<path d="M20.9998 20.9998C20.9998 22.7768 18.9 22.9382 18.9 21.3226C18.7386 16.7992 15.0231 13.4075 10.4999 13.4075C5.97675 13.4075 2.26127 16.8001 2.09982 21.3226C2.09982 22.9382 0 22.7768 0 20.9998C0.322778 15.5073 5.0075 11.1453 10.5 11.3077C15.9925 11.3077 20.6771 15.5073 21 20.9998H20.9998Z" fill="#CAD4E3" />
</svg>
