<svg width="25" height="25" viewBox="0 0 25 25" fill="none" xmlns="http://www.w3.org/2000/svg">
	<path d="M12.5 7.29195C11.1192 7.29195 9.79401 7.84077 8.81751 8.81735C7.84101 9.79392 7.29211 11.1191 7.29211 12.4998C7.29211 13.8806 7.84094 15.2058 8.81751 16.1823C9.79409 17.1588 11.1193 17.7077 12.5 17.7077C13.8808 17.7077 15.206 17.1589 16.1825 16.1823C17.159 15.2058 17.7079 13.8806 17.7079 12.4998C17.7069 11.119 17.1571 9.79485 16.1806 8.8191C15.205 7.84255 13.8808 7.29272 12.4998 7.29175L12.5 7.29195ZM12.5 15.6249C11.2363 15.6249 10.0967 14.8632 9.61326 13.6962C9.12889 12.5283 9.39647 11.1835 10.29 10.29C11.1836 9.39645 12.5283 9.12887 13.6963 9.61325C14.8633 10.0966 15.625 11.2363 15.625 12.5C15.623 14.2256 14.2255 15.623 12.5 15.625L12.5 15.6249Z" fill="#3E4244" />
	<path d="M23.7745 10.4979C23.6163 9.62782 22.9269 8.95107 22.0538 8.8085C21.4513 8.70693 20.9239 8.34169 20.6183 7.81142C20.3126 7.28114 20.2599 6.64247 20.4747 6.06922C20.7823 5.23035 20.5323 4.28797 19.8487 3.71277C18.8321 2.86317 17.6759 2.19812 16.4307 1.74597C15.5928 1.43445 14.6495 1.68933 14.0811 2.37877C13.6798 2.83092 13.1046 3.08972 12.5001 3.08972C11.8966 3.08972 11.3204 2.83192 10.919 2.37977C10.3517 1.68837 9.4073 1.43347 8.56845 1.74597C7.32333 2.19812 6.16708 2.86415 5.15045 3.71375C4.46783 4.28895 4.21783 5.23035 4.52545 6.06922C4.7403 6.6415 4.68756 7.28114 4.3819 7.81142C4.07623 8.34169 3.54987 8.70692 2.94635 8.8085C2.0733 8.95107 1.38385 9.62782 1.22565 10.4989C0.98053 11.8222 0.98053 13.1787 1.22565 14.5019C1.38385 15.372 2.0733 16.0488 2.94635 16.1914C3.54987 16.2929 4.07622 16.6591 4.3819 17.1884C4.68757 17.7187 4.7403 18.3574 4.52545 18.9306C4.21783 19.7695 4.46784 20.7119 5.15143 21.2871C6.16803 22.1367 7.32428 22.8017 8.56943 23.2549C8.80478 23.3408 9.05283 23.3848 9.30283 23.3848C9.9288 23.3838 10.5216 23.1035 10.919 22.6211C11.3204 22.1689 11.8956 21.9101 12.5001 21.9101C13.1046 21.9101 13.6798 22.1679 14.0811 22.6201C14.6485 23.3115 15.5929 23.5664 16.4317 23.2549C17.6759 22.8017 18.8321 22.1367 19.8487 21.2871C20.5333 20.7119 20.7833 19.7695 20.4747 18.9306C20.2598 18.3584 20.3126 17.7187 20.6182 17.1884C20.9239 16.6591 21.4503 16.2929 22.0538 16.1914C22.9278 16.0488 23.6163 15.372 23.7745 14.5009C24.0196 13.1787 24.0196 11.8212 23.7745 10.4979L23.7745 10.4979ZM21.6964 14.1384C20.4854 14.3465 19.4298 15.0818 18.8146 16.1453C18.1994 17.2244 18.0891 18.5193 18.5129 19.6873C17.676 20.3904 16.715 20.9324 15.6789 21.283C14.8937 20.3386 13.7287 19.7918 12.5001 19.7918C11.2589 19.7986 10.0831 20.3484 9.28338 21.2966C8.25506 20.9275 7.30486 20.3679 6.48163 19.6492C6.90936 18.491 6.79803 17.2019 6.17793 16.1337C5.55781 15.0663 4.49433 14.331 3.27568 14.1288C3.17705 13.5907 3.12627 13.0458 3.12529 12.4999C3.12236 11.9491 3.18291 11.3993 3.304 10.8612C4.51495 10.6532 5.5706 9.9179 6.18575 8.85442C6.80098 7.77532 6.91133 6.4804 6.4875 5.31242C7.32443 4.6093 8.28535 4.0673 9.3215 3.71672C10.1067 4.66105 11.2717 5.20792 12.5003 5.20792C13.7415 5.20108 14.9173 4.65127 15.717 3.70305C16.7453 4.07317 17.6965 4.63175 18.5198 5.3505C18.0911 6.5087 18.2024 7.79777 18.8225 8.86599C19.4416 9.93337 20.5061 10.6687 21.7247 10.8709C21.8234 11.4089 21.8741 11.9539 21.8751 12.4998C21.8781 13.0505 21.8175 13.6003 21.6964 14.1384H21.6964Z" fill="#3E4244" />
</svg>
