<svg width="286" height="188" viewBox="0 0 286 188" fill="none" xmlns="http://www.w3.org/2000/svg">
	<g clip-path="url(#clip0_95_41411)">
		<path d="M161.43 76.9331C161.419 74.9386 162.095 73.0012 163.343 71.4475C164.591 69.8938 166.336 68.8189 168.283 68.4039C181.576 65.568 231.986 54.9236 244.9 87.4965C267.855 145.388 245.832 171.807 245.832 171.807L240.592 172.033L160.996 159.363L161.43 76.9331Z" fill="#4ACBD3" />
		<path d="M80.0834 17.8322L80.9428 29.1061L69.6758 22.7406L80.0834 17.8322Z" fill="#3E4244" />
		<path d="M280.095 151.548C279.237 151.548 278.397 151.299 277.684 150.832C276.97 150.365 276.413 149.702 276.085 148.925C275.756 148.149 275.671 147.295 275.838 146.471C276.006 145.647 276.419 144.89 277.026 144.296C277.633 143.702 278.407 143.298 279.249 143.134C280.091 142.97 280.964 143.054 281.757 143.376C282.55 143.698 283.228 144.242 283.704 144.941C284.181 145.64 284.436 146.461 284.435 147.301C284.434 148.427 283.976 149.507 283.162 150.303C282.349 151.099 281.246 151.547 280.095 151.548ZM280.095 144.189C279.466 144.189 278.851 144.371 278.328 144.713C277.805 145.055 277.397 145.541 277.157 146.11C276.916 146.679 276.853 147.305 276.976 147.908C277.098 148.512 277.401 149.067 277.846 149.502C278.291 149.937 278.858 150.234 279.475 150.354C280.091 150.474 280.731 150.412 281.312 150.177C281.893 149.941 282.39 149.542 282.739 149.03C283.089 148.519 283.275 147.917 283.275 147.301C283.274 146.476 282.938 145.686 282.342 145.102C281.746 144.519 280.938 144.19 280.095 144.189Z" fill="#3E4244" />
		<path d="M162.622 63.9432C164.814 63.9432 166.27 61.1755 164.75 59.0944C163.231 57.0133 162.031 58.0624 160.86 58.8385C160.071 57.602 159.166 56.4439 158.157 55.3799C157.093 54.3036 155.744 53.5549 154.268 53.2224C152.793 52.8899 151.253 52.9875 149.832 53.5035L148.597 53.93C146.688 54.6 145.112 55.9858 144.201 57.7961C143.291 59.6063 143.116 61.6998 143.715 63.6362C143.715 63.6362 143.907 64.3015 144.196 65.2951L143.034 68.1865C142.938 68.4251 142.892 68.6814 142.901 68.9388C142.91 69.1961 142.973 69.4486 143.086 69.6799C143.199 69.9112 143.359 70.1161 143.556 70.2813C143.753 70.4465 143.983 70.5682 144.23 70.6386L145.992 71.1376C146.256 72.0012 146.577 72.8461 146.954 73.6665C148.951 77.3255 151.504 78.0505 153.679 77.6581C154.813 77.4334 155.864 76.9009 156.717 76.1188C157.569 75.3367 158.191 74.335 158.515 73.223L164.282 79.9056C164.282 79.9056 171.872 76.4129 172.757 67.5383L162.622 63.9432Z" fill="white" />
		<path d="M162.622 63.9432C164.814 63.9432 166.27 61.1755 164.75 59.0944C163.231 57.0133 162.031 58.0624 160.86 58.8385C160.071 57.602 159.166 56.4439 158.157 55.3799C157.093 54.3036 155.744 53.5549 154.268 53.2224C152.793 52.8899 151.253 52.9875 149.832 53.5035L148.597 53.93C146.688 54.6 145.112 55.9858 144.201 57.7961C143.291 59.6063 143.116 61.6998 143.715 63.6362C143.715 63.6362 143.907 64.3015 144.196 65.2951L143.034 68.1865C142.938 68.4251 142.892 68.6814 142.901 68.9388C142.91 69.1961 142.973 69.4486 143.086 69.6799C143.199 69.9112 143.359 70.1161 143.556 70.2813C143.753 70.4465 143.983 70.5682 144.23 70.6386L145.992 71.1376C146.256 72.0012 146.577 72.8461 146.954 73.6665C148.951 77.3255 151.504 78.0505 153.679 77.6581C154.813 77.4334 155.864 76.9009 156.717 76.1188C157.569 75.3367 158.191 74.335 158.515 73.223L164.282 79.9056C164.282 79.9056 171.872 76.4129 172.757 67.5383L162.622 63.9432Z" fill="#5D8E92" fill-opacity="0.08" />
		<path d="M164.282 80.3107C164.221 80.3112 164.16 80.2985 164.105 80.2735C164.049 80.2485 163.999 80.2117 163.959 80.1657L158.668 74.0332C158.25 75.0626 157.581 75.9706 156.722 76.6739C155.863 77.3772 154.842 77.8534 153.752 78.059C151.73 78.4257 148.836 77.995 146.58 73.8541C146.219 73.0814 145.912 72.2849 145.66 71.4702L144.115 71.0437C143.81 70.9584 143.526 70.8093 143.282 70.6063C143.039 70.4033 142.84 70.151 142.701 69.8658C142.562 69.5807 142.484 69.2692 142.473 68.9518C142.462 68.6345 142.518 68.3184 142.638 68.0244L143.745 65.2695L143.319 63.7513C142.693 61.7192 142.874 59.5231 143.826 57.6221C144.778 55.721 146.427 54.2622 148.427 53.5504L149.666 53.1239C151.164 52.5829 152.786 52.4825 154.339 52.8346C155.893 53.1867 157.314 53.9767 158.434 55.1112C159.37 56.0839 160.214 57.1418 160.954 58.2713C162.009 57.5506 163.435 56.6635 165.065 58.8641C165.469 59.3888 165.716 60.0174 165.778 60.6771C165.84 61.3368 165.714 62.0005 165.414 62.5913C165.117 63.1968 164.641 63.6967 164.052 64.0242L172.893 67.1544C172.983 67.1865 173.06 67.2482 173.111 67.3294C173.162 67.4107 173.184 67.5068 173.174 67.6022C172.276 76.5962 164.533 80.2638 164.457 80.2979C164.4 80.3135 164.341 80.3179 164.282 80.3107ZM158.515 72.7751C158.575 72.7757 158.635 72.7894 158.69 72.8151C158.746 72.8409 158.794 72.8781 158.834 72.9244L164.367 79.3554C165.708 78.6262 171.391 75.1377 172.276 67.8197L162.465 64.3441C162.371 64.31 162.292 64.244 162.242 64.1577C162.192 64.0714 162.174 63.9701 162.19 63.8716C162.207 63.7732 162.258 63.6837 162.333 63.6188C162.409 63.554 162.505 63.5178 162.605 63.5167C163.035 63.5064 163.454 63.376 163.814 63.1402C164.175 62.9044 164.462 62.5725 164.644 62.1819C164.87 61.7322 164.964 61.2277 164.916 60.7267C164.867 60.2257 164.679 59.7485 164.372 59.3502C163.184 57.7467 162.409 58.2756 161.337 59.0048L161.128 59.1498C161.1 59.1773 161.068 59.2016 161.035 59.2223C160.685 59.4185 160.468 59.0816 160.396 58.9707C159.643 57.7919 158.778 56.6893 157.812 55.6784C156.805 54.6613 155.529 53.9539 154.134 53.6396C152.739 53.3253 151.283 53.4171 149.938 53.9043L148.699 54.3308C146.901 54.9654 145.419 56.2731 144.562 57.9795C143.706 59.6858 143.543 61.6582 144.107 63.4826C144.107 63.4826 144.298 64.1564 144.588 65.1458C144.618 65.2356 144.618 65.3332 144.588 65.423L143.421 68.3187C143.348 68.5022 143.314 68.6992 143.321 68.8968C143.329 69.0943 143.377 69.2882 143.464 69.4658C143.55 69.6437 143.674 69.8011 143.826 69.9276C143.977 70.0541 144.155 70.1467 144.345 70.1993L146.107 70.6983C146.174 70.7178 146.234 70.7532 146.284 70.8015C146.334 70.8498 146.371 70.9095 146.392 70.9755C146.643 71.8159 146.954 72.6369 147.324 73.4319C148.916 76.3531 151.087 77.6624 153.598 77.2061C154.653 76.9924 155.629 76.4947 156.421 75.7665C157.214 75.0384 157.794 74.1073 158.098 73.0737C158.116 73.0093 158.15 72.9502 158.196 72.9013C158.242 72.8524 158.298 72.815 158.361 72.7922C158.411 72.7772 158.463 72.7714 158.515 72.7751Z" fill="#3E4244" />
		<path d="M118.227 125.549C116.329 125.549 114.188 124.816 111.953 123.374C108.548 121.17 105.249 117.523 102.708 113.114C100.167 108.704 98.6562 104.03 98.4519 99.9577C98.2433 95.6931 99.5032 92.5373 101.998 91.0916C104.492 89.6459 107.846 90.132 111.438 92.4477C114.844 94.6568 118.142 98.2987 120.683 102.713C123.224 107.126 124.731 111.792 124.94 115.865C125.148 120.129 123.889 123.289 121.39 124.731C120.427 125.28 119.335 125.563 118.227 125.549ZM105.186 91.9829C104.371 91.9673 103.567 92.1705 102.857 92.5714C100.946 93.6759 99.9842 96.273 100.163 99.8766C100.346 103.681 101.776 108.082 104.181 112.244C106.586 116.406 109.68 119.86 112.877 121.925C115.903 123.878 118.628 124.347 120.539 123.238C122.45 122.129 123.412 119.536 123.237 115.933C123.054 112.125 121.624 107.728 119.215 103.565C116.806 99.4033 113.72 95.9447 110.523 93.8806C108.574 92.6354 106.748 91.9829 105.186 91.9829Z" fill="#3E4244" />
		<path d="M67.2648 171.684C67.2648 171.684 76.6291 172.537 86.6147 172.537L85.9294 155.751L72.9387 156.152L67.2648 171.684Z" fill="white" />
		<path d="M67.2648 171.684C67.2648 171.684 76.6291 172.537 86.6147 172.537L85.9294 155.751L72.9387 156.152L67.2648 171.684Z" fill="#5D8E92" fill-opacity="0.08" />
		<path d="M73.309 156.796C71.8491 147.098 67.5458 144.028 67.5458 144.028V172.046H73.3005L73.309 156.796Z" fill="#4ACBD3" />
		<path d="M67.5458 144.028H65.3877V170.524C65.3894 170.725 65.4307 170.924 65.5093 171.11C65.5879 171.295 65.7022 171.463 65.8458 171.604C65.9893 171.745 66.1592 171.856 66.3457 171.932C66.5322 172.007 66.7318 172.044 66.9328 172.042H67.55L67.5458 144.028Z" fill="#3E4244" />
		<path d="M181.981 149.056L76.778 148.732L77.4249 171.654L181.981 171.978V149.056Z" fill="white" />
		<path d="M181.981 149.056L76.778 148.732L77.4249 171.654L181.981 171.978V149.056Z" fill="#5D8E92" fill-opacity="0.08" />
		<path d="M181.985 172.404L77.4165 172.08C77.3036 172.08 77.1954 172.035 77.1156 171.955C77.0358 171.875 76.9909 171.767 76.9909 171.654L76.3439 148.727C76.3424 148.671 76.3522 148.615 76.3727 148.562C76.3931 148.509 76.4239 148.461 76.4631 148.42C76.503 148.38 76.5507 148.347 76.6034 148.325C76.656 148.303 76.7125 148.292 76.7695 148.292L181.972 148.617C182.085 148.617 182.193 148.661 182.273 148.741C182.353 148.821 182.398 148.93 182.398 149.043V171.965C182.398 172.022 182.386 172.077 182.364 172.129C182.342 172.181 182.31 172.228 182.27 172.268C182.196 172.348 182.094 172.397 181.985 172.404ZM77.8422 171.232L181.559 171.551V149.478L77.2165 149.158L77.8422 171.232Z" fill="#3E4244" />
		<path d="M134.027 170.285C134.027 170.285 134.879 160.903 134.879 150.902L118.108 151.606L118.504 164.622L134.027 170.285Z" fill="white" />
		<path d="M134.027 170.285C134.027 170.285 134.879 160.903 134.879 150.902L118.108 151.606L118.504 164.622L134.027 170.285Z" fill="#5D8E92" fill-opacity="0.08" />
		<path d="M226.656 151.973L140.587 85.0785C140.425 84.9292 140.259 84.7842 140.093 84.652C130.031 76.1655 111.745 83.8503 112.047 97.0193L112.443 160.344C112.443 160.694 137.373 161.38 137.381 161.014C137.428 159.457 137.479 158.003 137.535 156.643C154.331 169.091 188.621 185.488 226.656 151.973Z" fill="white" />
		<path d="M226.656 151.973L140.587 85.0785C140.425 84.9292 140.259 84.7842 140.093 84.652C130.031 76.1655 111.745 83.8503 112.047 97.0193L112.443 160.344C112.443 160.694 137.373 161.38 137.381 161.014C137.428 159.457 137.479 158.003 137.535 156.643C154.331 169.091 188.621 185.488 226.656 151.973Z" fill="#5D8E92" fill-opacity="0.08" />
		<path d="M179.763 172.259C162.18 172.259 147.503 164.425 137.926 157.461C137.884 158.587 137.845 159.773 137.807 161.026C137.807 161.517 137.718 161.551 134.457 161.542C131.333 161.542 125.91 161.419 120.969 161.257C112.03 160.954 112.03 160.877 112.03 160.357L111.634 97.0193C111.498 91.0873 115.201 85.5774 121.305 82.6476C127.919 79.4705 135.406 80.123 140.378 84.3194C140.553 84.4644 140.719 84.6136 140.889 84.7458L226.929 151.619C226.979 151.657 227.019 151.706 227.048 151.762C227.077 151.818 227.093 151.88 227.095 151.943C227.097 152.006 227.085 152.068 227.06 152.125C227.035 152.183 226.997 152.234 226.95 152.276C210.09 167.138 193.975 172.259 179.763 172.259ZM137.535 156.216C137.625 156.217 137.713 156.247 137.786 156.301C154.629 168.784 188.438 184.767 225.984 151.994L140.327 85.4154C140.144 85.249 139.982 85.1083 139.816 84.9889C135.1 81.01 127.975 80.4002 121.658 83.4323C115.865 86.2171 112.345 91.4242 112.473 97.0278L112.869 160.024C115.486 160.344 134.317 160.852 136.969 160.673C137.011 159.244 137.058 157.905 137.109 156.642C137.112 156.565 137.137 156.49 137.18 156.425C137.222 156.361 137.282 156.309 137.352 156.276C137.407 156.241 137.47 156.22 137.535 156.216Z" fill="#3E4244" />
		<path d="M119.181 164.229C109.502 165.692 106.437 170.003 106.437 170.003H134.402V164.221L119.181 164.229Z" fill="#4ACBD3" />
		<path d="M106.437 170.003V172.166H132.878C133.079 172.164 133.278 172.123 133.464 172.044C133.649 171.965 133.817 171.851 133.958 171.707C134.099 171.563 134.211 171.393 134.286 171.206C134.361 171.019 134.399 170.819 134.398 170.618V170.003H106.437Z" fill="#3E4244" />
		<path d="M163.793 62.9965C163.751 62.9955 163.709 62.9883 163.669 62.9751C163.562 62.9426 163.471 62.8687 163.418 62.7696C163.365 62.6706 163.352 62.5543 163.384 62.4463C163.572 61.9271 163.551 61.3551 163.327 60.8508C163.102 60.3465 162.691 59.9492 162.18 59.7426C162.075 59.6996 161.992 59.6168 161.949 59.5124C161.905 59.4081 161.905 59.2907 161.948 59.186C161.991 59.0814 162.073 58.9982 162.177 58.9546C162.282 58.911 162.399 58.9106 162.503 58.9536C163.21 59.2398 163.781 59.7866 164.098 60.4816C164.414 61.1765 164.453 61.9667 164.206 62.6894C164.18 62.7787 164.125 62.857 164.051 62.9124C163.976 62.9679 163.886 62.9974 163.793 62.9965Z" fill="#3E4244" />
		<path d="M161.801 62.0454C161.714 62.0453 161.63 62.0188 161.559 61.9695C161.488 61.9202 161.434 61.8505 161.403 61.7695C161.373 61.6885 161.367 61.6001 161.388 61.5161C161.409 61.432 161.455 61.3564 161.52 61.2991L163.031 59.9771C163.073 59.9384 163.122 59.9085 163.176 59.8891C163.229 59.8698 163.286 59.8615 163.343 59.8647C163.4 59.8678 163.456 59.8824 163.507 59.9076C163.558 59.9327 163.604 59.9679 163.641 60.011C163.679 60.0541 163.707 60.1044 163.724 60.1587C163.742 60.213 163.749 60.2703 163.744 60.3272C163.739 60.3841 163.723 60.4394 163.696 60.4899C163.669 60.5404 163.633 60.585 163.589 60.6211L162.077 61.9431C162 62.0091 161.902 62.0454 161.801 62.0454Z" fill="#3E4244" />
		<path d="M145.541 65.9646C145.809 66.4465 146.295 66.6939 146.622 66.5105C146.95 66.3271 147.001 65.7855 146.733 65.2993C146.465 64.8132 145.98 64.5701 145.648 64.7535C145.316 64.9369 145.273 65.4785 145.541 65.9646Z" fill="#3E4244" />
		<path d="M143.86 64.246C143.946 64.2235 144.027 64.1844 144.098 64.1309C144.62 63.7739 145.178 63.4724 145.762 63.231C145.849 63.2023 145.929 63.1558 145.997 63.0946C146.066 63.0334 146.12 62.9588 146.158 62.8754C146.196 62.792 146.217 62.7016 146.218 62.6099C146.219 62.5183 146.202 62.4273 146.167 62.3427C146.131 62.2581 146.079 62.1818 146.013 62.1184C145.947 62.0551 145.868 62.0061 145.782 61.9746C145.696 61.9431 145.605 61.9297 145.514 61.9353C145.422 61.9409 145.333 61.9653 145.252 62.0071C144.567 62.2889 143.915 62.6435 143.306 63.0647C143.183 63.1561 143.095 63.2875 143.057 63.4367C143.019 63.5858 143.034 63.7435 143.099 63.8828C143.165 64.0221 143.276 64.1344 143.415 64.2007C143.553 64.2669 143.711 64.2829 143.86 64.246Z" fill="#3E4244" />
		<path d="M148.074 72.2933C147.779 72.2947 147.49 72.2087 147.244 72.0459C147.151 71.982 147.087 71.8837 147.066 71.7725C147.045 71.6613 147.069 71.5465 147.133 71.4532C147.164 71.4066 147.204 71.3667 147.251 71.3357C147.298 71.3048 147.35 71.2833 147.405 71.2726C147.46 71.2619 147.517 71.2622 147.571 71.2734C147.626 71.2846 147.678 71.3066 147.725 71.338C147.827 71.398 147.943 71.4323 148.061 71.4383C148.18 71.4442 148.298 71.4215 148.406 71.3721C148.518 71.3314 148.618 71.2639 148.698 71.1755C148.779 71.0871 148.836 70.9804 148.865 70.8647C148.887 70.7516 148.952 70.6516 149.047 70.5868C149.142 70.5221 149.259 70.4977 149.372 70.5192C149.485 70.5407 149.585 70.6062 149.649 70.7014C149.714 70.7966 149.738 70.9136 149.717 71.0267C149.661 71.2814 149.543 71.5183 149.374 71.7163C149.205 71.9142 148.989 72.067 148.746 72.1611C148.533 72.2495 148.304 72.2944 148.074 72.2933Z" fill="#3E4244" />
		<path d="M137.535 157.069C137.485 157.069 137.436 157.06 137.39 157.043C137.284 157.005 137.197 156.926 137.15 156.823C137.102 156.721 137.096 156.604 137.135 156.498C141.881 143.218 143.094 129.818 140.714 116.666C139.974 112.555 138.888 108.436 137.837 104.453C136.956 101.105 136.045 97.6505 135.338 94.2175C135.315 94.1044 135.338 93.9867 135.401 93.8904C135.465 93.794 135.564 93.7268 135.677 93.7036C135.79 93.6804 135.907 93.7031 136.003 93.7667C136.099 93.8303 136.167 93.9296 136.19 94.0427C136.892 97.4543 137.799 100.917 138.675 104.252C139.731 108.252 140.804 112.385 141.57 116.534C143.966 129.831 142.749 143.38 137.952 156.805C137.918 156.887 137.86 156.956 137.786 157.004C137.711 157.051 137.623 157.074 137.535 157.069Z" fill="#3E4244" />
		<path d="M162.588 57.8363L161.452 54.0366C160.949 52.3482 159.852 50.8996 158.366 49.9588C156.879 49.0179 155.102 48.6486 153.364 48.9191C149.58 49.5471 145.915 50.7554 142.498 52.5013C138.526 54.4502 140.025 63.2609 145.703 60.8215C151.381 58.3822 157.255 55.2776 159.553 62.3013C159.566 62.2928 159.749 58.7489 162.588 57.8363Z" fill="#4ACBD3" />
		<path d="M26.7135 172.997C24.4188 173.005 22.2106 172.12 20.5538 170.529C18.897 168.938 17.9207 166.765 17.8304 164.468C17.4047 154.433 17.2047 140.987 18.6221 133.895C21.0738 121.605 34.7966 111.327 59.4245 103.357C76.0885 97.9618 92.361 95.5139 95.0851 95.1259C111.26 69.5128 130.942 53.8617 153.539 48.6035C172.523 44.1854 190.013 47.9937 201.514 51.2433C240.835 62.3525 251.906 95.7869 254.272 121.882C257.137 153.495 252.144 162.054 248.13 168.933C247.279 170.396 245.866 172.345 243.448 172.345L26.7945 172.997H26.7135ZM171.953 48.2837C149.951 48.2837 121.037 57.0772 96.3152 96.3925C96.2487 96.4986 96.1598 96.5888 96.0546 96.6567C95.9493 96.7245 95.8305 96.7682 95.7065 96.7848C95.0085 96.8786 25.8623 106.325 20.2906 134.249C18.8349 141.542 19.1924 156.28 19.5329 164.417C19.6057 166.275 20.3954 168.032 21.7356 169.318C23.0758 170.605 24.8619 171.32 26.7178 171.313H26.7774L243.431 170.66C244.619 170.66 245.611 169.867 246.645 168.101C250.535 161.436 255.375 153.137 252.561 122.065C250.242 96.5033 239.422 63.7598 201.033 52.915C195.095 51.2006 184.679 48.2837 171.953 48.2837Z" fill="#3E4244" />
		<path d="M59.7714 172.502C61.4027 162.433 54.5782 152.945 44.5286 151.311C34.4789 149.677 25.0096 156.514 23.3783 166.583C21.747 176.652 28.5714 186.139 38.6211 187.774C48.6708 189.408 58.1401 182.57 59.7714 172.502Z" fill="#3E4244" />
		<path d="M240.252 173.748C242.591 163.82 236.454 153.872 226.545 151.529C216.636 149.186 206.707 155.334 204.368 165.262C202.03 175.19 208.167 185.138 218.076 187.481C227.985 189.824 237.913 183.676 240.252 173.748Z" fill="#3E4244" />
		<path d="M158.515 73.2059C159.632 70.9514 160.531 68.5952 161.201 66.1693L161.413 76.528L158.515 73.2059Z" fill="white" />
		<path d="M158.515 73.2059C159.632 70.9514 160.531 68.5952 161.201 66.1693L161.413 76.528L158.515 73.2059Z" fill="#5D8E92" fill-opacity="0.08" />
		<path d="M218.918 84.5753C218.236 81.8945 216.982 79.3939 215.242 77.2459C213.502 75.0978 211.318 73.3535 208.84 72.1332C206.362 70.9129 203.649 70.2458 200.889 70.1777C198.129 70.1096 195.386 70.6422 192.852 71.7389L158.144 95.0192L108.271 108.286L102.312 105.485C101.991 105.338 101.624 105.323 101.292 105.443C100.959 105.562 100.686 105.807 100.531 106.126C100.375 106.444 100.35 106.81 100.46 107.147C100.57 107.484 100.807 107.764 101.121 107.928L103.015 108.888C103.015 108.888 94.5018 108.888 93.3483 112.649C93.0844 113.502 95.2722 115.792 95.8384 116.837C98.5284 121.797 110.31 116.717 110.31 116.717V116.688L155.539 120.048C160.134 120.39 164.746 119.676 169.024 117.963L206.694 102.87C208.745 102.576 210.712 101.853 212.467 100.748C214.221 99.6422 215.724 98.179 216.877 96.4534C218.03 94.7279 218.808 92.7785 219.159 90.732C219.511 88.6855 219.429 86.5878 218.918 84.5753Z" fill="white" />
		<path d="M218.918 84.5753C218.236 81.8945 216.982 79.3939 215.242 77.2459C213.502 75.0978 211.318 73.3535 208.84 72.1332C206.362 70.9129 203.649 70.2458 200.889 70.1777C198.129 70.1096 195.386 70.6422 192.852 71.7389L158.144 95.0192L108.271 108.286L102.312 105.485C101.991 105.338 101.624 105.323 101.292 105.443C100.959 105.562 100.686 105.807 100.531 106.126C100.375 106.444 100.35 106.81 100.46 107.147C100.57 107.484 100.807 107.764 101.121 107.928L103.015 108.888C103.015 108.888 94.5018 108.888 93.3483 112.649C93.0844 113.502 95.2722 115.792 95.8384 116.837C98.5284 121.797 110.31 116.717 110.31 116.717V116.688L155.539 120.048C160.134 120.39 164.746 119.676 169.024 117.963L206.694 102.87C208.745 102.576 210.712 101.853 212.467 100.748C214.221 99.6422 215.724 98.179 216.877 96.4534C218.03 94.7279 218.808 92.7785 219.159 90.732C219.511 88.6855 219.429 86.5878 218.918 84.5753Z" fill="#5D8E92" fill-opacity="0.08" />
		<path d="M157.783 120.551C157.034 120.551 156.284 120.521 155.535 120.466L110.481 117.114C109.629 117.481 98.2773 122.185 95.4808 117.033C95.2032 116.587 94.8976 116.16 94.5657 115.754C93.4506 114.282 92.7355 113.263 92.9568 112.53C93.8549 109.544 98.7711 108.751 101.393 108.538L100.967 108.312C100.556 108.096 100.244 107.729 100.099 107.287C99.954 106.845 99.9866 106.364 100.19 105.945C100.394 105.527 100.752 105.205 101.189 105.047C101.626 104.889 102.107 104.909 102.53 105.101L108.331 107.839L157.987 94.6183L192.639 71.3806C192.659 71.3638 192.682 71.3508 192.707 71.3422C195.299 70.2224 198.102 69.6791 200.924 69.7498C203.746 69.8204 206.519 70.5034 209.052 71.7516C211.585 72.9997 213.817 74.7834 215.595 76.9797C217.374 79.1759 218.655 81.7324 219.352 84.4729C219.877 86.5408 219.963 88.6962 219.603 90.7993C219.243 92.9024 218.446 94.9063 217.264 96.6811C216.082 98.4558 214.541 99.9619 212.74 101.102C210.94 102.241 208.92 102.989 206.813 103.297L169.22 118.355C165.581 119.807 161.7 120.552 157.783 120.551ZM110.349 116.253H110.374L155.599 119.617C160.13 119.947 164.676 119.244 168.896 117.562L206.532 102.482L206.63 102.457C208.624 102.172 210.536 101.47 212.241 100.395C213.946 99.3211 215.407 97.8991 216.527 96.2219C217.647 94.5447 218.402 92.6499 218.743 90.6608C219.084 88.6718 219.003 86.6332 218.505 84.6776C217.84 82.0593 216.617 79.6165 214.919 77.5173C213.221 75.4181 211.09 73.7124 208.671 72.5176C206.253 71.3228 203.604 70.6673 200.909 70.5962C198.213 70.5251 195.534 71.04 193.056 72.1056L158.379 95.3646C158.34 95.3915 158.296 95.4117 158.251 95.4244L108.378 108.691C108.281 108.716 108.179 108.705 108.089 108.662L102.129 105.86C101.907 105.751 101.651 105.736 101.417 105.816C101.183 105.897 100.991 106.068 100.882 106.291C100.774 106.513 100.758 106.77 100.839 107.004C100.92 107.239 101.09 107.431 101.312 107.54L103.206 108.5C103.291 108.543 103.359 108.614 103.399 108.701C103.439 108.787 103.448 108.885 103.426 108.978C103.404 109.071 103.352 109.154 103.277 109.213C103.203 109.272 103.11 109.305 103.015 109.306C102.921 109.306 94.7828 109.344 93.7527 112.764C93.642 113.135 94.7105 114.547 95.2255 115.221C95.5854 115.666 95.9152 116.134 96.2129 116.624C98.5583 120.956 108.901 116.837 110.059 116.359C110.139 116.289 110.242 116.251 110.349 116.253Z" fill="#3E4244" />
		<path d="M93.9443 113.685C93.8314 113.685 93.7231 113.64 93.6433 113.56C93.5634 113.48 93.5187 113.372 93.5187 113.259C93.5187 113.146 93.5634 113.037 93.6433 112.957C93.7231 112.877 93.8314 112.832 93.9443 112.832L98.8563 112.743C99.0286 112.748 99.2006 112.728 99.3671 112.683C99.4067 112.674 99.4439 112.656 99.4762 112.631C99.5084 112.606 99.5351 112.574 99.5543 112.538C99.5673 112.482 99.5916 112.429 99.6257 112.382C99.6598 112.335 99.7031 112.296 99.7529 112.267C99.8027 112.237 99.8579 112.218 99.9152 112.211C99.9725 112.204 100.031 112.208 100.086 112.224C100.142 112.24 100.194 112.267 100.238 112.304C100.283 112.34 100.32 112.386 100.347 112.437C100.373 112.488 100.389 112.545 100.394 112.602C100.398 112.66 100.39 112.718 100.372 112.773C100.317 112.941 100.222 113.094 100.096 113.219C99.9706 113.343 99.8168 113.436 99.6479 113.489C99.3961 113.568 99.1328 113.604 98.869 113.596L93.9571 113.685H93.9443Z" fill="#3E4244" />
		<path d="M98.9499 116.265C97.7205 116.265 96.4986 116.074 95.3277 115.698C95.2743 115.681 95.2248 115.654 95.182 115.617C95.1392 115.581 95.104 115.537 95.0783 115.487C95.0526 115.437 95.0369 115.383 95.0323 115.327C95.0276 115.271 95.0339 115.214 95.051 115.161C95.068 115.107 95.0954 115.058 95.1316 115.015C95.1678 114.972 95.212 114.937 95.2618 114.911C95.3116 114.885 95.366 114.87 95.4218 114.865C95.4777 114.86 95.5339 114.867 95.5873 114.884C97.1941 115.4 98.8983 115.539 100.567 115.289C100.623 115.28 100.679 115.283 100.734 115.296C100.788 115.31 100.839 115.334 100.884 115.367C100.929 115.4 100.967 115.442 100.996 115.49C101.025 115.538 101.044 115.592 101.053 115.647C101.061 115.702 101.059 115.759 101.045 115.814C101.032 115.868 101.008 115.919 100.974 115.964C100.941 116.01 100.899 116.048 100.852 116.077C100.804 116.106 100.75 116.125 100.695 116.133C100.118 116.222 99.5342 116.266 98.9499 116.265Z" fill="#3E4244" />
		<path d="M99.682 118.398C98.7108 118.398 97.7469 118.228 96.8345 117.894C96.7818 117.875 96.7335 117.845 96.6923 117.807C96.6512 117.769 96.618 117.723 96.5947 117.672C96.5713 117.621 96.5584 117.565 96.5564 117.509C96.5545 117.453 96.5636 117.397 96.5833 117.344C96.6226 117.239 96.7019 117.153 96.8039 117.106C96.906 117.059 97.0226 117.054 97.1282 117.093C98.4397 117.575 99.8609 117.676 101.227 117.383C101.283 117.371 101.341 117.37 101.397 117.381C101.453 117.391 101.506 117.413 101.554 117.444C101.602 117.476 101.643 117.516 101.675 117.563C101.708 117.61 101.73 117.664 101.742 117.72C101.754 117.776 101.755 117.833 101.744 117.89C101.733 117.946 101.712 117.999 101.681 118.047C101.649 118.095 101.609 118.137 101.562 118.169C101.515 118.201 101.462 118.224 101.406 118.236C100.839 118.352 100.261 118.406 99.682 118.398Z" fill="#3E4244" />
		<path d="M160.383 100.243C160.296 100.243 160.211 100.216 160.139 100.166C160.067 100.116 160.013 100.044 159.983 99.9619L158.591 96.1238C158.572 96.0711 158.563 96.0152 158.566 95.9592C158.568 95.9031 158.581 95.8481 158.605 95.7972C158.628 95.7463 158.662 95.7006 158.703 95.6626C158.744 95.6246 158.792 95.5951 158.845 95.5758C158.897 95.5564 158.953 95.5477 159.009 95.55C159.065 95.5523 159.12 95.5656 159.171 95.5891C159.221 95.6127 159.267 95.6461 159.305 95.6873C159.343 95.7285 159.372 95.7769 159.392 95.8295L160.784 99.6676C160.808 99.7322 160.816 99.8017 160.807 99.8702C160.799 99.9386 160.773 100.004 160.734 100.061C160.695 100.117 160.642 100.163 160.581 100.195C160.52 100.227 160.452 100.244 160.383 100.243Z" fill="#3E4244" />
		<path d="M176.635 79.9056L192.009 113.169L211.001 103.058C213.376 101.794 215.427 99.9965 216.992 97.8055C218.557 95.6145 219.594 93.0899 220.022 90.4299C220.449 87.7698 220.256 85.0467 219.457 82.4741C218.657 79.9015 217.274 77.5495 215.415 75.6026L213.615 73.7134C211.491 71.4884 208.818 69.866 205.867 69.0106C202.916 68.1553 199.791 68.0975 196.81 68.8432L181.568 72.66L176.635 79.9056Z" fill="#4ACBD3" />
		<path d="M192.09 110.935C191.99 110.934 191.894 110.897 191.818 110.833C191.742 110.768 191.691 110.678 191.675 110.58C191.658 110.481 191.676 110.38 191.727 110.294C191.777 110.207 191.856 110.141 191.949 110.107L212.568 102.836C212.674 102.798 212.792 102.804 212.894 102.853C212.996 102.902 213.075 102.989 213.112 103.096C213.15 103.203 213.144 103.321 213.095 103.423C213.047 103.526 212.959 103.604 212.853 103.642L192.23 110.892C192.186 110.914 192.139 110.929 192.09 110.935Z" fill="#3E4244" />
		<path d="M178.107 80.332C178.021 80.3326 177.936 80.3068 177.865 80.2581C177.793 80.2093 177.738 80.1399 177.707 80.0591C177.667 79.9539 177.67 79.8369 177.715 79.7339C177.761 79.6308 177.845 79.5499 177.95 79.5089L198.534 71.4915C198.64 71.4502 198.757 71.4527 198.861 71.4982C198.965 71.5438 199.046 71.6288 199.087 71.7346C199.129 71.8404 199.126 71.9582 199.081 72.0621C199.035 72.1661 198.95 72.2477 198.845 72.289L178.261 80.3022C178.212 80.3223 178.16 80.3325 178.107 80.332Z" fill="#3E4244" />
		<path d="M177.584 81.9653L190.281 109.489L181.006 113.169L177.584 81.9653Z" fill="#3E4244" />
		<path d="M46.1121 46.7421L45.7283 46.7958C41.8599 47.3369 39.3237 49.5503 37.7427 51.654C36.9519 52.7062 36.4049 53.7254 36.0559 54.4809C35.9559 54.6975 35.8724 54.8921 35.8042 55.059H96.6115C93.5692 49.5991 89.0483 47.4407 85.2125 46.6506C83.2062 46.2374 81.3875 46.1994 80.0702 46.2652C79.4123 46.298 78.8813 46.3567 78.5168 46.4067C78.3347 46.4317 78.1943 46.4545 78.1007 46.4708C78.0538 46.479 78.0187 46.4855 77.9959 46.4898L77.9711 46.4947L77.9657 46.4958L77.9652 46.4959L46.1121 46.7421ZM46.1121 46.7421L46.1558 46.3571C46.2605 45.4364 46.5828 44.5541 47.0958 43.7832C47.6087 43.0124 48.2976 42.3752 49.1053 41.9245C49.913 41.4739 50.8162 41.2226 51.74 41.1916C52.6639 41.1605 53.5819 41.3505 54.4179 41.746L54.7882 41.9211L55.0328 41.5925C56.9982 38.9519 60.3235 36.4366 65.925 37.0488C71.5266 37.6613 74.3627 39.956 75.8113 42.0351C76.5416 43.0833 76.9309 44.0935 77.1372 44.8388C77.2403 45.2112 77.2975 45.5163 77.3286 45.7253C77.3442 45.8297 77.3532 45.9099 77.3583 45.9622C77.3609 45.9884 77.3624 46.0076 77.3633 46.0193L77.3641 46.0313L77.3641 46.0317L77.3641 46.0323L77.3642 46.0327L77.3642 46.033L77.3938 46.6146L77.9649 46.496L46.1121 46.7421Z" stroke="#3E4244" />
		<path d="M241.111 63.3675C243.812 63.3675 246.002 61.1737 246.002 58.4675C246.002 55.7613 243.812 53.5674 241.111 53.5674C238.41 53.5674 236.221 55.7613 236.221 58.4675C236.221 61.1737 238.41 63.3675 241.111 63.3675Z" fill="#3E4244" />
		<path d="M269.753 77.108C269.391 77.1082 269.031 77.0535 268.685 76.9459C267.65 76.6218 266.91 75.8542 266.199 75.1121C265.724 74.5674 265.173 74.0935 264.564 73.7048C264.138 73.4936 263.674 73.3702 263.199 73.3419C262.724 73.3135 262.248 73.3809 261.8 73.5399C261.352 73.6989 260.94 73.9464 260.588 74.2678C260.237 74.5891 259.953 74.9777 259.755 75.4107C259.734 75.4628 259.703 75.5103 259.664 75.5505C259.625 75.5907 259.579 75.6229 259.527 75.645C259.476 75.6672 259.421 75.679 259.365 75.6798C259.309 75.6806 259.253 75.6703 259.201 75.6495C259.149 75.6288 259.102 75.598 259.062 75.559C259.022 75.5199 258.99 75.4733 258.967 75.4218C258.945 75.3703 258.934 75.3149 258.933 75.2589C258.932 75.2028 258.942 75.1472 258.963 75.0951C259.208 74.5502 259.561 74.0608 260 73.6562C260.439 73.2517 260.955 72.9404 261.518 72.7411C262.08 72.5419 262.677 72.4588 263.272 72.4969C263.868 72.535 264.449 72.6935 264.982 72.9628C265.664 73.3937 266.28 73.9208 266.812 74.5279C267.48 75.2188 268.11 75.8755 268.94 76.1356C270.383 76.5919 271.966 75.6793 273.197 74.8349L273.346 74.7326C274.695 73.7944 276.219 72.7283 277.972 72.8647C278.947 73.0027 279.882 73.3425 280.718 73.8626C281.033 74.0289 281.356 74.1995 281.671 74.3445C282.646 74.771 284.051 75.0226 284.795 74.2251C284.832 74.1797 284.878 74.1423 284.93 74.1154C284.981 74.0884 285.038 74.0724 285.096 74.0683C285.155 74.0642 285.213 74.0722 285.268 74.0917C285.323 74.1112 285.373 74.1418 285.416 74.1817C285.459 74.2215 285.493 74.2697 285.516 74.3233C285.54 74.3769 285.552 74.4348 285.552 74.4932C285.552 74.5517 285.54 74.6095 285.517 74.6632C285.493 74.7168 285.459 74.7651 285.417 74.8051C284.366 75.9352 282.612 75.7092 281.322 75.1207C280.982 74.9671 280.645 74.788 280.322 74.6175C279.586 74.1552 278.763 73.849 277.904 73.7176C276.47 73.6025 275.125 74.5322 273.831 75.4235L273.682 75.5301C272.567 76.2977 271.183 77.108 269.753 77.108Z" fill="#3E4244" />
		<path d="M13.6803 99.4288C13.5483 99.4288 13.4207 99.4288 13.2887 99.4288C11.7521 99.2668 10.6496 98.2049 9.58551 97.1771C9.04182 96.617 8.44609 96.11 7.80634 95.6632C6.67098 94.992 5.33045 94.7582 4.03548 95.0054C2.74052 95.2526 1.57981 95.964 0.770398 97.0066C0.704656 97.0978 0.605637 97.1593 0.494809 97.1777C0.38398 97.1961 0.270375 97.1698 0.178796 97.1046C0.133093 97.072 0.0942687 97.0306 0.0645905 96.9829C0.0349122 96.9351 0.0149761 96.882 0.00587711 96.8265C-0.00322188 96.771 -0.00128416 96.7143 0.0115926 96.6595C0.0244693 96.6048 0.0480293 96.5532 0.0809055 96.5076C1.02141 95.2947 2.37079 94.4667 3.87659 94.1786C5.3824 93.8906 6.94141 94.1621 8.26181 94.9425C8.95081 95.418 9.59099 95.9608 10.173 96.563C11.1817 97.5311 12.1309 98.4523 13.3781 98.5802C14.7146 98.7167 15.932 97.9021 17.2387 97.0407C18.7072 96.0683 20.2182 95.0576 21.9761 95.5097C22.6639 95.7246 23.3071 96.0627 23.8745 96.5076C24.1986 96.7381 24.5355 96.9503 24.8833 97.143C25.4079 97.4159 26.0161 97.4799 26.5859 97.3221C26.708 97.2833 26.8209 97.2197 26.9176 97.1353C27.0142 97.051 27.0925 96.9476 27.1477 96.8317C27.1703 96.7804 27.2028 96.7341 27.2433 96.6955C27.2837 96.6568 27.3315 96.6265 27.3837 96.6063C27.4358 96.5861 27.4915 96.5764 27.5474 96.5777C27.6034 96.5791 27.6584 96.5915 27.7095 96.6142C27.8121 96.6607 27.8921 96.7461 27.932 96.8516C27.9719 96.9571 27.9684 97.0742 27.9224 97.1771C27.8225 97.4003 27.6769 97.5999 27.4951 97.763C27.3132 97.9261 27.0991 98.049 26.8668 98.1239C26.0737 98.3634 25.2186 98.2839 24.4831 97.9021C24.1004 97.6956 23.7322 97.4633 23.3808 97.207C22.8918 96.8235 22.3402 96.5277 21.7505 96.3328C20.3714 95.9788 19.0689 96.8402 17.6941 97.7529C16.4512 98.5717 15.153 99.4288 13.6803 99.4288Z" fill="#3E4244" />
		<path d="M51.007 79.9283L45.6947 85.2508L51.007 90.5732L56.3192 85.2508L51.007 79.9283Z" fill="#4ACBD3" />
		<path d="M64.2215 93.4883C63.6726 93.4883 63.1361 93.3252 62.6797 93.0197C62.2233 92.7142 61.8676 92.2799 61.6576 91.7718C61.4475 91.2638 61.3925 90.7047 61.4996 90.1653C61.6067 89.6259 61.871 89.1305 62.2591 88.7416C62.6473 88.3528 63.1418 88.088 63.6801 87.9807C64.2184 87.8734 64.7765 87.9285 65.2836 88.1389C65.7907 88.3494 66.2241 88.7057 66.529 89.163C66.834 89.6203 66.9967 90.1578 66.9967 90.7078C66.9956 91.4449 66.7029 92.1514 66.1827 92.6726C65.6624 93.1938 64.9572 93.4872 64.2215 93.4883ZM64.2215 88.7972C63.841 88.7972 63.469 88.9103 63.1526 89.1221C62.8362 89.3339 62.5896 89.6349 62.444 89.9872C62.2984 90.3394 62.2604 90.727 62.3346 91.1009C62.4088 91.4748 62.5921 91.8183 62.8611 92.0878C63.1302 92.3574 63.473 92.541 63.8462 92.6154C64.2194 92.6898 64.6062 92.6516 64.9578 92.5057C65.3093 92.3598 65.6098 92.1127 65.8212 91.7957C66.0326 91.4788 66.1454 91.1061 66.1454 90.7248C66.1443 90.2139 65.9412 89.7243 65.5807 89.363C65.2201 89.0018 64.7314 88.7984 64.2215 88.7972Z" fill="#3E4244" />
		<path d="M285.983 92.4818C285.983 92.9474 285.845 93.4025 285.587 93.7896C285.329 94.1768 284.962 94.4785 284.533 94.6567C284.103 94.8348 283.631 94.8814 283.175 94.7906C282.719 94.6998 282.301 94.4756 281.972 94.1464C281.643 93.8171 281.42 93.3977 281.329 92.941C281.238 92.4844 281.285 92.0111 281.463 91.5809C281.64 91.1508 281.942 90.7831 282.328 90.5245C282.714 90.2658 283.169 90.1277 283.633 90.1277C284.257 90.1277 284.854 90.3758 285.295 90.8172C285.735 91.2587 285.983 91.8575 285.983 92.4818Z" fill="#3E4244" />
	</g>
	<defs>
		<clipPath id="clip0_95_41411">
			<rect width="286" height="188" fill="white" />
		</clipPath>
	</defs>
</svg>
