<svg width="239" height="216" viewBox="0 0 239 216" fill="none" xmlns="http://www.w3.org/2000/svg">
	<path d="M225.114 111.82H128.504V120.468H225.114V111.82Z" fill="#4ACBD3" />
	<path d="M108.743 77.6348C104.545 62.2992 88.4377 53.1988 72.7723 57.3073C57.1068 61.4158 47.8023 77.1803 52.0015 92.5103L108.743 77.6348Z" fill="#4ACBD3" />
	<path d="M64.2167 39.1845C64.2167 39.1845 73.5509 43.9034 80.4809 38.613C87.7878 33.0306 84.3307 28.5077 81.8048 28.0565C74.3341 26.7208 64.2167 39.1845 64.2167 39.1845Z" fill="#3E4244" />
	<path d="M84.7849 108.554L96.9455 143.434L97.781 146.007L103.856 167.099L105.18 172.62L116.464 170.03L115.14 164.508L110.992 142.974L110.235 139.632L101.262 103.84L98.8476 95.7755L82.374 100.493L84.7849 108.554Z" fill="#3E4244" />
	<path d="M65.4404 108.123L61.9936 137.219L61.5064 139.916L53.635 167.903L51.8547 173.299L62.8826 176.785L64.6641 171.388L75.0125 144.182L76.3443 139.473L82.3865 110.785L83.7524 102.492L66.8018 99.8361L65.4404 108.123Z" fill="#3E4244" />
	<path d="M57.3379 184.89L60.902 188.245L63.0773 189.906L59.6817 194.164L57.5064 192.502L50.6059 188.269L48.3635 186.557L51.0818 179.608L52.7892 175.974L60.2167 179.316L58.5092 182.95L57.3379 184.89Z" fill="#4ACBD3" />
	<path d="M59.9868 195.668L48.7323 187.914C48.5399 187.782 48.3018 187.73 48.0703 187.769C47.8388 187.809 47.6327 187.936 47.4972 188.124C47.4301 188.217 47.3824 188.322 47.3568 188.434C47.3312 188.545 47.3283 188.66 47.3482 188.772C47.368 188.884 47.4103 188.992 47.4726 189.088C47.5349 189.184 47.616 189.267 47.7112 189.333L58.9657 197.088C59.1582 197.22 59.3962 197.272 59.6277 197.232C59.8592 197.193 60.0653 197.065 60.2008 196.877C60.3361 196.689 60.3896 196.456 60.3494 196.229C60.3093 196.003 60.1789 195.801 59.9868 195.668V195.668Z" fill="#3E4244" />
	<path d="M58.9247 181.188C58.3556 181.026 57.8297 180.722 57.2628 180.551C57.0377 180.484 56.7948 180.508 56.5874 180.616C56.38 180.725 56.225 180.909 56.1563 181.129C56.0882 181.349 56.1121 181.587 56.2226 181.789C56.3331 181.992 56.5214 182.144 56.746 182.211C57.322 182.383 57.8513 182.69 58.4318 182.855C58.6578 182.919 58.9004 182.892 59.1063 182.781C59.3122 182.67 59.4647 182.483 59.5303 182.262C59.5954 182.041 59.5682 181.804 59.4546 181.603C59.3411 181.401 59.1505 181.252 58.9247 181.188V181.188Z" fill="#3E4244" />
	<path d="M57.5064 183.582C56.8826 183.493 56.2542 183.446 55.6281 183.342C55.396 183.303 55.1578 183.357 54.9657 183.49C54.7737 183.623 54.6435 183.825 54.6037 184.053C54.5641 184.28 54.6182 184.513 54.7542 184.701C54.8901 184.889 55.0968 185.016 55.3288 185.055C55.9628 185.16 56.6082 185.209 57.2457 185.301C57.4781 185.335 57.7144 185.276 57.903 185.139C58.0916 185.002 58.2171 184.798 58.252 184.571C58.2866 184.343 58.2275 184.111 58.0878 183.926C57.948 183.74 57.7389 183.617 57.5064 183.582V183.582Z" fill="#3E4244" />
	<path d="M99.7002 103.095L80.3489 110.983L66.6334 108.414L66.9521 100.011L97.7605 97.1858L99.7002 103.095Z" fill="#3E4244" />
	<path d="M79.2254 38.4292C81.7297 41.5629 82.1281 44.3335 81.1503 46.3175C80.1884 48.2715 77.9254 49.4134 75.2504 49.3688C74.3329 49.3532 73.3768 49.0346 72.5412 48.6859C70.5572 47.8504 69.3858 46.4579 68.5446 44.8259C67.659 43.1069 67.1297 41.1307 66.4547 39.2201C66.4081 39.0884 66.3101 38.9801 66.182 38.9191C66.0539 38.8581 65.9063 38.8494 65.7717 38.8948C65.7051 38.9174 65.6436 38.9526 65.5909 38.9984C65.5381 39.0442 65.4952 39.0997 65.4644 39.1618C65.4336 39.2239 65.4157 39.2913 65.4116 39.3602C65.4074 39.4291 65.4173 39.4981 65.4404 39.5632C66.1314 41.5195 66.6789 43.5403 67.5862 45.2993C68.5366 47.1441 69.873 48.706 72.1166 49.6518C73.0751 50.0551 74.1781 50.4015 75.2311 50.4193C78.3682 50.4706 80.9864 49.0658 82.1144 46.7743C83.2266 44.5173 82.9181 41.3423 80.0655 37.783C79.9777 37.6734 79.849 37.6023 79.7078 37.5854C79.5665 37.5685 79.4241 37.6071 79.3119 37.6928C79.2013 37.7797 79.1302 37.9057 79.114 38.0436C79.0978 38.1815 79.1378 38.32 79.2254 38.4292Z" fill="#3E4244" />
	<path d="M64.005 39.1678C64.005 39.1678 71.1764 33.8417 73.2253 31.9267C79.2868 26.2641 69.0728 20.0356 65.5531 28.1045C63.6055 32.5773 64.0767 36.2524 64.005 39.1678Z" fill="#3E4244" />
	<path d="M68.2372 44.7245C65.1854 42.8485 61.454 40.1336 60.252 36.7994C59.6623 35.1618 60.3658 32.9126 62.5616 34.0555C64.2862 34.9468 65.0659 36.6935 65.7853 38.3144C66.5503 40.0311 68.2372 44.7245 68.2372 44.7245Z" fill="#3E4244" />
	<path d="M44.6264 120.079C44.615 120.057 44.5125 119.856 44.4841 119.784C44.4485 119.681 44.4399 119.572 44.459 119.465C44.4825 119.34 44.5502 119.227 44.6503 119.145C44.7118 119.093 44.7846 119.054 44.8633 119.032C44.9421 119.01 45.0248 119.005 45.1056 119.018C45.8876 119.115 46.7357 119.309 47.5735 119.364C48.3088 119.412 49.0373 119.353 49.6884 118.954C50.4454 118.488 50.4101 117.356 49.8023 116.805C49.3333 116.384 48.5763 116.301 47.981 116.238C46.7681 116.107 45.5452 116.091 44.3293 116.19C44.1855 116.202 44.0426 116.158 43.9321 116.067C43.8216 115.976 43.7523 115.846 43.7396 115.705C43.7332 115.636 43.7409 115.565 43.7623 115.498C43.7836 115.432 43.8182 115.37 43.8641 115.316C43.91 115.262 43.9663 115.218 44.0297 115.185C44.0931 115.153 44.1624 115.133 44.2336 115.127C45.5224 115.023 46.8184 115.039 48.1039 115.177C48.9121 115.264 49.9104 115.45 50.5444 116.019C51.6418 117.005 51.6338 119.027 50.2792 119.856C49.4255 120.381 48.4761 120.491 47.5131 120.429C46.9588 120.392 46.401 120.297 45.8591 120.206C46.0169 120.58 46.1944 120.945 46.3907 121.301C46.5569 121.601 46.7322 121.895 46.8961 122.192C47.2832 122.89 47.8933 124.133 48.014 125.261C48.1096 126.153 47.9001 126.977 47.2172 127.523C46.9289 127.742 46.5681 127.849 46.2041 127.824C45.7522 127.792 45.3166 127.646 44.9405 127.399C44.5477 127.124 44.2058 126.785 43.9297 126.396C43.99 127.21 43.8159 127.996 43.1921 128.666C42.5683 129.335 41.7259 129.111 41.0839 128.666C40.6286 128.35 40.2974 127.898 40.0264 127.396C39.8978 128.467 39.4482 129.425 38.336 130.076C37.5779 130.522 36.8676 130.369 36.2654 129.908C35.5403 129.351 34.994 128.276 34.7993 127.539C34.1266 125 34.2916 122.022 35.7407 119.757C35.9433 119.438 36.2245 118.921 36.5512 118.509C36.8312 118.155 37.1533 117.879 37.4778 117.762C37.6133 117.713 37.763 117.719 37.894 117.779C38.0251 117.838 38.1267 117.946 38.1767 118.078C38.2026 118.146 38.2142 118.218 38.2109 118.29C38.2076 118.362 38.1894 118.433 38.1573 118.498C38.1253 118.563 38.0802 118.621 38.0246 118.669C37.969 118.716 37.9042 118.752 37.834 118.774C37.6724 118.832 37.5335 118.997 37.3935 119.173C37.0896 119.556 36.8335 120.039 36.6445 120.334C35.3525 122.355 35.2341 125.013 35.8352 127.283C35.9937 127.864 36.283 128.403 36.6821 128.861C36.9803 129.18 37.3434 129.418 37.7566 129.173C38.6673 128.638 38.92 127.796 38.9553 126.893C38.9963 125.826 38.7538 124.673 38.7049 123.695C38.6888 123.561 38.7276 123.426 38.8129 123.319C38.8982 123.213 39.023 123.144 39.1602 123.127C39.2803 123.102 39.4056 123.12 39.5134 123.177C39.6211 123.235 39.7042 123.329 39.7476 123.441C39.7612 123.47 39.8124 123.688 39.8352 123.775C39.875 123.923 39.8989 124.076 39.9342 124.221C40.0347 124.601 40.1591 124.976 40.3065 125.342C40.6309 126.198 40.9234 127.269 41.6963 127.809C41.8153 127.897 41.9479 127.967 42.0891 128.014C42.136 128.033 42.1877 128.038 42.2375 128.028C42.2872 128.018 42.3327 127.993 42.3679 127.957C42.8073 127.487 42.8733 126.923 42.8096 126.353C42.7322 125.659 42.4681 124.953 42.2837 124.328C42.1729 123.933 42.0418 123.544 41.891 123.162C41.8443 123.051 41.6815 122.875 41.6246 122.756C41.5705 122.649 41.5447 122.531 41.5495 122.412C41.5567 122.265 41.622 122.126 41.7316 122.025C41.8226 121.939 41.9388 121.883 42.064 121.865C42.1666 121.845 42.2726 121.856 42.3689 121.896C42.4651 121.935 42.5472 122.002 42.6047 122.087C42.64 122.135 42.7846 122.414 42.7982 122.441C42.9986 122.785 43.1807 123.139 43.389 123.478C43.71 123.997 44.0242 124.626 44.3896 125.213C44.7117 125.731 45.0726 126.216 45.5279 126.522C45.7048 126.638 45.9044 126.717 46.1141 126.754C46.1799 126.773 46.249 126.778 46.3169 126.768C46.3847 126.759 46.4498 126.736 46.508 126.701C46.903 126.386 46.9633 125.893 46.9064 125.379C46.8005 124.395 46.253 123.316 45.9149 122.706C45.7487 122.406 45.5734 122.111 45.4084 121.815C45.1708 121.385 44.9587 120.943 44.7732 120.49C44.7265 120.353 44.6742 120.223 44.6264 120.079Z" fill="#3E4244" />
	<path d="M143.537 55.0258C143.876 54.795 144.202 54.5466 144.514 54.2816C144.777 54.0588 145.033 53.8282 145.296 53.6054C145.979 53.0306 149.475 49.9604 151.986 48.5355C152.691 48.1356 153.329 47.8671 153.82 47.7791C154.311 47.6911 154.687 47.7791 154.958 47.9908C155.239 48.2189 155.423 48.5402 155.476 48.8931C155.543 49.3316 155.491 49.7796 155.325 50.1921C155.176 50.5642 154.528 51.3351 153.641 52.2352C152.621 53.2701 151.295 54.4955 150.185 55.5204C150.969 55.2976 151.779 55.2976 152.563 55.7499C153.37 56.2078 153.325 57.0544 153.019 57.7641C152.801 58.2631 152.422 58.6809 151.979 59.0485C153.077 58.9371 154.13 59.1599 155.019 60.0868C155.625 60.7151 155.627 61.4236 155.296 62.102C154.897 62.9142 153.942 63.6672 153.248 64.0126C150.857 65.2024 147.851 65.6836 145.279 64.7924C144.918 64.6676 144.343 64.5106 143.86 64.2866C143.447 64.0961 143.102 63.8477 142.915 63.5625C142.876 63.5036 142.85 63.4378 142.837 63.3688C142.825 63.2999 142.826 63.2292 142.842 63.1608C142.857 63.0924 142.886 63.0277 142.927 62.9702C142.968 62.9128 143.02 62.8638 143.08 62.8262C143.202 62.7501 143.349 62.7244 143.49 62.7546C143.632 62.7849 143.755 62.8687 143.833 62.9877C143.926 63.1303 144.119 63.2272 144.325 63.3219C144.773 63.5291 145.31 63.6706 145.646 63.7876C147.941 64.5863 150.623 64.1218 152.755 63.0634C153.3 62.7865 153.775 62.3937 154.145 61.9138C154.401 61.5606 154.557 61.1629 154.225 60.8198C153.495 60.0623 152.601 60.0043 151.693 60.1659C150.619 60.3553 149.521 60.8343 148.555 61.0939C148.425 61.1381 148.281 61.1299 148.156 61.071C148.032 61.0122 147.936 60.9075 147.889 60.7797C147.838 60.67 147.829 60.546 147.864 60.4302C147.898 60.3145 147.974 60.2147 148.077 60.1492C148.102 60.1302 148.305 60.0378 148.388 59.9954C148.528 59.9253 148.675 59.8696 148.816 59.8027C149.174 59.6248 149.52 59.4254 149.853 59.2056C150.639 58.711 151.644 58.203 152.016 57.3463C152.078 57.2138 152.119 57.0724 152.137 56.9274C152.146 56.8788 152.14 56.8286 152.12 56.7833C152.099 56.7379 152.066 56.6997 152.023 56.6734C151.459 56.3537 150.884 56.4128 150.327 56.5966C149.652 56.8194 149.003 57.2226 148.419 57.5346C148.052 57.7295 147.685 57.9334 147.342 58.1606C147.237 58.2308 147.1 58.4224 146.994 58.5038C146.899 58.5785 146.786 58.6287 146.666 58.6497C146.517 58.6749 146.364 58.6421 146.24 58.5584C146.136 58.4895 146.056 58.3906 146.012 58.2754C145.971 58.1815 145.959 58.0776 145.978 57.9771C145.997 57.8765 146.046 57.7837 146.119 57.7106C146.159 57.666 146.406 57.4688 146.43 57.4499C146.731 57.1837 147.045 56.9341 147.341 56.6612C147.967 56.0774 150.969 53.4305 152.87 51.4955C153.617 50.7368 154.199 50.1152 154.325 49.8011C154.404 49.607 154.439 49.399 154.43 49.1906C154.435 49.1238 154.425 49.0567 154.401 48.9939C154.378 48.9311 154.341 48.874 154.292 48.8263C154.262 48.8018 154.217 48.8129 154.165 48.8151C154.057 48.8214 153.951 48.8401 153.847 48.8708C153.393 49.0164 152.957 49.2138 152.55 49.4591C150.1 50.8493 146.689 53.8516 146.028 54.412C145.764 54.6348 145.508 54.8654 145.245 55.0893C144.868 55.408 144.472 55.7055 144.06 55.9805C143.938 56.0618 143.814 56.1409 143.687 56.2156C143.602 56.2869 143.514 56.3538 143.423 56.4161C143.328 56.4722 143.221 56.504 143.111 56.5086C142.981 56.5137 142.853 56.4743 142.75 56.3972C142.684 56.3505 142.629 56.2902 142.59 56.2205C142.551 56.1507 142.528 56.0734 142.522 55.9939C142.451 55.2252 142.462 54.373 142.336 53.5598C142.222 52.8479 142.01 52.1639 141.471 51.628C140.843 51.0042 139.722 51.2827 139.308 51.9879C138.988 52.5259 139.069 53.2668 139.134 53.8527C139.265 55.0396 139.513 56.2113 139.873 57.3519C139.916 57.4868 139.903 57.6327 139.836 57.758C139.769 57.8832 139.655 57.9775 139.517 58.0203C139.379 58.0622 139.23 58.0491 139.102 57.9838C138.974 57.9184 138.878 57.8062 138.834 57.6716C138.453 56.4637 138.191 55.223 138.051 53.9664C137.963 53.1743 137.937 52.1839 138.365 51.4509C139.113 50.191 141.129 49.7643 142.251 50.8783C142.958 51.5813 143.276 52.4647 143.418 53.3993C143.483 53.9385 143.509 54.4888 143.537 55.0258Z" fill="#3E4244" />
	<path d="M96.4116 32.5828C98.7133 32.6263 101.105 32.3021 103.388 32.6452C103.529 32.666 103.672 32.6315 103.787 32.5493C103.901 32.467 103.978 32.3437 104 32.2063C104.021 32.0688 103.986 31.9287 103.902 31.8165C103.818 31.7044 103.692 31.6295 103.551 31.6081C101.222 31.2571 98.7805 31.578 96.4321 31.5345C96.2901 31.5318 96.1528 31.5844 96.0504 31.6807C95.9479 31.777 95.8887 31.9091 95.8857 32.0481C95.8844 32.117 95.8969 32.1855 95.9226 32.2497C95.9483 32.3138 95.9866 32.3724 96.0355 32.4221C96.0843 32.4717 96.1427 32.5115 96.2072 32.5391C96.2718 32.5667 96.3412 32.5815 96.4116 32.5828V32.5828Z" fill="#3E4244" />
	<path d="M94.9102 25.8407C97.995 23.8812 101.323 22.0631 104.264 19.9175C104.378 19.8348 104.454 19.7111 104.476 19.5735C104.497 19.4359 104.462 19.2956 104.378 19.1834C104.336 19.1278 104.283 19.0809 104.223 19.0452C104.163 19.0095 104.096 18.9858 104.026 18.9755C103.956 18.9651 103.885 18.9683 103.817 18.9849C103.748 19.0014 103.684 19.031 103.627 19.072C100.705 21.2042 97.3963 23.0089 94.3308 24.9551C94.2118 25.0312 94.1283 25.1503 94.0987 25.2864C94.069 25.4224 94.0956 25.5645 94.1725 25.6814C94.2495 25.7974 94.37 25.8791 94.508 25.9089C94.646 25.9387 94.7905 25.9142 94.9102 25.8407V25.8407Z" fill="#3E4244" />
	<path d="M89.9267 21.6487C91.1549 19.4786 92.3046 17.0813 93.3758 14.8454C93.4057 14.7831 93.4228 14.7155 93.426 14.6467C93.4292 14.5778 93.4185 14.509 93.3945 14.4442C93.3705 14.3794 93.3337 14.3199 93.2861 14.2691C93.2386 14.2183 93.1812 14.1771 93.1174 14.1481C92.9886 14.0892 92.8412 14.0827 92.7076 14.1301C92.574 14.1775 92.465 14.275 92.4048 14.4009C91.3439 16.6201 90.2056 18.9907 88.9898 21.1407C88.921 21.2625 88.9044 21.406 88.9437 21.5397C88.983 21.6734 89.0749 21.7863 89.1993 21.8537C89.3236 21.9207 89.4699 21.9367 89.6062 21.8983C89.7426 21.8599 89.8578 21.7701 89.9267 21.6487V21.6487Z" fill="#3E4244" />
	<path d="M55.4642 98.1015L55.8957 97.237C56.2909 96.4459 56.9839 95.8353 57.8292 95.5333C58.6745 95.2313 59.6064 95.2614 60.4295 95.6173L63.1535 96.797C63.6804 97.025 64.2489 97.1461 64.8249 97.153C65.4009 97.1599 65.9724 97.0524 66.5047 96.8371C67.0374 96.6212 67.5197 96.3017 67.9226 95.8981C68.3255 95.4944 68.6404 95.015 68.8485 94.4888C68.8576 94.4665 68.8667 94.4442 68.8747 94.4219C69.0257 94.041 69.2552 93.6945 69.549 93.4042C69.8427 93.1138 70.1944 92.8858 70.5821 92.7342C70.9707 92.5831 71.387 92.5123 71.8049 92.5263C72.2227 92.5403 72.6331 92.6388 73.0102 92.8155L74.1815 93.3625C75.4016 93.9324 76.8018 94.0097 78.0797 93.5778C79.3575 93.146 80.4106 92.2395 81.0114 91.0543C81.2345 90.6139 81.5512 90.2254 81.9403 89.9147C82.3294 89.604 82.7819 89.3784 83.2675 89.2529C83.7517 89.1266 84.2579 89.1027 84.7523 89.1828C85.2468 89.2629 85.7181 89.4452 86.1349 89.7174L86.5253 89.9725C87.0687 90.3277 87.6837 90.5643 88.3286 90.6666C88.9736 90.7689 89.6335 90.7343 90.2636 90.5652C90.8936 90.3959 91.479 90.0958 91.9801 89.6854C92.4812 89.275 92.8861 88.7639 93.1674 88.1868C93.3836 87.7426 93.6937 87.3484 94.0771 87.0302C94.4606 86.712 94.9086 86.4771 95.3917 86.3408C95.8747 86.2048 96.3817 86.1705 96.8793 86.2402C97.3769 86.3099 97.8537 86.4821 98.2784 86.7452L100.307 88.0007C100.698 88.2434 101.137 88.4011 101.596 88.4634C102.054 88.5257 102.521 88.491 102.965 88.3617C103.409 88.2329 103.82 88.0127 104.17 87.7159C104.52 87.419 104.801 87.0524 104.994 86.6405C105.593 85.3605 106.175 84.1206 106.175 84.1206C106.233 83.9968 106.238 83.8556 106.19 83.7279C106.141 83.6003 106.043 83.4967 105.916 83.44C105.854 83.4117 105.786 83.3957 105.717 83.3931C105.648 83.3904 105.58 83.4011 105.515 83.4245C105.45 83.4479 105.391 83.4835 105.34 83.5294C105.29 83.5752 105.249 83.6304 105.22 83.6917L104.038 86.2116C103.908 86.4905 103.718 86.7387 103.481 86.9397C103.244 87.1407 102.966 87.2897 102.665 87.3769C102.365 87.4638 102.049 87.487 101.739 87.4449C101.429 87.4029 101.132 87.2965 100.867 87.1329L98.8396 85.8774C98.2897 85.5366 97.6722 85.3137 97.0279 85.2234C96.3835 85.1332 95.7269 85.1776 95.1014 85.3538C94.4758 85.5301 93.8955 85.8342 93.3989 86.2461C92.9022 86.658 92.5005 87.1683 92.2203 87.7434C92.0035 88.1876 91.6917 88.581 91.306 88.897C90.9202 89.213 90.4696 89.4441 89.9847 89.5748C89.4999 89.7051 88.9921 89.7318 88.4958 89.6532C87.9995 89.5746 87.5262 89.3925 87.1082 89.1192L86.7177 88.8641C86.1771 88.5102 85.5655 88.2732 84.9237 88.1691C84.282 88.065 83.625 88.0961 82.9966 88.2603C82.3679 88.4245 81.7822 88.7182 81.2787 89.1216C80.7752 89.525 80.3654 90.029 80.0768 90.5997C79.5986 91.5435 78.7602 92.2652 77.7427 92.609C76.7252 92.9527 75.6104 92.8908 74.6391 92.4368L73.4678 91.8898C72.9602 91.6521 72.4079 91.5195 71.8456 91.5003C71.2832 91.4811 70.7229 91.5758 70.1997 91.7784C69.6766 91.9815 69.2021 92.2881 68.8056 92.6789C68.4092 93.0698 68.0994 93.5365 67.8957 94.0498C67.8878 94.0721 67.8787 94.0955 67.8696 94.1178C67.7126 94.5138 67.4752 94.8746 67.1718 95.1783C66.8683 95.4819 66.5051 95.7222 66.104 95.8846C65.7028 96.0469 65.2721 96.128 64.8379 96.1228C64.4038 96.1176 63.9752 96.0264 63.5781 95.8546C62.6902 95.4702 61.7386 95.0591 60.8541 94.6748C59.7828 94.2111 58.5696 94.1717 57.4692 94.5649C56.3688 94.9581 55.467 95.7534 54.9531 96.7836L54.5206 97.6481C54.4596 97.7706 54.4508 97.9118 54.4961 98.0406C54.5413 98.1695 54.6369 98.2755 54.7619 98.3355C54.8868 98.3953 55.0308 98.4042 55.1624 98.3604C55.294 98.3165 55.4025 98.2235 55.4642 98.1015V98.1015Z" fill="#3E4244" />
	<path d="M65.8172 65.9699C63.9754 63.7029 62.0334 62.5476 60.1723 62.0641C55.8467 60.9379 51.915 63.4645 50.4967 64.378C42.475 69.5448 37.529 78.2241 34.9291 86.802C32.3292 95.38 32.0833 103.847 33.3856 108.578C34.2746 111.792 35.3059 115.787 37.3697 118.506C37.4104 118.56 37.4618 118.607 37.5209 118.642C37.5799 118.677 37.6454 118.7 37.7137 118.711C37.782 118.721 37.8517 118.718 37.9189 118.702C37.986 118.686 38.0493 118.657 38.105 118.617C38.2168 118.536 38.2909 118.414 38.3112 118.279C38.3315 118.144 38.2962 118.007 38.2131 117.898C36.2211 115.274 35.2535 111.414 34.3986 108.317C33.1249 103.711 33.4015 95.4602 35.9354 87.1017C38.4693 78.7432 43.2593 70.2722 51.0749 65.2358C52.3715 64.4014 55.9503 62.0285 59.9014 63.0567C61.5861 63.4957 63.3288 64.5595 64.9953 66.6093C65.0382 66.6622 65.0913 66.7062 65.1516 66.739C65.2119 66.7717 65.2782 66.7925 65.3467 66.8001C65.4152 66.8078 65.4846 66.8022 65.5508 66.7836C65.6171 66.765 65.679 66.7338 65.733 66.6918C65.8417 66.6068 65.9117 66.4832 65.9275 66.3479C65.9433 66.2126 65.9036 66.0766 65.8172 65.9699V65.9699Z" fill="#3E4244" />
	<path d="M64.9897 66.5971C67.2799 69.5537 66.293 72.4691 63.9333 75.2229C60.1575 79.6289 52.9418 83.6204 48.7471 86.733C40.3384 92.9715 40.7368 103.374 40.9121 106.757C41.0362 109.147 41.1398 112.105 42.1768 114.325C42.2052 114.386 42.2459 114.442 42.2963 114.488C42.3467 114.534 42.4059 114.57 42.4706 114.593C42.5352 114.617 42.604 114.628 42.6729 114.625C42.7418 114.623 42.8096 114.607 42.8723 114.579C42.9991 114.522 43.0977 114.418 43.1463 114.29C43.195 114.162 43.1898 114.02 43.1318 113.896C42.1506 111.791 42.0789 108.975 41.9616 106.704C41.7931 103.473 41.3492 93.5106 49.3811 87.5518C53.627 84.4024 60.9156 80.3429 64.7381 75.8835C67.445 72.7253 68.4535 69.3676 65.8263 65.9766C65.7422 65.868 65.6176 65.7965 65.4798 65.7778C65.342 65.759 65.2021 65.7944 65.091 65.8763C64.9799 65.9588 64.9069 66.081 64.8879 66.2162C64.8689 66.3513 64.9055 66.4883 64.9897 66.5971V66.5971Z" fill="#3E4244" />
	<path d="M86.819 55.2419C88.5698 52.1761 93.0046 51.843 96.2215 53.2801L114.964 61.6564C117.24 62.6724 120.291 62.8919 123.698 62.5298C128.695 62.0007 134.465 60.2305 139.581 58.0348C139.709 57.98 139.809 57.878 139.86 57.751C139.91 57.624 139.908 57.4824 139.852 57.3574C139.824 57.2956 139.784 57.2397 139.735 57.1929C139.685 57.1462 139.626 57.1095 139.562 57.085C139.497 57.0604 139.429 57.0486 139.36 57.05C139.291 57.0515 139.223 57.0662 139.16 57.0934C134.142 59.2468 128.486 60.9925 123.585 61.5083C120.398 61.8425 117.53 61.6731 115.401 60.7218L96.6575 52.3455C92.9671 50.6956 87.9107 51.2237 85.9027 54.7406C85.869 54.7995 85.8475 54.8644 85.8394 54.9315C85.8313 54.9986 85.8369 55.0666 85.8557 55.1315C85.8745 55.1965 85.9063 55.2572 85.9491 55.3102C85.9919 55.3632 86.045 55.4074 86.1053 55.4402C86.2268 55.5065 86.3703 55.5229 86.5041 55.4857C86.638 55.4485 86.7512 55.3608 86.819 55.2419V55.2419Z" fill="#3E4244" />
	<path d="M110.554 77.1012C115.354 77.7748 120.245 77.4207 124.891 76.0634C129.537 74.706 133.827 72.3778 137.464 69.2396L143.589 63.9535C143.693 63.8633 143.757 63.7363 143.765 63.6004C143.774 63.4644 143.727 63.3306 143.636 63.2283C143.543 63.1283 143.415 63.0677 143.277 63.0595C143.14 63.0514 143.004 63.0964 142.9 63.1849L136.775 68.4709C133.252 71.5107 129.097 73.7659 124.596 75.0807C120.096 76.3955 115.357 76.7386 110.708 76.0863L110.554 77.1012Z" fill="#3E4244" />
	<path d="M116.795 178.29L121.738 178.137L124.47 177.775L125.21 183.128L122.478 183.49L114.562 185.364L111.744 185.737L108.564 178.979L107.098 175.246L114.725 172.376L116.192 176.108L116.795 178.29Z" fill="#4ACBD3" />
	<path d="M126.518 183.969L112.985 186.432C112.755 186.474 112.55 186.605 112.417 186.794C112.284 186.984 112.234 187.217 112.276 187.444C112.319 187.67 112.452 187.87 112.646 188C112.84 188.13 113.079 188.18 113.31 188.138L126.842 185.676C127.073 185.633 127.277 185.503 127.41 185.313C127.543 185.124 127.594 184.89 127.551 184.664C127.53 184.552 127.486 184.445 127.423 184.35C127.36 184.254 127.278 184.172 127.182 184.107C127.086 184.042 126.978 183.997 126.864 183.973C126.75 183.95 126.632 183.948 126.518 183.969Z" fill="#3E4244" />
	<path d="M115.194 174.598C114.674 174.885 114.087 175.043 113.566 175.316C113.36 175.428 113.208 175.614 113.143 175.834C113.077 176.055 113.103 176.292 113.215 176.494C113.328 176.696 113.519 176.845 113.744 176.91C113.97 176.974 114.212 176.948 114.419 176.838C114.947 176.555 115.541 176.392 116.068 176.107C116.272 175.993 116.422 175.805 116.485 175.583C116.547 175.361 116.517 175.124 116.401 174.924C116.344 174.825 116.268 174.738 116.176 174.668C116.084 174.598 115.979 174.546 115.867 174.516C115.755 174.485 115.637 174.477 115.522 174.491C115.406 174.505 115.295 174.541 115.194 174.598V174.598Z" fill="#3E4244" />
	<path d="M115.953 177.26C115.451 177.635 114.975 178.04 114.464 178.408C114.274 178.544 114.147 178.748 114.111 178.975C114.074 179.202 114.131 179.435 114.269 179.621C114.408 179.806 114.616 179.931 114.848 179.967C115.08 180.003 115.317 179.947 115.507 179.813C116.027 179.442 116.514 179.024 117.026 178.642C117.213 178.502 117.336 178.296 117.368 178.069C117.399 177.841 117.337 177.61 117.195 177.427C117.053 177.244 116.842 177.124 116.609 177.092C116.376 177.061 116.14 177.121 115.953 177.26V177.26Z" fill="#3E4244" />
	<path d="M175.797 125.448V182.973C175.797 183.089 175.821 183.203 175.866 183.31C175.911 183.417 175.978 183.514 176.061 183.596C176.145 183.678 176.244 183.743 176.353 183.787C176.463 183.831 176.58 183.854 176.698 183.854C176.937 183.854 177.165 183.761 177.334 183.596C177.503 183.431 177.598 183.207 177.598 182.973V125.448C177.598 125.215 177.503 124.991 177.335 124.825C177.166 124.66 176.937 124.567 176.698 124.567C176.459 124.567 176.23 124.66 176.061 124.825C175.892 124.991 175.797 125.215 175.797 125.448V125.448Z" fill="#3E4244" />
	<path d="M176.062 159.784L200.355 183.592C200.524 183.758 200.754 183.85 200.992 183.85C201.231 183.85 201.46 183.758 201.629 183.592C201.798 183.427 201.893 183.203 201.893 182.97C201.893 182.736 201.798 182.512 201.629 182.347L177.335 158.537C177.167 158.372 176.938 158.279 176.699 158.279C176.46 158.279 176.232 158.372 176.063 158.537C175.894 158.702 175.799 158.926 175.799 159.16C175.798 159.394 175.893 159.618 176.062 159.784V159.784Z" fill="#3E4244" />
	<path d="M176.063 158.538L151.769 182.348C151.6 182.513 151.505 182.737 151.505 182.971C151.505 183.204 151.6 183.428 151.769 183.593C151.938 183.759 152.167 183.851 152.406 183.851C152.645 183.851 152.874 183.759 153.043 183.593L177.335 159.785C177.504 159.619 177.599 159.395 177.599 159.161C177.599 158.928 177.504 158.704 177.335 158.538C177.166 158.373 176.938 158.28 176.699 158.28C176.46 158.28 176.231 158.373 176.063 158.538V158.538Z" fill="#3E4244" />
	<path d="M134.054 1.02824V42.3527C134.054 42.4892 133.999 42.6201 133.9 42.7167C133.802 42.8132 133.668 42.8674 133.529 42.8674C133.389 42.8671 133.256 42.8128 133.157 42.7163C133.059 42.6198 133.004 42.489 133.004 42.3527V0.514676C133.004 0.378368 133.059 0.247626 133.157 0.151138C133.256 0.0546491 133.389 0.000295039 133.529 0H219.813C219.882 -1.58891e-07 219.95 0.0133201 220.014 0.0391987C220.077 0.0650772 220.135 0.103005 220.184 0.150812C220.233 0.198619 220.271 0.255365 220.298 0.317802C220.324 0.380239 220.338 0.44714 220.337 0.514676V115.499C220.337 115.635 220.282 115.766 220.183 115.862C220.085 115.958 219.952 116.012 219.813 116.013H133.529C133.389 116.012 133.256 115.958 133.158 115.862C133.059 115.766 133.004 115.635 133.004 115.499V91.2804C133.004 91.2129 133.017 91.1461 133.043 91.0837C133.07 91.0213 133.108 90.9647 133.157 90.9169C133.206 90.8692 133.264 90.8314 133.328 90.8056C133.391 90.7799 133.46 90.7667 133.529 90.7668C133.598 90.7665 133.666 90.7796 133.73 90.8053C133.794 90.831 133.852 90.8688 133.901 90.9165C133.95 90.9643 133.988 91.021 134.015 91.0834C134.041 91.1459 134.055 91.2128 134.054 91.2804V114.987H219.281V1.02824H134.054Z" fill="#3E4244" />
	<path d="M239 37.6638L186.193 85.961C186.099 86.0459 185.976 86.0945 185.848 86.0978C185.72 86.101 185.596 86.0588 185.497 85.9788L164.003 68.3706L142.919 90.0327C142.871 90.0816 142.814 90.1208 142.751 90.1481C142.688 90.1753 142.62 90.19 142.551 90.1913C142.482 90.1927 142.413 90.1806 142.349 90.1559C142.284 90.1312 142.226 90.0942 142.176 90.0472C142.075 89.953 142.017 89.8235 142.013 89.6871C142.01 89.5507 142.062 89.4186 142.158 89.3197L163.582 67.3167C163.674 67.2222 163.8 67.1656 163.933 67.1584C164.066 67.1511 164.197 67.1938 164.299 67.2778L185.814 84.9038L238.283 36.913" fill="#4ACBD3" />
	<path d="M195.099 98.6741H190.592V104.117H195.099V98.6741Z" fill="#4ACBD3" />
	<path d="M202.92 91.5478H198.413V104.116H202.92V91.5478Z" fill="#4ACBD3" />
	<path d="M210.748 84.4604H206.242V104.116H210.748V84.4604Z" fill="#4ACBD3" />
	<path d="M190.037 12.8725C185.153 12.8725 180.469 14.7712 177.016 18.1509C173.562 21.5305 171.622 26.1144 171.622 30.894C171.622 40.8399 179.873 48.9154 190.037 48.9154C192.455 48.9156 194.849 48.4495 197.083 47.5439C199.317 46.6382 201.347 45.3107 203.057 43.6372L196.547 37.2661C194.819 38.9543 192.478 39.9023 190.037 39.9019C187.595 39.9007 185.254 38.951 183.527 37.2613C181.801 35.5716 180.83 33.2802 180.829 30.8906C180.829 28.5009 181.799 26.2091 183.526 24.5194C185.253 22.8297 187.595 21.8804 190.037 21.8804V12.8725Z" fill="#4ACBD3" />
	<path d="M190.034 9.31879C177.867 9.31879 167.989 18.9862 167.989 30.894C167.989 42.8017 177.867 52.4692 190.034 52.4692C202.202 52.4692 212.08 42.7984 212.08 30.894C212.08 18.9896 202.206 9.31879 190.034 9.31879ZM190.034 10.347C201.622 10.347 211.029 19.5544 211.029 30.894C211.029 42.2336 201.622 51.4409 190.034 51.4409C178.446 51.4409 169.039 42.2347 169.039 30.894C169.039 19.5533 178.446 10.347 190.034 10.347ZM190.034 25.1156C188.468 25.1161 186.967 25.7251 185.86 26.8086C184.752 27.8921 184.13 29.3615 184.129 30.894C184.13 32.4262 184.753 33.8954 185.86 34.9786C186.967 36.0619 188.469 36.6707 190.034 36.6713C191.601 36.6722 193.104 36.064 194.212 34.9806C195.321 33.8972 195.944 32.4272 195.946 30.894C195.945 30.1347 195.792 29.383 195.495 28.6816C195.197 27.9803 194.762 27.3432 194.213 26.8066C193.664 26.2701 193.012 25.8445 192.295 25.5544C191.579 25.2642 190.81 25.1151 190.034 25.1156V25.1156ZM190.034 26.1427C191.322 26.1433 192.556 26.644 193.467 27.535C194.377 28.4259 194.889 29.634 194.889 30.894C194.889 32.1539 194.377 33.3621 193.467 34.253C192.556 35.1439 191.322 35.6447 190.034 35.6453C188.747 35.6447 187.512 35.1439 186.602 34.253C185.692 33.3621 185.18 32.1539 185.179 30.894C185.18 29.634 185.692 28.4259 186.602 27.535C187.512 26.644 188.747 26.1433 190.034 26.1427V26.1427Z" fill="#3E4244" />
	<path d="M215.113 14.6917L206.76 28.8642C206.725 28.9227 206.679 28.9739 206.625 29.015C206.57 29.0562 206.507 29.0863 206.441 29.1038C206.374 29.1213 206.305 29.1258 206.236 29.1169C206.168 29.1081 206.102 29.0862 206.042 29.0525C205.983 29.0189 205.93 28.9741 205.888 28.9206C205.846 28.867 205.815 28.8059 205.797 28.7407C205.779 28.6755 205.775 28.6074 205.784 28.5405C205.793 28.4736 205.815 28.409 205.85 28.3506L214.354 13.9219C214.4 13.8435 214.467 13.7784 214.547 13.7332C214.627 13.688 214.717 13.6643 214.81 13.6646H233.965C234.034 13.6644 234.103 13.6776 234.166 13.7033C234.23 13.7291 234.288 13.7669 234.337 13.8146C234.386 13.8623 234.425 13.9189 234.451 13.9813C234.478 14.0437 234.491 14.1106 234.491 14.1781C234.491 14.2457 234.478 14.3125 234.451 14.3749C234.425 14.4373 234.386 14.4939 234.337 14.5417C234.288 14.5894 234.23 14.6272 234.166 14.6529C234.103 14.6786 234.034 14.6918 233.965 14.6917H215.113Z" fill="#3E4244" />
	<path d="M158.609 92.1081H174.751C174.891 92.1081 175.024 92.054 175.122 91.9577C175.221 91.8614 175.276 91.7308 175.276 91.5946C175.276 91.4583 175.221 91.3275 175.123 91.231C175.024 91.1345 174.891 91.0802 174.751 91.0799H158.609C158.47 91.0802 158.336 91.1345 158.238 91.231C158.139 91.3275 158.084 91.4583 158.084 91.5946C158.084 91.7308 158.14 91.8614 158.238 91.9577C158.336 92.054 158.47 92.1081 158.609 92.1081Z" fill="#3E4244" />
	<path d="M158.609 97.236H174.751C174.89 97.2357 175.024 97.1815 175.122 97.0852C175.22 96.989 175.276 96.8585 175.276 96.7224C175.276 96.5861 175.221 96.4553 175.123 96.3588C175.024 96.2624 174.891 96.208 174.751 96.2077H158.609C158.47 96.208 158.336 96.2624 158.238 96.3588C158.139 96.4553 158.084 96.5861 158.084 96.7224C158.085 96.8585 158.14 96.989 158.238 97.0852C158.337 97.1815 158.47 97.2357 158.609 97.236V97.236Z" fill="#3E4244" />
	<path d="M158.609 102.363H166.681C166.82 102.362 166.953 102.308 167.052 102.212C167.15 102.116 167.205 101.985 167.206 101.849C167.206 101.713 167.15 101.582 167.052 101.486C166.954 101.389 166.82 101.335 166.681 101.334H158.609C158.47 101.335 158.336 101.389 158.238 101.486C158.139 101.582 158.084 101.713 158.084 101.849C158.085 101.985 158.14 102.116 158.238 102.212C158.337 102.308 158.47 102.362 158.609 102.363Z" fill="#3E4244" />
	<path d="M191.78 72.7565L207.631 58.1139C207.681 58.0641 207.74 58.0245 207.806 57.9977C207.871 57.9709 207.941 57.9573 208.012 57.9578C208.083 57.9583 208.153 57.9728 208.219 58.0005C208.284 58.0282 208.342 58.0685 208.391 58.119C208.44 58.1695 208.478 58.2291 208.502 58.2942C208.527 58.3594 208.538 58.4287 208.534 58.4981C208.53 58.5675 208.513 58.6354 208.482 58.6978C208.45 58.7603 208.407 58.8159 208.353 58.8614L192.27 73.7191C192.2 73.7834 192.113 73.8278 192.018 73.8475C191.924 73.8671 191.826 73.8612 191.735 73.8305L176.994 68.775L164.749 82.864C164.686 82.9364 164.603 82.9902 164.511 83.0193C164.418 83.0484 164.319 83.0518 164.224 83.0289L143.507 78.0838C143.372 78.0503 143.255 77.9661 143.183 77.8493C143.111 77.7326 143.089 77.5927 143.121 77.4599C143.137 77.3944 143.167 77.3327 143.208 77.2784C143.249 77.2241 143.3 77.1782 143.359 77.1434C143.418 77.1086 143.484 77.0856 143.552 77.0757C143.62 77.0658 143.689 77.0691 143.756 77.0856L164.165 81.9572L176.434 67.8393C176.502 67.7611 176.593 67.7049 176.695 67.6779C176.796 67.6508 176.903 67.6543 177.003 67.6878L191.78 72.7565Z" fill="#3E4244" />
	<path d="M148.456 14.1792H140.807V21.6654H148.456V14.1792Z" fill="#4ACBD3" />
	<path d="M148.986 14.1792C148.986 14.1111 148.972 14.0437 148.945 13.9809C148.919 13.918 148.879 13.8609 148.83 13.8129C148.781 13.7649 148.722 13.7268 148.658 13.701C148.594 13.6752 148.525 13.662 148.455 13.6623H140.807C140.667 13.6635 140.534 13.7184 140.436 13.8152C140.338 13.912 140.282 14.0428 140.282 14.1792V21.6621C140.281 21.8 140.335 21.9328 140.433 22.0316C140.532 22.1303 140.666 22.1869 140.807 22.189H148.455C148.596 22.1884 148.731 22.1331 148.831 22.0351C148.93 21.9372 148.986 21.8046 148.986 21.6665V14.1792ZM141.336 14.6961V21.1452H147.926V14.6961H141.336Z" fill="#4ACBD3" />
	<path d="M148.986 25.7171C148.986 25.6487 148.973 25.581 148.946 25.5177C148.92 25.4545 148.881 25.397 148.831 25.3486C148.782 25.3002 148.723 25.2619 148.659 25.2359C148.594 25.2098 148.525 25.1965 148.455 25.1968H140.807C140.737 25.1967 140.669 25.21 140.604 25.2358C140.54 25.2617 140.482 25.2998 140.432 25.3478C140.383 25.3958 140.344 25.4528 140.317 25.5156C140.29 25.5784 140.277 25.6457 140.276 25.7137V33.1966C140.276 33.3347 140.332 33.4672 140.431 33.5652C140.531 33.6631 140.666 33.7185 140.807 33.7191H148.455C148.596 33.7185 148.731 33.6631 148.831 33.5652C148.93 33.4672 148.986 33.3347 148.986 33.1966V25.7171ZM141.336 26.234V32.683H147.926V26.234H141.336Z" fill="#4ACBD3" />
	<path d="M160.443 14.1792C160.443 14.1111 160.429 14.0437 160.402 13.9809C160.376 13.918 160.337 13.8609 160.287 13.8129C160.238 13.7649 160.179 13.7268 160.115 13.701C160.051 13.6752 159.982 13.662 159.912 13.6623H152.264C152.194 13.6622 152.126 13.6754 152.061 13.7013C151.997 13.7272 151.939 13.7652 151.889 13.8132C151.84 13.8612 151.801 13.9183 151.774 13.981C151.748 14.0438 151.734 14.1112 151.734 14.1792V21.6621C151.733 21.7308 151.746 21.799 151.772 21.8628C151.799 21.9265 151.837 21.9846 151.887 22.0335C151.936 22.0825 151.995 22.1215 152.06 22.1481C152.124 22.1748 152.194 22.1887 152.264 22.189H159.912C160.053 22.1884 160.188 22.1331 160.288 22.0351C160.387 21.9372 160.443 21.8046 160.443 21.6665V14.1792ZM152.793 14.6961V21.1452H159.383V14.6961H152.793Z" fill="#4ACBD3" />
	<path d="M160.443 25.7171C160.443 25.6487 160.43 25.581 160.403 25.5177C160.377 25.4545 160.338 25.397 160.288 25.3486C160.239 25.3002 160.181 25.2619 160.116 25.2359C160.051 25.2098 159.982 25.1965 159.912 25.1968H152.264C152.195 25.1967 152.126 25.21 152.061 25.2358C151.997 25.2617 151.939 25.2998 151.889 25.3478C151.84 25.3958 151.801 25.4528 151.774 25.5156C151.748 25.5784 151.734 25.6457 151.734 25.7137V33.1966C151.733 33.3347 151.789 33.4672 151.888 33.5652C151.988 33.6631 152.123 33.7185 152.264 33.7191H159.912C160.053 33.7185 160.189 33.6631 160.288 33.5652C160.387 33.4672 160.443 33.3347 160.443 33.1966V25.7171ZM152.793 26.234V32.683H159.383V26.234H152.793Z" fill="#3E4244" />
	<path d="M200.041 141.47L211.391 143.576L202.192 152.579L200.041 141.47Z" fill="#3E4244" />
	<path d="M24.0832 46.8322L24.9427 58.1061L13.6757 51.7406L24.0832 46.8322Z" fill="#3E4244" />
	<path d="M140.944 152.815C142.58 152.815 143.907 151.517 143.907 149.916C143.907 148.314 142.58 147.016 140.944 147.016C139.307 147.016 137.98 148.314 137.98 149.916C137.98 151.517 139.307 152.815 140.944 152.815Z" fill="#4ACBD3" />
	<path d="M23.5232 154.583C21.9102 154.583 20.2881 153.581 19.7201 152.087C19.2887 150.949 19.4435 149.775 19.5949 148.64C19.7269 147.637 19.8533 146.689 19.5744 145.835C18.9893 144.044 16.7115 143.223 14.8481 143.465C12.7661 143.736 10.8777 144.993 9.21234 146.1L8.14233 146.812L8.3108 145.556C8.57716 143.59 8.87995 141.363 8.3108 139.369C7.82474 137.671 6.36884 135.77 4.3267 135.603C3.3819 135.527 2.32099 136.034 1.68695 136.864C1.18154 137.532 1.03812 138.277 1.29424 138.921L0.212842 139.334C-0.191258 138.316 0.00681231 137.169 0.758098 136.185C1.63574 135.035 3.07342 134.361 4.42232 134.472C7.01995 134.683 8.84011 137 9.43089 139.062C9.94313 140.844 9.83727 142.72 9.6301 144.465C11.1349 143.502 12.8071 142.588 14.7036 142.34C17.0086 142.04 19.8886 143.042 20.6865 145.49C21.044 146.586 20.896 147.704 20.7525 148.786C20.6148 149.831 20.4839 150.817 20.8152 151.691C21.2978 152.961 22.9404 153.748 24.262 153.341C25.5835 152.935 26.4691 151.369 26.1208 150.057L27.2443 149.772C27.7452 151.666 26.5147 153.838 24.6091 154.424C24.2577 154.531 23.8914 154.585 23.5232 154.583Z" fill="#3E4244" />
	<path d="M224.095 180.548C223.236 180.548 222.397 180.299 221.683 179.832C220.97 179.365 220.413 178.702 220.085 177.925C219.756 177.149 219.67 176.295 219.838 175.471C220.006 174.647 220.419 173.89 221.026 173.296C221.633 172.702 222.407 172.298 223.249 172.134C224.091 171.97 224.964 172.054 225.757 172.376C226.55 172.698 227.228 173.242 227.704 173.941C228.181 174.64 228.436 175.461 228.435 176.301C228.434 177.427 227.976 178.507 227.162 179.303C226.349 180.099 225.246 180.547 224.095 180.548ZM224.095 173.189C223.466 173.189 222.851 173.371 222.328 173.713C221.805 174.055 221.397 174.541 221.157 175.11C220.916 175.679 220.853 176.305 220.976 176.908C221.098 177.512 221.401 178.067 221.846 178.502C222.291 178.937 222.858 179.234 223.474 179.354C224.091 179.474 224.731 179.412 225.312 179.177C225.893 178.941 226.39 178.542 226.739 178.03C227.089 177.519 227.275 176.917 227.275 176.301C227.274 175.476 226.938 174.686 226.342 174.102C225.746 173.519 224.938 173.19 224.095 173.189Z" fill="#3E4244" />
	<path d="M9.12013 88.5199C7.99047 88.5184 6.90744 88.0789 6.10822 87.2976C5.309 86.5162 4.85873 85.4568 4.85602 84.3512C4.85722 83.2447 5.30682 82.1838 6.1062 81.4013C6.90559 80.6188 7.98948 80.1785 9.12013 80.177C10.251 80.1782 11.3352 80.6183 12.1348 81.4009C12.9344 82.1835 13.3842 83.2445 13.3854 84.3512C13.3827 85.457 12.9322 86.5166 12.1328 87.298C11.3333 88.0793 10.25 88.5187 9.12013 88.5199V88.5199ZM9.12013 81.3066C8.29604 81.3078 7.50614 81.6292 6.92406 82.2001C6.34198 82.771 6.01535 83.5447 6.01595 84.3512C6.01685 85.1568 6.34416 85.9291 6.92607 86.4988C7.50799 87.0685 8.29703 87.3891 9.12013 87.3903C9.94284 87.3885 10.7313 87.0676 11.3127 86.498C11.8941 85.9284 12.2211 85.1564 12.222 84.3512C12.2226 83.5451 11.8963 82.7717 11.3147 82.2009C10.7331 81.63 9.94383 81.3084 9.12013 81.3066V81.3066Z" fill="#3E4244" />
</svg>
