<svg width="17" height="17" viewBox="0 0 17 17" fill="none" xmlns="http://www.w3.org/2000/svg">
	<path d="M10.2 0.527266C9.99611 0.476133 9.79225 0.527266 9.62225 0.663398C9.46951 0.799531 9.36725 0.986126 9.36725 1.19067V4.42067C9.36725 4.70953 9.53725 4.94794 9.80952 5.04953C11.1868 5.5934 12.1219 6.93687 12.1219 8.4157C12.1219 8.51797 12.1219 8.61957 12.1046 8.72184C12.0873 9.0107 12.2235 9.2657 12.4785 9.38457L15.3685 10.7957C15.4707 10.8468 15.5723 10.8634 15.6746 10.8634C15.7769 10.8634 15.8785 10.8462 15.9635 10.7957C16.1507 10.7107 16.2862 10.5407 16.3373 10.3368C16.5073 9.67411 16.5751 9.02798 16.5751 8.39918C16.5751 4.64133 13.8889 1.30899 10.2001 0.527331L10.2 0.527266ZM15.1638 9.19726L13.4811 8.38113C13.4638 6.52847 12.3761 4.82847 10.7437 3.99496V2.09113C13.3787 3.02613 15.2314 5.55879 15.2314 8.41496C15.2148 8.66996 15.1975 8.92496 15.1637 9.19723L15.1638 9.19726Z" fill="#3E4244" />
	<path d="M14.6027 12.3588L11.7127 10.9477C11.4577 10.8288 11.1515 10.8627 10.9477 11.0665C10.2677 11.6954 9.40039 12.0354 8.5 12.0354C6.51117 12.0354 4.89617 10.4204 4.89617 8.43157C4.89617 6.95271 5.83117 5.60923 7.20851 5.0654C7.46351 4.96314 7.65078 4.70813 7.65078 4.43654L7.65012 1.18988C7.65012 0.986016 7.56512 0.782152 7.39512 0.662608C7.24238 0.526475 7.02125 0.475336 6.81739 0.526475C3.11122 1.30875 0.425049 4.64099 0.425049 8.41481C0.425049 12.8686 4.04622 16.4898 8.50005 16.4898C10.9824 16.4898 13.2939 15.3675 14.8412 13.396C14.9601 13.226 15.0112 13.0221 14.9773 12.8183C14.9262 12.631 14.7901 12.461 14.6028 12.3587L14.6027 12.3588ZM8.5 15.13C4.79383 15.13 1.785 12.1211 1.785 8.41498C1.785 5.55881 3.62117 3.02615 6.27266 2.09115V3.97849C4.60652 4.81122 3.53532 6.54583 3.53532 8.41583C3.53532 11.1532 5.76266 13.397 8.51649 13.397C9.60422 13.397 10.6588 13.0397 11.5253 12.377L13.208 13.2097C11.951 14.4329 10.2849 15.1302 8.4999 15.1302L8.5 15.13Z" fill="#3E4244" />
</svg>
