<svg width="237" height="222" viewBox="0 0 237 222" fill="none" xmlns="http://www.w3.org/2000/svg">
	<g clip-path="url(#clip0_98_16976)">
		<path d="M239.309 190L220 199.909L220.469 200.82L239.778 190.911L239.309 190Z" fill="#3E4244" />
		<path d="M243.051 197.267L223.742 207.176L224.211 208.087L243.52 198.178L243.051 197.267Z" fill="#3E4244" />
		<path d="M240.033 208.007L227.486 214.447L227.955 215.357L240.503 208.918L240.033 208.007Z" fill="#3E4244" />
		<path d="M92.0688 96.9893C98.9796 85.0444 114.283 80.9518 126.251 87.8484C138.218 94.7449 142.321 110.019 135.416 121.964L92.0688 96.9893Z" fill="#4ACBD3" />
		<path d="M44.7934 185.33L45.9501 181.877L48.2977 176.903L58.2664 181.589L55.9188 186.564L52.292 192.365L50.6818 195.774L39.0747 192.141L35.4456 191.318L37.0887 184.076L40.7179 184.899L44.7934 185.33Z" fill="#4ACBD3" />
		<path d="M32.4667 194.06L48.4981 199.215C48.7296 199.29 48.9812 199.269 49.1976 199.158C49.4139 199.048 49.5773 198.855 49.6518 198.624C49.7264 198.393 49.7059 198.142 49.5949 197.926C49.4838 197.71 49.2914 197.547 49.06 197.473L33.0333 192.317C32.9187 192.281 32.7979 192.267 32.6779 192.276C32.5579 192.286 32.441 192.319 32.3339 192.374C32.2267 192.429 32.1314 192.505 32.0535 192.596C31.9756 192.688 31.9164 192.794 31.8795 192.908C31.8427 193.023 31.8287 193.143 31.8385 193.263C31.8483 193.383 31.8816 193.499 31.9365 193.606C31.9915 193.713 32.067 193.808 32.1588 193.886C32.2506 193.964 32.3568 194.023 32.4715 194.06H32.4667Z" fill="#3E4244" />
		<path d="M46.0127 181.436C46.7325 181.917 47.5652 182.205 48.2885 182.672C48.4925 182.797 48.7372 182.837 48.9704 182.784C49.2036 182.731 49.4069 182.589 49.5369 182.389C49.667 182.188 49.7136 181.945 49.6667 181.711C49.6199 181.477 49.4833 181.271 49.2862 181.136C48.57 180.672 47.7454 180.389 47.0304 179.914C46.8274 179.779 46.5791 179.731 46.34 179.779C46.101 179.827 45.8909 179.968 45.756 180.17C45.621 180.373 45.5723 180.621 45.6204 180.859C45.6686 181.098 45.8097 181.308 46.0127 181.442V181.436Z" fill="#3E4244" />
		<path d="M44.4084 185.067C45.0974 185.677 45.7477 186.336 46.4497 186.93C46.6363 187.081 46.8745 187.152 47.1132 187.129C47.3518 187.106 47.5721 186.991 47.7268 186.808C47.8815 186.626 47.9583 186.39 47.9409 186.151C47.9235 185.912 47.8131 185.69 47.6335 185.531C46.9409 184.944 46.3013 184.297 45.6216 183.696C45.4388 183.54 45.202 183.462 44.9622 183.479C44.7224 183.496 44.4988 183.606 44.3397 183.786C44.1805 183.966 44.0986 184.201 44.1114 184.441C44.1243 184.68 44.2309 184.905 44.4084 185.067Z" fill="#3E4244" />
		<path d="M16.996 157.816L20.035 155.803L24.9516 153.322L29.9235 163.137L25.0069 165.619L18.5732 167.97L15.2008 169.673L8.2877 159.679L5.93188 156.805L11.6907 152.102L14.0465 154.977L16.996 157.816Z" fill="#4ACBD3" />
		<path d="M20.346 155.494C20.6181 156.317 21.0974 157.053 21.3801 157.865C21.4623 158.091 21.6304 158.276 21.848 158.38C22.0657 158.484 22.3154 158.497 22.5433 158.419C22.7711 158.34 22.9587 158.175 23.0655 157.959C23.1723 157.743 23.1898 157.494 23.114 157.266C22.8349 156.46 22.3578 155.737 22.0869 154.914C22.0521 154.796 21.994 154.687 21.9158 154.592C21.8377 154.497 21.7412 154.418 21.6322 154.361C21.5231 154.304 21.4036 154.27 21.2809 154.26C21.1582 154.25 21.0347 154.265 20.9179 154.303C20.801 154.342 20.6932 154.404 20.6007 154.485C20.5083 154.566 20.4331 154.665 20.3797 154.776C20.3264 154.887 20.2959 155.007 20.2901 155.13C20.2843 155.252 20.3033 155.375 20.346 155.49V155.494Z" fill="#3E4244" />
		<path d="M16.8429 157.37C17.0113 158.274 17.1173 159.193 17.3046 160.093C17.3261 160.214 17.3717 160.329 17.4386 160.432C17.5056 160.535 17.5926 160.623 17.6945 160.692C17.7963 160.761 17.911 160.808 18.0316 160.832C18.1522 160.855 18.2764 160.855 18.3967 160.829C18.517 160.804 18.631 160.755 18.7319 160.685C18.8328 160.615 18.9186 160.526 18.9842 160.422C19.0498 160.318 19.0938 160.202 19.1137 160.081C19.1335 159.96 19.1288 159.836 19.0998 159.717C18.9148 158.83 18.8112 157.925 18.6451 157.035C18.623 156.917 18.5779 156.804 18.5123 156.704C18.4466 156.603 18.3617 156.516 18.2625 156.448C18.1632 156.38 18.0515 156.333 17.9338 156.308C17.816 156.283 17.6945 156.281 17.5761 156.303C17.4578 156.325 17.345 156.37 17.2441 156.436C17.1432 156.501 17.0562 156.586 16.9881 156.685C16.92 156.784 16.8722 156.896 16.8472 157.013C16.8223 157.131 16.8209 157.252 16.8429 157.37Z" fill="#3E4244" />
		<path d="M110.018 67.5631C107.571 72.829 109.325 79.3282 115.04 79.7326C116.024 79.802 117.077 79.5128 118 79.1448C120.131 78.2971 121.479 76.7041 122.488 74.7653C123.445 72.9254 124.093 70.768 124.867 68.6965C124.917 68.5618 124.912 68.4126 124.852 68.2817C124.792 68.1508 124.683 68.049 124.548 67.9987C124.413 67.9483 124.264 67.9535 124.132 68.0132C124.001 68.0728 123.899 68.182 123.849 68.3167C123.09 70.3483 122.461 72.4622 121.524 74.2657C120.637 75.9692 119.472 77.3907 117.599 78.136C116.823 78.4452 115.943 78.7074 115.117 78.6486C110.17 78.2959 108.886 72.5774 111.004 68.0181C111.064 67.8876 111.071 67.7384 111.021 67.6034C110.971 67.4683 110.87 67.3585 110.739 67.298C110.609 67.2375 110.459 67.2313 110.324 67.2808C110.188 67.3303 110.078 67.4314 110.018 67.5619V67.5631Z" fill="#3E4244" />
		<path d="M124.382 69.0586C125.744 69.0057 127.247 68.6883 128.231 67.6784C129.833 66.0324 129.747 62.8733 127.406 61.9175C126.505 61.5483 125.545 61.7047 124.609 61.7658C124.537 61.7698 124.467 61.7879 124.402 61.8191C124.338 61.8502 124.28 61.8939 124.232 61.9475C124.185 62.0011 124.148 62.0636 124.125 62.1313C124.102 62.1991 124.092 62.2708 124.097 62.3423C124.101 62.4138 124.12 62.4836 124.152 62.5478C124.184 62.6119 124.228 62.6692 124.282 62.7162C124.337 62.7631 124.4 62.7989 124.468 62.8215C124.536 62.844 124.608 62.8528 124.679 62.8475C125.453 62.7981 126.249 62.6123 126.994 62.9204C128.615 63.5835 128.562 65.7855 127.452 66.9248C126.663 67.736 125.436 67.9347 124.342 67.9758C124.201 67.985 124.069 68.0489 123.974 68.154C123.879 68.2591 123.829 68.397 123.834 68.5384C123.839 68.6798 123.9 68.8136 124.002 68.9112C124.105 69.0088 124.242 69.0625 124.384 69.061L124.382 69.0586Z" fill="#3E4244" />
		<path d="M132.448 164.792H98.3955V170.685H132.448V164.792Z" fill="#3E4244" />
		<path d="M114.488 170.685V202.381C114.488 202.503 114.512 202.624 114.559 202.737C114.606 202.85 114.674 202.953 114.761 203.039C114.847 203.125 114.95 203.194 115.063 203.24C115.176 203.287 115.297 203.311 115.42 203.311C115.542 203.311 115.663 203.287 115.776 203.24C115.889 203.194 115.992 203.125 116.079 203.039C116.165 202.953 116.234 202.85 116.281 202.737C116.327 202.624 116.351 202.503 116.351 202.381V170.685C116.351 170.563 116.327 170.442 116.281 170.329C116.234 170.216 116.165 170.114 116.079 170.027C115.992 169.941 115.889 169.872 115.776 169.826C115.663 169.779 115.542 169.755 115.42 169.755C115.297 169.755 115.176 169.779 115.063 169.826C114.95 169.872 114.847 169.941 114.761 170.027C114.674 170.114 114.606 170.216 114.559 170.329C114.512 170.442 114.488 170.563 114.488 170.685Z" fill="#3E4244" />
		<path d="M114.585 167.332L97.558 201.975C97.4486 202.196 97.4319 202.452 97.5115 202.686C97.5912 202.92 97.7606 203.112 97.9826 203.221C98.2046 203.331 98.4608 203.347 98.6951 203.268C98.9294 203.188 99.1224 203.019 99.2318 202.798L116.257 168.155C116.367 167.933 116.383 167.678 116.304 167.444C116.264 167.328 116.203 167.221 116.122 167.13C116.041 167.038 115.943 166.963 115.833 166.909C115.611 166.799 115.355 166.783 115.121 166.862C114.887 166.941 114.694 167.11 114.585 167.332Z" fill="#3E4244" />
		<path d="M114.585 168.151L131.61 202.794C131.719 203.015 131.912 203.184 132.147 203.264C132.381 203.343 132.637 203.326 132.859 203.217C133.081 203.108 133.25 202.915 133.329 202.682C133.409 202.448 133.392 202.192 133.283 201.971L116.257 167.328C116.148 167.107 115.955 166.938 115.721 166.859C115.487 166.779 115.23 166.796 115.009 166.905C114.787 167.014 114.618 167.207 114.538 167.44C114.459 167.674 114.475 167.93 114.585 168.151Z" fill="#3E4244" />
		<path d="M83.2347 147.171L63.2267 179.319C63.1543 179.436 63.0402 179.521 62.9075 179.557C62.7748 179.593 62.6334 179.577 62.5117 179.513L49.1848 172.527C49.1206 172.494 49.0637 172.448 49.0176 172.392C48.9715 172.336 48.937 172.272 48.9163 172.203C48.8955 172.133 48.8889 172.061 48.8968 171.989C48.9047 171.917 48.9269 171.847 48.9622 171.784L64.2915 144.205C66.5432 140.154 69.8398 136.778 73.8394 134.428C77.8389 132.078 82.3957 130.838 87.037 130.839H137.687C137.801 130.838 137.913 130.874 138.005 130.941C138.098 131.007 138.167 131.102 138.203 131.21C138.203 131.21 141.699 141.842 136.248 149.42C133.908 152.672 129.929 155.384 123.305 156.433C103.647 159.548 86.289 149.135 83.2347 147.171ZM137.278 131.922H87.037C82.5903 131.923 78.2247 133.111 74.393 135.363C70.5613 137.615 67.403 140.849 65.2456 144.73L50.1825 171.828L62.5694 178.327L82.6056 146.134C82.6442 146.072 82.6952 146.017 82.7555 145.975C82.8158 145.933 82.8841 145.903 82.9563 145.888C83.0284 145.873 83.1029 145.873 83.175 145.888C83.2472 145.903 83.3156 145.932 83.376 145.974C83.376 145.974 101.884 158.734 123.129 155.37C129.378 154.38 133.153 151.863 135.359 148.796C139.931 142.434 137.819 133.806 137.278 131.925V131.922Z" fill="#3E4244" />
		<path d="M33.72 159.847L54.695 148.935C54.7583 148.902 54.8275 148.881 54.8986 148.875C54.9696 148.869 55.0413 148.877 55.1094 148.898C55.1774 148.919 55.2407 148.954 55.2954 149C55.3501 149.045 55.3953 149.101 55.4283 149.165C55.4613 149.228 55.4816 149.297 55.4879 149.368C55.4942 149.439 55.4864 149.51 55.465 149.578C55.4436 149.646 55.409 149.709 55.3632 149.764C55.3174 149.818 55.2613 149.863 55.198 149.896L33.6953 161.088C33.6283 161.122 33.5549 161.143 33.4797 161.147C33.4045 161.152 33.329 161.141 33.2582 161.116C33.1874 161.09 33.1226 161.05 33.0681 160.998C33.0136 160.946 32.9705 160.883 32.9414 160.814L28.317 149.622C28.2656 149.497 28.2632 149.356 28.3103 149.229C28.3573 149.101 28.4505 148.996 28.5714 148.933L63.8757 130.897C63.9392 130.865 64.0084 130.845 64.0795 130.84C64.1506 130.834 64.2222 130.842 64.29 130.864C64.3579 130.886 64.4208 130.921 64.4751 130.967C64.5294 131.013 64.5741 131.07 64.6066 131.133C64.639 131.196 64.6587 131.266 64.6644 131.337C64.6701 131.407 64.6618 131.479 64.6399 131.547C64.6179 131.614 64.5828 131.677 64.5366 131.731C64.4904 131.786 64.4339 131.83 64.3704 131.863L29.5114 149.672L33.72 159.847Z" fill="#3E4244" />
		<path d="M126.571 59.9353C126.571 62.376 118.838 68.2297 110.513 67.7912C103.011 67.395 101.844 55.2984 110.513 53.148C120.751 50.6121 126.571 59.9353 126.571 59.9353Z" fill="#3E4244" />
		<path d="M123.92 62.3372C124.682 62.3199 125.443 62.4029 126.183 62.5841C128.107 63.0238 129.599 64.9225 128.068 66.7801C126.812 68.3085 121.906 68.8834 123.691 71.9025C124.916 73.9753 127.931 73.7413 129.904 73.2781C134.606 72.1788 137.968 68.2003 138.676 63.6563C139.384 59.1123 135.447 54.4025 131.009 53.4278C127.188 52.5837 122.287 53.9157 121.295 58.0871L123.92 62.3372Z" fill="#3E4244" />
		<path d="M134.201 67.2034C138.648 67.4503 142.433 68.3191 145.831 71.2924C149.682 74.6596 150.235 80.9683 145.348 83.7617C141.814 85.7816 136.819 84.8504 133.645 82.5508C132.539 81.749 131.407 80.8848 130.61 79.7926C130.357 79.4365 130.135 79.0597 129.946 78.6663C129.853 78.4805 129.643 77.9021 129.682 78.1043C129.972 79.5916 130.106 81.1717 129.081 82.4544C126.861 85.2255 122.461 83.3855 121.465 80.5944C120.254 77.2037 121.981 74.4209 123.386 71.5064L134.201 67.2034Z" fill="#3E4244" />
		<path d="M113.132 88.3528C112.661 88.776 112.163 89.164 111.555 89.3756C110.967 89.5828 110.332 89.6235 109.722 89.4932C109.295 89.4042 108.914 89.1641 108.649 88.8172C108.391 88.4562 108.262 87.9566 108.414 87.2817C108.649 86.2624 109.224 85.7627 109.847 85.0103C109.941 84.9051 110.071 84.8402 110.212 84.8294C110.353 84.8185 110.492 84.8625 110.601 84.9521C110.709 85.0417 110.779 85.1699 110.795 85.3097C110.811 85.4495 110.772 85.59 110.686 85.7016C110.177 86.3153 109.666 86.6951 109.473 87.5274C109.405 87.8143 109.418 88.0306 109.528 88.1847C109.66 88.3681 109.899 88.441 110.153 88.4715C110.505 88.5072 110.859 88.4646 111.192 88.3469C111.768 88.1459 112.211 87.725 112.647 87.3135C112.791 87.1771 113 86.8867 113.207 86.6939C113.336 86.5647 113.492 86.4649 113.664 86.4011C113.742 86.3718 113.827 86.36 113.91 86.3667C113.994 86.3734 114.076 86.3984 114.149 86.4399C114.278 86.5095 114.374 86.6263 114.419 86.7656C114.454 86.8852 114.458 87.012 114.43 87.1336C114.402 87.2641 114.288 87.4863 114.272 87.6039C114.222 87.9147 114.206 88.23 114.223 88.5444C114.266 88.9721 114.413 89.3829 114.651 89.7413C114.852 90.034 115.122 90.2738 115.485 90.2786C116.276 90.288 116.743 89.793 117.016 89.1393C117.514 87.9542 117.436 86.2765 117.21 85.3454C117.193 85.2759 117.19 85.2038 117.202 85.1332C117.213 85.0626 117.238 84.9949 117.275 84.9339C117.312 84.8729 117.361 84.8199 117.419 84.7778C117.477 84.7358 117.543 84.7055 117.612 84.6888C117.682 84.672 117.754 84.6691 117.825 84.6802C117.896 84.6913 117.964 84.7162 118.025 84.7535C118.086 84.7908 118.139 84.8397 118.181 84.8975C118.223 84.9553 118.254 85.0208 118.27 85.0902C118.537 86.1872 118.608 88.1623 118.022 89.5579C117.573 90.6266 116.767 91.3778 115.473 91.3625C115.191 91.355 114.915 91.2883 114.661 91.1667C114.407 91.0452 114.181 90.8715 113.999 90.6571C113.514 90.0869 113.215 89.3821 113.143 88.6373C113.137 88.5562 113.132 88.4551 113.132 88.3528Z" fill="#3E4244" />
		<path d="M110.867 108.911C111.838 107.05 116.905 97.676 123.288 92.0644C128.205 87.7414 133.889 85.6569 139.13 90.4373C140.528 91.7105 141.015 93.4529 140.79 95.508C140.58 97.4326 139.737 99.6452 138.475 101.974C132.731 112.599 118.3 125.877 118.3 125.877C118.235 125.937 118.157 125.98 118.072 126.002C117.987 126.025 117.898 126.027 117.812 126.008L78.3179 117.072C78.2477 117.058 78.1812 117.029 78.1221 116.988C78.063 116.948 78.0126 116.896 77.9738 116.835C77.935 116.775 77.9085 116.708 77.8959 116.637C77.8833 116.567 77.8848 116.495 77.9004 116.425C77.9159 116.355 77.9452 116.289 77.9866 116.23C78.0279 116.171 78.0805 116.122 78.1412 116.083C78.2019 116.045 78.2697 116.02 78.3404 116.008C78.4112 115.996 78.4836 115.998 78.5535 116.014L117.767 124.88C119.546 123.221 132.24 111.209 137.513 101.453C138.699 99.2608 139.508 97.1881 139.705 95.3798C139.887 93.7033 139.534 92.2678 138.392 91.2273C133.621 86.8773 128.473 88.9359 124.002 92.8733C117.03 99.0033 111.666 109.719 111.666 109.719C111.617 109.815 111.541 109.895 111.447 109.948C111.353 110.001 111.245 110.025 111.137 110.016L78.391 107.397C78.2472 107.385 78.114 107.317 78.0206 107.207C77.9271 107.098 77.8811 106.956 77.8927 106.812C77.9043 106.669 77.9725 106.536 78.0822 106.443C78.192 106.349 78.3344 106.303 78.4781 106.315L110.867 108.911Z" fill="#3E4244" />
		<path d="M78.437 121.968H19.5239V125.483H78.437V121.968Z" fill="#3E4244" />
		<path d="M10.634 96.9929H49.4379L58.3323 121.968H19.5249L10.634 96.9929Z" fill="#3E4244" />
		<path d="M78.9624 106.448C78.0082 102.583 75.6336 99.1702 71.9008 97.4655C70.8584 96.9952 68.8853 96.6143 67.5355 97.0387C67.0313 97.1802 66.5872 97.4819 66.2704 97.8981C65.9724 98.3073 65.8063 98.8516 65.8723 99.5688C65.9901 100.862 66.7675 101.507 67.7675 101.881C68.592 102.188 69.5815 102.287 70.3589 102.499C72.1163 102.978 73.5393 104.153 74.0422 105.933C74.0617 106.001 74.0945 106.065 74.1388 106.121C74.1831 106.177 74.2379 106.223 74.3002 106.258C74.3625 106.293 74.431 106.315 74.5018 106.323C74.5727 106.331 74.6445 106.326 74.7131 106.306C74.7817 106.287 74.8458 106.254 74.9017 106.21C74.9576 106.165 75.0042 106.111 75.039 106.049C75.0737 105.986 75.0958 105.918 75.1041 105.847C75.1123 105.777 75.1065 105.705 75.087 105.636C74.4734 103.479 72.7748 102.033 70.6452 101.452C69.8984 101.249 68.9419 101.162 68.1503 100.864C67.5355 100.629 67.029 100.261 66.9559 99.4677C66.9194 99.0691 66.9854 98.7623 67.1515 98.5271C67.4153 98.1627 67.8924 98.0134 68.4165 97.9534C69.4672 97.8358 70.7264 98.1156 71.4497 98.446C74.8738 100.008 77.0329 103.155 77.9081 106.699C77.9425 106.84 78.0313 106.961 78.155 107.036C78.2787 107.11 78.4272 107.133 78.5677 107.099C78.7083 107.065 78.8295 106.976 78.9046 106.853C78.9797 106.729 79.0026 106.581 78.9682 106.441L78.9624 106.448Z" fill="#3E4244" />
		<path d="M74.6359 105.229C71.7642 103.7 68.0031 102.642 65.0136 104.357C64.1608 104.849 63.3527 105.415 62.9216 106.338C62.1843 107.916 62.7626 110.004 64.7297 110.171C65.2527 110.216 65.7898 110.038 66.3022 109.75C66.9183 109.406 67.5131 108.896 68.042 108.625C69.0079 108.131 70.1269 108.149 71.1858 108.065C71.3295 108.054 71.4628 107.986 71.5562 107.876C71.6496 107.767 71.6956 107.625 71.6841 107.481C71.6725 107.338 71.6044 107.205 71.4946 107.111C71.3848 107.018 71.2424 106.972 71.0987 106.984C69.8996 107.079 68.6404 107.101 67.5461 107.66C67.0879 107.895 66.5802 108.297 66.0525 108.633C65.6485 108.892 65.2374 109.126 64.8216 109.091C63.6755 108.993 63.4764 107.716 63.9063 106.798C64.2397 106.093 64.897 105.676 65.5554 105.297C68.221 103.768 71.5628 104.826 74.1235 106.186C74.1865 106.219 74.2555 106.24 74.3265 106.247C74.3975 106.254 74.4692 106.247 74.5374 106.226C74.6057 106.205 74.6692 106.171 74.7243 106.126C74.7794 106.081 74.825 106.025 74.8586 105.962C74.8921 105.899 74.913 105.831 74.9199 105.76C74.9268 105.689 74.9197 105.617 74.8989 105.549C74.8781 105.481 74.8441 105.418 74.7988 105.363C74.7534 105.308 74.6977 105.262 74.6348 105.229H74.6359Z" fill="#3E4244" />
		<path d="M70.9961 107.019C68.9336 107.984 67.4977 108.773 66.8557 111.185C66.6979 111.772 66.6837 112.595 66.9558 113.224C67.0566 113.479 67.2178 113.706 67.4256 113.885C67.6335 114.064 67.8817 114.19 68.1491 114.252C68.6061 114.359 69.0466 114.223 69.4518 113.945C69.857 113.668 70.2493 113.199 70.5638 112.943C71.3883 112.276 72.4048 111.983 73.4202 111.737C73.5608 111.703 73.6821 111.615 73.7574 111.492C73.8327 111.368 73.8559 111.22 73.8219 111.08C73.7878 110.94 73.6993 110.819 73.5758 110.743C73.4523 110.668 73.304 110.645 73.1634 110.679C71.9926 110.962 70.8288 111.327 69.8794 112.09C69.6226 112.298 69.3258 112.646 68.9971 112.913C68.8075 113.069 68.6202 113.233 68.3988 113.181C68.0996 113.11 67.9594 112.859 67.8876 112.586C67.801 112.211 67.8071 111.82 67.9052 111.448C68.4483 109.413 69.7157 108.801 71.4578 107.987C71.5252 107.958 71.5861 107.916 71.637 107.864C71.6878 107.811 71.7275 107.749 71.7537 107.681C71.7799 107.613 71.792 107.54 71.7893 107.467C71.7867 107.394 71.7693 107.322 71.7382 107.256C71.7072 107.19 71.6631 107.131 71.6085 107.082C71.554 107.033 71.4902 106.996 71.4209 106.972C71.3516 106.949 71.2782 106.94 71.2053 106.945C71.1323 106.95 71.0611 106.97 70.9961 107.004V107.019Z" fill="#3E4244" />
		<path d="M104.344 83.8499C102.695 81.6314 100.489 80.6415 98.3142 80.7437C96.1398 80.846 94.003 82.037 92.4494 84.2496C89.3538 88.6549 89.4799 94.7356 89.2278 99.9274C89.2271 100.067 89.2806 100.202 89.377 100.304C89.4735 100.405 89.6055 100.466 89.7455 100.472C89.8855 100.479 90.0227 100.432 90.1286 100.34C90.2345 100.249 90.3008 100.12 90.3138 99.9803C90.5565 94.9825 90.3597 89.1135 93.3387 84.8728C94.6756 82.9705 96.5073 81.9159 98.366 81.8277C100.225 81.7395 102.068 82.6131 103.471 84.4965C103.557 84.6121 103.685 84.6888 103.828 84.7098C103.971 84.7309 104.116 84.6946 104.231 84.6088C104.347 84.5231 104.424 84.3949 104.445 84.2526C104.466 84.1103 104.43 83.9654 104.344 83.8499Z" fill="#3E4244" />
		<path d="M60.6953 93.3588C62.7139 90.9624 64.5574 88.4242 66.2115 85.7639C66.2521 85.7034 66.2802 85.6353 66.2939 85.5637C66.3077 85.4921 66.3068 85.4185 66.2915 85.3473C66.2761 85.276 66.2466 85.2086 66.2046 85.149C66.1626 85.0894 66.109 85.0388 66.047 85.0003C65.985 84.9618 65.9159 84.9361 65.8438 84.9248C65.7717 84.9135 65.698 84.9169 65.6272 84.9346C65.5563 84.9523 65.4898 84.984 65.4315 85.028C65.3733 85.0719 65.3244 85.127 65.288 85.1902C63.664 87.8058 61.8532 90.3012 59.8696 92.6569C59.7869 92.7673 59.7494 92.9049 59.7645 93.0419C59.7797 93.1789 59.8464 93.3049 59.9513 93.3946C60.0561 93.4843 60.1912 93.5309 60.3291 93.5249C60.467 93.5189 60.5975 93.4608 60.6941 93.3624L60.6953 93.3588Z" fill="#3E4244" />
		<path d="M52.4522 89.9047C53.6301 84.0263 55.2321 78.2207 56.0531 72.2694C56.0685 72.1288 56.0283 71.9878 55.9411 71.8763C55.854 71.7648 55.7267 71.6917 55.5864 71.6724C55.446 71.6531 55.3036 71.6892 55.1895 71.773C55.0754 71.8568 54.9986 71.9818 54.9753 72.1213C54.1578 78.0526 52.5641 83.8346 51.3874 89.6942C51.3657 89.7665 51.3593 89.8424 51.3687 89.9173C51.3781 89.9921 51.403 90.0641 51.4419 90.1288C51.4808 90.1935 51.5327 90.2493 51.5945 90.2928C51.6562 90.3363 51.7264 90.3664 51.8004 90.3813C51.8745 90.3962 51.9509 90.3954 52.0247 90.3792C52.0985 90.3629 52.168 90.3314 52.2289 90.2868C52.2898 90.2422 52.3407 90.1853 52.3784 90.1199C52.416 90.0545 52.4395 89.982 52.4475 89.907L52.4522 89.9047Z" fill="#3E4244" />
		<path d="M43.0372 88.4574C42.2527 85.1184 41.2209 81.7924 40.1301 78.5405C40.0842 78.4037 39.9858 78.2908 39.8564 78.2265C39.7271 78.1623 39.5775 78.1519 39.4405 78.1978C39.3035 78.2436 39.1903 78.3419 39.1259 78.471C39.0616 78.6001 39.0512 78.7494 39.0971 78.8861C40.1784 82.104 41.2032 85.3982 41.9771 88.7043C42.0099 88.8446 42.0972 88.9662 42.2198 89.0422C42.3424 89.1183 42.4902 89.1426 42.6308 89.1099C42.7714 89.0772 42.8932 88.99 42.9694 88.8676C43.0456 88.7453 43.07 88.5977 43.0372 88.4574Z" fill="#3E4244" />
		<path d="M30.3994 106.802C29.953 106.971 29.609 107.346 29.4241 107.868C29.1968 108.505 29.2074 109.385 29.5419 110.262C29.8764 111.139 30.4489 111.804 31.0425 112.131C31.529 112.399 32.0343 112.453 32.4819 112.284C32.9295 112.115 33.2747 111.74 33.4608 111.216C33.6881 110.579 33.6775 109.7 33.343 108.824C33.0085 107.948 32.4348 107.281 31.8423 106.954C31.3559 106.685 30.8494 106.631 30.3994 106.802ZM30.7846 107.816C31.0096 107.73 31.2558 107.841 31.4984 108.022C31.8684 108.343 32.1529 108.751 32.3266 109.209C32.5003 109.666 32.5577 110.16 32.4937 110.645C32.4348 110.937 32.3206 111.185 32.0956 111.27C31.8706 111.356 31.6245 111.245 31.3889 111.063C31.0189 110.742 30.7344 110.335 30.5607 109.877C30.387 109.419 30.3296 108.926 30.3935 108.441C30.4477 108.148 30.5596 107.903 30.7846 107.816Z" fill="#3E4244" />
		<path d="M194.032 184.173C195.664 179.17 201.167 166.503 216.196 161.202C224.958 158.113 231.9 160.682 235.082 165.157C238.298 169.682 237.74 176.2 231.326 181.009C226.906 184.319 222.269 184.653 217.293 185.32C210.034 186.287 202.049 188.032 192.897 201.504C192.826 201.601 192.72 201.666 192.602 201.686C192.484 201.707 192.363 201.681 192.263 201.614C192.164 201.546 192.095 201.443 192.07 201.326C192.046 201.209 192.067 201.087 192.131 200.986C201.514 187.167 209.725 185.399 217.173 184.409C221.989 183.764 226.491 183.481 230.77 180.274C236.682 175.844 237.284 169.862 234.324 165.695C231.332 161.478 224.759 159.164 216.507 162.077C198.071 168.577 194.35 186.453 194.35 186.453C194.33 186.552 194.278 186.641 194.202 186.707C194.127 186.774 194.031 186.813 193.931 186.821C193.83 186.828 193.73 186.802 193.646 186.747C193.561 186.692 193.497 186.611 193.463 186.517C193.463 186.517 190.636 178.956 200.592 161.583C203.037 157.313 205.46 150.106 205.398 144.052C205.36 140.525 204.485 137.382 202.19 135.518C200.67 134.281 198.531 133.618 195.632 133.754C186.026 134.188 180.704 140.663 176.619 148.489C168.491 164.063 167.62 183.469 180.891 201.192C180.965 201.29 180.996 201.413 180.978 201.534C180.961 201.655 180.895 201.764 180.797 201.837C180.699 201.91 180.576 201.941 180.454 201.924C180.333 201.906 180.224 201.841 180.15 201.743C166.634 183.693 167.516 163.926 175.799 148.062C180.04 139.937 185.618 133.283 195.588 132.833C198.768 132.689 201.104 133.451 202.773 134.808C204.442 136.164 205.457 138.138 205.947 140.451C207.375 147.152 204.415 156.777 201.393 162.048C194.627 173.85 193.875 180.97 194.032 184.173Z" fill="#3E4244" />
		<path d="M186.606 156.358C181.853 170.113 180.701 186.22 183.661 200.564C183.686 200.684 183.757 200.789 183.86 200.856C183.963 200.924 184.088 200.948 184.208 200.923C184.328 200.898 184.434 200.827 184.501 200.724C184.569 200.622 184.593 200.497 184.568 200.377C181.635 186.199 182.775 170.266 187.476 156.661C187.516 156.546 187.508 156.419 187.455 156.309C187.401 156.199 187.306 156.115 187.19 156.075C187.074 156.035 186.947 156.042 186.837 156.096C186.726 156.15 186.642 156.245 186.602 156.36L186.606 156.358Z" fill="#3E4244" />
		<path d="M171.942 199.716C172.021 199.785 172.121 199.824 172.225 199.829C172.33 199.833 172.433 199.802 172.518 199.74C172.602 199.679 172.663 199.591 172.691 199.49C172.719 199.389 172.712 199.282 172.671 199.186C169.591 192.096 163.889 182.049 156.588 178.622C154.065 177.437 150.984 177.574 148.479 178.655C146.188 179.642 144.384 181.414 143.874 183.65C143.532 185.149 143.757 186.862 144.836 188.706C147.191 192.738 151.938 193.113 156.039 193.189C164.685 193.344 171.942 199.716 171.942 199.716ZM171.065 197.866C167.94 191.126 162.754 182.535 156.193 179.455C153.908 178.383 151.116 178.522 148.844 179.501C146.836 180.368 145.224 181.894 144.774 183.851C144.478 185.152 144.701 186.637 145.634 188.234C146.705 190.064 148.327 191.043 150.142 191.58C152.027 192.138 154.121 192.223 156.055 192.259C162.633 192.384 168.439 195.962 171.065 197.866Z" fill="#3E4244" />
		<path d="M167.787 205.147H201.036L192.721 222H176.096L167.787 205.147Z" fill="#4ACBD3" />
		<path d="M85.8494 39.8934C85.8494 29.9706 72.5014 21.9148 56.0542 21.9148C39.6071 21.9148 26.2661 29.9706 26.2661 39.8934C26.2661 49.8161 39.613 57.8696 56.0542 57.8696C59.3826 57.8747 62.7024 57.5318 65.9593 56.8467L81.2544 66.8589L74.975 53.7806C81.8599 50.3711 85.8494 45.2698 85.8494 39.8934Z" fill="#4ACBD3" />
		<path d="M64.6071 37.1329C64.2856 37.12 63.9676 37.2033 63.6941 37.3722C63.4205 37.5411 63.2038 37.7878 63.0717 38.0806C62.9397 38.3734 62.8985 38.6989 62.9533 39.0153C63.0081 39.3317 63.1564 39.6245 63.3793 39.856C63.6021 40.0876 63.8893 40.2473 64.2038 40.3147C64.5183 40.3821 64.8458 40.3541 65.1443 40.2342C65.4427 40.1143 65.6984 39.9081 65.8785 39.6421C66.0586 39.376 66.1548 39.0623 66.1548 38.7412C66.1624 38.3225 66.0031 37.9179 65.712 37.6164C65.4209 37.3148 65.0218 37.1409 64.6023 37.1329H64.6071Z" fill="#3E4244" />
		<path d="M56.0084 37.1329C55.687 37.12 55.369 37.2033 55.0954 37.3722C54.8218 37.5411 54.6051 37.7878 54.4731 38.0806C54.3411 38.3734 54.2998 38.6989 54.3546 39.0153C54.4094 39.3317 54.5578 39.6245 54.7806 39.856C55.0035 40.0876 55.2906 40.2473 55.6051 40.3147C55.9197 40.3821 56.2472 40.3541 56.5456 40.2342C56.8441 40.1143 57.0998 39.9081 57.2798 39.6421C57.4599 39.376 57.5562 39.0623 57.5562 38.7412C57.5637 38.3225 57.4045 37.9179 57.1134 37.6164C56.8223 37.3148 56.4232 37.1409 56.0037 37.1329H56.0084Z" fill="#3E4244" />
		<path d="M47.4109 37.1329C47.0897 37.1209 46.7721 37.2051 46.4991 37.3746C46.2262 37.5441 46.0101 37.7911 45.8788 38.084C45.7476 38.3769 45.707 38.7023 45.7624 39.0184C45.8177 39.3345 45.9665 39.6269 46.1896 39.858C46.4126 40.0891 46.6998 40.2483 47.0142 40.3153C47.3286 40.3823 47.6559 40.354 47.9541 40.2339C48.2522 40.1139 48.5076 39.9076 48.6875 39.6416C48.8673 39.3757 48.9634 39.0621 48.9634 38.7412C48.971 38.3225 48.8117 37.9179 48.5206 37.6164C48.2295 37.3148 47.8304 37.1409 47.4109 37.1329Z" fill="#3E4244" />
		<path d="M222.798 138L227 145.867L217 144.783L222.798 138Z" fill="#3E4244" />
		<path d="M18.0573 60.6948L24.4404 82.5649L0 74.6266L18.0573 60.6948Z" fill="#4ACBD3" />
		<path d="M89.7696 180L90.6589 191.899L79 185.18L89.7696 180Z" fill="#4ACBD3" />
		<path d="M199.625 102.275L187.794 103.989L193.698 91.9127L199.625 102.275Z" fill="#4ACBD3" />
		<path d="M154.971 167.928C154.383 167.928 153.809 167.754 153.321 167.429C152.832 167.103 152.451 166.64 152.226 166.099C152.001 165.557 151.942 164.961 152.057 164.386C152.172 163.811 152.454 163.283 152.87 162.868C153.285 162.454 153.814 162.171 154.391 162.057C154.967 161.943 155.564 162.001 156.106 162.226C156.649 162.45 157.113 162.83 157.439 163.318C157.765 163.806 157.939 164.379 157.939 164.965C157.938 165.75 157.625 166.503 157.068 167.059C156.512 167.614 155.758 167.927 154.971 167.928ZM154.971 163.199C154.621 163.199 154.28 163.303 153.989 163.496C153.699 163.69 153.472 163.966 153.338 164.288C153.205 164.61 153.17 164.965 153.238 165.307C153.306 165.649 153.474 165.963 153.721 166.21C153.968 166.456 154.283 166.624 154.626 166.692C154.969 166.76 155.324 166.726 155.647 166.592C155.97 166.459 156.246 166.233 156.44 165.943C156.634 165.652 156.738 165.312 156.738 164.963C156.738 164.495 156.551 164.046 156.22 163.716C155.889 163.385 155.439 163.199 154.971 163.199Z" fill="#3E4244" />
		<path d="M171.144 124.309L155.251 115.149L164.427 99.2866L180.32 108.445L171.144 124.309ZM156.892 114.71L170.706 122.671L178.682 108.884L164.864 100.923L156.892 114.71Z" fill="#3E4244" />
	</g>
	<defs>
		<clipPath id="clip0_98_16976">
			<rect width="237" height="222" fill="white" />
		</clipPath>
	</defs>
</svg>
