<svg width="27" height="27" viewBox="0 0 27 27" fill="none" xmlns="http://www.w3.org/2000/svg">
	<path d="M21.5554 20.3629C21.7189 20.52 21.8117 20.7362 21.8138 20.963C21.8149 21.1887 21.7263 21.407 21.566 21.5663C21.4067 21.7266 21.1884 21.8152 20.9627 21.8142C20.7359 21.812 20.5197 21.7192 20.3625 21.5558L13.4997 14.6929L6.63682 21.5558C6.47968 21.7192 6.26347 21.8121 6.0367 21.8142C5.81099 21.8152 5.59268 21.7266 5.43341 21.5663C5.2731 21.4071 5.1845 21.1887 5.18556 20.963C5.18767 20.7363 5.28048 20.5201 5.44395 20.3629L12.3068 13.5L5.44395 6.63717C5.12333 6.30599 5.12859 5.7797 5.45345 5.45381C5.77934 5.12898 6.30562 5.12368 6.6368 5.44432L13.4997 12.3072L20.3625 5.44432C20.5197 5.28084 20.7359 5.18803 20.9626 5.18592C21.1884 5.18487 21.4067 5.27346 21.5659 5.43377C21.7262 5.59303 21.8148 5.81134 21.8138 6.03706C21.8117 6.26382 21.7189 6.48002 21.5554 6.63719L14.6925 13.5001L21.5554 20.3629Z" fill="#3E4244" />
</svg>
