<svg width="256" height="187" viewBox="0 0 256 187" fill="none" xmlns="http://www.w3.org/2000/svg">
	<g clip-path="url(#clip0_157_8439)">
		<path d="M157.231 60.2405L182.067 86.3603L148.921 95.3005L157.231 60.2405Z" fill="white" />
		<path d="M157.231 60.2405L182.067 86.3603L148.921 95.3005L157.231 60.2405Z" fill="#5D8E92" fill-opacity="0.08" />
		<path d="M114.458 155.109H3.8252V186.999H114.458V155.109Z" fill="#4ACBD3" />
		<path d="M161.668 155.717H65.4248V70.9086H161.668V155.717ZM66.8587 154.284H160.235V72.3424H66.8587V154.284Z" fill="#3E4244" />
		<path d="M249.239 150.146L233.646 134.396L255.998 127.881L249.239 150.146ZM236.359 135.098L248.566 147.428L253.857 129.998L236.359 135.098Z" fill="#3E4244" />
		<path d="M228.188 105.323L218.85 98.8087L228.542 93.9491L228.188 105.323Z" fill="#3E4244" />
		<path d="M7.65042 100.778H0V101.951H7.65042V100.778Z" fill="#3E4244" />
		<path d="M165.493 41.8929H157.843V43.0655H165.493V41.8929Z" fill="#3E4244" />
		<path d="M40.0401 84.6736H14.8789V85.8462H40.0401V84.6736Z" fill="#3E4244" />
		<path d="M19.5762 136.563C19.1575 136.563 18.7402 136.514 18.3325 136.419C16.9974 136.103 15.8334 135.29 15.0788 134.145C14.3242 133 14.0361 131.61 14.2735 130.26C14.5108 128.909 15.2557 127.701 16.3556 126.881C17.4554 126.062 18.8272 125.693 20.19 125.851C21.5529 126.009 22.8037 126.682 23.6865 127.731C24.5694 128.781 25.0174 130.128 24.939 131.497C24.8606 132.865 24.2616 134.152 23.2646 135.094C22.2677 136.036 20.9482 136.562 19.5762 136.563ZM19.5584 127.192C18.5432 127.193 17.5666 127.581 16.8288 128.278C16.0909 128.975 15.6475 129.927 15.5894 130.94C15.5312 131.953 15.8628 132.95 16.5162 133.726C17.1695 134.503 18.0952 135 19.1037 135.117C20.1122 135.234 21.1272 134.961 21.9408 134.354C22.7544 133.747 23.3051 132.852 23.4802 131.853C23.6552 130.854 23.4413 129.825 22.8822 128.979C22.3232 128.132 21.4613 127.531 20.4731 127.298C20.1732 127.228 19.8664 127.193 19.5584 127.192Z" fill="#3E4244" />
		<path d="M45.6788 110.888C47.0859 109.833 47.371 107.839 46.3158 106.433C45.2605 105.026 43.2643 104.742 41.8573 105.796C40.4502 106.851 40.1651 108.845 41.2203 110.251C42.2756 111.657 44.2718 111.942 45.6788 110.888Z" fill="#3E4244" />
		<path d="M181.168 105.508C180.817 105.482 180.481 105.352 180.204 105.136C179.926 104.92 179.719 104.626 179.609 104.292C179.498 103.958 179.489 103.599 179.583 103.259C179.677 102.92 179.869 102.617 180.135 102.387C180.402 102.157 180.73 102.011 181.08 101.967C181.429 101.924 181.783 101.985 182.098 102.143C182.413 102.301 182.673 102.548 182.847 102.854C183.021 103.16 183.101 103.51 183.075 103.861C183.058 104.095 182.996 104.322 182.891 104.531C182.786 104.74 182.64 104.927 182.463 105.08C182.286 105.233 182.081 105.349 181.858 105.423C181.636 105.496 181.402 105.525 181.168 105.508Z" fill="#3E4244" />
		<path d="M192.747 104.133C192.974 103.175 192.38 102.216 191.422 101.99C190.464 101.764 189.504 102.357 189.278 103.314C189.051 104.272 189.645 105.231 190.603 105.457C191.561 105.683 192.521 105.09 192.747 104.133Z" fill="#3E4244" />
		<path d="M200.744 105.512C201.728 105.512 202.526 104.715 202.526 103.731C202.526 102.747 201.728 101.95 200.744 101.95C199.759 101.95 198.961 102.747 198.961 103.731C198.961 104.715 199.759 105.512 200.744 105.512Z" fill="#3E4244" />
		<path d="M101.118 128.229H42.834V186.999H101.118V128.229Z" fill="#3E4244" />
		<path d="M78.9105 186L131.863 96.1767L184.815 186H78.9105Z" fill="white" />
		<path d="M78.9105 186L131.863 96.1767L184.815 186H78.9105Z" fill="#5D8E92" fill-opacity="0.08" />
		<path d="M78.9105 186L131.863 96.1767L184.815 186H78.9105Z" stroke="#3E4244" stroke-width="2" />
		<path d="M236.48 169.901H125.415V187H236.48V169.901Z" fill="#3E4244" />
		<path d="M183.083 187C201.464 187 216.365 172.11 216.365 153.742C216.365 135.374 201.464 120.484 183.083 120.484C164.702 120.484 149.801 135.374 149.801 153.742C149.801 172.11 164.702 187 183.083 187Z" fill="#4ACBD3" />
		<path d="M79.1044 98.0024L75.291 99.0363L77.6381 107.681L81.4515 106.647L79.1044 98.0024Z" fill="white" />
		<path d="M79.1044 98.0024L75.291 99.0363L77.6381 107.681L81.4515 106.647L79.1044 98.0024Z" fill="#5D8E92" fill-opacity="0.08" />
		<path d="M106.313 104.779L103.144 107.137L108.49 114.312L111.659 111.954L106.313 104.779Z" fill="white" />
		<path d="M106.313 104.779L103.144 107.137L108.49 114.312L111.659 111.954L106.313 104.779Z" fill="#5D8E92" fill-opacity="0.08" />
		<path d="M76.2031 72.583L81.7814 102.044L75.0569 103.909L62.967 71.2503C62.519 70.0403 62.5621 68.7498 62.6446 67.4883C62.727 66.2268 63.2856 65.0411 63.8929 63.8855C64.5002 62.7298 65.5152 61.8719 66.5265 61.0759C67.5377 60.2798 68.8236 59.8921 70.1122 59.5624L97.7702 52.4766L100.043 52.1797L105.163 51.6356L105.6 70.9535L100.461 70.6407L100.82 70.5245L76.2031 72.583Z" fill="#3E4244" />
		<path d="M104.146 61.546L105.132 51.5579L116.044 53.4965C118.2 53.8777 120.27 54.5473 121.697 56.0551C123.125 57.563 124.438 59.2881 124.696 61.443C124.955 63.598 124.919 65.7389 123.903 67.522C122.887 69.3052 121.634 71.0443 119.67 71.9125L96.7141 82.0523L109.923 107.611L103.991 111.282L84.4976 84.6849C83.7853 83.7118 83.4666 82.5468 83.208 81.3939C82.9493 80.2411 83.1077 79.0254 83.3298 77.8267C83.5519 76.6279 84.2014 75.5715 84.8734 74.5713C85.5454 73.5711 86.5604 72.8453 87.6082 72.1738L104.146 61.546Z" fill="#3E4244" />
		<path d="M70.4922 112.982L76.4837 105.172C76.4837 105.172 77.8896 106.268 79.7396 106.042C81.1754 105.87 81.4575 104.794 81.4575 104.794L83.4725 109.136L71.3825 114.568L70.4922 112.982Z" fill="#4ACBD3" />
		<path d="M103.775 121.89L106.493 112.425C106.493 112.425 108.199 112.928 109.842 112.037C111.115 111.349 110.984 110.244 110.984 110.244L114.452 113.54L105.18 123.047L103.775 121.89Z" fill="#4ACBD3" />
		<path d="M126.668 51.6834C133.978 41.7983 132.704 28.4143 123.824 21.8137C114.944 15.213 101.799 17.8802 94.4893 27.7635" fill="white" />
		<path d="M126.668 51.6834C133.978 41.7983 132.704 28.4143 123.824 21.8137C114.944 15.213 101.799 17.8802 94.4893 27.7635" fill="#5D8E92" fill-opacity="0.08" />
		<path d="M79.2357 13.088L86.9752 29.3837L101.578 23.4714L104.858 33.5859L86.2301 38.1646L82.6902 39.3109L74.7043 14.358L74.4766 13.7745L75.8486 7.63461L79.6434 8.22744L79.2357 13.088Z" fill="#4ACBD3" />
		<path d="M101.167 23.6736C102.552 23.2414 104.052 23.3738 105.339 24.0419C106.627 24.71 107.598 25.8597 108.04 27.2402C108.483 28.6207 108.362 30.1202 107.703 31.4117C107.044 32.7032 105.901 33.682 104.522 34.1347L96.633 36.6802L93.2881 26.2163L101.167 23.6736Z" fill="white" />
		<path d="M101.167 23.6736C102.552 23.2414 104.052 23.3738 105.339 24.0419C106.627 24.71 107.598 25.8597 108.04 27.2402C108.483 28.6207 108.362 30.1202 107.703 31.4117C107.044 32.7032 105.901 33.682 104.522 34.1347L96.633 36.6802L93.2881 26.2163L101.167 23.6736Z" fill="#5D8E92" fill-opacity="0.08" />
		<path d="M117.417 10.735C117.837 8.05424 116.011 5.54239 113.338 5.12467C110.666 4.70694 108.159 6.54153 107.739 9.22233C107.32 11.9031 109.146 14.415 111.818 14.8327C114.491 15.2504 116.998 13.4158 117.417 10.735Z" fill="#4ACBD3" />
		<path d="M124.738 15.9913C116.873 16.9662 115.272 9.31663 114.86 8.25741C114.821 8.1572 114.416 6.5473 114.313 6.52108C113.526 6.32534 112.429 6.95844 111.657 7.07551C110.491 7.25064 108.962 7.1317 107.925 6.52295C106.479 5.67258 106.18 3.8913 107.428 2.73C108.764 1.48722 111.246 1.40387 112.696 2.48369C113.1 2.78526 113.208 3.16362 113.517 3.51388C113.653 3.66653 113.729 3.16174 113.86 3.0044C114.178 2.6223 114.609 2.34415 115.034 2.1044C116.195 1.45913 117.592 1.18004 118.89 1.57619C120.842 2.17183 121.803 4.49911 124.06 4.40358C126.028 4.31929 127.809 2.553 129.604 1.83842C133.321 0.359639 136.831 0.0655693 140.663 1.42073C142.205 1.96766 143.533 2.95477 144.327 4.41763C145.143 5.91608 145.546 7.52972 147.09 8.49997C148.842 9.59946 151.085 9.56574 152.946 10.3936C156.339 11.9033 158.602 15.9707 157.908 19.6531C156.536 26.9281 145.428 28.7262 140.726 23.8947C137.991 21.0851 137.393 16.4024 133.533 14.579C132.639 14.1566 131.674 13.9047 130.683 14.0686C128.632 14.4001 126.815 15.7347 124.738 15.9913Z" fill="#3E4244" />
		<path d="M118.218 12.4025C118.78 13.3222 119.325 14.2521 120.408 14.6005C122.252 15.1934 124.352 14.0817 126.084 15.2758C127.816 16.4699 128.272 18.8159 129.203 20.5784C131.282 24.5203 136.19 28.316 140.86 26.7473C144.023 25.6834 144.766 22.4187 144.362 19.3974C143.965 16.4108 142.365 14.7663 140.151 12.808C138.565 11.4032 137.235 9.97875 135.135 9.50018" fill="#3E4244" />
		<path d="M139.727 55.261L120.321 36.0883L128.297 29.0465L145.541 51.4296C145.835 51.8042 146.125 52.1948 146.253 52.6471C146.38 53.0994 146.513 53.5621 146.466 54.0388L144.881 69.9317L144.856 70.6809L140.479 75.7185L137.433 73.3772L140.222 69.1956L139.727 55.261Z" fill="#4ACBD3" />
		<path d="M119.543 36.6296C118.525 35.3551 118.054 33.7294 118.233 32.1085C118.412 30.4876 119.226 29.0037 120.498 27.9817C121.146 27.4605 121.891 27.0724 122.69 26.8395C123.489 26.6066 124.326 26.5336 125.153 26.6246C125.98 26.7156 126.781 26.9688 127.51 27.3698C128.239 27.7708 128.882 28.3116 129.401 28.9613L133.952 34.6573L124.216 42.4783L119.543 36.6296Z" fill="white" />
		<path d="M119.543 36.6296C118.525 35.3551 118.054 33.7294 118.233 32.1085C118.412 30.4876 119.226 29.0037 120.498 27.9817C121.146 27.4605 121.891 27.0724 122.69 26.8395C123.489 26.6066 124.326 26.5336 125.153 26.6246C125.98 26.7156 126.781 26.9688 127.51 27.3698C128.239 27.7708 128.882 28.3116 129.401 28.9613L133.952 34.6573L124.216 42.4783L119.543 36.6296Z" fill="#5D8E92" fill-opacity="0.08" />
		<path d="M80.9144 -0.360515L78.4092 -0.160248L79.5455 14.0338L82.0507 13.8335L80.9144 -0.360515Z" fill="#3E4244" />
		<path d="M138.614 151.582H123.312V153.926H138.614V151.582Z" fill="#3E4244" />
		<path d="M138.614 142.754H123.312V145.098H138.614V142.754Z" fill="#3E4244" />
		<path d="M138.614 133.926H123.312V136.27H138.614V133.926Z" fill="#3E4244" />
		<path d="M200.797 60.794H191.311V62.2475H200.797V60.794Z" fill="#3E4244" />
		<path d="M196.781 56.7819H195.326V66.2614H196.781V56.7819Z" fill="#3E4244" />
		<path d="M42.3057 56.0551H32.8193V57.5086H42.3057V56.0551Z" fill="#3E4244" />
		<path d="M38.2895 52.0421H36.835V61.5217H38.2895V52.0421Z" fill="#3E4244" />
	</g>
	<defs>
		<clipPath id="clip0_157_8439">
			<rect width="256" height="187" fill="white" />
		</clipPath>
	</defs>
</svg>
