<svg width="14" height="16" viewBox="0 0 14 16" fill="none" xmlns="http://www.w3.org/2000/svg">
	<path d="M6.03997 14C4.42559 14.0047 2.87869 13.3531 1.75381 12.1953L0.724426 13.2031C2.11004 14.6206 4.00571 15.4259 5.98763 15.4409C7.97044 15.4559 9.87731 14.6788 11.2844 13.2819C12.6916 11.885 13.4829 9.9838 13.4829 8.00092C13.4829 6.01811 12.6916 4.11772 11.2844 2.72092C9.87724 1.32405 7.97027 0.546854 5.98763 0.560918C4.00575 0.575918 2.11019 1.38124 0.724426 2.79873L1.75381 3.80653V3.80747C2.81319 2.7256 4.24285 2.08528 5.75605 2.01402C7.26824 1.94184 8.75221 2.44528 9.90925 3.42215C11.0661 4.39902 11.8114 5.77715 11.9943 7.27991H4.89745L7.05745 5.11991L6.04026 4.10272L2.65122 7.4908C2.3709 7.77206 2.3709 8.22767 2.65122 8.50893L6.04026 11.897L7.05745 10.8798L4.89745 8.71982H11.9943C11.8189 10.1758 11.1158 11.5163 10.0189 12.4895C8.92206 13.4617 7.50637 13.9989 6.04021 13.9998L6.03997 14Z" fill="#3E4244" />
</svg>
