<?xml version="1.0" encoding="UTF-8"?><svg id="a" xmlns="http://www.w3.org/2000/svg" viewBox="0 0 10 10"><defs><style>.b{fill:#bdc8da;}</style></defs><path class="b" d="M5,.65C2.6,.65,.65,2.6,.65,5s1.95,4.35,4.35,4.35,4.35-1.95,4.35-4.35S7.4,.65,5,.65Zm0,7.96c-2,0-3.62-1.62-3.62-3.62S3,1.38,5,1.38s3.62,1.62,3.62,3.62-1.62,3.62-3.62,3.62Z"/><path class="b" d="M6.47,3.5l-.43,.35c.27,.31,.43,.7,.43,1.15s-.16,.84-.43,1.15l.43,.35c.35-.4,.56-.93,.56-1.5s-.21-1.1-.56-1.5h0Zm-.83-.28l-1.34,.89h-1.11q-.22,0-.22,.22v1.34q0,.22,.22,.22h1.11l1.34,.89V3.22Z"/></svg>