<svg width="22" height="17" viewBox="0 0 22 17" fill="none" xmlns="http://www.w3.org/2000/svg">
	<g clip-path="url(#clip0_1519_7841)">
		<path fill-rule="evenodd" clip-rule="evenodd" d="M20.167 4.24998V15.5835C20.167 15.9587 19.9736 16.3193 19.6299 16.5849C19.2862 16.8506 18.8195 17 18.3331 17H3.66704C2.65383 17 1.83314 16.3658 1.83314 15.5835V4.24998C0.820788 4.24998 0.000100136 3.6158 0.000100136 2.83354V1.41644C0.000100136 0.634168 0.82081 0 1.83314 0H20.1671C20.6526 0 21.1192 0.149415 21.463 0.415038C21.8067 0.680661 22.0001 1.04125 22.0001 1.41644V2.83354C22.0001 3.20873 21.8067 3.56932 21.463 3.83494C21.1192 4.10057 20.6526 4.24998 20.1671 4.24998H20.167ZM3.66701 15.5835H18.334L18.3331 4.24998H3.66703L3.66701 15.5835ZM20.167 1.4171L1.8331 1.41644V2.83288H20.1661V1.41644L20.167 1.4171ZM12.834 9.9171H9.16701V9.91644C7.64765 9.91644 6.41701 8.96549 6.41701 7.79144C6.41701 6.61805 7.64765 5.66644 9.16701 5.66644H12.834H12.8331C14.3525 5.66644 15.5831 6.61805 15.5831 7.79144C15.5831 8.96549 14.3525 9.91644 12.8331 9.91644L12.834 9.9171ZM12.834 7.08354H9.16701C8.66084 7.08354 8.25005 7.4003 8.25005 7.79144C8.25005 8.18257 8.66084 8.5 9.16701 8.5H12.834H12.8331C13.3393 8.5 13.7501 8.18257 13.7501 7.79144C13.7501 7.4003 13.3393 7.08354 12.8331 7.08354H12.834Z" fill="#CAD4E3" />
	</g>
	<defs>
		<clipPath id="clip0_1519_7841">
			<rect width="22" height="17" fill="white" />
		</clipPath>
	</defs>
</svg>
