<svg width="19" height="19" viewBox="0 0 19 19" fill="none" xmlns="http://www.w3.org/2000/svg">
<g clip-path="url(#clip0_136_10641)">
<mask id="path-1-inside-1_136_10641" fill="white">
<path d="M2.93408 15.0869C2.93408 15.3042 3.11057 15.4806 3.32783 15.4806C3.54509 15.4806 3.72158 15.3042 3.72158 15.0869V7.15771L2.93408 7.52193V15.0869Z"/>
</mask>
<path d="M2.93408 15.0869C2.93408 15.3042 3.11057 15.4806 3.32783 15.4806C3.54509 15.4806 3.72158 15.3042 3.72158 15.0869V7.15771L2.93408 7.52193V15.0869Z" fill="#3E4244"/>
<path d="M3.72158 7.15771H4.72158V5.59345L3.30181 6.25008L3.72158 7.15771ZM2.93408 7.52193L2.51431 6.6143L1.93408 6.88265V7.52193H2.93408ZM1.93408 15.0869C1.93408 15.8564 2.55827 16.4806 3.32783 16.4806V14.4806C3.66286 14.4806 3.93408 14.7519 3.93408 15.0869H1.93408ZM3.32783 16.4806C4.09737 16.4806 4.72158 15.8565 4.72158 15.0869H2.72158C2.72158 14.7519 2.99282 14.4806 3.32783 14.4806V16.4806ZM4.72158 15.0869V7.15771H2.72158V15.0869H4.72158ZM3.30181 6.25008L2.51431 6.6143L3.35385 8.42956L4.14135 8.06534L3.30181 6.25008ZM1.93408 7.52193V15.0869H3.93408V7.52193H1.93408Z" fill="#3E4244" mask="url(#path-1-inside-1_136_10641)"/>
<mask id="path-3-inside-2_136_10641" fill="white">
<path d="M16.2778 15.0868C16.2778 15.304 16.4543 15.4805 16.6716 15.4805C16.8888 15.4805 17.0653 15.304 17.0653 15.0868V7.52119L16.2778 7.15698V15.0868Z"/>
</mask>
<path d="M16.2778 15.0868C16.2778 15.304 16.4543 15.4805 16.6716 15.4805C16.8888 15.4805 17.0653 15.304 17.0653 15.0868V7.52119L16.2778 7.15698V15.0868Z" fill="#3E4244"/>
<path d="M17.0653 7.52119H18.0653V6.88192L17.4851 6.61357L17.0653 7.52119ZM16.2778 7.15698L16.6976 6.24935L15.2778 5.59272V7.15698H16.2778ZM15.2778 15.0868C15.2778 15.8563 15.902 16.4805 16.6716 16.4805V14.4805C17.0066 14.4805 17.2778 14.7518 17.2778 15.0868H15.2778ZM16.6716 16.4805C17.4411 16.4805 18.0653 15.8563 18.0653 15.0868H16.0653C16.0653 14.7518 16.3366 14.4805 16.6716 14.4805V16.4805ZM18.0653 15.0868V7.52119H16.0653V15.0868H18.0653ZM17.4851 6.61357L16.6976 6.24935L15.8581 8.06461L16.6456 8.42882L17.4851 6.61357ZM15.2778 7.15698V15.0868H17.2778V7.15698H15.2778Z" fill="#3E4244" mask="url(#path-3-inside-2_136_10641)"/>
<path d="M17.7706 6.86296L17.769 6.86224L10.2097 3.36628L9.99987 3.26921L9.78999 3.36628L2.23071 6.86224L2.23067 6.86226C2.17106 6.88983 2.10057 6.8638 2.07314 6.80449C2.04557 6.74489 2.07159 6.6744 2.13091 6.64696L9.94935 3.03022C9.9494 3.0302 9.94944 3.03018 9.94948 3.03016C9.98064 3.01582 10.0174 3.01543 10.0503 3.03038C10.0504 3.03044 10.0505 3.0305 10.0506 3.03055L17.8683 6.64696L18.0783 6.19316L17.8684 6.64696C17.9277 6.67439 17.9537 6.74488 17.9261 6.80449L17.9258 6.80506C17.9063 6.8475 17.864 6.87371 17.8188 6.87369L17.8186 6.87371C17.8181 6.87371 17.8177 6.87371 17.8172 6.8737C17.8015 6.87353 17.7864 6.87034 17.7706 6.86296Z" fill="#3E4244" stroke="#3E4244"/>
<path d="M11.9759 11.0271H12.1885H12.3213V11.3146V11.7062H11.8433V11.3146V11.0271H11.9759ZM8.15604 11.0271V11.3146V11.7062H7.67807V11.3146V11.0271H7.80993H8.0226H8.15604ZM9.76067 6.86108H10.2386V7.14849V7.54005H9.76067V7.14849V6.86108ZM12.8213 11.3146H13.3213L13.272 14.6932V14.6932H10.8934H10.3934V14.1932V11.8146V11.3146H10.8433H10.8934H11.3433V11.8146V11.9812C11.3433 12.1056 11.4438 12.2062 11.5683 12.2062H12.5963C12.7207 12.2062 12.8213 12.1056 12.8213 11.9812V11.8146V11.3146Z" fill="#3E4244" stroke="#3E4244"/>
</g>
<defs>
<clipPath id="clip0_136_10641">
<rect width="18" height="18" fill="white" transform="translate(0.906738 0.5)"/>
</clipPath>
</defs>
</svg>
