<svg width="30" height="23" viewBox="0 0 30 23" fill="none" xmlns="http://www.w3.org/2000/svg">
<path d="M18.0639 17.1722C18.0639 18.6183 16.8642 19.8193 15.4168 19.8193L4.98505 19.8181C3.53892 19.8181 2.33799 18.6184 2.33799 17.171L2.3392 4.98509C2.3392 3.53895 3.50886 2.33803 4.98626 2.33803H15.418C16.8642 2.33803 18.0651 3.50769 18.0651 4.98509V7.75475H20.4044V4.98509C20.4044 2.21542 18.1577 0 15.4193 0H4.98509C2.21542 0 0 2.21548 0 4.98509V17.2021C0 19.9405 2.21548 22.1872 4.98509 22.1872H15.4169C18.1553 22.1872 20.402 19.9404 20.402 17.2021V14.4324H18.0626L18.0639 17.1722Z" fill="url(#paint0_linear_1519_9014)"/>
<path d="M9.63245 17.2947H10.7708C11.0173 17.2947 11.2325 17.0795 11.2325 16.8331V15.8485C12.4947 15.5408 13.4479 14.525 13.5718 13.264C13.6643 12.4334 13.3866 11.6027 12.8337 10.9872C12.2795 10.3718 11.4801 10.0027 10.6482 10.0027H9.78632C9.53989 10.0027 9.29344 9.88009 9.10954 9.69497C8.92441 9.50984 8.8631 9.26462 8.89436 8.98692C8.92561 8.52531 9.35597 8.1863 9.84885 8.1863H10.8646C11.1111 8.1863 11.3575 8.37143 11.4188 8.61665C11.4501 8.83182 11.6652 8.98569 11.8804 8.98569H13.0188C13.1414 8.98569 13.2653 8.92438 13.3578 8.83182C13.4504 8.73926 13.4804 8.61664 13.4804 8.49281C13.3578 7.29312 12.4346 6.36989 11.265 6.18476V5.26154C11.265 5.0151 11.0498 4.79993 10.8033 4.79993H9.66495C9.41852 4.79993 9.20334 5.0151 9.20334 5.26154V6.21602C7.72594 6.52377 6.71015 7.87733 6.86402 9.41591C7.01789 10.9233 8.34142 12.093 9.94143 12.093H10.6795C10.9259 12.093 11.1724 12.2156 11.3563 12.4007C11.5414 12.5859 11.6027 12.8311 11.5715 13.1088C11.5102 13.5704 11.1099 13.9094 10.617 13.9094H9.60119C9.35476 13.9094 9.10832 13.7243 9.07828 13.4791C9.04703 13.2639 8.83185 13.1401 8.61667 13.1401H7.47828C7.35566 13.1401 7.23185 13.2014 7.13927 13.2939C7.0467 13.3865 7.01666 13.5091 7.01666 13.6329C7.13927 14.8326 8.06248 15.7559 9.23214 15.941V16.8642C9.17083 17.1106 9.38601 17.2946 9.63245 17.2946V17.2947Z" fill="url(#paint1_linear_1519_9014)"/>
<path d="M28.8661 10.2166L25.2344 6.86287C24.7416 6.43253 24.0035 6.46257 23.5731 6.92418C23.1428 7.41706 23.1728 8.15514 23.6344 8.58549L25.0505 9.87775L16.7717 9.87895C16.125 9.87895 15.6021 10.4019 15.6021 11.0486C15.6021 11.6954 16.125 12.2183 16.7717 12.2183H25.0493L23.6344 13.5406C23.1415 13.9709 23.1115 14.7103 23.5731 15.2019C23.8195 15.4483 24.1273 15.571 24.435 15.571C24.7115 15.571 25.0192 15.4784 25.2356 15.2632L28.8673 11.9095C29.1137 11.6943 29.2363 11.3865 29.2363 11.0475C29.2351 10.7398 29.1125 10.4321 28.8661 10.2169V10.2166Z" fill="url(#paint2_linear_1519_9014)"/>
<defs>
<linearGradient id="paint0_linear_1519_9014" x1="-0.253591" y1="11.0491" x2="20.4016" y2="11.0491" gradientUnits="userSpaceOnUse">
<stop stop-color="#1E55A9"/>
<stop offset="0.98" stop-color="#2BBFC7"/>
</linearGradient>
<linearGradient id="paint1_linear_1519_9014" x1="6.76486" y1="11.0222" x2="13.5884" y2="11.0222" gradientUnits="userSpaceOnUse">
<stop stop-color="#1E55A9"/>
<stop offset="0.98" stop-color="#2BBFC7"/>
</linearGradient>
<linearGradient id="paint2_linear_1519_9014" x1="15.4326" y1="11.0465" x2="29.2344" y2="11.0465" gradientUnits="userSpaceOnUse">
<stop stop-color="#1E55A9"/>
<stop offset="0.98" stop-color="#2BBFC7"/>
</linearGradient>
</defs>
</svg>
