<svg width="19" height="24" viewBox="0 0 19 24" fill="none" xmlns="http://www.w3.org/2000/svg">
<path d="M18.9662 2.09468C18.8863 1.75742 18.6611 1.47119 18.3516 1.31365L15.9852 0.129891L15.9841 0.131001C15.7023 -0.014333 15.3739 -0.0398486 15.0733 0.0599983L11.9969 1.08954L10.0676 0.131001C9.73252 -0.0376304 9.33758 -0.0376304 9.00253 0.131001L7.07325 1.08954L3.99684 0.0599983C3.69619 -0.0398486 3.36782 -0.014333 3.08602 0.131001L0.719642 1.31476L0.718533 1.31365C0.382378 1.45454 0.12833 1.74299 0.0329021 2.09468C-0.0491941 2.43637 0.0240266 2.79584 0.233706 3.07761L3.48762 7.37327L0.730725 19.325C0.48998 20.3778 0.740709 21.4828 1.413 22.3281C2.08531 23.1735 3.10596 23.6661 4.18654 23.6683H14.8369C15.9164 23.6661 16.9371 23.1735 17.6094 22.3281C18.2817 21.4828 18.5335 20.3778 18.2917 19.325L15.5114 7.37327L18.7299 3.07761C18.9517 2.80136 19.0383 2.4408 18.9662 2.09468H18.9662ZM15.7711 20.8516C15.5481 21.1345 15.2086 21.2998 14.848 21.3009H4.19764C3.83041 21.3109 3.47986 21.15 3.24796 20.8649C3.0161 20.5798 2.92956 20.2037 3.01499 19.8454L5.71309 8.28412H13.2871L15.9619 19.8454H15.9608C16.044 20.1982 15.9608 20.5687 15.7356 20.8516H15.7711ZM13.641 5.91775H5.35697L2.99059 2.79363L3.65291 2.4619L6.75374 3.55023C7.0555 3.65008 7.3839 3.62456 7.66567 3.47923L9.49952 2.50959L11.3334 3.42041C11.6152 3.56464 11.9436 3.59126 12.2453 3.49141L15.3217 2.46188L15.984 2.7936L13.641 5.91775Z" fill="url(#paint0_linear_1519_8984)"/>
<path d="M10.9553 15.2069C10.841 15.0848 10.7101 14.9817 10.5648 14.8996C10.405 14.8142 10.2397 14.7432 10.0678 14.6866L9.64174 14.5213V14.5202C9.52525 14.4736 9.41431 14.4137 9.31002 14.3427C9.20351 14.2683 9.14583 14.1418 9.15692 14.012C9.13584 13.9499 9.13584 13.8833 9.15692 13.8223C9.19131 13.7746 9.23569 13.7336 9.28672 13.7036C9.34552 13.6903 9.40543 13.6903 9.46423 13.7036H9.65394C9.87249 13.6992 10.0911 13.7236 10.3041 13.7746C10.4738 13.8279 10.6402 13.8911 10.8011 13.9643C10.9675 13.626 11.0762 13.2621 11.1206 12.8871L10.5404 12.7096H10.5415C10.3662 12.6674 10.1876 12.6352 10.009 12.6153V11.953H9.11031V12.6397L9.10921 12.6386C8.7298 12.6896 8.37811 12.8693 8.11517 13.1478C7.77015 13.6138 7.66919 14.2162 7.84336 14.7687C7.89994 14.9151 7.97982 15.0505 8.07967 15.1714C8.17841 15.2912 8.29933 15.3922 8.43468 15.4676C8.57225 15.5475 8.71426 15.6185 8.8607 15.6806L9.26342 15.8459C9.41763 15.9081 9.56519 15.9868 9.70055 16.0822C9.81814 16.161 9.88582 16.2964 9.87805 16.4372C9.88582 16.5948 9.80927 16.7434 9.67725 16.8278C9.49863 16.9198 9.29895 16.9653 9.09701 16.9587C8.90952 16.9576 8.72314 16.9343 8.5412 16.8877C8.3171 16.8333 8.09965 16.7579 7.88997 16.6625C7.81897 16.8755 7.76017 17.0763 7.71246 17.266C7.66587 17.449 7.63036 17.6343 7.60596 17.8218L7.98426 17.9638L8.33927 18.0581L8.7065 18.1169H9.10923V18.9345H10.0079V18.0348H10.009C10.3873 17.9416 10.7245 17.7253 10.9675 17.4202C11.3081 16.9198 11.3924 16.2874 11.1916 15.7161C11.1506 15.5308 11.0696 15.3578 10.9553 15.2069L10.9553 15.2069Z" fill="url(#paint1_linear_1519_8984)"/>
<defs>
<linearGradient id="paint0_linear_1519_8984" x1="-0.236025" y1="11.7867" x2="18.9884" y2="11.7867" gradientUnits="userSpaceOnUse">
<stop stop-color="#1E55A9"/>
<stop offset="0.98" stop-color="#2BBFC7"/>
</linearGradient>
<linearGradient id="paint1_linear_1519_8984" x1="7.56006" y1="15.4297" x2="11.2985" y2="15.4297" gradientUnits="userSpaceOnUse">
<stop stop-color="#1E55A9"/>
<stop offset="0.98" stop-color="#2BBFC7"/>
</linearGradient>
</defs>
</svg>
