<svg width="23" height="20" viewBox="0 0 23 20" fill="none" xmlns="http://www.w3.org/2000/svg">
<path d="M6.29358 6.42397L7.97878 6.22457L7.97784 0.724745C7.97784 0.324983 8.29788 0 8.69156 0H17.6622C17.8765 0 18.0691 0.0958652 18.1994 0.24829L22.7885 4.87859C22.9282 5.01952 22.9981 5.20549 22.9981 5.39147L23 18.7486C23 19.1484 22.68 19.4733 22.2863 19.4733H8.69146C8.29778 19.4733 7.97774 19.1484 7.97774 18.7486L7.22436 19.7159C6.9855 20.0332 6.53896 20.0936 6.22646 19.852L0.279787 15.2283C-0.0327126 14.9858 -0.0921914 14.5324 0.145726 14.215L5.80842 6.70401C5.93115 6.54104 6.1077 6.44613 6.29368 6.42409L6.29358 6.42397ZM6.72407 11.8261C6.57679 12.037 5.94804 11.4599 5.38252 12.2709C4.89538 12.9689 5.47599 13.6188 5.96597 14.0838C6.49466 14.5852 5.81492 14.7529 5.34665 14.0464C4.88404 13.3504 5.31739 13.3609 4.35536 13.6955C4.09857 13.7847 4.5555 14.4941 4.64896 14.6149C4.77263 14.774 4.50262 14.9082 4.52434 15.0376C4.53944 15.1287 5.02941 15.4412 5.12855 15.5131C5.27583 15.6196 5.31832 15.354 5.43537 15.3252C5.60059 15.284 6.28787 15.841 6.86282 15.0166C7.26027 14.4462 6.98083 13.869 6.55788 13.4386C5.6846 12.5528 6.3719 12.5327 6.83072 13.1376C7.28388 13.7348 6.81373 13.7693 7.80312 13.4252C8.0703 13.3331 7.55672 12.5969 7.48779 12.5192C7.36034 12.3754 7.58598 12.2738 7.56615 12.1559C7.55105 12.0658 7.06108 11.7523 6.96194 11.6814C6.84865 11.5999 6.7769 11.7513 6.72403 11.8271L6.72407 11.8261ZM7.87962 9.37863C7.47272 9.91835 7.57374 10.6911 8.10525 11.1042C8.63677 11.5174 9.39772 11.4148 9.80459 10.8751C10.2115 10.3354 10.1105 9.56363 9.57896 9.15047C9.04744 8.73728 8.28744 8.83987 7.88056 9.37959L7.87962 9.37863ZM11.7193 4.35419C10.7846 4.36185 10.7733 2.9181 11.7079 2.91044L17.1836 2.84621C18.1182 2.83854 18.1296 4.2823 17.1949 4.28995L11.7193 4.35419ZM11.7193 16.6261C10.7846 16.6337 10.7733 15.19 11.7079 15.1823L19.2606 15.1181C20.1953 15.1104 20.2066 16.5542 19.272 16.5618L11.7193 16.6261ZM11.7193 14.1719C11.622 14.1729 11.5295 14.1537 11.4455 14.1182L9.40627 16.8235V18.0237H21.5747V5.68947L17.3715 1.44938H9.40627V6.05588L11.0377 5.86319C11.1292 5.57558 11.3945 5.36756 11.7079 5.36469L19.2606 5.30046C20.1953 5.29279 20.2066 6.73655 19.2719 6.74421L12.3131 6.80365L12.4613 7.81312L19.2607 7.7556C20.1953 7.74793 20.2066 9.19169 19.272 9.19935L12.6737 9.25495L12.8219 10.2644L19.2607 10.2098C20.1953 10.2021 20.2067 11.6459 19.272 11.6535L13.0327 11.7063C13.0553 11.8874 12.9817 12.0936 12.8684 12.2316L12.4993 12.7215L19.2616 12.664C20.1963 12.6563 20.2076 14.1 19.273 14.1077L11.7203 14.1719L11.7193 14.1719Z" fill="url(#paint0_linear_1519_9057)"/>
<defs>
<linearGradient id="paint0_linear_1519_9057" x1="-0.285849" y1="9.95987" x2="22.9968" y2="9.95987" gradientUnits="userSpaceOnUse">
<stop stop-color="#1E55A9"/>
<stop offset="0.98" stop-color="#2BBFC7"/>
</linearGradient>
</defs>
</svg>
