<svg width="23" height="22" viewBox="0 0 23 22" fill="none" xmlns="http://www.w3.org/2000/svg">
<path d="M5.75055 20.2632C5.75055 21.2217 4.97756 22 4.02561 22C3.07258 22 2.30066 21.2217 2.30066 20.2632C2.30066 19.3036 3.07258 18.5264 4.02561 18.5264C4.97756 18.5264 5.75055 19.3036 5.75055 20.2632ZM21.2751 18.5264C20.322 18.5264 19.5501 19.3036 19.5501 20.2632C19.5501 21.2228 20.322 22 21.2751 22C22.2281 22 23 21.2228 23 20.2632C23 19.3036 22.227 18.5264 21.2751 18.5264ZM23 15.0527V17.3681H5.75055C3.84773 17.3681 2.30066 15.8104 2.30066 13.8945V3.47363C2.30066 2.83534 1.78426 2.31538 1.15033 2.31538H0V0H1.15033C3.05315 0 4.60022 1.55771 4.60022 3.47363V13.8945C4.60022 14.5328 5.11663 15.0527 5.75055 15.0527H6.90088L6.8998 3.47363H12.6493V5.78901H14.9488L14.9499 3.47363H20.6993V15.0527H23ZM16.1002 11.5791H11.5V13.8945H16.1002V11.5791Z" fill="#CAD4E3"/>
</svg>
