<svg width="21" height="22" viewBox="0 0 21 22" fill="none" xmlns="http://www.w3.org/2000/svg">
<path fill-rule="evenodd" clip-rule="evenodd" d="M11.9533 0.000161563C11.9356 0.00111627 11.9112 0.00493536 11.8935 0.00779973L10.0222 0.259847C9.7322 0.298994 9.52729 0.567281 9.56566 0.863275L9.73033 2.12356C8.86302 2.43195 8.08272 2.8998 7.41001 3.49081L6.41453 2.71936C6.1825 2.537 5.85222 2.58188 5.67351 2.81866L4.52833 4.34629C4.34963 4.58308 4.3936 4.92012 4.62564 5.10249L5.61364 5.87393C5.22723 6.69025 4.98585 7.58202 4.91756 8.51661L3.68256 8.68465C3.39253 8.7238 3.18762 8.99209 3.226 9.28808L3.47299 11.2053C3.51135 11.5012 3.77425 11.7103 4.0643 11.6712L5.2993 11.5032C5.35731 11.6731 5.42468 11.8364 5.49391 11.9996C5.55753 11.9977 5.61648 11.9996 5.68103 11.9996C5.71565 11.9987 5.7512 11.992 5.78582 11.992C6.72049 11.9891 7.61681 12.2956 8.46554 12.6794C7.73108 11.908 7.22865 10.894 7.08084 9.74636C6.71596 6.91058 8.67325 4.3136 11.452 3.94135C14.2308 3.56909 16.7758 5.55873 17.1406 8.39446C17.4577 10.8538 16.0309 13.1426 13.8323 13.9475C14.171 14.0105 14.5069 14.085 14.8353 14.1919C15.3967 14.2998 15.8364 14.7161 16.0703 15.2307C16.3314 15.055 16.583 14.8574 16.8188 14.6502L17.8068 15.4293C18.0389 15.6116 18.3691 15.5668 18.5478 15.33L19.7005 13.8024C19.8792 13.5656 19.8352 13.2285 19.6032 13.0462L18.6077 12.2671C18.9941 11.4507 19.2365 10.559 19.3038 9.62438L20.5388 9.45634C20.8288 9.41719 21.0338 9.14891 20.9954 8.85291L20.7484 6.94337C20.71 6.6474 20.4471 6.4383 20.1571 6.47745L18.9221 6.64549C18.6199 5.76137 18.1623 4.95649 17.5823 4.27001L18.3382 3.26177C18.5169 3.02499 18.473 2.68794 18.2409 2.50558L16.7439 1.3293C16.5119 1.14694 16.1816 1.19181 16.0029 1.4286L15.2395 2.43684C14.4405 2.04251 13.5647 1.80383 12.6498 1.73412L12.4926 0.466188C12.4571 0.188354 12.2222 -0.00833205 11.9537 0.000271586L11.9533 0.000161563ZM5.69595 12.649C3.76578 12.6289 1.85889 13.4319 0 14.0544V18.6833C0.45846 18.8179 1.97134 18.8847 2.4402 18.9812C3.80058 19.2618 4.9374 20.2071 6.20517 20.7761C7.29703 21.2659 8.38233 21.9753 9.59577 21.9982C11.4483 22.0326 13.2616 21.5543 15.0821 21.2574C16.5539 21.0177 17.8787 19.6915 18.8694 18.6068C20.5694 16.7469 18.4493 15.2546 16.8859 16.5904C16.1299 17.2358 15.2533 17.7781 14.2287 17.8889C12.6007 18.0655 10.8062 18.1476 9.39333 17.2091C10.0361 16.8854 10.9343 17.1432 11.6762 17.148C12.7157 17.1547 13.7776 17.4573 14.7974 17.2473C15.8434 17.0324 15.9238 15.2336 14.8273 14.8642C13.2489 14.3323 11.5648 14.4288 9.98451 14.0011C8.79629 13.6793 7.76804 12.8887 6.52636 12.7102C6.24943 12.6701 5.97154 12.652 5.69552 12.6491L5.69595 12.649Z" fill="#CAD4E3"/>
</svg>
