<svg width="12" height="13" viewBox="0 0 12 13" fill="none" xmlns="http://www.w3.org/2000/svg">
<path d="M4.02993 12.1836C4.3059 12.1836 4.552 12.009 4.644 11.7489H9.5319C10.2561 11.746 10.879 11.235 11.0243 10.5255L11.8381 6.49121C12.004 5.66679 11.4696 4.86401 10.6446 4.69826C10.5462 4.67834 10.446 4.66838 10.3452 4.66838H8.27968C8.43085 3.82229 8.57617 2.94863 8.38398 2.04803C8.22636 1.35077 7.60936 0.853892 6.89452 0.849197H6.88574C6.52245 0.849197 5.97227 0.978104 5.69511 1.2119C5.41094 1.44978 5.22402 1.7826 5.16894 2.14881C5.04121 2.97147 4.89824 3.92886 4.52382 4.66836C4.42304 4.42169 4.17108 4.37657 4.02929 4.37598H1.44824C1.08906 4.37657 0.797852 4.66719 0.797852 5.02637V11.5332C0.798437 11.8924 1.08906 12.183 1.44824 12.1836L4.02993 12.1836ZM4.68031 5.96855H4.7102C4.94165 5.96855 5.15552 5.84492 5.27211 5.64512C5.45141 5.33633 5.61429 5.01933 5.7602 4.69415C5.90492 4.36778 6.0309 4.03381 6.13812 3.69395C6.24476 3.35236 6.33207 3.00548 6.39945 2.6545C6.41234 2.58477 6.42406 2.51504 6.43695 2.44532C6.45746 2.32755 6.44808 2.19865 6.54418 2.11133C6.62621 2.04219 6.7393 2.02285 6.84008 2.06094C7.16234 2.17461 7.1647 2.55312 7.1729 2.84023V2.86836H7.17232C7.17407 3.23985 7.14185 3.61132 7.07622 3.97695C7.04693 4.15917 7.01411 4.3414 6.9813 4.52304V4.52773C6.93091 4.78964 6.89575 5.00819 6.86294 5.21561C6.83189 5.4037 6.88462 5.59589 7.00767 5.74178C7.1313 5.88709 7.31235 5.97146 7.50279 5.97146H10.3457C10.4682 5.97205 10.5672 6.07224 10.5666 6.19471C10.5666 6.20877 10.5655 6.22283 10.5625 6.23689L9.74867 10.2681C9.72758 10.3719 9.63676 10.4469 9.53071 10.4474H4.68031L4.68031 5.96855ZM2.09866 5.67851H3.37894V10.8828H2.09866V5.67851Z" fill="#3E4244"/>
</svg>
