<?xml version="1.0" encoding="UTF-8"?><svg id="a" xmlns="http://www.w3.org/2000/svg" viewBox="0 0 10 10"><defs><style>.b{fill:#bdc8da;}</style></defs><path class="b" d="M4.99,.65C2.59,.65,.65,2.6,.65,5s1.95,4.35,4.35,4.35,4.35-1.95,4.35-4.35S7.39,.65,4.99,.65Zm0,7.96c-2,0-3.62-1.62-3.62-3.62S3,1.39,4.99,1.39s3.62,1.62,3.62,3.62-1.62,3.62-3.62,3.62Z"/><g><path class="b" d="M4.99,2.57c-1.34,0-2.43,1.09-2.43,2.43s1.09,2.43,2.43,2.43,2.43-1.09,2.43-2.43-1.09-2.43-2.43-2.43Zm0,3.97c-.85,0-1.54-.69-1.54-1.54s.69-1.54,1.54-1.54,1.54,.69,1.54,1.54-.69,1.54-1.54,1.54Z"/><path class="b" d="M4.49,5.03l-.7-.22c-.01,.07-.02,.13-.02,.2,0,.34,.14,.65,.36,.87l.43-.59c-.05-.07-.08-.16-.08-.25h0Z"/><path class="b" d="M4.81,4.53v-.73c-.4,.06-.74,.31-.91,.66l.7,.22c.06-.07,.13-.12,.21-.15h0Z"/><path class="b" d="M4.99,5.51s-.09,0-.13-.02l-.43,.59c.17,.09,.36,.14,.56,.14s.39-.05,.56-.14l-.43-.59s-.09,.02-.13,.02Z"/><path class="b" d="M5.17,3.8v.73c.08,.03,.16,.09,.21,.15l.7-.22c-.17-.35-.51-.6-.91-.66h0Z"/><path class="b" d="M5.42,5.28l.43,.59c.22-.22,.36-.53,.36-.87,0-.07,0-.13-.02-.2l-.7,.22c0,.09-.04,.18-.08,.25h0Z"/><path class="b" d="M5.26,5c0,.36-.54,.36-.54,0s.54-.36,.54,0"/></g></svg>