<svg width="21" height="21" viewBox="0 0 21 21" fill="none" xmlns="http://www.w3.org/2000/svg">
	<path d="M13.4736 15.5042C11.7992 16.8344 9.69208 17.462 7.5812 17.2591C5.47033 17.0562 3.51443 16.0381 2.11176 14.412C0.709098 12.786 -0.0348673 10.6744 0.0313524 8.50704C0.0975721 6.33971 0.968997 4.27968 2.46819 2.7464C3.96739 1.21312 5.98162 0.321887 8.10077 0.254162C10.2199 0.186437 12.2846 0.947316 13.8745 2.38187C15.4644 3.81643 16.4599 5.81679 16.6583 7.97566C16.8567 10.1345 16.2431 12.2896 14.9424 14.002L19.7746 18.9256C20.1837 19.3424 20.1843 20.0194 19.776 20.437C19.3677 20.8546 18.7053 20.8543 18.2974 20.4363L13.484 15.5042H13.4736ZM8.36913 15.1633C9.18994 15.1633 10.0027 14.9979 10.761 14.6767C11.5194 14.3554 12.2084 13.8846 12.7888 13.291C13.3692 12.6974 13.8296 11.9927 14.1437 11.2171C14.4578 10.4416 14.6195 9.61031 14.6195 8.77085C14.6195 7.93138 14.4578 7.10014 14.1437 6.32457C13.8296 5.54901 13.3692 4.84431 12.7888 4.25072C12.2084 3.65713 11.5194 3.18626 10.761 2.86501C10.0027 2.54376 9.18994 2.37842 8.36913 2.37842C6.71144 2.37842 5.12165 3.0519 3.94948 4.25072C2.77732 5.44953 2.1188 7.07547 2.1188 8.77085C2.1188 10.4662 2.77732 12.0922 3.94948 13.291C5.12165 14.4898 6.71144 15.1633 8.36913 15.1633Z" fill="#9C9C9C" />
</svg>
