<svg width="17" height="16" viewBox="0 0 17 16" fill="none" xmlns="http://www.w3.org/2000/svg">
	<path d="M16.5 7.88146C16.5 7.09697 16.3094 6.32438 15.9458 5.6358L12.9749 0H4.02508L1.05416 5.6358C0.690613 6.32438 0.5 7.097 0.5 7.88146V14.069C0.5 15.1358 1.33541 16 2.36666 16H3.96666C4.99791 16 5.83332 15.1358 5.83332 14.069V13.7931H11.1666V14.069C11.1666 15.1358 12.002 16 13.0333 16H14.6333C15.6645 16 16.4999 15.1358 16.4999 14.069L16.5 7.88146ZM14.9 14.069C14.9 14.1423 14.8719 14.2123 14.8219 14.264C14.7719 14.3158 14.7042 14.3448 14.6333 14.3448H13.0333C12.8865 14.3448 12.7667 14.2209 12.7667 14.069V12.138H4.23337V14.069C4.23337 14.1423 4.20525 14.2123 4.15525 14.264C4.10525 14.3158 4.03754 14.3448 3.96671 14.3448H2.36671C2.21984 14.3448 2.10005 14.2209 2.10005 14.069V7.88146C2.10005 7.37394 2.22297 6.87394 2.45733 6.42782L4.97503 1.65518H12.0251L14.5428 6.42782C14.7772 6.87394 14.9001 7.37394 14.9001 7.88146L14.9 14.069Z" fill="#1E55A9" />
	<path d="M4.5 8.66667C4.5 9.02083 4.60547 9.35937 4.79298 9.60937C4.98048 9.85937 5.23438 10 5.5 10H11.5C11.7656 10 12.0195 9.85937 12.207 9.60937C12.3945 9.35936 12.5 9.02083 12.5 8.66667V8H4.5V8.66667Z" fill="#1E55A9" />
</svg>
