<svg width="22" height="22" viewBox="0 0 22 22" fill="none" xmlns="http://www.w3.org/2000/svg">
	<path d="M11 0.6875C5.31344 0.6875 0.6875 5.31344 0.6875 11C0.6875 16.6866 5.31344 21.3125 11 21.3125C16.6866 21.3125 21.3125 16.6866 21.3125 11C21.3125 5.31344 16.6866 0.6875 11 0.6875ZM11 19.9375C6.07244 19.9375 2.0625 15.9276 2.0625 11C2.0625 6.07244 6.07244 2.0625 11 2.0625C15.9276 2.0625 19.9375 6.07244 19.9375 11C19.9375 15.9276 15.9276 19.9375 11 19.9375Z" fill="#1E55A9" />
	<path d="M16.732 8.66514C16.1992 7.35289 15.223 6.25812 13.9906 5.58778C13.9889 5.58692 13.988 5.58606 13.9872 5.58606C13.9855 5.5852 13.9846 5.58434 13.9829 5.58349C13.9812 5.58177 13.9777 5.58177 13.976 5.58091C12.1705 4.57458 9.80458 4.58059 8.01796 5.58349C7.70772 5.75192 7.41468 5.94699 7.13968 6.16442C7.00304 6.27356 6.86983 6.38785 6.74265 6.50817C6.73835 6.5116 6.73577 6.5159 6.73147 6.51934C6.42726 6.80809 6.15655 7.1312 5.91765 7.47669C5.66069 7.84622 5.43897 8.24326 5.26797 8.66434C5.26797 8.6652 5.26797 8.66606 5.26711 8.66606C4.96547 9.4077 4.8125 10.1932 4.8125 11C4.8125 11.8087 4.96633 12.5942 5.26882 13.3358C5.37711 13.6022 5.50946 13.8548 5.65297 14.1006C6.47453 15.5091 7.82718 16.562 9.40661 16.976C9.40747 16.976 9.40832 16.976 9.41004 16.9769C9.41176 16.9777 9.41434 16.9786 9.41606 16.9786C9.4195 16.9795 9.42293 16.9795 9.42637 16.9803C9.92566 17.117 10.4542 17.1874 10.9999 17.1874C12.0526 17.1874 13.0864 16.9193 13.982 16.4157C14.2922 16.2473 14.5853 16.0531 14.8594 15.8348C14.996 15.7265 15.1293 15.6114 15.2564 15.491C15.2599 15.4876 15.2633 15.4833 15.2676 15.4799C15.5718 15.1903 15.8434 14.8663 16.084 14.5208C16.3401 14.1513 16.561 13.7559 16.732 13.3349C16.732 13.334 16.732 13.3331 16.7328 13.3331C17.0345 12.5924 17.1874 11.8069 17.1874 11C17.1874 10.1914 17.0336 9.40591 16.732 8.66519L16.732 8.66514ZM13.4518 6.87507C13.6254 6.97647 13.7956 7.08561 13.9546 7.20764C13.9735 7.22225 13.9941 7.23342 14.0113 7.24717C14.2055 7.40272 14.3851 7.57546 14.5536 7.76021C14.6043 7.81607 14.6489 7.87709 14.6971 7.93553C14.8088 8.07131 14.9162 8.21052 15.0133 8.35748C15.0623 8.43139 15.107 8.50702 15.1517 8.58349C15.1878 8.64537 15.2161 8.7124 15.2496 8.77513L13.6289 8.37037L13.2559 6.87506L13.4518 6.87507ZM6.84919 8.58178C6.89302 8.50616 6.93771 8.43139 6.98497 8.35835C7.0838 8.20882 7.19294 8.06617 7.30723 7.92867C7.35364 7.87367 7.39489 7.81523 7.44387 7.76195C7.61403 7.57633 7.79536 7.40102 7.99301 7.24374C8.00504 7.23429 8.01879 7.22741 8.02997 7.21796C8.19325 7.09077 8.36943 6.97992 8.54903 6.87421H8.74325L8.37029 8.36953L6.7495 8.77428C6.78388 8.71155 6.81224 8.64452 6.84919 8.58178H6.84919ZM8.55763 15.1371C8.42013 15.0555 8.2852 14.9687 8.15716 14.8742C8.09872 14.8312 8.042 14.7856 7.98614 14.7401C7.87099 14.6473 7.761 14.5493 7.65443 14.4462C7.60458 14.3981 7.55474 14.3517 7.50747 14.301C7.38029 14.166 7.26083 14.0242 7.14826 13.8764C7.13107 13.8541 7.11217 13.8335 7.09498 13.8111C6.96951 13.6367 6.85608 13.4519 6.7538 13.2603C6.74693 13.2482 6.74177 13.2345 6.73489 13.2216L8.34879 13.6255L8.66504 15.2042C8.62895 15.1818 8.59457 15.1577 8.55762 15.1371L8.55763 15.1371ZM10.1767 15.7404L9.61123 12.9268C9.5588 12.6664 9.36201 12.4593 9.10419 12.3957L6.35419 11.7082C6.31724 11.6996 6.28029 11.7039 6.24419 11.7014C6.20982 11.4702 6.18747 11.2373 6.18747 11.0001C6.18747 10.7655 6.20982 10.5343 6.24247 10.3057C6.27943 10.3032 6.31638 10.3006 6.35419 10.292L9.10419 9.60449C9.34998 9.54261 9.54333 9.35012 9.60434 9.10434L10.2918 6.35434C10.3004 6.31825 10.2901 6.28129 10.2936 6.2452C10.5273 6.20996 10.7619 6.18762 11 6.18762C11.238 6.18762 11.4726 6.20996 11.7064 6.24434C11.7098 6.28043 11.6995 6.31739 11.7081 6.35348L12.3956 9.10348C12.4566 9.34926 12.6491 9.54176 12.8957 9.60363L15.6457 10.2911C15.6827 10.2997 15.7196 10.3023 15.7574 10.3049C15.7901 10.5343 15.8124 10.7655 15.8124 11.0001C15.8124 11.2373 15.7901 11.4702 15.7557 11.7014C15.7188 11.7039 15.6827 11.6997 15.6457 11.7082L12.8957 12.3957C12.6499 12.4576 12.4566 12.6501 12.3956 12.8959L11.7081 15.6459C11.6995 15.6811 11.7098 15.7164 11.7064 15.7507C11.1942 15.8281 10.6734 15.8272 10.1767 15.7404L10.1767 15.7404ZM15.1507 13.4183C15.1068 13.4939 15.0622 13.5687 15.0149 13.6417C14.9161 13.7913 14.8069 13.9339 14.6926 14.0714C14.6462 14.1264 14.605 14.1849 14.556 14.2381C14.3858 14.4238 14.2045 14.5991 14.0069 14.7563C13.9948 14.7658 13.9811 14.7727 13.9699 14.7821C13.8066 14.9093 13.6304 15.0202 13.4508 15.1259H13.2566L13.6296 13.6306L15.2504 13.2258C15.216 13.2885 15.1876 13.3556 15.1507 13.4183H15.1507Z" fill="#1E55A9" />
	<path d="M13.0625 11C13.0625 9.86304 12.137 8.9375 11 8.9375C9.86304 8.9375 8.9375 9.86304 8.9375 11C8.9375 12.137 9.86304 13.0625 11 13.0625C12.137 13.0625 13.0625 12.137 13.0625 11ZM11 11.6875C10.6201 11.6875 10.3125 11.379 10.3125 11C10.3125 10.621 10.6201 10.3125 11 10.3125C11.3799 10.3125 11.6875 10.621 11.6875 11C11.6875 11.379 11.3799 11.6875 11 11.6875Z" fill="#1E55A9" />
</svg>
