<svg width="46" height="46" viewBox="0 0 46 46" fill="none" xmlns="http://www.w3.org/2000/svg">
	<rect x="0.5" y="0.5" width="45" height="45" rx="7.5" fill="white" stroke="#ECECF2" />
	<path d="M29.25 19.0664C28.875 19.6289 28.418 20.1094 27.8789 20.5078V20.8594C27.8789 21.7969 27.7031 22.7227 27.3516 23.6367C27 24.5508 26.502 25.3945 25.8574 26.168C25.2129 26.9414 24.3809 27.5625 23.3613 28.0312C22.3418 28.5 21.2227 28.7344 20.0039 28.7344C18.457 28.7344 17.0391 28.3242 15.75 27.5039C15.9609 27.5273 16.1836 27.5391 16.418 27.5391C17.707 27.5391 18.8555 27.1406 19.8633 26.3438C19.2539 26.3438 18.7148 26.1621 18.2461 25.7988C17.7773 25.4355 17.4492 24.9727 17.2617 24.4102C17.4258 24.457 17.6016 24.4805 17.7891 24.4805C18.0469 24.4805 18.293 24.4453 18.5273 24.375C17.8711 24.2344 17.332 23.9121 16.9102 23.4082C16.4883 22.9043 16.2773 22.3242 16.2773 21.668V21.6328C16.6758 21.8438 17.0977 21.9609 17.543 21.9844C16.7227 21.4219 16.3125 20.6484 16.3125 19.6641C16.3125 19.1719 16.4414 18.7031 16.6992 18.2578C18.1758 20.0859 20.0742 21.0586 22.3945 21.1758C22.3477 20.9648 22.3242 20.7539 22.3242 20.543C22.3242 19.7695 22.5937 19.1133 23.1328 18.5742C23.6719 18.0352 24.3281 17.7656 25.1016 17.7656C25.8984 17.7656 26.5664 18.0586 27.1055 18.6445C27.7383 18.5273 28.3242 18.3047 28.8633 17.9766C28.6523 18.6328 28.2539 19.1367 27.668 19.4883C28.207 19.418 28.7344 19.2773 29.25 19.0664Z" fill="#8181A5" />
</svg>
