<svg width="24" height="21" viewBox="0 0 24 21" fill="none" xmlns="http://www.w3.org/2000/svg">
<path d="M16.4784 2.85943C17.5978 4.7863 18.8421 6.96266 19.8367 8.64125C16.665 9.88505 14.7992 11.7502 13.0583 13.4905C11.3791 15.1691 9.94835 16.5994 7.27453 17.469C6.40346 15.9769 5.09745 13.677 3.91622 11.6872C7.08796 10.4434 8.95369 8.57828 10.6946 6.83792C12.3738 5.15933 13.8034 3.66724 16.4784 2.85943V2.85943ZM17.7215 0C8.64237 1.67859 9.26388 8.45474 0.183594 10.1333L6.02915 20.2667C15.1094 18.5881 14.4879 11.8119 23.5682 10.1333L17.7215 0Z" fill="#CAD4E3"/>
<path d="M14.1531 8.82455C15.3297 10.8518 15.2627 13.0803 14.0052 13.8036C12.7465 14.5257 10.7739 13.4694 9.59738 11.4421C8.42203 9.4148 8.48897 7.18637 9.7465 6.46307C11.004 5.74094 12.9778 6.79726 14.1531 8.82455" fill="#CAD4E3"/>
</svg>
