<svg width="15" height="15" viewBox="0 0 15 15" fill="none" xmlns="http://www.w3.org/2000/svg">
<path d="M11.6561 3.64075C11.279 3.64149 10.9428 3.87899 10.8159 4.2345H12.4962C12.3671 3.88047 12.0324 3.64445 11.6561 3.64075Z" fill="#1E55A9"/>
<path d="M9.55648 11.9532C9.40804 10.932 8.53227 10.1742 7.49992 10.1742C6.46757 10.1742 5.59175 10.932 5.44336 11.9532H9.55648Z" fill="#1E55A9"/>
<path d="M7.31222 9.55729C7.67366 9.63002 8.04178 9.46822 8.23254 9.1528C8.42402 8.83736 8.39657 8.43585 8.165 8.14937C7.93343 7.86289 7.54676 7.75155 7.19868 7.87254C6.84986 7.99277 6.61458 8.3186 6.60938 8.68747C6.60863 9.1068 6.90181 9.46973 7.31223 9.55731L7.31222 9.55729Z" fill="#1E55A9"/>
<path d="M11.9531 2.74993C11.9531 3.14551 11.3594 3.14551 11.3594 2.74993C11.3594 2.35435 11.9531 2.35435 11.9531 2.74993Z" fill="#1E55A9"/>
<path d="M3.34358 3.64075C2.96728 3.64446 2.63256 3.88047 2.50342 4.2345H4.18374C4.05683 3.87899 3.72061 3.64149 3.34358 3.64075Z" fill="#1E55A9"/>
<path d="M3.64063 2.74993C3.64063 3.14551 3.04688 3.14551 3.04688 2.74993C3.04688 2.35435 3.64063 2.35435 3.64063 2.74993Z" fill="#1E55A9"/>
<path d="M3.3437 6.60926C3.82093 6.60851 4.29222 6.50312 4.72417 6.29902L5.00546 6.78145C3.94562 7.4984 3.245 8.63692 3.08247 9.906C2.92068 11.1751 3.3118 12.4524 4.15715 13.4128C5.0025 14.3732 6.22036 14.9239 7.50001 14.9239C8.77966 14.9239 9.99756 14.3732 10.8429 13.4128C11.6882 12.4524 12.0794 11.1752 11.9168 9.906C11.755 8.63686 11.0544 7.49832 9.99458 6.78145L10.2759 6.29902C11.3031 6.77921 12.5053 6.6946 13.4546 6.0734C14.4031 5.45293 14.9634 4.38567 14.9345 3.25228C14.9056 2.11897 14.2925 1.08058 13.3136 0.509059C12.3339 -0.0624232 11.1286 -0.0869142 10.1273 0.44523C9.12607 0.977382 8.47146 1.98898 8.39723 3.12081C8.32301 4.2519 8.84031 5.34153 9.76285 5.99893L9.47934 6.48506C8.23394 5.85865 6.76595 5.85865 5.5205 6.48506L5.23698 5.99893C6.08679 5.39034 6.59295 4.41139 6.5989 3.36648C6.60409 2.32074 6.10832 1.33652 5.26519 0.71902C4.42207 0.100779 3.33403 -0.0751228 2.33881 0.245502C1.34428 0.566127 0.562749 1.34393 0.239122 2.33778C-0.0852076 3.33158 0.0862314 4.42037 0.701507 5.26568C1.31604 6.11103 2.29868 6.61052 3.34365 6.60904L3.3437 6.60926ZM1.85933 4.53104C1.86081 4.00111 2.14655 3.51201 2.60745 3.25002C2.42191 2.97689 2.40187 2.62435 2.55624 2.33268C2.71062 2.04025 3.01342 1.85842 3.3437 1.85842C3.67397 1.85842 3.97678 2.04026 4.13115 2.33268C4.28553 2.62437 4.26549 2.97689 4.07994 3.25002C4.54084 3.51201 4.82659 4.00111 4.82807 4.53104V4.82791H1.85932L1.85933 4.53104ZM6.01558 8.68729C6.01781 8.63756 6.023 8.58783 6.03042 8.53885C6.1039 7.78181 6.73922 7.2044 7.49996 7.2044C8.2607 7.2044 8.89602 7.78183 8.9695 8.53885C8.97692 8.58783 8.98211 8.63756 8.98434 8.68729C8.9836 9.10143 8.80844 9.49627 8.50265 9.7746C9.51054 10.1835 10.1703 11.1625 10.1718 12.2497V12.5466H4.82809V12.2497C4.82957 11.1624 5.48938 10.1835 6.49728 9.7746C6.19149 9.49629 6.01635 9.10143 6.01559 8.68729H6.01558ZM12.5468 2.74979C12.5468 2.92791 12.4934 3.10233 12.3925 3.25002C12.8534 3.51201 13.1391 4.00111 13.1406 4.53104V4.82791H10.1718V4.53104C10.1733 4.00111 10.4591 3.51201 10.92 3.25002C10.7611 3.01622 10.7225 2.72083 10.816 2.45439C10.9103 2.18796 11.1248 1.98162 11.395 1.89849C11.6651 1.81537 11.9583 1.86583 12.1854 2.03357C12.4125 2.2013 12.5468 2.467 12.5468 2.74977L12.5468 2.74979Z" fill="#1E55A9"/>
</svg>
