<svg width="7" height="7" viewBox="0 0 7 7" fill="none" xmlns="http://www.w3.org/2000/svg">
	<path d="M6.55537 3.73332C6.45541 3.48677 6.45541 3.21339 6.55537 2.97363L6.58869 2.8937C6.80189 2.38704 6.55537 1.80075 6.04881 1.5872L5.9754 1.55387C5.72889 1.4539 5.53547 1.26071 5.43551 1.01389L5.40896 0.947237C5.18926 0.440839 4.60956 0.200806 4.0965 0.407513L4.02986 0.434069C3.78335 0.534047 3.51002 0.534047 3.26351 0.434069L3.20364 0.407513C2.70384 0.200786 2.11735 0.447348 1.90417 0.954002L1.87762 1.00738C1.77766 1.25393 1.58452 1.44738 1.33774 1.54736L1.27787 1.57392C0.777811 1.78715 0.531305 2.37373 0.744491 2.88015L0.771043 2.94004C0.871002 3.18659 0.871002 3.45997 0.771043 3.69973L0.744491 3.77315C0.531299 4.27981 0.771303 4.86637 1.28438 5.07312L1.35102 5.09968C1.59753 5.19966 1.79094 5.39284 1.8909 5.63967L1.92422 5.71309C2.13065 6.22599 2.71709 6.46605 3.22342 6.25932L3.29683 6.22599C3.54334 6.12601 3.81667 6.12601 4.06318 6.22599L4.12305 6.25255C4.62962 6.46578 5.2158 6.21922 5.42932 5.71256L5.45587 5.65919C5.55583 5.41263 5.74897 5.21918 5.99575 5.11921L6.04912 5.09916C6.56218 4.88593 6.80221 4.30614 6.589 3.79266L6.55537 3.73332ZM3.38348 4.63312L2.08401 3.54017L2.48385 3.06684L3.31004 3.76668L4.76931 2.03374L5.24255 2.43365L3.38348 4.63312Z" fill="#3E4244" />
</svg>
