<svg width="27" height="21" viewBox="0 0 27 21" fill="none" xmlns="http://www.w3.org/2000/svg">
<path d="M24.9958 6.98582L21.5579 1.63956C20.9185 0.639317 19.8129 0.0350648 18.625 0.0374828H8.37575C7.18904 0.0350611 6.08225 0.639317 5.44287 1.63835L2.00497 6.98585C1.16094 8.29852 0.711684 9.82672 0.712893 11.3875V18.6375C0.714104 19.9211 1.75431 20.9613 3.03789 20.9625H5.36289C6.64648 20.9613 7.68668 19.9211 7.68789 18.6375V17.475H19.3129V18.6375C19.3141 19.9211 20.3543 20.9613 21.6379 20.9625H23.9629C25.2465 20.9613 26.2867 19.9211 26.2879 18.6375V11.3863C26.2891 9.82539 25.8399 8.29722 24.9958 6.98585L24.9958 6.98582ZM7.39829 2.89661C7.61142 2.5624 7.97954 2.36137 8.3755 2.36258H18.6247C19.0207 2.36136 19.3888 2.56359 19.6019 2.89661L22.2478 7.01248H4.75114L7.39829 2.89661ZM23.9628 18.6375H21.6378V16.3125C21.6378 16.0037 21.5155 15.7082 21.2975 15.4903C21.0796 15.2723 20.7841 15.15 20.4753 15.15H6.52533C5.88354 15.15 5.36283 15.6707 5.36283 16.3125V18.6375H3.03783V11.3863C3.04267 10.6851 3.17346 9.99127 3.42533 9.33736H23.5753C23.8272 9.99127 23.9592 10.6851 23.964 11.3863L23.9628 18.6375Z" fill="#3E4244"/>
<path d="M7.68828 12.2437C7.68828 13.7937 5.36328 13.7937 5.36328 12.2437C5.36328 10.6937 7.68828 10.6937 7.68828 12.2437Z" fill="#3E4244"/>
<path d="M21.6375 12.2437C21.6375 13.7937 19.3125 13.7937 19.3125 12.2437C19.3125 10.6937 21.6375 10.6937 21.6375 12.2437Z" fill="#3E4244"/>
</svg>
