<svg width="16" height="18" viewBox="0 0 16 18" fill="none" xmlns="http://www.w3.org/2000/svg">
<path d="M16 8.8426C16 7.99343 15.8094 7.15713 15.4458 6.41178L12.4749 0.311279H3.52508L0.554158 6.41178C0.190613 7.15713 0 7.99346 0 8.8426V15.5403C0 16.6951 0.835411 17.6305 1.86666 17.6305H3.46666C4.49791 17.6305 5.33332 16.6951 5.33332 15.5403V15.2417H10.6666V15.5403C10.6666 16.6951 11.502 17.6305 12.5333 17.6305H14.1333C15.1645 17.6305 15.9999 16.6951 15.9999 15.5403L16 8.8426ZM14.4 15.5403C14.4 15.6196 14.3719 15.6954 14.3219 15.7514C14.2719 15.8074 14.2042 15.8389 14.1333 15.8389H12.5333C12.3865 15.8389 12.2667 15.7048 12.2667 15.5403V13.4501H3.73337V15.5403C3.73337 15.6196 3.70525 15.6954 3.65525 15.7514C3.60525 15.8074 3.53754 15.8389 3.46671 15.8389H1.86671C1.71984 15.8389 1.60005 15.7048 1.60005 15.5403V8.8426C1.60005 8.29323 1.72297 7.75201 1.95733 7.2691L4.47503 2.10294H11.5251L14.0428 7.2691C14.2772 7.75201 14.4001 8.29323 14.4001 8.8426L14.4 15.5403Z" fill="#1E55A9"/>
<path d="M4 9.69258C4 10.076 4.10547 10.4424 4.29298 10.713C4.48048 10.9836 4.73438 11.1359 5 11.1359H11C11.2656 11.1359 11.5195 10.9836 11.707 10.713C11.8945 10.4424 12 10.076 12 9.69258V8.97095H4V9.69258Z" fill="#1E55A9"/>
</svg>
