<svg width="13" height="13" viewBox="0 0 13 13" fill="none" xmlns="http://www.w3.org/2000/svg">
	<path d="M12.1105 7.46659C11.9106 6.97347 11.9106 6.42672 12.1105 5.9472L12.1771 5.78734C12.6035 4.77403 12.1105 3.60144 11.0974 3.17434L10.9506 3.10768C10.4575 2.90773 10.0707 2.52136 9.87078 2.02772L9.81768 1.89441C9.37827 0.881616 8.21887 0.401552 7.19276 0.814965L7.05948 0.868078C6.56646 1.06803 6.0198 1.06803 5.52678 0.868078L5.40703 0.814965C4.40744 0.401512 3.23446 0.894635 2.8081 1.90794L2.755 2.01469C2.55508 2.5078 2.16879 2.8947 1.67523 3.09466L1.55549 3.14777C0.555377 3.57423 0.0623663 4.74741 0.488738 5.76024L0.541841 5.88001C0.741759 6.37312 0.741759 6.91988 0.541841 7.3994L0.488738 7.54624C0.062353 8.55956 0.542361 9.73268 1.56851 10.1462L1.70179 10.1993C2.19481 10.3993 2.58164 10.7856 2.78156 11.2793L2.84819 11.4261C3.26105 12.4519 4.43394 12.932 5.44659 12.5186L5.59341 12.4519C6.08644 12.252 6.63309 12.252 7.12612 12.4519L7.24586 12.505C8.25899 12.9315 9.43136 12.4384 9.85839 11.4251L9.91149 11.3183C10.1114 10.8252 10.4977 10.4383 10.9913 10.2384L11.098 10.1983C12.1241 9.7718 12.6042 8.61222 12.1778 7.58525L12.1105 7.46659ZM5.76671 9.26618L3.16778 7.08028L3.96745 6.13361L5.61984 7.53329L8.53837 4.06741L9.48486 4.86723L5.76671 9.26618Z" fill="#1E55A9" />
</svg>
