<svg width="13" height="13" viewBox="0 0 13 13" fill="none" xmlns="http://www.w3.org/2000/svg">
	<path d="M12.1106 7.4664C11.9107 6.97329 11.9107 6.42653 12.1106 5.94702L12.1773 5.78716C12.6036 4.77384 12.1106 3.60126 11.0975 3.17415L10.9507 3.1075C10.4577 2.90755 10.0708 2.52118 9.87091 2.02753L9.8178 1.89423C9.3784 0.881433 8.21899 0.401369 7.19288 0.814782L7.0596 0.867895C6.56658 1.06785 6.01992 1.06785 5.5269 0.867895L5.40716 0.814782C4.40757 0.401329 3.23458 0.894451 2.80822 1.90776L2.75512 2.01451C2.5552 2.50762 2.16891 2.89452 1.67535 3.09447L1.55561 3.14759C0.555499 3.57405 0.0624884 4.74722 0.48886 5.76006L0.541963 5.87983C0.741881 6.37294 0.741881 6.9197 0.541963 7.39921L0.48886 7.54606C0.0624751 8.55938 0.542483 9.7325 1.56863 10.146L1.70191 10.1991C2.19493 10.3991 2.58176 10.7854 2.78168 11.2791L2.84832 11.4259C3.26117 12.4517 4.43406 12.9319 5.44672 12.5184L5.59354 12.4517C6.08656 12.2518 6.63321 12.2518 7.12624 12.4517L7.24598 12.5049C8.25911 12.9313 9.43148 12.4382 9.85851 11.4249L9.91161 11.3181C10.1115 10.825 10.4978 10.4381 10.9914 10.2382L11.0981 10.1981C12.1242 9.77161 12.6043 8.61203 12.1779 7.58507L12.1106 7.4664ZM5.76683 9.266L3.1679 7.08009L3.96757 6.13343L5.61996 7.53311L8.53849 4.06723L9.48498 4.86705L5.76683 9.266Z" fill="#3E4244" />
</svg>
