<svg width="6" height="20" viewBox="0 0 6 20" fill="none" xmlns="http://www.w3.org/2000/svg">
<path d="M2.99295 7.80488C4.18343 7.80488 5.13581 8.78049 5.13581 10C5.13581 11.2195 4.18343 12.1951 2.99295 12.1951C1.80248 12.1951 0.850098 11.2195 0.850098 10C0.850098 8.78049 1.80248 7.80488 2.99295 7.80488ZM0.850098 2.19512C0.850098 3.41463 1.80248 4.39024 2.99295 4.39024C4.18343 4.39024 5.13581 3.41463 5.13581 2.19512C5.13581 0.97561 4.18343 0 2.99295 0C1.80248 0 0.850098 0.97561 0.850098 2.19512ZM0.850098 17.8049C0.850098 19.0244 1.80248 20 2.99295 20C4.18343 20 5.13581 19.0244 5.13581 17.8049C5.13581 16.5854 4.18343 15.6098 2.99295 15.6098C1.80248 15.6098 0.850098 16.5854 0.850098 17.8049Z" fill="#1E55A9"/>
</svg>
