<svg width="30" height="19" viewBox="0 0 30 19" fill="none" xmlns="http://www.w3.org/2000/svg">
	<path d="M4.4614 13L13.2149 13C14.4439 13 15.6046 12.4351 16.3628 11.468L18.3229 8.96799C19.459 7.51881 19.459 5.48119 18.3229 4.03201L16.3628 1.53201C15.6046 0.564898 14.4439 -2.88769e-07 13.215 -3.49807e-07L4.4614 -7.84581e-07C2.25227 -8.94305e-07 0.461405 1.79086 0.461405 4L0.461404 9C0.461404 11.2091 2.25226 13 4.4614 13Z" fill="#4ACBD3" />
	<g style="mix-blend-mode:multiply">
		<path d="M25.6343 6L16.8808 6C15.6518 6 14.4911 6.5649 13.7329 7.53201L11.7728 10.032C10.6367 11.4812 10.6367 13.5188 11.7728 14.968L13.7329 17.468C14.4911 18.4351 15.6518 19 16.8808 19L25.6343 19C27.8434 19 29.6343 17.2091 29.6343 15L29.6343 10C29.6343 7.79086 27.8434 6 25.6343 6Z" fill="#1E55A9" />
	</g>
	<path d="M7.7536 12.9162V12.0838C7.7536 10.933 6.82064 10 5.66977 10C4.5189 10 3.58594 10.933 3.58594 12.0838V12.9162C3.58594 14.067 4.5189 15 5.66977 15C6.82064 15 7.7536 14.067 7.7536 12.9162Z" fill="#4B40D1" />
</svg>
