<svg width="25" height="25" viewBox="0 0 25 25" fill="none" xmlns="http://www.w3.org/2000/svg">
	<path d="M13.929 11.2688L13.929 11.2689V17.1692C13.929 17.3223 13.8682 17.4682 13.7601 17.5763C13.6522 17.6842 13.5052 17.7464 13.3518 17.7464H11.6482C11.3294 17.7464 11.0711 17.4881 11.0711 17.1692V11.2677C11.0711 10.9489 11.3294 10.6906 11.6482 10.6906H13.3518L13.929 11.2688ZM13.929 11.2688L13.929 11.2677M13.929 11.2688L13.353 10.7906V10.6906C13.5054 10.6909 13.652 10.7514 13.7601 10.8594C13.8684 10.9678 13.929 11.1149 13.929 11.2677M13.929 11.2677L13.929 11.2676L13.829 11.2677H13.929ZM13.929 7.83316V7.83324V9.08705C13.929 9.23987 13.8684 9.38703 13.7601 9.49537L13.6894 9.42466L13.7601 9.49537C13.6518 9.6037 13.5046 9.66424 13.3518 9.66424H11.6482C11.3294 9.66424 11.0711 9.40592 11.0711 9.08705V7.83087C11.0711 7.512 11.3294 7.25369 11.6482 7.25369H13.3518L13.929 7.83316ZM13.929 7.83316L13.929 7.83088M13.929 7.83316L13.929 7.83088M13.929 7.83088V7.8308V7.83088ZM12.5001 0.9H12.5C9.42308 0.9 6.47267 2.1226 4.29692 4.29687L4.29687 4.29691C2.12247 6.47252 0.9 9.42318 0.9 12.5C0.9 15.5768 2.1226 18.5273 4.29687 20.7031L4.29691 20.7031C6.47252 22.8775 9.42318 24.1 12.5 24.1C15.5768 24.1 18.5273 22.8774 20.7031 20.7031L20.7031 20.7031C22.8775 18.5275 24.1 15.5768 24.1 12.5V12.4999C24.0964 9.42422 22.8738 6.47599 20.6982 4.30176C18.5238 2.12617 15.5756 0.903697 12.5001 0.9ZM19.5451 19.5456L19.5451 19.5456C17.6765 21.4153 15.1432 22.4663 12.4999 22.4686C9.85662 22.4686 7.3208 21.4186 5.45132 19.5489C3.5818 17.6793 2.53164 15.1435 2.53164 12.5002C2.53164 9.85699 3.58165 7.32107 5.45131 5.45156C7.32098 3.58205 9.85675 2.53188 12.5 2.53188C15.1433 2.53188 17.6792 3.5819 19.5487 5.45156C21.4182 7.3212 22.4683 9.85693 22.4684 12.5002C22.466 15.1435 21.4148 17.6769 19.5451 19.5456Z" fill="#CAD4E3" stroke="#CAD4E3" stroke-width="0.2" />
</svg>
