<svg width="24" height="23" viewBox="0 0 24 23" fill="none" xmlns="http://www.w3.org/2000/svg">
<path d="M20.9935 6.88157e-07C20.8641 0.00770775 20.7353 0.0225025 20.6076 0.0443186C20.5257 0.0443186 20.4438 0.0681825 20.3652 0.085228C19.8794 0.190397 19.4273 0.414424 19.0497 0.737185C18.672 1.05995 18.3805 1.47133 18.2015 1.93438C18.0224 2.39743 17.9613 2.89765 18.0238 3.39009C18.0862 3.88254 18.2701 4.35179 18.5591 4.75568C18.6069 4.82046 18.6547 4.88523 18.7093 4.94659C19.0365 5.32971 19.4551 5.62444 19.9263 5.80362C20.3976 5.9828 20.9064 6.04066 21.4059 5.97187C21.9055 5.90309 22.3796 5.70987 22.7847 5.41003C23.1898 5.11018 23.5128 4.71335 23.724 4.2561C23.9351 3.79886 24.0276 3.2959 23.9929 2.79359C23.9582 2.29128 23.7974 1.80576 23.5254 1.38179C23.2534 0.95781 22.8789 0.609012 22.4364 0.367532C21.994 0.126052 21.4977 -0.000340309 20.9935 6.88157e-07Z" fill="white"/>
<path d="M20.9935 6.88157e-07C20.8641 0.00770775 20.7353 0.0225025 20.6076 0.0443186C20.5257 0.0443186 20.4438 0.0681825 20.3652 0.085228C19.8794 0.190397 19.4273 0.414424 19.0497 0.737185C18.672 1.05995 18.3805 1.47133 18.2015 1.93438C18.0224 2.39743 17.9613 2.89765 18.0238 3.39009C18.0862 3.88254 18.2701 4.35179 18.5591 4.75568C18.6069 4.82046 18.6547 4.88523 18.7093 4.94659C19.0365 5.32971 19.4551 5.62444 19.9263 5.80362C20.3976 5.9828 20.9064 6.04066 21.4059 5.97187C21.9055 5.90309 22.3796 5.70987 22.7847 5.41003C23.1898 5.11018 23.5128 4.71335 23.724 4.2561C23.9351 3.79886 24.0276 3.2959 23.9929 2.79359C23.9582 2.29128 23.7974 1.80576 23.5254 1.38179C23.2534 0.95781 22.8789 0.609012 22.4364 0.367532C21.994 0.126052 21.4977 -0.000340309 20.9935 6.88157e-07Z" fill="#AAAAAA"/>
<path d="M7.31492 6.13057C4.54471 8.90078 4.54471 13.3922 7.31492 16.1624C10.0851 18.9326 14.5765 18.9326 17.3468 16.1624C20.117 13.3922 20.117 8.90078 17.3468 6.13057C14.5765 3.36036 10.0851 3.36035 7.31492 6.13057Z" fill="#D8D8D8"/>
<path d="M5.61618 21.1511C7.28684 22.8218 10.1434 21.9952 10.6638 19.6906L11.7627 14.8243C12.2483 12.6738 10.3261 10.7516 8.17555 11.2372L3.30931 12.336C1.00467 12.8564 0.178109 15.713 1.84877 17.3837L5.61618 21.1511Z" fill="#3B3B3B"/>
</svg>
