<svg width="27" height="20" viewBox="0 0 27 20" fill="none" xmlns="http://www.w3.org/2000/svg">
	<path d="M7.0537 20C10.794 20 13.8262 17.0898 13.8262 13.5C13.8262 9.91015 10.794 7 7.0537 7C3.31338 7 0.28125 9.91015 0.28125 13.5C0.28125 17.0898 3.31338 20 7.0537 20Z" fill="#4B40D1" />
	<path d="M19.5557 20C23.296 20 26.3281 17.0898 26.3281 13.5C26.3281 9.91015 23.296 7 19.5557 7C15.8153 7 12.7832 9.91015 12.7832 13.5C12.7832 17.0898 15.8153 20 19.5557 20Z" fill="#4ACBD3" />
	<g style="mix-blend-mode:multiply">
		<path d="M26.3301 8L26.3301 4C26.3301 1.79086 24.5392 -7.51317e-08 22.3301 -1.67811e-07L4.28217 -9.24973e-07C2.07303 -1.01765e-06 0.282165 1.79086 0.282165 4L0.282165 8C0.282165 10.2091 2.07303 12 4.28216 12L22.3301 12C24.5392 12 26.3301 10.2091 26.3301 8Z" fill="#1E55A9" />
	</g>
</svg>
