<svg width="22" height="22" viewBox="0 0 22 22" fill="none" xmlns="http://www.w3.org/2000/svg">
<g clip-path="url(#clip0_1408_7214)">
<path d="M6.76923 0.883467C6.76629 0.741203 6.79797 0.600411 6.86145 0.473656C6.92493 0.346901 7.01823 0.238128 7.13303 0.157043C7.24783 0.0759587 7.38054 0.0250863 7.51934 0.00896657C7.65814 -0.00715319 7.79869 0.011981 7.92846 0.0646618L14.1688 2.60727C14.4823 2.73541 14.7509 2.95614 14.9401 3.24107C15.1294 3.526 15.2306 3.86208 15.2308 4.20609V22H6.76923V0.883467Z" fill="#3B3B3B"/>
<path d="M0 11.0194C0.00104477 10.7179 0.0797351 10.4219 0.228214 10.161C0.376693 9.90009 0.589765 9.68343 0.846154 9.53266L5.92308 6.48584V22H1.69231C1.24348 22 0.813035 21.8184 0.495665 21.4952C0.178296 21.1719 0 20.7334 0 20.2762V11.0194Z" fill="white"/>
<path d="M0 11.0194C0.00104477 10.7179 0.0797351 10.4219 0.228214 10.161C0.376693 9.90009 0.589765 9.68343 0.846154 9.53266L5.92308 6.48584V22H1.69231C1.24348 22 0.813035 21.8184 0.495665 21.4952C0.178296 21.1719 0 20.7334 0 20.2762V11.0194Z" fill="#AAAAAA"/>
<path d="M16.0769 9.07129L21.1538 12.1353C21.4102 12.2861 21.6233 12.5028 21.7718 12.7637C21.9202 13.0246 21.9989 13.3206 22 13.6221V20.276C22 20.7332 21.8217 21.1716 21.5043 21.4949C21.1869 21.8182 20.7565 21.9998 20.3077 21.9998H16.0769V9.07129Z" fill="#D8D8D8"/>
</g>
<defs>
<clipPath id="clip0_1408_7214">
<rect width="22" height="22" fill="white"/>
</clipPath>
</defs>
</svg>
