<svg width="21" height="27" viewBox="0 0 21 27" fill="none" xmlns="http://www.w3.org/2000/svg">
<g clip-path="url(#clip0_1408_7199)">
<path d="M16.4018 14.7608C15.669 14.7612 14.9451 14.6005 14.2814 14.2901C13.6177 13.9797 13.0305 13.5272 12.5613 12.9646C11.7548 13.4652 10.857 13.801 9.91976 13.9525C8.98252 14.104 8.02453 14.0682 7.10122 13.8473C6.17791 13.6263 5.30762 13.2246 4.54074 12.6653C3.77385 12.106 3.1256 11.4002 2.6335 10.5889C1.4474 11.8496 0.618312 13.403 0.231285 15.0897C-0.155742 16.7763 -0.0867715 18.5354 0.431121 20.1867C0.949014 21.8379 1.89718 23.3217 3.17835 24.4858C4.45952 25.65 6.02755 26.4526 7.72159 26.8113C9.41562 27.1701 11.1747 27.072 12.8182 26.5271C14.4618 25.9823 15.9308 25.0103 17.0744 23.711C18.2179 22.4116 18.995 20.8316 19.3259 19.133C19.6567 17.4345 19.5294 15.6786 18.957 14.0455C18.1863 14.5119 17.3028 14.7592 16.4018 14.7608Z" fill="#D8D8D8"/>
<path d="M8.78874 13.6646C10.0404 13.6628 11.2676 13.3179 12.3366 12.6673C11.8232 11.9623 11.5046 11.1346 11.4129 10.2675C11.3212 9.40045 11.4596 8.52452 11.8141 7.72783C12.1336 7.01248 12.6169 6.38222 13.225 5.8879C13.8332 5.39358 14.5491 5.04906 15.315 4.88215C14.9523 3.66755 14.2585 2.57777 13.3113 1.73478C12.364 0.891787 11.2007 0.32884 9.95153 0.108939C8.70233 -0.110962 7.41654 0.0208613 6.23805 0.489655C5.05957 0.958449 4.03488 1.74572 3.27867 2.76335C2.52247 3.78098 2.06458 4.98883 1.95625 6.25172C1.84792 7.51461 2.09343 8.78271 2.66529 9.9141C3.23716 11.0455 4.11282 11.9955 5.19428 12.6579C6.27574 13.3203 7.52032 13.6688 8.78874 13.6646Z" fill="#3B3B3B"/>
<path d="M16.4019 5.16943C16.2039 5.18124 16.0068 5.2039 15.8114 5.23731C15.686 5.23731 15.5606 5.27386 15.4404 5.29997C14.6969 5.46105 14.0051 5.80417 13.4271 6.29852C12.849 6.79287 12.403 7.42295 12.1289 8.13217C11.8549 8.84139 11.7614 9.60753 11.857 10.3618C11.9525 11.116 12.2341 11.8347 12.6763 12.4533C12.7495 12.5525 12.8226 12.6517 12.9062 12.7457C13.407 13.3325 14.0475 13.7839 14.7687 14.0584C15.4899 14.3328 16.2686 14.4214 17.0331 14.3161C17.7976 14.2107 18.5233 13.9148 19.1433 13.4555C19.7632 12.9963 20.2575 12.3885 20.5807 11.6882C20.9038 10.9878 21.0453 10.2175 20.9922 9.44815C20.9391 8.6788 20.6931 7.93517 20.2768 7.2858C19.8606 6.63643 19.2874 6.10221 18.6102 5.73235C17.933 5.3625 17.1736 5.16891 16.4019 5.16943Z" fill="white"/>
<path d="M16.4019 5.16943C16.2039 5.18124 16.0068 5.2039 15.8114 5.23731C15.686 5.23731 15.5606 5.27386 15.4404 5.29997C14.6969 5.46105 14.0051 5.80417 13.4271 6.29852C12.849 6.79287 12.403 7.42295 12.1289 8.13217C11.8549 8.84139 11.7614 9.60753 11.857 10.3618C11.9525 11.116 12.2341 11.8347 12.6763 12.4533C12.7495 12.5525 12.8226 12.6517 12.9062 12.7457C13.407 13.3325 14.0475 13.7839 14.7687 14.0584C15.4899 14.3328 16.2686 14.4214 17.0331 14.3161C17.7976 14.2107 18.5233 13.9148 19.1433 13.4555C19.7632 12.9963 20.2575 12.3885 20.5807 11.6882C20.9038 10.9878 21.0453 10.2175 20.9922 9.44815C20.9391 8.6788 20.6931 7.93517 20.2768 7.2858C19.8606 6.63643 19.2874 6.10221 18.6102 5.73235C17.933 5.3625 17.1736 5.16891 16.4019 5.16943Z" fill="#AAAAAA"/>
</g>
<defs>
<clipPath id="clip0_1408_7199">
<rect width="21" height="27" fill="white"/>
</clipPath>
</defs>
</svg>
