<svg width="22" height="18" viewBox="0 0 22 18" fill="none" xmlns="http://www.w3.org/2000/svg">
<path d="M6 18C9.31371 18 12 15.3137 12 12C12 8.68629 9.31371 6 6 6C2.68629 6 0 8.68629 0 12C0 15.3137 2.68629 18 6 18Z" fill="#4ACBD3"/>
<path d="M16.5 18C19.5376 18 22 15.3137 22 12C22 8.68629 19.5376 6 16.5 6C13.4624 6 11 8.68629 11 12C11 15.3137 13.4624 18 16.5 18Z" fill="#4B40D1"/>
<path d="M22 7L22 4C22 1.79086 20.2091 -7.8281e-08 18 -1.74846e-07L4 -7.86805e-07C1.79086 -8.8337e-07 -7.8281e-08 1.79086 -1.74846e-07 4L-3.0598e-07 7C-4.02544e-07 9.20914 1.79086 11 4 11L18 11C20.2091 11 22 9.20914 22 7Z" fill="#1E55A9"/>
</svg>
