<svg width="23" height="19" viewBox="0 0 23 19" fill="none" xmlns="http://www.w3.org/2000/svg">
	<path d="M1.02808 15.416H11.306C11.8735 15.416 12.334 15.9835 12.334 16.4441C12.334 17.0116 11.8735 17.4722 11.306 17.4722H1.02808C0.460566 17.4722 0 16.9047 0 16.4441C0 15.8766 0.460566 15.416 1.02808 15.416Z" fill="#CAD4E3" />
	<path d="M1.02808 11.3047H11.306C11.8735 11.3047 12.334 11.8722 12.334 12.3328C12.334 12.9003 11.8735 13.3609 11.306 13.3609H1.02808C0.460566 13.3609 0 12.7933 0 12.3328C0 11.7653 0.460566 11.3047 1.02808 11.3047Z" fill="#CAD4E3" />
	<path d="M18.5006 18.4995C17.4099 18.4995 16.3644 18.0659 15.5937 17.2951C14.8229 16.5243 14.3893 15.4788 14.3893 14.3882C14.3893 13.2984 14.8229 12.252 15.5937 11.4813C16.3645 10.7105 17.4099 10.2778 18.5006 10.2778C19.5903 10.2778 20.6367 10.7105 21.4075 11.4813C22.1783 12.2521 22.6109 13.2985 22.6109 14.3882C22.6109 15.4789 22.1783 16.5243 21.4075 17.2951C20.6367 18.0658 19.5903 18.4995 18.5006 18.4995ZM18.5006 12.3329C17.6691 12.3329 16.9194 12.834 16.6015 13.6019C16.2835 14.3698 16.4589 15.2543 17.0466 15.8421C17.6344 16.4298 18.5189 16.6052 19.2868 16.2872C20.0547 15.9692 20.5558 15.2196 20.5558 14.3881C20.5558 13.8437 20.339 13.3205 19.9536 12.9351C19.5682 12.5497 19.045 12.3329 18.5006 12.3329Z" fill="#CAD4E3" />
	<path d="M11.3059 1.02783H21.5838C22.1513 1.02783 22.6119 1.59535 22.6119 2.05592C22.6119 2.62343 22.1513 3.084 21.5838 3.084H11.3059C10.7384 3.084 10.2779 2.51648 10.2779 2.05592C10.2779 1.4884 10.7384 1.02783 11.3059 1.02783Z" fill="#CAD4E3" />
	<path d="M11.3059 5.13818H21.5838C22.1513 5.13818 22.6119 5.7057 22.6119 6.16627C22.6119 6.73379 22.1513 7.19435 21.5838 7.19435H11.3059C10.7384 7.19435 10.2779 6.62683 10.2779 6.16627C10.2779 5.59875 10.7384 5.13818 11.3059 5.13818Z" fill="#CAD4E3" />
	<path d="M4.11134 8.22163C3.02159 8.22163 1.97521 7.78902 1.20444 7.0182C0.433675 6.24738 0.00100708 5.201 0.00100708 4.1113C0.00100708 3.02059 0.433626 1.97516 1.20444 1.2044C1.97526 0.43363 3.02164 0 4.11134 0C5.20205 0 6.24748 0.433581 7.01825 1.2044C7.78901 1.97521 8.22264 3.02064 8.22264 4.1113C8.22264 5.20105 7.78906 6.24743 7.01825 7.0182C6.24743 7.78897 5.20201 8.22163 4.11134 8.22163ZM4.11134 2.05511C3.27982 2.05511 2.53118 2.55612 2.21225 3.32405C1.89428 4.09198 2.07061 4.97649 2.65836 5.56423C3.24611 6.15197 4.13063 6.32831 4.89854 6.01034C5.66647 5.69141 6.16749 4.94277 6.16749 4.11125C6.16749 3.56591 5.95069 3.04271 5.56529 2.65731C5.17988 2.2719 4.65669 2.05511 4.11134 2.05511Z" fill="#CAD4E3" />
</svg>
