<svg width="22" height="21" viewBox="0 0 22 21" fill="none" xmlns="http://www.w3.org/2000/svg">
<g clip-path="url(#clip0_1408_7210)">
<path d="M19.7202 13.2856C19.3457 13.2856 19.0026 13.0763 18.8312 12.7434L15.8884 7.02912C15.5457 6.3636 16.0289 5.57129 16.7775 5.57129H21.1538C21.3783 5.57129 21.5935 5.6616 21.7522 5.82234C21.9109 5.98309 22 6.2011 22 6.42843V12.4284C22 12.6558 21.9109 12.8738 21.7522 13.0345C21.5935 13.1953 21.3783 13.2856 21.1538 13.2856H19.7202Z" fill="white"/>
<path d="M19.7202 13.2856C19.3457 13.2856 19.0026 13.0763 18.8312 12.7434L15.8884 7.02912C15.5457 6.3636 16.0289 5.57129 16.7775 5.57129H21.1538C21.3783 5.57129 21.5935 5.6616 21.7522 5.82234C21.9109 5.98309 22 6.2011 22 6.42843V12.4284C22 12.6558 21.9109 12.8738 21.7522 13.0345C21.5935 13.1953 21.3783 13.2856 21.1538 13.2856H19.7202Z" fill="#AAAAAA"/>
<path d="M8.35061 9.68349C7.58076 9.29156 7.12072 8.35526 7.5162 7.58722L10.2674 2.24426C10.7514 1.3045 12.0949 1.30444 12.5789 2.24415L20.6008 17.819C21.0464 18.6842 20.4183 19.7143 19.4451 19.7143H13.113C11.9932 19.7143 11.2938 18.2819 11.5997 17.2046C11.6445 17.047 11.6834 16.8873 11.7162 16.7259C11.9425 15.6143 11.8743 14.4619 11.5184 13.3857C11.1626 12.3095 10.5318 11.3479 9.69021 10.5987C9.28222 10.2355 8.83174 9.92844 8.35061 9.68349Z" fill="#D8D8D8"/>
<path d="M11 15.4284C11 16.5303 10.6774 17.6075 10.0731 18.5237C9.46874 19.4399 8.60975 20.154 7.60476 20.5757C6.59977 20.9974 5.4939 21.1077 4.42701 20.8927C3.36011 20.6778 2.3801 20.1471 1.61092 19.368C0.841726 18.5888 0.317902 17.596 0.105683 16.5153C-0.106535 15.4345 0.00238306 14.3143 0.418665 13.2963C0.834947 12.2782 1.5399 11.4081 2.44437 10.7959C3.34884 10.1837 4.41221 9.85693 5.5 9.85693C6.95869 9.85693 8.35764 10.4439 9.38909 11.4888C10.4205 12.5336 11 13.9507 11 15.4284Z" fill="#3B3B3B"/>
</g>
<defs>
<clipPath id="clip0_1408_7210">
<rect width="22" height="21" fill="white"/>
</clipPath>
</defs>
</svg>
