<svg width="21" height="20" viewBox="0 0 21 20" fill="none" xmlns="http://www.w3.org/2000/svg">
	<path d="M17.1574 13.125C15.6661 13.125 14.4274 14.1332 14.0288 15.4768H11.193V2.37321H6.38442C6.00625 1.00821 4.74625 0 3.255 0C1.47 0 0 1.44866 0 3.255C0 5.04 1.44866 6.51 3.255 6.51C4.74634 6.51 5.985 5.50183 6.38358 4.15821H9.40716V17.2618H14.0057C14.406 18.6055 15.666 19.6136 17.1574 19.6136C18.9424 19.6136 20.4124 18.1649 20.4124 16.3586C20.3911 14.5736 18.9424 13.125 17.1574 13.125ZM3.25479 4.725C2.43613 4.725 1.78479 4.07367 1.78479 3.255C1.78479 2.43634 2.43613 1.785 3.25479 1.785C4.07345 1.785 4.72479 2.43634 4.72479 3.255C4.74612 4.07367 4.07427 4.725 3.25479 4.725ZM17.1574 17.8286C16.3388 17.8286 15.6874 17.1772 15.6874 16.3586C15.6874 15.5399 16.3388 14.8886 17.1574 14.8886C17.9761 14.8886 18.6274 15.5399 18.6274 16.3586C18.6274 17.1781 17.9548 17.8286 17.1574 17.8286Z" fill="url(#paint0_linear_1519_8753)" />
	<defs>
		<linearGradient id="paint0_linear_1519_8753" x1="-0.25369" y1="9.76743" x2="20.4096" y2="9.76743" gradientUnits="userSpaceOnUse">
			<stop stop-color="#1E55A9" />
			<stop offset="0.98" stop-color="#2BBFC7" />
		</linearGradient>
	</defs>
</svg>
