<svg width="23" height="23" viewBox="0 0 23 23" fill="none" xmlns="http://www.w3.org/2000/svg">
<path d="M17.3878 18.4038C18.263 19.2296 18.2686 20.6401 17.2465 21.275C16.6618 21.6382 16.0406 21.9492 15.3907 22.2032C14.0403 22.7309 12.5926 23.0017 11.1309 23C4.98293 23 0 18.2995 0 12.5C0 8.00351 2.99535 4.16768 7.20669 2.67101C9.28828 1.93122 11.1309 3.79086 11.1309 6V9.2161C11.1309 11.0297 12.6012 12.5 14.4148 12.5H15.2547C16.6025 12.5 17.738 13.6362 17.1961 14.8703C17.1617 14.9486 17.1256 15.0261 17.0879 15.1029C16.5565 16.1848 16.5111 17.5765 17.3878 18.4038Z" fill="#D8D8D8"/>
<path d="M14.9763 11.9988C16.6397 11.9988 18.1891 13.3699 17.8751 15.0035C17.7376 15.7188 17.4555 16.378 16.8879 16.9488C15.5821 18.2618 13.811 18.9996 11.964 19C8.11786 19 5 15.8669 5 12C5 9.35508 6.45808 7.05349 8.61074 5.86295C10.302 4.9276 11.964 6.56673 11.964 8.4994V8.98654C11.964 10.6502 13.3126 11.9988 14.9763 11.9988Z" fill="#373838"/>
<path d="M22.2849 6.08665C23.0751 8.14964 21.2091 10 19 10H18C15.7909 10 14 8.20914 14 6V4C14 1.79086 15.8888 -0.0724086 17.8443 0.95539C19.8326 2.00042 21.4209 3.83098 22.2849 6.08665Z" fill="#AAAAAA"/>
<path d="M20.5418 13C21.9001 13 23.036 14.1273 22.604 15.4151C22.4672 15.8231 22.2953 16.2242 22.0892 16.6157C21.7236 17.31 20.9577 18.0835 20.1624 18.7802C19.3508 19.4911 18.1179 19.3633 17.408 18.5509C16.6427 17.6752 16.8229 16.3519 17.4152 15.3511C17.4578 15.2791 17.4985 15.2063 17.5372 15.1327C18.1085 14.0478 19.0696 13 20.2958 13H20.5418Z" fill="#D8D8D8"/>
</svg>
