<svg width="26" height="17" viewBox="0 0 26 17" fill="none" xmlns="http://www.w3.org/2000/svg">
<path d="M4 11.6316L10.6277 11.6316C11.8845 11.6316 13.0682 11.0409 13.8239 10.0366L15.1902 8.22086C16.262 6.79657 16.262 4.83501 15.1902 3.41072L13.8239 1.59493C13.0682 0.590689 11.8845 -2.64728e-07 10.6277 -3.29768e-07L4 -6.72753e-07C1.79086 -7.87076e-07 1.84123e-06 1.79086 1.75966e-06 4L1.62558e-06 7.63158C1.54402e-06 9.84072 1.79086 11.6316 4 11.6316Z" fill="white"/>
<path d="M4 11.6316L10.6277 11.6316C11.8845 11.6316 13.0682 11.0409 13.8239 10.0366L15.1902 8.22086C16.262 6.79657 16.262 4.83501 15.1902 3.41072L13.8239 1.59493C13.0682 0.590689 11.8845 -2.64728e-07 10.6277 -3.29768e-07L4 -6.72753e-07C1.79086 -7.87076e-07 1.84123e-06 1.79086 1.75966e-06 4L1.62558e-06 7.63158C1.54402e-06 9.84072 1.79086 11.6316 4 11.6316Z" fill="#D8D8D8"/>
<g style="mix-blend-mode:multiply">
<path d="M21.0526 5.36842L14.4249 5.36842C13.1681 5.36842 11.9844 5.95911 11.2287 6.96335L9.86237 8.77914C8.79063 10.2034 8.79063 12.165 9.86237 13.5893L11.2287 15.4051C11.9844 16.4093 13.1681 17 14.4249 17L21.0526 17C23.2617 17 25.0526 15.2091 25.0526 13L25.0526 9.36842C25.0526 7.15928 23.2618 5.36842 21.0526 5.36842Z" fill="#3B3B3B"/>
</g>
<path d="M6.26315 11.6315V10.7367C6.26315 9.74844 5.46198 8.94727 4.47368 8.94727C3.48538 8.94727 2.6842 9.74844 2.6842 10.7367V11.6315C2.6842 12.6198 3.48538 13.4209 4.47368 13.4209C5.46198 13.4209 6.26315 12.6198 6.26315 11.6315Z" fill="#979797"/>
</svg>
